<?xml version="1.0" standalone="no"?>
<!DOCTYPE svg PUBLIC "-//W3C//DTD SVG 1.1//EN" "http://www.w3.org/Graphics/SVG/1.1/DTD/svg11.dtd" >
<svg>
<metadata>
Created by FontForge 20090622 at Wed Mar 13 17:20:25 2019
 By deploy user
Copyright (c) 2009 by Fontsmith Ltd. All rights reserved. This font may not be altered in any way without prior permission of Fontsmith Ltd.
</metadata>
<defs>
<font id="Telefonica-Bold" horiz-adv-x="600" >
  <font-face 
    font-family="Telefonica"
    font-weight="700"
    font-stretch="normal"
    units-per-em="1000"
    panose-1="0 0 8 0 0 0 0 0 0 0"
    ascent="750"
    descent="-250"
    x-height="490"
    cap-height="684"
    bbox="-416 -360 1353 1243"
    underline-thickness="97"
    underline-position="-4"
    unicode-range="U+000D-U+FB02"
  />
<missing-glyph horiz-adv-x="642" 
d="M86 0v660h470v-660h-470zM321 372l159 240h-320zM134 90l159 241l-159 239v-480zM510 90v480l-160 -239zM160 49h320l-159 239z" />
    <glyph glyph-name="fi" unicode="fi" horiz-adv-x="618" 
d="M98 0v397h-84v87l84 5v68q0 75 36 115q53 60 191 60q79 0 134 -11v-102q-40 6 -97 6q-67 0 -94 -16t-27 -60v-59h314v-490h-143v397h-171v-397h-143z" />
    <glyph glyph-name="fl" unicode="fl" horiz-adv-x="618" 
d="M98 0v397h-84v87l84 5v68q0 89 41 130q23 23 63.5 34t126.5 11q126 0 226 -12v-720h-143v620q-60 5 -90 5q-50 0 -67 -18q-14 -14 -14 -58v-59h106v-93h-106v-397h-143z" />
    <glyph glyph-name=".notdef" horiz-adv-x="642" 
d="M86 0v660h470v-660h-470zM321 372l159 240h-320zM134 90l159 241l-159 239v-480zM510 90v480l-160 -239zM160 49h320l-159 239z" />
    <glyph glyph-name=".null" horiz-adv-x="0" 
 />
    <glyph glyph-name="nonmarkingreturn" horiz-adv-x="333" 
 />
    <glyph glyph-name="CR" unicode="&#xd;" horiz-adv-x="225" 
 />
    <glyph glyph-name="space" unicode=" " horiz-adv-x="225" 
 />
    <glyph glyph-name="exclam" unicode="!" horiz-adv-x="290" 
d="M90 214l-22 470h150l-22 -470h-106zM142 -14q-73 0 -73 69v12q0 69 73 69h7q73 0 73 -69v-12q0 -69 -73 -69h-7z" />
    <glyph glyph-name="quotedbl" unicode="&#x22;" horiz-adv-x="477" 
d="M79 420l-17 264h139l-16 -264h-106zM293 420l-17 264h139l-16 -264h-106z" />
    <glyph glyph-name="numbersign" unicode="#" horiz-adv-x="596" 
d="M79 0l38 204h-64v91h80l17 94h-97v91h121l38 204h107l-38 -204h92l38 204h107l-38 -204h62v-91h-86l-16 -94h103v-91h-120l-38 -204h-107l36 204h-90l-38 -204h-107zM241 295h91l17 94h-92z" />
    <glyph glyph-name="dollar" unicode="$" 
d="M251 -128v115q-100 3 -191 34v120q103 -36 207 -36q134 0 134 83q0 31 -26 51t-65 29t-84.5 24.5t-84.5 35t-65 63t-26 106.5q0 88 54 137.5t147 59.5v106h91v-104q87 -5 152 -26v-118q-97 26 -186 26q-111 0 -111 -74q0 -27 19.5 -45t50.5 -28.5t68 -20t74.5 -24.5
t68.5 -36.5t50.5 -61t19.5 -93.5q0 -90 -57 -144q-55 -52 -149 -62v-117h-91z" />
    <glyph glyph-name="percent" unicode="%" horiz-adv-x="999" 
d="M228 280q-178 0 -178 209q0 101 44.5 154.5t133.5 53.5t134.5 -53.5t45.5 -154.5t-45.5 -155t-134.5 -54zM255 -14l365 711h123l-365 -711h-123zM228 375q35 0 49 28t14 86q0 57 -14 85t-49 28t-48.5 -27.5t-13.5 -85.5t13.5 -86t48.5 -28zM770 -14q-89 0 -134 53.5
t-45 154.5q0 102 45 155.5t134 53.5t134 -53.5t45 -155.5q0 -101 -45 -154.5t-134 -53.5zM770 81q35 0 49 28t14 85q0 58 -14 86t-49 28q-36 0 -49 -27.5t-13 -86.5q0 -58 13 -85.5t49 -27.5z" />
    <glyph glyph-name="ampersand" unicode="&#x26;" horiz-adv-x="693" 
d="M582 -37l-90 90q-86 -67 -213 -67q-109 0 -175.5 55t-66.5 147q0 62 36 111.5t108 77.5q-71 79 -71 155q0 74 50 119.5t132 45.5q79 0 126.5 -42t47.5 -113q0 -49 -32 -91.5t-90 -69.5l155 -164q15 22 29 61.5t18 69.5h99q-4 -52 -25.5 -110t-49.5 -96l93 -98zM291 436
q67 54 67 103q0 27 -17 43t-48 16q-30 0 -47.5 -16t-17.5 -42q0 -24 13.5 -46t49.5 -58zM304 98q65 0 115 31l-183 191q-61 -40 -61 -111q0 -50 34 -80.5t95 -30.5z" />
    <glyph glyph-name="quotesingle" unicode="'" horiz-adv-x="263" 
d="M79 420l-17 264h139l-16 -264h-106z" />
    <glyph glyph-name="parenleft" unicode="(" horiz-adv-x="359" 
d="M282 -227q-119 79 -180 204.5t-61 282.5t61 283t180 205l66 -75q-150 -153 -150 -413q0 -259 150 -412z" />
    <glyph glyph-name="parenright" unicode=")" horiz-adv-x="359" 
d="M77 -227l-66 75q150 153 150 412t-150 412l66 75q119 -79 180 -204.5t61 -282.5t-61 -282.5t-180 -204.5z" />
    <glyph glyph-name="asterisk" unicode="*" horiz-adv-x="460" 
d="M147 289l-72 60l96 117l-143 40l36 88l129 -56l-11 146h93l-8 -146l129 56l36 -88l-143 -40l96 -117l-72 -60l-83 127z" />
    <glyph glyph-name="plus" unicode="+" 
d="M253 137v140h-140v94h140v140h94v-140h140v-94h-140v-140h-94z" />
    <glyph glyph-name="comma" unicode="," horiz-adv-x="239" 
d="M101 -159v142q-33 11 -46 28.5t-13 49.5q0 75 73 75h7q73 0 73 -75v-27q0 -50 -7 -108.5t-15 -84.5h-72z" />
    <glyph glyph-name="hyphen" unicode="-" horiz-adv-x="334" 
d="M46 200v119h242v-119h-242z" />
    <glyph glyph-name="period" unicode="." horiz-adv-x="239" 
d="M116 -14q-73 0 -73 69v12q0 69 73 69h7q73 0 73 -69v-12q0 -69 -73 -69h-7z" />
    <glyph glyph-name="slash" unicode="/" horiz-adv-x="480" 
d="M26 -14l301 711h127l-301 -711h-127z" />
    <glyph glyph-name="zero" unicode="0" 
d="M300 -14q-139 0 -200.5 87.5t-61.5 267.5t61.5 268t200.5 88t200.5 -88t61.5 -268t-61.5 -267.5t-200.5 -87.5zM300 101q62 0 87.5 51t25.5 189q0 140 -25.5 195.5t-87.5 55.5t-87.5 -55.5t-25.5 -195.5q0 -138 25.5 -189t87.5 -51z" />
    <glyph glyph-name="one" unicode="1" 
d="M124 0v102h116v483h-111v97q82 12 159 12q53 0 74 -15t21 -53v-524h98v-102h-357z" />
    <glyph glyph-name="two" unicode="2" 
d="M76 0q-4 11 -4 32q0 57 40 105l133 162q62 75 85 114.5t23 79.5q0 43 -27 66q-30 26 -104 26q-64 0 -134 -13v106q76 19 159 19q141 0 205 -64q49 -49 49 -133q0 -63 -32 -120.5t-114 -147.5l-119 -130h276v-102h-436z" />
    <glyph glyph-name="three" unicode="3" 
d="M253 -14q-91 0 -165 16v108q69 -12 137 -12q79 0 113 23q37 25 37 79q0 51 -34 75q-33 24 -133 24h-19v100h24q86 0 119 29q27 24 27 70q0 42 -23 62q-29 26 -108 26q-67 0 -134 -10v106q69 15 157 15q139 0 201 -62q47 -47 47 -126q0 -105 -91 -151q115 -42 115 -169
q0 -83 -48 -132q-68 -71 -222 -71z" />
    <glyph glyph-name="four" unicode="4" 
d="M345 0v157h-301q-4 14 -4 35q0 46 21 104l142 388h138l-154 -420h158v163h143v-163h80v-107h-80v-157h-143z" />
    <glyph glyph-name="five" unicode="5" 
d="M264 -14q-89 0 -161 16v107q57 -11 126 -11q84 0 118.5 28t34.5 82q0 57 -28 83t-106 26h-139q-7 27 -5 77l12 290h374v-102h-251l-6 -154h36q134 0 197.5 -52.5t63.5 -161.5q0 -112 -63.5 -170t-202.5 -58z" />
    <glyph glyph-name="six" unicode="6" 
d="M311 -14q-133 0 -191 81.5t-58 242.5q0 228 93 321q66 66 201 66q66 0 141 -13v-109q-58 10 -108 10q-98 0 -134 -36q-40 -40 -43 -146q66 35 148 35q92 0 142.5 -55.5t50.5 -157.5q0 -115 -62 -177t-180 -62zM314 95q97 0 97 125q0 64 -22.5 87t-78.5 23q-53 0 -100 -10
v-38q0 -100 23 -143.5t81 -43.5z" />
    <glyph glyph-name="seven" unicode="7" 
d="M175 0l227 582h-319v102h446q7 -11 7 -41q0 -54 -16 -98l-192 -545h-153z" />
    <glyph glyph-name="eight" unicode="8" 
d="M297 -14q-117 0 -179.5 51.5t-62.5 133.5q0 115 115 175q-49 31 -70.5 69t-21.5 90q0 87 61 139.5t160 52.5q100 0 157.5 -47t57.5 -126q0 -95 -98 -157q70 -35 99.5 -75.5t29.5 -103.5q0 -95 -65.5 -148.5t-182.5 -53.5zM320 412q64 49 64 99q0 35 -22.5 56.5
t-63.5 21.5q-37 0 -61.5 -18.5t-24.5 -52.5q0 -30 21 -52.5t72 -46.5zM299 97q49 0 76.5 22.5t27.5 57.5q0 31 -21 53.5t-79 49.5l-44 20q-63 -55 -63 -117q0 -40 27 -63t76 -23z" />
    <glyph glyph-name="nine" unicode="9" 
d="M244 -14q-66 0 -141 13v109q58 -10 108 -10q98 0 134 36q40 40 43 146q-66 -35 -148 -35q-92 0 -142.5 55.5t-50.5 157.5q0 115 62 177t180 62q133 0 191 -81.5t58 -242.5q0 -228 -93 -321q-66 -66 -201 -66zM290 353q53 0 100 10v38q0 100 -23 143.5t-81 43.5
q-97 0 -97 -125q0 -64 22.5 -87t78.5 -23z" />
    <glyph glyph-name="colon" unicode=":" horiz-adv-x="239" 
d="M116 266q-73 0 -73 69v12q0 69 73 69h7q73 0 73 -69v-12q0 -69 -73 -69h-7zM116 -14q-73 0 -73 69v12q0 69 73 69h7q73 0 73 -69v-12q0 -69 -73 -69h-7z" />
    <glyph glyph-name="semicolon" unicode=";" horiz-adv-x="239" 
d="M116 266q-73 0 -73 69v12q0 69 73 69h7q73 0 73 -69v-12q0 -69 -73 -69h-7zM102 -159v142q-33 11 -46 28.5t-13 49.5q0 75 73 75h7q73 0 73 -75v-27q0 -50 -7 -108.5t-15 -84.5h-72z" />
    <glyph glyph-name="less" unicode="&#x3c;" 
d="M487 93l-374 185v92l374 185v-106l-269 -124l269 -120v-112z" />
    <glyph glyph-name="equal" unicode="=" 
d="M113 373v94h374v-94h-374zM113 181v94h374v-94h-374z" />
    <glyph glyph-name="greater" unicode="&#x3e;" 
d="M113 93v112l269 120l-269 124v106l374 -185v-92z" />
    <glyph glyph-name="question" unicode="?" horiz-adv-x="435" 
d="M146 215q-3 17 -3 31q0 10 1.5 20t6.5 22l8 19t12 21.5l11.5 18.5t13.5 20t12 17q49 68 49 117q0 38 -20 58q-24 22 -78 22q-46 0 -104 -18l-19 104q78 30 159 30q106 0 160 -46t54 -132q0 -42 -14.5 -76.5t-36.5 -59.5l-44.5 -49t-42 -54.5t-26.5 -64.5h-99zM193 -14
q-73 0 -73 69v12q0 69 73 69h7q73 0 73 -69v-12q0 -69 -73 -69h-7z" />
    <glyph glyph-name="at" unicode="@" horiz-adv-x="790" 
d="M433 -14q-190 0 -287 85q-108 95 -108 268q0 164 98.5 261t270.5 97q162 0 253.5 -91t91.5 -232q0 -102 -46 -164.5t-140 -62.5q-64 0 -96 37h-2q-44 -35 -105 -35q-55 0 -87.5 31.5t-32.5 84.5q0 64 36 93.5t119 29.5h57v4q0 31 -15.5 41t-53.5 10q-56 0 -102 -11l-5 84
q69 15 129 15q83 0 118 -42q27 -32 27 -96v-159q9 -3 21 -3q79 0 79 123q0 119 -63.5 184t-184.5 65q-122 0 -190 -68t-68 -191q0 -137 73 -201q74 -68 235 -68q80 0 158 15l5 -86q-82 -18 -185 -18zM395 234q29 0 60 11v68h-54q-31 0 -43.5 -9.5t-12.5 -31.5q0 -38 50 -38z
" />
    <glyph glyph-name="A" unicode="A" horiz-adv-x="658" 
d="M5 0l229 684h172l247 -684h-167l-57 172h-222l-53 -172h-149zM243 285h148l-75 228h-2z" />
    <glyph glyph-name="B" unicode="B" horiz-adv-x="631" 
d="M74 0v684h223q139 0 197 -51q48 -42 48 -117q0 -100 -96 -149q65 -9 105 -53.5t40 -110.5q0 -96 -57 -147q-63 -56 -217 -56h-243zM230 412h53q62 0 84 21q20 20 20 61q0 38 -19 57q-20 20 -81 20h-57v-159zM230 113h64q88 0 113 25q22 22 22 62q0 54 -26 76
q-27 23 -109 23h-64v-186z" />
    <glyph glyph-name="C" unicode="C" horiz-adv-x="589" 
d="M376 -14q-170 0 -248 83q-83 89 -83 270q0 168 81 263t250 95q103 0 179 -31l-20 -114q-85 24 -147 24q-103 0 -142 -60t-39 -173q0 -132 49 -187q43 -49 150 -49q56 0 126 14l16 -114q-72 -21 -172 -21z" />
    <glyph glyph-name="D" unicode="D" horiz-adv-x="686" 
d="M74 0v684h211q100 0 165.5 -17.5t107.5 -59.5q83 -81 83 -262q0 -182 -83 -268q-76 -77 -252 -77h-232zM230 114h66q106 0 147 61q36 53 36 170q0 72 -11 112t-37 68q-42 45 -153 45h-48v-456z" />
    <glyph glyph-name="E" unicode="E" horiz-adv-x="583" 
d="M74 0v684h462l-12 -113h-294v-166h235v-117h-235v-175h311v-113h-467z" />
    <glyph glyph-name="F" unicode="F" horiz-adv-x="553" 
d="M74 0v684h451l-12 -113h-283v-166h224v-117h-224v-288h-156z" />
    <glyph glyph-name="G" unicode="G" horiz-adv-x="671" 
d="M373 -14q-176 0 -252 90t-76 262q0 166 88 262.5t258 96.5q117 0 193 -33l-20 -114q-87 25 -162 25q-101 0 -148 -58t-47 -173q0 -126 40 -182q39 -55 132 -55q41 0 83 7v144h-96v112h251v-349q-114 -35 -244 -35z" />
    <glyph glyph-name="H" unicode="H" horiz-adv-x="701" 
d="M74 0v684h156v-279h241v279h156v-684h-156v288h-241v-288h-156z" />
    <glyph glyph-name="I" unicode="I" horiz-adv-x="308" 
d="M76 0v684h156v-684h-156z" />
    <glyph glyph-name="J" unicode="J" horiz-adv-x="414" 
d="M137 -14q-43 0 -106 9l-11 119q41 -8 81 -8q50 0 68.5 19t18.5 75v484h156v-488q0 -117 -49 -166q-45 -44 -158 -44z" />
    <glyph glyph-name="K" unicode="K" horiz-adv-x="652" 
d="M74 0v684h156v-286l229 286h178l-242 -277l249 -407h-185l-165 291l-64 -73v-218h-156z" />
    <glyph glyph-name="L" unicode="L" horiz-adv-x="551" 
d="M74 0v684h156v-571h303v-113h-459z" />
    <glyph glyph-name="M" unicode="M" horiz-adv-x="830" 
d="M74 0v684h123l216 -382l223 382h120v-684h-143v394l-142 -238h-120l-146 242v-398h-131z" />
    <glyph glyph-name="N" unicode="N" horiz-adv-x="724" 
d="M74 0v684h115l324 -438v438h137v-684h-125l-314 415v-415h-137z" />
    <glyph glyph-name="O" unicode="O" horiz-adv-x="696" 
d="M348 -14q-303 0 -303 355q0 356 303 356t303 -356q0 -355 -303 -355zM348 108q76 0 108.5 54.5t32.5 178.5t-33 179t-108 55t-108 -55t-33 -179t32.5 -178.5t108.5 -54.5z" />
    <glyph glyph-name="P" unicode="P" horiz-adv-x="619" 
d="M74 0v684h235q159 0 219 -56q55 -51 55 -160t-51 -166q-59 -66 -192 -66h-110v-236h-156zM230 353h77q64 0 91 26q27 27 27 87q0 56 -26 81q-27 24 -96 24h-73v-218z" />
    <glyph glyph-name="Q" unicode="Q" horiz-adv-x="698" 
d="M662 -117l-203 86q-26 11 -42.5 14t-55.5 3h-13q-303 0 -303 355q0 356 303 356t303 -356q0 -211 -106 -296q109 -1 171 -25q-7 -28 -24.5 -74.5t-29.5 -62.5zM348 108q76 0 108.5 54.5t32.5 178.5t-33 179t-108 55t-108 -55t-33 -179t32.5 -178.5t108.5 -54.5z" />
    <glyph glyph-name="R" unicode="R" horiz-adv-x="648" 
d="M74 0v684h235q85 0 136 -12t84 -43q57 -54 57 -157q0 -71 -29.5 -123.5t-86.5 -79.5l148 -269h-176l-126 248h-86v-248h-156zM230 361h69q72 0 100 24q29 25 29 85q0 52 -24 76q-26 25 -104 25h-70v-210z" />
    <glyph glyph-name="S" unicode="S" horiz-adv-x="590" 
d="M276 -14q-126 0 -227 35l24 119q97 -34 189 -34q70 0 102.5 20t32.5 67q0 26 -19 43t-50 26.5t-68.5 18.5t-74.5 24t-68 36.5t-50 61t-19 94.5q0 100 70 150t185 50q109 0 191 -28l-24 -116q-90 24 -164 24q-111 0 -111 -73q0 -27 19 -45t50 -28.5t68.5 -20t74.5 -24.5
t68 -36.5t50 -61t19 -93.5q0 -90 -57 -144q-69 -65 -211 -65z" />
    <glyph glyph-name="T" unicode="T" horiz-adv-x="608" 
d="M226 0v571h-212v113h587l-12 -113h-207v-571h-156z" />
    <glyph glyph-name="U" unicode="U" horiz-adv-x="694" 
d="M349 -14q-148 0 -215 66q-66 65 -66 199v433h155v-433q0 -80 33 -113q32 -33 100 -33t99 32q33 33 33 113v434h138v-426q0 -141 -67 -204q-71 -68 -210 -68z" />
    <glyph glyph-name="V" unicode="V" horiz-adv-x="652" 
d="M250 0l-238 684h167l160 -496l149 496h152l-227 -684h-163z" />
    <glyph glyph-name="W" unicode="W" horiz-adv-x="963" 
d="M212 0l-200 684h165l127 -494l123 494h127l134 -493l122 493h141l-185 -684h-170l-112 399l-103 -399h-169z" />
    <glyph glyph-name="X" unicode="X" horiz-adv-x="635" 
d="M14 0l227 341l-209 343h163l136 -226l124 226h166l-224 -335l218 -349h-173l-136 232l-123 -232h-169z" />
    <glyph glyph-name="Y" unicode="Y" horiz-adv-x="662" 
d="M248 0v279l-236 405h176l150 -276l156 276h156l-246 -406v-278h-156z" />
    <glyph glyph-name="Z" unicode="Z" horiz-adv-x="596" 
d="M34 0v92l332 477h-322v115h514v-96l-327 -473h329v-115h-526z" />
    <glyph glyph-name="bracketleft" unicode="[" horiz-adv-x="372" 
d="M97 -207v934h253v-100h-106v-734h106v-100h-253z" />
    <glyph glyph-name="backslash" unicode="\" horiz-adv-x="480" 
d="M327 -14l-301 711h127l301 -711h-127z" />
    <glyph glyph-name="bracketright" unicode="]" horiz-adv-x="372" 
d="M22 -207v100h106v734h-106v100h253v-934h-253z" />
    <glyph glyph-name="asciicircum" unicode="^" 
d="M85 379l175 306h79l176 -306h-118l-97 199l-100 -199h-115z" />
    <glyph glyph-name="underscore" unicode="_" horiz-adv-x="430" 
d="M0 -125v97h430v-97h-430z" />
    <glyph glyph-name="grave" unicode="`" horiz-adv-x="428" 
d="M290 559l-203 137l70 95l183 -170z" />
    <glyph glyph-name="a" unicode="a" horiz-adv-x="531" 
d="M202 -14q-82 0 -127 44t-45 117q0 70 43 111q48 45 180 45h78v16q0 39 -18 55q-23 20 -83 20q-74 0 -137 -13l-7 105q90 18 174 18q128 0 176 -56q38 -44 38 -130v-318h-113l-12 30q-68 -44 -147 -44zM243 95q39 0 88 15v101h-76q-51 0 -68 -17q-14 -14 -14 -41
q0 -58 70 -58z" />
    <glyph glyph-name="b" unicode="b" horiz-adv-x="560" 
d="M331 -14q-78 0 -146 45l-7 -31h-118v715h143v-244q56 33 135 33q187 0 187 -257q0 -141 -55 -204q-50 -57 -139 -57zM288 98q49 0 68 32.5t19 114.5q0 84 -20 114t-67 30q-52 0 -85 -13v-254q42 -24 85 -24z" />
    <glyph glyph-name="c" unicode="c" horiz-adv-x="463" 
d="M303 -14q-165 0 -228 98q-40 61 -40 150q0 128 63 197q68 73 196 73q79 0 144 -18l-9 -106q-52 14 -113 14q-66 0 -99 -35q-33 -36 -33 -114q0 -77 34 -113.5t110 -36.5q50 0 102 10l11 -103q-70 -16 -138 -16z" />
    <glyph glyph-name="d" unicode="d" horiz-adv-x="562" 
d="M220 -14q-73 0 -117 42q-68 67 -68 216q0 121 52.5 190.5t141.5 69.5q71 0 130 -36v247h143v-715h-124l-3 35q-73 -49 -155 -49zM274 98q42 0 85 17v265q-35 11 -68 11q-53 0 -79.5 -33.5t-26.5 -117.5q0 -81 20 -111.5t69 -30.5z" />
    <glyph glyph-name="e" unicode="e" horiz-adv-x="528" 
d="M304 -14q-137 0 -203 63t-66 195q0 128 62 194t176 66q225 0 225 -247v-45q0 -11 -12 -11h-301q3 -60 39 -83t112 -23q59 0 122 12l11 -104q-89 -17 -165 -17zM185 294h173q0 48 -22 75t-64 27q-82 0 -87 -102z" />
    <glyph glyph-name="f" unicode="f" horiz-adv-x="359" 
d="M98 0v397h-84v77l84 15v68q0 88 41 130q43 45 146 45q51 0 104 -11v-102q-40 6 -67 6q-49 0 -67 -18q-14 -14 -14 -58v-59h116v-93h-116v-397h-143z" />
    <glyph glyph-name="g" unicode="g" horiz-adv-x="541" 
d="M268 -239q-126 0 -183.5 31.5t-57.5 97.5q0 59 58 89q-25 21 -25 64q0 65 65 119q-75 49 -75 154q0 188 221 188q24 0 48 -3l48 122q66 -16 111 -50l-71 -99q84 -47 84 -158q0 -189 -220 -189q-37 0 -64 4q-13 -23 -13 -39q0 -13 14 -13h96q134 0 185 -52q36 -38 36 -104
q0 -162 -249 -162h-8zM271 229q91 0 91 87q0 86 -91 86q-92 0 -92 -86q0 -44 22 -65.5t70 -21.5zM272 -131h15q110 0 110 48q0 24 -18.5 33.5t-67.5 9.5h-143q-14 -15 -14 -37q0 -28 26 -41t92 -13z" />
    <glyph glyph-name="h" unicode="h" horiz-adv-x="573" 
d="M60 0v715h143v-251q71 40 153 40q80 0 118 -38q42 -41 42 -129v-337h-143v320q0 34 -15 49q-17 16 -62 16q-52 0 -93 -16v-369h-143z" />
    <glyph glyph-name="i" unicode="i" horiz-adv-x="269" 
d="M131 572q-75 0 -75 68v13q0 69 75 69h7q75 0 75 -69v-13q0 -68 -75 -68h-7zM63 0v490h143v-490h-143z" />
    <glyph glyph-name="j" unicode="j" horiz-adv-x="269" 
d="M131 572q-75 0 -75 68v13q0 69 75 69h7q75 0 75 -69v-13q0 -68 -75 -68h-7zM-21 -237q-20 0 -54 2l-14 107q26 -2 46 -2q60 0 83 23q23 22 23 79v518h143v-467q0 -136 -49.5 -198t-177.5 -62z" />
    <glyph glyph-name="k" unicode="k" horiz-adv-x="544" 
d="M60 0v715h143v-412l153 187h164l-173 -196l191 -294h-161l-123 195l-51 -64v-131h-143z" />
    <glyph glyph-name="l" unicode="l" horiz-adv-x="269" 
d="M63 0v715h143v-715h-143z" />
    <glyph glyph-name="m" unicode="m" horiz-adv-x="864" 
d="M60 0v490h124l3 -35q74 49 159 49q93 0 130 -52q77 52 171 52q80 0 118 -38q42 -41 42 -129v-337h-143v320q0 34 -15 49q-17 16 -62 16q-38 0 -83 -13q2 -22 2 -35v-337h-143v320q0 34 -15 49q-17 16 -60 16q-42 0 -85 -16v-369h-143z" />
    <glyph glyph-name="n" unicode="n" horiz-adv-x="573" 
d="M60 0v490h124l3 -35q76 49 169 49q80 0 118 -38q42 -41 42 -129v-337h-143v320q0 34 -15 49q-17 16 -62 16q-52 0 -93 -16v-369h-143z" />
    <glyph glyph-name="o" unicode="o" horiz-adv-x="568" 
d="M284 -14q-124 0 -186.5 68.5t-62.5 190.5t62.5 190.5t186.5 68.5t186.5 -68.5t62.5 -190.5t-62.5 -190.5t-186.5 -68.5zM284 95q53 0 76.5 36.5t23.5 113.5t-23.5 113.5t-76.5 36.5t-76.5 -36.5t-23.5 -113.5t23.5 -113.5t76.5 -36.5z" />
    <glyph glyph-name="p" unicode="p" horiz-adv-x="560" 
d="M60 -225v715h124l4 -36q75 50 154 50q73 0 117 -42q66 -65 66 -214q0 -262 -191 -262q-73 0 -131 36v-247h-143zM292 99q46 0 64.5 32t18.5 119q0 78 -19 108t-68 30q-40 0 -85 -13v-262q32 -14 89 -14z" />
    <glyph glyph-name="q" unicode="q" horiz-adv-x="561" 
d="M358 -234v253q-59 -33 -134 -33q-189 0 -189 257q0 136 62 204q52 57 138 57q73 0 141 -45l7 31h118v-706zM275 98q42 0 83 16v262q-40 14 -76 14q-54 0 -75.5 -35.5t-21.5 -111.5q0 -84 21 -114.5t69 -30.5z" />
    <glyph glyph-name="r" unicode="r" horiz-adv-x="380" 
d="M60 0v490h124l5 -40q27 25 69.5 39t80.5 14q13 0 25 -2v-125q-32 4 -63 4q-45 0 -98 -12v-368h-143z" />
    <glyph glyph-name="s" unicode="s" horiz-adv-x="475" 
d="M219 -14q-97 0 -172 27l11 106q71 -23 158 -23q88 0 88 45q0 20 -20 31.5t-49.5 15t-64 12.5t-64 22t-49.5 44.5t-20 79.5q0 72 53.5 115t159.5 43q84 0 163 -27l-11 -105q-80 22 -151 22q-79 0 -79 -40q0 -19 20 -30t49.5 -15t64.5 -13.5t64.5 -23t49.5 -45.5t20 -80
q0 -77 -56 -119t-165 -42z" />
    <glyph glyph-name="t" unicode="t" horiz-adv-x="401" 
d="M252 -14q-89 0 -125 39t-36 123v249h-83v78l83 15v109q69 21 143 21v-130h127v-93h-127v-229q0 -43 13.5 -59t55.5 -16q18 0 69 6l5 -101q-55 -12 -125 -12z" />
    <glyph glyph-name="u" unicode="u" horiz-adv-x="569" 
d="M217 -13q-80 0 -118 38q-42 41 -42 129v336h143v-316q0 -37 15 -52q17 -16 62 -16q47 0 89 14v370h143v-490h-124l-4 33q-74 -46 -164 -46z" />
    <glyph glyph-name="v" unicode="v" horiz-adv-x="530" 
d="M185 0l-175 490h154l109 -340l104 340h143l-169 -490h-166z" />
    <glyph glyph-name="w" unicode="w" horiz-adv-x="791" 
d="M154 0l-144 490h151l87 -349l87 349h129l94 -349l82 349h141l-141 -490h-166l-78 260l-77 -260h-165z" />
    <glyph glyph-name="x" unicode="x" horiz-adv-x="532" 
d="M13 0l174 241l-177 249h163l106 -148l80 148h156l-169 -242l176 -248h-167l-102 147l-81 -147h-159z" />
    <glyph glyph-name="y" unicode="y" horiz-adv-x="571" 
d="M284 -239q-65 0 -125 13l-10 106q61 -11 112 -11q60 0 83 23q24 23 24 79v60q-71 -40 -154 -40q-76 0 -114 38q-43 43 -43 124v337h143v-317q0 -34 15 -49q17 -16 61 -16q46 0 92 18v364h143v-469q0 -136 -49.5 -198t-177.5 -62z" />
    <glyph glyph-name="z" unicode="z" horiz-adv-x="442" 
d="M18 0v81l228 318h-222v91h390v-83l-227 -316h239v-91h-408z" />
    <glyph glyph-name="braceleft" unicode="{" horiz-adv-x="393" 
d="M299 -207q-84 0 -120.5 39t-36.5 129v142q0 55 -26.5 77.5t-89.5 28.5v104q63 6 89.5 28.5t26.5 77.5v140q0 90 36.5 129t120.5 39h60v-100h-11q-35 0 -47 -10.5t-12 -45.5v-153q0 -63 -25 -100t-82 -57q57 -20 82 -57t25 -100v-155q0 -35 12 -45.5t47 -10.5h11v-100h-60
z" />
    <glyph glyph-name="bar" unicode="|" horiz-adv-x="252" 
d="M64 -253v996h124v-996h-124z" />
    <glyph glyph-name="braceright" unicode="}" horiz-adv-x="393" 
d="M34 -207v100h11q35 0 47 10.5t12 45.5v155q0 63 25 100t82 57q-57 20 -82 57t-25 100v153q0 35 -12 45.5t-47 10.5h-11v100h60q84 0 120.5 -39t36.5 -129v-140q0 -55 26.5 -77.5t89.5 -28.5v-104q-63 -6 -89.5 -28.5t-26.5 -77.5v-142q0 -90 -36.5 -129t-120.5 -39h-60z
" />
    <glyph glyph-name="asciitilde" unicode="~" 
d="M164 287l-84 13q0 143 126 143q36 0 97 -24.5t83 -24.5q37 0 50 55l84 -11q0 -145 -126 -145q-37 0 -97 25t-83 25q-38 0 -50 -56z" />
    <glyph glyph-name="uni00A0" unicode="&#xa0;" horiz-adv-x="225" 
 />
    <glyph glyph-name="exclamdown" unicode="&#xa1;" horiz-adv-x="290" 
d="M148 504q73 0 73 -69v-12q0 -69 -73 -69h-7q-73 0 -73 69v12q0 69 73 69h7zM200 276l22 -470h-150l22 470h106z" />
    <glyph glyph-name="cent" unicode="&#xa2;" 
d="M293 -128v118q-117 16 -166 94q-40 61 -40 150q0 128 63 197q52 55 143 69v118h91v-115q58 -3 106 -16v-109q-68 16 -122 16q-66 0 -99 -35q-33 -36 -33 -114q0 -77 34 -114t110 -37q54 0 113 11v-103q-60 -14 -109 -15v-115h-91z" />
    <glyph glyph-name="sterling" unicode="&#xa3;" 
d="M96 0q-5 22 -5 57q0 40 33 95.5t33 100.5q0 21 -6 67h-96v83l83 5q-6 40 -6 87q0 90 48 141q58 61 199 61q77 0 156 -18v-108q-79 14 -135 14q-71 0 -99 -25q-24 -21 -24 -71q0 -35 5 -80h157v-89h-144q4 -44 4 -62q0 -88 -67 -154h326v-104h-462z" />
    <glyph glyph-name="currency" unicode="&#xa4;" 
d="M123 97l-72 73l70 69q-24 43 -24 102t24 102l-70 69l72 73l74 -75q44 21 103 21q60 0 103 -21l74 75l72 -73l-70 -69q24 -43 24 -102t-24 -102l70 -69l-72 -73l-74 75q-43 -21 -103 -21t-103 21zM300 252q74 0 74 89t-74 89t-74 -89t74 -89z" />
    <glyph glyph-name="yen" unicode="&#xa5;" 
d="M222 0v137h-126v82h126v38h-126v82h94l-184 345h168l130 -276l136 276h154l-189 -345h92v-82h-126v-38h126v-82h-126v-137h-149z" />
    <glyph glyph-name="brokenbar" unicode="&#xa6;" horiz-adv-x="252" 
d="M64 357v386h124v-386h-124zM64 -253v386h124v-386h-124z" />
    <glyph glyph-name="section" unicode="&#xa7;" horiz-adv-x="599" 
d="M295 -14q-104 0 -187 29l20 100q78 -28 156 -28q53 0 75 10t22 35q0 21 -14.5 31t-46.5 15l-87 15q-81 13 -114 49t-33 100q0 57 33 95q-33 37 -33 99q0 67 44 109q55 52 178 52q85 0 155 -24l-20 -97q-77 20 -135 20q-50 0 -70 -11t-20 -35q0 -21 13.5 -32.5t52.5 -17.5
l85 -14q75 -12 109.5 -46t34.5 -100q0 -56 -34 -96q34 -39 34 -98q0 -77 -55.5 -118.5t-162.5 -41.5zM367 293q16 10 16 33q0 36 -63 46l-91 15q-13 -12 -13 -31q0 -21 14.5 -31.5t53.5 -17.5z" />
    <glyph glyph-name="dieresis" unicode="&#xa8;" horiz-adv-x="428" 
d="M106 590q-67 0 -67 64v11q0 34 16.5 49t50.5 15h6q68 0 68 -64v-11q0 -64 -68 -64h-6zM315 590q-68 0 -68 64v11q0 64 68 64h6q34 0 50.5 -15t16.5 -49v-11q0 -64 -67 -64h-6z" />
    <glyph glyph-name="copyright" unicode="&#xa9;" horiz-adv-x="790" 
d="M395 -14q-156 0 -254 94t-98 262t98 261.5t254 93.5t254 -93.5t98 -261.5t-98 -262t-254 -94zM395 75q122 0 186 69.5t64 197.5t-64 197t-186 69t-186 -69t-64 -197t64 -197.5t186 -69.5zM415 168q-88 0 -127 42q-41 44 -41 134q0 177 168 177q48 0 84 -17l-10 -60
q-41 11 -72 11q-44 0 -63 -24.5t-19 -86.5q0 -66 23 -90q20 -20 66 -20q31 0 64 5l7 -62q-36 -9 -80 -9z" />
    <glyph glyph-name="ordfeminine" unicode="&#xaa;" horiz-adv-x="414" 
d="M168 340q-52 0 -85 29.5t-33 82.5q0 58 36.5 84t114.5 26h51v11q0 26 -13 35t-54 9q-54 0 -95 -9l-5 78q58 12 123 12q84 0 116 -31q30 -29 30 -90v-228h-81l-9 20q-43 -29 -96 -29zM196 421q28 0 56 7v63h-53q-28 0 -38.5 -7.5t-10.5 -26.5q0 -36 46 -36z" />
    <glyph glyph-name="guillemotleft" unicode="&#xab;" horiz-adv-x="569" 
d="M229 33l-148 161q-36 38 -36 67t36 67l148 161l58 -56l-116 -172l116 -172zM457 33l-148 161q-36 38 -36 67t36 67l148 161l58 -56l-116 -172l116 -172z" />
    <glyph glyph-name="logicalnot" unicode="&#xac;" 
d="M394 181v192h-280v94h374v-286h-94z" />
    <glyph glyph-name="uni00AD" unicode="&#xad;" horiz-adv-x="334" 
d="M46 200v119h242v-119h-242z" />
    <glyph glyph-name="registered" unicode="&#xae;" horiz-adv-x="790" 
d="M395 -14q-156 0 -254 94t-98 262t98 261.5t254 93.5t254 -93.5t98 -261.5t-98 -262t-254 -94zM395 75q122 0 186 69.5t64 197.5t-64 197t-186 69t-186 -69t-64 -197t64 -197.5t186 -69.5zM281 176v341h115q72 0 105 -23.5t33 -83.5q0 -74 -56 -98l73 -136h-93l-62 121
h-32v-121h-83zM364 356h34q52 0 52 51q0 30 -12 40t-43 10h-31v-101z" />
    <glyph glyph-name="macron" unicode="&#xaf;" horiz-adv-x="428" 
d="M66 605v98h295v-98h-295z" />
    <glyph glyph-name="degree" unicode="&#xb0;" horiz-adv-x="535" 
d="M268 317q-94 0 -144.5 52t-50.5 138t50.5 138t144.5 52t144.5 -52t50.5 -138t-50.5 -138t-144.5 -52zM268 413q38 0 58 25t20 69t-20 69t-58 25t-58 -25t-20 -69t20 -69t58 -25z" />
    <glyph glyph-name="plusminus" unicode="&#xb1;" 
d="M253 190v140h-140v94h140v140h94v-140h140v-94h-140v-140h-94zM113 0v94h374v-94h-374z" />
    <glyph glyph-name="uni00B2" unicode="&#xb2;" horiz-adv-x="500" 
d="M102 344q-4 18 -4 37q0 21 8 37.5t30 40.5l67 73q34 36 48 56.5t14 38.5q0 36 -62 36q-39 0 -82 -7v85q50 10 112 10q69 0 107 -28t38 -80q0 -38 -21 -71.5t-79 -91.5l-56 -56h168v-80h-288z" />
    <glyph glyph-name="uni00B3" unicode="&#xb3;" horiz-adv-x="500" 
d="M217 343q-50 0 -97 10v80q32 -6 77 -6q44 0 62 10.5t18 36.5q0 24 -16 33t-55 9h-25v73h28q60 0 60 39t-68 39q-44 0 -76 -5v79q38 10 100 10q73 0 114 -26.5t41 -79.5q0 -66 -54 -90q66 -19 66 -91q0 -58 -45.5 -89.5t-129.5 -31.5z" />
    <glyph glyph-name="acute" unicode="&#xb4;" horiz-adv-x="428" 
d="M137 559l-50 62l183 170l70 -95z" />
    <glyph glyph-name="uni00B5" unicode="&#xb5;" horiz-adv-x="572" 
d="M60 -225v715h143v-316q0 -37 15 -52q17 -16 62 -16q47 0 89 14v370h143v-490h-124l-4 33q-74 -46 -164 -46q-11 0 -21 1v-213h-139z" />
    <glyph glyph-name="paragraph" unicode="&#xb6;" horiz-adv-x="653" 
d="M234 -203v525q-86 0 -136.5 47.5t-50.5 133.5t51.5 133.5t135.5 47.5h369v-99h-68v-788h-113v788h-76v-788h-112z" />
    <glyph glyph-name="periodcentered" unicode="&#xb7;" horiz-adv-x="239" 
d="M116 266q-73 0 -73 69v12q0 69 73 69h7q73 0 73 -69v-12q0 -69 -73 -69h-7z" />
    <glyph glyph-name="cedilla" unicode="&#xb8;" horiz-adv-x="428" 
d="M199 -252q-50 0 -89 14v75q38 -10 69 -10q44 0 44 23q0 10 -10.5 18t-45.5 19q-29 9 -42 22.5t-13 37.5q0 32 21 58h71q-5 -17 -5 -26t6.5 -14t30.5 -14q48 -18 65 -37t17 -54q0 -48 -27 -78q-29 -34 -92 -34z" />
    <glyph glyph-name="uni00B9" unicode="&#xb9;" horiz-adv-x="500" 
d="M136 348v80h72v239h-68v79q60 6 114 6q36 0 49 -11t13 -38v-275h56v-80h-236z" />
    <glyph glyph-name="ordmasculine" unicode="&#xba;" horiz-adv-x="420" 
d="M210 340q-87 0 -129.5 47t-42.5 132t42.5 132t129.5 47t129.5 -47t42.5 -132t-42.5 -132t-129.5 -47zM210 423q64 0 64 96t-64 96t-64 -96t64 -96z" />
    <glyph glyph-name="guillemotright" unicode="&#xbb;" horiz-adv-x="569" 
d="M112 33l-58 56l116 172l-116 172l58 56l148 -161q36 -38 36 -67t-36 -67zM340 33l-58 56l116 172l-116 172l58 56l148 -161q36 -38 36 -67t-36 -67z" />
    <glyph glyph-name="onequarter" unicode="&#xbc;" horiz-adv-x="999" 
d="M245 -14l365 711h123l-365 -711h-123zM92 285v80h72v239h-68v79q60 6 114 6q36 0 49 -11t13 -38v-275h54v-80h-234zM787 0v86h-190q-4 14 -4 28q0 24 14 66l74 221h113l-79 -231h72v88h99v-88h35v-84h-35v-86h-99z" />
    <glyph glyph-name="onehalf" unicode="&#xbd;" horiz-adv-x="999" 
d="M245 -14l365 711h123l-365 -711h-123zM92 285v80h72v239h-68v79q60 6 114 6q36 0 49 -11t13 -38v-275h54v-80h-234zM629 0q-4 18 -4 37q0 21 8 37.5t30 40.5l67 73q34 36 48 56.5t14 38.5q0 36 -62 36q-39 0 -82 -7v85q50 10 112 10q69 0 107 -28t38 -80q0 -38 -21 -71.5
t-79 -91.5l-56 -56h168v-80h-288z" />
    <glyph glyph-name="threequarters" unicode="&#xbe;" horiz-adv-x="999" 
d="M205 289q-50 0 -97 10v80q32 -6 77 -6q44 0 62 10.5t18 36.5q0 24 -16 33t-55 9h-25v73h28q60 0 60 39t-68 39q-44 0 -76 -5v79q38 10 100 10q73 0 114 -26.5t41 -79.5q0 -66 -54 -90q66 -19 66 -91q0 -58 -45.5 -89.5t-129.5 -31.5zM264 -14l365 711h123l-365 -711h-123
zM795 0v86h-190q-4 14 -4 28q0 24 14 66l74 221h113l-79 -231h72v88h99v-88h35v-84h-35v-86h-99z" />
    <glyph glyph-name="questiondown" unicode="&#xbf;" horiz-adv-x="434" 
d="M241 504q73 0 73 -69v-12q0 -69 -73 -69h-7q-73 0 -73 69v12q0 69 73 69h7zM288 275q3 -17 3 -31q0 -10 -1.5 -20t-6.5 -22l-8 -19t-12 -21.5l-11.5 -18.5t-13.5 -20t-12 -17q-49 -68 -49 -117q0 -38 20 -58q24 -22 78 -22q46 0 104 18l19 -104q-78 -30 -159 -30
q-106 0 -160 46t-54 132q0 42 14.5 76.5t36.5 59.5l44.5 49t42 54.5t26.5 64.5h99z" />
    <glyph glyph-name="Agrave" unicode="&#xc0;" horiz-adv-x="658" 
d="M398 759l-203 137l70 95l183 -170zM5 0l229 684h172l247 -684h-167l-57 172h-222l-53 -172h-149zM243 285h148l-75 228h-2z" />
    <glyph glyph-name="Aacute" unicode="&#xc1;" horiz-adv-x="658" 
d="M245 759l-50 62l183 170l70 -95zM5 0l229 684h172l247 -684h-167l-57 172h-222l-53 -172h-149zM243 285h148l-75 228h-2z" />
    <glyph glyph-name="Acircumflex" unicode="&#xc2;" horiz-adv-x="658" 
d="M199 762l-50 51l125 144h96l125 -144l-50 -51l-123 98zM5 0l229 684h172l247 -684h-167l-57 172h-222l-53 -172h-149zM243 285h148l-75 228h-2z" />
    <glyph glyph-name="Atilde" unicode="&#xc3;" horiz-adv-x="658" 
d="M210 792l-71 11q0 65 28 101t78 36q32 0 80.5 -21t66.5 -21q33 0 42 46l71 -11q0 -65 -28 -101t-78 -36q-32 0 -80 21t-67 21q-33 0 -42 -46zM5 0l229 684h172l247 -684h-167l-57 172h-222l-53 -172h-149zM243 285h148l-75 228h-2z" />
    <glyph glyph-name="Adieresis" unicode="&#xc4;" horiz-adv-x="658" 
d="M214 790q-67 0 -67 64v11q0 34 16.5 49t50.5 15h6q68 0 68 -64v-11q0 -64 -68 -64h-6zM423 790q-68 0 -68 64v11q0 64 68 64h6q34 0 50.5 -15t16.5 -49v-11q0 -64 -67 -64h-6zM5 0l229 684h172l247 -684h-167l-57 172h-222l-53 -172h-149zM243 285h148l-75 228h-2z" />
    <glyph glyph-name="Aring" unicode="&#xc5;" horiz-adv-x="658" 
d="M319 769q-121 0 -121 111v14q0 111 121 111h7q120 0 120 -111v-14q0 -111 -120 -111h-7zM321 832h3q27 0 39 12t12 40v4q0 29 -12 40t-39 11h-3q-28 0 -40.5 -11t-12.5 -40v-4q0 -28 12.5 -40t40.5 -12zM5 0l229 684h172l247 -684h-167l-57 172h-222l-53 -172h-149z
M243 285h148l-75 228h-2z" />
    <glyph glyph-name="AE" unicode="&#xc6;" horiz-adv-x="1003" 
d="M2 0l422 684h532l-12 -112h-294v-166h235v-119h-235v-175h311v-112h-467v187h-222l-110 -187h-160zM340 298h154v263z" />
    <glyph glyph-name="Ccedilla" unicode="&#xc7;" horiz-adv-x="589" 
d="M379 -252q-50 0 -89 14v75q38 -10 69 -10q44 0 44 23q0 10 -10.5 18t-45.5 19q-29 9 -42 22.5t-13 37.5q0 21 11 43q-115 14 -175 79q-83 89 -83 270q0 168 81 263t250 95q103 0 179 -31l-20 -114q-85 24 -147 24q-103 0 -142 -60t-39 -173q0 -132 49 -187
q43 -49 150 -49q56 0 126 14l16 -114q-64 -19 -169 -21v-7q0 -9 6.5 -14t30.5 -14q48 -18 65 -37t17 -54q0 -48 -27 -78q-29 -34 -92 -34z" />
    <glyph glyph-name="Egrave" unicode="&#xc8;" horiz-adv-x="583" 
d="M384 759l-203 137l70 95l183 -170zM74 0v684h462l-12 -113h-294v-166h235v-117h-235v-175h311v-113h-467z" />
    <glyph glyph-name="Eacute" unicode="&#xc9;" horiz-adv-x="583" 
d="M231 759l-50 62l183 170l70 -95zM74 0v684h462l-12 -113h-294v-166h235v-117h-235v-175h311v-113h-467z" />
    <glyph glyph-name="Ecircumflex" unicode="&#xca;" horiz-adv-x="583" 
d="M185 762l-50 51l125 144h96l125 -144l-50 -51l-123 98zM74 0v684h462l-12 -113h-294v-166h235v-117h-235v-175h311v-113h-467z" />
    <glyph glyph-name="Edieresis" unicode="&#xcb;" horiz-adv-x="583" 
d="M200 790q-67 0 -67 64v11q0 34 16.5 49t50.5 15h6q68 0 68 -64v-11q0 -64 -68 -64h-6zM409 790q-68 0 -68 64v11q0 64 68 64h6q34 0 50.5 -15t16.5 -49v-11q0 -64 -67 -64h-6zM74 0v684h462l-12 -113h-294v-166h235v-117h-235v-175h311v-113h-467z" />
    <glyph glyph-name="Igrave" unicode="&#xcc;" horiz-adv-x="308" 
d="M230 759l-203 137l70 95l183 -170zM76 0v684h156v-684h-156z" />
    <glyph glyph-name="Iacute" unicode="&#xcd;" horiz-adv-x="308" 
d="M77 759l-50 62l183 170l70 -95zM76 0v684h156v-684h-156z" />
    <glyph glyph-name="Icircumflex" unicode="&#xce;" horiz-adv-x="308" 
d="M31 762l-50 51l125 144h96l125 -144l-50 -51l-123 98zM76 0v684h156v-684h-156z" />
    <glyph glyph-name="Idieresis" unicode="&#xcf;" horiz-adv-x="308" 
d="M46 790q-67 0 -67 64v11q0 34 16.5 49t50.5 15h6q68 0 68 -64v-11q0 -64 -68 -64h-6zM255 790q-68 0 -68 64v11q0 64 68 64h6q34 0 50.5 -15t16.5 -49v-11q0 -64 -67 -64h-6zM76 0v684h156v-684h-156z" />
    <glyph glyph-name="Eth" unicode="&#xd0;" horiz-adv-x="686" 
d="M74 0v288h-72v102l72 12v282h211q100 0 165.5 -17.5t107.5 -59.5q83 -81 83 -262q0 -182 -83 -268q-76 -77 -252 -77h-232zM230 114h66q106 0 147 61q36 53 36 170q0 72 -11 112t-37 68q-42 45 -153 45h-48v-165h139v-117h-139v-174z" />
    <glyph glyph-name="Ntilde" unicode="&#xd1;" horiz-adv-x="724" 
d="M252 792l-71 11q0 65 28 101t78 36q32 0 80.5 -21t66.5 -21q33 0 42 46l71 -11q0 -65 -28 -101t-78 -36q-32 0 -80 21t-67 21q-33 0 -42 -46zM74 0v684h115l324 -438v438h137v-684h-125l-314 415v-415h-137z" />
    <glyph glyph-name="Ograve" unicode="&#xd2;" horiz-adv-x="696" 
d="M424 759l-203 137l70 95l183 -170zM348 -14q-303 0 -303 355q0 356 303 356t303 -356q0 -355 -303 -355zM348 108q76 0 108.5 54.5t32.5 178.5t-33 179t-108 55t-108 -55t-33 -179t32.5 -178.5t108.5 -54.5z" />
    <glyph glyph-name="Oacute" unicode="&#xd3;" horiz-adv-x="696" 
d="M271 759l-50 62l183 170l70 -95zM348 -14q-303 0 -303 355q0 356 303 356t303 -356q0 -355 -303 -355zM348 108q76 0 108.5 54.5t32.5 178.5t-33 179t-108 55t-108 -55t-33 -179t32.5 -178.5t108.5 -54.5z" />
    <glyph glyph-name="Ocircumflex" unicode="&#xd4;" horiz-adv-x="696" 
d="M225 762l-50 51l125 144h96l125 -144l-50 -51l-123 98zM348 -14q-303 0 -303 355q0 356 303 356t303 -356q0 -355 -303 -355zM348 108q76 0 108.5 54.5t32.5 178.5t-33 179t-108 55t-108 -55t-33 -179t32.5 -178.5t108.5 -54.5z" />
    <glyph glyph-name="Otilde" unicode="&#xd5;" horiz-adv-x="696" 
d="M236 792l-71 11q0 65 28 101t78 36q32 0 80.5 -21t66.5 -21q33 0 42 46l71 -11q0 -65 -28 -101t-78 -36q-32 0 -80 21t-67 21q-33 0 -42 -46zM348 -14q-303 0 -303 355q0 356 303 356t303 -356q0 -355 -303 -355zM348 108q76 0 108.5 54.5t32.5 178.5t-33 179t-108 55
t-108 -55t-33 -179t32.5 -178.5t108.5 -54.5z" />
    <glyph glyph-name="Odieresis" unicode="&#xd6;" horiz-adv-x="696" 
d="M240 790q-67 0 -67 64v11q0 34 16.5 49t50.5 15h6q68 0 68 -64v-11q0 -64 -68 -64h-6zM449 790q-68 0 -68 64v11q0 64 68 64h6q34 0 50.5 -15t16.5 -49v-11q0 -64 -67 -64h-6zM348 -14q-303 0 -303 355q0 356 303 356t303 -356q0 -355 -303 -355zM348 108
q76 0 108.5 54.5t32.5 178.5t-33 179t-108 55t-108 -55t-33 -179t32.5 -178.5t108.5 -54.5z" />
    <glyph glyph-name="multiply" unicode="&#xd7;" 
d="M200 158l-66 66l100 100l-100 100l66 66l100 -100l100 100l66 -66l-100 -100l100 -100l-66 -66l-100 100z" />
    <glyph glyph-name="Oslash" unicode="&#xd8;" horiz-adv-x="698" 
d="M155 -74l34 94q-144 75 -144 321q0 356 304 356q42 0 82 -8l25 68h87l-34 -94q144 -76 144 -322q0 -355 -304 -355q-43 0 -83 8l-24 -68h-87zM240 162l148 409q-16 4 -39 4q-76 0 -109 -55t-33 -179q0 -126 33 -179zM349 108q76 0 109 54.5t33 178.5q0 126 -34 180
l-148 -409q16 -4 40 -4z" />
    <glyph glyph-name="Ugrave" unicode="&#xd9;" horiz-adv-x="694" 
d="M430 759l-203 137l70 95l183 -170zM349 -14q-148 0 -215 66q-66 65 -66 199v433h155v-433q0 -80 33 -113q32 -33 100 -33t99 32q33 33 33 113v434h138v-426q0 -141 -67 -204q-71 -68 -210 -68z" />
    <glyph glyph-name="Uacute" unicode="&#xda;" horiz-adv-x="694" 
d="M277 759l-50 62l183 170l70 -95zM349 -14q-148 0 -215 66q-66 65 -66 199v433h155v-433q0 -80 33 -113q32 -33 100 -33t99 32q33 33 33 113v434h138v-426q0 -141 -67 -204q-71 -68 -210 -68z" />
    <glyph glyph-name="Ucircumflex" unicode="&#xdb;" horiz-adv-x="694" 
d="M231 762l-50 51l125 144h96l125 -144l-50 -51l-123 98zM349 -14q-148 0 -215 66q-66 65 -66 199v433h155v-433q0 -80 33 -113q32 -33 100 -33t99 32q33 33 33 113v434h138v-426q0 -141 -67 -204q-71 -68 -210 -68z" />
    <glyph glyph-name="Udieresis" unicode="&#xdc;" horiz-adv-x="694" 
d="M246 790q-67 0 -67 64v11q0 34 16.5 49t50.5 15h6q68 0 68 -64v-11q0 -64 -68 -64h-6zM455 790q-68 0 -68 64v11q0 64 68 64h6q34 0 50.5 -15t16.5 -49v-11q0 -64 -67 -64h-6zM349 -14q-148 0 -215 66q-66 65 -66 199v433h155v-433q0 -80 33 -113q32 -33 100 -33t99 32
q33 33 33 113v434h138v-426q0 -141 -67 -204q-71 -68 -210 -68z" />
    <glyph glyph-name="Yacute" unicode="&#xdd;" horiz-adv-x="662" 
d="M259 759l-50 62l183 170l70 -95zM248 0v279l-236 405h176l150 -276l156 276h156l-246 -406v-278h-156z" />
    <glyph glyph-name="Thorn" unicode="&#xde;" horiz-adv-x="619" 
d="M74 0v684h156v-113h79q159 0 219 -56q55 -51 55 -160t-51 -166q-59 -66 -192 -66h-110v-123h-156zM230 240h77q64 0 91 26q27 27 27 87q0 56 -26 81q-27 24 -96 24h-73v-218z" />
    <glyph glyph-name="germandbls" unicode="&#xdf;" horiz-adv-x="713" 
d="M469 -14q-94 0 -169 27l11 106q71 -23 155 -23q46 0 64.5 8.5t18.5 26.5q0 21 -24 33t-58 20t-68 20t-58 41.5t-24 75.5q0 38 20.5 72.5t45 56t45 49.5t20.5 55q0 34 -24 53t-68 19q-115 0 -115 -133v-493h-143v397h-84v77l84 15v21q0 101 65 161.5t187 60.5
q108 0 170 -43.5t62 -124.5q0 -43 -19.5 -78t-43.5 -54t-43.5 -39.5t-19.5 -38.5q0 -17 17 -28.5t42 -16.5t54.5 -15.5t54.5 -25t42 -45.5t17 -76q0 -161 -214 -161z" />
    <glyph glyph-name="agrave" unicode="&#xe0;" horiz-adv-x="531" 
d="M350 559l-203 137l70 95l183 -170zM202 -14q-82 0 -127 44t-45 117q0 70 43 111q48 45 180 45h78v16q0 39 -18 55q-23 20 -83 20q-74 0 -137 -13l-7 105q90 18 174 18q128 0 176 -56q38 -44 38 -130v-318h-113l-12 30q-68 -44 -147 -44zM243 95q39 0 88 15v101h-76
q-51 0 -68 -17q-14 -14 -14 -41q0 -58 70 -58z" />
    <glyph glyph-name="aacute" unicode="&#xe1;" horiz-adv-x="531" 
d="M197 559l-50 62l183 170l70 -95zM202 -14q-82 0 -127 44t-45 117q0 70 43 111q48 45 180 45h78v16q0 39 -18 55q-23 20 -83 20q-74 0 -137 -13l-7 105q90 18 174 18q128 0 176 -56q38 -44 38 -130v-318h-113l-12 30q-68 -44 -147 -44zM243 95q39 0 88 15v101h-76
q-51 0 -68 -17q-14 -14 -14 -41q0 -58 70 -58z" />
    <glyph glyph-name="acircumflex" unicode="&#xe2;" horiz-adv-x="531" 
d="M151 562l-50 51l125 144h96l125 -144l-50 -51l-123 98zM202 -14q-82 0 -127 44t-45 117q0 70 43 111q48 45 180 45h78v16q0 39 -18 55q-23 20 -83 20q-74 0 -137 -13l-7 105q90 18 174 18q128 0 176 -56q38 -44 38 -130v-318h-113l-12 30q-68 -44 -147 -44zM243 95
q39 0 88 15v101h-76q-51 0 -68 -17q-14 -14 -14 -41q0 -58 70 -58z" />
    <glyph glyph-name="atilde" unicode="&#xe3;" horiz-adv-x="531" 
d="M162 592l-71 11q0 65 28 101t78 36q32 0 80.5 -21t66.5 -21q33 0 42 46l71 -11q0 -65 -28 -101t-78 -36q-32 0 -80 21t-67 21q-33 0 -42 -46zM202 -14q-82 0 -127 44t-45 117q0 70 43 111q48 45 180 45h78v16q0 39 -18 55q-23 20 -83 20q-74 0 -137 -13l-7 105
q90 18 174 18q128 0 176 -56q38 -44 38 -130v-318h-113l-12 30q-68 -44 -147 -44zM243 95q39 0 88 15v101h-76q-51 0 -68 -17q-14 -14 -14 -41q0 -58 70 -58z" />
    <glyph glyph-name="adieresis" unicode="&#xe4;" horiz-adv-x="531" 
d="M166 590q-67 0 -67 64v11q0 34 16.5 49t50.5 15h6q68 0 68 -64v-11q0 -64 -68 -64h-6zM375 590q-68 0 -68 64v11q0 64 68 64h6q34 0 50.5 -15t16.5 -49v-11q0 -64 -67 -64h-6zM202 -14q-82 0 -127 44t-45 117q0 70 43 111q48 45 180 45h78v16q0 39 -18 55q-23 20 -83 20
q-74 0 -137 -13l-7 105q90 18 174 18q128 0 176 -56q38 -44 38 -130v-318h-113l-12 30q-68 -44 -147 -44zM243 95q39 0 88 15v101h-76q-51 0 -68 -17q-14 -14 -14 -41q0 -58 70 -58z" />
    <glyph glyph-name="aring" unicode="&#xe5;" horiz-adv-x="531" 
d="M271 569q-121 0 -121 111v14q0 111 121 111h7q120 0 120 -111v-14q0 -111 -120 -111h-7zM273 632h3q27 0 39 12t12 40v4q0 29 -12 40t-39 11h-3q-28 0 -40.5 -11t-12.5 -40v-4q0 -28 12.5 -40t40.5 -12zM202 -14q-82 0 -127 44t-45 117q0 70 43 111q48 45 180 45h78v16
q0 39 -18 55q-23 20 -83 20q-74 0 -137 -13l-7 105q90 18 174 18q128 0 176 -56q38 -44 38 -130v-318h-113l-12 30q-68 -44 -147 -44zM243 95q39 0 88 15v101h-76q-51 0 -68 -17q-14 -14 -14 -41q0 -58 70 -58z" />
    <glyph glyph-name="ae" unicode="&#xe6;" horiz-adv-x="817" 
d="M202 -14q-82 0 -127 44t-45 117q0 70 43 111q48 45 180 45h78v18q-1 36 -18 53q-23 20 -83 20q-74 0 -137 -13l-7 105q90 18 174 18q105 0 158 -39q57 39 144 39q225 0 225 -247v-45q0 -11 -12 -11h-301q3 -60 39 -83t112 -23q59 0 122 12l11 -104q-89 -17 -165 -17
q-135 0 -201 60q-33 -25 -88 -42.5t-102 -17.5zM474 294h173q0 48 -22 75t-64 27q-82 0 -87 -102zM243 95q46 0 103 19q-12 33 -15 97h-76q-51 0 -68 -17q-14 -14 -14 -41q0 -58 70 -58z" />
    <glyph glyph-name="ccedilla" unicode="&#xe7;" horiz-adv-x="463" 
d="M286 -252q-50 0 -89 14v75q38 -10 69 -10q44 0 44 23q0 10 -10.5 18t-45.5 19q-29 9 -42 22.5t-13 37.5q0 25 14 48q-92 18 -138 89q-40 61 -40 150q0 128 63 197q68 73 196 73q79 0 144 -18l-9 -106q-52 14 -113 14q-66 0 -99 -35q-33 -36 -33 -114q0 -77 34 -113.5
t110 -36.5q50 0 102 10l11 -103q-70 -16 -138 -16h-17v-7q0 -9 6.5 -14t30.5 -14q48 -18 65 -37t17 -54q0 -48 -27 -78q-29 -34 -92 -34z" />
    <glyph glyph-name="egrave" unicode="&#xe8;" horiz-adv-x="528" 
d="M340 559l-203 137l70 95l183 -170zM304 -14q-137 0 -203 63t-66 195q0 128 62 194t176 66q225 0 225 -247v-45q0 -11 -12 -11h-301q3 -60 39 -83t112 -23q59 0 122 12l11 -104q-89 -17 -165 -17zM185 294h173q0 48 -22 75t-64 27q-82 0 -87 -102z" />
    <glyph glyph-name="eacute" unicode="&#xe9;" horiz-adv-x="528" 
d="M187 559l-50 62l183 170l70 -95zM304 -14q-137 0 -203 63t-66 195q0 128 62 194t176 66q225 0 225 -247v-45q0 -11 -12 -11h-301q3 -60 39 -83t112 -23q59 0 122 12l11 -104q-89 -17 -165 -17zM185 294h173q0 48 -22 75t-64 27q-82 0 -87 -102z" />
    <glyph glyph-name="ecircumflex" unicode="&#xea;" horiz-adv-x="528" 
d="M141 562l-50 51l125 144h96l125 -144l-50 -51l-123 98zM304 -14q-137 0 -203 63t-66 195q0 128 62 194t176 66q225 0 225 -247v-45q0 -11 -12 -11h-301q3 -60 39 -83t112 -23q59 0 122 12l11 -104q-89 -17 -165 -17zM185 294h173q0 48 -22 75t-64 27q-82 0 -87 -102z" />
    <glyph glyph-name="edieresis" unicode="&#xeb;" horiz-adv-x="528" 
d="M156 590q-67 0 -67 64v11q0 34 16.5 49t50.5 15h6q68 0 68 -64v-11q0 -64 -68 -64h-6zM365 590q-68 0 -68 64v11q0 64 68 64h6q34 0 50.5 -15t16.5 -49v-11q0 -64 -67 -64h-6zM304 -14q-137 0 -203 63t-66 195q0 128 62 194t176 66q225 0 225 -247v-45q0 -11 -12 -11
h-301q3 -60 39 -83t112 -23q59 0 122 12l11 -104q-89 -17 -165 -17zM185 294h173q0 48 -22 75t-64 27q-82 0 -87 -102z" />
    <glyph glyph-name="igrave" unicode="&#xec;" horiz-adv-x="269" 
d="M211 559l-203 137l70 95l183 -170zM63 0v490h143v-490h-143z" />
    <glyph glyph-name="iacute" unicode="&#xed;" horiz-adv-x="269" 
d="M58 559l-50 62l183 170l70 -95zM63 0v490h143v-490h-143z" />
    <glyph glyph-name="icircumflex" unicode="&#xee;" horiz-adv-x="269" 
d="M12 562l-50 51l125 144h96l125 -144l-50 -51l-123 98zM63 0v490h143v-490h-143z" />
    <glyph glyph-name="idieresis" unicode="&#xef;" horiz-adv-x="269" 
d="M27 590q-67 0 -67 64v11q0 34 16.5 49t50.5 15h6q68 0 68 -64v-11q0 -64 -68 -64h-6zM236 590q-68 0 -68 64v11q0 64 68 64h6q34 0 50.5 -15t16.5 -49v-11q0 -64 -67 -64h-6zM63 0v490h143v-490h-143z" />
    <glyph glyph-name="eth" unicode="&#xf0;" horiz-adv-x="570" 
d="M352 668q174 -163 174 -397q0 -133 -60.5 -209t-184.5 -76q-120 0 -180.5 66t-60.5 174q0 113 58 175t152 62q52 0 106 -26q-25 79 -87 150l-66 -64l-58 58l66 65q-27 24 -76 63q70 68 71 70l83 -57l70 68l58 -58zM284 95q94 0 94 175q0 29 -4 77q-44 13 -79 13
q-106 0 -106 -132q0 -60 23.5 -96.5t71.5 -36.5z" />
    <glyph glyph-name="ntilde" unicode="&#xf1;" horiz-adv-x="573" 
d="M183 592l-71 11q0 65 28 101t78 36q32 0 80.5 -21t66.5 -21q33 0 42 46l71 -11q0 -65 -28 -101t-78 -36q-32 0 -80 21t-67 21q-33 0 -42 -46zM60 0v490h124l3 -35q76 49 169 49q80 0 118 -38q42 -41 42 -129v-337h-143v320q0 34 -15 49q-17 16 -62 16q-52 0 -93 -16v-369
h-143z" />
    <glyph glyph-name="ograve" unicode="&#xf2;" horiz-adv-x="568" 
d="M360 559l-203 137l70 95l183 -170zM284 -14q-124 0 -186.5 68.5t-62.5 190.5t62.5 190.5t186.5 68.5t186.5 -68.5t62.5 -190.5t-62.5 -190.5t-186.5 -68.5zM284 95q53 0 76.5 36.5t23.5 113.5t-23.5 113.5t-76.5 36.5t-76.5 -36.5t-23.5 -113.5t23.5 -113.5t76.5 -36.5z
" />
    <glyph glyph-name="oacute" unicode="&#xf3;" horiz-adv-x="568" 
d="M207 559l-50 62l183 170l70 -95zM284 -14q-124 0 -186.5 68.5t-62.5 190.5t62.5 190.5t186.5 68.5t186.5 -68.5t62.5 -190.5t-62.5 -190.5t-186.5 -68.5zM284 95q53 0 76.5 36.5t23.5 113.5t-23.5 113.5t-76.5 36.5t-76.5 -36.5t-23.5 -113.5t23.5 -113.5t76.5 -36.5z
" />
    <glyph glyph-name="ocircumflex" unicode="&#xf4;" horiz-adv-x="568" 
d="M161 562l-50 51l125 144h96l125 -144l-50 -51l-123 98zM284 -14q-124 0 -186.5 68.5t-62.5 190.5t62.5 190.5t186.5 68.5t186.5 -68.5t62.5 -190.5t-62.5 -190.5t-186.5 -68.5zM284 95q53 0 76.5 36.5t23.5 113.5t-23.5 113.5t-76.5 36.5t-76.5 -36.5t-23.5 -113.5
t23.5 -113.5t76.5 -36.5z" />
    <glyph glyph-name="otilde" unicode="&#xf5;" horiz-adv-x="568" 
d="M172 592l-71 11q0 65 28 101t78 36q32 0 80.5 -21t66.5 -21q33 0 42 46l71 -11q0 -65 -28 -101t-78 -36q-32 0 -80 21t-67 21q-33 0 -42 -46zM284 -14q-124 0 -186.5 68.5t-62.5 190.5t62.5 190.5t186.5 68.5t186.5 -68.5t62.5 -190.5t-62.5 -190.5t-186.5 -68.5zM284 95
q53 0 76.5 36.5t23.5 113.5t-23.5 113.5t-76.5 36.5t-76.5 -36.5t-23.5 -113.5t23.5 -113.5t76.5 -36.5z" />
    <glyph glyph-name="odieresis" unicode="&#xf6;" horiz-adv-x="568" 
d="M176 590q-67 0 -67 64v11q0 34 16.5 49t50.5 15h6q68 0 68 -64v-11q0 -64 -68 -64h-6zM385 590q-68 0 -68 64v11q0 64 68 64h6q34 0 50.5 -15t16.5 -49v-11q0 -64 -67 -64h-6zM284 -14q-124 0 -186.5 68.5t-62.5 190.5t62.5 190.5t186.5 68.5t186.5 -68.5t62.5 -190.5
t-62.5 -190.5t-186.5 -68.5zM284 95q53 0 76.5 36.5t23.5 113.5t-23.5 113.5t-76.5 36.5t-76.5 -36.5t-23.5 -113.5t23.5 -113.5t76.5 -36.5z" />
    <glyph glyph-name="divide" unicode="&#xf7;" 
d="M297 451q-65 0 -65 62v13q0 32 15.5 46.5t49.5 14.5h7q66 0 66 -61v-13q0 -62 -66 -62h-7zM113 277v94h374v-94h-374zM297 60q-65 0 -65 62v13q0 32 15.5 46.5t49.5 14.5h7q66 0 66 -61v-13q0 -62 -66 -62h-7z" />
    <glyph glyph-name="oslash" unicode="&#xf8;" horiz-adv-x="568" 
d="M121 -84l35 96q-121 58 -121 233q0 122 62.5 190.5t186.5 68.5q31 0 52 -4l27 74h84l-35 -96q121 -59 121 -233q0 -122 -62.5 -190.5t-186.5 -68.5q-31 0 -52 4l-27 -74h-84zM203 139l94 255q-4 1 -13 1q-53 0 -76.5 -36.5t-23.5 -113.5q0 -69 19 -106zM271 95h13
q53 0 76.5 36.5t23.5 113.5q0 69 -19 106z" />
    <glyph glyph-name="ugrave" unicode="&#xf9;" horiz-adv-x="569" 
d="M367 559l-203 137l70 95l183 -170zM217 -13q-80 0 -118 38q-42 41 -42 129v336h143v-316q0 -37 15 -52q17 -16 62 -16q47 0 89 14v370h143v-490h-124l-4 33q-74 -46 -164 -46z" />
    <glyph glyph-name="uacute" unicode="&#xfa;" horiz-adv-x="569" 
d="M214 559l-50 62l183 170l70 -95zM217 -13q-80 0 -118 38q-42 41 -42 129v336h143v-316q0 -37 15 -52q17 -16 62 -16q47 0 89 14v370h143v-490h-124l-4 33q-74 -46 -164 -46z" />
    <glyph glyph-name="ucircumflex" unicode="&#xfb;" horiz-adv-x="569" 
d="M168 562l-50 51l125 144h96l125 -144l-50 -51l-123 98zM217 -13q-80 0 -118 38q-42 41 -42 129v336h143v-316q0 -37 15 -52q17 -16 62 -16q47 0 89 14v370h143v-490h-124l-4 33q-74 -46 -164 -46z" />
    <glyph glyph-name="udieresis" unicode="&#xfc;" horiz-adv-x="569" 
d="M183 590q-67 0 -67 64v11q0 34 16.5 49t50.5 15h6q68 0 68 -64v-11q0 -64 -68 -64h-6zM392 590q-68 0 -68 64v11q0 64 68 64h6q34 0 50.5 -15t16.5 -49v-11q0 -64 -67 -64h-6zM217 -13q-80 0 -118 38q-42 41 -42 129v336h143v-316q0 -37 15 -52q17 -16 62 -16q47 0 89 14
v370h143v-490h-124l-4 33q-74 -46 -164 -46z" />
    <glyph glyph-name="yacute" unicode="&#xfd;" horiz-adv-x="571" 
d="M229 559l-50 62l183 170l70 -95zM284 -239q-65 0 -125 13l-10 106q61 -11 112 -11q60 0 83 23q24 23 24 79v60q-71 -40 -154 -40q-76 0 -114 38q-43 43 -43 124v337h143v-317q0 -34 15 -49q17 -16 61 -16q46 0 92 18v364h143v-469q0 -136 -49.5 -198t-177.5 -62z" />
    <glyph glyph-name="thorn" unicode="&#xfe;" horiz-adv-x="560" 
d="M60 -225v940h143v-251q68 40 139 40q73 0 117 -42q66 -65 66 -214q0 -262 -191 -262q-73 0 -131 36v-247h-143zM292 99q46 0 64.5 32t18.5 119q0 79 -19 109t-68 30q-40 0 -85 -13v-263q32 -14 89 -14z" />
    <glyph glyph-name="ydieresis" unicode="&#xff;" horiz-adv-x="571" 
d="M178 590q-67 0 -67 64v11q0 34 16.5 49t50.5 15h6q68 0 68 -64v-11q0 -64 -68 -64h-6zM387 590q-68 0 -68 64v11q0 64 68 64h6q34 0 50.5 -15t16.5 -49v-11q0 -64 -67 -64h-6zM284 -239q-65 0 -125 13l-10 106q61 -11 112 -11q60 0 83 23q24 23 24 79v60
q-71 -40 -154 -40q-76 0 -114 38q-43 43 -43 124v337h143v-317q0 -34 15 -49q17 -16 61 -16q46 0 92 18v364h143v-469q0 -136 -49.5 -198t-177.5 -62z" />
    <glyph glyph-name="Amacron" unicode="&#x100;" horiz-adv-x="658" 
d="M174 805v98h295v-98h-295zM5 0l229 684h172l247 -684h-167l-57 172h-222l-53 -172h-149zM243 285h148l-75 228h-2z" />
    <glyph glyph-name="amacron" unicode="&#x101;" horiz-adv-x="531" 
d="M126 605v98h295v-98h-295zM202 -14q-82 0 -127 44t-45 117q0 70 43 111q48 45 180 45h78v16q0 39 -18 55q-23 20 -83 20q-74 0 -137 -13l-7 105q90 18 174 18q128 0 176 -56q38 -44 38 -130v-318h-113l-12 30q-68 -44 -147 -44zM243 95q39 0 88 15v101h-76q-51 0 -68 -17
q-14 -14 -14 -41q0 -58 70 -58z" />
    <glyph glyph-name="Abreve" unicode="&#x102;" horiz-adv-x="658" 
d="M322 775q-85 0 -123 44.5t-38 115.5l87 3q9 -76 74 -76t74 76l86 -3q0 -71 -37.5 -115.5t-122.5 -44.5zM5 0l229 684h172l247 -684h-167l-57 172h-222l-53 -172h-149zM243 285h148l-75 228h-2z" />
    <glyph glyph-name="abreve" unicode="&#x103;" horiz-adv-x="531" 
d="M274 575q-85 0 -123 44.5t-38 115.5l87 3q9 -76 74 -76t74 76l86 -3q0 -71 -37.5 -115.5t-122.5 -44.5zM202 -14q-82 0 -127 44t-45 117q0 70 43 111q48 45 180 45h78v16q0 39 -18 55q-23 20 -83 20q-74 0 -137 -13l-7 105q90 18 174 18q128 0 176 -56q38 -44 38 -130
v-318h-113l-12 30q-68 -44 -147 -44zM243 95q39 0 88 15v101h-76q-51 0 -68 -17q-14 -14 -14 -41q0 -58 70 -58z" />
    <glyph glyph-name="Aogonek" unicode="&#x104;" horiz-adv-x="658" 
d="M521 -249q-56 0 -90.5 30.5t-34.5 86.5q0 85 87 140l-54 164h-222l-53 -172h-149l229 684h172l247 -684h-40q-47 0 -82 -31t-35 -79q0 -57 61 -57q27 0 56 9v-77q-47 -14 -92 -14zM243 285h148l-75 228h-2z" />
    <glyph glyph-name="aogonek" unicode="&#x105;" horiz-adv-x="531" 
d="M402 -249q-56 0 -90.5 30.5t-34.5 86.5q0 73 82 136l-10 26q-68 -44 -147 -44q-82 0 -127 44t-45 117q0 70 43 111q48 45 180 45h78v16q0 39 -18 55q-23 20 -83 20q-74 0 -137 -13l-7 105q90 18 174 18q128 0 176 -56q38 -44 38 -130v-318h-15q-15 0 -26 -11
q-56 -56 -56 -110q0 -46 61 -46q27 0 56 9v-77q-47 -14 -92 -14zM243 95q39 0 88 15v101h-76q-51 0 -68 -17q-14 -14 -14 -41q0 -58 70 -58z" />
    <glyph glyph-name="Cacute" unicode="&#x106;" horiz-adv-x="589" 
d="M299 759l-50 62l183 170l70 -95zM376 -14q-170 0 -248 83q-83 89 -83 270q0 168 81 263t250 95q103 0 179 -31l-20 -114q-85 24 -147 24q-103 0 -142 -60t-39 -173q0 -132 49 -187q43 -49 150 -49q56 0 126 14l16 -114q-72 -21 -172 -21z" />
    <glyph glyph-name="cacute" unicode="&#x107;" horiz-adv-x="463" 
d="M216 559l-50 62l183 170l70 -95zM303 -14q-165 0 -228 98q-40 61 -40 150q0 128 63 197q68 73 196 73q79 0 144 -18l-9 -106q-52 14 -113 14q-66 0 -99 -35q-33 -36 -33 -114q0 -77 34 -113.5t110 -36.5q50 0 102 10l11 -103q-70 -16 -138 -16z" />
    <glyph glyph-name="Ccircumflex" unicode="&#x108;" horiz-adv-x="589" 
d="M253 762l-50 51l125 144h96l125 -144l-50 -51l-123 98zM376 -14q-170 0 -248 83q-83 89 -83 270q0 168 81 263t250 95q103 0 179 -31l-20 -114q-85 24 -147 24q-103 0 -142 -60t-39 -173q0 -132 49 -187q43 -49 150 -49q56 0 126 14l16 -114q-72 -21 -172 -21z" />
    <glyph glyph-name="ccircumflex" unicode="&#x109;" horiz-adv-x="463" 
d="M170 562l-50 51l125 144h96l125 -144l-50 -51l-123 98zM303 -14q-165 0 -228 98q-40 61 -40 150q0 128 63 197q68 73 196 73q79 0 144 -18l-9 -106q-52 14 -113 14q-66 0 -99 -35q-33 -36 -33 -114q0 -77 34 -113.5t110 -36.5q50 0 102 10l11 -103q-70 -16 -138 -16z" />
    <glyph glyph-name="Cdotaccent" unicode="&#x10a;" horiz-adv-x="589" 
d="M373 788q-37 0 -54.5 16t-17.5 52v11q0 37 17.5 52.5t54.5 15.5h6q36 0 54 -16t18 -52v-11q0 -68 -72 -68h-6zM376 -14q-170 0 -248 83q-83 89 -83 270q0 168 81 263t250 95q103 0 179 -31l-20 -114q-85 24 -147 24q-103 0 -142 -60t-39 -173q0 -132 49 -187
q43 -49 150 -49q56 0 126 14l16 -114q-72 -21 -172 -21z" />
    <glyph glyph-name="cdotaccent" unicode="&#x10b;" horiz-adv-x="463" 
d="M290 588q-37 0 -54.5 16t-17.5 52v11q0 37 17.5 52.5t54.5 15.5h6q36 0 54 -16t18 -52v-11q0 -68 -72 -68h-6zM303 -14q-165 0 -228 98q-40 61 -40 150q0 128 63 197q68 73 196 73q79 0 144 -18l-9 -106q-52 14 -113 14q-66 0 -99 -35q-33 -36 -33 -114q0 -77 34 -113.5
t110 -36.5q50 0 102 10l11 -103q-70 -16 -138 -16z" />
    <glyph glyph-name="Ccaron" unicode="&#x10c;" horiz-adv-x="589" 
d="M328 774l-125 144l50 51l123 -98l123 98l50 -51l-125 -144h-96zM376 -14q-170 0 -248 83q-83 89 -83 270q0 168 81 263t250 95q103 0 179 -31l-20 -114q-85 24 -147 24q-103 0 -142 -60t-39 -173q0 -132 49 -187q43 -49 150 -49q56 0 126 14l16 -114q-72 -21 -172 -21z
" />
    <glyph glyph-name="ccaron" unicode="&#x10d;" horiz-adv-x="463" 
d="M245 574l-125 144l50 51l123 -98l123 98l50 -51l-125 -144h-96zM303 -14q-165 0 -228 98q-40 61 -40 150q0 128 63 197q68 73 196 73q79 0 144 -18l-9 -106q-52 14 -113 14q-66 0 -99 -35q-33 -36 -33 -114q0 -77 34 -113.5t110 -36.5q50 0 102 10l11 -103
q-70 -16 -138 -16z" />
    <glyph glyph-name="Dcaron" unicode="&#x10e;" horiz-adv-x="686" 
d="M295 774l-125 144l50 51l123 -98l123 98l50 -51l-125 -144h-96zM74 0v684h211q100 0 165.5 -17.5t107.5 -59.5q83 -81 83 -262q0 -182 -83 -268q-76 -77 -252 -77h-232zM230 114h66q106 0 147 61q36 53 36 170q0 72 -11 112t-37 68q-42 45 -153 45h-48v-456z" />
    <glyph glyph-name="dcaron" unicode="&#x10f;" horiz-adv-x="714" 
d="M220 -14q-73 0 -117 42q-68 67 -68 216q0 121 52.5 190.5t141.5 69.5q71 0 130 -36v247h143v-715h-124l-3 35q-73 -49 -155 -49zM606 422v132q-31 10 -43 26.5t-12 46.5q0 70 68 70h7q68 0 68 -70v-25q0 -119 -21 -180h-67zM274 98q42 0 85 17v265q-35 11 -68 11
q-53 0 -79.5 -33.5t-26.5 -117.5q0 -81 20 -111.5t69 -30.5z" />
    <glyph glyph-name="Dcroat" unicode="&#x110;" horiz-adv-x="686" 
d="M74 0v288h-72v102l72 12v282h211q100 0 165.5 -17.5t107.5 -59.5q83 -81 83 -262q0 -182 -83 -268q-76 -77 -252 -77h-232zM230 114h66q106 0 147 61q36 53 36 170q0 72 -11 112t-37 68q-42 45 -153 45h-48v-165h139v-117h-139v-174z" />
    <glyph glyph-name="dcroat" unicode="&#x111;" horiz-adv-x="562" 
d="M220 -14q-73 0 -117 42q-68 67 -68 216q0 121 52.5 190.5t141.5 69.5q71 0 130 -36v100h-159v82h159v65h143v-69l79 -6v-72h-79v-568h-124l-3 35q-73 -49 -155 -49zM274 98q42 0 85 17v265q-35 11 -68 11q-53 0 -79.5 -33.5t-26.5 -117.5q0 -81 20 -111.5t69 -30.5z" />
    <glyph glyph-name="Emacron" unicode="&#x112;" horiz-adv-x="583" 
d="M160 805v98h295v-98h-295zM74 0v684h462l-12 -113h-294v-166h235v-117h-235v-175h311v-113h-467z" />
    <glyph glyph-name="emacron" unicode="&#x113;" horiz-adv-x="528" 
d="M116 605v98h295v-98h-295zM304 -14q-137 0 -203 63t-66 195q0 128 62 194t176 66q225 0 225 -247v-45q0 -11 -12 -11h-301q3 -60 39 -83t112 -23q59 0 122 12l11 -104q-89 -17 -165 -17zM185 294h173q0 48 -22 75t-64 27q-82 0 -87 -102z" />
    <glyph glyph-name="Ebreve" unicode="&#x114;" horiz-adv-x="583" 
d="M308 775q-85 0 -123 44.5t-38 115.5l87 3q9 -76 74 -76t74 76l86 -3q0 -71 -37.5 -115.5t-122.5 -44.5zM74 0v684h462l-12 -113h-294v-166h235v-117h-235v-175h311v-113h-467z" />
    <glyph glyph-name="ebreve" unicode="&#x115;" horiz-adv-x="528" 
d="M270 575q-85 0 -123 44.5t-38 115.5l87 3q9 -76 74 -76t74 76l86 -3q0 -71 -37.5 -115.5t-122.5 -44.5zM304 -14q-137 0 -203 63t-66 195q0 128 62 194t176 66q225 0 225 -247v-45q0 -11 -12 -11h-301q3 -60 39 -83t112 -23q59 0 122 12l11 -104q-89 -17 -165 -17z
M185 294h173q0 48 -22 75t-64 27q-82 0 -87 -102z" />
    <glyph glyph-name="Edotaccent" unicode="&#x116;" horiz-adv-x="583" 
d="M305 788q-37 0 -54.5 16t-17.5 52v11q0 37 17.5 52.5t54.5 15.5h6q36 0 54 -16t18 -52v-11q0 -68 -72 -68h-6zM74 0v684h462l-12 -113h-294v-166h235v-117h-235v-175h311v-113h-467z" />
    <glyph glyph-name="edotaccent" unicode="&#x117;" horiz-adv-x="528" 
d="M261 588q-37 0 -54.5 16t-17.5 52v11q0 37 17.5 52.5t54.5 15.5h6q36 0 54 -16t18 -52v-11q0 -68 -72 -68h-6zM304 -14q-137 0 -203 63t-66 195q0 128 62 194t176 66q225 0 225 -247v-45q0 -11 -12 -11h-301q3 -60 39 -83t112 -23q59 0 122 12l11 -104q-89 -17 -165 -17z
M185 294h173q0 48 -22 75t-64 27q-82 0 -87 -102z" />
    <glyph glyph-name="Eogonek" unicode="&#x118;" horiz-adv-x="583" 
d="M439 -249q-56 0 -90.5 30.5t-34.5 86.5q0 38 20 75t56 57h-316v684h462l-12 -113h-294v-166h235v-117h-235v-175h311v-113h-10q-47 0 -82 -31t-35 -79q0 -57 61 -57q27 0 56 9v-77q-47 -14 -92 -14z" />
    <glyph glyph-name="eogonek" unicode="&#x119;" horiz-adv-x="528" 
d="M386 -249q-56 0 -90.5 30.5t-34.5 86.5q0 73 60 118h-17q-137 0 -203 63t-66 195q0 128 62 194t176 66q225 0 225 -247v-45q0 -11 -12 -11h-301q3 -60 39 -83t112 -23q59 0 122 12l11 -104q-45 -9 -76.5 -37.5t-31.5 -74.5q0 -58 61 -58q27 0 56 9v-77q-47 -14 -92 -14z
M185 294h173q0 48 -22 75t-64 27q-82 0 -87 -102z" />
    <glyph glyph-name="Ecaron" unicode="&#x11a;" horiz-adv-x="583" 
d="M260 774l-125 144l50 51l123 -98l123 98l50 -51l-125 -144h-96zM74 0v684h462l-12 -113h-294v-166h235v-117h-235v-175h311v-113h-467z" />
    <glyph glyph-name="ecaron" unicode="&#x11b;" horiz-adv-x="528" 
d="M221 574l-125 144l50 51l123 -98l123 98l50 -51l-125 -144h-96zM304 -14q-137 0 -203 63t-66 195q0 128 62 194t176 66q225 0 225 -247v-45q0 -11 -12 -11h-301q3 -60 39 -83t112 -23q59 0 122 12l11 -104q-89 -17 -165 -17zM185 294h173q0 48 -22 75t-64 27
q-82 0 -87 -102z" />
    <glyph glyph-name="Gcircumflex" unicode="&#x11c;" horiz-adv-x="671" 
d="M257 762l-50 51l125 144h96l125 -144l-50 -51l-123 98zM373 -14q-176 0 -252 90t-76 262q0 166 88 262.5t258 96.5q117 0 193 -33l-20 -114q-87 25 -162 25q-101 0 -148 -58t-47 -173q0 -126 40 -182q39 -55 132 -55q41 0 83 7v144h-96v112h251v-349q-114 -35 -244 -35z
" />
    <glyph glyph-name="gcircumflex" unicode="&#x11d;" horiz-adv-x="541" 
d="M148 562l-50 51l125 144h96l125 -144l-50 -51l-123 98zM268 -239q-126 0 -183.5 31.5t-57.5 97.5q0 59 58 89q-25 21 -25 64q0 65 65 119q-75 49 -75 154q0 188 221 188q64 0 116 -19l62 71q39 -25 78 -85l-65 -44q30 -46 30 -111h-1q0 -189 -220 -189q-37 0 -64 4
q-13 -23 -13 -39q0 -13 14 -13h96q134 0 185 -52q36 -38 36 -104q0 -162 -249 -162h-8zM271 229q91 0 91 87q0 86 -91 86q-92 0 -92 -86q0 -44 22 -65.5t70 -21.5zM272 -131h15q110 0 110 48q0 24 -18.5 33.5t-67.5 9.5h-143q-14 -15 -14 -37q0 -28 26 -41t92 -13z" />
    <glyph glyph-name="Gbreve" unicode="&#x11e;" horiz-adv-x="671" 
d="M380 775q-85 0 -123 44.5t-38 115.5l87 3q9 -76 74 -76t74 76l86 -3q0 -71 -37.5 -115.5t-122.5 -44.5zM373 -14q-176 0 -252 90t-76 262q0 166 88 262.5t258 96.5q117 0 193 -33l-20 -114q-87 25 -162 25q-101 0 -148 -58t-47 -173q0 -126 40 -182q39 -55 132 -55
q41 0 83 7v144h-96v112h251v-349q-114 -35 -244 -35z" />
    <glyph glyph-name="gbreve" unicode="&#x11f;" horiz-adv-x="541" 
d="M271 575q-85 0 -123 44.5t-38 115.5l87 3q9 -76 74 -76t74 76l86 -3q0 -71 -37.5 -115.5t-122.5 -44.5zM268 -239q-126 0 -183.5 31.5t-57.5 97.5q0 59 58 89q-25 21 -25 64q0 65 65 119q-75 49 -75 154q0 188 221 188q64 0 116 -19l62 71q39 -25 78 -85l-65 -44
q30 -46 30 -111h-1q0 -189 -220 -189q-37 0 -64 4q-13 -23 -13 -39q0 -13 14 -13h96q134 0 185 -52q36 -38 36 -104q0 -162 -249 -162h-8zM271 229q91 0 91 87q0 86 -91 86q-92 0 -92 -86q0 -44 22 -65.5t70 -21.5zM272 -131h15q110 0 110 48q0 24 -18.5 33.5t-67.5 9.5
h-143q-14 -15 -14 -37q0 -28 26 -41t92 -13z" />
    <glyph glyph-name="Gdotaccent" unicode="&#x120;" horiz-adv-x="671" 
d="M377 788q-37 0 -54.5 16t-17.5 52v11q0 37 17.5 52.5t54.5 15.5h6q36 0 54 -16t18 -52v-11q0 -68 -72 -68h-6zM373 -14q-176 0 -252 90t-76 262q0 166 88 262.5t258 96.5q117 0 193 -33l-20 -114q-87 25 -162 25q-101 0 -148 -58t-47 -173q0 -126 40 -182q39 -55 132 -55
q41 0 83 7v144h-96v112h251v-349q-114 -35 -244 -35z" />
    <glyph glyph-name="gdotaccent" unicode="&#x121;" horiz-adv-x="541" 
d="M268 588q-37 0 -54.5 16t-17.5 52v11q0 37 17.5 52.5t54.5 15.5h6q36 0 54 -16t18 -52v-11q0 -68 -72 -68h-6zM268 -239q-126 0 -183.5 31.5t-57.5 97.5q0 59 58 89q-25 21 -25 64q0 65 65 119q-75 49 -75 154q0 188 221 188q64 0 116 -19l62 71q39 -25 78 -85l-65 -44
q30 -46 30 -111h-1q0 -189 -220 -189q-37 0 -64 4q-13 -23 -13 -39q0 -13 14 -13h96q134 0 185 -52q36 -38 36 -104q0 -162 -249 -162h-8zM271 229q91 0 91 87q0 86 -91 86q-92 0 -92 -86q0 -44 22 -65.5t70 -21.5zM272 -131h15q110 0 110 48q0 24 -18.5 33.5t-67.5 9.5
h-143q-14 -15 -14 -37q0 -28 26 -41t92 -13z" />
    <glyph glyph-name="Gcommaaccent" unicode="&#x122;" horiz-adv-x="671" 
d="M373 -14q-176 0 -252 90t-76 262q0 166 88 262.5t258 96.5q117 0 193 -33l-20 -114q-87 25 -162 25q-101 0 -148 -58t-47 -173q0 -126 40 -182q39 -55 132 -55q41 0 83 7v144h-96v112h251v-349q-114 -35 -244 -35zM356 -360v132q-31 10 -43 26.5t-12 46.5q0 70 68 70h7
q68 0 68 -70v-25q0 -119 -21 -180h-67z" />
    <glyph glyph-name="gcommaaccent" unicode="&#x123;" horiz-adv-x="541" 
d="M267 566q-68 0 -68 71v24q0 119 21 180h67v-132q31 -10 43 -26.5t12 -46.5q0 -70 -68 -70h-7zM268 -239q-126 0 -183.5 31.5t-57.5 97.5q0 59 58 89q-25 21 -25 64q0 65 65 119q-75 49 -75 154q0 188 221 188q64 0 116 -19l62 71q39 -25 78 -85l-65 -44q30 -46 30 -111
h-1q0 -189 -220 -189q-37 0 -64 4q-13 -23 -13 -39q0 -13 14 -13h96q134 0 185 -52q36 -38 36 -104q0 -162 -249 -162h-8zM271 229q91 0 91 87q0 86 -91 86q-92 0 -92 -86q0 -44 22 -65.5t70 -21.5zM272 -131h15q110 0 110 48q0 24 -18.5 33.5t-67.5 9.5h-143
q-14 -15 -14 -37q0 -28 26 -41t92 -13z" />
    <glyph glyph-name="Hcircumflex" unicode="&#x124;" horiz-adv-x="701" 
d="M228 762l-50 51l125 144h96l125 -144l-50 -51l-123 98zM74 0v684h156v-279h241v279h156v-684h-156v288h-241v-288h-156z" />
    <glyph glyph-name="hcircumflex" unicode="&#x125;" horiz-adv-x="573" 
d="M8 739l-50 51l125 144h96l125 -144l-50 -51l-123 98zM60 0v715h143v-251q71 40 153 40q80 0 118 -38q42 -41 42 -129v-337h-143v320q0 34 -15 49q-17 16 -62 16q-52 0 -93 -16v-369h-143z" />
    <glyph glyph-name="Hbar" unicode="&#x126;" horiz-adv-x="736" 
d="M91 0v499h-71v98h71v87h156v-87h241v87h156v-87h72v-98h-72v-499h-156v288h-241v-288h-156zM247 405h241v94h-241v-94z" />
    <glyph glyph-name="hbar" unicode="&#x127;" horiz-adv-x="573" 
d="M60 0v568h-79v72l79 6v69h143v-65h159v-82h-159v-104q71 40 153 40q80 0 118 -38q42 -41 42 -129v-337h-143v320q0 34 -15 49q-17 16 -62 16q-52 0 -93 -16v-369h-143z" />
    <glyph glyph-name="Itilde" unicode="&#x128;" horiz-adv-x="308" 
d="M42 792l-71 11q0 65 28 101t78 36q32 0 80.5 -21t66.5 -21q33 0 42 46l71 -11q0 -65 -28 -101t-78 -36q-32 0 -80 21t-67 21q-33 0 -42 -46zM76 0v684h156v-684h-156z" />
    <glyph glyph-name="itilde" unicode="&#x129;" horiz-adv-x="269" 
d="M23 592l-71 11q0 65 28 101t78 36q32 0 80.5 -21t66.5 -21q33 0 42 46l71 -11q0 -65 -28 -101t-78 -36q-32 0 -80 21t-67 21q-33 0 -42 -46zM63 0v490h143v-490h-143z" />
    <glyph glyph-name="Imacron" unicode="&#x12a;" horiz-adv-x="308" 
d="M6 805v98h295v-98h-295zM76 0v684h156v-684h-156z" />
    <glyph glyph-name="imacron" unicode="&#x12b;" horiz-adv-x="269" 
d="M-13 605v98h295v-98h-295zM63 0v490h143v-490h-143z" />
    <glyph glyph-name="Ibreve" unicode="&#x12c;" horiz-adv-x="308" 
d="M154 775q-85 0 -123 44.5t-38 115.5l87 3q9 -76 74 -76t74 76l86 -3q0 -71 -37.5 -115.5t-122.5 -44.5zM76 0v684h156v-684h-156z" />
    <glyph glyph-name="ibreve" unicode="&#x12d;" horiz-adv-x="269" 
d="M135 575q-85 0 -123 44.5t-38 115.5l87 3q9 -76 74 -76t74 76l86 -3q0 -71 -37.5 -115.5t-122.5 -44.5zM63 0v490h143v-490h-143z" />
    <glyph glyph-name="Iogonek" unicode="&#x12e;" horiz-adv-x="308" 
d="M120 -249q-56 0 -90.5 30.5t-34.5 86.5q0 39 22.5 76t58.5 59v681h156v-684h-20q-47 0 -82 -31t-35 -79q0 -57 61 -57q27 0 56 9v-77q-47 -14 -92 -14z" />
    <glyph glyph-name="iogonek" unicode="&#x12f;" horiz-adv-x="269" 
d="M131 572q-75 0 -75 68v13q0 69 75 69h7q75 0 75 -69v-13q0 -68 -75 -68h-7zM118 -249q-56 0 -90.5 30.5t-34.5 86.5q0 68 70 126v496h143v-490h-31q-15 0 -26 -11q-56 -56 -56 -110q0 -46 61 -46q27 0 56 9v-77q-47 -14 -92 -14z" />
    <glyph glyph-name="Idotaccent" unicode="&#x130;" horiz-adv-x="308" 
d="M151 788q-37 0 -54.5 16t-17.5 52v11q0 37 17.5 52.5t54.5 15.5h6q36 0 54 -16t18 -52v-11q0 -68 -72 -68h-6zM76 0v684h156v-684h-156z" />
    <glyph glyph-name="dotlessi" unicode="&#x131;" horiz-adv-x="269" 
d="M63 0v490h143v-490h-143z" />
    <glyph glyph-name="IJ" unicode="&#x132;" horiz-adv-x="722" 
d="M76 0v684h156v-684h-156zM445 -14q-43 0 -106 9l-11 119q41 -8 81 -8q50 0 68.5 19t18.5 75v484h156v-488q0 -117 -49 -166q-45 -44 -158 -44z" />
    <glyph glyph-name="ij" unicode="&#x133;" horiz-adv-x="538" 
d="M131 572q-75 0 -75 68v13q0 69 75 69h7q75 0 75 -69v-13q0 -68 -75 -68h-7zM400 572q-75 0 -75 68v13q0 69 75 69h7q75 0 75 -69v-13q0 -68 -75 -68h-7zM63 0v490h143v-490h-143zM248 -237q-20 0 -54 2l-14 107q26 -2 46 -2q60 0 83 23q23 22 23 79v518h143v-467
q0 -136 -49.5 -198t-177.5 -62z" />
    <glyph glyph-name="Jcircumflex" unicode="&#x134;" horiz-adv-x="414" 
d="M141 762l-50 51l125 144h96l125 -144l-50 -51l-123 98zM137 -14q-43 0 -106 9l-11 119q41 -8 81 -8q50 0 68.5 19t18.5 75v484h156v-488q0 -117 -49 -166q-45 -44 -158 -44z" />
    <glyph glyph-name="jcircumflex" unicode="&#x135;" horiz-adv-x="269" 
d="M12 562l-50 51l125 144h96l125 -144l-50 -51l-123 98zM-21 -237q-20 0 -54 2l-14 107q26 -2 46 -2q60 0 83 23q23 22 23 79v518h143v-467q0 -136 -49.5 -198t-177.5 -62z" />
    <glyph glyph-name="Kcommaaccent" unicode="&#x136;" horiz-adv-x="652" 
d="M74 0v684h156v-286l229 286h178l-242 -277l249 -407h-185l-165 291l-64 -73v-218h-156zM329 -360v132q-31 10 -43 26.5t-12 46.5q0 70 68 70h7q68 0 68 -70v-25q0 -119 -21 -180h-67z" />
    <glyph glyph-name="kcommaaccent" unicode="&#x137;" horiz-adv-x="544" 
d="M60 0v715h143v-412l153 187h164l-173 -196l191 -294h-161l-123 195l-51 -64v-131h-143zM273 -360v132q-31 10 -43 26.5t-12 46.5q0 70 68 70h7q68 0 68 -70v-25q0 -119 -21 -180h-67z" />
    <glyph glyph-name="kgreenlandic" unicode="&#x138;" horiz-adv-x="544" 
d="M60 0v490h143v-187l153 187h164l-173 -196l191 -294h-161l-123 195l-51 -64v-131h-143z" />
    <glyph glyph-name="Lacute" unicode="&#x139;" horiz-adv-x="551" 
d="M100 759l-50 62l183 170l70 -95zM74 0v684h156v-571h303v-113h-459z" />
    <glyph glyph-name="lacute" unicode="&#x13a;" horiz-adv-x="269" 
d="M58 749l-50 62l183 170l70 -95zM63 0v715h143v-715h-143z" />
    <glyph glyph-name="Lcommaaccent" unicode="&#x13b;" horiz-adv-x="551" 
d="M74 0v684h156v-571h303v-113h-459zM308 -360v132q-31 10 -43 26.5t-12 46.5q0 70 68 70h7q68 0 68 -70v-25q0 -119 -21 -180h-67z" />
    <glyph glyph-name="lcommaaccent" unicode="&#x13c;" horiz-adv-x="269" 
d="M63 0v715h143v-715h-143zM118 -360v132q-31 10 -43 26.5t-12 46.5q0 70 68 70h7q68 0 68 -70v-25q0 -119 -21 -180h-67z" />
    <glyph glyph-name="Lcaron" unicode="&#x13d;" horiz-adv-x="551" 
d="M359 422v132q-31 10 -43 26.5t-12 46.5q0 70 68 70h7q68 0 68 -70v-25q0 -119 -21 -180h-67zM74 0v684h156v-571h303v-113h-459z" />
    <glyph glyph-name="lcaron" unicode="&#x13e;" horiz-adv-x="418" 
d="M63 0v715h143v-715h-143zM310 422v132q-31 10 -43 26.5t-12 46.5q0 70 68 70h7q68 0 68 -70v-25q0 -119 -21 -180h-67z" />
    <glyph glyph-name="Ldot" unicode="&#x13f;" horiz-adv-x="551" 
d="M74 0v684h156v-571h303v-113h-459zM415 323q-37 0 -54.5 16t-17.5 52v11q0 37 17.5 52.5t54.5 15.5h6q36 0 54 -16t18 -52v-11q0 -68 -72 -68h-6z" />
    <glyph glyph-name="ldot" unicode="&#x140;" horiz-adv-x="431" 
d="M63 0v715h143v-715h-143zM343 271q-37 0 -54.5 16t-17.5 52v11q0 37 17.5 52.5t54.5 15.5h6q36 0 54 -16t18 -52v-11q0 -68 -72 -68h-6z" />
    <glyph glyph-name="Lslash" unicode="&#x141;" horiz-adv-x="551" 
d="M74 0v183l-34 -22l-58 97l92 59v367h156v-266l99 67l57 -97l-156 -103v-172h303v-113h-459z" />
    <glyph glyph-name="lslash" unicode="&#x142;" horiz-adv-x="378" 
d="M106 0v256l-41 -27l-55 93l96 62v331h143v-237l65 41l54 -93l-119 -77v-349h-143z" />
    <glyph glyph-name="Nacute" unicode="&#x143;" horiz-adv-x="724" 
d="M302 759l-50 62l183 170l70 -95zM74 0v684h115l324 -438v438h137v-684h-125l-314 415v-415h-137z" />
    <glyph glyph-name="nacute" unicode="&#x144;" horiz-adv-x="573" 
d="M248 559l-50 62l183 170l70 -95zM60 0v490h124l3 -35q76 49 169 49q80 0 118 -38q42 -41 42 -129v-337h-143v320q0 34 -15 49q-17 16 -62 16q-52 0 -93 -16v-369h-143z" />
    <glyph glyph-name="Ncommaaccent" unicode="&#x145;" horiz-adv-x="724" 
d="M74 0v684h115l324 -438v438h137v-684h-125l-314 415v-415h-137zM356 -360v132q-31 10 -43 26.5t-12 46.5q0 70 68 70h7q68 0 68 -70v-25q0 -119 -21 -180h-67z" />
    <glyph glyph-name="ncommaaccent" unicode="&#x146;" horiz-adv-x="573" 
d="M60 0v490h124l3 -35q76 49 169 49q80 0 118 -38q42 -41 42 -129v-337h-143v320q0 34 -15 49q-17 16 -62 16q-52 0 -93 -16v-369h-143zM270 -360v132q-31 10 -43 26.5t-12 46.5q0 70 68 70h7q68 0 68 -70v-25q0 -119 -21 -180h-67z" />
    <glyph glyph-name="Ncaron" unicode="&#x147;" horiz-adv-x="724" 
d="M316 774l-125 144l50 51l123 -98l123 98l50 -51l-125 -144h-96zM74 0v684h115l324 -438v438h137v-684h-125l-314 415v-415h-137z" />
    <glyph glyph-name="ncaron" unicode="&#x148;" horiz-adv-x="573" 
d="M267 574l-125 144l50 51l123 -98l123 98l50 -51l-125 -144h-96zM60 0v490h124l3 -35q76 49 169 49q80 0 118 -38q42 -41 42 -129v-337h-143v320q0 34 -15 49q-17 16 -62 16q-52 0 -93 -16v-369h-143z" />
    <glyph glyph-name="napostrophe" unicode="&#x149;" horiz-adv-x="753" 
d="M79 402v142q-33 11 -46 28.5t-13 48.5v1q0 75 73 75h7q74 0 74 -75v-27q0 -124 -16 -169q-8 -24 -39 -24h-40zM240 0v490h124l3 -35q76 49 169 49q80 0 118 -38q42 -41 42 -129v-337h-143v320q0 34 -15 49q-17 16 -62 16q-52 0 -93 -16v-369h-143z" />
    <glyph glyph-name="Eng" unicode="&#x14a;" horiz-adv-x="724" 
d="M443 -239q-43 0 -106 9l-11 109q41 -8 100 -8q50 0 68.5 19t18.5 75v51l-302 399v-415h-137v684h115l324 -438v438h137v-713q0 -117 -49 -166q-45 -44 -158 -44z" />
    <glyph glyph-name="eng" unicode="&#x14b;" horiz-adv-x="573" 
d="M289 -237q-20 0 -54 2l-14 107q26 -2 46 -2q60 0 83 23q23 22 23 79v348q0 34 -15 49q-17 16 -62 16q-52 0 -93 -16v-369h-143v490h124l3 -35q76 49 169 49q80 0 118 -38q42 -41 42 -129v-314q0 -136 -49.5 -198t-177.5 -62z" />
    <glyph glyph-name="Omacron" unicode="&#x14c;" horiz-adv-x="696" 
d="M200 805v98h295v-98h-295zM348 -14q-303 0 -303 355q0 356 303 356t303 -356q0 -355 -303 -355zM348 108q76 0 108.5 54.5t32.5 178.5t-33 179t-108 55t-108 -55t-33 -179t32.5 -178.5t108.5 -54.5z" />
    <glyph glyph-name="omacron" unicode="&#x14d;" horiz-adv-x="568" 
d="M136 605v98h295v-98h-295zM284 -14q-124 0 -186.5 68.5t-62.5 190.5t62.5 190.5t186.5 68.5t186.5 -68.5t62.5 -190.5t-62.5 -190.5t-186.5 -68.5zM284 95q53 0 76.5 36.5t23.5 113.5t-23.5 113.5t-76.5 36.5t-76.5 -36.5t-23.5 -113.5t23.5 -113.5t76.5 -36.5z" />
    <glyph glyph-name="Obreve" unicode="&#x14e;" horiz-adv-x="696" 
d="M348 775q-85 0 -123 44.5t-38 115.5l87 3q9 -76 74 -76t74 76l86 -3q0 -71 -37.5 -115.5t-122.5 -44.5zM348 -14q-303 0 -303 355q0 356 303 356t303 -356q0 -355 -303 -355zM348 108q76 0 108.5 54.5t32.5 178.5t-33 179t-108 55t-108 -55t-33 -179t32.5 -178.5
t108.5 -54.5z" />
    <glyph glyph-name="obreve" unicode="&#x14f;" horiz-adv-x="568" 
d="M284 575q-85 0 -123 44.5t-38 115.5l87 3q9 -76 74 -76t74 76l86 -3q0 -71 -37.5 -115.5t-122.5 -44.5zM284 -14q-124 0 -186.5 68.5t-62.5 190.5t62.5 190.5t186.5 68.5t186.5 -68.5t62.5 -190.5t-62.5 -190.5t-186.5 -68.5zM284 95q53 0 76.5 36.5t23.5 113.5
t-23.5 113.5t-76.5 36.5t-76.5 -36.5t-23.5 -113.5t23.5 -113.5t76.5 -36.5z" />
    <glyph glyph-name="Ohungarumlaut" unicode="&#x150;" horiz-adv-x="696" 
d="M210 768l-55 42l141 202l76 -76zM397 768l-55 42l141 202l76 -76zM348 -14q-303 0 -303 355q0 356 303 356t303 -356q0 -355 -303 -355zM348 108q76 0 108.5 54.5t32.5 178.5t-33 179t-108 55t-108 -55t-33 -179t32.5 -178.5t108.5 -54.5z" />
    <glyph glyph-name="ohungarumlaut" unicode="&#x151;" horiz-adv-x="568" 
d="M154 568l-55 42l141 202l76 -76zM341 568l-55 42l141 202l76 -76zM284 -14q-124 0 -186.5 68.5t-62.5 190.5t62.5 190.5t186.5 68.5t186.5 -68.5t62.5 -190.5t-62.5 -190.5t-186.5 -68.5zM284 95q53 0 76.5 36.5t23.5 113.5t-23.5 113.5t-76.5 36.5t-76.5 -36.5
t-23.5 -113.5t23.5 -113.5t76.5 -36.5z" />
    <glyph glyph-name="OE" unicode="&#x152;" horiz-adv-x="980" 
d="M379 0q-178 0 -252 77q-82 82 -82 268q0 179 85 262q76 77 274 77h529l-12 -112h-294v-166h235v-119h-235v-175h311v-112h-559zM389 101h82v482h-61q-109 0 -151 -45q-52 -57 -52 -193q0 -129 37 -183q43 -61 145 -61z" />
    <glyph glyph-name="oe" unicode="&#x153;" horiz-adv-x="877" 
d="M284 -14q-124 0 -186.5 68.5t-62.5 190.5t62.5 190.5t186.5 68.5q109 0 171 -57q60 57 167 57q225 0 225 -247v-45q0 -11 -12 -11h-301q2 -52 29 -76q31 -30 124 -30q43 0 115 11l11 -104q-84 -16 -160 -16q-132 0 -197 57q-62 -57 -172 -57zM534 294h173q0 48 -22 75
t-64 27q-82 0 -87 -102zM284 95q51 0 74.5 33.5t25.5 103.5v13q0 77 -23.5 113.5t-76.5 36.5t-76.5 -36.5t-23.5 -113.5t23.5 -113.5t76.5 -36.5z" />
    <glyph glyph-name="Racute" unicode="&#x154;" horiz-adv-x="648" 
d="M257 759l-50 62l183 170l70 -95zM74 0v684h235q85 0 136 -12t84 -43q57 -54 57 -157q0 -71 -29.5 -123.5t-86.5 -79.5l148 -269h-176l-126 248h-86v-248h-156zM230 361h69q72 0 100 24q29 25 29 85q0 52 -24 76q-26 25 -104 25h-70v-210z" />
    <glyph glyph-name="racute" unicode="&#x155;" horiz-adv-x="380" 
d="M144 559l-50 62l183 170l70 -95zM60 0v490h124l5 -40q27 25 69.5 39t80.5 14q13 0 25 -2v-125q-32 4 -63 4q-45 0 -98 -12v-368h-143z" />
    <glyph glyph-name="Rcommaaccent" unicode="&#x156;" horiz-adv-x="648" 
d="M74 0v684h235q85 0 136 -12t84 -43q57 -54 57 -157q0 -71 -29.5 -123.5t-86.5 -79.5l148 -269h-176l-126 248h-86v-248h-156zM230 361h69q72 0 100 24q29 25 29 85q0 52 -24 76q-26 25 -104 25h-70v-210zM318 -360v132q-31 10 -43 26.5t-12 46.5q0 70 68 70h7
q68 0 68 -70v-25q0 -119 -21 -180h-67z" />
    <glyph glyph-name="rcommaaccent" unicode="&#x157;" horiz-adv-x="380" 
d="M60 0v490h124l5 -40q27 25 69.5 39t80.5 14q13 0 25 -2v-125q-32 4 -63 4q-45 0 -98 -12v-368h-143zM112 -360v132q-31 10 -43 26.5t-12 46.5q0 70 68 70h7q68 0 68 -70v-25q0 -119 -21 -180h-67z" />
    <glyph glyph-name="Rcaron" unicode="&#x158;" horiz-adv-x="648" 
d="M286 774l-125 144l50 51l123 -98l123 98l50 -51l-125 -144h-96zM74 0v684h235q85 0 136 -12t84 -43q57 -54 57 -157q0 -71 -29.5 -123.5t-86.5 -79.5l148 -269h-176l-126 248h-86v-248h-156zM230 361h69q72 0 100 24q29 25 29 85q0 52 -24 76q-26 25 -104 25h-70v-210z
" />
    <glyph glyph-name="rcaron" unicode="&#x159;" horiz-adv-x="380" 
d="M173 574l-125 144l50 51l123 -98l123 98l50 -51l-125 -144h-96zM60 0v490h124l5 -40q27 25 69.5 39t80.5 14q13 0 25 -2v-125q-32 4 -63 4q-45 0 -98 -12v-368h-143z" />
    <glyph glyph-name="Sacute" unicode="&#x15a;" horiz-adv-x="590" 
d="M229 759l-50 62l183 170l70 -95zM276 -14q-126 0 -227 35l24 119q97 -34 189 -34q70 0 102.5 20t32.5 67q0 26 -19 43t-50 26.5t-68.5 18.5t-74.5 24t-68 36.5t-50 61t-19 94.5q0 100 70 150t185 50q109 0 191 -28l-24 -116q-90 24 -164 24q-111 0 -111 -73q0 -27 19 -45
t50 -28.5t68.5 -20t74.5 -24.5t68 -36.5t50 -61t19 -93.5q0 -90 -57 -144q-69 -65 -211 -65z" />
    <glyph glyph-name="sacute" unicode="&#x15b;" horiz-adv-x="475" 
d="M173 559l-50 62l183 170l70 -95zM219 -14q-97 0 -172 27l11 106q71 -23 158 -23q88 0 88 45q0 20 -20 31.5t-49.5 15t-64 12.5t-64 22t-49.5 44.5t-20 79.5q0 72 53.5 115t159.5 43q84 0 163 -27l-11 -105q-80 22 -151 22q-79 0 -79 -40q0 -19 20 -30t49.5 -15
t64.5 -13.5t64.5 -23t49.5 -45.5t20 -80q0 -77 -56 -119t-165 -42z" />
    <glyph glyph-name="Scircumflex" unicode="&#x15c;" horiz-adv-x="590" 
d="M183 762l-50 51l125 144h96l125 -144l-50 -51l-123 98zM276 -14q-126 0 -227 35l24 119q97 -34 189 -34q70 0 102.5 20t32.5 67q0 26 -19 43t-50 26.5t-68.5 18.5t-74.5 24t-68 36.5t-50 61t-19 94.5q0 100 70 150t185 50q109 0 191 -28l-24 -116q-90 24 -164 24
q-111 0 -111 -73q0 -27 19 -45t50 -28.5t68.5 -20t74.5 -24.5t68 -36.5t50 -61t19 -93.5q0 -90 -57 -144q-69 -65 -211 -65z" />
    <glyph glyph-name="scircumflex" unicode="&#x15d;" horiz-adv-x="475" 
d="M127 562l-50 51l125 144h96l125 -144l-50 -51l-123 98zM219 -14q-97 0 -172 27l11 106q71 -23 158 -23q88 0 88 45q0 20 -20 31.5t-49.5 15t-64 12.5t-64 22t-49.5 44.5t-20 79.5q0 72 53.5 115t159.5 43q84 0 163 -27l-11 -105q-80 22 -151 22q-79 0 -79 -40
q0 -19 20 -30t49.5 -15t64.5 -13.5t64.5 -23t49.5 -45.5t20 -80q0 -77 -56 -119t-165 -42z" />
    <glyph glyph-name="Scedilla" unicode="&#x15e;" horiz-adv-x="590" 
d="M299 -252q-50 0 -89 14v75q38 -10 69 -10q44 0 44 23q0 10 -10.5 18t-45.5 19q-29 9 -42 22.5t-13 37.5q0 18 10 41q-97 6 -173 33l24 119q97 -34 189 -34q70 0 102.5 20t32.5 67q0 26 -19 43t-50 26.5t-68.5 18.5t-74.5 24t-68 36.5t-50 61t-19 94.5q0 100 70 150
t185 50q109 0 191 -28l-24 -116q-90 24 -164 24q-111 0 -111 -73q0 -27 19 -45t50 -28.5t68.5 -20t74.5 -24.5t68 -36.5t50 -61t19 -93.5q0 -90 -57 -144q-62 -60 -188 -64v-8q0 -9 6.5 -14t30.5 -14q48 -18 65 -37t17 -54q0 -48 -27 -78q-29 -34 -92 -34z" />
    <glyph glyph-name="scedilla" unicode="&#x15f;" horiz-adv-x="475" 
d="M253 -252q-50 0 -89 14v75q38 -10 69 -10q44 0 44 23q0 10 -10.5 18t-45.5 19q-29 9 -42 22.5t-13 37.5q0 19 10 41q-79 7 -129 25l11 106q71 -23 158 -23q88 0 88 45q0 20 -20 31.5t-49.5 15t-64 12.5t-64 22t-49.5 44.5t-20 79.5q0 72 53.5 115t159.5 43q84 0 163 -27
l-11 -105q-80 22 -151 22q-79 0 -79 -40q0 -19 20 -30t49.5 -15t64.5 -13.5t64.5 -23t49.5 -45.5t20 -80q0 -71 -47 -112t-139 -48q-1 -3 -1 -8q0 -9 6.5 -14t30.5 -14q48 -18 65 -37t17 -54q0 -48 -27 -78q-29 -34 -92 -34z" />
    <glyph glyph-name="Scaron" unicode="&#x160;" horiz-adv-x="590" 
d="M258 774l-125 144l50 51l123 -98l123 98l50 -51l-125 -144h-96zM276 -14q-126 0 -227 35l24 119q97 -34 189 -34q70 0 102.5 20t32.5 67q0 26 -19 43t-50 26.5t-68.5 18.5t-74.5 24t-68 36.5t-50 61t-19 94.5q0 100 70 150t185 50q109 0 191 -28l-24 -116q-90 24 -164 24
q-111 0 -111 -73q0 -27 19 -45t50 -28.5t68.5 -20t74.5 -24.5t68 -36.5t50 -61t19 -93.5q0 -90 -57 -144q-69 -65 -211 -65z" />
    <glyph glyph-name="scaron" unicode="&#x161;" horiz-adv-x="475" 
d="M202 574l-125 144l50 51l123 -98l123 98l50 -51l-125 -144h-96zM219 -14q-97 0 -172 27l11 106q71 -23 158 -23q88 0 88 45q0 20 -20 31.5t-49.5 15t-64 12.5t-64 22t-49.5 44.5t-20 79.5q0 72 53.5 115t159.5 43q84 0 163 -27l-11 -105q-80 22 -151 22q-79 0 -79 -40
q0 -19 20 -30t49.5 -15t64.5 -13.5t64.5 -23t49.5 -45.5t20 -80q0 -77 -56 -119t-165 -42z" />
    <glyph glyph-name="uni0162" unicode="&#x162;" horiz-adv-x="608" 
d="M226 0v571h-212v113h587l-12 -113h-207v-571h-156zM287 -360v132q-31 10 -43 26.5t-12 46.5q0 70 68 70h7q68 0 68 -70v-25q0 -119 -21 -180h-67z" />
    <glyph glyph-name="uni0163" unicode="&#x163;" horiz-adv-x="401" 
d="M252 -14q-89 0 -125 39t-36 123v249h-83v78l83 15v109q69 21 143 21v-130h127v-93h-127v-229q0 -43 13.5 -59t55.5 -16q18 0 69 6l5 -101q-55 -12 -125 -12zM226 -360v132q-31 10 -43 26.5t-12 46.5q0 70 68 70h7q68 0 68 -70v-25q0 -119 -21 -180h-67z" />
    <glyph glyph-name="Tcaron" unicode="&#x164;" horiz-adv-x="608" 
d="M256 774l-125 144l50 51l123 -98l123 98l50 -51l-125 -144h-96zM226 0v571h-212v113h587l-12 -113h-207v-571h-156z" />
    <glyph glyph-name="tcaron" unicode="&#x165;" horiz-adv-x="401" 
d="M302 566v132q-31 10 -43 26.5t-12 46.5q0 70 68 70h7q68 0 68 -70v-25q0 -119 -21 -180h-67zM252 -14q-89 0 -125 39t-36 123v249h-83v78l83 15v109q69 21 143 21v-130h127v-93h-127v-229q0 -43 13.5 -59t55.5 -16q18 0 69 6l5 -101q-55 -12 -125 -12z" />
    <glyph glyph-name="Tbar" unicode="&#x166;" horiz-adv-x="608" 
d="M226 0v266h-125v98h125v207h-212v113h587l-12 -113h-207v-207h125v-98h-125v-266h-156z" />
    <glyph glyph-name="tbar" unicode="&#x167;" horiz-adv-x="405" 
d="M256 -14q-89 0 -125 39t-36 123v64h-73v72l73 5v108h-83v78l83 15v109q69 21 143 21v-130h127v-93h-127v-103h109v-82h-109v-44q0 -43 13.5 -59t55.5 -16q18 0 69 6l5 -101q-55 -12 -125 -12z" />
    <glyph glyph-name="Utilde" unicode="&#x168;" horiz-adv-x="694" 
d="M242 792l-71 11q0 65 28 101t78 36q32 0 80.5 -21t66.5 -21q33 0 42 46l71 -11q0 -65 -28 -101t-78 -36q-32 0 -80 21t-67 21q-33 0 -42 -46zM349 -14q-148 0 -215 66q-66 65 -66 199v433h155v-433q0 -80 33 -113q32 -33 100 -33t99 32q33 33 33 113v434h138v-426
q0 -141 -67 -204q-71 -68 -210 -68z" />
    <glyph glyph-name="utilde" unicode="&#x169;" horiz-adv-x="569" 
d="M179 592l-71 11q0 65 28 101t78 36q32 0 80.5 -21t66.5 -21q33 0 42 46l71 -11q0 -65 -28 -101t-78 -36q-32 0 -80 21t-67 21q-33 0 -42 -46zM217 -13q-80 0 -118 38q-42 41 -42 129v336h143v-316q0 -37 15 -52q17 -16 62 -16q47 0 89 14v370h143v-490h-124l-4 33
q-74 -46 -164 -46z" />
    <glyph glyph-name="Umacron" unicode="&#x16a;" horiz-adv-x="694" 
d="M206 805v98h295v-98h-295zM349 -14q-148 0 -215 66q-66 65 -66 199v433h155v-433q0 -80 33 -113q32 -33 100 -33t99 32q33 33 33 113v434h138v-426q0 -141 -67 -204q-71 -68 -210 -68z" />
    <glyph glyph-name="umacron" unicode="&#x16b;" horiz-adv-x="569" 
d="M143 605v98h295v-98h-295zM217 -13q-80 0 -118 38q-42 41 -42 129v336h143v-316q0 -37 15 -52q17 -16 62 -16q47 0 89 14v370h143v-490h-124l-4 33q-74 -46 -164 -46z" />
    <glyph glyph-name="Ubreve" unicode="&#x16c;" horiz-adv-x="694" 
d="M354 775q-85 0 -123 44.5t-38 115.5l87 3q9 -76 74 -76t74 76l86 -3q0 -71 -37.5 -115.5t-122.5 -44.5zM349 -14q-148 0 -215 66q-66 65 -66 199v433h155v-433q0 -80 33 -113q32 -33 100 -33t99 32q33 33 33 113v434h138v-426q0 -141 -67 -204q-71 -68 -210 -68z" />
    <glyph glyph-name="ubreve" unicode="&#x16d;" horiz-adv-x="569" 
d="M291 575q-85 0 -123 44.5t-38 115.5l87 3q9 -76 74 -76t74 76l86 -3q0 -71 -37.5 -115.5t-122.5 -44.5zM217 -13q-80 0 -118 38q-42 41 -42 129v336h143v-316q0 -37 15 -52q17 -16 62 -16q47 0 89 14v370h143v-490h-124l-4 33q-74 -46 -164 -46z" />
    <glyph glyph-name="Uring" unicode="&#x16e;" horiz-adv-x="694" 
d="M351 769q-121 0 -121 111v14q0 111 121 111h7q120 0 120 -111v-14q0 -111 -120 -111h-7zM353 832h3q27 0 39 12t12 40v4q0 29 -12 40t-39 11h-3q-28 0 -40.5 -11t-12.5 -40v-4q0 -28 12.5 -40t40.5 -12zM349 -14q-148 0 -215 66q-66 65 -66 199v433h155v-433
q0 -80 33 -113q32 -33 100 -33t99 32q33 33 33 113v434h138v-426q0 -141 -67 -204q-71 -68 -210 -68z" />
    <glyph glyph-name="uring" unicode="&#x16f;" horiz-adv-x="569" 
d="M288 569q-121 0 -121 111v14q0 111 121 111h7q120 0 120 -111v-14q0 -111 -120 -111h-7zM290 632h3q27 0 39 12t12 40v4q0 29 -12 40t-39 11h-3q-28 0 -40.5 -11t-12.5 -40v-4q0 -28 12.5 -40t40.5 -12zM217 -13q-80 0 -118 38q-42 41 -42 129v336h143v-316q0 -37 15 -52
q17 -16 62 -16q47 0 89 14v370h143v-490h-124l-4 33q-74 -46 -164 -46z" />
    <glyph glyph-name="Uhungarumlaut" unicode="&#x170;" horiz-adv-x="694" 
d="M216 768l-55 42l141 202l76 -76zM403 768l-55 42l141 202l76 -76zM349 -14q-148 0 -215 66q-66 65 -66 199v433h155v-433q0 -80 33 -113q32 -33 100 -33t99 32q33 33 33 113v434h138v-426q0 -141 -67 -204q-71 -68 -210 -68z" />
    <glyph glyph-name="uhungarumlaut" unicode="&#x171;" horiz-adv-x="569" 
d="M161 568l-55 42l141 202l76 -76zM348 568l-55 42l141 202l76 -76zM217 -13q-80 0 -118 38q-42 41 -42 129v336h143v-316q0 -37 15 -52q17 -16 62 -16q47 0 89 14v370h143v-490h-124l-4 33q-74 -46 -164 -46z" />
    <glyph glyph-name="Uogonek" unicode="&#x172;" horiz-adv-x="694" 
d="M374 -249q-56 0 -90.5 30.5t-34.5 86.5q0 61 62 120q-121 8 -177 64q-66 65 -66 199v433h155v-433q0 -80 33 -113q32 -33 100 -33t99 32q33 33 33 113v434h138v-426q0 -141 -67 -204q-55 -52 -152 -64q-58 -64 -58 -112q0 -45 61 -45q27 0 56 9v-77q-47 -14 -92 -14z" />
    <glyph glyph-name="uogonek" unicode="&#x173;" horiz-adv-x="569" 
d="M437 -249q-56 0 -90.5 30.5t-34.5 86.5q0 73 82 136l-13 29q-75 -47 -164 -47q-80 0 -118 38q-42 41 -42 129v337h143v-317q0 -37 15 -52q17 -16 62 -16q47 0 89 14v371h143v-490h-15q-16 0 -27 -11q-55 -54 -55 -107q0 -25 14 -37t47 -12q27 0 56 9v-77q-47 -14 -92 -14
z" />
    <glyph glyph-name="Wcircumflex" unicode="&#x174;" horiz-adv-x="963" 
d="M370 762l-50 51l125 144h96l125 -144l-50 -51l-123 98zM212 0l-200 684h165l127 -494l123 494h127l134 -493l122 493h141l-185 -684h-170l-112 399l-103 -399h-169z" />
    <glyph glyph-name="wcircumflex" unicode="&#x175;" horiz-adv-x="791" 
d="M287 562l-50 51l125 144h96l125 -144l-50 -51l-123 98zM154 0l-144 490h151l87 -349l87 349h129l94 -349l82 349h141l-141 -490h-166l-78 260l-77 -260h-165z" />
    <glyph glyph-name="Ycircumflex" unicode="&#x176;" horiz-adv-x="662" 
d="M213 762l-50 51l125 144h96l125 -144l-50 -51l-123 98zM248 0v279l-236 405h176l150 -276l156 276h156l-246 -406v-278h-156z" />
    <glyph glyph-name="ycircumflex" unicode="&#x177;" horiz-adv-x="571" 
d="M163 562l-50 51l125 144h96l125 -144l-50 -51l-123 98zM284 -239q-65 0 -125 13l-10 106q61 -11 112 -11q60 0 83 23q24 23 24 79v60q-71 -40 -154 -40q-76 0 -114 38q-43 43 -43 124v337h143v-317q0 -34 15 -49q17 -16 61 -16q46 0 92 18v364h143v-469
q0 -136 -49.5 -198t-177.5 -62z" />
    <glyph glyph-name="Ydieresis" unicode="&#x178;" horiz-adv-x="662" 
d="M228 790q-67 0 -67 64v11q0 34 16.5 49t50.5 15h6q68 0 68 -64v-11q0 -64 -68 -64h-6zM437 790q-68 0 -68 64v11q0 64 68 64h6q34 0 50.5 -15t16.5 -49v-11q0 -64 -67 -64h-6zM248 0v279l-236 405h176l150 -276l156 276h156l-246 -406v-278h-156z" />
    <glyph glyph-name="Zacute" unicode="&#x179;" horiz-adv-x="596" 
d="M241 759l-50 62l183 170l70 -95zM34 0v92l332 477h-322v115h514v-96l-327 -473h329v-115h-526z" />
    <glyph glyph-name="zacute" unicode="&#x17a;" horiz-adv-x="442" 
d="M152 559l-50 62l183 170l70 -95zM18 0v81l228 318h-222v91h390v-83l-227 -316h239v-91h-408z" />
    <glyph glyph-name="Zdotaccent" unicode="&#x17b;" horiz-adv-x="596" 
d="M315 788q-37 0 -54.5 16t-17.5 52v11q0 37 17.5 52.5t54.5 15.5h6q36 0 54 -16t18 -52v-11q0 -68 -72 -68h-6zM34 0v92l332 477h-322v115h514v-96l-327 -473h329v-115h-526z" />
    <glyph glyph-name="zdotaccent" unicode="&#x17c;" horiz-adv-x="442" 
d="M226 588q-37 0 -54.5 16t-17.5 52v11q0 37 17.5 52.5t54.5 15.5h6q36 0 54 -16t18 -52v-11q0 -68 -72 -68h-6zM18 0v81l228 318h-222v91h390v-83l-227 -316h239v-91h-408z" />
    <glyph glyph-name="Zcaron" unicode="&#x17d;" horiz-adv-x="596" 
d="M270 774l-125 144l50 51l123 -98l123 98l50 -51l-125 -144h-96zM34 0v92l332 477h-322v115h514v-96l-327 -473h329v-115h-526z" />
    <glyph glyph-name="zcaron" unicode="&#x17e;" horiz-adv-x="442" 
d="M181 574l-125 144l50 51l123 -98l123 98l50 -51l-125 -144h-96zM18 0v81l228 318h-222v91h390v-83l-227 -316h239v-91h-408z" />
    <glyph glyph-name="longs" unicode="&#x17f;" horiz-adv-x="359" 
d="M98 0v397h-84v77l84 15v68q0 88 41 130q43 45 146 45q51 0 104 -11v-102q-40 6 -67 6q-49 0 -67 -18q-14 -14 -14 -58v-549h-143z" />
    <glyph glyph-name="florin" unicode="&#x192;" 
d="M134 -256q-51 0 -104 11v102q40 -6 67 -6q48 0 70 18.5t25 60.5l28 347h-105v76l111 4l19 210q8 89 56 132.5t145 43.5q51 0 104 -11v-102q-40 6 -67 6q-47 0 -69 -18.5t-26 -60.5l-18 -199h121v-81h-127l-28 -355q-7 -89 -56 -133.5t-146 -44.5z" />
    <glyph glyph-name="uni01CD" unicode="&#x1cd;" horiz-adv-x="658" 
d="M274 774l-125 144l50 51l123 -98l123 98l50 -51l-125 -144h-96zM5 0l229 684h172l247 -684h-167l-57 172h-222l-53 -172h-149zM243 285h148l-75 228h-2z" />
    <glyph glyph-name="uni01CE" unicode="&#x1ce;" horiz-adv-x="531" 
d="M226 574l-125 144l50 51l123 -98l123 98l50 -51l-125 -144h-96zM202 -14q-82 0 -127 44t-45 117q0 70 43 111q48 45 180 45h78v16q0 39 -18 55q-23 20 -83 20q-74 0 -137 -13l-7 105q90 18 174 18q128 0 176 -56q38 -44 38 -130v-318h-113l-12 30q-68 -44 -147 -44z
M243 95q39 0 88 15v101h-76q-51 0 -68 -17q-14 -14 -14 -41q0 -58 70 -58z" />
    <glyph glyph-name="Aringacute" unicode="&#x1fa;" horiz-adv-x="658" 
d="M245 1011l-50 62l183 170l70 -95zM319 742q-121 0 -121 111v14q0 111 121 111h7q120 0 120 -111v-14q0 -111 -120 -111h-7zM321 805h3q27 0 39 12t12 40v4q0 29 -12 40t-39 11h-3q-28 0 -40.5 -11t-12.5 -40v-4q0 -28 12.5 -40t40.5 -12zM5 0l229 684h172l247 -684h-167
l-57 172h-222l-53 -172h-149zM243 285h148l-75 228h-2z" />
    <glyph glyph-name="aringacute" unicode="&#x1fb;" horiz-adv-x="531" 
d="M197 812l-50 62l183 170l70 -95zM271 549q-121 0 -121 111v14q0 111 121 111h7q120 0 120 -111v-14q0 -111 -120 -111h-7zM273 612h3q27 0 39 12t12 40v4q0 29 -12 40t-39 11h-3q-28 0 -40.5 -11t-12.5 -40v-4q0 -28 12.5 -40t40.5 -12zM202 -14q-82 0 -127 44t-45 117
q0 70 43 111q48 45 180 45h78v16q0 39 -18 55q-23 20 -83 20q-74 0 -137 -13l-7 105q90 18 174 18q128 0 176 -56q38 -44 38 -130v-318h-113l-12 30q-68 -44 -147 -44zM243 95q39 0 88 15v101h-76q-51 0 -68 -17q-14 -14 -14 -41q0 -58 70 -58z" />
    <glyph glyph-name="AEacute" unicode="&#x1fc;" horiz-adv-x="1003" 
d="M626 759l-50 62l183 170l70 -95zM2 0l422 684h532l-12 -112h-294v-166h235v-119h-235v-175h311v-112h-467v187h-222l-110 -187h-160zM340 298h154v263z" />
    <glyph glyph-name="aeacute" unicode="&#x1fd;" horiz-adv-x="817" 
d="M388 559l-50 62l183 170l70 -95zM202 -14q-82 0 -127 44t-45 117q0 70 43 111q48 45 180 45h78v18q-1 36 -18 53q-23 20 -83 20q-74 0 -137 -13l-7 105q90 18 174 18q105 0 158 -39q57 39 144 39q225 0 225 -247v-45q0 -11 -12 -11h-301q3 -60 39 -83t112 -23
q59 0 122 12l11 -104q-89 -17 -165 -17q-135 0 -201 60q-33 -25 -88 -42.5t-102 -17.5zM474 294h173q0 48 -22 75t-64 27q-82 0 -87 -102zM243 95q46 0 103 19q-12 33 -15 97h-76q-51 0 -68 -17q-14 -14 -14 -41q0 -58 70 -58z" />
    <glyph glyph-name="Oslashacute" unicode="&#x1fe;" horiz-adv-x="698" 
d="M272 759l-50 62l183 170l70 -95zM155 -74l34 94q-144 75 -144 321q0 356 304 356q42 0 82 -8l25 68h87l-34 -94q144 -76 144 -322q0 -355 -304 -355q-43 0 -83 8l-24 -68h-87zM240 162l148 409q-16 4 -39 4q-76 0 -109 -55t-33 -179q0 -126 33 -179zM349 108
q76 0 109 54.5t33 178.5q0 126 -34 180l-148 -409q16 -4 40 -4z" />
    <glyph glyph-name="oslashacute" unicode="&#x1ff;" horiz-adv-x="568" 
d="M207 559l-50 62l183 170l70 -95zM121 -84l35 96q-121 58 -121 233q0 122 62.5 190.5t186.5 68.5q31 0 52 -4l27 74h84l-35 -96q121 -59 121 -233q0 -122 -62.5 -190.5t-186.5 -68.5q-31 0 -52 4l-27 -74h-84zM203 139l94 255q-4 1 -13 1q-53 0 -76.5 -36.5t-23.5 -113.5
q0 -69 19 -106zM271 95h13q53 0 76.5 36.5t23.5 113.5q0 69 -19 106z" />
    <glyph glyph-name="Scommaaccent" unicode="&#x218;" horiz-adv-x="590" 
d="M276 -14q-126 0 -227 35l24 119q97 -34 189 -34q70 0 102.5 20t32.5 67q0 26 -19 43t-50 26.5t-68.5 18.5t-74.5 24t-68 36.5t-50 61t-19 94.5q0 100 70 150t185 50q109 0 191 -28l-24 -116q-90 24 -164 24q-111 0 -111 -73q0 -27 19 -45t50 -28.5t68.5 -20t74.5 -24.5
t68 -36.5t50 -61t19 -93.5q0 -90 -57 -144q-69 -65 -211 -65zM278 -360v132q-31 10 -43 26.5t-12 46.5q0 70 68 70h7q68 0 68 -70v-25q0 -119 -21 -180h-67z" />
    <glyph glyph-name="scommaaccent" unicode="&#x219;" horiz-adv-x="475" 
d="M219 -14q-97 0 -172 27l11 106q71 -23 158 -23q88 0 88 45q0 20 -20 31.5t-49.5 15t-64 12.5t-64 22t-49.5 44.5t-20 79.5q0 72 53.5 115t159.5 43q84 0 163 -27l-11 -105q-80 22 -151 22q-79 0 -79 -40q0 -19 20 -30t49.5 -15t64.5 -13.5t64.5 -23t49.5 -45.5t20 -80
q0 -77 -56 -119t-165 -42zM221 -360v132q-31 10 -43 26.5t-12 46.5q0 70 68 70h7q68 0 68 -70v-25q0 -119 -21 -180h-67z" />
    <glyph glyph-name="uni021A" unicode="&#x21a;" horiz-adv-x="608" 
d="M226 0v571h-212v113h587l-12 -113h-207v-571h-156zM287 -360v132q-31 10 -43 26.5t-12 46.5q0 70 68 70h7q68 0 68 -70v-25q0 -119 -21 -180h-67z" />
    <glyph glyph-name="uni021B" unicode="&#x21b;" horiz-adv-x="401" 
d="M252 -14q-89 0 -125 39t-36 123v249h-83v78l83 15v109q69 21 143 21v-130h127v-93h-127v-229q0 -43 13.5 -59t55.5 -16q18 0 69 6l5 -101q-55 -12 -125 -12zM226 -360v132q-31 10 -43 26.5t-12 46.5q0 70 68 70h7q68 0 68 -70v-25q0 -119 -21 -180h-67z" />
    <glyph glyph-name="uni0237" unicode="&#x237;" horiz-adv-x="269" 
d="M-21 -237q-20 0 -54 2l-14 107q26 -2 46 -2q60 0 83 23q23 22 23 79v518h143v-467q0 -136 -49.5 -198t-177.5 -62z" />
    <glyph glyph-name="circumflex" unicode="&#x2c6;" horiz-adv-x="428" 
d="M91 562l-50 51l125 144h96l125 -144l-50 -51l-123 98z" />
    <glyph glyph-name="caron" unicode="&#x2c7;" horiz-adv-x="428" 
d="M166 574l-125 144l50 51l123 -98l123 98l50 -51l-125 -144h-96z" />
    <glyph glyph-name="breve" unicode="&#x2d8;" horiz-adv-x="428" 
d="M214 575q-85 0 -123 44.5t-38 115.5l87 3q9 -76 74 -76t74 76l86 -3q0 -71 -37.5 -115.5t-122.5 -44.5z" />
    <glyph glyph-name="dotaccent" unicode="&#x2d9;" horiz-adv-x="428" 
d="M211 588q-37 0 -54.5 16t-17.5 52v11q0 37 17.5 52.5t54.5 15.5h6q36 0 54 -16t18 -52v-11q0 -68 -72 -68h-6z" />
    <glyph glyph-name="ring" unicode="&#x2da;" horiz-adv-x="428" 
d="M211 569q-121 0 -121 111v14q0 111 121 111h7q120 0 120 -111v-14q0 -111 -120 -111h-7zM213 632h3q27 0 39 12t12 40v4q0 29 -12 40t-39 11h-3q-28 0 -40.5 -11t-12.5 -40v-4q0 -28 12.5 -40t40.5 -12z" />
    <glyph glyph-name="ogonek" unicode="&#x2db;" horiz-adv-x="428" 
d="M230 -249q-56 0 -90.5 30.5t-34.5 86.5q0 79 96 147h86q-82 -83 -82 -137q0 -45 61 -45q27 0 56 9v-77q-47 -14 -92 -14z" />
    <glyph glyph-name="tilde" unicode="&#x2dc;" horiz-adv-x="428" 
d="M102 592l-71 11q0 65 28 101t78 36q32 0 80.5 -21t66.5 -21q33 0 42 46l71 -11q0 -65 -28 -101t-78 -36q-32 0 -80 21t-67 21q-33 0 -42 -46z" />
    <glyph glyph-name="hungarumlaut" unicode="&#x2dd;" horiz-adv-x="428" 
d="M67 568l-55 42l141 202l76 -76zM254 568l-55 42l141 202l76 -76z" />
    <glyph glyph-name="gravecomb" unicode="&#x300;" horiz-adv-x="0" 
d="M-138 559l-203 137l70 95l183 -170z" />
    <glyph glyph-name="acutecomb" unicode="&#x301;" horiz-adv-x="0" 
d="M-291 559l-50 62l183 170l70 -95z" />
    <glyph glyph-name="uni0302" unicode="&#x302;" horiz-adv-x="0" 
d="M-337 562l-50 51l125 144h96l125 -144l-50 -51l-123 98z" />
    <glyph glyph-name="tildecomb" unicode="&#x303;" horiz-adv-x="0" 
d="M-326 592l-71 11q0 65 28 101t78 36q32 0 80.5 -21t66.5 -21q33 0 42 46l71 -11q0 -65 -28 -101t-78 -36q-32 0 -80 21t-67 21q-33 0 -42 -46z" />
    <glyph glyph-name="uni0304" unicode="&#x304;" horiz-adv-x="0" 
d="M-362 605v98h295v-98h-295z" />
    <glyph glyph-name="uni0306" unicode="&#x306;" horiz-adv-x="0" 
d="M-214 575q-85 0 -123 44.5t-38 115.5l87 3q9 -76 74 -76t74 76l86 -3q0 -71 -37.5 -115.5t-122.5 -44.5z" />
    <glyph glyph-name="uni0307" unicode="&#x307;" horiz-adv-x="0" 
d="M-217 588q-37 0 -54.5 16t-17.5 52v11q0 37 17.5 52.5t54.5 15.5h6q36 0 54 -16t18 -52v-11q0 -68 -72 -68h-6z" />
    <glyph glyph-name="uni0308" unicode="&#x308;" horiz-adv-x="0" 
d="M-322 590q-67 0 -67 64v11q0 34 16.5 49t50.5 15h6q68 0 68 -64v-11q0 -64 -68 -64h-6zM-113 590q-68 0 -68 64v11q0 64 68 64h6q34 0 50.5 -15t16.5 -49v-11q0 -64 -67 -64h-6z" />
    <glyph glyph-name="uni030A" unicode="&#x30a;" horiz-adv-x="0" 
d="M-217 569q-121 0 -121 111v14q0 111 121 111h7q120 0 120 -111v-14q0 -111 -120 -111h-7zM-215 632h3q27 0 39 12t12 40v4q0 29 -12 40t-39 11h-3q-28 0 -40.5 -11t-12.5 -40v-4q0 -28 12.5 -40t40.5 -12z" />
    <glyph glyph-name="uni030B" unicode="&#x30b;" horiz-adv-x="0" 
d="M-361 568l-55 42l141 202l76 -76zM-174 568l-55 42l141 202l76 -76z" />
    <glyph glyph-name="uni030C" unicode="&#x30c;" horiz-adv-x="0" 
d="M-262 574l-125 144l50 51l123 -98l123 98l50 -51l-125 -144h-96z" />
    <glyph glyph-name="uni0326" unicode="&#x326;" horiz-adv-x="0" 
d="M-231 -360v132q-31 10 -43 26.5t-12 46.5q0 70 68 70h7q68 0 68 -70v-25q0 -119 -21 -180h-67z" />
    <glyph glyph-name="uni0327" unicode="&#x327;" horiz-adv-x="0" 
d="M-229 -252q-50 0 -89 14v75q38 -10 69 -10q44 0 44 23q0 10 -10.5 18t-45.5 19q-29 9 -42 22.5t-13 37.5q0 32 21 58h71q-5 -17 -5 -26t6.5 -14t30.5 -14q48 -18 65 -37t17 -54q0 -48 -27 -78q-29 -34 -92 -34z" />
    <glyph glyph-name="uni0328" unicode="&#x328;" horiz-adv-x="0" 
d="M-198 -249q-56 0 -90.5 30.5t-34.5 86.5q0 79 96 147h86q-82 -83 -82 -137q0 -45 61 -45q27 0 56 9v-77q-47 -14 -92 -14z" />
    <glyph glyph-name="uni0394" unicode="&#x394;" horiz-adv-x="673" 
d="M44 0v76q0 23 9 48l198 560h163l204 -557q11 -33 11 -58v-69h-585zM184 99h288l-145 427z" />
    <glyph glyph-name="uni03A9" unicode="&#x3a9;" horiz-adv-x="728" 
d="M70 0v99h115q-129 95 -129 284q0 143 80.5 228.5t227.5 85.5t227.5 -85.5t80.5 -228.5q0 -189 -129 -284h115v-99h-261v65q0 25 26 56q94 113 94 253q0 203 -153 203t-153 -203q0 -140 94 -253q26 -31 26 -56v-65h-261z" />
    <glyph glyph-name="uni03BC" unicode="&#x3bc;" horiz-adv-x="572" 
d="M60 -225v715h143v-316q0 -37 15 -52q17 -16 62 -16q47 0 89 14v370h143v-490h-124l-4 33q-74 -46 -164 -46q-11 0 -21 1v-213h-139z" />
    <glyph glyph-name="pi" unicode="&#x3c0;" horiz-adv-x="646" 
d="M95 0v394h-79v96h614v-96h-79v-394h-143v394h-170v-394h-143z" />
    <glyph glyph-name="Wgrave" unicode="&#x1e80;" horiz-adv-x="963" 
d="M569 759l-203 137l70 95l183 -170zM212 0l-200 684h165l127 -494l123 494h127l134 -493l122 493h141l-185 -684h-170l-112 399l-103 -399h-169z" />
    <glyph glyph-name="wgrave" unicode="&#x1e81;" horiz-adv-x="791" 
d="M486 559l-203 137l70 95l183 -170zM154 0l-144 490h151l87 -349l87 349h129l94 -349l82 349h141l-141 -490h-166l-78 260l-77 -260h-165z" />
    <glyph glyph-name="Wacute" unicode="&#x1e82;" horiz-adv-x="963" 
d="M416 759l-50 62l183 170l70 -95zM212 0l-200 684h165l127 -494l123 494h127l134 -493l122 493h141l-185 -684h-170l-112 399l-103 -399h-169z" />
    <glyph glyph-name="wacute" unicode="&#x1e83;" horiz-adv-x="791" 
d="M333 559l-50 62l183 170l70 -95zM154 0l-144 490h151l87 -349l87 349h129l94 -349l82 349h141l-141 -490h-166l-78 260l-77 -260h-165z" />
    <glyph glyph-name="Wdieresis" unicode="&#x1e84;" horiz-adv-x="963" 
d="M385 790q-67 0 -67 64v11q0 34 16.5 49t50.5 15h6q68 0 68 -64v-11q0 -64 -68 -64h-6zM594 790q-68 0 -68 64v11q0 64 68 64h6q34 0 50.5 -15t16.5 -49v-11q0 -64 -67 -64h-6zM212 0l-200 684h165l127 -494l123 494h127l134 -493l122 493h141l-185 -684h-170l-112 399
l-103 -399h-169z" />
    <glyph glyph-name="wdieresis" unicode="&#x1e85;" horiz-adv-x="791" 
d="M302 590q-67 0 -67 64v11q0 34 16.5 49t50.5 15h6q68 0 68 -64v-11q0 -64 -68 -64h-6zM511 590q-68 0 -68 64v11q0 64 68 64h6q34 0 50.5 -15t16.5 -49v-11q0 -64 -67 -64h-6zM154 0l-144 490h151l87 -349l87 349h129l94 -349l82 349h141l-141 -490h-166l-78 260
l-77 -260h-165z" />
    <glyph glyph-name="Ygrave" unicode="&#x1ef2;" horiz-adv-x="662" 
d="M412 759l-203 137l70 95l183 -170zM248 0v279l-236 405h176l150 -276l156 276h156l-246 -406v-278h-156z" />
    <glyph glyph-name="ygrave" unicode="&#x1ef3;" horiz-adv-x="571" 
d="M332 559l-203 137l70 95l183 -170zM284 -239q-65 0 -125 13l-10 106q61 -11 112 -11q60 0 83 23q24 23 24 79v60q-71 -40 -154 -40q-76 0 -114 38q-43 43 -43 124v337h143v-317q0 -34 15 -49q17 -16 61 -16q46 0 92 18v364h143v-469q0 -136 -49.5 -198t-177.5 -62z" />
    <glyph glyph-name="endash" unicode="&#x2013;" horiz-adv-x="500" 
d="M0 200v119h500v-119h-500z" />
    <glyph glyph-name="emdash" unicode="&#x2014;" horiz-adv-x="1000" 
d="M0 200v119h1000v-119h-1000z" />
    <glyph glyph-name="quoteleft" unicode="&#x2018;" horiz-adv-x="231" 
d="M117 402q-73 0 -73 75v27q0 50 7 108.5t15 84.5h72v-142q33 -11 46 -28.5t13 -49.5q0 -75 -73 -75h-7z" />
    <glyph glyph-name="quoteright" unicode="&#x2019;" horiz-adv-x="231" 
d="M93 402v142q-33 11 -46 28.5t-13 48.5v1q0 75 73 75h7q74 0 74 -75v-27q0 -124 -16 -169q-8 -24 -39 -24h-40z" />
    <glyph glyph-name="quotesinglbase" unicode="&#x201a;" horiz-adv-x="231" 
d="M93 -159v142q-33 11 -46 28.5t-13 49.5q0 75 73 75h7q73 0 73 -75v-27q0 -50 -7 -108.5t-15 -84.5h-72z" />
    <glyph glyph-name="quotedblleft" unicode="&#x201c;" horiz-adv-x="435" 
d="M117 402q-73 0 -73 75v27q0 50 7 108.5t15 84.5h72v-142q33 -11 46 -28.5t13 -49.5q0 -75 -73 -75h-7zM321 402q-73 0 -73 75v27q0 50 7 108.5t15 84.5h72v-142q33 -11 46 -28.5t13 -49.5q0 -75 -73 -75h-7z" />
    <glyph glyph-name="quotedblright" unicode="&#x201d;" horiz-adv-x="435" 
d="M93 402v142q-33 11 -46 28.5t-13 49.5q0 75 73 75h7q73 0 73 -75v-27q0 -50 -7 -108.5t-15 -84.5h-72zM297 402v142q-33 11 -46 28.5t-13 49.5q0 75 73 75h7q73 0 73 -75v-27q0 -50 -7 -108.5t-15 -84.5h-72z" />
    <glyph glyph-name="quotedblbase" unicode="&#x201e;" horiz-adv-x="435" 
d="M93 -159v142q-33 11 -46 28.5t-13 49.5q0 75 73 75h7q73 0 73 -75v-27q0 -50 -7 -108.5t-15 -84.5h-72zM297 -159v142q-33 11 -46 28.5t-13 49.5q0 75 73 75h7q73 0 73 -75v-27q0 -50 -7 -108.5t-15 -84.5h-72z" />
    <glyph glyph-name="dagger" unicode="&#x2020;" horiz-adv-x="561" 
d="M214 -237l15 588l-187 -9v130l188 -15l-19 227h140l-19 -227l187 9v-130l-188 15l15 -588h-132z" />
    <glyph glyph-name="daggerdbl" unicode="&#x2021;" horiz-adv-x="562" 
d="M210 -237l19 225l-187 -8v129l188 -15v257l-187 -8v129l188 -15l-18 227h139l-19 -227l187 8v-129l-188 15v-257l187 8v-129l-188 15l17 -225h-138z" />
    <glyph glyph-name="bullet" unicode="&#x2022;" horiz-adv-x="377" 
d="M182 199q-71 0 -105.5 30.5t-34.5 99.5v25q0 69 34.5 99.5t105.5 30.5h13q71 0 105.5 -30.5t34.5 -99.5v-25q0 -69 -34.5 -99.5t-105.5 -30.5h-13z" />
    <glyph glyph-name="ellipsis" unicode="&#x2026;" horiz-adv-x="715" 
d="M115 -14q-73 0 -73 69v12q0 69 73 69h8q37 0 54.5 -16t17.5 -53v-12q0 -37 -17.5 -53t-54.5 -16h-8zM354 -14q-73 0 -73 69v12q0 69 73 69h7q73 0 73 -69v-12q0 -69 -73 -69h-7zM592 -14q-37 0 -54.5 16t-17.5 53v12q0 37 17.5 53t54.5 16h8q73 0 73 -69v-12
q0 -69 -73 -69h-8z" />
    <glyph glyph-name="perthousand" unicode="&#x2030;" horiz-adv-x="1403" 
d="M229 280q-89 0 -134 53.5t-45 155.5q0 101 45 154.5t134 53.5t134.5 -53.5t45.5 -154.5t-45.5 -155t-134.5 -54zM256 -14l365 711h123l-365 -711h-123zM229 375q35 0 49 28t14 86q0 57 -14 85t-49 28t-48.5 -27.5t-13.5 -85.5t13.5 -86t48.5 -28zM771 -14
q-89 0 -134 53.5t-45 154.5q0 102 45 155.5t134 53.5q88 0 133.5 -54t45.5 -155t-45.5 -154.5t-133.5 -53.5zM1173 -14q-89 0 -134 53.5t-45 154.5q0 102 45 155.5t134 53.5t134.5 -53.5t45.5 -155.5q0 -101 -45.5 -154.5t-134.5 -53.5zM771 81q35 0 49 28t14 85
q0 58 -14 86t-49 28q-36 0 -49.5 -28t-13.5 -86t13.5 -85.5t49.5 -27.5zM1173 81q35 0 49 28t14 85q0 58 -14 86t-49 28t-48.5 -28t-13.5 -86t13.5 -85.5t48.5 -27.5z" />
    <glyph glyph-name="guilsinglleft" unicode="&#x2039;" horiz-adv-x="342" 
d="M229 33l-148 161q-36 39 -36 67t36 67l148 161l59 -56l-117 -172l117 -172z" />
    <glyph glyph-name="guilsinglright" unicode="&#x203a;" horiz-adv-x="342" 
d="M113 33l-59 56l117 172l-117 172l59 56l148 -161q36 -39 36 -67t-36 -67z" />
    <glyph glyph-name="fraction" unicode="&#x2044;" horiz-adv-x="480" 
d="M-4 -14l365 711h123l-365 -711h-123z" />
    <glyph glyph-name="Euro" unicode="&#x20ac;" 
d="M398 -14q-133 0 -206.5 59t-97.5 175h-85v70l75 10q-1 12 -1 50h-74v71l80 10q44 266 297 266q84 0 160 -23v-112q-73 15 -132 15q-79 0 -116.5 -34.5t-48.5 -111.5h151v-81h-158q0 -36 1 -50h157v-80h-143q27 -114 164 -114q64 0 143 17v-114q-79 -23 -166 -23z" />
    <glyph glyph-name="uni2113" unicode="&#x2113;" horiz-adv-x="269" 
d="M63 0v715h143v-715h-143z" />
    <glyph glyph-name="uni2116" unicode="&#x2116;" horiz-adv-x="1156" 
d="M74 0v684h115l324 -438v438h137v-684h-125l-314 415v-415h-137zM917 229q-94 0 -146.5 51t-52.5 139t52.5 139t146.5 51t146.5 -51t52.5 -139t-52.5 -139t-146.5 -51zM917 329q34 0 55 22.5t21 67.5t-21 67.5t-55 22.5t-55 -22.5t-21 -67.5t21 -67.5t55 -22.5z" />
    <glyph glyph-name="trademark" unicode="&#x2122;" horiz-adv-x="746" 
d="M110 352v260h-98v72h298v-72h-100v-260h-100zM351 352v332h88l86 -187l88 187h85v-332h-90v155l-54 -110h-60l-57 112v-157h-86z" />
    <glyph glyph-name="uni2126" unicode="&#x2126;" horiz-adv-x="728" 
d="M70 0v99h115q-129 95 -129 284q0 143 80.5 228.5t227.5 85.5t227.5 -85.5t80.5 -228.5q0 -189 -129 -284h115v-99h-261v65q0 25 26 56q94 113 94 253q0 203 -153 203t-153 -203q0 -140 94 -253q26 -31 26 -56v-65h-261z" />
    <glyph glyph-name="estimated" unicode="&#x212e;" horiz-adv-x="874" 
d="M438 -14q-165 0 -281.5 104t-116.5 251q0 148 116.5 252t281.5 104q163 0 279.5 -104t116.5 -252v-8h-642q-7 0 -7 -6v-194q0 -10 11 -23q99 -102 243 -102q76 0 142 31t112 85h59q-57 -64 -139 -101t-175 -37zM192 352h490q7 0 7 6v196q0 12 -12 24q-98 98 -238 98
q-144 0 -243 -101q-11 -13 -11 -26v-191q0 -6 7 -6z" />
    <glyph glyph-name="partialdiff" unicode="&#x2202;" 
d="M289 -14q-119 0 -180.5 61t-61.5 178q0 104 50.5 158.5t142.5 54.5q82 0 148 -35q-3 106 -43 146q-36 36 -133 36q-58 0 -109 -10v109q66 13 143 13q133 0 199 -66q93 -93 93 -321q0 -161 -58 -242.5t-191 -81.5zM286 95q58 0 81 43.5t23 143.5v38q-47 10 -100 10
q-56 0 -77.5 -23t-21.5 -87q0 -125 95 -125z" />
    <glyph glyph-name="uni2206" unicode="&#x2206;" horiz-adv-x="673" 
d="M44 0v76q0 23 9 48l198 560h163l204 -557q11 -33 11 -58v-69h-585zM184 99h288l-145 427z" />
    <glyph glyph-name="product" unicode="&#x220f;" horiz-adv-x="746" 
d="M121 -225v807h-79v102h662v-102h-79v-807h-155v807h-194v-807h-155z" />
    <glyph glyph-name="summation" unicode="&#x2211;" horiz-adv-x="650" 
d="M56 -225v94l285 357l-287 365v93h527v-99h-356l267 -347l-279 -352h371v-111h-528z" />
    <glyph glyph-name="minus" unicode="&#x2212;" 
d="M113 277v94h374v-94h-374z" />
    <glyph glyph-name="radical" unicode="&#x221a;" horiz-adv-x="699" 
d="M300 0l-147 397h-80v93h194l115 -356l180 596h128l-236 -730h-154z" />
    <glyph glyph-name="infinity" unicode="&#x221e;" horiz-adv-x="690" 
d="M212 141q-68 0 -113 53.5t-45 144.5q0 90 47 146t123 56q82 0 125 -72q54 72 129 72q68 0 113 -54t45 -145q0 -89 -46.5 -145t-122.5 -56q-88 0 -127 71q-53 -71 -128 -71zM472 267q26 0 40 21.5t14 56.5t-16 55.5t-43 20.5q-39 0 -76 -41q24 -63 40.5 -88t40.5 -25z
M223 260q38 0 76 42q-24 63 -40.5 87.5t-40.5 24.5q-26 0 -40 -21t-14 -57q0 -35 16 -55.5t43 -20.5z" />
    <glyph glyph-name="integral" unicode="&#x222b;" horiz-adv-x="535" 
d="M163 -239q-63 0 -113 11v102q30 -7 65 -7q48 0 66 17q17 17 17 60v623q0 89 41 131q45 45 134 45q63 0 113 -11v-102q-30 7 -65 7q-48 0 -66 -17q-17 -17 -17 -60v-623q0 -89 -41 -131q-45 -45 -134 -45z" />
    <glyph glyph-name="approxequal" unicode="&#x2248;" 
d="M186 364l-64 10q0 58 25.5 89t70.5 31q28 0 84 -18.5t71 -18.5q30 0 38 41l64 -9q0 -59 -25.5 -90.5t-70.5 -31.5q-28 0 -83 19.5t-72 19.5q-30 0 -38 -42zM186 172l-64 10q0 58 25.5 89.5t70.5 31.5q28 0 84 -19t71 -19q30 0 38 41l64 -8q0 -59 -25 -90.5t-71 -31.5
q-28 0 -83 19t-72 19q-30 0 -38 -42z" />
    <glyph glyph-name="notequal" unicode="&#x2260;" horiz-adv-x="904" 
d="M794 415v-146h-264v-269h-156v269h-264v146h264v269h156v-269h264z" />
    <glyph glyph-name="lessequal" unicode="&#x2264;" 
d="M487 147l-374 185v92l374 185v-106l-269 -124l269 -120v-112zM113 0v94h374v-94h-374z" />
    <glyph glyph-name="greaterequal" unicode="&#x2265;" 
d="M113 147v112l269 120l-269 124v106l374 -185v-92zM113 0v94h374v-94h-374z" />
    <glyph glyph-name="lozenge" unicode="&#x25ca;" 
d="M226 0l-169 269q-25 43 -25 74q0 29 25 72l169 269h149l169 -269q25 -43 25 -72q0 -31 -25 -74l-169 -269h-149zM300 122l140 220l-140 220l-139 -220z" />
    <glyph glyph-name="uniF8FF" unicode="&#xf8ff;" horiz-adv-x="606" 
d="M100 0v684h406v-66h-338v-550h75v-68h-143zM235 210v67h205v69h-205v203h271v-68h-202v-67h202v-204h-271z" />
    <glyph glyph-name="i.loclTRK" horiz-adv-x="269" 
d="M132 588q-37 0 -54.5 16t-17.5 52v11q0 37 17.5 52.5t54.5 15.5h6q36 0 54 -16t18 -52v-11q0 -68 -72 -68h-6zM63 0v490h143v-490h-143z" />
    <glyph glyph-name="notequal.ss01" 
d="M154 47l46 134h-87v94h120l33 98h-153v94h186l46 134h94l-46 -134h94v-94h-127l-33 -98h160v-94h-192l-46 -134h-95z" />
    <glyph glyph-name="plus.ss01" horiz-adv-x="904" 
d="M794 415v-146h-264v-269h-156v269h-264v146h264v269h156v-269h264z" />
    <glyph glyph-name="uni0308.case" horiz-adv-x="0" 
d="M-322 790q-67 0 -67 64v11q0 34 16.5 49t50.5 15h6q68 0 68 -64v-11q0 -64 -68 -64h-6zM-113 790q-68 0 -68 64v11q0 64 68 64h6q34 0 50.5 -15t16.5 -49v-11q0 -64 -67 -64h-6z" />
    <glyph glyph-name="uni0307.case" horiz-adv-x="0" 
d="M-217 788q-37 0 -54.5 16t-17.5 52v11q0 37 17.5 52.5t54.5 15.5h6q36 0 54 -16t18 -52v-11q0 -68 -72 -68h-6z" />
    <glyph glyph-name="gravecomb.case" horiz-adv-x="0" 
d="M-138 759l-203 137l70 95l183 -170z" />
    <glyph glyph-name="acutecomb.case" horiz-adv-x="0" 
d="M-291 759l-50 62l183 170l70 -95z" />
    <glyph glyph-name="uni030B.case" horiz-adv-x="0" 
d="M-361 768l-55 42l141 202l76 -76zM-174 768l-55 42l141 202l76 -76z" />
    <glyph glyph-name="uni0302.case" horiz-adv-x="0" 
d="M-337 762l-50 51l125 144h96l125 -144l-50 -51l-123 98z" />
    <glyph glyph-name="uni030C.case" horiz-adv-x="0" 
d="M-262 774l-125 144l50 51l123 -98l123 98l50 -51l-125 -144h-96z" />
    <glyph glyph-name="uni0306.case" horiz-adv-x="0" 
d="M-214 775q-85 0 -123 44.5t-38 115.5l87 3q9 -76 74 -76t74 76l86 -3q0 -71 -37.5 -115.5t-122.5 -44.5z" />
    <glyph glyph-name="uni030A.case" horiz-adv-x="0" 
d="M-217 769q-121 0 -121 111v14q0 111 121 111h7q120 0 120 -111v-14q0 -111 -120 -111h-7zM-215 832h3q27 0 39 12t12 40v4q0 29 -12 40t-39 11h-3q-28 0 -40.5 -11t-12.5 -40v-4q0 -28 12.5 -40t40.5 -12z" />
    <glyph glyph-name="tildecomb.case" horiz-adv-x="0" 
d="M-326 792l-71 11q0 65 28 101t78 36q32 0 80.5 -21t66.5 -21q33 0 42 46l71 -11q0 -65 -28 -101t-78 -36q-32 0 -80 21t-67 21q-33 0 -42 -46z" />
    <glyph glyph-name="uni0304.case" horiz-adv-x="0" 
d="M-362 805v98h295v-98h-295z" />
    <glyph glyph-name="acute.case" horiz-adv-x="428" 
d="M137 759l-50 62l183 170l70 -95z" />
    <glyph glyph-name="breve.case" horiz-adv-x="428" 
d="M214 775q-85 0 -123 44.5t-38 115.5l87 3q9 -76 74 -76t74 76l86 -3q0 -71 -37.5 -115.5t-122.5 -44.5z" />
    <glyph glyph-name="caron.case" horiz-adv-x="428" 
d="M166 774l-125 144l50 51l123 -98l123 98l50 -51l-125 -144h-96z" />
    <glyph glyph-name="circumflex.case" horiz-adv-x="428" 
d="M91 762l-50 51l125 144h96l125 -144l-50 -51l-123 98z" />
    <glyph glyph-name="dieresis.case" horiz-adv-x="428" 
d="M106 790q-67 0 -67 64v11q0 34 16.5 49t50.5 15h6q68 0 68 -64v-11q0 -64 -68 -64h-6zM315 790q-68 0 -68 64v11q0 64 68 64h6q34 0 50.5 -15t16.5 -49v-11q0 -64 -67 -64h-6z" />
    <glyph glyph-name="dotaccent.case" horiz-adv-x="428" 
d="M211 788q-37 0 -54.5 16t-17.5 52v11q0 37 17.5 52.5t54.5 15.5h6q36 0 54 -16t18 -52v-11q0 -68 -72 -68h-6z" />
    <glyph glyph-name="grave.case" horiz-adv-x="428" 
d="M290 759l-203 137l70 95l183 -170z" />
    <glyph glyph-name="hungarumlaut.case" horiz-adv-x="428" 
d="M67 768l-55 42l141 202l76 -76zM254 768l-55 42l141 202l76 -76z" />
    <glyph glyph-name="macron.case" horiz-adv-x="428" 
d="M66 805v98h295v-98h-295z" />
    <glyph glyph-name="ring.case" horiz-adv-x="428" 
d="M211 769q-121 0 -121 111v14q0 111 121 111h7q120 0 120 -111v-14q0 -111 -120 -111h-7zM213 832h3q27 0 39 12t12 40v4q0 29 -12 40t-39 11h-3q-28 0 -40.5 -11t-12.5 -40v-4q0 -28 12.5 -40t40.5 -12z" />
    <glyph glyph-name="tilde.case" horiz-adv-x="428" 
d="M102 792l-71 11q0 65 28 101t78 36q32 0 80.5 -21t66.5 -21q33 0 42 46l71 -11q0 -65 -28 -101t-78 -36q-32 0 -80 21t-67 21q-33 0 -42 -46z" />
    </font>
</defs>
</svg>
