<?xml version="1.0" standalone="no"?>
<!DOCTYPE svg PUBLIC "-//W3C//DTD SVG 1.1//EN" "http://www.w3.org/Graphics/SVG/1.1/DTD/svg11.dtd" >
<svg>
<metadata>
Created by FontForge 20090622 at Wed Mar 13 17:24:23 2019
 By deploy user
Copyright (c) 2009 by Fontsmith Ltd. All rights reserved. This font may not be altered in any way without prior permission of Fontsmith Ltd.
</metadata>
<defs>
<font id="Telefonica-Light" horiz-adv-x="0" >
  <font-face 
    font-family="Telefonica Light"
    font-weight="300"
    font-stretch="normal"
    units-per-em="1000"
    panose-1="0 0 4 0 0 0 0 0 0 0"
    ascent="750"
    descent="-250"
    x-height="490"
    cap-height="684"
    bbox="-384 -253 1182 1229"
    underline-thickness="45"
    underline-position="-56"
    unicode-range="U+000D-U+FB02"
  />
<missing-glyph horiz-adv-x="642" 
d="M86 0v660h470v-660h-470zM321 372l159 240h-320zM134 90l159 241l-159 239v-480zM510 90v480l-160 -239zM160 49h320l-159 239z" />
    <glyph glyph-name="fi" unicode="fi" horiz-adv-x="508" 
d="M108 0v444h-90v35l90 11v71q0 86 43 129q44 42 133 42q39 0 101 -10v-48q-47 7 -95 7q-69 0 -97 -29q-27 -27 -27 -97v-65h266v-490h-58v444h-208v-444h-58z" />
    <glyph glyph-name="fl" unicode="fl" horiz-adv-x="508" 
d="M108 0v444h-90v35l90 11v71q0 86 43 129q44 42 141 42q65 0 140 -11v-721h-58v677q-35 4 -84 4q-69 0 -97 -29q-27 -27 -27 -97v-65h134v-46h-134v-444h-58z" />
    <glyph glyph-name=".notdef" horiz-adv-x="642" 
d="M86 0v660h470v-660h-470zM321 372l159 240h-320zM134 90l159 241l-159 239v-480zM510 90v480l-160 -239zM160 49h320l-159 239z" />
    <glyph glyph-name=".null" 
 />
    <glyph glyph-name="nonmarkingreturn" horiz-adv-x="333" 
 />
    <glyph glyph-name="CR" unicode="&#xd;" horiz-adv-x="200" 
 />
    <glyph glyph-name="space" unicode=" " horiz-adv-x="200" 
 />
    <glyph glyph-name="exclam" unicode="!" horiz-adv-x="266" 
d="M109 170l-9 514h66l-9 -514h-48zM131 -14q-39 0 -39 39v5q0 41 39 41h4q39 0 39 -41v-5q0 -39 -39 -39h-4z" />
    <glyph glyph-name="quotedbl" unicode="&#x22;" horiz-adv-x="346" 
d="M87 497l-7 187h57l-7 -187h-43zM216 497l-7 187h57l-7 -187h-43z" />
    <glyph glyph-name="numbersign" unicode="#" horiz-adv-x="532" 
d="M77 0l42 217h-73v45h81l31 159h-112v45h120l43 218h49l-43 -218h148l43 218h49l-43 -218h74v-45h-82l-31 -159h113v-45h-121l-42 -217h-49l42 217h-148l-42 -217h-49zM176 262h148l31 159h-148z" />
    <glyph glyph-name="dollar" unicode="$" horiz-adv-x="532" 
d="M248 -133v119q-103 0 -185 25v51q82 -25 185 -25v292q-45 19 -69 31t-55.5 35.5t-46 54.5t-14.5 72q0 73 44 119q47 49 141 55v111h44v-110q80 -2 142 -22v-48q-66 17 -142 19v-274q42 -18 67 -32t55 -38t44 -56t14 -74q0 -82 -47 -128t-133 -55v-122h-44zM248 391v253
q-128 -11 -128 -116q0 -49 33 -79.5t95 -57.5zM292 40q55 5 88.5 38t34.5 92q0 51 -32 82.5t-91 57.5v-270z" />
    <glyph glyph-name="percent" unicode="%" horiz-adv-x="892" 
d="M208 293q-148 0 -148 202t148 202t148 -202t-148 -202zM247 -14l344 711h54l-344 -711h-54zM208 340q52 0 74 36.5t22 118.5t-22 118.5t-74 36.5t-74 -36.5t-22 -118.5t22 -118.5t74 -36.5zM684 -14q-148 0 -148 202t148 202t148 -202t-148 -202zM684 33q52 0 74 36.5
t22 118.5t-22 118.5t-74 36.5t-74 -36.5t-22 -118.5t22 -118.5t74 -36.5z" />
    <glyph glyph-name="ampersand" unicode="&#x26;" horiz-adv-x="665" 
d="M583 -33l-98 108q-88 -91 -217 -91q-92 0 -150 52.5t-58 137.5q0 128 150 209q-49 57 -68.5 94t-19.5 79q0 65 42 102t107 37q62 0 102 -36t40 -97q0 -113 -128 -186l200 -222q44 74 50 177h49q-3 -126 -65 -215l104 -115zM257 407q58 38 82 74t24 79q0 40 -25 65.5
t-67 25.5q-45 0 -71 -24.5t-26 -67.5q0 -36 18.5 -68t64.5 -84zM275 34q108 0 179 77l-216 240q-119 -66 -119 -179q0 -62 42.5 -100t113.5 -38z" />
    <glyph glyph-name="quotesingle" unicode="'" horiz-adv-x="217" 
d="M87 497l-7 187h57l-7 -187h-43z" />
    <glyph glyph-name="parenleft" unicode="(" horiz-adv-x="316" 
d="M274 -227q-95 85 -144.5 209t-49.5 275t49.5 275t144.5 209l28 -24q-157 -184 -157 -460t157 -460z" />
    <glyph glyph-name="parenright" unicode=")" horiz-adv-x="316" 
d="M42 -227l-28 24q157 184 157 460t-157 460l28 24q95 -85 144.5 -209t49.5 -275t-49.5 -275t-144.5 -209z" />
    <glyph glyph-name="asterisk" unicode="*" horiz-adv-x="424" 
d="M120 322l-40 32l102 125l-150 52l16 47l146 -62l-10 168h56l-10 -168l146 62l16 -47l-150 -52l102 -125l-40 -32l-92 132z" />
    <glyph glyph-name="plus" unicode="+" horiz-adv-x="513" 
d="M232 176v132h-132v49h132v132h49v-132h132v-49h-132v-132h-49z" />
    <glyph glyph-name="comma" unicode="," horiz-adv-x="222" 
d="M102 -131v115q-36 9 -36 41v5q0 41 39 41h4q21 -1 30.5 -13.5t9.5 -43.5q0 -73 -20 -145h-27z" />
    <glyph glyph-name="hyphen" unicode="-" horiz-adv-x="317" 
d="M66 234v51h185v-51h-185z" />
    <glyph glyph-name="period" unicode="." horiz-adv-x="222" 
d="M109 -14q-39 0 -39 39v5q0 41 39 41h4q39 0 39 -41v-5q0 -39 -39 -39h-4z" />
    <glyph glyph-name="slash" unicode="/" horiz-adv-x="442" 
d="M47 -14l292 711h56l-292 -711h-56z" />
    <glyph glyph-name="zero" unicode="0" horiz-adv-x="532" 
d="M266 -14q-118 0 -171 90.5t-53 264.5q0 175 53 265.5t171 90.5t171 -90.5t53 -265.5q0 -174 -53 -264.5t-171 -90.5zM266 41q91 0 127 73.5t36 226.5t-36 227t-127 74t-127 -74t-36 -227t36 -226.5t127 -73.5z" />
    <glyph glyph-name="one" unicode="1" horiz-adv-x="532" 
d="M130 0v47h119v594h-114v41q66 8 118 8q30 0 41 -8.5t11 -31.5v-603h101v-47h-276z" />
    <glyph glyph-name="two" unicode="2" horiz-adv-x="532" 
d="M70 0q-3 8 -3 19q0 17 7.5 32t31.5 44l167 205q61 75 86.5 124t25.5 97q0 56 -30 86q-38 38 -131 38q-63 0 -141 -14v47q65 19 151 19q110 0 163 -49q49 -45 49 -123q0 -60 -26.5 -111t-102.5 -143l-184 -220h325v-51h-388z" />
    <glyph glyph-name="three" unicode="3" horiz-adv-x="532" 
d="M217 -14q-81 0 -144 17v48q62 -13 136 -13q100 0 144 41q39 36 39 108q0 61 -36 97q-45 43 -149 43h-7v44h8q91 0 130 40q37 39 37 101q0 64 -31 96q-36 38 -127 38q-64 0 -134 -14v47q64 18 148 18q104 0 156 -49q48 -46 48 -127q0 -119 -105 -167q56 -16 89.5 -58
t33.5 -109q0 -95 -57 -147q-60 -54 -179 -54z" />
    <glyph glyph-name="four" unicode="4" horiz-adv-x="532" 
d="M363 0v172h-317q-2 14 -2 22q0 20 16 67l144 423h55l-157 -463h261v177h56v-177h83v-49h-83v-172h-56z" />
    <glyph glyph-name="five" unicode="5" horiz-adv-x="532" 
d="M223 -14q-78 0 -131 15v49q54 -12 125 -12q181 0 181 153q0 74 -35 112q-42 45 -157 45h-99q-4 18 -3 49l11 287h302v-51h-253l-9 -235h63q129 0 188 -56q53 -51 53 -149q0 -102 -62.5 -154.5t-173.5 -52.5z" />
    <glyph glyph-name="six" unicode="6" horiz-adv-x="532" 
d="M280 -14q-113 0 -162.5 83.5t-49.5 236.5q0 240 81 330q56 61 171 61q50 0 104 -12v-46q-49 7 -98 7q-91 0 -132 -41q-59 -59 -65 -229q84 34 161 34q93 0 142.5 -49.5t49.5 -148.5q0 -105 -52.5 -165.5t-149.5 -60.5zM280 36q71 0 108.5 45.5t37.5 125.5q0 83 -37 118.5
t-110 35.5q-75 0 -151 -27v-49q0 -249 152 -249z" />
    <glyph glyph-name="seven" unicode="7" horiz-adv-x="532" 
d="M182 0l221 633h-328v51h387q2 -8 2 -17q0 -15 -8 -41l-208 -626h-66z" />
    <glyph glyph-name="eight" unicode="8" horiz-adv-x="532" 
d="M265 -14q-97 0 -155.5 50.5t-58.5 129.5q0 66 39.5 118t107.5 83q-54 30 -84 68t-30 95q0 74 51 120.5t132 46.5q80 0 131 -47t51 -112q0 -115 -130 -175q77 -38 119.5 -80t42.5 -110q0 -85 -60.5 -136t-155.5 -51zM271 387q125 54 125 147q0 50 -35.5 81.5t-91.5 31.5
q-59 0 -95 -31.5t-36 -82.5q0 -49 33.5 -81t99.5 -65zM266 37q71 0 114.5 34t43.5 94q0 33 -12.5 58.5t-39 46t-49 33.5t-61.5 31q-10 5 -15 7q-137 -54 -137 -170q0 -59 42.5 -96.5t113.5 -37.5z" />
    <glyph glyph-name="nine" unicode="9" horiz-adv-x="532" 
d="M212 -14q-50 0 -104 12v46q49 -7 98 -7q91 0 132 41q59 59 65 229q-84 -34 -161 -34q-93 0 -142.5 49.5t-49.5 148.5q0 105 52.5 165.5t149.5 60.5q113 0 162.5 -83.5t49.5 -236.5q0 -240 -81 -330q-56 -61 -171 -61zM253 322q75 0 151 27v49q0 249 -152 249
q-71 0 -108.5 -45.5t-37.5 -125.5q0 -83 37 -118.5t110 -35.5z" />
    <glyph glyph-name="colon" unicode=":" horiz-adv-x="222" 
d="M109 320q-39 0 -39 39v5q0 41 39 41h4q39 0 39 -41v-5q0 -39 -39 -39h-4zM109 -14q-39 0 -39 39v5q0 41 39 41h4q39 0 39 -41v-5q0 -39 -39 -39h-4z" />
    <glyph glyph-name="semicolon" unicode=";" horiz-adv-x="222" 
d="M109 320q-39 0 -39 39v5q0 41 39 41h4q39 0 39 -41v-5q0 -39 -39 -39h-4zM106 -131v115q-36 9 -36 41v5q0 41 39 41h4q21 -1 30.5 -13.5t9.5 -43.5q0 -73 -20 -145h-27z" />
    <glyph glyph-name="less" unicode="&#x3c;" horiz-adv-x="513" 
d="M410 145l-307 157v55l307 157v-56l-260 -129l260 -128v-56z" />
    <glyph glyph-name="equal" unicode="=" horiz-adv-x="513" 
d="M100 391v51h313v-51h-313zM100 223v51h313v-51h-313z" />
    <glyph glyph-name="greater" unicode="&#x3e;" horiz-adv-x="513" 
d="M103 145v56l260 128l-260 129v56l307 -157v-55z" />
    <glyph glyph-name="question" unicode="?" horiz-adv-x="404" 
d="M135 170q-3 16 -3 31q0 43 15 75.5t53 77.5l11 13q54 63 72.5 97.5t18.5 73.5q0 50 -26 76q-32 32 -106 32q-63 0 -122 -14l-8 44q60 21 133 21q93 0 141 -41q48 -40 48 -116q0 -47 -19.5 -86.5t-71.5 -97.5q-60 -67 -75 -98.5t-15 -87.5h-46zM157 -14q-39 0 -39 39v5
q0 41 39 41h4q39 0 39 -41v-5q0 -39 -39 -39h-4z" />
    <glyph glyph-name="at" unicode="@" horiz-adv-x="748" 
d="M399 -14q-173 0 -266 94t-93 259q0 164 91 261t246 97q150 0 238.5 -88.5t88.5 -237.5q0 -119 -60 -170q-40 -36 -104 -36q-56 0 -87 25q-42 -27 -99 -27q-54 0 -82.5 27.5t-28.5 74.5q0 45 23 69q29 34 111 34h66v29q0 49 -14 64q-17 17 -66 17q-43 0 -85 -7l-2 39
q44 11 95 11q66 0 96 -30q26 -26 26 -93v-183q27 -7 50 -7q42 0 69 24q43 40 43 134q0 134 -73.5 209.5t-203.5 75.5q-136 0 -210.5 -84.5t-74.5 -226.5q0 -149 80 -228.5t236 -79.5q98 0 183 20v-43q-87 -23 -193 -23zM367 206q45 0 76 17v107h-69q-50 0 -68 -21
q-13 -14 -13 -42q0 -30 16.5 -45.5t57.5 -15.5z" />
    <glyph glyph-name="A" unicode="A" horiz-adv-x="560" 
d="M22 0l214 684h73l229 -684h-63l-61 187h-275l-57 -187h-60zM155 238h242l-125 384z" />
    <glyph glyph-name="B" unicode="B" horiz-adv-x="572" 
d="M88 0v684h181q117 0 164 -51q35 -37 35 -111q0 -123 -98 -157q70 -7 106 -54.5t36 -122.5q0 -90 -42 -136q-28 -29 -66.5 -40.5t-117.5 -11.5h-198zM148 383h106q83 0 119 32t36 95q0 64 -33 94q-29 28 -125 28h-103v-249zM148 52h111q70 0 103 6.5t54 26.5q35 32 35 100
q0 73 -39 112q-21 20 -51.5 27.5t-92.5 7.5h-120v-280z" />
    <glyph glyph-name="C" unicode="C" horiz-adv-x="539" 
d="M351 -14q-145 0 -218 85t-73 267q0 176 72.5 267.5t211.5 91.5q81 0 150 -26l-11 -49q-68 21 -130 21q-117 0 -174 -75t-57 -228q0 -158 55 -228.5t186 -70.5q50 0 121 15l8 -50q-73 -20 -141 -20z" />
    <glyph glyph-name="D" unicode="D" horiz-adv-x="628" 
d="M88 0v684h161q91 0 149 -17t96 -57q74 -81 74 -265q0 -204 -88 -285q-64 -60 -207 -60h-185zM148 53h119q119 0 171 51q69 66 69 241q0 166 -63 230q-55 56 -196 56h-100v-578z" />
    <glyph glyph-name="E" unicode="E" horiz-adv-x="510" 
d="M88 0v684h360l-7 -52h-293v-259h241v-53h-241v-268h308v-52h-368z" />
    <glyph glyph-name="F" unicode="F" horiz-adv-x="472" 
d="M88 0v684h351l-7 -52h-284v-259h231v-53h-231v-320h-60z" />
    <glyph glyph-name="G" unicode="G" horiz-adv-x="614" 
d="M365 -14q-305 0 -305 347q0 176 78 270t225 94q88 0 157 -24l-11 -48q-70 19 -139 19q-128 0 -188 -76.5t-60 -229.5q0 -162 60.5 -230t186.5 -68q57 0 106 9v237h-121v51h178v-328q-69 -23 -167 -23z" />
    <glyph glyph-name="H" unicode="H" horiz-adv-x="641" 
d="M88 0v684h60v-311h346v311h59v-684h-59v320h-346v-320h-60z" />
    <glyph glyph-name="I" unicode="I" horiz-adv-x="240" 
d="M90 0v684h60v-684h-60z" />
    <glyph glyph-name="J" unicode="J" horiz-adv-x="351" 
d="M104 -14q-32 0 -60 5l-6 52q24 -3 59 -3q62 0 87 22q16 14 21 38t5 78v506h59v-501q0 -68 -9 -101.5t-28 -54.5q-38 -41 -128 -41z" />
    <glyph glyph-name="K" unicode="K" horiz-adv-x="565" 
d="M88 0v684h60v-379l303 379h66l-228 -281l244 -403h-67l-214 358l-104 -129v-229h-60z" />
    <glyph glyph-name="L" unicode="L" horiz-adv-x="484" 
d="M88 0v684h60v-632h296v-52h-356z" />
    <glyph glyph-name="M" unicode="M" horiz-adv-x="783" 
d="M88 0v684h54l248 -476l255 476h50v-684h-56v566l-225 -418h-53l-219 421v-569h-54z" />
    <glyph glyph-name="N" unicode="N" horiz-adv-x="666" 
d="M88 0v684h41l395 -575v575h54v-684h-45l-391 570v-570h-54z" />
    <glyph glyph-name="O" unicode="O" horiz-adv-x="640" 
d="M320 -14q-260 0 -260 355q0 356 260 356t260 -356q0 -355 -260 -355zM320 43q106 0 152 76t46 222t-46 222.5t-152 76.5t-152 -76.5t-46 -222.5t46 -222t152 -76z" />
    <glyph glyph-name="P" unicode="P" horiz-adv-x="557" 
d="M88 0v684h190q124 0 179 -54q50 -50 50 -150q0 -108 -51 -162q-52 -55 -158 -55h-150v-263h-60zM148 316h126q97 0 134 37t37 125q0 75 -34 114q-20 23 -51 31.5t-88 8.5h-124v-316z" />
    <glyph glyph-name="Q" unicode="Q" horiz-adv-x="640" 
d="M575 -99l-147 69q-33 16 -95 16h-14q-259 1 -259 355q0 356 260 356t260 -356q0 -255 -137 -328q90 -17 159 -63q-8 -25 -27 -49zM320 43q106 0 152 76t46 222t-46 222.5t-152 76.5t-152 -76.5t-46 -222.5t46 -222t152 -76z" />
    <glyph glyph-name="R" unicode="R" horiz-adv-x="578" 
d="M88 0v684h191q131 0 182 -58q48 -55 48 -146q0 -158 -131 -198l146 -282h-65l-137 271q-20 -2 -44 -2h-130v-269h-60zM148 322h134q86 0 123 36q42 41 42 123q0 73 -35 111q-35 40 -137 40h-127v-310z" />
    <glyph glyph-name="S" unicode="S" horiz-adv-x="523" 
d="M239 -14q-94 0 -183 29l11 51q84 -27 164 -27q92 0 134 32q43 33 43 99q0 51 -36.5 86t-88 56l-103 43.5t-88 64t-36.5 102.5q0 73 44 119q55 56 170 56q82 0 157 -24l-11 -48q-69 19 -143 19q-160 0 -160 -116q0 -36 19.5 -63t50.5 -45t68.5 -33.5t75 -33.5t68.5 -40
t50.5 -58t19.5 -83q0 -93 -59.5 -139.5t-166.5 -46.5z" />
    <glyph glyph-name="T" unicode="T" horiz-adv-x="550" 
d="M246 0v632h-220v52h503l-7 -52h-216v-632h-60z" />
    <glyph glyph-name="U" unicode="U" horiz-adv-x="637" 
d="M322 -14q-124 0 -182 60q-58 59 -58 187v451h60v-448q0 -108 44 -152q43 -42 139 -42q82 0 125 38q51 47 51 156v448h54v-456q0 -125 -61 -184q-60 -58 -172 -58z" />
    <glyph glyph-name="V" unicode="V" horiz-adv-x="565" 
d="M252 0l-226 684h61l201 -615l192 615h59l-216 -684h-71z" />
    <glyph glyph-name="W" unicode="W" horiz-adv-x="857" 
d="M219 0l-193 684h60l170 -614l143 614h68l152 -606l156 606h56l-177 -684h-71l-150 600l-138 -600h-76z" />
    <glyph glyph-name="X" unicode="X" horiz-adv-x="497" 
d="M26 0l193 341l-190 343h64l160 -298l156 298h62l-189 -341l191 -343h-65l-161 295l-156 -295h-65z" />
    <glyph glyph-name="Y" unicode="Y" horiz-adv-x="546" 
d="M238 0v281l-216 403h66l184 -351l191 351h61l-226 -406v-278h-60z" />
    <glyph glyph-name="Z" unicode="Z" horiz-adv-x="544" 
d="M56 0v42l361 590h-360v52h431v-42l-361 -590h365v-52h-436z" />
    <glyph glyph-name="bracketleft" unicode="[" horiz-adv-x="329" 
d="M122 -207v934h175v-50h-115v-834h115v-50h-175z" />
    <glyph glyph-name="backslash" unicode="\" horiz-adv-x="442" 
d="M339 -14l-292 711h56l292 -711h-56z" />
    <glyph glyph-name="bracketright" unicode="]" horiz-adv-x="329" 
d="M32 -207v50h115v834h-115v50h175v-934h-175z" />
    <glyph glyph-name="asciicircum" unicode="^" horiz-adv-x="513" 
d="M73 417l160 267h48l160 -267h-55l-129 223l-129 -223h-55z" />
    <glyph glyph-name="underscore" unicode="_" horiz-adv-x="430" 
d="M32 -73v45h366v-45h-366z" />
    <glyph glyph-name="grave" unicode="`" horiz-adv-x="400" 
d="M281 574l-186 136l38 50l171 -157z" />
    <glyph glyph-name="a" unicode="a" horiz-adv-x="489" 
d="M210 -14q-74 0 -119 39t-45 113q0 67 38 103q48 45 158 45h118v40q0 69 -29 98q-28 29 -99 29q-67 0 -137 -16l-4 48q73 19 146 19q99 0 141 -43q40 -42 40 -127v-334h-47l-3 33q-78 -47 -158 -47zM220 37q77 0 140 36v166h-109q-87 0 -119 -28q-28 -24 -28 -72
q0 -102 116 -102z" />
    <glyph glyph-name="b" unicode="b" horiz-adv-x="515" 
d="M277 -14q-81 0 -154 48l-3 -34h-46v715h58v-250q70 39 144 39q189 0 189 -257q0 -146 -59 -211q-46 -50 -129 -50zM269 37q76 0 106 53t30 158q0 109 -38 161q-33 44 -102 44q-67 0 -133 -35v-341q64 -40 137 -40z" />
    <glyph glyph-name="c" unicode="c" horiz-adv-x="436" 
d="M285 -14q-235 0 -235 254q0 131 58.5 197.5t170.5 66.5q64 0 114 -17l-4 -48q-57 15 -102 15q-97 0 -137 -50.5t-40 -161.5q0 -109 43 -157.5t145 -48.5q47 0 93 10l5 -48q-50 -12 -111 -12z" />
    <glyph glyph-name="d" unicode="d" horiz-adv-x="518" 
d="M250 -14q-200 0 -200 257q0 122 50 191.5t150 69.5q68 0 136 -34v245h58v-715h-46l-3 30q-68 -44 -145 -44zM253 37q67 0 133 33v352q-68 31 -125 31q-81 0 -116 -52t-35 -157q0 -106 34 -156.5t109 -50.5z" />
    <glyph glyph-name="e" unicode="e" horiz-adv-x="495" 
d="M283 -15q-233 0 -233 259q0 120 50.5 189.5t149.5 69.5q193 0 193 -262v-9q0 -11 -12 -11h-320q2 -92 42.5 -139t133.5 -47q57 0 124 15l5 -47q-59 -18 -133 -18zM110 268h276q0 88 -33.5 137.5t-102.5 49.5t-104 -49.5t-36 -137.5z" />
    <glyph glyph-name="f" unicode="f" horiz-adv-x="298" 
d="M108 0v444h-90v35l90 11v81q0 83 34 120q38 41 118 41q34 0 70 -6v-49q-38 4 -62 4q-56 0 -79 -24t-23 -94v-73h134v-46h-134v-444h-58z" />
    <glyph glyph-name="g" unicode="g" horiz-adv-x="499" 
d="M249 -239q-209 0 -209 137q0 70 57 117q-24 20 -24 56q0 26 14 56.5t38 52.5q-64 48 -64 145q0 85 49.5 132t137.5 47q34 0 59 -7l63 128q29 -7 48 -23l-67 -121q84 -45 84 -156q0 -85 -49.5 -132t-137.5 -47q-49 0 -86 14q-34 -37 -34 -75q0 -15 7 -23q10 -11 52 -11h98
q109 0 153 -45q33 -33 33 -90q0 -66 -40 -105q-53 -50 -182 -50zM248 196q131 0 131 129t-131 129t-131 -129t131 -129zM253 -188q88 0 125 24t37 73q0 48 -27.5 67.5t-97.5 19.5h-106q-22 0 -46 2q-42 -38 -42 -90q0 -96 157 -96z" />
    <glyph glyph-name="h" unicode="h" horiz-adv-x="531" 
d="M74 0v715h58v-258q83 47 164 47q82 0 123 -41t41 -124v-339h-58v324q0 70 -28 98q-29 29 -87 29q-77 0 -155 -39v-412h-58z" />
    <glyph glyph-name="i" unicode="i" horiz-adv-x="210" 
d="M103 589q-36 0 -36 39v3q0 39 36 39h4q36 0 36 -39v-3q0 -39 -36 -39h-4zM76 0v490h58v-490h-58z" />
    <glyph glyph-name="j" unicode="j" horiz-adv-x="210" 
d="M103 589q-36 0 -36 39v3q0 39 36 39h4q36 0 36 -39v-3q0 -39 -36 -39h-4zM-55 -237l-7 50q79 0 110 33q16 17 22 42t6 75v527h58v-527q0 -110 -44 -155t-145 -45z" />
    <glyph glyph-name="k" unicode="k" horiz-adv-x="482" 
d="M74 0v715h58v-492l245 267h67l-172 -185l190 -305h-66l-163 264l-101 -110v-154h-58z" />
    <glyph glyph-name="l" unicode="l" horiz-adv-x="210" 
d="M76 0v715h58v-715h-58z" />
    <glyph glyph-name="m" unicode="m" horiz-adv-x="832" 
d="M74 0v490h46l4 -36q78 50 161 50q94 0 133 -53q88 53 180 53q82 0 123 -41q40 -40 40 -124v-339h-58v324q0 71 -27 98q-29 29 -88 29q-74 0 -150 -37q10 -29 10 -75v-339h-58v324q0 71 -27 98q-29 29 -86 29q-69 0 -145 -38v-413h-58z" />
    <glyph glyph-name="n" unicode="n" horiz-adv-x="531" 
d="M74 0v490h46l4 -37q84 51 172 51q82 0 123 -41t41 -124v-339h-58v324q0 70 -28 98q-29 29 -87 29q-77 0 -155 -39v-412h-58z" />
    <glyph glyph-name="o" unicode="o" horiz-adv-x="522" 
d="M261 -14q-211 0 -211 259t211 259t211 -259t-211 -259zM261 36q81 0 116 52t35 157t-35 157t-116 52t-116 -52t-35 -157t35 -157t116 -52z" />
    <glyph glyph-name="p" unicode="p" horiz-adv-x="515" 
d="M74 -225v715h46l5 -37q74 51 152 51q188 0 188 -257q0 -145 -60 -211q-46 -50 -131 -50q-80 0 -142 41v-252h-58zM264 37q79 0 111 53q30 51 30 158q0 112 -36 161q-33 44 -101 44q-63 0 -136 -41v-335q57 -40 132 -40z" />
    <glyph glyph-name="q" unicode="q" horiz-adv-x="518" 
d="M386 -230v255q-66 -39 -135 -39q-201 0 -201 257q0 122 51 191.5t151 69.5q72 0 140 -44l3 30h49v-709zM253 37q67 0 133 33v344q-61 39 -126 39q-79 0 -114.5 -52.5t-35.5 -156.5q0 -106 34 -156.5t109 -50.5z" />
    <glyph glyph-name="r" unicode="r" horiz-adv-x="314" 
d="M74 0v490h46l5 -42q68 56 145 56q14 0 24 -1v-54q-16 1 -34 1q-69 0 -128 -41v-409h-58z" />
    <glyph glyph-name="s" unicode="s" horiz-adv-x="416" 
d="M189 -14q-77 0 -133 18l5 46q61 -16 125 -16q135 0 135 90q0 37 -28.5 60t-68.5 34.5t-80.5 25.5t-69 44t-28.5 79q0 68 46.5 102.5t130.5 34.5q65 0 121 -17l-3 -45q-65 14 -117 14q-123 0 -123 -86q0 -35 28.5 -56.5t69 -33.5t80.5 -26.5t68.5 -46t28.5 -80.5
q0 -68 -48 -104.5t-139 -36.5z" />
    <glyph glyph-name="t" unicode="t" horiz-adv-x="344" 
d="M236 -14q-68 0 -99 31q-33 33 -33 114v313h-90v35l90 11v113q30 9 58 12v-125h130v-46h-130v-295q0 -70 18 -90q20 -22 65 -22q35 0 75 9l4 -47q-39 -13 -88 -13z" />
    <glyph glyph-name="u" unicode="u" horiz-adv-x="529" 
d="M235 -14q-82 0 -123 41t-41 124v339h58v-324q0 -70 28 -98q29 -29 87 -29q75 0 153 39v412h58v-490h-46l-4 37q-84 -51 -170 -51z" />
    <glyph glyph-name="v" unicode="v" horiz-adv-x="443" 
d="M192 0l-173 490h61l144 -429l141 429h59l-170 -490h-62z" />
    <glyph glyph-name="w" unicode="w" horiz-adv-x="683" 
d="M161 0l-143 490h60l118 -426l114 426h61l131 -432l108 432h55l-131 -490h-66l-127 415l-113 -415h-67z" />
    <glyph glyph-name="x" unicode="x" horiz-adv-x="430" 
d="M25 0l159 243l-160 247h63l132 -203l124 203h63l-160 -245l160 -245h-63l-132 202l-123 -202h-63z" />
    <glyph glyph-name="y" unicode="y" horiz-adv-x="529" 
d="M269 -239q-44 0 -73 7l-7 49q30 -5 70 -5q77 0 108 27q30 27 30 108v85q-81 -46 -162 -46q-82 0 -123 41t-41 124v339h58v-324q0 -70 28 -98q29 -29 87 -29q75 0 153 39v412h58v-545q0 -97 -40 -138q-45 -46 -146 -46z" />
    <glyph glyph-name="z" unicode="z" horiz-adv-x="417" 
d="M42 0v32l267 412h-263v46h333v-33l-264 -412h268v-45h-341z" />
    <glyph glyph-name="braceleft" unicode="{" horiz-adv-x="344" 
d="M276 -207q-63 0 -89.5 24.5t-26.5 85.5v181q0 75 -22.5 106.5t-82.5 44.5v50q60 13 82.5 44.5t22.5 106.5v181q0 61 26.5 85.5t89.5 24.5h29v-50h-23q-40 0 -52 -13t-12 -54v-174q0 -79 -17.5 -114.5t-66.5 -61.5q49 -26 66.5 -61.5t17.5 -114.5v-174q0 -41 12 -54
t52 -13h23v-50h-29z" />
    <glyph glyph-name="bar" unicode="|" horiz-adv-x="226" 
d="M88 -253v996h50v-996h-50z" />
    <glyph glyph-name="braceright" unicode="}" horiz-adv-x="344" 
d="M39 -207v50h23q40 0 52 13t12 54v174q0 79 17.5 114.5t66.5 61.5q-49 26 -66.5 61.5t-17.5 114.5v174q0 41 -12 54t-52 13h-23v50h29q63 0 89.5 -24.5t26.5 -85.5v-181q0 -75 22.5 -106.5t82.5 -44.5v-50q-60 -13 -82.5 -44.5t-22.5 -106.5v-181q0 -61 -26.5 -85.5
t-89.5 -24.5h-29z" />
    <glyph glyph-name="asciitilde" unicode="~" horiz-adv-x="513" 
d="M119 320l-38 10q5 77 78 77q32 0 97 -18t96 -18q36 0 43 38l38 -10q-5 -77 -78 -77q-32 0 -97 18t-96 18q-36 0 -43 -38z" />
    <glyph glyph-name="uni00A0" unicode="&#xa0;" horiz-adv-x="200" 
 />
    <glyph glyph-name="exclamdown" unicode="&#xa1;" horiz-adv-x="266" 
d="M135 494q39 0 39 -39v-5q0 -41 -39 -41h-4q-39 0 -39 41v5q0 39 39 39h4zM157 310l9 -514h-66l9 514h48z" />
    <glyph glyph-name="cent" unicode="&#xa2;" horiz-adv-x="532" 
d="M285 -134v122q-199 18 -199 252q0 245 199 262v112h44v-110q52 -2 100 -17v-46q-48 12 -100 14v-421q46 0 103 10v-46q-47 -10 -103 -12v-120h-44zM285 37v416q-75 -10 -107.5 -61t-32.5 -150q0 -95 32.5 -144.5t107.5 -60.5z" />
    <glyph glyph-name="sterling" unicode="&#xa3;" horiz-adv-x="532" 
d="M86 0q-4 16 -4 27q0 27 28 56q66 69 66 143q0 38 -17 108h-85v30l75 9q-21 82 -21 131q0 95 54 144q55 49 157 49q70 0 135 -17v-47q-67 12 -128 12q-87 0 -125 -38q-36 -36 -36 -104q0 -47 20 -125h179v-44h-167q16 -66 16 -108q0 -50 -23.5 -90t-71.5 -85h352v-51h-404
z" />
    <glyph glyph-name="currency" unicode="&#xa4;" horiz-adv-x="532" 
d="M86 132l-31 31l78 78q-31 47 -31 109q0 61 31 108l-78 79l31 31l77 -77q42 34 103 34q60 0 103 -34l77 77l31 -31l-79 -79q32 -46 32 -108q0 -63 -32 -109l79 -78l-31 -31l-77 77q-43 -34 -103 -34q-61 0 -103 34zM266 221q53 0 82.5 36.5t29.5 92.5t-29.5 92.5
t-82.5 36.5t-82.5 -36.5t-29.5 -92.5t29.5 -92.5t82.5 -36.5z" />
    <glyph glyph-name="yen" unicode="&#xa5;" horiz-adv-x="532" 
d="M233 0v154h-138v44h138v54h-138v44h131l-188 388h63l164 -351l171 351h59l-197 -388h129v-44h-138v-54h138v-44h-138v-154h-56z" />
    <glyph glyph-name="brokenbar" unicode="&#xa6;" horiz-adv-x="226" 
d="M88 357v386h50v-386h-50zM88 -253v387h50v-387h-50z" />
    <glyph glyph-name="section" unicode="&#xa7;" horiz-adv-x="536" 
d="M263 -14q-71 0 -142 18l5 43q65 -16 133 -16q137 0 137 83q0 33 -21 53t-71 32l-78 18q-75 18 -105.5 49t-30.5 87q0 70 56 111q-52 35 -52 103q0 67 49.5 98.5t132.5 31.5q54 0 124 -17l-8 -42q-58 14 -115 14q-66 0 -99.5 -18.5t-33.5 -62.5q0 -35 19.5 -55.5
t70.5 -32.5l76 -18q76 -18 106 -47.5t30 -87.5q0 -67 -55 -109q55 -35 55 -107q0 -65 -48.5 -96.5t-134.5 -31.5zM349 240q47 33 47 87q0 38 -21 57t-79 32l-75 18q-24 5 -35 10q-46 -30 -46 -88q0 -35 22 -56t77 -33l79 -18z" />
    <glyph glyph-name="dieresis" unicode="&#xa8;" horiz-adv-x="400" 
d="M105 615q-39 0 -39 39v9q0 41 39 41h8q39 0 39 -41v-9q0 -39 -39 -39h-8zM287 615q-39 0 -39 39v9q0 41 39 41h8q39 0 39 -41v-9q0 -39 -39 -39h-8z" />
    <glyph glyph-name="copyright" unicode="&#xa9;" horiz-adv-x="788" 
d="M394 -14q-163 0 -253.5 97.5t-90.5 258.5t90.5 258t253.5 97t253.5 -97t90.5 -258t-90.5 -258.5t-253.5 -97.5zM394 32q137 0 214.5 82.5t77.5 227.5t-77.5 227t-214.5 82t-214.5 -82t-77.5 -227t77.5 -227.5t214.5 -82.5zM412 167q-71 0 -109.5 43.5t-38.5 133.5
q0 86 37.5 132t104.5 46q47 0 79 -13l-5 -39q-30 10 -67 10q-53 0 -76 -33t-23 -103q0 -135 99 -135q35 0 68 8l1 -40q-33 -10 -70 -10z" />
    <glyph glyph-name="ordfeminine" unicode="&#xaa;" horiz-adv-x="400" 
d="M174 349q-53 0 -82.5 27t-29.5 76q0 41 23 67q27 32 106 32h78v30q0 39 -18 55.5t-58 16.5q-44 0 -89 -9l-5 41q50 12 96 12q66 0 94.5 -28t28.5 -92v-221h-39l-4 22q-49 -29 -101 -29zM184 394q47 0 85 20v96h-76q-45 0 -63 -14t-18 -44q0 -58 72 -58z" />
    <glyph glyph-name="guillemotleft" unicode="&#xab;" horiz-adv-x="507" 
d="M236 64l-125 145q-27 32 -27 53t27 53l125 145l29 -21l-119 -177l119 -177zM408 64l-125 145q-27 32 -27 53t27 53l125 145l29 -21l-119 -177l119 -177z" />
    <glyph glyph-name="logicalnot" unicode="&#xac;" horiz-adv-x="513" 
d="M362 223v168h-262v51h313v-219h-51z" />
    <glyph glyph-name="uni00AD" unicode="&#xad;" horiz-adv-x="317" 
d="M66 234v51h185v-51h-185z" />
    <glyph glyph-name="registered" unicode="&#xae;" horiz-adv-x="788" 
d="M394 -14q-163 0 -253.5 97.5t-90.5 258.5t90.5 258t253.5 97t253.5 -97t90.5 -258t-90.5 -258.5t-253.5 -97.5zM394 32q137 0 214.5 82.5t77.5 227.5t-77.5 227t-214.5 82t-214.5 -82t-77.5 -227t77.5 -227.5t214.5 -82.5zM288 175v343h100q74 0 102 -28q25 -24 25 -75
q0 -75 -64 -97l71 -143h-51l-64 135h-72v-135h-47zM335 351h56q40 0 57 14.5t17 52.5q0 33 -16.5 46t-58.5 13h-55v-126z" />
    <glyph glyph-name="macron" unicode="&#xaf;" horiz-adv-x="400" 
d="M78 618v49h243v-49h-243z" />
    <glyph glyph-name="degree" unicode="&#xb0;" horiz-adv-x="446" 
d="M223 351q-71 0 -115 46.5t-44 126.5t44 126.5t115 46.5t115 -46.5t44 -126.5t-44 -126.5t-115 -46.5zM223 399q51 0 77.5 33t26.5 92t-26.5 92t-77.5 33t-77.5 -33t-26.5 -92t26.5 -92t77.5 -33z" />
    <glyph glyph-name="plusminus" unicode="&#xb1;" horiz-adv-x="513" 
d="M232 176v132h-132v49h132v132h49v-132h132v-49h-132v-132h-49zM100 0v49h313v-49h-313z" />
    <glyph glyph-name="uni00B2" unicode="&#xb2;" horiz-adv-x="460" 
d="M104 363q-2 10 -2 18q0 20 27 54l86 102q41 49 54.5 73t13.5 49q0 59 -79 59q-42 0 -86 -8v41q42 10 89 10q69 0 102 -32q25 -25 25 -69q0 -35 -17 -66t-63 -83l-92 -104h176v-44h-234z" />
    <glyph glyph-name="uni00B3" unicode="&#xb3;" horiz-adv-x="460" 
d="M197 352q-48 0 -85 10v41q43 -9 81 -9q94 0 94 76q0 73 -97 73h-12v41h12q91 0 91 68q0 30 -16 46q-19 21 -72 21q-31 0 -78 -7v39q43 9 83 9q70 0 103 -36q25 -28 25 -71q0 -65 -55 -88q67 -26 67 -99q0 -45 -29 -76q-38 -38 -112 -38z" />
    <glyph glyph-name="acute" unicode="&#xb4;" horiz-adv-x="400" 
d="M118 574l-23 29l171 157l38 -50z" />
    <glyph glyph-name="uni00B5" unicode="&#xb5;" horiz-adv-x="532" 
d="M74 -225v715h58v-324q0 -70 28 -98q29 -29 87 -29q75 0 153 39v412h58v-490h-46l-4 37q-84 -51 -170 -51q-66 0 -106 27v-238h-58z" />
    <glyph glyph-name="paragraph" unicode="&#xb6;" horiz-adv-x="570" 
d="M245 -203v546q-93 0 -146.5 44.5t-53.5 125.5q0 83 46 127t127 44h307v-52h-70v-835h-59v835h-92v-835h-59z" />
    <glyph glyph-name="periodcentered" unicode="&#xb7;" horiz-adv-x="222" 
d="M109 320q-39 0 -39 39v5q0 41 39 41h4q39 0 39 -41v-5q0 -39 -39 -39h-4z" />
    <glyph glyph-name="cedilla" unicode="&#xb8;" horiz-adv-x="400" 
d="M188 -211q-34 0 -68 9v40q35 -7 63 -7q50 0 50 29q0 15 -17 24.5t-38 14t-38 17.5t-17 34q0 27 24 53h31q-11 -19 -11 -34t17.5 -24.5t39 -14.5t39 -22t17.5 -46q0 -34 -24 -53.5t-68 -19.5z" />
    <glyph glyph-name="uni00B9" unicode="&#xb9;" horiz-adv-x="460" 
d="M130 363v43h86v303h-82v40q57 5 99 5q20 0 27 -6.5t7 -21.5v-320h71v-43h-208z" />
    <glyph glyph-name="ordmasculine" unicode="&#xba;" horiz-adv-x="420" 
d="M210 349q-71 0 -110.5 45.5t-39.5 128.5t39.5 128.5t110.5 45.5t110.5 -45.5t39.5 -128.5t-39.5 -128.5t-110.5 -45.5zM210 396q97 0 97 127t-97 127t-97 -127t97 -127z" />
    <glyph glyph-name="guillemotright" unicode="&#xbb;" horiz-adv-x="507" 
d="M99 64l-29 21l119 177l-119 177l29 21l125 -145q27 -32 27 -53t-27 -53zM271 64l-29 21l119 177l-119 177l29 21l125 -145q27 -32 27 -53t-27 -53z" />
    <glyph glyph-name="onequarter" unicode="&#xbc;" horiz-adv-x="900" 
d="M252 -14l344 711h54l-344 -711h-54zM112 298v43h86v303h-82v40q57 5 99 5q20 0 27 -6.5t7 -21.5v-320h71v-43h-208zM708 0v95h-183q-3 6 -3 17q0 12 8 36l87 239h49l-92 -252h134v104h48v-104h44v-40h-44v-95h-48z" />
    <glyph glyph-name="onehalf" unicode="&#xbd;" horiz-adv-x="900" 
d="M252 -14l344 711h54l-344 -711h-54zM112 298v43h86v303h-82v40q57 5 99 5q20 0 27 -6.5t7 -21.5v-320h71v-43h-208zM557 0q-2 10 -2 18q0 20 27 54l86 102q41 49 54.5 73t13.5 49q0 59 -79 59q-42 0 -86 -8v41q42 10 89 10q69 0 102 -32q25 -25 25 -69q0 -35 -17 -66
t-63 -83l-92 -104h176v-44h-234z" />
    <glyph glyph-name="threequarters" unicode="&#xbe;" horiz-adv-x="900" 
d="M261 -14l344 711h54l-344 -711h-54zM188 287q-48 0 -85 10v41q43 -9 81 -9q94 0 94 76q0 73 -97 73h-12v41h12q91 0 91 68q0 30 -16 46q-20 21 -72 21q-31 0 -78 -7v39q43 9 83 9q70 0 103 -36q25 -28 25 -71q0 -65 -55 -88q67 -26 67 -99q0 -45 -29 -76
q-38 -38 -112 -38zM722 0v95h-183q-3 6 -3 17q0 12 8 36l87 239h49l-92 -252h134v104h48v-104h44v-40h-44v-95h-48z" />
    <glyph glyph-name="questiondown" unicode="&#xbf;" horiz-adv-x="404" 
d="M247 494q39 0 39 -39v-5q0 -41 -39 -41h-4q-39 0 -39 41v5q0 39 39 39h4zM269 310q3 -16 3 -31q0 -43 -15 -75.5t-53 -77.5l-11 -13q-54 -63 -72.5 -97.5t-18.5 -73.5q0 -50 26 -76q32 -32 106 -32q63 0 122 14l8 -44q-60 -21 -133 -21q-93 0 -141 41q-48 40 -48 116
q0 47 19.5 86.5t71.5 97.5q60 67 75 98.5t15 87.5h46z" />
    <glyph glyph-name="Agrave" unicode="&#xc0;" horiz-adv-x="560" 
d="M353 754l-186 136l38 50l171 -157zM22 0l214 684h73l229 -684h-63l-61 187h-275l-57 -187h-60zM155 238h242l-125 384z" />
    <glyph glyph-name="Aacute" unicode="&#xc1;" horiz-adv-x="560" 
d="M198 754l-23 29l171 157l38 -50zM22 0l214 684h73l229 -684h-63l-61 187h-275l-57 -187h-60zM155 238h242l-125 384z" />
    <glyph glyph-name="Acircumflex" unicode="&#xc2;" horiz-adv-x="560" 
d="M148 754l-22 20l116 142h60l116 -142l-22 -20l-124 111zM22 0l214 684h73l229 -684h-63l-61 187h-275l-57 -187h-60zM155 238h242l-125 384z" />
    <glyph glyph-name="Atilde" unicode="&#xc3;" horiz-adv-x="560" 
d="M337 790q-26 0 -68.5 20t-60.5 20q-26 0 -42 -39l-36 7q11 88 76 88q26 0 68.5 -20t60.5 -20q26 0 42 39l36 -7q-11 -88 -76 -88zM22 0l214 684h73l229 -684h-63l-61 187h-275l-57 -187h-60zM155 238h242l-125 384z" />
    <glyph glyph-name="Adieresis" unicode="&#xc4;" horiz-adv-x="560" 
d="M177 795q-39 0 -39 39v9q0 41 39 41h8q39 0 39 -41v-9q0 -39 -39 -39h-8zM359 795q-39 0 -39 39v9q0 41 39 41h8q39 0 39 -41v-9q0 -39 -39 -39h-8zM22 0l214 684h73l229 -684h-63l-61 187h-275l-57 -187h-60zM155 238h242l-125 384z" />
    <glyph glyph-name="Aring" unicode="&#xc5;" horiz-adv-x="560" 
d="M270 761q-50 0 -78.5 27.5t-28.5 76.5v4q0 49 28.5 76.5t78.5 27.5h4q50 0 78.5 -27.5t28.5 -76.5v-4q0 -49 -28.5 -76.5t-78.5 -27.5h-4zM270 806h3q59 0 59 59v4q0 59 -59 59h-3q-58 0 -58 -59v-4q0 -59 58 -59zM22 0l214 684h73l229 -684h-63l-61 187h-275l-57 -187
h-60zM155 238h242l-125 384z" />
    <glyph glyph-name="AE" unicode="&#xc6;" horiz-adv-x="853" 
d="M10 0l392 684h389l-7 -52h-293v-259h241v-53h-241v-268h308v-52h-368v182h-255l-104 -182h-62zM205 233h226v395z" />
    <glyph glyph-name="Ccedilla" unicode="&#xc7;" horiz-adv-x="539" 
d="M365 -211q-33 0 -68 9v40q35 -7 63 -7q50 0 50 29q0 15 -17 24.5t-38 14t-38 17.5t-17 34q0 20 12 38q-125 11 -188.5 96t-63.5 254q0 176 72.5 267.5t211.5 91.5q81 0 150 -26l-11 -49q-68 21 -130 21q-117 0 -174 -75t-57 -228q0 -158 55 -228.5t186 -70.5q50 0 121 15
l8 -50q-73 -20 -141 -20h-4q-3 -9 -3 -17q0 -15 17.5 -24.5t39 -14.5t39 -22t17.5 -46q0 -34 -24 -53.5t-68 -19.5z" />
    <glyph glyph-name="Egrave" unicode="&#xc8;" horiz-adv-x="510" 
d="M365 754l-186 136l38 50l171 -157zM88 0v684h360l-7 -52h-293v-259h241v-53h-241v-268h308v-52h-368z" />
    <glyph glyph-name="Eacute" unicode="&#xc9;" horiz-adv-x="510" 
d="M210 754l-23 29l171 157l38 -50zM88 0v684h360l-7 -52h-293v-259h241v-53h-241v-268h308v-52h-368z" />
    <glyph glyph-name="Ecircumflex" unicode="&#xca;" horiz-adv-x="510" 
d="M160 754l-22 20l116 142h60l116 -142l-22 -20l-124 111zM88 0v684h360l-7 -52h-293v-259h241v-53h-241v-268h308v-52h-368z" />
    <glyph glyph-name="Edieresis" unicode="&#xcb;" horiz-adv-x="510" 
d="M189 795q-39 0 -39 39v9q0 41 39 41h8q39 0 39 -41v-9q0 -39 -39 -39h-8zM371 795q-39 0 -39 39v9q0 41 39 41h8q39 0 39 -41v-9q0 -39 -39 -39h-8zM88 0v684h360l-7 -52h-293v-259h241v-53h-241v-268h308v-52h-368z" />
    <glyph glyph-name="Igrave" unicode="&#xcc;" horiz-adv-x="240" 
d="M201 754l-186 136l38 50l171 -157zM90 0v684h60v-684h-60z" />
    <glyph glyph-name="Iacute" unicode="&#xcd;" horiz-adv-x="240" 
d="M46 754l-23 29l171 157l38 -50zM90 0v684h60v-684h-60z" />
    <glyph glyph-name="Icircumflex" unicode="&#xce;" horiz-adv-x="240" 
d="M-4 754l-22 20l116 142h60l116 -142l-22 -20l-124 111zM90 0v684h60v-684h-60z" />
    <glyph glyph-name="Idieresis" unicode="&#xcf;" horiz-adv-x="240" 
d="M25 795q-39 0 -39 39v9q0 41 39 41h8q39 0 39 -41v-9q0 -39 -39 -39h-8zM207 795q-39 0 -39 39v9q0 41 39 41h8q39 0 39 -41v-9q0 -39 -39 -39h-8zM90 0v684h60v-684h-60z" />
    <glyph glyph-name="Eth" unicode="&#xd0;" horiz-adv-x="628" 
d="M88 0v319h-84v45l84 10v310h161q91 0 149 -17t96 -57q74 -81 74 -265q0 -204 -88 -285q-64 -60 -207 -60h-185zM148 53h119q119 0 171 51q69 66 69 241q0 166 -63 230q-55 56 -196 56h-100v-257h162v-55h-162v-266z" />
    <glyph glyph-name="Ntilde" unicode="&#xd1;" horiz-adv-x="666" 
d="M407 790q-26 0 -68.5 20t-60.5 20q-26 0 -42 -39l-36 7q11 88 76 88q26 0 68.5 -20t60.5 -20q26 0 42 39l36 -7q-11 -88 -76 -88zM88 0v684h41l395 -575v575h54v-684h-45l-391 570v-570h-54z" />
    <glyph glyph-name="Ograve" unicode="&#xd2;" horiz-adv-x="640" 
d="M401 754l-186 136l38 50l171 -157zM320 -14q-260 0 -260 355q0 356 260 356t260 -356q0 -355 -260 -355zM320 43q106 0 152 76t46 222t-46 222.5t-152 76.5t-152 -76.5t-46 -222.5t46 -222t152 -76z" />
    <glyph glyph-name="Oacute" unicode="&#xd3;" horiz-adv-x="640" 
d="M246 754l-23 29l171 157l38 -50zM320 -14q-260 0 -260 355q0 356 260 356t260 -356q0 -355 -260 -355zM320 43q106 0 152 76t46 222t-46 222.5t-152 76.5t-152 -76.5t-46 -222.5t46 -222t152 -76z" />
    <glyph glyph-name="Ocircumflex" unicode="&#xd4;" horiz-adv-x="640" 
d="M196 754l-22 20l116 142h60l116 -142l-22 -20l-124 111zM320 -14q-260 0 -260 355q0 356 260 356t260 -356q0 -355 -260 -355zM320 43q106 0 152 76t46 222t-46 222.5t-152 76.5t-152 -76.5t-46 -222.5t46 -222t152 -76z" />
    <glyph glyph-name="Otilde" unicode="&#xd5;" horiz-adv-x="640" 
d="M385 790q-26 0 -68.5 20t-60.5 20q-26 0 -42 -39l-36 7q11 88 76 88q26 0 68.5 -20t60.5 -20q26 0 42 39l36 -7q-11 -88 -76 -88zM320 -14q-260 0 -260 355q0 356 260 356t260 -356q0 -355 -260 -355zM320 43q106 0 152 76t46 222t-46 222.5t-152 76.5t-152 -76.5
t-46 -222.5t46 -222t152 -76z" />
    <glyph glyph-name="Odieresis" unicode="&#xd6;" horiz-adv-x="640" 
d="M225 795q-39 0 -39 39v9q0 41 39 41h8q39 0 39 -41v-9q0 -39 -39 -39h-8zM407 795q-39 0 -39 39v9q0 41 39 41h8q39 0 39 -41v-9q0 -39 -39 -39h-8zM320 -14q-260 0 -260 355q0 356 260 356t260 -356q0 -355 -260 -355zM320 43q106 0 152 76t46 222t-46 222.5t-152 76.5
t-152 -76.5t-46 -222.5t46 -222t152 -76z" />
    <glyph glyph-name="multiply" unicode="&#xd7;" horiz-adv-x="513" 
d="M163 205l-34 34l93 93l-93 94l34 34l93 -93l94 93l34 -34l-93 -94l93 -93l-34 -34l-94 93z" />
    <glyph glyph-name="Oslash" unicode="&#xd8;" horiz-adv-x="640" 
d="M134 -74l39 101q-113 82 -113 314q0 356 260 356q60 0 104 -19l31 79h53l-40 -103q112 -82 112 -313q0 -355 -260 -355q-58 0 -103 18l-30 -78h-53zM196 85l207 539q-37 16 -83 16q-106 0 -152 -76.5t-46 -222.5q0 -189 74 -256zM320 43q106 0 152 76t46 222
q0 186 -73 255l-207 -538q34 -15 82 -15z" />
    <glyph glyph-name="Ugrave" unicode="&#xd9;" horiz-adv-x="637" 
d="M400 754l-186 136l38 50l171 -157zM322 -14q-124 0 -182 60q-58 59 -58 187v451h60v-448q0 -108 44 -152q43 -42 139 -42q82 0 125 38q51 47 51 156v448h54v-456q0 -125 -61 -184q-60 -58 -172 -58z" />
    <glyph glyph-name="Uacute" unicode="&#xda;" horiz-adv-x="637" 
d="M245 754l-23 29l171 157l38 -50zM322 -14q-124 0 -182 60q-58 59 -58 187v451h60v-448q0 -108 44 -152q43 -42 139 -42q82 0 125 38q51 47 51 156v448h54v-456q0 -125 -61 -184q-60 -58 -172 -58z" />
    <glyph glyph-name="Ucircumflex" unicode="&#xdb;" horiz-adv-x="637" 
d="M195 754l-22 20l116 142h60l116 -142l-22 -20l-124 111zM322 -14q-124 0 -182 60q-58 59 -58 187v451h60v-448q0 -108 44 -152q43 -42 139 -42q82 0 125 38q51 47 51 156v448h54v-456q0 -125 -61 -184q-60 -58 -172 -58z" />
    <glyph glyph-name="Udieresis" unicode="&#xdc;" horiz-adv-x="637" 
d="M224 795q-39 0 -39 39v9q0 41 39 41h8q39 0 39 -41v-9q0 -39 -39 -39h-8zM406 795q-39 0 -39 39v9q0 41 39 41h8q39 0 39 -41v-9q0 -39 -39 -39h-8zM322 -14q-124 0 -182 60q-58 59 -58 187v451h60v-448q0 -108 44 -152q43 -42 139 -42q82 0 125 38q51 47 51 156v448h54
v-456q0 -125 -61 -184q-60 -58 -172 -58z" />
    <glyph glyph-name="Yacute" unicode="&#xdd;" horiz-adv-x="546" 
d="M199 754l-23 29l171 157l38 -50zM238 0v281l-216 403h66l184 -351l191 351h61l-226 -406v-278h-60z" />
    <glyph glyph-name="Thorn" unicode="&#xde;" horiz-adv-x="557" 
d="M88 0v684h60v-120h130q124 0 179 -54q50 -50 50 -150q0 -108 -51 -162q-52 -55 -158 -55h-150v-143h-60zM148 196h126q97 0 134 37t37 125q0 75 -34 114q-20 23 -51 31.5t-88 8.5h-124v-316z" />
    <glyph glyph-name="germandbls" unicode="&#xdf;" horiz-adv-x="613" 
d="M384 -14q-57 0 -131 17l3 47q68 -16 127 -16q73 0 106 27q28 23 28 65q0 33 -24.5 57t-59.5 38.5l-70 30t-59.5 43t-24.5 66.5q0 36 24 66t53 48.5t53 47.5t24 63q0 44 -31 70t-88 26q-70 0 -110 -43q-38 -41 -38 -141v-498h-58v444h-90v35l90 11v5q0 121 54 178
q57 59 151 59q82 0 129 -39.5t47 -102.5q0 -36 -16 -65.5t-38.5 -48.5t-44.5 -35.5t-38 -35t-16 -39.5q0 -25 24.5 -44t59 -33.5t69.5 -32.5t59.5 -50.5t24.5 -78.5q0 -65 -45 -102q-48 -39 -144 -39z" />
    <glyph glyph-name="agrave" unicode="&#xe0;" horiz-adv-x="489" 
d="M328 574l-186 136l38 50l171 -157zM210 -14q-74 0 -119 39t-45 113q0 67 38 103q48 45 158 45h118v40q0 69 -29 98q-28 29 -99 29q-67 0 -137 -16l-4 48q73 19 146 19q99 0 141 -43q40 -42 40 -127v-334h-47l-3 33q-78 -47 -158 -47zM220 37q77 0 140 36v166h-109
q-87 0 -119 -28q-28 -24 -28 -72q0 -102 116 -102z" />
    <glyph glyph-name="aacute" unicode="&#xe1;" horiz-adv-x="489" 
d="M165 574l-23 29l171 157l38 -50zM210 -14q-74 0 -119 39t-45 113q0 67 38 103q48 45 158 45h118v40q0 69 -29 98q-28 29 -99 29q-67 0 -137 -16l-4 48q73 19 146 19q99 0 141 -43q40 -42 40 -127v-334h-47l-3 33q-78 -47 -158 -47zM220 37q77 0 140 36v166h-109
q-87 0 -119 -28q-28 -24 -28 -72q0 -102 116 -102z" />
    <glyph glyph-name="acircumflex" unicode="&#xe2;" horiz-adv-x="489" 
d="M123 584l-22 20l116 142h60l116 -142l-22 -20l-124 111zM210 -14q-74 0 -119 39t-45 113q0 67 38 103q48 45 158 45h118v40q0 69 -29 98q-28 29 -99 29q-67 0 -137 -16l-4 48q73 19 146 19q99 0 141 -43q40 -42 40 -127v-334h-47l-3 33q-78 -47 -158 -47zM220 37
q77 0 140 36v166h-109q-87 0 -119 -28q-28 -24 -28 -72q0 -102 116 -102z" />
    <glyph glyph-name="atilde" unicode="&#xe3;" horiz-adv-x="489" 
d="M312 610q-26 0 -68.5 20t-60.5 20q-26 0 -42 -39l-36 7q11 88 76 88q26 0 68.5 -20t60.5 -20q26 0 42 39l36 -7q-11 -88 -76 -88zM210 -14q-74 0 -119 39t-45 113q0 67 38 103q48 45 158 45h118v40q0 69 -29 98q-28 29 -99 29q-67 0 -137 -16l-4 48q73 19 146 19
q99 0 141 -43q40 -42 40 -127v-334h-47l-3 33q-78 -47 -158 -47zM220 37q77 0 140 36v166h-109q-87 0 -119 -28q-28 -24 -28 -72q0 -102 116 -102z" />
    <glyph glyph-name="adieresis" unicode="&#xe4;" horiz-adv-x="489" 
d="M152 615q-39 0 -39 39v9q0 41 39 41h8q39 0 39 -41v-9q0 -39 -39 -39h-8zM334 615q-39 0 -39 39v9q0 41 39 41h8q39 0 39 -41v-9q0 -39 -39 -39h-8zM210 -14q-74 0 -119 39t-45 113q0 67 38 103q48 45 158 45h118v40q0 69 -29 98q-28 29 -99 29q-67 0 -137 -16l-4 48
q73 19 146 19q99 0 141 -43q40 -42 40 -127v-334h-47l-3 33q-78 -47 -158 -47zM220 37q77 0 140 36v166h-109q-87 0 -119 -28q-28 -24 -28 -72q0 -102 116 -102z" />
    <glyph glyph-name="aring" unicode="&#xe5;" horiz-adv-x="489" 
d="M245 581q-50 0 -78.5 27.5t-28.5 76.5v4q0 49 28.5 76.5t78.5 27.5h4q50 0 78.5 -27.5t28.5 -76.5v-4q0 -49 -28.5 -76.5t-78.5 -27.5h-4zM245 626h3q59 0 59 59v4q0 59 -59 59h-3q-58 0 -58 -59v-4q0 -59 58 -59zM210 -14q-74 0 -119 39t-45 113q0 67 38 103
q48 45 158 45h118v40q0 69 -29 98q-28 29 -99 29q-67 0 -137 -16l-4 48q73 19 146 19q99 0 141 -43q40 -42 40 -127v-334h-47l-3 33q-78 -47 -158 -47zM220 37q77 0 140 36v166h-109q-87 0 -119 -28q-28 -24 -28 -72q0 -102 116 -102z" />
    <glyph glyph-name="ae" unicode="&#xe6;" horiz-adv-x="802" 
d="M590 -15q-122 0 -179 69q-40 -31 -94.5 -49.5t-106.5 -18.5q-74 0 -119 39t-45 113q0 67 38 103q48 45 158 45h118v40q0 69 -29 98q-28 29 -99 29q-67 0 -137 -16l-4 48q73 19 146 19q99 0 141 -43q16 -18 24 -36q53 78 155 78q193 0 193 -262v-9q0 -11 -12 -11h-320
q2 -92 42.5 -139t133.5 -47q57 0 124 15l5 -47q-59 -18 -133 -18zM418 268h275q0 88 -33.5 137.5t-102.5 49.5q-64 0 -99 -42.5t-40 -119.5v-25zM220 37q92 0 167 56q-27 58 -27 146h-109q-87 0 -119 -28q-28 -24 -28 -72q0 -102 116 -102z" />
    <glyph glyph-name="ccedilla" unicode="&#xe7;" horiz-adv-x="436" 
d="M279 -211q-34 0 -68 9v40q35 -7 63 -7q50 0 50 29q0 15 -17 24.5t-38 14t-38 17.5t-17 34q0 20 13 41q-177 27 -177 249q0 131 58.5 197.5t170.5 66.5q64 0 114 -17l-4 -48q-57 15 -102 15q-97 0 -137 -50.5t-40 -161.5q0 -109 43 -157.5t145 -48.5q47 0 93 10l5 -48
q-50 -12 -111 -12q-16 0 -24 1q-3 -9 -3 -18q0 -15 17.5 -24.5t39 -14.5t39 -22t17.5 -46q0 -34 -24 -53.5t-68 -19.5z" />
    <glyph glyph-name="egrave" unicode="&#xe8;" horiz-adv-x="495" 
d="M337 574l-186 136l38 50l171 -157zM283 -15q-233 0 -233 259q0 120 50.5 189.5t149.5 69.5q193 0 193 -262v-9q0 -11 -12 -11h-320q2 -92 42.5 -139t133.5 -47q57 0 124 15l5 -47q-59 -18 -133 -18zM110 268h276q0 88 -33.5 137.5t-102.5 49.5t-104 -49.5t-36 -137.5z
" />
    <glyph glyph-name="eacute" unicode="&#xe9;" horiz-adv-x="495" 
d="M174 574l-23 29l171 157l38 -50zM283 -15q-233 0 -233 259q0 120 50.5 189.5t149.5 69.5q193 0 193 -262v-9q0 -11 -12 -11h-320q2 -92 42.5 -139t133.5 -47q57 0 124 15l5 -47q-59 -18 -133 -18zM110 268h276q0 88 -33.5 137.5t-102.5 49.5t-104 -49.5t-36 -137.5z" />
    <glyph glyph-name="ecircumflex" unicode="&#xea;" horiz-adv-x="495" 
d="M132 584l-22 20l116 142h60l116 -142l-22 -20l-124 111zM283 -15q-233 0 -233 259q0 120 50.5 189.5t149.5 69.5q193 0 193 -262v-9q0 -11 -12 -11h-320q2 -92 42.5 -139t133.5 -47q57 0 124 15l5 -47q-59 -18 -133 -18zM110 268h276q0 88 -33.5 137.5t-102.5 49.5
t-104 -49.5t-36 -137.5z" />
    <glyph glyph-name="edieresis" unicode="&#xeb;" horiz-adv-x="495" 
d="M161 615q-39 0 -39 39v9q0 41 39 41h8q39 0 39 -41v-9q0 -39 -39 -39h-8zM343 615q-39 0 -39 39v9q0 41 39 41h8q39 0 39 -41v-9q0 -39 -39 -39h-8zM283 -15q-233 0 -233 259q0 120 50.5 189.5t149.5 69.5q193 0 193 -262v-9q0 -11 -12 -11h-320q2 -92 42.5 -139
t133.5 -47q57 0 124 15l5 -47q-59 -18 -133 -18zM110 268h276q0 88 -33.5 137.5t-102.5 49.5t-104 -49.5t-36 -137.5z" />
    <glyph glyph-name="igrave" unicode="&#xec;" horiz-adv-x="210" 
d="M186 574l-186 136l38 50l171 -157zM76 0v490h58v-490h-58z" />
    <glyph glyph-name="iacute" unicode="&#xed;" horiz-adv-x="210" 
d="M23 574l-23 29l171 157l38 -50zM76 0v490h58v-490h-58z" />
    <glyph glyph-name="icircumflex" unicode="&#xee;" horiz-adv-x="210" 
d="M-19 584l-22 20l116 142h60l116 -142l-22 -20l-124 111zM76 0v490h58v-490h-58z" />
    <glyph glyph-name="idieresis" unicode="&#xef;" horiz-adv-x="210" 
d="M10 615q-39 0 -39 39v9q0 41 39 41h8q39 0 39 -41v-9q0 -39 -39 -39h-8zM192 615q-39 0 -39 39v9q0 41 39 41h8q39 0 39 -41v-9q0 -39 -39 -39h-8zM76 0v490h58v-490h-58z" />
    <glyph glyph-name="eth" unicode="&#xf0;" horiz-adv-x="535" 
d="M264 -15q-99 0 -155 63.5t-56 175.5q0 115 53.5 178.5t150.5 63.5q75 0 143 -29q-30 104 -106 198l-80 -59l-22 31l77 57q-39 42 -87 84l25 27q55 -41 99 -84l84 62l22 -31l-80 -59q148 -168 148 -381q0 -297 -216 -297zM264 35q85 0 121 63t36 182q0 50 -10 108
q-73 30 -139 30q-161 0 -161 -189q0 -88 38 -141t115 -53z" />
    <glyph glyph-name="ntilde" unicode="&#xf1;" horiz-adv-x="531" 
d="M351 610q-26 0 -68.5 20t-60.5 20q-26 0 -42 -39l-36 7q11 88 76 88q26 0 68.5 -20t60.5 -20q26 0 42 39l36 -7q-11 -88 -76 -88zM74 0v490h46l4 -37q84 51 172 51q82 0 123 -41t41 -124v-339h-58v324q0 70 -28 98q-29 29 -87 29q-77 0 -155 -39v-412h-58z" />
    <glyph glyph-name="ograve" unicode="&#xf2;" horiz-adv-x="522" 
d="M342 574l-186 136l38 50l171 -157zM261 -14q-211 0 -211 259t211 259t211 -259t-211 -259zM261 36q81 0 116 52t35 157t-35 157t-116 52t-116 -52t-35 -157t35 -157t116 -52z" />
    <glyph glyph-name="oacute" unicode="&#xf3;" horiz-adv-x="522" 
d="M179 574l-23 29l171 157l38 -50zM261 -14q-211 0 -211 259t211 259t211 -259t-211 -259zM261 36q81 0 116 52t35 157t-35 157t-116 52t-116 -52t-35 -157t35 -157t116 -52z" />
    <glyph glyph-name="ocircumflex" unicode="&#xf4;" horiz-adv-x="522" 
d="M137 584l-22 20l116 142h60l116 -142l-22 -20l-124 111zM261 -14q-211 0 -211 259t211 259t211 -259t-211 -259zM261 36q81 0 116 52t35 157t-35 157t-116 52t-116 -52t-35 -157t35 -157t116 -52z" />
    <glyph glyph-name="otilde" unicode="&#xf5;" horiz-adv-x="522" 
d="M326 610q-26 0 -68.5 20t-60.5 20q-26 0 -42 -39l-36 7q11 88 76 88q26 0 68.5 -20t60.5 -20q26 0 42 39l36 -7q-11 -88 -76 -88zM261 -14q-211 0 -211 259t211 259t211 -259t-211 -259zM261 36q81 0 116 52t35 157t-35 157t-116 52t-116 -52t-35 -157t35 -157t116 -52z
" />
    <glyph glyph-name="odieresis" unicode="&#xf6;" horiz-adv-x="522" 
d="M166 615q-39 0 -39 39v9q0 41 39 41h8q39 0 39 -41v-9q0 -39 -39 -39h-8zM348 615q-39 0 -39 39v9q0 41 39 41h8q39 0 39 -41v-9q0 -39 -39 -39h-8zM261 -14q-211 0 -211 259t211 259t211 -259t-211 -259zM261 36q81 0 116 52t35 157t-35 157t-116 52t-116 -52t-35 -157
t35 -157t116 -52z" />
    <glyph glyph-name="divide" unicode="&#xf7;" horiz-adv-x="513" 
d="M254 438q-38 0 -38 40v3q0 40 38 40h4q38 0 38 -40v-3q0 -40 -38 -40h-4zM100 308v49h313v-49h-313zM254 139q-38 0 -38 40v3q0 40 38 40h4q38 0 38 -40v-3q0 -40 -38 -40h-4z" />
    <glyph glyph-name="oslash" unicode="&#xf8;" horiz-adv-x="522" 
d="M108 -84l38 98q-96 57 -96 231q0 259 214 259q38 0 70 -9l31 79h50l-38 -97q95 -56 95 -232q0 -259 -211 -259q-41 0 -72 9l-31 -79h-50zM166 65l149 382q-22 7 -54 7q-81 0 -116 -52t-35 -157q0 -134 56 -180zM261 36q81 0 116 52t35 157q0 133 -56 179l-149 -381
q22 -7 54 -7z" />
    <glyph glyph-name="ugrave" unicode="&#xf9;" horiz-adv-x="529" 
d="M347 574l-186 136l38 50l171 -157zM235 -14q-82 0 -123 41t-41 124v339h58v-324q0 -70 28 -98q29 -29 87 -29q75 0 153 39v412h58v-490h-46l-4 37q-84 -51 -170 -51z" />
    <glyph glyph-name="uacute" unicode="&#xfa;" horiz-adv-x="529" 
d="M184 574l-23 29l171 157l38 -50zM235 -14q-82 0 -123 41t-41 124v339h58v-324q0 -70 28 -98q29 -29 87 -29q75 0 153 39v412h58v-490h-46l-4 37q-84 -51 -170 -51z" />
    <glyph glyph-name="ucircumflex" unicode="&#xfb;" horiz-adv-x="529" 
d="M142 584l-22 20l116 142h60l116 -142l-22 -20l-124 111zM235 -14q-82 0 -123 41t-41 124v339h58v-324q0 -70 28 -98q29 -29 87 -29q75 0 153 39v412h58v-490h-46l-4 37q-84 -51 -170 -51z" />
    <glyph glyph-name="udieresis" unicode="&#xfc;" horiz-adv-x="529" 
d="M171 615q-39 0 -39 39v9q0 41 39 41h8q39 0 39 -41v-9q0 -39 -39 -39h-8zM353 615q-39 0 -39 39v9q0 41 39 41h8q39 0 39 -41v-9q0 -39 -39 -39h-8zM235 -14q-82 0 -123 41t-41 124v339h58v-324q0 -70 28 -98q29 -29 87 -29q75 0 153 39v412h58v-490h-46l-4 37
q-84 -51 -170 -51z" />
    <glyph glyph-name="yacute" unicode="&#xfd;" horiz-adv-x="529" 
d="M183 574l-23 29l171 157l38 -50zM269 -239q-44 0 -73 7l-7 49q30 -5 70 -5q77 0 108 27q30 27 30 108v85q-81 -46 -162 -46q-82 0 -123 41t-41 124v339h58v-324q0 -70 28 -98q29 -29 87 -29q75 0 153 39v412h58v-545q0 -97 -40 -138q-45 -46 -146 -46z" />
    <glyph glyph-name="thorn" unicode="&#xfe;" horiz-adv-x="515" 
d="M74 -225v940h58v-258q73 47 145 47q188 0 188 -257q0 -145 -60 -211q-46 -50 -131 -50q-80 0 -142 41v-252h-58zM264 37q79 0 111 53q30 51 30 158q0 112 -36 161q-33 44 -101 44q-63 0 -136 -41v-335q57 -40 132 -40z" />
    <glyph glyph-name="ydieresis" unicode="&#xff;" horiz-adv-x="529" 
d="M170 615q-39 0 -39 39v9q0 41 39 41h8q39 0 39 -41v-9q0 -39 -39 -39h-8zM352 615q-39 0 -39 39v9q0 41 39 41h8q39 0 39 -41v-9q0 -39 -39 -39h-8zM269 -239q-44 0 -73 7l-7 49q30 -5 70 -5q77 0 108 27q30 27 30 108v85q-81 -46 -162 -46q-82 0 -123 41t-41 124v339h58
v-324q0 -70 28 -98q29 -29 87 -29q75 0 153 39v412h58v-545q0 -97 -40 -138q-45 -46 -146 -46z" />
    <glyph glyph-name="Amacron" unicode="&#x100;" horiz-adv-x="560" 
d="M150 808v49h243v-49h-243zM22 0l214 684h73l229 -684h-63l-61 187h-275l-57 -187h-60zM155 238h242l-125 384z" />
    <glyph glyph-name="amacron" unicode="&#x101;" horiz-adv-x="489" 
d="M125 618v49h243v-49h-243zM210 -14q-74 0 -119 39t-45 113q0 67 38 103q48 45 158 45h118v40q0 69 -29 98q-28 29 -99 29q-67 0 -137 -16l-4 48q73 19 146 19q99 0 141 -43q40 -42 40 -127v-334h-47l-3 33q-78 -47 -158 -47zM220 37q77 0 140 36v166h-109q-87 0 -119 -28
q-28 -24 -28 -72q0 -102 116 -102z" />
    <glyph glyph-name="Abreve" unicode="&#x102;" horiz-adv-x="560" 
d="M270 766q-61 0 -92 34.5t-33 91.5h39q14 -74 86 -74t86 74h39q-2 -57 -33 -91.5t-92 -34.5zM22 0l214 684h73l229 -684h-63l-61 187h-275l-57 -187h-60zM155 238h242l-125 384z" />
    <glyph glyph-name="abreve" unicode="&#x103;" horiz-adv-x="489" 
d="M247 586q-61 0 -92 34.5t-33 91.5h39q14 -74 86 -74t86 74h39q-2 -57 -33 -91.5t-92 -34.5zM210 -14q-74 0 -119 39t-45 113q0 67 38 103q48 45 158 45h118v40q0 69 -29 98q-28 29 -99 29q-67 0 -137 -16l-4 48q73 19 146 19q99 0 141 -43q40 -42 40 -127v-334h-47l-3 33
q-78 -47 -158 -47zM220 37q77 0 140 36v166h-109q-87 0 -119 -28q-28 -24 -28 -72q0 -102 116 -102z" />
    <glyph glyph-name="Aogonek" unicode="&#x104;" horiz-adv-x="560" 
d="M475 -211q-47 0 -72 24.5t-25 65.5q0 42 26 77t66 57l-56 174h-275l-57 -187h-60l214 684h73l229 -684h-5q-36 0 -64 -28q-40 -41 -40 -86q0 -54 59 -54q18 0 63 6v-38q-46 -11 -76 -11zM155 238h242l-125 384z" />
    <glyph glyph-name="aogonek" unicode="&#x105;" horiz-adv-x="489" 
d="M379 -211q-47 0 -73.5 25t-26.5 65q0 27 15.5 52.5t32.5 39.5t43 32l-2 30q-78 -47 -158 -47q-74 0 -119 39t-45 113q0 67 38 103q48 45 158 45h118v40q0 69 -29 98q-28 29 -99 29q-67 0 -137 -16l-4 48q73 19 146 19q99 0 141 -43q40 -42 40 -127v-334q-44 -33 -66 -58
t-22 -56q0 -26 16.5 -40t45.5 -14q21 0 29 1v-41q-18 -3 -42 -3zM220 37q77 0 140 36v166h-109q-87 0 -119 -28q-28 -24 -28 -72q0 -102 116 -102z" />
    <glyph glyph-name="Cacute" unicode="&#x106;" horiz-adv-x="539" 
d="M265 754l-23 29l171 157l38 -50zM351 -14q-145 0 -218 85t-73 267q0 176 72.5 267.5t211.5 91.5q81 0 150 -26l-11 -49q-68 21 -130 21q-117 0 -174 -75t-57 -228q0 -158 55 -228.5t186 -70.5q50 0 121 15l8 -50q-73 -20 -141 -20z" />
    <glyph glyph-name="cacute" unicode="&#x107;" horiz-adv-x="436" 
d="M187 574l-23 29l171 157l38 -50zM285 -14q-235 0 -235 254q0 131 58.5 197.5t170.5 66.5q64 0 114 -17l-4 -48q-57 15 -102 15q-97 0 -137 -50.5t-40 -161.5q0 -109 43 -157.5t145 -48.5q47 0 93 10l5 -48q-50 -12 -111 -12z" />
    <glyph glyph-name="Ccircumflex" unicode="&#x108;" horiz-adv-x="539" 
d="M215 754l-22 20l116 142h60l116 -142l-22 -20l-124 111zM351 -14q-145 0 -218 85t-73 267q0 176 72.5 267.5t211.5 91.5q81 0 150 -26l-11 -49q-68 21 -130 21q-117 0 -174 -75t-57 -228q0 -158 55 -228.5t186 -70.5q50 0 121 15l8 -50q-73 -20 -141 -20z" />
    <glyph glyph-name="ccircumflex" unicode="&#x109;" horiz-adv-x="436" 
d="M145 584l-22 20l116 142h60l116 -142l-22 -20l-124 111zM285 -14q-235 0 -235 254q0 131 58.5 197.5t170.5 66.5q64 0 114 -17l-4 -48q-57 15 -102 15q-97 0 -137 -50.5t-40 -161.5q0 -109 43 -157.5t145 -48.5q47 0 93 10l5 -48q-50 -12 -111 -12z" />
    <glyph glyph-name="Cdotaccent" unicode="&#x10a;" horiz-adv-x="539" 
d="M335 788q-42 0 -42 43v10q0 43 42 43h8q42 0 42 -43v-10q0 -43 -42 -43h-8zM351 -14q-145 0 -218 85t-73 267q0 176 72.5 267.5t211.5 91.5q81 0 150 -26l-11 -49q-68 21 -130 21q-117 0 -174 -75t-57 -228q0 -158 55 -228.5t186 -70.5q50 0 121 15l8 -50
q-73 -20 -141 -20z" />
    <glyph glyph-name="cdotaccent" unicode="&#x10b;" horiz-adv-x="436" 
d="M265 608q-42 0 -42 43v10q0 43 42 43h8q42 0 42 -43v-10q0 -43 -42 -43h-8zM285 -14q-235 0 -235 254q0 131 58.5 197.5t170.5 66.5q64 0 114 -17l-4 -48q-57 15 -102 15q-97 0 -137 -50.5t-40 -161.5q0 -109 43 -157.5t145 -48.5q47 0 93 10l5 -48q-50 -12 -111 -12z
" />
    <glyph glyph-name="Ccaron" unicode="&#x10c;" horiz-adv-x="539" 
d="M309 762l-116 142l22 20l124 -111l124 111l22 -20l-116 -142h-60zM351 -14q-145 0 -218 85t-73 267q0 176 72.5 267.5t211.5 91.5q81 0 150 -26l-11 -49q-68 21 -130 21q-117 0 -174 -75t-57 -228q0 -158 55 -228.5t186 -70.5q50 0 121 15l8 -50q-73 -20 -141 -20z" />
    <glyph glyph-name="ccaron" unicode="&#x10d;" horiz-adv-x="436" 
d="M239 592l-116 142l22 20l124 -111l124 111l22 -20l-116 -142h-60zM285 -14q-235 0 -235 254q0 131 58.5 197.5t170.5 66.5q64 0 114 -17l-4 -48q-57 15 -102 15q-97 0 -137 -50.5t-40 -161.5q0 -109 43 -157.5t145 -48.5q47 0 93 10l5 -48q-50 -12 -111 -12z" />
    <glyph glyph-name="Dcaron" unicode="&#x10e;" horiz-adv-x="628" 
d="M284 762l-116 142l22 20l124 -111l124 111l22 -20l-116 -142h-60zM88 0v684h161q91 0 149 -17t96 -57q74 -81 74 -265q0 -204 -88 -285q-64 -60 -207 -60h-185zM148 53h119q119 0 171 51q69 66 69 241q0 166 -63 230q-55 56 -196 56h-100v-578z" />
    <glyph glyph-name="dcaron" unicode="&#x10f;" horiz-adv-x="600" 
d="M250 -14q-200 0 -200 257q0 122 50 191.5t150 69.5q68 0 136 -34v245h58v-715h-46l-3 30q-68 -44 -145 -44zM536 522v96q-32 9 -32 38v5q0 18 11 27t26 9h4q35 -1 35 -52q0 -69 -18 -123h-26zM253 37q67 0 133 33v352q-68 31 -125 31q-81 0 -116 -52t-35 -157
q0 -106 34 -156.5t109 -50.5z" />
    <glyph glyph-name="Dcroat" unicode="&#x110;" horiz-adv-x="628" 
d="M88 0v319h-84v45l84 10v310h161q91 0 149 -17t96 -57q74 -81 74 -265q0 -204 -88 -285q-64 -60 -207 -60h-185zM148 53h119q119 0 171 51q69 66 69 241q0 166 -63 230q-55 56 -196 56h-100v-257h162v-55h-162v-266z" />
    <glyph glyph-name="dcroat" unicode="&#x111;" horiz-adv-x="518" 
d="M250 -14q-200 0 -200 257q0 122 50 191.5t150 69.5q68 0 136 -34v116h-152v44h152v85h58v-87l77 -7v-35h-77v-586h-46l-3 30q-68 -44 -145 -44zM253 37q67 0 133 33v352q-68 31 -125 31q-81 0 -116 -52t-35 -157q0 -106 34 -156.5t109 -50.5z" />
    <glyph glyph-name="Emacron" unicode="&#x112;" horiz-adv-x="510" 
d="M162 808v49h243v-49h-243zM88 0v684h360l-7 -52h-293v-259h241v-53h-241v-268h308v-52h-368z" />
    <glyph glyph-name="emacron" unicode="&#x113;" horiz-adv-x="495" 
d="M134 618v49h243v-49h-243zM283 -15q-233 0 -233 259q0 120 50.5 189.5t149.5 69.5q193 0 193 -262v-9q0 -11 -12 -11h-320q2 -92 42.5 -139t133.5 -47q57 0 124 15l5 -47q-59 -18 -133 -18zM110 268h276q0 88 -33.5 137.5t-102.5 49.5t-104 -49.5t-36 -137.5z" />
    <glyph glyph-name="Ebreve" unicode="&#x114;" horiz-adv-x="510" 
d="M282 766q-61 0 -92 34.5t-33 91.5h39q14 -74 86 -74t86 74h39q-2 -57 -33 -91.5t-92 -34.5zM88 0v684h360l-7 -52h-293v-259h241v-53h-241v-268h308v-52h-368z" />
    <glyph glyph-name="ebreve" unicode="&#x115;" horiz-adv-x="495" 
d="M256 586q-61 0 -92 34.5t-33 91.5h39q14 -74 86 -74t86 74h39q-2 -57 -33 -91.5t-92 -34.5zM283 -15q-233 0 -233 259q0 120 50.5 189.5t149.5 69.5q193 0 193 -262v-9q0 -11 -12 -11h-320q2 -92 42.5 -139t133.5 -47q57 0 124 15l5 -47q-59 -18 -133 -18zM110 268h276
q0 88 -33.5 137.5t-102.5 49.5t-104 -49.5t-36 -137.5z" />
    <glyph glyph-name="Edotaccent" unicode="&#x116;" horiz-adv-x="510" 
d="M280 788q-42 0 -42 43v10q0 43 42 43h8q42 0 42 -43v-10q0 -43 -42 -43h-8zM88 0v684h360l-7 -52h-293v-259h241v-53h-241v-268h308v-52h-368z" />
    <glyph glyph-name="edotaccent" unicode="&#x117;" horiz-adv-x="495" 
d="M252 608q-42 0 -42 43v10q0 43 42 43h8q42 0 42 -43v-10q0 -43 -42 -43h-8zM283 -15q-233 0 -233 259q0 120 50.5 189.5t149.5 69.5q193 0 193 -262v-9q0 -11 -12 -11h-320q2 -92 42.5 -139t133.5 -47q57 0 124 15l5 -47q-59 -18 -133 -18zM110 268h276q0 88 -33.5 137.5
t-102.5 49.5t-104 -49.5t-36 -137.5z" />
    <glyph glyph-name="Eogonek" unicode="&#x118;" horiz-adv-x="510" 
d="M385 -211q-47 0 -72 24.5t-25 65.5q0 72 70 121h-270v684h360l-7 -52h-293v-259h241v-53h-241v-268h308v-52h-18q-31 0 -59 -28q-40 -41 -40 -86q0 -54 59 -54q18 0 63 6v-38q-46 -11 -76 -11z" />
    <glyph glyph-name="eogonek" unicode="&#x119;" horiz-adv-x="495" 
d="M347 -211q-47 0 -72 24.5t-25 65.5q0 69 53 107q-7 -1 -20 -1q-233 0 -233 259q0 120 50.5 189.5t149.5 69.5q193 0 193 -262v-9q0 -11 -12 -11h-320q2 -92 42.5 -139t133.5 -47q57 0 124 15l5 -47q-58 -13 -89 -47q-26 -30 -26 -69q0 -55 59 -55q18 0 63 6v-38
q-46 -11 -76 -11zM110 268h276q0 88 -33.5 137.5t-102.5 49.5t-104 -49.5t-36 -137.5z" />
    <glyph glyph-name="Ecaron" unicode="&#x11a;" horiz-adv-x="510" 
d="M254 762l-116 142l22 20l124 -111l124 111l22 -20l-116 -142h-60zM88 0v684h360l-7 -52h-293v-259h241v-53h-241v-268h308v-52h-368z" />
    <glyph glyph-name="ecaron" unicode="&#x11b;" horiz-adv-x="495" 
d="M226 592l-116 142l22 20l124 -111l124 111l22 -20l-116 -142h-60zM283 -15q-233 0 -233 259q0 120 50.5 189.5t149.5 69.5q193 0 193 -262v-9q0 -11 -12 -11h-320q2 -92 42.5 -139t133.5 -47q57 0 124 15l5 -47q-59 -18 -133 -18zM110 268h276q0 88 -33.5 137.5
t-102.5 49.5t-104 -49.5t-36 -137.5z" />
    <glyph glyph-name="Gcircumflex" unicode="&#x11c;" horiz-adv-x="614" 
d="M239 754l-22 20l116 142h60l116 -142l-22 -20l-124 111zM365 -14q-305 0 -305 347q0 176 78 270t225 94q88 0 157 -24l-11 -48q-70 19 -139 19q-128 0 -188 -76.5t-60 -229.5q0 -162 60.5 -230t186.5 -68q57 0 106 9v237h-121v51h178v-328q-69 -23 -167 -23z" />
    <glyph glyph-name="gcircumflex" unicode="&#x11d;" horiz-adv-x="499" 
d="M126 584l-22 20l116 142h60l116 -142l-22 -20l-124 111zM249 -239q-209 0 -209 137q0 70 57 117q-24 20 -24 56q0 26 14 56.5t38 52.5q-64 48 -64 145q0 85 49.5 132t137.5 47q51 0 91 -17l64 78q22 -12 38 -34l-63 -68q57 -48 57 -138q0 -85 -49.5 -132t-137.5 -47
q-49 0 -86 14q-34 -37 -34 -75q0 -15 7 -23q10 -11 52 -11h98q109 0 153 -45q33 -33 33 -90q0 -66 -40 -105q-53 -50 -182 -50zM248 196q131 0 131 129t-131 129t-131 -129t131 -129zM253 -188q88 0 125 24t37 73q0 48 -27.5 67.5t-97.5 19.5h-106q-22 0 -46 2
q-42 -38 -42 -90q0 -96 157 -96z" />
    <glyph glyph-name="Gbreve" unicode="&#x11e;" horiz-adv-x="614" 
d="M361 766q-61 0 -92 34.5t-33 91.5h39q14 -74 86 -74t86 74h39q-2 -57 -33 -91.5t-92 -34.5zM365 -14q-305 0 -305 347q0 176 78 270t225 94q88 0 157 -24l-11 -48q-70 19 -139 19q-128 0 -188 -76.5t-60 -229.5q0 -162 60.5 -230t186.5 -68q57 0 106 9v237h-121v51h178
v-328q-69 -23 -167 -23z" />
    <glyph glyph-name="gbreve" unicode="&#x11f;" horiz-adv-x="499" 
d="M250 586q-61 0 -92 34.5t-33 91.5h39q14 -74 86 -74t86 74h39q-2 -57 -33 -91.5t-92 -34.5zM249 -239q-209 0 -209 137q0 70 57 117q-24 20 -24 56q0 26 14 56.5t38 52.5q-64 48 -64 145q0 85 49.5 132t137.5 47q51 0 91 -17l64 78q22 -12 38 -34l-63 -68q57 -48 57 -138
q0 -85 -49.5 -132t-137.5 -47q-49 0 -86 14q-34 -37 -34 -75q0 -15 7 -23q10 -11 52 -11h98q109 0 153 -45q33 -33 33 -90q0 -66 -40 -105q-53 -50 -182 -50zM248 196q131 0 131 129t-131 129t-131 -129t131 -129zM253 -188q88 0 125 24t37 73q0 48 -27.5 67.5t-97.5 19.5
h-106q-22 0 -46 2q-42 -38 -42 -90q0 -96 157 -96z" />
    <glyph glyph-name="Gdotaccent" unicode="&#x120;" horiz-adv-x="614" 
d="M359 788q-42 0 -42 43v10q0 43 42 43h8q42 0 42 -43v-10q0 -43 -42 -43h-8zM365 -14q-305 0 -305 347q0 176 78 270t225 94q88 0 157 -24l-11 -48q-70 19 -139 19q-128 0 -188 -76.5t-60 -229.5q0 -162 60.5 -230t186.5 -68q57 0 106 9v237h-121v51h178v-328
q-69 -23 -167 -23z" />
    <glyph glyph-name="gdotaccent" unicode="&#x121;" horiz-adv-x="499" 
d="M246 608q-42 0 -42 43v10q0 43 42 43h8q42 0 42 -43v-10q0 -43 -42 -43h-8zM249 -239q-209 0 -209 137q0 70 57 117q-24 20 -24 56q0 26 14 56.5t38 52.5q-64 48 -64 145q0 85 49.5 132t137.5 47q51 0 91 -17l64 78q22 -12 38 -34l-63 -68q57 -48 57 -138
q0 -85 -49.5 -132t-137.5 -47q-49 0 -86 14q-34 -37 -34 -75q0 -15 7 -23q10 -11 52 -11h98q109 0 153 -45q33 -33 33 -90q0 -66 -40 -105q-53 -50 -182 -50zM248 196q131 0 131 129t-131 129t-131 -129t131 -129zM253 -188q88 0 125 24t37 73q0 48 -27.5 67.5t-97.5 19.5
h-106q-22 0 -46 2q-42 -38 -42 -90q0 -96 157 -96z" />
    <glyph glyph-name="Gcommaaccent" unicode="&#x122;" horiz-adv-x="614" 
d="M365 -14q-305 0 -305 347q0 176 78 270t225 94q88 0 157 -24l-11 -48q-70 19 -139 19q-128 0 -188 -76.5t-60 -229.5q0 -162 60.5 -230t186.5 -68q57 0 106 9v237h-121v51h178v-328q-69 -23 -167 -23zM342 -248v96q-32 9 -32 38v5q0 18 11 27t26 9h4q35 -1 35 -52
q0 -69 -18 -123h-26z" />
    <glyph glyph-name="gcommaaccent" unicode="&#x123;" horiz-adv-x="499" 
d="M246 568q-35 1 -35 52q0 69 18 123h26v-96q32 -9 32 -38v-5q0 -18 -11 -27t-26 -9h-4zM249 -239q-209 0 -209 137q0 70 57 117q-24 20 -24 56q0 26 14 56.5t38 52.5q-64 48 -64 145q0 85 49.5 132t137.5 47q51 0 91 -17l64 78q22 -12 38 -34l-63 -68q57 -48 57 -138
q0 -85 -49.5 -132t-137.5 -47q-49 0 -86 14q-34 -37 -34 -75q0 -15 7 -23q10 -11 52 -11h98q109 0 153 -45q33 -33 33 -90q0 -66 -40 -105q-53 -50 -182 -50zM248 196q131 0 131 129t-131 129t-131 -129t131 -129zM253 -188q88 0 125 24t37 73q0 48 -27.5 67.5t-97.5 19.5
h-106q-22 0 -46 2q-42 -38 -42 -90q0 -96 157 -96z" />
    <glyph glyph-name="Hcircumflex" unicode="&#x124;" horiz-adv-x="641" 
d="M197 754l-22 20l116 142h60l116 -142l-22 -20l-124 111zM88 0v684h60v-311h346v311h59v-684h-59v320h-346v-320h-60z" />
    <glyph glyph-name="hcircumflex" unicode="&#x125;" horiz-adv-x="531" 
d="M-22 714l-22 20l116 142h60l116 -142l-22 -20l-124 111zM74 0v715h58v-258q83 47 164 47q82 0 123 -41t41 -124v-339h-58v324q0 70 -28 98q-29 29 -87 29q-77 0 -155 -39v-412h-58z" />
    <glyph glyph-name="Hbar" unicode="&#x126;" horiz-adv-x="661" 
d="M98 0v508h-70v50h70v126h60v-126h346v126h59v-126h70v-50h-70v-508h-59v320h-346v-320h-60zM158 373h346v135h-346v-135z" />
    <glyph glyph-name="hbar" unicode="&#x127;" horiz-adv-x="531" 
d="M74 0v586h-77v35l77 7v87h58v-85h152v-44h-152v-129q83 47 164 47q82 0 123 -41t41 -124v-339h-58v324q0 70 -28 98q-29 29 -87 29q-77 0 -155 -39v-412h-58z" />
    <glyph glyph-name="Itilde" unicode="&#x128;" horiz-adv-x="240" 
d="M185 790q-26 0 -68.5 20t-60.5 20q-26 0 -42 -39l-36 7q11 88 76 88q26 0 68.5 -20t60.5 -20q26 0 42 39l36 -7q-11 -88 -76 -88zM90 0v684h60v-684h-60z" />
    <glyph glyph-name="itilde" unicode="&#x129;" horiz-adv-x="210" 
d="M170 610q-26 0 -68.5 20t-60.5 20q-26 0 -42 -39l-36 7q11 88 76 88q26 0 68.5 -20t60.5 -20q26 0 42 39l36 -7q-11 -88 -76 -88zM76 0v490h58v-490h-58z" />
    <glyph glyph-name="Imacron" unicode="&#x12a;" horiz-adv-x="240" 
d="M-2 808v49h243v-49h-243zM90 0v684h60v-684h-60z" />
    <glyph glyph-name="imacron" unicode="&#x12b;" horiz-adv-x="210" 
d="M-17 618v49h243v-49h-243zM76 0v490h58v-490h-58z" />
    <glyph glyph-name="Ibreve" unicode="&#x12c;" horiz-adv-x="240" 
d="M118 766q-61 0 -92 34.5t-33 91.5h39q14 -74 86 -74t86 74h39q-2 -57 -33 -91.5t-92 -34.5zM90 0v684h60v-684h-60z" />
    <glyph glyph-name="ibreve" unicode="&#x12d;" horiz-adv-x="210" 
d="M105 586q-61 0 -92 34.5t-33 91.5h39q14 -74 86 -74t86 74h39q-2 -57 -33 -91.5t-92 -34.5zM76 0v490h58v-490h-58z" />
    <glyph glyph-name="Iogonek" unicode="&#x12e;" horiz-adv-x="240" 
d="M97 -211q-47 0 -72 24.5t-25 65.5q0 42 26.5 80.5t63.5 54.5v670h60v-684h-3q-32 0 -58 -26q-38 -39 -38 -88q0 -54 59 -54q18 0 63 6v-38q-46 -11 -76 -11z" />
    <glyph glyph-name="iogonek" unicode="&#x12f;" horiz-adv-x="210" 
d="M103 589q-36 0 -36 39v3q0 39 36 39h4q36 0 36 -39v-3q0 -39 -36 -39h-4zM95 -211q-47 0 -73.5 25t-26.5 65q0 63 81 118v493h58v-490q-44 -33 -66 -58t-22 -56q0 -26 16.5 -40t45.5 -14q21 0 29 1v-41q-18 -3 -42 -3z" />
    <glyph glyph-name="Idotaccent" unicode="&#x130;" horiz-adv-x="240" 
d="M116 788q-42 0 -42 43v10q0 43 42 43h8q42 0 42 -43v-10q0 -43 -42 -43h-8zM90 0v684h60v-684h-60z" />
    <glyph glyph-name="dotlessi" unicode="&#x131;" horiz-adv-x="210" 
d="M76 0v490h58v-490h-58z" />
    <glyph glyph-name="IJ" unicode="&#x132;" horiz-adv-x="591" 
d="M90 0v684h60v-684h-60zM344 -14q-32 0 -60 5l-6 52q24 -3 59 -3q62 0 87 22q16 14 21 38t5 78v506h59v-501q0 -68 -9 -101.5t-28 -54.5q-38 -41 -128 -41z" />
    <glyph glyph-name="ij" unicode="&#x133;" horiz-adv-x="420" 
d="M103 589q-36 0 -36 39v3q0 39 36 39h4q36 0 36 -39v-3q0 -39 -36 -39h-4zM313 589q-36 0 -36 39v3q0 39 36 39h4q36 0 36 -39v-3q0 -39 -36 -39h-4zM76 0v490h58v-490h-58zM155 -237l-7 50q79 0 110 33q16 17 22 42t6 75v527h58v-527q0 -110 -44 -155t-145 -45z" />
    <glyph glyph-name="Jcircumflex" unicode="&#x134;" horiz-adv-x="351" 
d="M116 754l-22 20l116 142h60l116 -142l-22 -20l-124 111zM104 -14q-32 0 -60 5l-6 52q24 -3 59 -3q62 0 87 22q16 14 21 38t5 78v506h59v-501q0 -68 -9 -101.5t-28 -54.5q-38 -41 -128 -41z" />
    <glyph glyph-name="jcircumflex" unicode="&#x135;" horiz-adv-x="210" 
d="M-19 584l-22 20l116 142h60l116 -142l-22 -20l-124 111zM-55 -237l-7 50q79 0 110 33q16 17 22 42t6 75v527h58v-527q0 -110 -44 -155t-145 -45z" />
    <glyph glyph-name="Kcommaaccent" unicode="&#x136;" horiz-adv-x="565" 
d="M88 0v684h60v-379l303 379h66l-228 -281l244 -403h-67l-214 358l-104 -129v-229h-60zM291 -248v96q-32 9 -32 38v5q0 18 11 27t26 9h4q35 -1 35 -52q0 -69 -18 -123h-26z" />
    <glyph glyph-name="kcommaaccent" unicode="&#x137;" horiz-adv-x="482" 
d="M74 0v715h58v-492l245 267h67l-172 -185l190 -305h-66l-163 264l-101 -110v-154h-58zM259 -248v96q-32 9 -32 38v5q0 18 11 27t26 9h4q35 -1 35 -52q0 -69 -18 -123h-26z" />
    <glyph glyph-name="kgreenlandic" unicode="&#x138;" horiz-adv-x="482" 
d="M74 0v490h58v-267l245 267h67l-172 -185l190 -305h-66l-163 264l-101 -110v-154h-58z" />
    <glyph glyph-name="Lacute" unicode="&#x139;" horiz-adv-x="484" 
d="M43 754l-23 29l171 157l38 -50zM88 0v684h60v-632h296v-52h-356z" />
    <glyph glyph-name="lacute" unicode="&#x13a;" horiz-adv-x="210" 
d="M31 733l-23 29l171 157l38 -50zM76 0v715h58v-715h-58z" />
    <glyph glyph-name="Lcommaaccent" unicode="&#x13b;" horiz-adv-x="484" 
d="M88 0v684h60v-632h296v-52h-356zM274 -248v96q-32 9 -32 38v5q0 18 11 27t26 9h4q35 -1 35 -52q0 -69 -18 -123h-26z" />
    <glyph glyph-name="lcommaaccent" unicode="&#x13c;" horiz-adv-x="210" 
d="M76 0v715h58v-715h-58zM99 -248v96q-32 9 -32 38v5q0 18 11 27t26 9h4q35 -1 35 -52q0 -69 -18 -123h-26z" />
    <glyph glyph-name="Lcaron" unicode="&#x13d;" horiz-adv-x="484" 
d="M267 522v96q-32 9 -32 38v5q0 18 11 27t26 9h4q35 -1 35 -52q0 -69 -18 -123h-26zM88 0v684h60v-632h296v-52h-356z" />
    <glyph glyph-name="lcaron" unicode="&#x13e;" horiz-adv-x="290" 
d="M76 0v715h58v-715h-58zM226 522v96q-32 9 -32 38v5q0 18 11 27t26 9h4q35 -1 35 -52q0 -69 -18 -123h-26z" />
    <glyph glyph-name="Ldot" unicode="&#x13f;" horiz-adv-x="484" 
d="M88 0v684h60v-632h296v-52h-356zM318 326q-42 0 -42 43v10q0 43 42 43h8q42 0 42 -43v-10q0 -43 -42 -43h-8z" />
    <glyph glyph-name="ldot" unicode="&#x140;" horiz-adv-x="336" 
d="M76 0v715h58v-715h-58zM262 286q-42 0 -42 43v10q0 43 42 43h8q42 0 42 -43v-10q0 -43 -42 -43h-8z" />
    <glyph glyph-name="Lslash" unicode="&#x141;" horiz-adv-x="484" 
d="M88 0v256l-75 -49l-25 42l100 65v370h60v-330l117 77l25 -42l-142 -93v-244h296v-52h-356z" />
    <glyph glyph-name="lslash" unicode="&#x142;" horiz-adv-x="306" 
d="M121 0v318l-76 -50l-25 42l101 66v339h58v-301l102 67l25 -42l-127 -83v-356h-58z" />
    <glyph glyph-name="Nacute" unicode="&#x143;" horiz-adv-x="666" 
d="M268 754l-23 29l171 157l38 -50zM88 0v684h41l395 -575v575h54v-684h-45l-391 570v-570h-54z" />
    <glyph glyph-name="nacute" unicode="&#x144;" horiz-adv-x="531" 
d="M204 574l-23 29l171 157l38 -50zM74 0v490h46l4 -37q84 51 172 51q82 0 123 -41t41 -124v-339h-58v324q0 70 -28 98q-29 29 -87 29q-77 0 -155 -39v-412h-58z" />
    <glyph glyph-name="Ncommaaccent" unicode="&#x145;" horiz-adv-x="666" 
d="M88 0v684h41l395 -575v575h54v-684h-45l-391 570v-570h-54zM327 -248v96q-32 9 -32 38v5q0 18 11 27t26 9h4q35 -1 35 -52q0 -69 -18 -123h-26z" />
    <glyph glyph-name="ncommaaccent" unicode="&#x146;" horiz-adv-x="531" 
d="M74 0v490h46l4 -37q84 51 172 51q82 0 123 -41t41 -124v-339h-58v324q0 70 -28 98q-29 29 -87 29q-77 0 -155 -39v-412h-58zM260 -248v96q-32 9 -32 38v5q0 18 11 27t26 9h4q35 -1 35 -52q0 -69 -18 -123h-26z" />
    <glyph glyph-name="Ncaron" unicode="&#x147;" horiz-adv-x="666" 
d="M312 762l-116 142l22 20l124 -111l124 111l22 -20l-116 -142h-60zM88 0v684h41l395 -575v575h54v-684h-45l-391 570v-570h-54z" />
    <glyph glyph-name="ncaron" unicode="&#x148;" horiz-adv-x="531" 
d="M256 592l-116 142l22 20l124 -111l124 111l22 -20l-116 -142h-60zM74 0v490h46l4 -37q84 51 172 51q82 0 123 -41t41 -124v-339h-58v324q0 70 -28 98q-29 29 -87 29q-77 0 -155 -39v-412h-58z" />
    <glyph glyph-name="napostrophe" unicode="&#x149;" horiz-adv-x="592" 
d="M46 495v115q-36 9 -36 41v5q0 41 39 41h4q21 -1 30.5 -13.5t9.5 -43.5q0 -73 -20 -145h-27zM135 0v490h46l4 -37q84 51 172 51q82 0 123 -41t41 -124v-339h-58v324q0 70 -28 98q-29 29 -87 29q-77 0 -155 -39v-412h-58z" />
    <glyph glyph-name="Eng" unicode="&#x14a;" horiz-adv-x="666" 
d="M413 -239q-32 0 -60 5l-1 47q24 -3 59 -3q62 0 87 22q16 14 21 38t5 78v65l-382 557v-570h-54v684h41l395 -575v575h54v-726q0 -68 -9 -101.5t-28 -54.5q-38 -41 -128 -41z" />
    <glyph glyph-name="eng" unicode="&#x14b;" horiz-adv-x="531" 
d="M271 -237l-7 50q79 0 110 33q16 17 22 42t6 75v361q0 70 -28 98q-29 29 -87 29q-77 0 -155 -39v-412h-58v490h46l4 -37q84 51 172 51q82 0 123 -41t41 -124v-376q0 -110 -44 -155t-145 -45z" />
    <glyph glyph-name="Omacron" unicode="&#x14c;" horiz-adv-x="640" 
d="M198 808v49h243v-49h-243zM320 -14q-260 0 -260 355q0 356 260 356t260 -356q0 -355 -260 -355zM320 43q106 0 152 76t46 222t-46 222.5t-152 76.5t-152 -76.5t-46 -222.5t46 -222t152 -76z" />
    <glyph glyph-name="omacron" unicode="&#x14d;" horiz-adv-x="522" 
d="M139 618v49h243v-49h-243zM261 -14q-211 0 -211 259t211 259t211 -259t-211 -259zM261 36q81 0 116 52t35 157t-35 157t-116 52t-116 -52t-35 -157t35 -157t116 -52z" />
    <glyph glyph-name="Obreve" unicode="&#x14e;" horiz-adv-x="640" 
d="M318 766q-61 0 -92 34.5t-33 91.5h39q14 -74 86 -74t86 74h39q-2 -57 -33 -91.5t-92 -34.5zM320 -14q-260 0 -260 355q0 356 260 356t260 -356q0 -355 -260 -355zM320 43q106 0 152 76t46 222t-46 222.5t-152 76.5t-152 -76.5t-46 -222.5t46 -222t152 -76z" />
    <glyph glyph-name="obreve" unicode="&#x14f;" horiz-adv-x="522" 
d="M261 586q-61 0 -92 34.5t-33 91.5h39q14 -74 86 -74t86 74h39q-2 -57 -33 -91.5t-92 -34.5zM261 -14q-211 0 -211 259t211 259t211 -259t-211 -259zM261 36q81 0 116 52t35 157t-35 157t-116 52t-116 -52t-35 -157t35 -157t116 -52z" />
    <glyph glyph-name="Ohungarumlaut" unicode="&#x150;" horiz-adv-x="640" 
d="M191 762l-28 24l141 185l46 -43zM371 762l-28 24l141 185l46 -43zM320 -14q-260 0 -260 355q0 356 260 356t260 -356q0 -355 -260 -355zM320 43q106 0 152 76t46 222t-46 222.5t-152 76.5t-152 -76.5t-46 -222.5t46 -222t152 -76z" />
    <glyph glyph-name="ohungarumlaut" unicode="&#x151;" horiz-adv-x="522" 
d="M126 582l-28 24l141 185l46 -43zM306 582l-28 24l141 185l46 -43zM261 -14q-211 0 -211 259t211 259t211 -259t-211 -259zM261 36q81 0 116 52t35 157t-35 157t-116 52t-116 -52t-35 -157t35 -157t116 -52z" />
    <glyph glyph-name="OE" unicode="&#x152;" horiz-adv-x="878" 
d="M403 0q-93 0 -154.5 18t-103.5 62q-85 88 -85 262t85 262q42 44 103.5 62t154.5 18h413l-7 -52h-293v-259h241v-53h-241v-268h308v-52h-421zM403 52h53v580h-55q-79 0 -129 -14.5t-83 -50.5q-68 -73 -68 -225t68 -225q33 -36 84 -50.5t130 -14.5z" />
    <glyph glyph-name="oe" unicode="&#x153;" horiz-adv-x="858" 
d="M645 -15q-149 0 -202 104q-49 -103 -182 -103q-211 0 -211 259t211 259q133 0 182 -103q49 102 169 102q193 0 193 -262q0 -20 -19 -20h-313q2 -92 42.5 -139t133.5 -47q57 0 124 15l5 -47q-59 -18 -133 -18zM472 268h276q0 88 -33.5 137.5t-102.5 49.5q-138 0 -140 -187
zM261 36q81 0 116 51.5t35 156.5v1q0 105 -35 157t-116 52t-116 -52t-35 -157t35 -157t116 -52z" />
    <glyph glyph-name="Racute" unicode="&#x154;" horiz-adv-x="578" 
d="M225 754l-23 29l171 157l38 -50zM88 0v684h191q131 0 182 -58q48 -55 48 -146q0 -158 -131 -198l146 -282h-65l-137 271q-20 -2 -44 -2h-130v-269h-60zM148 322h134q86 0 123 36q42 41 42 123q0 73 -35 111q-35 40 -137 40h-127v-310z" />
    <glyph glyph-name="racute" unicode="&#x155;" horiz-adv-x="314" 
d="M132 574l-23 29l171 157l38 -50zM74 0v490h46l5 -42q68 56 145 56q14 0 24 -1v-54q-16 1 -34 1q-69 0 -128 -41v-409h-58z" />
    <glyph glyph-name="Rcommaaccent" unicode="&#x156;" horiz-adv-x="578" 
d="M88 0v684h191q131 0 182 -58q48 -55 48 -146q0 -158 -131 -198l146 -282h-65l-137 271q-20 -2 -44 -2h-130v-269h-60zM148 322h134q86 0 123 36q42 41 42 123q0 73 -35 111q-35 40 -137 40h-127v-310zM303 -248v96q-32 9 -32 38v5q0 18 11 27t26 9h4q35 -1 35 -52
q0 -69 -18 -123h-26z" />
    <glyph glyph-name="rcommaaccent" unicode="&#x157;" horiz-adv-x="314" 
d="M74 0v490h46l5 -42q68 56 145 56q14 0 24 -1v-54q-16 1 -34 1q-69 0 -128 -41v-409h-58zM97 -248v96q-32 9 -32 38v5q0 18 11 27t26 9h4q35 -1 35 -52q0 -69 -18 -123h-26z" />
    <glyph glyph-name="Rcaron" unicode="&#x158;" horiz-adv-x="578" 
d="M269 762l-116 142l22 20l124 -111l124 111l22 -20l-116 -142h-60zM88 0v684h191q131 0 182 -58q48 -55 48 -146q0 -158 -131 -198l146 -282h-65l-137 271q-20 -2 -44 -2h-130v-269h-60zM148 322h134q86 0 123 36q42 41 42 123q0 73 -35 111q-35 40 -137 40h-127v-310z
" />
    <glyph glyph-name="rcaron" unicode="&#x159;" horiz-adv-x="314" 
d="M184 592l-116 142l22 20l124 -111l124 111l22 -20l-116 -142h-60zM74 0v490h46l5 -42q68 56 145 56q14 0 24 -1v-54q-16 1 -34 1q-69 0 -128 -41v-409h-58z" />
    <glyph glyph-name="Sacute" unicode="&#x15a;" horiz-adv-x="523" 
d="M188 754l-23 29l171 157l38 -50zM239 -14q-94 0 -183 29l11 51q84 -27 164 -27q92 0 134 32q43 33 43 99q0 51 -36.5 86t-88 56l-103 43.5t-88 64t-36.5 102.5q0 73 44 119q55 56 170 56q82 0 157 -24l-11 -48q-69 19 -143 19q-160 0 -160 -116q0 -36 19.5 -63t50.5 -45
t68.5 -33.5t75 -33.5t68.5 -40t50.5 -58t19.5 -83q0 -93 -59.5 -139.5t-166.5 -46.5z" />
    <glyph glyph-name="sacute" unicode="&#x15b;" horiz-adv-x="416" 
d="M132 574l-23 29l171 157l38 -50zM189 -14q-77 0 -133 18l5 46q61 -16 125 -16q135 0 135 90q0 37 -28.5 60t-68.5 34.5t-80.5 25.5t-69 44t-28.5 79q0 68 46.5 102.5t130.5 34.5q65 0 121 -17l-3 -45q-65 14 -117 14q-123 0 -123 -86q0 -35 28.5 -56.5t69 -33.5
t80.5 -26.5t68.5 -46t28.5 -80.5q0 -68 -48 -104.5t-139 -36.5z" />
    <glyph glyph-name="Scircumflex" unicode="&#x15c;" horiz-adv-x="523" 
d="M138 754l-22 20l116 142h60l116 -142l-22 -20l-124 111zM239 -14q-94 0 -183 29l11 51q84 -27 164 -27q92 0 134 32q43 33 43 99q0 51 -36.5 86t-88 56l-103 43.5t-88 64t-36.5 102.5q0 73 44 119q55 56 170 56q82 0 157 -24l-11 -48q-69 19 -143 19q-160 0 -160 -116
q0 -36 19.5 -63t50.5 -45t68.5 -33.5t75 -33.5t68.5 -40t50.5 -58t19.5 -83q0 -93 -59.5 -139.5t-166.5 -46.5z" />
    <glyph glyph-name="scircumflex" unicode="&#x15d;" horiz-adv-x="416" 
d="M90 584l-22 20l116 142h60l116 -142l-22 -20l-124 111zM189 -14q-77 0 -133 18l5 46q61 -16 125 -16q135 0 135 90q0 37 -28.5 60t-68.5 34.5t-80.5 25.5t-69 44t-28.5 79q0 68 46.5 102.5t130.5 34.5q65 0 121 -17l-3 -45q-65 14 -117 14q-123 0 -123 -86
q0 -35 28.5 -56.5t69 -33.5t80.5 -26.5t68.5 -46t28.5 -80.5q0 -68 -48 -104.5t-139 -36.5z" />
    <glyph glyph-name="Scedilla" unicode="&#x15e;" horiz-adv-x="523" 
d="M272 -211q-34 0 -68 9v40q35 -7 63 -7q50 0 50 29q0 15 -17 24.5t-38 14t-38 17.5t-17 34q0 19 11 36q-81 3 -162 29l11 51q84 -27 164 -27q92 0 134 32q43 33 43 99q0 51 -36.5 86t-88 56l-103 43.5t-88 64t-36.5 102.5q0 73 44 119q55 56 170 56q82 0 157 -24l-11 -48
q-69 19 -143 19q-160 0 -160 -116q0 -36 19.5 -63t50.5 -45t68.5 -33.5t75 -33.5t68.5 -40t50.5 -58t19.5 -83q0 -90 -55 -136.5t-156 -49.5q-3 -9 -3 -17q0 -15 17.5 -24.5t39 -14.5t39 -22t17.5 -46q0 -34 -24 -53.5t-68 -19.5z" />
    <glyph glyph-name="scedilla" unicode="&#x15f;" horiz-adv-x="416" 
d="M227 -211q-33 0 -68 9v40q35 -7 63 -7q50 0 50 29q0 15 -17 24.5t-38 14t-38 17.5t-17 34q0 19 11 36q-73 3 -117 18l5 46q61 -16 125 -16q135 0 135 90q0 37 -28.5 60t-68.5 34.5t-80.5 25.5t-69 44t-28.5 79q0 68 46.5 102.5t130.5 34.5q65 0 121 -17l-3 -45
q-65 14 -117 14q-123 0 -123 -86q0 -35 28.5 -56.5t69 -33.5t80.5 -26.5t68.5 -46t28.5 -80.5q0 -64 -43 -100t-124 -40q-3 -9 -3 -18q0 -15 17.5 -24.5t39 -14.5t39 -22t17.5 -46q0 -34 -24 -53.5t-68 -19.5z" />
    <glyph glyph-name="Scaron" unicode="&#x160;" horiz-adv-x="523" 
d="M232 762l-116 142l22 20l124 -111l124 111l22 -20l-116 -142h-60zM239 -14q-94 0 -183 29l11 51q84 -27 164 -27q92 0 134 32q43 33 43 99q0 51 -36.5 86t-88 56l-103 43.5t-88 64t-36.5 102.5q0 73 44 119q55 56 170 56q82 0 157 -24l-11 -48q-69 19 -143 19
q-160 0 -160 -116q0 -36 19.5 -63t50.5 -45t68.5 -33.5t75 -33.5t68.5 -40t50.5 -58t19.5 -83q0 -93 -59.5 -139.5t-166.5 -46.5z" />
    <glyph glyph-name="scaron" unicode="&#x161;" horiz-adv-x="416" 
d="M184 592l-116 142l22 20l124 -111l124 111l22 -20l-116 -142h-60zM189 -14q-77 0 -133 18l5 46q61 -16 125 -16q135 0 135 90q0 37 -28.5 60t-68.5 34.5t-80.5 25.5t-69 44t-28.5 79q0 68 46.5 102.5t130.5 34.5q65 0 121 -17l-3 -45q-65 14 -117 14q-123 0 -123 -86
q0 -35 28.5 -56.5t69 -33.5t80.5 -26.5t68.5 -46t28.5 -80.5q0 -68 -48 -104.5t-139 -36.5z" />
    <glyph glyph-name="uni0162" unicode="&#x162;" horiz-adv-x="550" 
d="M246 0v632h-220v52h503l-7 -52h-216v-632h-60zM269 -248v96q-32 9 -32 38v5q0 18 11 27t26 9h4q35 -1 35 -52q0 -69 -18 -123h-26z" />
    <glyph glyph-name="uni0163" unicode="&#x163;" horiz-adv-x="344" 
d="M236 -14q-68 0 -99 31q-33 33 -33 114v313h-90v35l90 11v113q30 9 58 12v-125h130v-46h-130v-295q0 -70 18 -90q20 -22 65 -22q35 0 75 9l4 -47q-39 -13 -88 -13zM212 -248v96q-32 9 -32 38v5q0 18 11 27t26 9h4q35 -1 35 -52q0 -69 -18 -123h-26z" />
    <glyph glyph-name="Tcaron" unicode="&#x164;" horiz-adv-x="550" 
d="M245 762l-116 142l22 20l124 -111l124 111l22 -20l-116 -142h-60zM246 0v632h-220v52h503l-7 -52h-216v-632h-60z" />
    <glyph glyph-name="tcaron" unicode="&#x165;" horiz-adv-x="344" 
d="M239 566v96q-32 9 -32 38v5q0 18 11 27t26 9h4q35 -1 35 -52q0 -69 -18 -123h-26zM236 -14q-68 0 -99 31q-33 33 -33 114v313h-90v35l90 11v113q30 9 58 12v-125h130v-46h-130v-295q0 -70 18 -90q20 -22 65 -22q35 0 75 9l4 -47q-39 -13 -88 -13z" />
    <glyph glyph-name="Tbar" unicode="&#x166;" horiz-adv-x="550" 
d="M246 0v319h-134v48h134v265h-220v52h503l-7 -52h-216v-265h134v-48h-134v-319h-60z" />
    <glyph glyph-name="tbar" unicode="&#x167;" horiz-adv-x="344" 
d="M236 -14q-68 0 -99 31q-33 33 -33 114v96h-77v35l77 7v175h-90v35l90 11v113q30 9 58 12v-125h130v-46h-130v-173h120v-44h-120v-78q0 -70 18 -90q20 -22 65 -22q35 0 75 9l4 -47q-39 -13 -88 -13z" />
    <glyph glyph-name="Utilde" unicode="&#x168;" horiz-adv-x="637" 
d="M384 790q-26 0 -68.5 20t-60.5 20q-26 0 -42 -39l-36 7q11 88 76 88q26 0 68.5 -20t60.5 -20q26 0 42 39l36 -7q-11 -88 -76 -88zM322 -14q-124 0 -182 60q-58 59 -58 187v451h60v-448q0 -108 44 -152q43 -42 139 -42q82 0 125 38q51 47 51 156v448h54v-456
q0 -125 -61 -184q-60 -58 -172 -58z" />
    <glyph glyph-name="utilde" unicode="&#x169;" horiz-adv-x="529" 
d="M331 610q-26 0 -68.5 20t-60.5 20q-26 0 -42 -39l-36 7q11 88 76 88q26 0 68.5 -20t60.5 -20q26 0 42 39l36 -7q-11 -88 -76 -88zM235 -14q-82 0 -123 41t-41 124v339h58v-324q0 -70 28 -98q29 -29 87 -29q75 0 153 39v412h58v-490h-46l-4 37q-84 -51 -170 -51z" />
    <glyph glyph-name="Umacron" unicode="&#x16a;" horiz-adv-x="637" 
d="M197 808v49h243v-49h-243zM322 -14q-124 0 -182 60q-58 59 -58 187v451h60v-448q0 -108 44 -152q43 -42 139 -42q82 0 125 38q51 47 51 156v448h54v-456q0 -125 -61 -184q-60 -58 -172 -58z" />
    <glyph glyph-name="umacron" unicode="&#x16b;" horiz-adv-x="529" 
d="M144 618v49h243v-49h-243zM235 -14q-82 0 -123 41t-41 124v339h58v-324q0 -70 28 -98q29 -29 87 -29q75 0 153 39v412h58v-490h-46l-4 37q-84 -51 -170 -51z" />
    <glyph glyph-name="Ubreve" unicode="&#x16c;" horiz-adv-x="637" 
d="M317 766q-61 0 -92 34.5t-33 91.5h39q14 -74 86 -74t86 74h39q-2 -57 -33 -91.5t-92 -34.5zM322 -14q-124 0 -182 60q-58 59 -58 187v451h60v-448q0 -108 44 -152q43 -42 139 -42q82 0 125 38q51 47 51 156v448h54v-456q0 -125 -61 -184q-60 -58 -172 -58z" />
    <glyph glyph-name="ubreve" unicode="&#x16d;" horiz-adv-x="529" 
d="M266 586q-61 0 -92 34.5t-33 91.5h39q14 -74 86 -74t86 74h39q-2 -57 -33 -91.5t-92 -34.5zM235 -14q-82 0 -123 41t-41 124v339h58v-324q0 -70 28 -98q29 -29 87 -29q75 0 153 39v412h58v-490h-46l-4 37q-84 -51 -170 -51z" />
    <glyph glyph-name="Uring" unicode="&#x16e;" horiz-adv-x="637" 
d="M317 761q-50 0 -78.5 27.5t-28.5 76.5v4q0 49 28.5 76.5t78.5 27.5h4q50 0 78.5 -27.5t28.5 -76.5v-4q0 -49 -28.5 -76.5t-78.5 -27.5h-4zM317 806h3q59 0 59 59v4q0 59 -59 59h-3q-58 0 -58 -59v-4q0 -59 58 -59zM322 -14q-124 0 -182 60q-58 59 -58 187v451h60v-448
q0 -108 44 -152q43 -42 139 -42q82 0 125 38q51 47 51 156v448h54v-456q0 -125 -61 -184q-60 -58 -172 -58z" />
    <glyph glyph-name="uring" unicode="&#x16f;" horiz-adv-x="529" 
d="M264 581q-50 0 -78.5 27.5t-28.5 76.5v4q0 49 28.5 76.5t78.5 27.5h4q50 0 78.5 -27.5t28.5 -76.5v-4q0 -49 -28.5 -76.5t-78.5 -27.5h-4zM264 626h3q59 0 59 59v4q0 59 -59 59h-3q-58 0 -58 -59v-4q0 -59 58 -59zM235 -14q-82 0 -123 41t-41 124v339h58v-324
q0 -70 28 -98q29 -29 87 -29q75 0 153 39v412h58v-490h-46l-4 37q-84 -51 -170 -51z" />
    <glyph glyph-name="Uhungarumlaut" unicode="&#x170;" horiz-adv-x="637" 
d="M190 762l-28 24l141 185l46 -43zM370 762l-28 24l141 185l46 -43zM322 -14q-124 0 -182 60q-58 59 -58 187v451h60v-448q0 -108 44 -152q43 -42 139 -42q82 0 125 38q51 47 51 156v448h54v-456q0 -125 -61 -184q-60 -58 -172 -58z" />
    <glyph glyph-name="uhungarumlaut" unicode="&#x171;" horiz-adv-x="529" 
d="M131 582l-28 24l141 185l46 -43zM311 582l-28 24l141 185l46 -43zM235 -14q-82 0 -123 41t-41 124v339h58v-324q0 -70 28 -98q29 -29 87 -29q75 0 153 39v412h58v-490h-46l-4 37q-84 -51 -170 -51z" />
    <glyph glyph-name="Uogonek" unicode="&#x172;" horiz-adv-x="637" 
d="M351 -211q-47 0 -72 24.5t-25 65.5q0 61 53 107q-113 4 -167 60q-58 59 -58 187v451h60v-448q0 -108 44 -152q43 -42 139 -42q82 0 125 38q51 47 51 156v448h54v-456q0 -125 -61 -184q-47 -46 -132 -55q-57 -49 -57 -103t59 -54q18 0 63 6v-38q-46 -11 -76 -11z" />
    <glyph glyph-name="uogonek" unicode="&#x173;" horiz-adv-x="529" 
d="M416 -211q-47 0 -73.5 25t-26.5 65q0 27 16 53t32.5 40t43.5 32l-3 33q-84 -51 -170 -51q-82 0 -123 41t-41 124v339h58v-324q0 -70 28 -98q29 -29 87 -29q75 0 153 39v412h58v-490q-44 -33 -66 -58t-22 -56q0 -26 16.5 -40t45.5 -14q21 0 29 1v-41q-18 -3 -42 -3z" />
    <glyph glyph-name="Wcircumflex" unicode="&#x174;" horiz-adv-x="857" 
d="M309 754l-22 20l116 142h60l116 -142l-22 -20l-124 111zM219 0l-193 684h60l170 -614l143 614h68l152 -606l156 606h56l-177 -684h-71l-150 600l-138 -600h-76z" />
    <glyph glyph-name="wcircumflex" unicode="&#x175;" horiz-adv-x="683" 
d="M218 584l-22 20l116 142h60l116 -142l-22 -20l-124 111zM161 0l-143 490h60l118 -426l114 426h61l131 -432l108 432h55l-131 -490h-66l-127 415l-113 -415h-67z" />
    <glyph glyph-name="Ycircumflex" unicode="&#x176;" horiz-adv-x="546" 
d="M149 754l-22 20l116 142h60l116 -142l-22 -20l-124 111zM238 0v281l-216 403h66l184 -351l191 351h61l-226 -406v-278h-60z" />
    <glyph glyph-name="ycircumflex" unicode="&#x177;" horiz-adv-x="529" 
d="M141 584l-22 20l116 142h60l116 -142l-22 -20l-124 111zM269 -239q-44 0 -73 7l-7 49q30 -5 70 -5q77 0 108 27q30 27 30 108v85q-81 -46 -162 -46q-82 0 -123 41t-41 124v339h58v-324q0 -70 28 -98q29 -29 87 -29q75 0 153 39v412h58v-545q0 -97 -40 -138
q-45 -46 -146 -46z" />
    <glyph glyph-name="Ydieresis" unicode="&#x178;" horiz-adv-x="546" 
d="M178 795q-39 0 -39 39v9q0 41 39 41h8q39 0 39 -41v-9q0 -39 -39 -39h-8zM360 795q-39 0 -39 39v9q0 41 39 41h8q39 0 39 -41v-9q0 -39 -39 -39h-8zM238 0v281l-216 403h66l184 -351l191 351h61l-226 -406v-278h-60z" />
    <glyph glyph-name="Zacute" unicode="&#x179;" horiz-adv-x="544" 
d="M202 754l-23 29l171 157l38 -50zM56 0v42l361 590h-360v52h431v-42l-361 -590h365v-52h-436z" />
    <glyph glyph-name="zacute" unicode="&#x17a;" horiz-adv-x="417" 
d="M134 574l-23 29l171 157l38 -50zM42 0v32l267 412h-263v46h333v-33l-264 -412h268v-45h-341z" />
    <glyph glyph-name="Zdotaccent" unicode="&#x17b;" horiz-adv-x="544" 
d="M272 788q-42 0 -42 43v10q0 43 42 43h8q42 0 42 -43v-10q0 -43 -42 -43h-8zM56 0v42l361 590h-360v52h431v-42l-361 -590h365v-52h-436z" />
    <glyph glyph-name="zdotaccent" unicode="&#x17c;" horiz-adv-x="417" 
d="M212 608q-42 0 -42 43v10q0 43 42 43h8q42 0 42 -43v-10q0 -43 -42 -43h-8zM42 0v32l267 412h-263v46h333v-33l-264 -412h268v-45h-341z" />
    <glyph glyph-name="Zcaron" unicode="&#x17d;" horiz-adv-x="544" 
d="M246 762l-116 142l22 20l124 -111l124 111l22 -20l-116 -142h-60zM56 0v42l361 590h-360v52h431v-42l-361 -590h365v-52h-436z" />
    <glyph glyph-name="zcaron" unicode="&#x17e;" horiz-adv-x="417" 
d="M186 592l-116 142l22 20l124 -111l124 111l22 -20l-116 -142h-60zM42 0v32l267 412h-263v46h333v-33l-264 -412h268v-45h-341z" />
    <glyph glyph-name="longs" unicode="&#x17f;" horiz-adv-x="280" 
d="M108 0v444h-90v35l90 11v81q0 83 34 120q38 41 118 41q34 0 70 -6v-49q-38 4 -62 4q-56 0 -79 -24t-23 -94v-563h-58z" />
    <glyph glyph-name="florin" unicode="&#x192;" horiz-adv-x="532" 
d="M92 -250q-31 0 -65 6v47q29 -4 61 -4q60 0 84 27q26 29 31 104l28 371h-116v32l119 11l16 208q7 93 44 133q40 43 123 43q31 0 65 -6v-47q-29 4 -61 4q-60 0 -84 -27q-26 -29 -31 -104l-15 -202h131v-45h-135l-28 -375q-7 -93 -44 -133q-40 -43 -123 -43z" />
    <glyph glyph-name="uni01CD" unicode="&#x1cd;" horiz-adv-x="560" 
d="M242 762l-116 142l22 20l124 -111l124 111l22 -20l-116 -142h-60zM22 0l214 684h73l229 -684h-63l-61 187h-275l-57 -187h-60zM155 238h242l-125 384z" />
    <glyph glyph-name="uni01CE" unicode="&#x1ce;" horiz-adv-x="489" 
d="M217 592l-116 142l22 20l124 -111l124 111l22 -20l-116 -142h-60zM210 -14q-74 0 -119 39t-45 113q0 67 38 103q48 45 158 45h118v40q0 69 -29 98q-28 29 -99 29q-67 0 -137 -16l-4 48q73 19 146 19q99 0 141 -43q40 -42 40 -127v-334h-47l-3 33q-78 -47 -158 -47z
M220 37q77 0 140 36v166h-109q-87 0 -119 -28q-28 -24 -28 -72q0 -102 116 -102z" />
    <glyph glyph-name="Aringacute" unicode="&#x1fa;" horiz-adv-x="560" 
d="M198 1043l-23 29l171 157l38 -50zM270 761q-50 0 -78.5 27.5t-28.5 76.5v4q0 49 28.5 76.5t78.5 27.5h4q50 0 78.5 -27.5t28.5 -76.5v-4q0 -49 -28.5 -76.5t-78.5 -27.5h-4zM270 806h3q59 0 59 59v4q0 59 -59 59h-3q-58 0 -58 -59v-4q0 -59 58 -59zM22 0l214 684h73
l229 -684h-63l-61 187h-275l-57 -187h-60zM155 238h242l-125 384z" />
    <glyph glyph-name="aringacute" unicode="&#x1fb;" horiz-adv-x="489" 
d="M163 797l-23 29l171 157l38 -50zM243 560q-50 0 -78.5 27.5t-28.5 76.5v4q0 49 28.5 76.5t78.5 27.5h4q50 0 78.5 -27.5t28.5 -76.5v-4q0 -49 -28.5 -76.5t-78.5 -27.5h-4zM243 605h3q59 0 59 59v4q0 59 -59 59h-3q-58 0 -58 -59v-4q0 -59 58 -59zM210 -14q-74 0 -119 39
t-45 113q0 67 38 103q48 45 158 45h118v40q0 69 -29 98q-28 29 -99 29q-67 0 -137 -16l-4 48q73 19 146 19q99 0 141 -43q40 -42 40 -127v-334h-47l-3 33q-78 -47 -158 -47zM220 37q77 0 140 36v166h-109q-87 0 -119 -28q-28 -24 -28 -72q0 -102 116 -102z" />
    <glyph glyph-name="AEacute" unicode="&#x1fc;" horiz-adv-x="853" 
d="M512 754l-23 29l171 157l38 -50zM10 0l392 684h389l-7 -52h-293v-259h241v-53h-241v-268h308v-52h-368v182h-255l-104 -182h-62zM205 233h226v395z" />
    <glyph glyph-name="aeacute" unicode="&#x1fd;" horiz-adv-x="802" 
d="M352 574l-23 29l171 157l38 -50zM590 -15q-122 0 -179 69q-40 -31 -94.5 -49.5t-106.5 -18.5q-74 0 -119 39t-45 113q0 67 38 103q48 45 158 45h118v40q0 69 -29 98q-28 29 -99 29q-67 0 -137 -16l-4 48q73 19 146 19q99 0 141 -43q16 -18 24 -36q53 78 155 78
q193 0 193 -262v-9q0 -11 -12 -11h-320q2 -92 42.5 -139t133.5 -47q57 0 124 15l5 -47q-59 -18 -133 -18zM418 268h275q0 88 -33.5 137.5t-102.5 49.5q-64 0 -99 -42.5t-40 -119.5v-25zM220 37q92 0 167 56q-27 58 -27 146h-109q-87 0 -119 -28q-28 -24 -28 -72
q0 -102 116 -102z" />
    <glyph glyph-name="Oslashacute" unicode="&#x1fe;" horiz-adv-x="640" 
d="M246 754l-23 29l171 157l38 -50zM134 -74l39 101q-113 82 -113 314q0 356 260 356q60 0 104 -19l31 79h53l-40 -103q112 -82 112 -313q0 -355 -260 -355q-58 0 -103 18l-30 -78h-53zM196 85l207 539q-37 16 -83 16q-106 0 -152 -76.5t-46 -222.5q0 -189 74 -256zM320 43
q106 0 152 76t46 222q0 186 -73 255l-207 -538q34 -15 82 -15z" />
    <glyph glyph-name="oslashacute" unicode="&#x1ff;" horiz-adv-x="522" 
d="M179 574l-23 29l171 157l38 -50zM108 -84l38 98q-96 57 -96 231q0 259 214 259q38 0 70 -9l31 79h50l-38 -97q95 -56 95 -232q0 -259 -211 -259q-41 0 -72 9l-31 -79h-50zM166 65l149 382q-22 7 -54 7q-81 0 -116 -52t-35 -157q0 -134 56 -180zM261 36q81 0 116 52
t35 157q0 133 -56 179l-149 -381q22 -7 54 -7z" />
    <glyph glyph-name="Scommaaccent" unicode="&#x218;" horiz-adv-x="523" 
d="M239 -14q-94 0 -183 29l11 51q84 -27 164 -27q92 0 134 32q43 33 43 99q0 51 -36.5 86t-88 56l-103 43.5t-88 64t-36.5 102.5q0 73 44 119q55 56 170 56q82 0 157 -24l-11 -48q-69 19 -143 19q-160 0 -160 -116q0 -36 19.5 -63t50.5 -45t68.5 -33.5t75 -33.5t68.5 -40
t50.5 -58t19.5 -83q0 -93 -59.5 -139.5t-166.5 -46.5zM252 -248v96q-32 9 -32 38v5q0 18 11 27t26 9h4q35 -1 35 -52q0 -69 -18 -123h-26z" />
    <glyph glyph-name="scommaaccent" unicode="&#x219;" horiz-adv-x="416" 
d="M189 -14q-77 0 -133 18l5 46q61 -16 125 -16q135 0 135 90q0 37 -28.5 60t-68.5 34.5t-80.5 25.5t-69 44t-28.5 79q0 68 46.5 102.5t130.5 34.5q65 0 121 -17l-3 -45q-65 14 -117 14q-123 0 -123 -86q0 -35 28.5 -56.5t69 -33.5t80.5 -26.5t68.5 -46t28.5 -80.5
q0 -68 -48 -104.5t-139 -36.5zM202 -248v96q-32 9 -32 38v5q0 18 11 27t26 9h4q35 -1 35 -52q0 -69 -18 -123h-26z" />
    <glyph glyph-name="uni021A" unicode="&#x21a;" horiz-adv-x="550" 
d="M246 0v632h-220v52h503l-7 -52h-216v-632h-60zM269 -248v96q-32 9 -32 38v5q0 18 11 27t26 9h4q35 -1 35 -52q0 -69 -18 -123h-26z" />
    <glyph glyph-name="uni021B" unicode="&#x21b;" horiz-adv-x="344" 
d="M236 -14q-68 0 -99 31q-33 33 -33 114v313h-90v35l90 11v113q30 9 58 12v-125h130v-46h-130v-295q0 -70 18 -90q20 -22 65 -22q35 0 75 9l4 -47q-39 -13 -88 -13zM212 -248v96q-32 9 -32 38v5q0 18 11 27t26 9h4q35 -1 35 -52q0 -69 -18 -123h-26z" />
    <glyph glyph-name="uni0237" unicode="&#x237;" horiz-adv-x="210" 
d="M-55 -237l-7 50q79 0 110 33q16 17 22 42t6 75v527h58v-527q0 -110 -44 -155t-145 -45z" />
    <glyph glyph-name="circumflex" unicode="&#x2c6;" horiz-adv-x="400" 
d="M76 584l-22 20l116 142h60l116 -142l-22 -20l-124 111z" />
    <glyph glyph-name="caron" unicode="&#x2c7;" horiz-adv-x="400" 
d="M170 592l-116 142l22 20l124 -111l124 111l22 -20l-116 -142h-60z" />
    <glyph glyph-name="breve" unicode="&#x2d8;" horiz-adv-x="400" 
d="M200 586q-61 0 -92 34.5t-33 91.5h39q14 -74 86 -74t86 74h39q-2 -57 -33 -91.5t-92 -34.5z" />
    <glyph glyph-name="dotaccent" unicode="&#x2d9;" horiz-adv-x="400" 
d="M196 608q-42 0 -42 43v10q0 43 42 43h8q42 0 42 -43v-10q0 -43 -42 -43h-8z" />
    <glyph glyph-name="ring" unicode="&#x2da;" horiz-adv-x="400" 
d="M198 581q-50 0 -78.5 27.5t-28.5 76.5v4q0 49 28.5 76.5t78.5 27.5h4q50 0 78.5 -27.5t28.5 -76.5v-4q0 -49 -28.5 -76.5t-78.5 -27.5h-4zM198 626h3q59 0 59 59v4q0 59 -59 59h-3q-58 0 -58 -59v-4q0 -59 58 -59z" />
    <glyph glyph-name="ogonek" unicode="&#x2db;" horiz-adv-x="400" 
d="M210 -211q-47 0 -72 24.5t-25 65.5q0 43 27.5 79t70.5 58l48 -1q-95 -58 -95 -129q0 -54 59 -54q18 0 63 6v-38q-46 -11 -76 -11z" />
    <glyph glyph-name="tilde" unicode="&#x2dc;" horiz-adv-x="400" 
d="M265 610q-26 0 -68.5 20t-60.5 20q-26 0 -42 -39l-36 7q11 88 76 88q26 0 68.5 -20t60.5 -20q26 0 42 39l36 -7q-11 -88 -76 -88z" />
    <glyph glyph-name="hungarumlaut" unicode="&#x2dd;" horiz-adv-x="400" 
d="M44 582l-28 24l141 185l46 -43zM224 582l-28 24l141 185l46 -43z" />
    <glyph glyph-name="gravecomb" unicode="&#x300;" 
d="M-119 574l-186 136l38 50l171 -157z" />
    <glyph glyph-name="acutecomb" unicode="&#x301;" 
d="M-282 574l-23 29l171 157l38 -50z" />
    <glyph glyph-name="uni0302" unicode="&#x302;" 
d="M-324 584l-22 20l116 142h60l116 -142l-22 -20l-124 111z" />
    <glyph glyph-name="tildecomb" unicode="&#x303;" 
d="M-135 610q-26 0 -68.5 20t-60.5 20q-26 0 -42 -39l-36 7q11 88 76 88q26 0 68.5 -20t60.5 -20q26 0 42 39l36 -7q-11 -88 -76 -88z" />
    <glyph glyph-name="uni0304" unicode="&#x304;" 
d="M-322 618v49h243v-49h-243z" />
    <glyph glyph-name="uni0306" unicode="&#x306;" 
d="M-200 586q-61 0 -92 34.5t-33 91.5h39q14 -74 86 -74t86 74h39q-2 -57 -33 -91.5t-92 -34.5z" />
    <glyph glyph-name="uni0307" unicode="&#x307;" 
d="M-204 608q-42 0 -42 43v10q0 43 42 43h8q42 0 42 -43v-10q0 -43 -42 -43h-8z" />
    <glyph glyph-name="uni0308" unicode="&#x308;" 
d="M-295 615q-39 0 -39 39v9q0 41 39 41h8q39 0 39 -41v-9q0 -39 -39 -39h-8zM-113 615q-39 0 -39 39v9q0 41 39 41h8q39 0 39 -41v-9q0 -39 -39 -39h-8z" />
    <glyph glyph-name="uni030A" unicode="&#x30a;" 
d="M-202 581q-50 0 -78.5 27.5t-28.5 76.5v4q0 49 28.5 76.5t78.5 27.5h4q50 0 78.5 -27.5t28.5 -76.5v-4q0 -49 -28.5 -76.5t-78.5 -27.5h-4zM-202 626h3q59 0 59 59v4q0 59 -59 59h-3q-58 0 -58 -59v-4q0 -59 58 -59z" />
    <glyph glyph-name="uni030B" unicode="&#x30b;" 
d="M-356 582l-28 24l141 185l46 -43zM-176 582l-28 24l141 185l46 -43z" />
    <glyph glyph-name="uni030C" unicode="&#x30c;" 
d="M-230 592l-116 142l22 20l124 -111l124 111l22 -20l-116 -142h-60z" />
    <glyph glyph-name="uni0326" unicode="&#x326;" 
d="M-208 -248v96q-32 9 -32 38v5q0 18 11 27t26 9h4q35 -1 35 -52q0 -69 -18 -123h-26z" />
    <glyph glyph-name="uni0327" unicode="&#x327;" 
d="M-212 -211q-34 0 -68 9v40q35 -7 63 -7q50 0 50 29q0 15 -17 24.5t-38 14t-38 17.5t-17 34q0 27 24 53h31q-11 -19 -11 -34t17.5 -24.5t39 -14.5t39 -22t17.5 -46q0 -34 -24 -53.5t-68 -19.5z" />
    <glyph glyph-name="uni0328" unicode="&#x328;" 
d="M-190 -211q-47 0 -72 24.5t-25 65.5q0 43 27.5 79t70.5 58l48 -1q-95 -58 -95 -129q0 -54 59 -54q18 0 63 6v-38q-46 -11 -76 -11z" />
    <glyph glyph-name="uni0394" unicode="&#x394;" horiz-adv-x="603" 
d="M38 0v16q0 23 9 48l215 620h74l220 -620q9 -25 9 -48v-16h-527zM103 51h394l-200 576z" />
    <glyph glyph-name="uni03A9" unicode="&#x3a9;" horiz-adv-x="658" 
d="M83 0v52h136q-71 54 -113 138.5t-42 188.5q0 146 71 232t194 86t194 -86t71 -232q0 -104 -42 -188.5t-113 -138.5h136v-52h-209v26q0 22 20 39q146 121 146 311q0 124 -51.5 194t-151.5 70t-151.5 -70t-51.5 -194q0 -190 146 -311q20 -17 20 -39v-26h-209z" />
    <glyph glyph-name="uni03BC" unicode="&#x3bc;" horiz-adv-x="532" 
d="M74 -225v715h58v-324q0 -70 28 -98q29 -29 87 -29q75 0 153 39v412h58v-490h-46l-4 37q-84 -51 -170 -51q-66 0 -106 27v-238h-58z" />
    <glyph glyph-name="pi" unicode="&#x3c0;" horiz-adv-x="605" 
d="M115 0v441h-85v45h545v-45h-85v-441h-58v441h-259v-441h-58z" />
    <glyph glyph-name="Wgrave" unicode="&#x1e80;" horiz-adv-x="857" 
d="M514 754l-186 136l38 50l171 -157zM219 0l-193 684h60l170 -614l143 614h68l152 -606l156 606h56l-177 -684h-71l-150 600l-138 -600h-76z" />
    <glyph glyph-name="wgrave" unicode="&#x1e81;" horiz-adv-x="683" 
d="M423 574l-186 136l38 50l171 -157zM161 0l-143 490h60l118 -426l114 426h61l131 -432l108 432h55l-131 -490h-66l-127 415l-113 -415h-67z" />
    <glyph glyph-name="Wacute" unicode="&#x1e82;" horiz-adv-x="857" 
d="M359 754l-23 29l171 157l38 -50zM219 0l-193 684h60l170 -614l143 614h68l152 -606l156 606h56l-177 -684h-71l-150 600l-138 -600h-76z" />
    <glyph glyph-name="wacute" unicode="&#x1e83;" horiz-adv-x="683" 
d="M260 574l-23 29l171 157l38 -50zM161 0l-143 490h60l118 -426l114 426h61l131 -432l108 432h55l-131 -490h-66l-127 415l-113 -415h-67z" />
    <glyph glyph-name="Wdieresis" unicode="&#x1e84;" horiz-adv-x="857" 
d="M338 795q-39 0 -39 39v9q0 41 39 41h8q39 0 39 -41v-9q0 -39 -39 -39h-8zM520 795q-39 0 -39 39v9q0 41 39 41h8q39 0 39 -41v-9q0 -39 -39 -39h-8zM219 0l-193 684h60l170 -614l143 614h68l152 -606l156 606h56l-177 -684h-71l-150 600l-138 -600h-76z" />
    <glyph glyph-name="wdieresis" unicode="&#x1e85;" horiz-adv-x="683" 
d="M247 615q-39 0 -39 39v9q0 41 39 41h8q39 0 39 -41v-9q0 -39 -39 -39h-8zM429 615q-39 0 -39 39v9q0 41 39 41h8q39 0 39 -41v-9q0 -39 -39 -39h-8zM161 0l-143 490h60l118 -426l114 426h61l131 -432l108 432h55l-131 -490h-66l-127 415l-113 -415h-67z" />
    <glyph glyph-name="Ygrave" unicode="&#x1ef2;" horiz-adv-x="546" 
d="M329 754l-186 136l38 50l171 -157zM238 0v281l-216 403h66l184 -351l191 351h61l-226 -406v-278h-60z" />
    <glyph glyph-name="ygrave" unicode="&#x1ef3;" horiz-adv-x="529" 
d="M346 574l-186 136l38 50l171 -157zM269 -239q-44 0 -73 7l-7 49q30 -5 70 -5q77 0 108 27q30 27 30 108v85q-81 -46 -162 -46q-82 0 -123 41t-41 124v339h58v-324q0 -70 28 -98q29 -29 87 -29q75 0 153 39v412h58v-545q0 -97 -40 -138q-45 -46 -146 -46z" />
    <glyph glyph-name="endash" unicode="&#x2013;" horiz-adv-x="500" 
d="M0 234v51h500v-51h-500z" />
    <glyph glyph-name="emdash" unicode="&#x2014;" horiz-adv-x="1000" 
d="M0 234v51h1000v-51h-1000z" />
    <glyph glyph-name="quoteleft" unicode="&#x2018;" horiz-adv-x="213" 
d="M110 495q-21 1 -30.5 13.5t-9.5 43.5q0 73 20 145h27v-115q36 -9 36 -41v-5q0 -41 -39 -41h-4z" />
    <glyph glyph-name="quoteright" unicode="&#x2019;" horiz-adv-x="213" 
d="M96 495v115q-36 9 -36 41v5q0 41 39 41h4q21 -1 30.5 -13.5t9.5 -43.5q0 -73 -20 -145h-27z" />
    <glyph glyph-name="quotesinglbase" unicode="&#x201a;" horiz-adv-x="213" 
d="M96 -131v115q-36 9 -36 41v5q0 41 39 41h4q21 -1 30.5 -13.5t9.5 -43.5q0 -73 -20 -145h-27z" />
    <glyph glyph-name="quotedblleft" unicode="&#x201c;" horiz-adv-x="341" 
d="M110 495q-21 1 -30.5 13.5t-9.5 43.5q0 73 20 145h27v-115q36 -9 36 -41v-5q0 -41 -39 -41h-4zM238 495q-21 1 -30.5 13.5t-9.5 43.5q0 73 20 145h27v-115q36 -9 36 -41v-5q0 -41 -39 -41h-4z" />
    <glyph glyph-name="quotedblright" unicode="&#x201d;" horiz-adv-x="341" 
d="M96 495v115q-36 9 -36 41v5q0 41 39 41h4q21 -1 30.5 -13.5t9.5 -43.5q0 -73 -20 -145h-27zM224 495v115q-36 9 -36 41v5q0 41 39 41h4q21 -1 30.5 -13.5t9.5 -43.5q0 -73 -20 -145h-27z" />
    <glyph glyph-name="quotedblbase" unicode="&#x201e;" horiz-adv-x="341" 
d="M96 -131v115q-36 9 -36 41v5q0 41 39 41h4q21 -1 30.5 -13.5t9.5 -43.5q0 -73 -20 -145h-27zM224 -131v115q-36 9 -36 41v5q0 41 39 41h4q21 -1 30.5 -13.5t9.5 -43.5q0 -73 -20 -145h-27z" />
    <glyph glyph-name="dagger" unicode="&#x2020;" horiz-adv-x="491" 
d="M219 -237l6 628l-195 -9v53l195 -9l-6 258h53l-6 -258l195 9v-53l-195 9l6 -628h-53z" />
    <glyph glyph-name="daggerdbl" unicode="&#x2021;" horiz-adv-x="491" 
d="M219 -237l6 258l-195 -9v53l195 -9v335l-195 -9v53l195 -9l-6 258h53l-6 -258l195 9v-53l-195 9v-335l195 9v-53l-195 9l6 -258h-53z" />
    <glyph glyph-name="bullet" unicode="&#x2022;" horiz-adv-x="359" 
d="M170 222q-106 0 -106 114v12q0 114 106 114h19q106 0 106 -114v-12q0 -114 -106 -114h-19z" />
    <glyph glyph-name="ellipsis" unicode="&#x2026;" horiz-adv-x="666" 
d="M109 -14q-39 0 -39 39v5q0 41 39 41h4q39 0 39 -41v-5q0 -39 -39 -39h-4zM331 -14q-39 0 -39 39v5q0 41 39 41h4q39 0 39 -41v-5q0 -39 -39 -39h-4zM553 -14q-39 0 -39 39v5q0 41 39 41h4q39 0 39 -41v-5q0 -39 -39 -39h-4z" />
    <glyph glyph-name="perthousand" unicode="&#x2030;" horiz-adv-x="1242" 
d="M208 293q-148 0 -148 202t148 202t148 -202t-148 -202zM247 -14l344 711h54l-344 -711h-54zM208 340q52 0 74 36.5t22 118.5t-22 118.5t-74 36.5t-74 -36.5t-22 -118.5t22 -118.5t74 -36.5zM684 -14q-148 0 -148 202t148 202t148 -202t-148 -202zM1034 -14
q-148 0 -148 202t148 202t148 -202t-148 -202zM684 33q52 0 74 36.5t22 118.5t-22 118.5t-74 36.5t-74 -36.5t-22 -118.5t22 -118.5t74 -36.5zM1034 33q52 0 74 36.5t22 118.5t-22 118.5t-74 36.5t-74 -36.5t-22 -118.5t22 -118.5t74 -36.5z" />
    <glyph glyph-name="guilsinglleft" unicode="&#x2039;" horiz-adv-x="335" 
d="M236 64l-125 145q-27 32 -27 53t27 53l125 145l29 -21l-119 -177l119 -177z" />
    <glyph glyph-name="guilsinglright" unicode="&#x203a;" horiz-adv-x="335" 
d="M99 64l-29 21l119 177l-119 177l29 21l125 -145q27 -32 27 -53t-27 -53z" />
    <glyph glyph-name="fraction" unicode="&#x2044;" horiz-adv-x="374" 
d="M-12 -14l344 711h54l-344 -711h-54z" />
    <glyph glyph-name="Euro" unicode="&#x20ac;" horiz-adv-x="532" 
d="M373 -14q-123 0 -188.5 64.5t-80.5 200.5h-74v32l71 9q-1 15 -1 46v26h-70v32l72 9q12 152 85 226q64 66 182 66q65 0 131 -21v-46q-65 18 -126 18q-89 0 -139 -47q-62 -59 -74 -193h219v-44h-221v-24q0 -31 1 -45h220v-44h-217q12 -113 64 -165t153 -52q57 0 130 15v-45
q-72 -18 -137 -18z" />
    <glyph glyph-name="uni2113" unicode="&#x2113;" horiz-adv-x="210" 
d="M76 0v715h58v-715h-58z" />
    <glyph glyph-name="uni2116" unicode="&#x2116;" horiz-adv-x="1016" 
d="M88 0v684h41l395 -575v575h54v-684h-45l-391 570v-570h-54zM816 240q-72 0 -117 47.5t-45 131.5t45 131.5t117 47.5t117 -47.5t45 -131.5t-45 -131.5t-117 -47.5zM816 284q52 0 81.5 35.5t29.5 99.5t-29.5 99.5t-81.5 35.5t-81.5 -35.5t-29.5 -99.5t29.5 -99.5
t81.5 -35.5z" />
    <glyph glyph-name="trademark" unicode="&#x2122;" horiz-adv-x="647" 
d="M115 365v278h-99v41h245v-41h-99v-278h-47zM313 365v319h47l100 -208l105 208h46v-319h-46v227l-88 -174h-35l-85 176v-229h-44z" />
    <glyph glyph-name="uni2126" unicode="&#x2126;" horiz-adv-x="658" 
d="M83 0v52h136q-71 54 -113 138.5t-42 188.5q0 146 71 232t194 86t194 -86t71 -232q0 -104 -42 -188.5t-113 -138.5h136v-52h-209v26q0 22 20 39q146 121 146 311q0 124 -51.5 194t-151.5 70t-151.5 -70t-51.5 -194q0 -190 146 -311q20 -17 20 -39v-26h-209z" />
    <glyph glyph-name="estimated" unicode="&#x212e;" horiz-adv-x="874" 
d="M438 -14q-165 0 -281.5 104t-116.5 251q0 148 116.5 252t281.5 104q163 0 279.5 -104t116.5 -252v-8h-642q-7 0 -7 -6v-194q0 -10 11 -23q99 -102 243 -102q76 0 142 31t112 85h59q-57 -64 -139 -101t-175 -37zM192 352h490q7 0 7 6v196q0 12 -12 24q-98 98 -238 98
q-144 0 -243 -101q-11 -13 -11 -26v-191q0 -6 7 -6z" />
    <glyph glyph-name="partialdiff" unicode="&#x2202;" horiz-adv-x="532" 
d="M256 -14q-97 0 -149.5 60.5t-52.5 165.5q0 99 49.5 148.5t142.5 49.5q77 0 161 -34q-3 87 -17 142.5t-46 86.5q-43 41 -132 41q-49 0 -98 -7v47q49 11 106 11q114 0 169 -61q79 -87 79 -330q0 -153 -49.5 -236.5t-162.5 -83.5zM256 36q152 0 152 249v49q-76 27 -151 27
q-73 0 -109.5 -35.5t-36.5 -118.5q0 -80 37 -125.5t108 -45.5z" />
    <glyph glyph-name="uni2206" unicode="&#x2206;" horiz-adv-x="603" 
d="M38 0v16q0 23 9 48l215 620h74l220 -620q9 -25 9 -48v-16h-527zM103 51h394l-200 576z" />
    <glyph glyph-name="product" unicode="&#x220f;" horiz-adv-x="717" 
d="M144 -225v857h-94v52h617v-52h-94v-857h-60v857h-309v-857h-60z" />
    <glyph glyph-name="summation" unicode="&#x2211;" horiz-adv-x="599" 
d="M66 -225v42l302 418l-299 406v43h465v-52h-392l292 -397l-301 -408h406v-52h-473z" />
    <glyph glyph-name="minus" unicode="&#x2212;" horiz-adv-x="513" 
d="M100 308v49h313v-49h-313z" />
    <glyph glyph-name="radical" unicode="&#x221a;" horiz-adv-x="641" 
d="M309 0l-168 443h-67v47h110l156 -420l222 661h55l-248 -731h-60z" />
    <glyph glyph-name="infinity" unicode="&#x221e;" horiz-adv-x="685" 
d="M489 170q-47 0 -79 27.5t-59 76.5q-66 -102 -153 -102q-71 0 -106.5 48t-35.5 121q0 71 35.5 118.5t104.5 47.5q85 0 140 -101q64 99 151 99q71 0 106.5 -48t35.5 -121q0 -71 -35.5 -118.5t-104.5 -47.5zM200 219q40 0 69 24t60 75q-41 82 -63 106q-31 34 -71 34
q-41 0 -64.5 -31t-23.5 -86q0 -57 24 -89.5t69 -32.5zM490 219q41 0 64.5 31t23.5 86q0 58 -24 90t-69 32q-39 0 -68 -23.5t-59 -71.5q39 -83 59 -107q31 -37 73 -37z" />
    <glyph glyph-name="integral" unicode="&#x222b;" horiz-adv-x="513" 
d="M138 -239q-37 0 -68 5v46q16 -4 52 -4q59 0 81 21q26 23 26 101v650q0 90 36 126q37 37 110 37q37 0 68 -5v-46q-16 4 -52 4q-59 0 -81 -21q-26 -23 -26 -101v-650q0 -90 -36 -126q-37 -37 -110 -37z" />
    <glyph glyph-name="approxequal" unicode="&#x2248;" horiz-adv-x="513" 
d="M346 378q-32 0 -92.5 18.5t-81.5 18.5q-27 0 -33 -31l-35 5q6 75 64 75q30 0 90.5 -18.5t83.5 -18.5q27 0 33 31l35 -5q-6 -75 -64 -75zM346 197q-32 0 -92.5 18.5t-81.5 18.5q-27 0 -33 -31l-35 5q6 75 64 75q30 0 90.5 -18.5t83.5 -18.5q27 0 33 31l35 -5
q-6 -75 -64 -75z" />
    <glyph glyph-name="notequal" unicode="&#x2260;" horiz-adv-x="876" 
d="M780 371v-58h-312v-313h-60v313h-312v58h312v313h60v-313h312z" />
    <glyph glyph-name="lessequal" unicode="&#x2264;" horiz-adv-x="513" 
d="M410 145l-307 157v55l307 157v-56l-260 -129l260 -128v-56zM100 0v49h313v-49h-313z" />
    <glyph glyph-name="greaterequal" unicode="&#x2265;" horiz-adv-x="513" 
d="M103 145v56l260 128l-260 129v56l307 -157v-55zM100 0v49h313v-49h-313z" />
    <glyph glyph-name="lozenge" unicode="&#x25ca;" horiz-adv-x="558" 
d="M246 0l-179 285q-23 38 -23 57t23 57l179 285h66l179 -285q23 -38 23 -57t-23 -57l-179 -285h-66zM279 42l185 300l-185 300l-185 -300z" />
    <glyph glyph-name="uniF8FF" unicode="&#xf8ff;" horiz-adv-x="606" 
d="M100 0v684h406v-66h-338v-550h75v-68h-143zM235 210v67h205v69h-205v203h271v-68h-202v-67h202v-204h-271z" />
    <glyph glyph-name="i.loclTRK" horiz-adv-x="210" 
d="M101 608q-42 0 -42 43v10q0 43 42 43h8q42 0 42 -43v-10q0 -43 -42 -43h-8zM76 0v490h58v-490h-58z" />
    <glyph glyph-name="notequal.ss01" horiz-adv-x="513" 
d="M144 77l50 146h-94v51h111l40 117h-151v51h169l50 147h52l-51 -147h93v-51h-111l-40 -117h151v-51h-169l-50 -146h-50z" />
    <glyph glyph-name="plus.ss01" horiz-adv-x="876" 
d="M780 371v-58h-312v-313h-60v313h-312v58h312v313h60v-313h312z" />
    <glyph glyph-name="uni0308.case" 
d="M-295 795q-39 0 -39 39v9q0 41 39 41h8q39 0 39 -41v-9q0 -39 -39 -39h-8zM-113 795q-39 0 -39 39v9q0 41 39 41h8q39 0 39 -41v-9q0 -39 -39 -39h-8z" />
    <glyph glyph-name="uni0307.case" 
d="M-204 788q-42 0 -42 43v10q0 43 42 43h8q42 0 42 -43v-10q0 -43 -42 -43h-8z" />
    <glyph glyph-name="gravecomb.case" 
d="M-119 754l-186 136l38 50l171 -157z" />
    <glyph glyph-name="acutecomb.case" 
d="M-282 754l-23 29l171 157l38 -50z" />
    <glyph glyph-name="uni030B.case" 
d="M-356 762l-28 24l141 185l46 -43zM-176 762l-28 24l141 185l46 -43z" />
    <glyph glyph-name="uni0302.case" 
d="M-324 754l-22 20l116 142h60l116 -142l-22 -20l-124 111z" />
    <glyph glyph-name="uni030C.case" 
d="M-230 762l-116 142l22 20l124 -111l124 111l22 -20l-116 -142h-60z" />
    <glyph glyph-name="uni0306.case" 
d="M-200 766q-61 0 -92 34.5t-33 91.5h39q14 -74 86 -74t86 74h39q-2 -57 -33 -91.5t-92 -34.5z" />
    <glyph glyph-name="uni030A.case" 
d="M-202 761q-50 0 -78.5 27.5t-28.5 76.5v4q0 49 28.5 76.5t78.5 27.5h4q50 0 78.5 -27.5t28.5 -76.5v-4q0 -49 -28.5 -76.5t-78.5 -27.5h-4zM-202 806h3q59 0 59 59v4q0 59 -59 59h-3q-58 0 -58 -59v-4q0 -59 58 -59z" />
    <glyph glyph-name="tildecomb.case" 
d="M-135 790q-26 0 -68.5 20t-60.5 20q-26 0 -42 -39l-36 7q11 88 76 88q26 0 68.5 -20t60.5 -20q26 0 42 39l36 -7q-11 -88 -76 -88z" />
    <glyph glyph-name="uni0304.case" 
d="M-322 808v49h243v-49h-243z" />
    <glyph glyph-name="acute.case" horiz-adv-x="400" 
d="M118 754l-23 29l171 157l38 -50z" />
    <glyph glyph-name="breve.case" horiz-adv-x="400" 
d="M200 766q-61 0 -92 34.5t-33 91.5h39q14 -74 86 -74t86 74h39q-2 -57 -33 -91.5t-92 -34.5z" />
    <glyph glyph-name="caron.case" horiz-adv-x="400" 
d="M170 762l-116 142l22 20l124 -111l124 111l22 -20l-116 -142h-60z" />
    <glyph glyph-name="circumflex.case" horiz-adv-x="400" 
d="M76 754l-22 20l116 142h60l116 -142l-22 -20l-124 111z" />
    <glyph glyph-name="dieresis.case" horiz-adv-x="400" 
d="M105 795q-39 0 -39 39v9q0 41 39 41h8q39 0 39 -41v-9q0 -39 -39 -39h-8zM287 795q-39 0 -39 39v9q0 41 39 41h8q39 0 39 -41v-9q0 -39 -39 -39h-8z" />
    <glyph glyph-name="dotaccent.case" horiz-adv-x="400" 
d="M196 788q-42 0 -42 43v10q0 43 42 43h8q42 0 42 -43v-10q0 -43 -42 -43h-8z" />
    <glyph glyph-name="grave.case" horiz-adv-x="400" 
d="M281 754l-186 136l38 50l171 -157z" />
    <glyph glyph-name="hungarumlaut.case" horiz-adv-x="400" 
d="M44 762l-28 24l141 185l46 -43zM224 762l-28 24l141 185l46 -43z" />
    <glyph glyph-name="macron.case" horiz-adv-x="400" 
d="M78 808v49h243v-49h-243z" />
    <glyph glyph-name="ring.case" horiz-adv-x="400" 
d="M198 761q-50 0 -78.5 27.5t-28.5 76.5v4q0 49 28.5 76.5t78.5 27.5h4q50 0 78.5 -27.5t28.5 -76.5v-4q0 -49 -28.5 -76.5t-78.5 -27.5h-4zM198 806h3q59 0 59 59v4q0 59 -59 59h-3q-58 0 -58 -59v-4q0 -59 58 -59z" />
    <glyph glyph-name="tilde.case" horiz-adv-x="400" 
d="M265 790q-26 0 -68.5 20t-60.5 20q-26 0 -42 -39l-36 7q11 88 76 88q26 0 68.5 -20t60.5 -20q26 0 42 39l36 -7q-11 -88 -76 -88z" />
    </font>
</defs>
</svg>
