<?xml version="1.0" standalone="no"?>
<!DOCTYPE svg PUBLIC "-//W3C//DTD SVG 1.1//EN" "http://www.w3.org/Graphics/SVG/1.1/DTD/svg11.dtd" >
<svg>
<metadata>
Created by FontForge 20090622 at Wed Mar 13 17:23:17 2019
 By deploy user
Copyright (c) 2015 by Fontsmith Ltd. All rights reserved. This font may not be altered in any way without prior permission of Fontsmith Ltd.
</metadata>
<defs>
<font id="Telefonica-Hand" horiz-adv-x="600" >
  <font-face 
    font-family="Telefonica Hand"
    font-weight="400"
    font-style="italic"
    font-stretch="normal"
    units-per-em="1000"
    panose-1="0 0 5 0 0 0 0 0 0 0"
    ascent="750"
    descent="-250"
    x-height="505"
    cap-height="690"
    bbox="-484.333 -253 1048 1154"
    underline-thickness="65"
    underline-position="-36"
    slope="-8"
    unicode-range="U+000D-U+FB02"
  />
<missing-glyph horiz-adv-x="662" 
d="M108 0v660h470v-660h-470zM343 372l159 240h-320zM156 90l159 241l-159 239v-480zM532 90v480l-160 -239zM182 49h320l-159 239z" />
    <glyph glyph-name="fi" unicode="fi" horiz-adv-x="606" 
d="M401 441q-63 10 -166 -2q-2 -14 -8 -52l-40 -260q-4 -26 -7.5 -42.5t-10.5 -38t-18 -33t-26 -11.5q-21 -1 -33 12t-6 48l51 300l12 65q-36 -5 -70.5 -13t-46.5 -8q-30 0 -24 39q6 38 156 52q33 132 84 192t137 60q36 0 64.5 -15.5t29.5 -46.5q1 -16 -9 -27t-23 -11
q-33 36 -79 36q-47 0 -73.5 -40t-46.5 -140q95 8 131.5 -6t21.5 -58zM582 737q18 0 28 -10.5t9 -26.5q0 -33 -21.5 -71.5t-53.5 -38.5q-25 0 -25 41q0 57 15.5 81.5t47.5 24.5zM534 492q33 -1 24 -54q-4 -26 -28 -110t-29 -132q-3 -24 -8 -78.5t-5 -56.5q-5 -46 -59 -46
q-36 0 -36 44q0 34 38 196.5t52 197.5q15 41 51 39z" />
    <glyph glyph-name="fl" unicode="fl" horiz-adv-x="650" 
d="M248 505q95 8 131.5 -6t21.5 -58q-63 10 -166 -2q-2 -14 -8 -52l-40 -260q-4 -26 -7.5 -42.5t-10.5 -38t-18 -33t-26 -11.5q-21 -1 -33 12t-6 48l51 300l12 65q-36 -5 -70.5 -13t-46.5 -8q-30 0 -24 39q6 38 156 52q33 132 84 192t137 60q36 0 64.5 -15.5t29.5 -46.5
q1 -16 -9 -27t-23 -11q-33 36 -79 36q-47 0 -73.5 -40t-46.5 -140zM584 107q13 0 13 -18q0 -30 -26.5 -56t-64.5 -26q-43 0 -65.5 31.5t-22.5 85.5q0 90 27 215t65 231q53 144 86 165q16 10 37 10q24 0 24 -22q0 -13 -12 -42.5t-30.5 -68t-23.5 -51.5q-35 -88 -62.5 -205
t-27.5 -195q0 -64 36 -64q7 0 23 5t24 5z" />
    <glyph glyph-name="f_f.liga" unicode="ff" horiz-adv-x="695" 
d="M806 687q1 -16 -9 -27t-23 -11q-33 36 -79 36t-72.5 -39t-47.5 -137q128 -1 163 -12.5t20 -55.5q-47 8 -195 4l-9 -58l-40 -260q-4 -26 -7.5 -42.5t-10.5 -38t-18 -33t-26 -11.5q-21 -1 -33 12t-6 48l51 300q8 47 15 80q-40 -2 -46 -2q-109 -3 -201 -13l-6 -40l-40 -260
q-4 -26 -7.5 -42.5t-10.5 -38t-18 -33t-26 -11.5q-21 -1 -33 12t-6 48l51 300l5.5 28.5t4.5 26.5q-34 -5 -68 -13t-47 -8q-30 0 -24 39t154 53q33 137 84 199t139 62q32 0 56 -13.5t25 -40.5q1 -16 -8 -27t-21 -11q-17 16 -30 22t-39 6q-48 0 -75 -42t-47 -148
q161 12 249 14q33 125 83.5 182.5t134.5 57.5q36 0 64.5 -15.5t29.5 -46.5z" />
    <glyph glyph-name="r_s.liga" unicode="rs" horiz-adv-x="777" 
d="M601 501q67 0 117 -35t47 -90q-1 -22 -19 -34.5t-38 -7.5q-5 48 -37 74.5t-76 26.5q-39 0 -63 -15t-24 -41q0 -27 18.5 -49t45 -38l53 -33.5t45 -43.5t18.5 -59q0 -49 -30.5 -82t-69 -44.5t-81.5 -11.5q-92 0 -135 32t-43 82q0 21 9.5 38.5t20.5 22.5q17 -54 54 -80.5
t87 -26.5q47 0 76.5 15t29.5 45q0 25 -20 45.5t-48 35.5l-56 31.5t-48 43.5t-20 62q0 65 52.5 101t134.5 36zM380 452q0 -21 -14 -36t-30 -15q-75 29 -131 -47q-65 -82 -104 -337q-35 -4 -52.5 16t-17.5 56q0 52 28 175t59 228q12 3 21 3q55 0 25 -125q33 58 77.5 93
t85.5 35q53 0 53 -46z" />
    <glyph glyph-name="r_t.liga" unicode="rt" horiz-adv-x="753" 
d="M754 427q-67 12 -222 16q-56 -216 -56 -303q0 -15 1 -24t6 -22.5t18 -20t33 -6.5q62 0 142 77q13 -2 21.5 -9.5t8.5 -17.5q0 -5 -7 -16q-34 -52 -92 -80t-111 -28q-106 0 -106 128q0 78 59 323q-81 -4 -146.5 -27t-97.5 -63q-65 -82 -104 -337q-35 -4 -52.5 16t-17.5 56
q0 52 28 175t59 228q12 3 21 3q56 0 24 -128q56 97 172 126q35 9 129 11q39 158 61 209q5 3 14 3q20 0 32 -11t14.5 -21t2.5 -20q0 -8 -3.5 -22.5t-9.5 -35.5t-8 -29l-19 -72q138 0 178 -11q36 -12 36 -39q-3 -21 -8 -28z" />
    <glyph glyph-name="t_t.liga" unicode="tt" horiz-adv-x="826" 
d="M820 455q-58 9 -215 3q-57 -215 -57 -308q0 -18 1.5 -28t7 -25t20.5 -22.5t39 -7.5q62 0 142 77q13 -2 21.5 -9.5t8.5 -17.5q0 -5 -7 -16q-34 -52 -92 -80t-111 -28q-116 0 -116 138q0 81 59 324q-8 0 -20 -0.5t-16 -0.5q-138 -3 -267 -14q-56 -214 -56 -300q0 -15 1 -24
t6 -22.5t18 -20t33 -6.5q49 0 112 57q13 -2 21.5 -9.5t8.5 -17.5q0 -5 -7 -16q-31 -46 -78.5 -67t-94.5 -21q-106 0 -106 128q0 70 56 309q-32 -5 -64.5 -12.5t-44.5 -7.5q-30 0 -24 39q6 38 150 52q40 157 63 212q5 3 14 3q20 0 32 -11t14.5 -21t2.5 -20q0 -8 -3.5 -22.5
t-9.5 -35.5t-8 -29l-18 -69q175 12 302 15q37 142 59 190q5 3 14 3q20 0 32 -11t14.5 -21t2.5 -20q0 -8 -3.5 -22.5t-9.5 -35.5t-8 -29q-14 -49 -16 -54q137 -1 175 -12.5t22 -55.5z" />
    <glyph glyph-name=".notdef" horiz-adv-x="662" 
d="M108 0v660h470v-660h-470zM343 372l159 240h-320zM156 90l159 241l-159 239v-480zM532 90v480l-160 -239zM182 49h320l-159 239z" />
    <glyph glyph-name=".null" horiz-adv-x="0" 
 />
    <glyph glyph-name="nonmarkingreturn" horiz-adv-x="333" 
 />
    <glyph glyph-name="CR" unicode="&#xd;" horiz-adv-x="280" 
 />
    <glyph glyph-name="space" unicode=" " horiz-adv-x="280" 
 />
    <glyph glyph-name="exclam" unicode="!" horiz-adv-x="247" 
d="M131 215q-30 -3 -41.5 15.5t-11.5 60.5q0 85 31.5 195.5t79.5 212.5q27 4 45 -13t18 -44q0 -15 -8.5 -37t-28 -65.5t-34.5 -86.5q-42 -118 -50 -238zM82 -20q-29 0 -44.5 20t-15.5 42t19 38t41 16t38 -15t16 -37q0 -26 -16 -45t-38 -19z" />
    <glyph glyph-name="quotedbl" unicode="&#x22;" horiz-adv-x="251" 
d="M214 486q-20 -5 -42 5q32 127 33 218q20 15 45 15q45 3 1 -139q-16 -52 -37 -99zM96 478q-7 -1 -42 7q26 82 39 223q18 12 44 12q40 0 11 -110q-20 -76 -52 -132z" />
    <glyph glyph-name="numbersign" unicode="#" horiz-adv-x="549" 
d="M479 513q61 -9 92 -39l-7 -30q-9 -3 -32 0q-41 5 -73 6q-7 -23 -16 -58q-14 -56 -20 -83q89 0 89 -25q0 -19 -17 -27q-2 -1 -12.5 -2t-31.5 -2.5t-40 -3.5q-28 -146 -32 -232q-35 -10 -47.5 11.5t-12.5 60.5q1 61 19 152q-34 -5 -72 -12q-41 -9 -74 -21q-7 -28 -13 -55
t-9.5 -41.5t-3.5 -15.5q-11 -47 -32 -79t-40 -32q-16 0 -17.5 18.5t3.5 32.5q2 18 28 138q-35 -14 -56 -14q-34 0 -34 33q34 32 108 60q1 4 10.5 47l14.5 66q1 6 6 27.5t8 32.5q-37 -12 -90 -36l-22 26q18 51 128 83q44 192 55 227q16 8 40 2t27 -15q0 -14 -41 -198
q28 4 60 4q59 0 85 -1q34 103 69 183q11 8 33.5 5t30.5 -15l-26.5 -76zM269 295q54 8 81 10q0 2 0.5 5t1.5 5q17 78 35 137q-13 -1 -39 -1.5t-40 -0.5q-42 -2 -62 -5q-9 -36 -18 -78l-9.5 -42t-10.5 -44q38 10 61 14z" />
    <glyph glyph-name="dollar" unicode="$" horiz-adv-x="500" 
d="M383 662q65 -15 106.5 -50.5t41.5 -72.5q0 -17 -21 -17q-6 0 -16 5.5t-25.5 17.5t-17.5 14q-42 29 -84 39l-57 -226q67 -33 98 -70t31 -87q0 -70 -57 -116.5t-154 -65.5q-23 -95 -35 -130q-17 -45 -28 -45q-17 1 -15 37q2 44 15 129q-38 -2 -60 -2q-36 0 -57 12.5
t-21 34.5q0 6 1.5 11.5t4 9t7 6l8 4.5t9.5 3t9.5 1.5t10 0.5h9.5t8.5 -0.5t6.5 -0.5q42 -2 77 0q15 84 46 223q-71 35 -103.5 73.5t-32.5 97.5q0 82 59 127t163 45h1q20 88 43 114.5t62 11.5zM243 404l53 203h-14q-119 0 -119 -96q0 -64 80 -107zM373 202q0 54 -81 93
l-44 -184q125 20 125 91z" />
    <glyph glyph-name="percent" unicode="%" horiz-adv-x="689" 
d="M681 658q-144 -135 -271.5 -286.5t-308.5 -401.5q-41 3 -41 52q0 36 203 266.5t315 328.5q-98 -51 -150 -50q-21 0 -59 31v-7q0 -72 -72.5 -141t-131.5 -69q-46 0 -72.5 28.5t-26.5 76.5q0 79 62 147.5t144 68.5h1q27 0 51 -13t39 -28t38 -28t49 -13q32 0 103.5 32.5
t95.5 32.5q32 0 32 -27zM176 439q43 0 84 44.5t41 91.5q0 32 -9.5 45t-32.5 13q-50 0 -89 -47t-39 -93q0 -25 12 -39.5t33 -14.5zM567 335q42 0 69.5 -32t27.5 -79q0 -80 -67 -150t-147 -70q-42 0 -65.5 27.5t-23.5 77.5q0 80 62.5 153t143.5 73zM471 62q43 0 84 48t41 98
q0 58 -42 58q-50 0 -89 -50.5t-39 -99.5q0 -25 12 -39.5t33 -14.5z" />
    <glyph glyph-name="ampersand" unicode="&#x26;" horiz-adv-x="636" 
d="M571 25q29 -15 29 -31q0 -14 -12 -25t-31 -12q-53 0 -149 87q-79 -57 -186 -57q-82 0 -138 39t-56 121q0 123 162 199q-20 63 -20 132q1 57 17.5 99t39 63t54 34t52.5 15.5t44 2.5q74 0 107.5 -38.5t33.5 -89.5q0 -40 -19.5 -75t-56 -63t-75.5 -49t-92 -43
q25 -58 67 -107q45 -57 80 -92q57 70 84 203q23 8 36.5 -1t12.5 -37q0 -44 -28 -106q-25 -56 -62 -99q48 -40 106 -70zM366 633q-55 0 -87.5 -35.5t-32.5 -109.5q0 -61 15 -112q84 36 136.5 77.5t52.5 95.5q0 29 -20.5 56.5t-63.5 27.5zM114 158q0 -52 34.5 -79t85.5 -27
q76 0 131 33q-52 55 -91 105q-45 58 -68 113q-92 -51 -92 -145z" />
    <glyph glyph-name="quotesingle" unicode="'" horiz-adv-x="149" 
d="M105 480q-23 -4 -52 3q40 127 49 227q18 12 46 12q43 0 3 -126q-19 -62 -46 -116z" />
    <glyph glyph-name="parenleft" unicode="(" horiz-adv-x="354" 
d="M305 -155q-120 10 -201.5 121.5t-81.5 260.5q0 152 88 288.5t231 207.5q47 -10 47 -55q0 -12 -13.5 -24t-42.5 -30l-30 -17q-195 -133 -195 -384q0 -233 202 -340q11 -4 11 -14q0 -6 -4 -10.5t-11 -3.5z" />
    <glyph glyph-name="parenright" unicode=")" horiz-adv-x="335" 
d="M-24 -146q-11 -1 -17.5 5t-6.5 12q0 7 9 10q155 64 228 173t73 276q0 248 -201 350q2 17 15.5 27.5t34.5 10.5q72 0 126.5 -55.5t79.5 -134.5t25 -164q0 -130 -36.5 -235t-121 -180t-208.5 -95z" />
    <glyph glyph-name="asterisk" unicode="*" horiz-adv-x="356" 
d="M281 611q6 0 26.5 1.5t31 1t25 -2t21.5 -8t7 -17.5q0 -15 -7 -28q-43 12 -105 -2q36 -46 49 -81q4 -11 0.5 -18t-14.5 -7q-27 0 -92 78q-36 -57 -67 -117q-14 0 -27.5 12.5t-13.5 28.5q0 7 4 16t11.5 21t13.5 20l16 21t12 16q-6 1 -25 1t-31.5 1.5t-27.5 5.5t-22.5 13.5
t-7.5 24.5q0 14 9 28q49 -15 106 -13q-24 24 -39.5 62.5t-6.5 54.5q3 5 7 4q15 -4 30.5 -17.5t24 -24t23 -32.5t18.5 -27q49 91 105 91q22 0 37 -15q-30 -21 -91 -92z" />
    <glyph glyph-name="plus" unicode="+" 
d="M238 96q-1 27 4 67q3 18 11 53.5t11 53.5q0 2 1 6t1 6.5t0.5 6t0 6t-1 4.5t-2.5 3.5t-4.5 2.5t-6.5 1q-16 0 -45.5 -3t-36.5 -3q-36 -3 -48 8t-9 32q5 32 41.5 36.5t98.5 -1.5q11 0 19 2t13.5 4t9.5 9t7 13t5.5 20t4 25l4.5 33.5t6 40.5q2 13 13.5 21t29.5 7
q9 -1 13 -6.5t3.5 -15.5t-2.5 -19.5t-5.5 -24.5l-5.5 -23l-8 -52q-4 -15 0 -22.5t7 -9t11 -2.5q34 -3 104 -1q17 1 24.5 1t19 -1.5t15.5 -7.5t2 -16q-3 -12 -16.5 -24t-31.5 -13q-21 -1 -48.5 1t-46.5 2q-41 0 -55.5 -9.5t-18.5 -32.5q-10 -50 -13 -108q-2 -46 -21.5 -64
t-53.5 -6z" />
    <glyph glyph-name="comma" unicode="," horiz-adv-x="205" 
d="M13 -141q-20 -5 -37 3.5t-16 25.5q87 22 92 82q3 43 -30 85q-5 5 -2 17q5 16 20 29t36 13q27 0 42.5 -21.5t15.5 -55.5q0 -67 -36 -117t-85 -61z" />
    <glyph glyph-name="hyphen" unicode="-" horiz-adv-x="349" 
d="M106 214q-21 0 -34.5 1t-27.5 8t-14 20q1 43 78 43q2 0 89 -6q42 -4 113 6q12 -4 12 -20q0 -23 -36 -35q-51 -17 -180 -17z" />
    <glyph glyph-name="period" unicode="." horiz-adv-x="205" 
d="M70 -1q-28 0 -44.5 15t-16.5 38q0 27 15.5 45t46.5 18q24 0 38.5 -14.5t14.5 -38.5q0 -13 -3.5 -25.5t-16.5 -25t-34 -12.5z" />
    <glyph glyph-name="slash" unicode="/" horiz-adv-x="394" 
d="M56 -158q-3 -11 -19.5 -15t-30.5 1.5t-12 18.5q21 110 97 296.5t172 358t162 226.5q13 6 46.5 -1.5t37.5 -19.5q-142 -157 -260.5 -392.5t-192.5 -472.5z" />
    <glyph glyph-name="zero" unicode="0" horiz-adv-x="533" 
d="M208 -1q-41 0 -72 13t-48.5 33t-28.5 48.5t-14.5 54t-3.5 54.5q0 122 40 234t113.5 183.5t160.5 71.5q165 0 165 -197q0 -206 -90.5 -350.5t-221.5 -144.5zM217 73q51 0 102.5 58.5t85 154t33.5 193.5q0 154 -85 154q-86 0 -156 -124t-70 -278q0 -158 90 -158z" />
    <glyph glyph-name="one" unicode="1" horiz-adv-x="448" 
d="M396 653q13 -30 9 -41q-107 -278 -154 -525q73 0 132 -6q5 -26 0.5 -40.5t-15.5 -16.5q-41 -10 -278 -10q-23 0 -41.5 16t-18.5 36q0 10 11 13t45 5l83 3q58 257 125 462q-30 -18 -87.5 -40t-71.5 -22q-10 0 -17.5 8t-7.5 19q0 14 12 21q22 17 131.5 76.5t126.5 59.5
q8 0 16 -18z" />
    <glyph glyph-name="two" unicode="2" horiz-adv-x="545" 
d="M397 111q38 -3 56.5 -16.5t16 -29.5t-10.5 -30q-174 17 -389 -5q-22 -2 -30 9.5t-4 35.5q10 53 54.5 105t100 93.5l110 82t91.5 86t37 90.5q0 84 -88 87q-45 1 -96.5 -21.5t-79.5 -66.5q-29 8 -29 32q0 38 35 68.5t83.5 45t95.5 13.5q165 -1 165 -140q0 -51 -25 -97.5
t-63 -79.5t-85 -68l-89 -63.5t-76 -65t-45 -72.5q138 18 265 7z" />
    <glyph glyph-name="three" unicode="3" horiz-adv-x="514" 
d="M489 559q-1 -65 -42 -105t-117 -72q61 -12 90 -55.5t29 -103.5q0 -92 -70 -152t-183 -60q-66 0 -116.5 23.5t-50.5 63.5q1 17 15.5 31t40.5 14q52 -65 138 -65q56 0 101.5 35t45.5 93q0 71 -43.5 101.5t-118.5 16.5q-22 -6 -33 -2t-12 24q0 26 16 29q25 5 51 13t59 22.5
t58 31.5t42.5 42.5t17.5 54.5q0 66 -85 66q-38 0 -67.5 -11t-48.5 -22t-32 -11q-24 0 -24 24q0 38 61 64t128 26q76 0 114 -30t36 -86z" />
    <glyph glyph-name="four" unicode="4" horiz-adv-x="546" 
d="M534 234q0 -21 -33 -37.5t-88 -25.5q-25 -113 -51 -167q-11 -22 -44 -24q-15 -1 -25 4t-8 11q23 61 50 167q-20 -1 -60 -1q-51 1 -87.5 4.5t-76 12t-60.5 25.5t-21 42q0 38 123.5 195.5t184.5 214.5q8 7 20 19l18 18t13 10.5t13 4.5q12 0 17.5 -7t10.5 -22
q6 -17 -3 -35.5t-42 -50.5l-95 -95.5t-111 -126t-62 -100.5q0 -41 176 -44q23 0 57 3q29 133 45 242q9 4 20 4q41 0 41 -47q0 -41 -29 -189q38 7 88 22q19 -8 19 -27z" />
    <glyph glyph-name="five" unicode="5" horiz-adv-x="522" 
d="M428 607q-122 0 -207 -23q-30 -84 -47 -161q22 4 54 4q96 0 160.5 -47t64.5 -134q0 -102 -70 -164t-179 -62q-65 0 -113.5 26.5t-48.5 70.5q0 19 12.5 29t27.5 9q48 -73 141 -73q67 0 103 36.5t36 101.5q0 129 -172 132q-12 0 -28.5 -1.5t-25 -1.5t-18 2t-13 10t-2.5 22
q2 35 29 127.5t45 117.5q22 33 92.5 47.5t149.5 14.5q156 0 156 -62q0 -15 -7 -30q-72 9 -140 9z" />
    <glyph glyph-name="six" unicode="6" horiz-adv-x="560" 
d="M429 636q-114 0 -191.5 -97.5t-95.5 -227.5q53 59 115.5 93.5t119.5 34.5q70 0 99.5 -39t29.5 -92q0 -120 -82.5 -216t-185.5 -96q-85 0 -135 64.5t-50 162.5q0 124 49 233t137.5 176.5t194.5 67.5q24 0 43.5 -6t30 -15t15.5 -19.5t3.5 -21t-9.5 -18.5q-38 18 -88 16z
M359 360q-55 0 -114.5 -38t-105.5 -100q4 -66 31.5 -113.5t85.5 -47.5q52 0 109 69.5t57 145.5q0 84 -63 84z" />
    <glyph glyph-name="seven" unicode="7" horiz-adv-x="452" 
d="M292 654q104 -1 146.5 -14.5t42.5 -46.5q0 -30 -124 -278q-153 -305 -203 -318q-48 -6 -48 31q0 17 7.5 32t30.5 46q24 31 107 160q100 154 156 298q-93 9 -154 6.5t-147 -19.5q-30 -6 -42 14.5t1 53.5q35 17 99 26.5t128 8.5z" />
    <glyph glyph-name="eight" unicode="8" horiz-adv-x="541" 
d="M360 694q88 0 148 -37t58 -85q0 -27 -26 -38q-20 31 -49 51q-18 -53 -55.5 -101t-103.5 -111l3 -2q72 -54 104 -99.5t32 -95.5q0 -87 -61 -133t-175 -46q-84 0 -139 32.5t-55 107.5q0 70 49.5 121.5t133.5 102.5q-105 81 -101 187q1 38 20 66.5t44.5 43.5t60.5 23.5
t60 10.5t52 2zM290 403q43 36 90.5 99.5t65.5 108.5q-46 18 -100 18q-58 0 -102.5 -23.5t-44.5 -67.5q0 -40 20 -68.5t71 -66.5zM405 169q0 73 -130 157q-67 -46 -107.5 -88t-40.5 -90q0 -40 34.5 -63t95.5 -23q148 0 148 107z" />
    <glyph glyph-name="nine" unicode="9" horiz-adv-x="509" 
d="M356 690q152 0 152 -143q0 -70 -33 -182t-71 -192q-30 -52 -59 -85t-73.5 -55t-100.5 -22q-57 0 -98.5 24.5t-41.5 71.5q0 40 41 53q22 -44 49.5 -63.5t67.5 -19.5q138 0 213 291q-31 -40 -78 -63.5t-98 -23.5q-56 0 -92 41.5t-36 105.5q0 114 78 188t180 74zM247 355
q80 0 133 62t53 140q0 77 -78 77q-80 0 -130 -55t-50 -129q0 -43 18 -69t54 -26z" />
    <glyph glyph-name="colon" unicode=":" horiz-adv-x="206" 
d="M123 298q-28 0 -44.5 15t-16.5 38q0 27 15.5 45t46.5 18q24 0 38.5 -14.5t14.5 -38.5q0 -13 -3.5 -25.5t-16.5 -25t-34 -12.5zM70 -1q-28 0 -44.5 15t-16.5 38q0 27 15.5 45t46.5 18q24 0 38.5 -14.5t14.5 -38.5q0 -13 -3.5 -25.5t-16.5 -25t-34 -12.5z" />
    <glyph glyph-name="semicolon" unicode=";" horiz-adv-x="220" 
d="M128 298q-28 0 -44.5 15t-16.5 38q0 27 15.5 45t46.5 18q24 0 38.5 -14.5t14.5 -38.5q0 -13 -3.5 -25.5t-16.5 -25t-34 -12.5zM28 -141q-20 -5 -37 3.5t-16 25.5q87 22 92 82q3 43 -30 85q-5 5 -2 17q5 16 20 29t36 13q27 0 42.5 -21.5t15.5 -55.5q0 -67 -36 -117
t-85 -61z" />
    <glyph glyph-name="less" unicode="&#x3c;" 
d="M542 551q16 -12 14 -33q-1 -13 -24 -27.5t-65 -33.5q-11 -5 -16 -7q-93 -47 -274 -101q104 -23 234 -107q25 -14 38.5 -22.5t30 -27t16.5 -35.5q0 -25 -35 -43q-103 111 -360 199q-4 55 22 77t129 58q141 43 290 103z" />
    <glyph glyph-name="equal" unicode="=" 
d="M136 394q-44 -9 -44 28q0 11 2.5 18.5t5.5 11.5t9.5 7t9 3.5t11.5 1.5l8 1q34 4 75 4t79 -1.5t50 -1.5q74 -7 146 0q25 1 37.5 -3.5t15 -10t2.5 -16.5q0 -46 -67 -34q-43 7 -113 7q-141 0 -227 -15zM116 184q-44 -9 -44 28q0 11 2.5 18.5t5.5 11.5t9.5 7t9 3.5t11.5 1.5
l8 1q30 4 66.5 4t70.5 -1.5t47 -1.5q74 -7 146 0q25 1 37.5 -3.5t15 -10t2.5 -16.5q0 -46 -67 -34q-43 7 -113 7q-128 0 -207 -15z" />
    <glyph glyph-name="greater" unicode="&#x3e;" 
d="M545 352q4 -55 -25 -77t-146 -58q-124 -38 -280 -103q-16 12 -14 33q3 34 105 68l63.5 24.5l70 27t66.5 23.5t83 26q-60 13 -130 46.5t-113 60.5q-25 14 -38.5 22.5t-30 27t-16.5 35.5t8 26t27 17q148 -123 370 -199z" />
    <glyph glyph-name="question" unicode="?" horiz-adv-x="355" 
d="M106 198q-22 0 -36 17t-14 44q0 40 26.5 73t64 55.5l75.5 45t64.5 54t26.5 69.5q0 36 -24 55.5t-59 19.5q-36 0 -73.5 -15t-53.5 -15q-39 0 -39 28q0 24 27 40.5t60 23t66 6.5q80 0 125.5 -34.5t45.5 -96.5q0 -48 -19 -86t-47.5 -60t-62 -42t-62 -33.5t-47.5 -33.5
t-19 -43q0 -27 19 -53q-19 -19 -44 -19zM97 -17q-29 0 -45.5 16.5t-16.5 33.5q0 28 18.5 42t47.5 14q22 0 40 -14.5t18 -37.5q0 -22 -19.5 -38t-42.5 -16z" />
    <glyph glyph-name="at" unicode="@" horiz-adv-x="797" 
d="M556 164q-41 0 -64.5 34.5t-17.5 95.5q-54 -116 -145 -116q-41 0 -64 26t-23 66q0 94 66 177t149 83q27 0 41.5 -13.5t4.5 -37.5q-21 4 -41 -1q-56 -11 -98.5 -69t-42.5 -113q0 -42 32 -42q71 0 152 175l7.5 18t10 22.5t10 20t11.5 16t12 5.5q22 0 38.5 -12t9.5 -24
q-35 -58 -48.5 -100.5t-13.5 -93.5q0 -21 12 -38.5t33 -17.5q47 0 87.5 54.5t40.5 163.5q0 33 -10.5 64t-34 61t-69.5 48t-110 18q-99 0 -182 -50t-128.5 -128.5t-45.5 -163.5q0 -122 66.5 -191t172.5 -69q139 0 269 86q9 -14 8 -29q-4 -43 -87.5 -82.5t-206.5 -39.5
q-154 0 -233 81.5t-77 215.5q1 93 40 175t102.5 137.5t146 87.5t170.5 32q82 0 142 -22t91 -58t45 -74t14 -80q0 -128 -78 -213t-164 -85z" />
    <glyph glyph-name="A" unicode="A" horiz-adv-x="592" 
d="M503 306q26 -3 34 -12.5t8 -23.5q0 -15 -38 -15q-36 0 -54 -1q1 -88 19 -205q-9 -19 -31 -34t-39 -15q-20 0 -25 45q-11 96 -10 202q-126 -15 -236 -65q-51 -106 -89 -212q-19 0 -31 3.5t-16.5 12t-5.5 14.5t-1 17q0 47 99 222t212.5 331.5t148.5 156.5q17 0 27 -9
q-22 -165 -22 -409q26 0 50 -3zM384 590q-108 -129 -213 -328q94 32 198 43q7 189 15 285z" />
    <glyph glyph-name="B" unicode="B" horiz-adv-x="644" 
d="M464 403q63 0 95 -40t32 -90q0 -123 -150 -215q-52 -32 -117.5 -50t-110.5 -18q-43 0 -40 42q2 33 44 31q67 -3 130.5 18.5t106.5 66.5t43 103q0 41 -22 63.5t-65 22.5q-117 0 -222 -49q-43 -151 -67 -281q-18 -8 -30 -7q-49 2 -44 59q3 38 48 194t84 236q42 86 98 63
q-38 -101 -69 -199q265 83 265 214q0 69 -100 69q-62 0 -133 -28t-120 -79q-30 0 -30 31q0 38 51.5 73.5t123.5 55.5t138 20q40 0 73 -10t58.5 -38t25.5 -72q0 -121 -123 -188q20 2 27 2z" />
    <glyph glyph-name="C" unicode="C" horiz-adv-x="572" 
d="M504 157q18 0 18 -19q0 -45 -97 -91.5t-191 -46.5q-92 0 -146.5 57t-54.5 151q0 111 63.5 222t164.5 181t204 70q44 0 69.5 -14t25.5 -55q0 -39 -42 -116.5t-66 -77.5q-15 0 -24.5 13.5t-9.5 31.5q0 11 3.5 23.5t13 29l16.5 28.5t22.5 36l23.5 37q-19 6 -37 6
q-83 0 -160.5 -62t-122.5 -151.5t-45 -171.5q0 -85 39.5 -121t102.5 -36q55 0 107 19t84 38t39 19z" />
    <glyph glyph-name="D" unicode="D" horiz-adv-x="689" 
d="M302 685q167 0 257.5 -76t90.5 -220q0 -195 -149 -295t-410 -100q-42 0 -59 11t-17 39q0 21 67 18q4 0 11 -0.5t10 -0.5q43 308 137 551q-37 -3 -69 -10t-50 -13t-24 -6q-18 0 -18 11q0 39 72.5 65t150.5 26zM186 63q170 13 275 90t105 215q0 117 -71.5 179t-191.5 67
q-67 -214 -117 -551z" />
    <glyph glyph-name="E" unicode="E" horiz-adv-x="533" 
d="M403 689q76 0 102.5 -20.5t24.5 -50.5q-2 -31 -26 -46q-30 35 -115 35q-56 0 -94 -12.5t-62 -41.5t-38 -61.5t-28 -86.5l-15 -57q18 2 68 5t75.5 5.5t65 9.5t70.5 18q16 -13 15 -34q-1 -35 -55.5 -45.5t-138.5 -12t-116 -9.5l-16 -60q-25 -89 -11.5 -125.5t79.5 -36.5
q55 0 153.5 19t103.5 19q20 0 19 -29q-1 -27 -61 -47.5t-123.5 -28.5t-106.5 -8q-102 0 -140 46q-51 68 43 363q14 43 26 73.5t32 68t47 66t61 45.5q36 20 86 29.5t75 9.5z" />
    <glyph glyph-name="F" unicode="F" horiz-adv-x="557" 
d="M508 653q-100 10 -173 -2q-33 -118 -66 -276q13 2 42.5 7t49 8t46 5.5t46.5 2.5q89 0 66 -74l-2 -1q-6 2 -18 4q-75 12 -244 -22l-52 -294q-18 -14 -54 -14q-27 0 -21 46q2 21 9 55.5l19 92.5l20 100q-19 -3 -36 -1q-43 6 -35 59q44 5 84 12q6 30 26.5 118t31.5 151
q-34 -10 -89 -32q-31 -13 -49.5 5.5t-11.5 42.5q142 78 356 78q40 0 73.5 -4.5t63.5 -16.5t38.5 -32t-1.5 -51q-54 25 -119 33z" />
    <glyph glyph-name="G" unicode="G" horiz-adv-x="708" 
d="M697 314q1 -10 -5 -15.5t-19 -6.5q-6 0 -65 10l-58 -271q-10 -43 -17 -58q-6 -12 -22.5 -24t-27.5 -12q-18 0 -16 32q2 36 31 160q-92 -129 -234 -129q-217 0 -217 233q0 105 60 210.5t166 177t224 71.5q61 0 102 -21t39 -55q-1 -26 -31 -24q-12 0 -51.5 15t-73.5 16
q-98 1 -176 -52.5t-117.5 -134.5t-39.5 -168q0 -39 6.5 -72.5t21 -64t42.5 -48.5t66 -18q82 0 155 77t97 169q-6 1 -19 1q-37 0 -71 -3t-41 -3q-27 0 -27 18q0 41 108 46q39 1 82 -2t85 -16.5t43 -37.5z" />
    <glyph glyph-name="H" unicode="H" horiz-adv-x="638" 
d="M581 432q40 -3 38 -42q0 -4 -1 -5.5t-4 -3.5t-9 -1.5t-18 0.5q-20 2 -49 0q-43 -163 -55 -360q-10 -5 -35 -5q-43 0 -45 48q-2 127 50 311q-158 -17 -271 -51q-42 -159 -68 -349q-47 -5 -62.5 14.5t-10.5 80.5q8 100 66 304.5t125 301.5q36 6 50 -12t-3 -60
q-46 -106 -80 -221q101 32 270 47q63 206 141 315q23 1 39.5 -10t18.5 -24q-76 -149 -115 -277q20 0 28 -1z" />
    <glyph glyph-name="I" unicode="I" horiz-adv-x="530" 
d="M558 685q6 -35 -15.5 -56.5t-62.5 -21.5q-16 0 -32.5 1t-35 2.5l-30.5 2.5q-41 -76 -73 -230.5t-37 -288.5q88 4 111 0q36 -6 52 -31t0 -59q-44 20 -116 20q-48 0 -134 -12.5t-126 -12.5q-43 0 -60 25t6 56q21 -3 40.5 -4.5t41.5 0t32.5 2.5t36.5 4.5t31 4.5
q8 122 43 275.5t79 251.5q-91 0 -130 -7q-42 -7 -40 35q1 23 13.5 35.5t32.5 12.5q19 0 90.5 -5.5t104.5 -5.5q144 0 178 6z" />
    <glyph glyph-name="J" unicode="J" horiz-adv-x="532" 
d="M358 688q79 0 119.5 -7t40.5 -30q0 -12 -4 -34t-10 -47l-18 -77.5l-22 -99.5l-10 -49.5l-11.5 -55t-13 -55t-16 -56t-20.5 -51.5t-26 -49.5t-31.5 -40.5t-39 -33t-47.5 -20t-57 -8q-83 0 -129.5 46t-46.5 116q0 26 14 38t33 12q15 0 25 -14.5t17.5 -35.5t17 -42t29 -36
t47.5 -16q73 -2 114 73t73 262l41 239q-72 1 -150.5 -9t-99.5 -10q-42 0 -42 37q0 38 92 46q75 7 131 7z" />
    <glyph glyph-name="K" unicode="K" horiz-adv-x="618" 
d="M608 685q16 0 26 -12.5t9 -25.5q-1 -31 -38 -73q-40 -47 -112.5 -104t-161.5 -105l27.5 -68.5t29.5 -67.5t36.5 -69.5t38.5 -54.5t45.5 -43.5t48.5 -16.5q5 -30 -13.5 -47.5t-50.5 -17.5q-37 0 -75.5 37t-70 98t-52.5 110.5t-39 101.5l-41 -18q0 -1 -0.5 -4t-0.5 -4
q-15 -73 -73 -254q-19 -61 -71 -61q-30 0 -30 34q0 36 25 100l47.5 125.5t36 117.5t31.5 148q3 24 9 123q1 31 15.5 44.5t46.5 13.5q36 0 36 -40q0 -24 -17 -90q-24 -92 -44 -196q106 43 191 119t124 140q37 60 67 60z" />
    <glyph glyph-name="L" unicode="L" horiz-adv-x="500" 
d="M295 76q123 0 147 -21q0 -67 -56 -67q-18 0 -55 3.5t-63 3.5q-42 0 -103.5 -6.5t-76.5 -6.5q-47 2 -47 52q0 51 145 631q13 55 42 55q16 0 33 -22t17 -41q0 -22 -12.5 -65.5t-35 -110.5t-34.5 -113q-59 -214 -71 -305q101 13 170 13z" />
    <glyph glyph-name="M" unicode="M" horiz-adv-x="877" 
d="M815 579q0 -28 -5 -62t-15.5 -95.5t-18.5 -117.5q-20 -146 -22 -277q0 -15 -0.5 -22t-7 -15.5t-19.5 -8.5q-14 0 -26.5 3t-27 18t-14.5 41q0 34 11.5 104.5t28.5 156.5t22 117q17 107 14 123q-2 15 -15 15q-23 0 -73.5 -80.5t-99.5 -177t-100.5 -177t-75.5 -80.5
q-46 0 -46 106q0 52 5.5 156t6.5 143q4 172 -36 173q-29 1 -62.5 -69.5t-56.5 -156.5t-31 -151q-7 -54 -7 -189q0 -47 -59 -47q-29 0 -41 20t-7 53q5 45 30 144.5t62 214t87.5 199.5t96.5 85q28 0 47.5 -18.5t30.5 -57.5t16 -84.5t4.5 -116t-3.5 -134.5t-9 -155
q187 332 230 397q59 88 100 103q13 4 26 4q58 0 60 -84z" />
    <glyph glyph-name="N" unicode="N" horiz-adv-x="675" 
d="M625 710q23 0 23 -39q0 -98 -33.5 -261t-64.5 -246q-58 -158 -141 -158q-22 0 -32 9q-27 201 -51 309t-75 236q-60 -258 -129 -462q-38 -113 -88 -113q-35 0 -35 35q0 12 9.5 34t28.5 61t32 69q60 140 92 293q31 144 51 184q19 38 41 38q46 0 104 -195.5t88 -416.5
q50 87 89 284q14 68 38 313q26 26 53 26z" />
    <glyph glyph-name="O" unicode="O" horiz-adv-x="601" 
d="M209 1q-60 0 -99 37.5t-52.5 85.5t-13.5 104q0 125 46 237t133.5 184.5t195.5 72.5q78 0 123.5 -62t45.5 -159q0 -77 -29 -164t-77.5 -162t-121 -124.5t-151.5 -49.5zM220 71q68 0 137 64.5t113 163.5t44 194q0 64 -26 104.5t-79 40.5q-63 0 -117 -40.5t-87 -103.5
t-51.5 -134t-18.5 -136q0 -153 85 -153z" />
    <glyph glyph-name="P" unicode="P" horiz-adv-x="568" 
d="M308 721q53 0 99.5 -12t87.5 -38t65 -73.5t24 -112.5q0 -128 -88 -211.5t-204 -83.5q-67 0 -107 15q-20 -88 -46 -218q0 -1 -1 -4t-1 -4.5t-1 -4t-1.5 -4t-2 -3.5t-2.5 -3.5t-3 -3t-4.5 -2t-5.5 -1t-7 -0.5q-17 0 -32 10.5t-15 28.5q0 21 11.5 79t32 141l38.5 155
l40.5 159l29.5 114q-36 -8 -66 -29q-26 -20 -39 -20q-19 0 -17 22q1 32 39 56.5t85.5 36t90.5 11.5zM292 253q80 0 143.5 54.5t63.5 148.5q0 93 -54 145t-138 54q-62 -190 -108 -388q41 -14 93 -14z" />
    <glyph glyph-name="Q" unicode="Q" horiz-adv-x="664" 
d="M624 -63q3 -9 3 -21q0 -28 -26 -45t-58 -17q-57 0 -95.5 30t-62.5 98q-7 19 -19 61q-80 -47 -168 -47q-46 0 -80.5 21t-52.5 54.5t-26.5 68t-8.5 68.5q0 125 56.5 239.5t149.5 183.5t195 69q184 0 184 -221q0 -102 -50 -209t-133 -180q18 -54 27 -77q36 -87 109 -87
q31 0 56 11zM229 66q61 0 120 39q-26 107 -28 142q0 20 24 20q32 0 67 -110q58 60 93.5 143.5t35.5 170.5q0 142 -104 142q-71 0 -131 -39t-97 -98.5t-57.5 -125.5t-20.5 -126q0 -158 98 -158z" />
    <glyph glyph-name="R" unicode="R" horiz-adv-x="631" 
d="M591 489q-7 -180 -262 -232q38 -98 103 -167t135 -59q6 -32 -13.5 -53t-51.5 -21q-50 0 -109 54.5t-102 133.5t-50 148q122 14 196.5 58.5t77.5 121.5q3 73 -55.5 116.5t-147.5 45.5q-53 -141 -88.5 -268.5t-82.5 -350.5q-3 -18 -17 -27t-28 -9q-17 0 -22 11t-5 33
q0 98 55.5 293.5t107.5 307.5q-56 -13 -103 -44q-29 -20 -39 -20q-17 0 -17 22q0 36 42.5 66t97.5 44t104 14q126 0 202 -56.5t72 -161.5z" />
    <glyph glyph-name="S" unicode="S" horiz-adv-x="487" 
d="M144 -5q-31 0 -58.5 6.5t-54 28.5t-31.5 57q-4 21 10 40q68 -47 142 -47q81 0 136 31.5t55 89.5q0 42 -27 73t-65.5 50.5l-77.5 41t-66 58t-27 88.5q0 85 69 136.5t169 51.5q81 0 136 -31.5t55 -85.5q0 -33 -36 -33q-11 0 -24.5 10.5t-27.5 23.5t-44.5 24t-72.5 12
q-61 2 -103.5 -24.5t-42.5 -72.5q0 -26 19 -49t48 -39.5t62.5 -38t62.5 -44t48 -59t19 -81.5q0 -94 -76 -155.5t-197 -61.5z" />
    <glyph glyph-name="T" unicode="T" horiz-adv-x="504" 
d="M398 694q146 -3 188 -22q24 -11 24 -27q0 -15 -8.5 -21t-28.5 -6q-15 0 -64.5 5.5t-112.5 6.5l-33 -125.5t-39 -153.5t-28 -126q-25 -121 -30 -209q-1 -21 -54 -21q-38 0 -38 40q0 21 4.5 48.5t9.5 47l16.5 62.5l17.5 66q7 28 28 101.5t36 138t25 129.5
q-52 -4 -100.5 -16.5t-77.5 -22.5t-37 -10q-34 0 -34 34q0 43 47 55q112 29 289 26z" />
    <glyph glyph-name="U" unicode="U" horiz-adv-x="620" 
d="M244 -15q-85 0 -130 54.5t-45 158.5q0 95 39 245.5t86 236.5q11 5 24 5q38 0 38 -51q0 -12 -3.5 -28t-7.5 -29t-14 -43l-16 -49q-19 -52 -36 -131t-17 -139q0 -71 25 -110t73 -39q41 0 75.5 20t60.5 60.5t45.5 85.5t36.5 113t28 123t24 135q12 73 19 86q13 22 51 23
q17 0 25 -8q-14 -95 -27.5 -168t-32 -151t-39.5 -135t-49.5 -109t-62 -85t-76.5 -52t-94 -19z" />
    <glyph glyph-name="V" unicode="V" horiz-adv-x="547" 
d="M578 699q30 0 28 -29q0 -50 -61 -180t-154 -272.5t-170 -213.5q-47 -10 -68 50.5t-16 181.5q11 284 -21 444q4 14 17 23t28 9q40 0 51 -34q10 -32 12 -88q3 -77 -1.5 -184.5t-5 -183t12.5 -121.5q200 240 268 514q12 47 28.5 65.5t51.5 18.5z" />
    <glyph glyph-name="W" unicode="W" horiz-adv-x="851" 
d="M841 718q16 0 16 -35q0 -111 -53 -308q-11 -39 -22.5 -75.5t-35.5 -92.5t-50 -96t-64 -69.5t-78 -29.5q-42 0 -70 27t-37.5 66.5t-14 83.5t0.5 77q-42 -105 -124.5 -187.5t-150.5 -82.5q-116 0 -116 162q0 106 53.5 269.5t125.5 277.5q25 34 42 34q12 0 24 -19t12 -35
q0 -15 -19 -52.5l-47 -91t-42 -92.5q-61 -168 -61 -257q0 -26 1 -41t5.5 -36t16 -31t30.5 -10q50 0 115.5 88.5t140.5 269.5l14 35l13.5 33t12 26t14 22t15.5 12.5t20 5.5q16 0 16 -18.5t-10 -58.5q-3 -12 -4.5 -19.5l-4 -20t-4.5 -24.5q-21 -96 -9 -208t55 -112q40 0 83 60
t73 164q10 35 18 76t12 67t11 84t11 85q5 39 25 61q18 16 41 16z" />
    <glyph glyph-name="X" unicode="X" horiz-adv-x="643" 
d="M708 642q-100 -56 -212 -145t-112 -125q0 -21 76.5 -159t77.5 -173q0 -18 -13.5 -29.5t-28.5 -11.5q-24 0 -53.5 47t-51.5 103.5t-45 104t-36 47.5q-24 1 -96 -89.5t-127 -187.5q-16 -28 -26 -35.5t-25 -7.5t-26 10t-11 26q0 10 2.5 21t8 23l10 21.5t14.5 23l15 20.5
t17.5 21.5t15.5 18.5t16.5 18t13.5 15l55 55.5t77 83.5t29 49q0 39 -48.5 136t-47.5 131q1 27 19.5 39t45.5 3l106 -259q84 103 178 181t146 77q25 -1 33.5 -13t2.5 -40z" />
    <glyph glyph-name="Y" unicode="Y" horiz-adv-x="585" 
d="M563 716q19 -2 30 -14t7 -29l-62 -277q-12 -55 -21.5 -91t-25 -84t-31.5 -79t-41 -65t-53.5 -53t-67.5 -31.5t-86 -12.5q-62 0 -114 27t-52 61q0 45 45 45q14 0 29 -10t27.5 -22.5t37.5 -23t56 -10.5q34 0 64 17.5t53.5 53t42.5 74.5t35.5 94t27.5 98.5t23 100.5
q-65 -135 -125.5 -184.5t-121.5 -49.5t-97 50.5t-36 139.5q0 122 55 234q30 61 75 61q26 0 37 -17q-39 -56 -58 -129t-19 -136q0 -136 63 -136q46 0 98.5 60.5t87.5 129t58 132.5l17 48q10 30 42 28z" />
    <glyph glyph-name="Z" unicode="Z" horiz-adv-x="607" 
d="M346 326q-157 -144 -219 -236q96 -9 163 -6q96 4 153.5 17.5t67.5 13.5q32 0 32 -31q0 -40 -78.5 -60.5t-176.5 -22.5q-107 -2 -184.5 13.5t-77.5 55.5q0 28 60 98t150 155l168.5 154.5l141.5 122.5q-69 18 -176 20q-157 2 -216 -75q-19 3 -29.5 14.5t-10.5 25.5
q0 51 76 78t175 27q253 0 253 -82q0 -17 -14 -39t-43.5 -50.5l-58.5 -54.5l-76 -66.5t-80 -71.5z" />
    <glyph glyph-name="bracketleft" unicode="[" horiz-adv-x="384" 
d="M43 -155q-48 6 -39 71l124 749q2 11 7.5 19.5t16 12.5l19 7t24.5 3h22t23 -1l17 -1q65 -4 122 1q4 0 13.5 1.5t13 1.5t9 -1t8 -5t3.5 -11q0 -29 -30 -43.5t-65 -12.5q-11 0 -32.5 3.5t-34 3.5t-27.5 -3t-25 -16.5t-15 -37.5q-110 -512 -110 -643q0 -28 46 -26
q50 3 129 29q1 0 6 1.5t7.5 2.5t7 1t7 -1t5.5 -4.5t4 -8.5q8 -33 -12 -46t-80 -29q-97 -26 -164 -17z" />
    <glyph glyph-name="backslash" unicode="\" horiz-adv-x="380" 
d="M365 -198q8 -20 -19 -21q-30 -1 -47 16q-4 3 -5 6q-178 409 -234 869q6 11 43 15.5t48 -2.5q8 -185 70.5 -431.5t143.5 -451.5z" />
    <glyph glyph-name="bracketright" unicode="]" horiz-adv-x="380" 
d="M135 -150q-82 2 -123 15.5t-39 44.5q2 22 18 25.5t76 -6.5q3 -1 15.5 -3t16.5 -2.5t15 -1.5t15 -0.5t13.5 1.5t13.5 4.5t11 8t11 11.5t8 17t7 22q39 169 75.5 370t36.5 273q0 24 -46 26q-65 2 -129 -19q-1 0 -12 -4t-17 -2.5t-8 11.5q-7 31 9 41.5t68 23.5q10 3 15 4
q104 25 164 17q50 -6 39 -71l-116 -694q-10 -62 -49 -88t-88 -24z" />
    <glyph glyph-name="asciicircum" unicode="^" horiz-adv-x="443" 
d="M416 394q3 -22 -5.5 -43t-25.5 -21q-40 0 -48 74q-16 143 -44 205q-95 -114 -148 -205q-35 -56 -61 -56q-27 0 -24 36q2 31 50 92q24 30 86 117q73 107 92 130q14 18 24 18q9 0 23 -25q16 -34 54 -174q18 -69 27 -148z" />
    <glyph glyph-name="underscore" unicode="_" horiz-adv-x="651" 
d="M67 -124q-95 -4 -95 60q0 21 9 34q71 -18 218 -18q202 0 370 19q23 -14 23 -40q0 -52 -135 -44q-109 8 -257 -3q-94 -6 -133 -8z" />
    <glyph glyph-name="grave" unicode="`" 
d="M167 585q-47 0 -111.5 43.5t-64.5 86.5q0 20 18.5 33t44.5 11q44 -104 153 -150q0 -9 -11 -16.5t-29 -7.5z" />
    <glyph glyph-name="a" unicode="a" horiz-adv-x="552" 
d="M492 432q-34 -76 -58.5 -162t-24.5 -135q-2 -44 21 -44q9 0 23 7t19 7q12 0 12 -22q0 -29 -29 -53t-67 -24q-81 0 -54 153q-41 -71 -100.5 -114t-128.5 -43q-48 0 -77 30.5t-29 77.5q0 92 52.5 184t129.5 149t147 57q59 0 53 -54q-33 5 -60 -1q-89 -18 -158 -113.5
t-69 -182.5q0 -78 48 -78q38 0 76 29t69.5 77t54.5 93.5t42 93.5q11 28 16.5 40.5t17 36.5t22 35t21.5 11q20 0 30 -17t1 -38z" />
    <glyph glyph-name="b" unicode="b" horiz-adv-x="501" 
d="M380 510q36 0 67 -27t31 -89q0 -83 -32.5 -159t-82 -126t-106 -79t-105.5 -28q-76 1 -102 43t-26 128q0 66 26 176t60 211q48 151 87 175q14 10 32 10q24 0 24 -22q0 -13 -9.5 -43t-25 -72.5l-20.5 -56.5q-48 -137 -59 -180q45 60 112.5 99.5t128.5 39.5zM170 61
q30 0 68 24.5t72.5 64.5t58 100.5t23.5 123.5q0 35 -9.5 53t-35.5 18q-45 0 -101 -42.5t-97 -112.5t-41 -138q0 -45 12 -68t50 -23z" />
    <glyph glyph-name="c" unicode="c" horiz-adv-x="438" 
d="M155 -4q-83 0 -120.5 42.5t-37.5 114.5q0 97 56 179t131.5 124t144.5 42q92 0 92 -64q0 -38 -39 -54q-23 38 -79 38q-81 0 -153.5 -69.5t-72.5 -176.5q0 -53 24.5 -81t68.5 -28q51 0 106 30.5t89 90.5q21 -1 21 -29q0 -69 -71 -114t-160 -45z" />
    <glyph glyph-name="d" unicode="d" horiz-adv-x="556" 
d="M576 725q0 -13 -8 -40t-21 -63.5t-17 -49.5q-84 -262 -84 -389q0 -100 43 -129q-2 -15 -18 -28t-35 -13q-37 0 -58 44.5t-21 97.5q-88 -150 -229 -150q-60 0 -92.5 34.5t-32.5 98.5q0 88 54 174.5t139 141t171 54.5q31 0 56 -13q16 68 21 85q38 136 71 157q16 10 37 10
q24 0 24 -22zM392 351q4 16 18 80q-22 13 -52 13q-105 -1 -184 -91.5t-79 -187.5q0 -89 71 -89q24 0 52.5 13t61.5 42t63 86t49 134z" />
    <glyph glyph-name="e" unicode="e" horiz-adv-x="484" 
d="M404 177q21 -4 16 -30q-10 -53 -82.5 -100t-170.5 -47q-26 0 -52.5 7.5t-53 25t-43 52t-16.5 81.5q0 93 49 172.5t124.5 123t155.5 43.5q52 0 82.5 -27t30.5 -69q0 -95 -107.5 -159t-238.5 -55v-18q0 -49 32.5 -78.5t75.5 -29.5q57 0 104 25.5t94 82.5zM311 446
q-70 0 -129.5 -57.5t-77.5 -147.5q102 -4 178 48.5t76 108.5q0 48 -47 48z" />
    <glyph glyph-name="f" unicode="f" horiz-adv-x="368" 
d="M479 687q1 -16 -9 -27t-23 -11q-33 36 -79 36q-47 0 -73.5 -40t-46.5 -140q95 8 131.5 -6t21.5 -58q-63 10 -166 -2q-2 -14 -8 -52l-40 -260q-4 -26 -7.5 -42.5t-10.5 -38t-18 -33t-26 -11.5q-21 -1 -33 12t-6 48l51 300l12 65q-36 -5 -70.5 -13t-46.5 -8q-30 0 -24 39
q6 38 156 52q33 132 84 192t137 60q36 0 64.5 -15.5t29.5 -46.5z" />
    <glyph glyph-name="g" unicode="g" horiz-adv-x="516" 
d="M442 506q22 1 30 -10t4 -37q-29 -212 -85 -433q-31 -125 -99.5 -189t-165.5 -64q-60 0 -105.5 21.5t-48.5 55.5q0 31 26 32q15 0 33 -9.5t46 -19.5t66 -10q29 0 53.5 12t43 30.5t35 49.5t27.5 59t23 71t18.5 72.5l16.5 75.5q3 13 4 19q-33 -87 -92 -138t-133 -51
q-61 0 -98 38t-37 103q0 127 90 236t204 109q59 0 62 -43q-60 8 -124.5 -34t-106.5 -112t-42 -139q0 -41 21.5 -64.5t61.5 -23.5q48 0 92.5 48t70.5 105t41 114q2 6 6 21.5t7 24t7.5 22.5t9 22.5t10.5 17.5t13 13.5t15 4.5z" />
    <glyph glyph-name="h" unicode="h" horiz-adv-x="551" 
d="M480 88q9 -13 9 -34q0 -22 -18.5 -37t-44.5 -15q-84 0 -84 125q0 61 16.5 148t16.5 104q0 14 -7 14q-22 0 -73 -49t-92 -112q-95 -145 -126 -233q-25 2 -36 17.5t-11 54.5q0 246 127 579q21 55 41.5 79.5t51.5 24.5q12 0 12 -16t-7 -37q-92 -244 -134 -499
q63 109 163.5 210.5t154.5 101.5q32 0 32 -43q0 -33 -24.5 -164t-24.5 -163q0 -63 36 -63q15 0 22 7z" />
    <glyph glyph-name="i" unicode="i" horiz-adv-x="238" 
d="M176 590q-25 0 -25 41q0 57 15.5 81.5t47.5 24.5q18 0 28 -10.5t9 -26.5q0 -33 -21.5 -71.5t-53.5 -38.5zM61 15q-36 0 -36 44q0 34 38 196.5t52 197.5q15 41 51 39q33 -1 24 -54q-4 -26 -28 -110t-29 -132q-3 -24 -8 -78.5t-5 -56.5q-5 -46 -59 -46z" />
    <glyph glyph-name="j" unicode="j" horiz-adv-x="253" 
d="M161 602q-12 -1 -19 11t-8 33q0 38 17.5 72t46.5 34q41 2 41 -33q1 -29 -28.5 -73t-49.5 -44zM-99 -226q-41 0 -73.5 18.5t-33.5 51.5q0 40 30 42q12 0 37 -19t58 -19q28 0 50.5 21t39.5 62.5t27 76t23 88.5q17 68 30.5 171t13.5 162q0 63 44 63q49 0 49 -58
q0 -42 -35 -224q-35 -189 -74 -278q-70 -158 -186 -158z" />
    <glyph glyph-name="k" unicode="k" horiz-adv-x="498" 
d="M477 509q23 0 23 -29q-1 -54 -35 -73q-114 -62 -198 -128q32 -102 64 -153t76 -51q24 0 38 13q16 -14 16 -35q0 -25 -21.5 -39t-52.5 -14q-63 0 -111 68t-68 156q-54 -57 -100 -136l-9.5 -19.5t-12 -23t-13 -18t-18 -15.5t-21.5 -5q-50 0 -32 65q60 216 97 362
q41 163 48 258q1 15 2.5 22.5t8.5 15.5t19 8q30 0 41.5 -23t7.5 -50q-25 -210 -124 -488q88 111 217 221.5t158 110.5z" />
    <glyph glyph-name="l" unicode="l" horiz-adv-x="272" 
d="M128 7q-43 0 -65.5 31.5t-22.5 85.5q0 90 27 215t65 231q53 144 86 165q16 10 37 10q24 0 24 -22q0 -13 -12 -42.5t-30.5 -68t-23.5 -51.5q-35 -88 -62.5 -205t-27.5 -195q0 -64 36 -64q7 0 23 5t24 5q13 0 13 -18q0 -30 -26.5 -56t-64.5 -26z" />
    <glyph glyph-name="m" unicode="m" horiz-adv-x="863" 
d="M769 150q0 -63 44 -79q0 -32 -19 -46t-40 -14q-70 0 -70 118q0 23 3.5 78t3.5 68q0 60 -26 60q-22 0 -62.5 -47.5t-78 -104t-77 -104t-60.5 -47.5q-39 0 -39 49q0 30 24 134.5t25 158.5q0 33 -18 33q-23 0 -80.5 -68.5t-117 -165.5t-89.5 -172q-44 -2 -55.5 36t0.5 112
q13 99 42.5 195t58.5 152q37 1 45.5 -23t-8.5 -78q-19 -58 -52 -211q61 115 162.5 227.5t152.5 112.5q23 0 34 -37t11 -78q0 -105 -39 -244q79 118 148.5 194.5t107.5 76.5q29 0 44.5 -26t19.5 -58q3 -25 4.5 -55t1.5 -50.5t-0.5 -52.5t-0.5 -44z" />
    <glyph glyph-name="n" unicode="n" horiz-adv-x="561" 
d="M476 79q16 0 14 -22q-3 -25 -25 -45.5t-45 -20.5q-50 -1 -65 56t0 160q4 35 10 69t10.5 53.5t7.5 35t2.5 22t-5.5 6.5q-21 1 -72 -47.5t-98 -113.5q-49 -69 -73.5 -117.5t-52.5 -119.5q-43 -4 -51.5 50t8.5 171q5 36 16.5 79.5t29.5 92t45.5 80.5t57.5 32q18 0 22 -9
q-65 -151 -89 -295q66 106 170 211.5t156 105.5q33 0 33 -53q0 -15 -7 -50l-17.5 -88.5t-16.5 -97.5q-22 -147 11 -147q2 0 10 1t14 1z" />
    <glyph glyph-name="o" unicode="o" horiz-adv-x="487" 
d="M143 8q-64 0 -100.5 40.5t-36.5 109.5q0 86 39.5 167.5t109 133t148.5 51.5q70 0 110.5 -43.5t40.5 -119.5q0 -80 -42 -158.5t-115 -129.5t-154 -51zM161 72q85 0 155 89t70 175q0 43 -21.5 71t-63.5 28q-62 0 -111.5 -49t-72.5 -110t-23 -114q0 -90 67 -90z" />
    <glyph glyph-name="p" unicode="p" horiz-adv-x="542" 
d="M406 498q59 0 86 -33.5t27 -75.5q0 -75 -34 -140t-83.5 -104.5t-100.5 -61.5t-91 -22q-53 0 -53 32q0 13 5.5 19.5t12.5 7.5t22 1q65 0 120.5 42t84 98.5t28.5 107.5q0 59 -55 59q-52 0 -121.5 -47t-112.5 -117l-54 -247l-18 -84t-13 -65.5t-9 -42.5t-9 -31.5t-8 -16.5
q-16 -17 -49 -17q-38 0 -9 113q51 201 83 391l16.5 95.5t18.5 110.5q3 31 32 33q18 0 28.5 -18.5t10.5 -48.5q0 -27 -6 -89q56 77 126 114t125 37z" />
    <glyph glyph-name="q" unicode="q" horiz-adv-x="495" 
d="M437 -121q19 0 19 -18q0 -24 -63.5 -69t-108.5 -45q-42 0 -42 52q0 62 32 194q24 98 44 199q-36 -77 -90.5 -119t-120.5 -42q-47 0 -73.5 37.5t-26.5 101.5q0 110 85 204t174 113q53 10 77 -1.5t18 -40.5q-45 3 -89 -15q-84 -36 -131.5 -108.5t-47.5 -146.5
q0 -31 12 -48.5t32 -17.5q108 0 208 256q2 4 8 20.5t9.5 24.5l9.5 22.5t11 22l11.5 16.5t13 13t13.5 4q36 0 29 -55q-7 -39 -38 -159q-19 -73 -44.5 -204.5t-38.5 -225.5q79 35 108 35z" />
    <glyph glyph-name="r" unicode="r" horiz-adv-x="346" 
d="M337 498q53 0 53 -46q0 -21 -14 -36t-30 -15q-81 29 -141 -47q-65 -82 -104 -337q-35 -4 -52.5 16t-17.5 56q0 52 28 175t59 228q12 3 21 3q56 0 24 -128q34 60 82 95.5t92 35.5z" />
    <glyph glyph-name="s" unicode="s" horiz-adv-x="431" 
d="M161 14q-69 0 -110 25.5t-41 62.5q0 35 20 41q66 -57 134 -57q45 0 75.5 17.5t30.5 52.5q0 24 -24 41.5t-58 30t-68 27t-58 42.5t-24 67q0 65 52.5 101t134.5 36q79 0 138.5 -35t55.5 -90q-1 -22 -19 -34.5t-38 -7.5q-6 48 -46.5 74.5t-96.5 26.5q-37 0 -62 -19.5
t-25 -46.5q0 -26 22.5 -46t55 -34.5l65 -30.5t55 -42t22.5 -60q0 -70 -60 -106t-131 -36z" />
    <glyph glyph-name="t" unicode="t" horiz-adv-x="456" 
d="M461 433q-81 15 -227 3q-54 -212 -54 -296q0 -15 1 -24t6 -22.5t18 -20t33 -6.5q62 0 142 77q13 -2 21.5 -9.5t8.5 -17.5q0 -5 -7 -16q-34 -52 -92 -80t-111 -28q-106 0 -106 128q0 68 54 304q-17 -3 -47.5 -10t-49.5 -11t-30 -4q-26 0 -24 38q1 51 170 64q38 153 62 211
q5 3 14 3q20 0 32 -11t14.5 -21t2.5 -20q0 -8 -3.5 -22.5t-9.5 -35.5t-8 -29l-19 -71q136 4 180.5 -11.5t28.5 -61.5z" />
    <glyph glyph-name="u" unicode="u" horiz-adv-x="548" 
d="M497 458q-2 -10 -16.5 -51t-27 -99t-15.5 -131q-1 -78 32 -130q-7 -13 -21 -23t-28 -10q-50 0 -65 62.5t11 190.5q-125 -256 -254 -256q-81 0 -81 116q0 83 38.5 201.5t73.5 178.5q55 -3 55 -46q0 -14 -19.5 -64t-39.5 -115.5t-20 -117.5q0 -71 32 -71q20 0 41.5 15.5
t44 45t42 59t41 72.5l35 69.5t31 65t20.5 45.5q22 44 49 43q14 0 28.5 -20t12.5 -30z" />
    <glyph glyph-name="v" unicode="v" horiz-adv-x="436" 
d="M403 493q34 0 34 -27q0 -33 -63.5 -142.5t-140 -207t-106.5 -97.5q-28 0 -29 43q-4 212 -72 439q15 19 41 19q41 0 69 -102t38 -288q96 115 172 315q1 2 3 9t3 9.5t4 8.5t7 8.5l9.5 6t13 5t17.5 1.5z" />
    <glyph glyph-name="w" unicode="w" horiz-adv-x="682" 
d="M626 504q34 0 34 -38q0 -96 -44 -217q-35 -98 -94.5 -167.5t-115.5 -69.5q-30 0 -54 39.5t-24 105.5q0 29 3 60q-39 -90 -101 -158.5t-119 -67.5q-34 1 -58 34.5t-24 110.5q0 68 22.5 154.5t62.5 153t82 66.5q31 0 31 -20q0 -9 -28 -53q-86 -132 -86 -282q0 -83 31 -83
q36 0 90 83.5t101 201.5q6 14 12.5 33.5t9.5 26.5t8.5 15.5t11 11t15.5 2.5q32 0 32 -30q0 -4 -3 -25q-24 -158 -22 -212q2 -84 42 -84q28 0 60 50t52 116q20 64 25.5 105t5.5 100q0 38 42 38z" />
    <glyph glyph-name="x" unicode="x" horiz-adv-x="516" 
d="M8 -29q-9 0 -16 6.5t-7 16.5q0 30 33 78.5t72.5 90l72.5 79t33 47.5q0 14 -19 32.5t-41.5 34t-41.5 41t-19 51.5q0 15 9 35t27 20q15 0 76 -85t73 -85q10 0 51 43.5t88 87.5t73 44q18 0 32 -16.5t12 -34.5q-2 -22 -32 -45.5t-65 -41.5t-65 -41t-32 -44q-1 -15 51 -98
t52 -107q0 -14 -12.5 -26t-26.5 -12q-4 0 -7 1t-6 3.5t-5 4t-4 5.5t-3 5.5t-3.5 6t-2.5 5.5q-18 43 -52 99.5t-54 56.5q-36 0 -191 -225q-22 -33 -50 -33z" />
    <glyph glyph-name="y" unicode="y" horiz-adv-x="568" 
d="M467 497q16 0 27 -24t11 -47q0 -81 -48 -290q-19 -84 -40 -141t-57 -112.5t-91.5 -83.5t-130.5 -28q-65 0 -128.5 25.5t-63.5 62.5q0 14 9 24t23 10q18 0 75.5 -26t95.5 -26q46 0 82.5 21t61 53.5t45 85t33 101t25.5 116.5q-51 -91 -127.5 -156t-135.5 -65
q-43 0 -64.5 41t-21.5 109q0 111 43.5 236.5t94.5 125.5q20 0 28.5 -8.5t7.5 -23.5q-1 -13 -12 -38q-34 -77 -58 -165.5t-24 -153.5q0 -50 24 -50q71 0 159.5 124t132.5 280q6 23 24 23z" />
    <glyph glyph-name="z" unicode="z" horiz-adv-x="502" 
d="M394 136q28 9 43.5 6.5t15.5 -24.5q0 -12 -4 -28q-7 -30 -103.5 -45t-196.5 -17q-143 -4 -143 46q0 8 3.5 16t13.5 19.5t19.5 21t29.5 26.5l35 29l45 36l51 41q108 88 176 160q-137 26 -269 -23q-20 4 -32 20.5t-12 36.5q0 15 19 25.5t49.5 15t54.5 6t47 1.5
q75 0 125.5 -9t71.5 -22t21 -30q0 -77 -344 -336q21 -2 83 -2q72 0 201 30z" />
    <glyph glyph-name="braceleft" unicode="{" horiz-adv-x="397" 
d="M271 631q-54 -13 -79 -31.5t-25 -53.5q0 -16 17.5 -33t38 -30t38 -35t17.5 -47q0 -22 -21 -49t-40 -42l-54 -41q87 -55 87 -115q0 -33 -22.5 -64t-50 -50t-50 -42t-22.5 -42q0 -22 28 -45.5t73 -23.5q33 0 62 4q1 -3 1 -9q0 -44 -99 -44q-49 0 -98 32.5t-49 80.5
q0 33 23.5 62t51 46t51 41.5t23.5 49.5q0 29 -31.5 49.5t-67.5 24.5q-5 7 -5 15q0 10 10.5 22.5t36 33.5t34.5 30q53 43 53 69q0 11 -17 26.5t-37.5 29.5t-37.5 39.5t-17 54.5q0 45 44.5 85.5t106 63.5t115.5 23q15 0 28.5 -6.5t13.5 -17.5q0 -29 -130 -61z" />
    <glyph glyph-name="bar" unicode="|" horiz-adv-x="273" 
d="M39 -230q-17 0 -21.5 40.5t3 104t20 134.5t28.5 140q29 122 54.5 206t79.5 235q34 95 44 109q10 12 20 11q20 -3 30 -16.5t7 -32.5q-2 -22 -27 -92l-29.5 -83t-33.5 -96.5l-26.5 -83t-27.5 -100t-17 -88.5q-33 -163 -48 -318q-4 -25 -7 -36.5t-15 -22.5t-34 -11z" />
    <glyph glyph-name="braceright" unicode="}" horiz-adv-x="396" 
d="M343 322q12 -10 12 -22q0 -14 -22.5 -31t-49.5 -31.5t-50 -37.5t-24 -48q0 -14 26.5 -63t26.5 -89q0 -70 -45.5 -118t-139.5 -48q-77 0 -77 52q80 -5 139 29.5t59 96.5q0 24 -29.5 75t-29.5 79q0 41 60 80q-41 1 -72.5 25.5t-31.5 63.5q0 32 22 63.5t54 56l64 47t54 45.5
t22 43q0 27 -52 43t-106 14q-8 15 -8 28q0 38 61 38q66 0 122 -34t56 -81q0 -39 -33.5 -79.5t-73.5 -68t-73.5 -56.5t-33.5 -46q0 -47 71 -47q48 0 102 21z" />
    <glyph glyph-name="asciitilde" unicode="~" 
d="M401 267q-29 0 -53 11.5t-41 28t-32 33t-32.5 28t-36.5 11.5q-23 0 -37 -15t-14 -36q0 -18 -2 -28t-12.5 -19t-31.5 -9q-14 0 -23 12.5t-9 31.5q0 63 39 96t94 33q27 0 50 -10.5t39 -25.5l31.5 -30.5t35.5 -26t42 -10.5q29 0 50 23.5t32 47t16 23.5q12 0 20 -9.5t8 -25.5
q0 -59 -38.5 -96.5t-94.5 -37.5z" />
    <glyph glyph-name="uni00A0" unicode="&#xa0;" horiz-adv-x="280" 
 />
    <glyph glyph-name="exclamdown" unicode="&#xa1;" horiz-adv-x="237" 
d="M145 510q29 0 44.5 -20t15.5 -42t-18.5 -38t-41.5 -16q-22 0 -38 15t-16 37q0 26 16 45t38 19zM96 275q30 3 41.5 -15.5t11.5 -60.5q0 -85 -31.5 -195.5t-79.5 -212.5q-27 -4 -45 13t-18 44q0 15 8.5 37t28 65.5t34.5 86.5q42 118 50 238z" />
    <glyph glyph-name="cent" unicode="&#xa2;" horiz-adv-x="502" 
d="M464 301q21 -1 21 -29q0 -63 -66 -113.5t-154 -62.5l-28 -124q-10 -41 -28 -41q-11 0 -13.5 7.5t-1.5 24.5q1 48 15 130q-153 8 -153 167q0 118 70.5 209.5t181.5 115.5q16 95 35 121.5t56 12.5q-10 -46 -26 -126h5q112 0 112 -62q0 -38 -39 -54q-27 36 -95 38
q-35 -164 -35 -165q-3 -16 -40 -185q53 11 103 46.5t80 89.5zM136 279q0 -105 84 -118q12 66 34 176q10 53 24 105.5t17 66.5q-77 -18 -118 -81t-41 -149z" />
    <glyph glyph-name="sterling" unicode="&#xa3;" horiz-adv-x="529" 
d="M403 681q61 0 101.5 -25t40.5 -61q0 -38 -34 -51q-31 75 -111 75q-42 0 -71 -15t-44 -43t-21 -60t-6 -73q0 -56 1 -81l150 3q20 1 30.5 -5.5t9.5 -18.5q-3 -36 -56 -33q-42 3 -83 3q-34 0 -51 -2q-4 -113 -59 -185q42 -2 93.5 -27.5t78.5 -25.5q26 0 41.5 15.5t25 31
t19.5 15.5q12 1 20 -6.5t8 -23.5q0 -50 -34.5 -77t-85.5 -27q-44 0 -112 28t-107 28q-22 0 -63 -19.5t-56 -19.5q-26 0 -26 36q0 34 18 42q14 5 45 10t43 9q36 13 51.5 59.5t17.5 127.5q-16 0 -56.5 -4t-55.5 -4q-13 0 -13 27t21 33q11 3 32 4t46 1.5t29 0.5q-4 65 3 135
q10 91 70.5 147t149.5 56z" />
    <glyph glyph-name="currency" unicode="&#xa4;" 
d="M626 614q15 -12 15 -25q0 -11 -12 -17q-69 -39 -114 -77q18 -30 18 -71q0 -98 -76 -184q71 -89 71 -130q0 -29 -37 -43q-29 56 -88 124q-72 -51 -149 -51q-52 0 -88 18q-79 -75 -115 -128q-33 16 -33 39q0 41 98 139q-17 32 -17 79q0 59 29 113.5t78 94.5
q-78 74 -101 102q-7 8 -7 18q0 13 17 25q9 6 19 6q11 0 24 -6.5t30 -23t24.5 -24.5t28.5 -33t23 -27q58 29 119 29q48 0 84 -19q93 81 134 81q15 0 25 -9zM262 198q74 0 136 64.5t62 143.5q0 44 -21.5 68t-73.5 24q-79 0 -133.5 -66.5t-54.5 -139.5q0 -24 2 -37.5t9.5 -28.5
t25.5 -21.5t48 -6.5z" />
    <glyph glyph-name="yen" unicode="&#xa5;" horiz-adv-x="567" 
d="M538 275q20 -2 20 -19q0 -33 -76 -33q-72 0 -152 3q-11 0 -17 1l-11 -56q22 -1 45.5 -2.5t50.5 -4t40 -3.5q17 -1 17 -22q0 -23 -20 -26q-30 -3 -67 -3q-23 0 -77 2l-8 -42q-11 -68 -28 -79q-4 -3 -10 -3q-16 0 -31.5 10.5t-15.5 26.5q0 20 8 60l6 33q-123 9 -123 39
q0 31 28 27q43 -7 105 -10l11 58q-51 4 -145 16q-12 3 -12 15t9 22.5t20 9.5q94 -5 107 -6h10q-28 63 -96 297q-18 60 -18 69q0 21 44 21q34 0 49 -15q26 -184 88 -372l34 48l32.5 46.5l27 41t27.5 46.5l23.5 47t26 60l24.5 69q20 18 49 18q16 0 28 -9.5t12 -20.5
q0 -16 -6 -35.5t-21.5 -45.5l-28.5 -46.5t-39 -55l-41 -53.5l-47.5 -60l-45.5 -57q90 1 194 -7z" />
    <glyph glyph-name="brokenbar" unicode="&#xa6;" horiz-adv-x="273" 
d="M164 330q-33 -2 -48 23q32 123 87 277q34 95 44 109q10 12 20 11q20 -3 30 -16.5t7 -32.5q-5 -39 -27 -92q-24 -57 -34 -82.5t-23 -69.5t-27 -104q-4 -21 -29 -23zM21 -228q-18 13 -14.5 78.5t22.5 157t47 179.5q6 19 17 27t23 6q18 -3 29 -22.5t4 -43.5
q-39 -124 -63 -314q-4 -18 -5 -23t-6 -18.5t-11 -17.5t-17 -7.5t-26 -1.5z" />
    <glyph glyph-name="section" unicode="&#xa7;" horiz-adv-x="518" 
d="M335 642q-98 0 -98 -48q0 -32 31.5 -53t114.5 -47q68 -22 92.5 -48t24.5 -69q0 -60 -42 -110t-104 -77t-130 -32q15 -6 39 -18.5t31 -15.5q85 -52 85 -112q0 -43 -35.5 -72.5t-83.5 -41t-102 -11.5q-143 0 -143 75q0 17 16 28q65 -36 117 -36q55 0 98.5 13t43.5 44
q0 13 -6.5 24t-23 23t-29.5 19.5t-43 23t-46 24.5q-54 26 -74.5 54.5t-20.5 69.5q0 50 43.5 95.5t100.5 72.5t117 39q-81 19 -118 47.5t-37 81.5q0 57 59 86t137 29q59 0 102.5 -11t60.5 -24.5t17 -26.5q0 -12 -12.5 -25t-30.5 -13q-6 0 -57.5 21t-93.5 21zM432 358
q0 44 -63 44q-77 0 -160.5 -46.5t-83.5 -88.5q0 -51 64 -51q90 0 166.5 40t76.5 102z" />
    <glyph glyph-name="dieresis" unicode="&#xa8;" 
d="M384 595q-15 0 -25.5 12.5t-10.5 31.5q0 43 21.5 62t51.5 19q20 0 30 -14t10 -32q0 -27 -21 -53t-56 -26zM200 585q-42 0 -42 53q0 44 20.5 59t51.5 15q41 0 41 -45q0 -27 -21 -54.5t-50 -27.5z" />
    <glyph glyph-name="copyright" unicode="&#xa9;" horiz-adv-x="842" 
d="M365 -20q-86 0 -148.5 25t-97 68.5t-50 94t-15.5 108.5q0 83 31.5 163.5t88.5 147.5t148.5 108.5t201.5 41.5q131 0 217.5 -80t86.5 -223q0 -92 -29 -173t-85 -144t-146 -100t-203 -37zM378 54q119 0 205 51.5t126 131.5t40 177q0 122 -71 189.5t-180 67.5
q-81 0 -151 -34.5t-114.5 -87.5t-69.5 -114t-25 -117q0 -35 6.5 -69.5t24 -70.5t43.5 -63t69 -44t97 -17zM396 163q-76 0 -110.5 39t-34.5 105q0 103 92.5 186.5t183.5 83.5q81 0 81 -63q0 -37 -38 -53q-20 37 -68 37q-66 0 -119 -51.5t-53 -120.5q0 -97 81 -97
q47 0 97 29.5t84 88.5q21 -1 21 -28q0 -68 -66.5 -112t-150.5 -44z" />
    <glyph glyph-name="ordfeminine" unicode="&#xaa;" horiz-adv-x="337" 
d="M339 711q14 0 25.5 -11.5t5.5 -24.5q-62 -136 -62 -194q0 -40 10 -40q6 0 15 5t13 5q8 0 8 -15q0 -20 -19.5 -37.5t-44.5 -17.5q-53 0 -36 107q-54 -110 -142 -110q-36 0 -56.5 28.5t-20.5 73.5q0 86 71.5 163t143.5 77q39 0 36 -41q-21 4 -41 -1q-56 -11 -98.5 -69
t-42.5 -113q0 -62 32 -62q71 0 152 195l7.5 18t10 22.5t10 20t11.5 16t12 5.5z" />
    <glyph glyph-name="guillemotleft" unicode="&#xab;" horiz-adv-x="675" 
d="M242 205l41 -29t25.5 -20.5t19 -22.5t4.5 -22q0 -15 -11 -25.5t-28 -10.5q-34 0 -67 40q-26 31 -53.5 52.5t-44.5 30.5t-71 34q-6 10 -6 22q0 30 23 50t68 40q20 9 53 22t50 20.5t39.5 20t40.5 29t35 38.5q38 -27 17 -66.5t-80 -66.5q-13 -6 -77.5 -30t-93.5 -43
q50 -19 116 -63zM615 466q36 -25 15.5 -63.5t-76.5 -64.5q-12 -5 -74 -28t-90 -42q50 -19 111 -60q38 -26 51 -36t24.5 -25t11.5 -30q0 -14 -11 -24t-27 -10q-33 0 -64 38l-15.5 17.5l-13.5 15t-15 13t-13.5 10.5t-15 10.5t-14 9t-17.5 9t-17.5 8.5t-20 10t-21.5 10
q-6 8 -6 21q0 28 22.5 47.5t65.5 38.5q20 9 51 21.5t47.5 20t38.5 19.5t39 27.5t34 36.5z" />
    <glyph glyph-name="logicalnot" unicode="&#xac;" 
d="M468 412q25 1 37.5 -3.5t15 -10t2.5 -16.5q-3 -27 -22.5 -90t-26.5 -104q-5 -24 -13.5 -35.5t-14.5 -12.5t-20 -1q-13 0 -16.5 22t2.5 49q37 107 46 140q-45 5 -115 5q-121 0 -207 -15q-44 -9 -44 28q0 11 2.5 18.5t5.5 11.5t9.5 7t9 3.5t11.5 1.5l8 1q34 4 71 4
t69.5 -1.5t43.5 -1.5q74 -7 146 0z" />
    <glyph glyph-name="uni00AD" unicode="&#xad;" horiz-adv-x="349" 
d="M106 214q-21 0 -34.5 1t-27.5 8t-14 20q1 43 78 43q2 0 89 -6q42 -4 113 6q12 -4 12 -20q0 -23 -36 -35q-51 -17 -180 -17z" />
    <glyph glyph-name="registered" unicode="&#xae;" horiz-adv-x="842" 
d="M524 737q131 0 217.5 -80t86.5 -223q0 -92 -29 -173t-85 -144t-146 -100t-203 -37q-86 0 -148.5 25t-97 68.5t-50 94t-15.5 108.5q0 83 31.5 163.5t88.5 147.5t148.5 108.5t201.5 41.5zM378 54q119 0 205 51.5t126 131.5t40 177q0 122 -71 189.5t-180 67.5
q-81 0 -151 -34.5t-114.5 -87.5t-69.5 -114t-25 -117q0 -35 6.5 -69.5t24 -70.5t43.5 -63t69 -44t97 -17zM410 584q187 13 196 -107q3 -37 -36 -81t-109 -58q36 -18 68 -58t34 -75q2 -26 -20 -27q-29 -2 -49.5 17t-45 53.5t-48.5 53.5q-18 16 -46 12q-11 -40 -14 -65
q0 -2 -2 -12.5t-3.5 -17t-5 -17.5t-7 -17.5t-9.5 -12t-13 -5.5q-16 -1 -24.5 16t-9.5 33q-1 13 2 36q10 57 60 175.5t82 156.5zM368 360q66 -1 125 35.5t56 76.5q-5 65 -105 58q-37 -44 -76 -170z" />
    <glyph glyph-name="macron" unicode="&#xaf;" 
d="M116 610q-12 17 -9 43q1 25 59 35t130 5q79 -5 92 -18q11 -13 -3 -50q-143 8 -269 -15z" />
    <glyph glyph-name="degree" unicode="&#xb0;" horiz-adv-x="398" 
d="M201 418q-97 0 -97 115q0 82 62 150t142 68q51 0 81.5 -27.5t30.5 -74.5q0 -85 -66.5 -158t-152.5 -73zM217 468q55 0 97.5 54.5t42.5 118.5q0 56 -51 56q-60 0 -97 -52t-37 -102q0 -75 45 -75z" />
    <glyph glyph-name="plusminus" unicode="&#xb1;" 
d="M274 161q-9 1 -13.5 6.5t-4.5 15.5t1.5 19.5t4.5 24.5t4 23l6 52q1 15 -2 22.5t-6.5 9t-11.5 2.5q-30 3 -94 1q-17 -1 -24.5 -1t-19 1.5t-15.5 7.5t-3 16q2 12 15 24t31 13q19 1 43 -1t42 -2q40 0 53.5 9t18.5 33q3 13 6 38.5t6 39.5q8 47 25.5 64.5t50.5 5.5
q1 -56 -27 -144q-11 -38 16 -45q32 -8 90 -5q38 2 49.5 -2t9.5 -18q-3 -32 -42.5 -36.5t-105.5 1.5q-11 0 -18.5 -1t-14 -2.5t-10.5 -6t-7.5 -7.5t-5 -11.5t-3 -14.5t-1.5 -19.5t-0.5 -23t-0.5 -28.5v-33q-2 -13 -13.5 -21t-28.5 -7zM103 18q-1 0 -7 0.5t-9 1t-8.5 2
t-8.5 4.5t-6.5 7.5t-5 11.5t-1.5 16q0 37 44 28q73 -14 187 -14q92 0 143 7q67 12 67 -34q0 -11 -2.5 -16.5t-15 -10t-37.5 -3.5q-66 6 -156 0q-106 -9 -184 0z" />
    <glyph glyph-name="uni00B2" unicode="&#xb2;" horiz-adv-x="285" 
d="M166 496q89 7 119.5 -1t30.5 -39q-142 -18 -252 -10q-10 4 -10 18q0 24 24.5 47.5t54.5 39.5t54.5 36.5t24.5 39.5q0 27 -55 27q-43 0 -68 -22q-14 4 -14 22q0 21 27.5 34t65.5 13q96 0 96 -78q0 -33 -23 -53.5t-59.5 -39.5t-52.5 -37z" />
    <glyph glyph-name="uni00B3" unicode="&#xb3;" horiz-adv-x="210" 
d="M265 635q0 -46 -92 -65q33 -4 55.5 -16t21.5 -26q0 -23 -66.5 -56.5t-94.5 -33.5q-26 0 -26 21q0 16 51 37t82 25l-83 21q-28 7 -28 32q7 2 25.5 6.5t34.5 9t32.5 10.5t26.5 13.5t10 15.5q0 22 -42 22q-25 0 -42 -10q-6 0 -10 7.5t-4 13.5q0 34 64 34q26 0 55.5 -16
t29.5 -45z" />
    <glyph glyph-name="acute" unicode="&#xb4;" 
d="M141 585q-20 0 -20 19q57 31 89 65.5t64 89.5q26 2 45.5 -11t17.5 -33q-4 -43 -74 -86.5t-122 -43.5z" />
    <glyph glyph-name="uni00B5" unicode="&#xb5;" horiz-adv-x="539" 
d="M508 458q-2 -10 -16.5 -51t-27 -99t-15.5 -131q-1 -78 32 -130q-7 -13 -21 -23t-28 -10q-50 0 -64.5 62.5t11.5 191.5q-121 -243 -255 -243q-34 0 -49 33q-6 -47 -11 -97.5l-7.5 -76t-5.5 -50t-6.5 -37t-7.5 -20.5q-16 -17 -49 -17q-7 0 -11.5 3t-6.5 10t-2.5 14t1 18.5
t3 20.5l4 23.5t3.5 23.5q23 170 54 312q49 225 102 322q55 -3 55 -46q0 -14 -17 -64t-34.5 -115.5t-17.5 -117.5q0 -30 12.5 -50.5t29.5 -20.5q20 0 41.5 15.5t44 45t42 59t41 72.5l35 69.5t31 65t20.5 45.5q22 44 49 43q14 0 28.5 -20t12.5 -30z" />
    <glyph glyph-name="paragraph" unicode="&#xb6;" horiz-adv-x="594" 
d="M442 680q17 -30 -12 -192q-19 -134 -128 -538q-12 -44 -22 -54q-14 -14 -46 -14q-11 0 -15 7.5t-1.5 22t7.5 29.5t14 35q62 156 83 310q-70 3 -120 23t-76 51.5t-37 64.5t-11 72q0 102 74 162.5t179 60.5q88 0 111 -40zM574 698q10 0 14 -15.5t1.5 -38.5t-5 -40t-5.5 -29
q-18 -80 -27 -158q-5 -49 -17.5 -108.5t-33 -146t-32.5 -142.5q-5 -21 -7.5 -44.5t-3 -37t-3 -26t-9 -18t-18.5 -5.5q-15 0 -25 19t-10 53q0 18 3.5 43t7 42t14 59.5t14.5 61.5q72 275 77 428q2 55 8 71q4 15 20.5 23.5t36.5 8.5z" />
    <glyph glyph-name="periodcentered" unicode="&#xb7;" horiz-adv-x="215" 
d="M94 207q-28 0 -44.5 15t-16.5 38q0 27 15.5 45t46.5 18q24 0 38.5 -14.5t14.5 -38.5q0 -13 -3.5 -25.5t-16.5 -25t-34 -12.5z" />
    <glyph glyph-name="cedilla" unicode="&#xb8;" 
d="M153 -52q38 0 60 -20.5t22 -54.5q0 -56 -44 -86.5t-110 -30.5q-51 0 -51 18q0 19 15 30q25 -1 54 -0.5t52.5 15t23.5 40.5q0 29 -43 29q-25 0 -52 -7q-12 -3 -15.5 8.5t0.5 20.5l53 127l56 -3l-38 -87q6 1 17 1z" />
    <glyph glyph-name="uni00B9" unicode="&#xb9;" horiz-adv-x="181" 
d="M238 709q9 -11 4 -20q-67 -144 -78 -209q-1 -9 -14 -15t-26 -6t-20 4t-5 13q21 85 64 162q-96 -45 -110 -45q-5 0 -10 9.5t-5 16.5t7 12q12 9 90 49t89 40q7 0 14 -11z" />
    <glyph glyph-name="ordmasculine" unicode="&#xba;" horiz-adv-x="304" 
d="M134 378q-97 0 -97 115q0 82 62 150t142 68q51 0 81.5 -27.5t30.5 -74.5q0 -85 -66.5 -158t-152.5 -73zM150 428q55 0 97.5 54.5t42.5 118.5q0 56 -51 56q-60 0 -97 -52t-37 -102q0 -75 45 -75z" />
    <glyph glyph-name="guillemotright" unicode="&#xbb;" horiz-adv-x="630" 
d="M571 300q6 -10 6 -22q0 -29 -23.5 -50t-69.5 -44q-63 -33 -98 -59.5t-70 -74.5q-25 15 -23 37.5t20.5 45.5t50.5 47q17 14 65.5 41.5t62.5 44.5q-94 51 -151 158q9 29 41 29q28 0 66 -48q29 -39 39.5 -52t32.5 -29t51 -24zM321 277q0 -28 -23 -48.5t-66 -41.5
q-62 -33 -99.5 -60.5t-70.5 -73.5q-21 30 -6 63t61 66q16 13 63 40t59 44q-93 51 -144 151q9 28 39 28q17 0 30.5 -11t33.5 -35q20 -27 38 -44.5t30.5 -26t49.5 -30.5q5 -10 5 -21z" />
    <glyph glyph-name="onequarter" unicode="&#xbc;" horiz-adv-x="658" 
d="M502 728q13 6 46.5 -1.5t37.5 -19.5q-287 -317 -423 -755q-3 -11 -19.5 -15t-30.5 1.5t-12 18.5q32 169 165 427.5t236 343.5zM109 476q21 85 64 162q-96 -45 -110 -45q-5 0 -10 9.5t-5 16.5t7 12q12 9 90 49t89 40q7 0 14 -11q9 -11 4 -20q-67 -144 -78 -209
q-1 -9 -14 -15t-26 -6t-20 4t-5 13zM600 141q10 -9 10 -24q0 -10 -8 -15q-30 -17 -90 -24q-2 -10 -4 -25.5t-3.5 -23.5l-3.5 -19t-4.5 -16t-6 -11t-8.5 -8.5t-11 -3.5q-20 -4 -28 8q-4 35 9 94q-18 -3 -42 -3q-36 0 -50 9.5t-13 32.5q2 49 27 94t53 45q17 0 22 -11
q-15 -16 -28.5 -46.5t-13.5 -45.5q-2 -32 20 -32q8 0 38 2q31 97 69 149q10 7 21 7q14 0 14 -17q0 -19 -45 -132q51 8 76 16z" />
    <glyph glyph-name="onehalf" unicode="&#xbd;" horiz-adv-x="700" 
d="M553 762q13 6 46.5 -1.5t37.5 -19.5q-287 -317 -423 -755q-3 -11 -19.5 -15t-30.5 1.5t-12 18.5q32 169 165 427.5t236 343.5zM174 480q-1 -9 -14 -15t-26 -6t-20 4t-5 13q21 85 64 162q-96 -45 -110 -45q-5 0 -10 9.5t-5 16.5t7 12q12 9 90 49t89 40q7 0 14 -11
q9 -11 4 -20q-67 -144 -78 -209zM534 61q89 7 119.5 -1t30.5 -39q-142 -18 -252 -10q-10 4 -10 18q0 24 24.5 47.5t54.5 39.5t54.5 36.5t24.5 39.5q0 27 -55 27q-43 0 -68 -22q-14 4 -14 22q0 21 27.5 34t65.5 13q96 0 96 -78q0 -33 -23 -53.5t-59.5 -39.5t-52.5 -37z" />
    <glyph glyph-name="threequarters" unicode="&#xbe;" horiz-adv-x="722" 
d="M528 728q13 6 46.5 -1.5t37.5 -19.5q-287 -317 -423 -755q-3 -11 -19.5 -15t-30.5 1.5t-12 18.5q32 169 165 427.5t236 343.5zM237 528q0 -23 -66.5 -56.5t-94.5 -33.5q-26 0 -26 21q0 16 51 37t82 25l-83 21q-28 7 -28 32q7 2 25.5 6.5t34.5 9t32.5 10.5t26.5 13.5
t10 15.5q0 22 -42 22q-25 0 -42 -10q-5 0 -9.5 7.5t-4.5 13.5q0 34 64 34q26 0 55.5 -16t29.5 -45q0 -46 -92 -65q33 -4 55.5 -16t21.5 -26zM664 141q10 -9 10 -24q0 -10 -8 -15q-30 -17 -90 -24q-2 -10 -4 -25.5t-3.5 -23.5l-3.5 -19t-4.5 -16t-6 -11t-8.5 -8.5t-11 -3.5
q-20 -4 -28 8q-4 35 9 94q-18 -3 -42 -3q-36 0 -50 9.5t-13 32.5q2 49 27 94t53 45q17 0 22 -11q-15 -16 -28.5 -46.5t-13.5 -45.5q-2 -32 20 -32q8 0 38 2q31 97 69 149q10 7 21 7q14 0 14 -17q0 -19 -45 -132q51 8 76 16z" />
    <glyph glyph-name="questiondown" unicode="&#xbf;" horiz-adv-x="365" 
d="M258 510q29 0 45.5 -16.5t16.5 -33.5q0 -28 -18.5 -42t-47.5 -14q-22 0 -40 14.5t-18 37.5q0 22 19.5 38t42.5 16zM249 295q22 0 36 -17t14 -44q0 -40 -26.5 -73t-64.5 -55.5l-75.5 -45t-64 -54t-26.5 -69.5q0 -36 24 -55.5t59 -19.5q36 0 73.5 15t53.5 15q39 0 39 -28
q0 -24 -27 -40.5t-60 -23t-66 -6.5q-80 0 -125.5 34.5t-45.5 96.5q0 48 19 86t47.5 60t62 42t62 33.5t47.5 33.5t19 43q0 27 -19 53q19 19 44 19z" />
    <glyph glyph-name="Agrave" unicode="&#xc0;" horiz-adv-x="592" 
d="M502 766q-47 -7 -117 27.5t-76 76.5q-3 20 13.5 35.5t42.5 17.5q58 -97 173 -127q1 -9 -9 -18t-27 -12zM503 306q26 -3 34 -12.5t8 -23.5q0 -15 -38 -15q-36 0 -54 -1q1 -88 19 -205q-9 -19 -31 -34t-39 -15q-20 0 -25 45q-11 96 -10 202q-126 -15 -236 -65
q-51 -106 -89 -212q-19 0 -31 3.5t-16.5 12t-5.5 14.5t-1 17q0 47 99 222t212.5 331.5t148.5 156.5q17 0 27 -9q-22 -165 -22 -409q26 0 50 -3zM384 590q-108 -129 -213 -328q94 32 198 43q7 189 15 285z" />
    <glyph glyph-name="Aacute" unicode="&#xc1;" horiz-adv-x="592" 
d="M556 913q26 -5 42.5 -21.5t9.5 -35.5q-12 -41 -90 -69t-129 -17q-19 5 -15 23q62 18 101 45.5t81 74.5zM503 306q26 -3 34 -12.5t8 -23.5q0 -15 -38 -15q-36 0 -54 -1q1 -88 19 -205q-9 -19 -31 -34t-39 -15q-20 0 -25 45q-11 96 -10 202q-126 -15 -236 -65
q-51 -106 -89 -212q-19 0 -31 3.5t-16.5 12t-5.5 14.5t-1 17q0 47 99 222t212.5 331.5t148.5 156.5q17 0 27 -9q-22 -165 -22 -409q26 0 50 -3zM384 590q-108 -129 -213 -328q94 32 198 43q7 189 15 285z" />
    <glyph glyph-name="Acircumflex" unicode="&#xc2;" horiz-adv-x="582" 
d="M485 914q17 -30 53.5 -74t69.5 -71q-10 -21 -31 -21q-28 -1 -60.5 25.5t-58.5 61.5q-48 -45 -120 -71q-44 -12 -54 -3t-8 13.5t18 14.5q45 24 91 60t70 65q6 8 15.5 8t14.5 -8zM503 306q26 -3 34 -12.5t8 -23.5q0 -15 -38 -15q-36 0 -54 -1q1 -88 19 -205q-9 -19 -31 -34
t-39 -15q-20 0 -25 45q-11 96 -10 202q-126 -15 -236 -65q-51 -106 -89 -212q-19 0 -31 3.5t-16.5 12t-5.5 14.5t-1 17q0 47 99 222t212.5 331.5t148.5 156.5q17 0 27 -9q-22 -165 -22 -409q26 0 50 -3zM384 590q-108 -129 -213 -328q94 32 198 43q7 189 15 285z" />
    <glyph glyph-name="Atilde" unicode="&#xc3;" horiz-adv-x="592" 
d="M584 886q31 -9 31 -44q0 -24 -10.5 -41.5t-26.5 -25.5t-28.5 -11t-22.5 -3q-33 0 -71 29t-60 29q-40 0 -58 -61q-33 8 -33 42q0 37 27 60.5t64 23.5q35 0 77 -31t57 -31q52 0 54 64zM503 306q26 -3 34 -12.5t8 -23.5q0 -15 -38 -15q-36 0 -54 -1q1 -88 19 -205
q-9 -19 -31 -34t-39 -15q-20 0 -25 45q-11 96 -10 202q-126 -15 -236 -65q-51 -106 -89 -212q-19 0 -31 3.5t-16.5 12t-5.5 14.5t-1 17q0 47 99 222t212.5 331.5t148.5 156.5q17 0 27 -9q-22 -165 -22 -409q26 0 50 -3zM384 590q-108 -129 -213 -328q94 32 198 43
q7 189 15 285z" />
    <glyph glyph-name="Adieresis" unicode="&#xc4;" horiz-adv-x="592" 
d="M573 895q20 0 30 -14t10 -32q0 -27 -21 -53t-56 -26q-15 0 -25.5 12.5t-10.5 31.5q0 43 21.5 62t51.5 19zM352 760q-42 0 -42 53q0 44 20.5 59t51.5 15q41 0 41 -45q0 -27 -21 -54.5t-50 -27.5zM503 306q26 -3 34 -12.5t8 -23.5q0 -15 -38 -15q-36 0 -54 -1
q1 -88 19 -205q-9 -19 -31 -34t-39 -15q-20 0 -25 45q-11 96 -10 202q-126 -15 -236 -65q-51 -106 -89 -212q-19 0 -31 3.5t-16.5 12t-5.5 14.5t-1 17q0 47 99 222t212.5 331.5t148.5 156.5q17 0 27 -9q-22 -165 -22 -409q26 0 50 -3zM384 590q-108 -129 -213 -328
q94 32 198 43q7 189 15 285z" />
    <glyph glyph-name="Aring" unicode="&#xc5;" horiz-adv-x="592" 
d="M532 981q33 0 54 -18.5t21 -50.5q0 -58 -54 -104.5t-119 -46.5q-29 0 -48.5 18t-19.5 53q0 57 48.5 103t117.5 46zM458 810q37 0 65.5 28.5t28.5 57.5q0 19 -11 28t-25 9q-40 0 -67 -26.5t-27 -59.5q0 -16 10 -26.5t26 -10.5zM503 306q26 -3 34 -12.5t8 -23.5
q0 -15 -38 -15q-36 0 -54 -1q1 -88 19 -205q-9 -19 -31 -34t-39 -15q-20 0 -25 45q-11 96 -10 202q-126 -15 -236 -65q-51 -106 -89 -212q-19 0 -31 3.5t-16.5 12t-5.5 14.5t-1 17q0 47 99 222t212.5 331.5t148.5 156.5q17 0 27 -9q-22 -165 -22 -409q26 0 50 -3zM384 590
q-108 -129 -213 -328q94 32 198 43q7 189 15 285z" />
    <glyph glyph-name="AE" unicode="&#xc6;" horiz-adv-x="892" 
d="M742 679q62 -5 96.5 -15t43 -20.5t7.5 -25.5q-2 -31 -26 -46q-22 26 -115 35q-78 8 -132 -6q-34 -46 -70 -196l-12 -46q97 15 192 17q25 0 32 -10t4 -25q-3 -18 -41 -24q-189 -25 -205 -27l-17 -65q-25 -89 -11.5 -125.5t79.5 -36.5q55 0 144 19t93 19q20 0 19 -29
q-2 -39 -98.5 -61.5t-172.5 -22.5q-102 0 -140 46q-53 49 3 237q-136 -29 -249 -84q-75 -116 -119 -217q-34 -1 -48 13.5t-11 33.5q6 31 45.5 103t95.5 150q109 153 228 262t231 138q63 16 154 9zM225 274q94 40 212 66q9 30 18 57q44 130 88 198q-44 -9 -128 -86.5
t-160 -191.5z" />
    <glyph glyph-name="Ccedilla" unicode="&#xc7;" horiz-adv-x="572" 
d="M504 157q18 0 18 -19q0 -41 -81 -84t-171 -52l-24 -55q6 1 17 1q38 0 60 -20.5t22 -54.5q0 -56 -44 -86.5t-110 -30.5q-51 0 -51 18q0 19 15 30q25 -1 54 -0.5t52.5 15t23.5 40.5q0 29 -43 29q-25 0 -52 -7q-12 -3 -15.5 8.5t0.5 20.5l38 91q-84 7 -132 62.5t-48 144.5
q0 111 63.5 222t164.5 181t204 70q44 0 69.5 -14t25.5 -55q0 -39 -42 -116.5t-66 -77.5q-15 0 -24.5 13.5t-9.5 31.5q0 11 3.5 23.5t13 29l16.5 28.5t22.5 36l23.5 37q-19 6 -37 6q-83 0 -160.5 -62t-122.5 -151.5t-45 -171.5q0 -85 39.5 -121t102.5 -36q55 0 107 19t84 38
t39 19z" />
    <glyph glyph-name="Egrave" unicode="&#xc8;" horiz-adv-x="533" 
d="M440 756q-47 -7 -117 27.5t-76 76.5q-3 20 13.5 35.5t42.5 17.5q58 -97 173 -127q1 -9 -9 -18t-27 -12zM403 689q76 0 102.5 -20.5t24.5 -50.5q-2 -31 -26 -46q-30 35 -115 35q-56 0 -94 -12.5t-62 -41.5t-38 -61.5t-28 -86.5l-15 -57q18 2 68 5t75.5 5.5t65 9.5t70.5 18
q16 -13 15 -34q-1 -35 -55.5 -45.5t-138.5 -12t-116 -9.5l-16 -60q-25 -89 -11.5 -125.5t79.5 -36.5q55 0 153.5 19t103.5 19q20 0 19 -29q-1 -27 -61 -47.5t-123.5 -28.5t-106.5 -8q-102 0 -140 46q-51 68 43 363q14 43 26 73.5t32 68t47 66t61 45.5q36 20 86 29.5t75 9.5z
" />
    <glyph glyph-name="Eacute" unicode="&#xc9;" horiz-adv-x="533" 
d="M494 903q26 -5 42.5 -21.5t9.5 -35.5q-12 -41 -90 -69t-129 -17q-19 5 -15 23q62 18 101 45.5t81 74.5zM403 689q76 0 102.5 -20.5t24.5 -50.5q-2 -31 -26 -46q-30 35 -115 35q-56 0 -94 -12.5t-62 -41.5t-38 -61.5t-28 -86.5l-15 -57q18 2 68 5t75.5 5.5t65 9.5t70.5 18
q16 -13 15 -34q-1 -35 -55.5 -45.5t-138.5 -12t-116 -9.5l-16 -60q-25 -89 -11.5 -125.5t79.5 -36.5q55 0 153.5 19t103.5 19q20 0 19 -29q-1 -27 -61 -47.5t-123.5 -28.5t-106.5 -8q-102 0 -140 46q-51 68 43 363q14 43 26 73.5t32 68t47 66t61 45.5q36 20 86 29.5t75 9.5z
" />
    <glyph glyph-name="Ecircumflex" unicode="&#xca;" horiz-adv-x="533" 
d="M443 904q17 -30 53.5 -74t69.5 -71q-10 -21 -31 -21q-28 -1 -60.5 25.5t-58.5 61.5q-48 -45 -120 -71q-44 -12 -54 -3t-8 13.5t18 14.5q45 24 91 60t70 65q6 8 15.5 8t14.5 -8zM403 689q76 0 102.5 -20.5t24.5 -50.5q-2 -31 -26 -46q-30 35 -115 35q-56 0 -94 -12.5
t-62 -41.5t-38 -61.5t-28 -86.5l-15 -57q18 2 68 5t75.5 5.5t65 9.5t70.5 18q16 -13 15 -34q-1 -35 -55.5 -45.5t-138.5 -12t-116 -9.5l-16 -60q-25 -89 -11.5 -125.5t79.5 -36.5q55 0 153.5 19t103.5 19q20 0 19 -29q-1 -27 -61 -47.5t-123.5 -28.5t-106.5 -8
q-102 0 -140 46q-51 68 43 363q14 43 26 73.5t32 68t47 66t61 45.5q36 20 86 29.5t75 9.5z" />
    <glyph glyph-name="Edieresis" unicode="&#xcb;" horiz-adv-x="533" 
d="M474 760q-15 0 -25.5 12.5t-10.5 31.5q0 43 21.5 62t51.5 19q20 0 30 -14t10 -32q0 -27 -21 -53t-56 -26zM290 750q-42 0 -42 53q0 44 20.5 59t51.5 15q41 0 41 -45q0 -27 -21 -54.5t-50 -27.5zM403 689q76 0 102.5 -20.5t24.5 -50.5q-2 -31 -26 -46q-30 35 -115 35
q-56 0 -94 -12.5t-62 -41.5t-38 -61.5t-28 -86.5l-15 -57q18 2 68 5t75.5 5.5t65 9.5t70.5 18q16 -13 15 -34q-1 -35 -55.5 -45.5t-138.5 -12t-116 -9.5l-16 -60q-25 -89 -11.5 -125.5t79.5 -36.5q55 0 153.5 19t103.5 19q20 0 19 -29q-1 -27 -61 -47.5t-123.5 -28.5
t-106.5 -8q-102 0 -140 46q-51 68 43 363q14 43 26 73.5t32 68t47 66t61 45.5q36 20 86 29.5t75 9.5z" />
    <glyph glyph-name="Igrave" unicode="&#xcc;" horiz-adv-x="530" 
d="M417 756q-47 -7 -117 27.5t-76 76.5q-3 20 13.5 35.5t42.5 17.5q58 -97 173 -127q1 -9 -9 -18t-27 -12zM558 685q6 -35 -15.5 -56.5t-62.5 -21.5q-16 0 -32.5 1t-35 2.5l-30.5 2.5q-41 -76 -73 -230.5t-37 -288.5q88 4 111 0q36 -6 52 -31t0 -59q-44 20 -116 20
q-48 0 -134 -12.5t-126 -12.5q-43 0 -60 25t6 56q21 -3 40.5 -4.5t41.5 0t32.5 2.5t36.5 4.5t31 4.5q8 122 43 275.5t79 251.5q-91 0 -130 -7q-42 -7 -40 35q1 23 13.5 35.5t32.5 12.5q19 0 90.5 -5.5t104.5 -5.5q144 0 178 6z" />
    <glyph glyph-name="Iacute" unicode="&#xcd;" horiz-adv-x="530" 
d="M304 760q-19 5 -15 23q62 18 101 45.5t81 74.5q26 -5 42.5 -21.5t9.5 -35.5q-12 -41 -90 -69t-129 -17zM558 685q6 -35 -15.5 -56.5t-62.5 -21.5q-16 0 -32.5 1t-35 2.5l-30.5 2.5q-41 -76 -73 -230.5t-37 -288.5q88 4 111 0q36 -6 52 -31t0 -59q-44 20 -116 20
q-48 0 -134 -12.5t-126 -12.5q-43 0 -60 25t6 56q21 -3 40.5 -4.5t41.5 0t32.5 2.5t36.5 4.5t31 4.5q8 122 43 275.5t79 251.5q-91 0 -130 -7q-42 -7 -40 35q1 23 13.5 35.5t32.5 12.5q19 0 90.5 -5.5t104.5 -5.5q144 0 178 6z" />
    <glyph glyph-name="Icircumflex" unicode="&#xce;" horiz-adv-x="530" 
d="M219 751q-10 9 -8 13.5t18 14.5q45 24 91 60t70 65q6 8 16 8t14 -8q17 -30 53.5 -74t69.5 -71q-11 -21 -31 -21q-28 -1 -60.5 25.5t-58.5 61.5q-48 -45 -120 -71q-44 -12 -54 -3zM558 685q6 -35 -15.5 -56.5t-62.5 -21.5q-16 0 -32.5 1t-35 2.5l-30.5 2.5
q-41 -76 -73 -230.5t-37 -288.5q88 4 111 0q36 -6 52 -31t0 -59q-44 20 -116 20q-48 0 -134 -12.5t-126 -12.5q-43 0 -60 25t6 56q21 -3 40.5 -4.5t41.5 0t32.5 2.5t36.5 4.5t31 4.5q8 122 43 275.5t79 251.5q-91 0 -130 -7q-42 -7 -40 35q1 23 13.5 35.5t32.5 12.5
q19 0 90.5 -5.5t104.5 -5.5q144 0 178 6z" />
    <glyph glyph-name="Idieresis" unicode="&#xcf;" horiz-adv-x="530" 
d="M451 760q-15 0 -25.5 12.5t-10.5 31.5q0 43 21.5 62t51.5 19q20 0 30 -14t10 -32q0 -27 -21 -53t-56 -26zM267 750q-42 0 -42 53q0 44 20.5 59t51.5 15q41 0 41 -45q0 -27 -21 -54.5t-50 -27.5zM558 685q6 -35 -15.5 -56.5t-62.5 -21.5q-16 0 -32.5 1t-35 2.5l-30.5 2.5
q-41 -76 -73 -230.5t-37 -288.5q88 4 111 0q36 -6 52 -31t0 -59q-44 20 -116 20q-48 0 -134 -12.5t-126 -12.5q-43 0 -60 25t6 56q21 -3 40.5 -4.5t41.5 0t32.5 2.5t36.5 4.5t31 4.5q8 122 43 275.5t79 251.5q-91 0 -130 -7q-42 -7 -40 35q1 23 13.5 35.5t32.5 12.5
q19 0 90.5 -5.5t104.5 -5.5q144 0 178 6z" />
    <glyph glyph-name="Eth" unicode="&#xd0;" horiz-adv-x="665" 
d="M312 685q167 0 257.5 -76t90.5 -220q0 -195 -149 -295t-410 -100q-42 0 -59 11t-17 39q0 21 67 18q4 0 11 -0.5t10 -0.5q19 132 43 240q-73 -14 -99 -11q-43 6 -35 59q71 9 139 22q2 1 6 1t6 1q36 133 77 239q-37 -3 -69 -10t-50 -13t-24 -6q-18 0 -18 11q0 39 72.5 65
t150.5 26zM196 63q170 13 275 90t105 215q0 117 -71.5 179t-191.5 67q-37 -122 -60 -228q80 12 117 12q89 0 66 -74l-2 -1q-6 2 -18 4q-63 10 -177 -9q-24 -123 -43 -255z" />
    <glyph glyph-name="Ntilde" unicode="&#xd1;" horiz-adv-x="675" 
d="M318 748q-33 8 -33 42q0 37 27 60.5t64 23.5q35 0 77 -31t57 -31q52 0 54 64q31 -9 31 -44q0 -24 -10.5 -41.5t-26.5 -25.5t-28.5 -11t-22.5 -3q-33 0 -71 29t-60 29q-40 0 -58 -61zM625 710q23 0 23 -39q0 -98 -33.5 -261t-64.5 -246q-58 -158 -141 -158q-22 0 -32 9
q-27 201 -51 309t-75 236q-60 -258 -129 -462q-38 -113 -88 -113q-35 0 -35 35q0 12 9.5 34t28.5 61t32 69q60 140 92 293q31 144 51 184q19 38 41 38q46 0 104 -195.5t88 -416.5q50 87 89 284q14 68 38 313q26 26 53 26z" />
    <glyph glyph-name="Ograve" unicode="&#xd2;" horiz-adv-x="601" 
d="M464 786q-47 -7 -117 27.5t-76 76.5q-3 20 13.5 35.5t42.5 17.5q58 -97 173 -127q1 -9 -9 -18t-27 -12zM209 1q-60 0 -99 37.5t-52.5 85.5t-13.5 104q0 125 46 237t133.5 184.5t195.5 72.5q78 0 123.5 -62t45.5 -159q0 -77 -29 -164t-77.5 -162t-121 -124.5t-151.5 -49.5
zM220 71q68 0 137 64.5t113 163.5t44 194q0 64 -26 104.5t-79 40.5q-63 0 -117 -40.5t-87 -103.5t-51.5 -134t-18.5 -136q0 -153 85 -153z" />
    <glyph glyph-name="Oacute" unicode="&#xd3;" horiz-adv-x="601" 
d="M351 790q-19 5 -15 23q62 18 101 45.5t81 74.5q26 -5 42.5 -21.5t9.5 -35.5q-12 -41 -90 -69t-129 -17zM209 1q-60 0 -99 37.5t-52.5 85.5t-13.5 104q0 125 46 237t133.5 184.5t195.5 72.5q78 0 123.5 -62t45.5 -159q0 -77 -29 -164t-77.5 -162t-121 -124.5t-151.5 -49.5
zM220 71q68 0 137 64.5t113 163.5t44 194q0 64 -26 104.5t-79 40.5q-63 0 -117 -40.5t-87 -103.5t-51.5 -134t-18.5 -136q0 -153 85 -153z" />
    <glyph glyph-name="Ocircumflex" unicode="&#xd4;" horiz-adv-x="601" 
d="M266 781q-10 9 -8 13.5t18 14.5q45 24 91 60t70 65q6 8 15.5 8t14.5 -8q17 -30 53.5 -74t69.5 -71q-10 -21 -31 -21q-28 -1 -60.5 25.5t-58.5 61.5q-48 -45 -120 -71q-44 -12 -54 -3zM419 722q78 0 123.5 -62t45.5 -159q0 -77 -29 -164t-77.5 -162t-121 -124.5
t-151.5 -49.5q-60 0 -99 37.5t-52.5 85.5t-13.5 104q0 125 46 237t133.5 184.5t195.5 72.5zM220 71q68 0 137 64.5t113 163.5t44 194q0 64 -26 104.5t-79 40.5q-63 0 -117 -40.5t-87 -103.5t-51.5 -134t-18.5 -136q0 -153 85 -153z" />
    <glyph glyph-name="Otilde" unicode="&#xd5;" horiz-adv-x="601" 
d="M300 778q-33 8 -33 42q0 37 27 60.5t64 23.5q35 0 77 -31t57 -31q52 0 54 64q31 -9 31 -44q0 -24 -10.5 -41.5t-26.5 -25.5t-28.5 -11t-22.5 -3q-33 0 -71 29t-60 29q-40 0 -58 -61zM209 1q-60 0 -99 37.5t-52.5 85.5t-13.5 104q0 125 46 237t133.5 184.5t195.5 72.5
q78 0 123.5 -62t45.5 -159q0 -77 -29 -164t-77.5 -162t-121 -124.5t-151.5 -49.5zM220 71q68 0 137 64.5t113 163.5t44 194q0 64 -26 104.5t-79 40.5q-63 0 -117 -40.5t-87 -103.5t-51.5 -134t-18.5 -136q0 -153 85 -153z" />
    <glyph glyph-name="Odieresis" unicode="&#xd6;" horiz-adv-x="601" 
d="M498 790q-15 0 -25.5 12.5t-10.5 31.5q0 43 21.5 62t51.5 19q20 0 30 -14t10 -32q0 -27 -21 -53t-56 -26zM314 780q-42 0 -42 53q0 44 20.5 59t51.5 15q41 0 41 -45q0 -27 -21 -54.5t-50 -27.5zM209 1q-60 0 -99 37.5t-52.5 85.5t-13.5 104q0 125 46 237t133.5 184.5
t195.5 72.5q78 0 123.5 -62t45.5 -159q0 -77 -29 -164t-77.5 -162t-121 -124.5t-151.5 -49.5zM220 71q68 0 137 64.5t113 163.5t44 194q0 64 -26 104.5t-79 40.5q-63 0 -117 -40.5t-87 -103.5t-51.5 -134t-18.5 -136q0 -153 85 -153z" />
    <glyph glyph-name="multiply" unicode="&#xd7;" 
d="M136 154q-13 0 -21.5 6t-8.5 13q0 17 33 46q9 8 32.5 27l47.5 40l10.5 10.5l9 9l7.5 7.5t7 7.5l5 6.5t4.5 7t3 6.5t2 6.5t0.5 7q0 24 -26 50.5t-66 44.5q-26 12 -34.5 21.5t-8.5 25.5q0 11 11 24.5t31 16.5q34 -12 68.5 -48.5t58 -66t35.5 -29.5q13 0 45.5 37.5
t70.5 75.5t64 38q13 0 26 -12t13 -28q-52 -31 -109 -79q-58 -48 -58 -80q0 -10 8.5 -22t19 -21.5l33 -28.5t38.5 -34q3 -3 9 -8t8 -7l5.5 -5.5t5 -6t2.5 -5.5t1 -6q0 -16 -17 -31.5t-35 -15.5q-15 0 -25.5 11t-28 39.5t-28.5 42.5q-34 45 -54 45q-16 0 -40.5 -21.5
t-46.5 -47.5t-52 -47.5t-56 -21.5z" />
    <glyph glyph-name="Oslash" unicode="&#xd8;" horiz-adv-x="578" 
d="M650 727q-46 -40 -99 -99q24 -50 24 -117q0 -78 -29 -167t-77.5 -165.5t-121 -127t-151.5 -50.5q-63 0 -103 40l-78 -107q-11 -15 -34 -8q-22 5 -13 23q16 30 92 138q-29 59 -29 141q0 125 46 237t133.5 184.5t195.5 72.5q69 0 115 -49q57 65 85 85q13 3 27.5 -7
t16.5 -24zM117 224q0 -33 4 -54q193 261 348 444q-28 34 -73 34q-84 0 -149.5 -65.5t-97.5 -161t-32 -197.5zM501 503q0 33 -7 60q-139 -162 -354 -456q24 -38 67 -38q68 0 137 66.5t113 168t44 199.5z" />
    <glyph glyph-name="Ugrave" unicode="&#xd9;" horiz-adv-x="620" 
d="M454 756q-47 -7 -117 27.5t-76 76.5q-3 20 13.5 35.5t42.5 17.5q58 -97 173 -127q1 -9 -9 -18t-27 -12zM244 -15q-85 0 -130 54.5t-45 158.5q0 95 39 245.5t86 236.5q11 5 24 5q38 0 38 -51q0 -12 -3.5 -28t-7.5 -29t-14 -43l-16 -49q-19 -52 -36 -131t-17 -139
q0 -71 25 -110t73 -39q41 0 75.5 20t60.5 60.5t45.5 85.5t36.5 113t28 123t24 135q12 73 19 86q13 22 51 23q17 0 25 -8q-14 -95 -27.5 -168t-32 -151t-39.5 -135t-49.5 -109t-62 -85t-76.5 -52t-94 -19z" />
    <glyph glyph-name="Uacute" unicode="&#xda;" horiz-adv-x="620" 
d="M341 760q-19 5 -15 23q62 18 101 45.5t81 74.5q26 -5 42.5 -21.5t9.5 -35.5q-12 -41 -90 -69t-129 -17zM244 -15q-85 0 -130 54.5t-45 158.5q0 95 39 245.5t86 236.5q11 5 24 5q38 0 38 -51q0 -12 -3.5 -28t-7.5 -29t-14 -43l-16 -49q-19 -52 -36 -131t-17 -139
q0 -71 25 -110t73 -39q41 0 75.5 20t60.5 60.5t45.5 85.5t36.5 113t28 123t24 135q12 73 19 86q13 22 51 23q17 0 25 -8q-14 -95 -27.5 -168t-32 -151t-39.5 -135t-49.5 -109t-62 -85t-76.5 -52t-94 -19z" />
    <glyph glyph-name="Ucircumflex" unicode="&#xdb;" horiz-adv-x="620" 
d="M256 751q-10 9 -8 13.5t18 14.5q45 24 91 60t70 65q6 8 15.5 8t14.5 -8q17 -30 53.5 -74t69.5 -71q-10 -21 -31 -21q-28 -1 -60.5 25.5t-58.5 61.5q-48 -45 -120 -71q-44 -12 -54 -3zM600 712q17 0 25 -8q-14 -95 -27.5 -168t-32 -151t-39.5 -135t-49.5 -109t-62 -85
t-76.5 -52t-94 -19q-85 0 -130 54.5t-45 158.5q0 95 39 245.5t86 236.5q11 5 24 5q38 0 38 -51q0 -12 -3.5 -28t-7.5 -29t-14 -43l-16 -49q-19 -52 -36 -131t-17 -139q0 -71 25 -110t73 -39q41 0 75.5 20t60.5 60.5t45.5 85.5t36.5 113t28 123t24 135q12 73 19 86
q13 22 51 23z" />
    <glyph glyph-name="Udieresis" unicode="&#xdc;" horiz-adv-x="620" 
d="M488 760q-15 0 -25.5 12.5t-10.5 31.5q0 43 21.5 62t51.5 19q20 0 30 -14t10 -32q0 -27 -21 -53t-56 -26zM304 750q-42 0 -42 53q0 44 20.5 59t51.5 15q41 0 41 -45q0 -27 -21 -54.5t-50 -27.5zM244 -15q-85 0 -130 54.5t-45 158.5q0 95 39 245.5t86 236.5q11 5 24 5
q38 0 38 -51q0 -12 -3.5 -28t-7.5 -29t-14 -43l-16 -49q-19 -52 -36 -131t-17 -139q0 -71 25 -110t73 -39q41 0 75.5 20t60.5 60.5t45.5 85.5t36.5 113t28 123t24 135q12 73 19 86q13 22 51 23q17 0 25 -8q-14 -95 -27.5 -168t-32 -151t-39.5 -135t-49.5 -109t-62 -85
t-76.5 -52t-94 -19z" />
    <glyph glyph-name="Yacute" unicode="&#xdd;" horiz-adv-x="585" 
d="M351 800q-19 5 -15 23q62 18 101 45.5t81 74.5q26 -5 42.5 -21.5t9.5 -35.5q-12 -41 -90 -69t-129 -17zM563 716q19 -2 30 -14t7 -29l-62 -277q-12 -55 -21.5 -91t-25 -84t-31.5 -79t-41 -65t-53.5 -53t-67.5 -31.5t-86 -12.5q-62 0 -114 27t-52 61q0 45 45 45
q14 0 29 -10t27.5 -22.5t37.5 -23t56 -10.5q34 0 64 17.5t53.5 53t42.5 74.5t35.5 94t27.5 98.5t23 100.5q-65 -135 -125.5 -184.5t-121.5 -49.5t-97 50.5t-36 139.5q0 122 55 234q30 61 75 61q26 0 37 -17q-39 -56 -58 -129t-19 -136q0 -136 63 -136q46 0 98.5 60.5
t87.5 129t58 132.5l17 48q10 30 42 28z" />
    <glyph glyph-name="Thorn" unicode="&#xde;" horiz-adv-x="529" 
d="M267 581q39 0 75 -6t70 -20.5t59 -36t40.5 -56t15.5 -77.5q0 -106 -92 -175.5t-214 -69.5q-45 0 -82 10l-31 -163q0 -1 -1 -4t-1 -4.5t-1 -4t-1.5 -4t-2 -3.5t-2.5 -3.5t-3 -3t-4.5 -2t-5.5 -1t-7 -0.5q-17 0 -32 10.5t-15 28.5q0 51 53.5 295t91.5 396q18 19 47 24.5
t48 -6.5q-22 -65 -38 -125q12 1 33 1zM221 203q86 0 153.5 44t67.5 119q0 72 -51.5 111t-131.5 38q-11 0 -43 -2q-31 -127 -65 -300q31 -10 70 -10z" />
    <glyph glyph-name="germandbls" unicode="&#xdf;" horiz-adv-x="523" 
d="M55 -148q-29 -15 -45.5 -9t-23.5 19.5t-7 33.5q0 53 31 208q77 351 145 498q69 136 185 136q58 0 94.5 -27.5t36.5 -87.5q0 -41 -22 -84t-49 -70.5t-49 -54t-22 -39.5q0 -23 23 -43t51 -35t51 -46.5t23 -74.5q0 -71 -50 -120t-136 -49q-58 0 -99 27.5t-41 54.5
q0 15 10.5 24.5t20.5 9.5q14 0 47 -24t68 -24q47 0 76.5 27t29.5 66q0 32 -23.5 55.5t-51 36t-51 36t-23.5 55.5q0 31 21.5 63t47 55.5t47 59.5t21.5 75q0 30 -18.5 48t-46.5 17q-72 -1 -116 -108q-1 -3 -2 -4q-51 -116 -117 -438q-22 -122 -36 -267z" />
    <glyph glyph-name="agrave" unicode="&#xe0;" horiz-adv-x="552" 
d="M376 585q-47 0 -111.5 43.5t-64.5 86.5q0 20 18.5 33t44.5 11q44 -104 153 -150q0 -9 -11 -16.5t-29 -7.5zM492 432q-34 -76 -58.5 -162t-24.5 -135q-2 -44 21 -44q9 0 23 7t19 7q12 0 12 -22q0 -29 -29 -53t-67 -24q-81 0 -54 153q-41 -71 -100.5 -114t-128.5 -43
q-48 0 -77 30.5t-29 77.5q0 92 52.5 184t129.5 149t147 57q59 0 53 -54q-33 5 -60 -1q-89 -18 -158 -113.5t-69 -182.5q0 -78 48 -78q38 0 76 29t69.5 77t54.5 93.5t42 93.5q11 28 16.5 40.5t17 36.5t22 35t21.5 11q20 0 30 -17t1 -38z" />
    <glyph glyph-name="aacute" unicode="&#xe1;" horiz-adv-x="552" 
d="M298 585q-20 0 -20 19q57 31 89 65.5t64 89.5q26 2 45.5 -11t17.5 -33q-4 -43 -74 -86.5t-122 -43.5zM492 432q-34 -76 -58.5 -162t-24.5 -135q-2 -44 21 -44q9 0 23 7t19 7q12 0 12 -22q0 -29 -29 -53t-67 -24q-81 0 -54 153q-41 -71 -100.5 -114t-128.5 -43
q-48 0 -77 30.5t-29 77.5q0 92 52.5 184t129.5 149t147 57q59 0 53 -54q-33 5 -60 -1q-89 -18 -158 -113.5t-69 -182.5q0 -78 48 -78q38 0 76 29t69.5 77t54.5 93.5t42 93.5q11 28 16.5 40.5t17 36.5t22 35t21.5 11q20 0 30 -17t1 -38z" />
    <glyph glyph-name="acircumflex" unicode="&#xe2;" horiz-adv-x="552" 
d="M408 744q71 -106 120 -154q-10 -21 -31 -21q-50 -2 -116 97q-60 -60 -117 -81q-46 -12 -54 -3q-10 8 -8 15t18 17q43 23 87.5 60.5t70.5 69.5q6 8 16 8t14 -8zM461 487q20 0 30 -17t1 -38q-34 -76 -58.5 -162t-24.5 -135q-2 -44 21 -44q9 0 23 7t19 7q12 0 12 -22
q0 -29 -29 -53t-67 -24q-81 0 -54 153q-41 -71 -100.5 -114t-128.5 -43q-48 0 -77 30.5t-29 77.5q0 92 52.5 184t129.5 149t147 57q59 0 53 -54q-33 5 -60 -1q-89 -18 -158 -113.5t-69 -182.5q0 -78 48 -78q38 0 76 29t69.5 77t54.5 93.5t42 93.5q11 28 16.5 40.5t17 36.5
t22 35t21.5 11z" />
    <glyph glyph-name="atilde" unicode="&#xe3;" horiz-adv-x="552" 
d="M224 589q-33 8 -33 42q0 37 27 60.5t64 23.5q35 0 77 -31t57 -31q52 0 54 64q31 -9 31 -44q0 -24 -10.5 -41.5t-26.5 -25.5t-28.5 -11t-22.5 -3q-33 0 -71 29t-60 29q-40 0 -58 -61zM461 487q20 0 30 -17t1 -38q-34 -76 -58.5 -162t-24.5 -135q-2 -44 21 -44q9 0 23 7
t19 7q12 0 12 -22q0 -29 -29 -53t-67 -24q-81 0 -54 153q-41 -71 -100.5 -114t-128.5 -43q-48 0 -77 30.5t-29 77.5q0 92 52.5 184t129.5 149t147 57q59 0 53 -54q-33 5 -60 -1q-89 -18 -158 -113.5t-69 -182.5q0 -78 48 -78q38 0 76 29t69.5 77t54.5 93.5t42 93.5
q11 28 16.5 40.5t17 36.5t22 35t21.5 11z" />
    <glyph glyph-name="adieresis" unicode="&#xe4;" horiz-adv-x="552" 
d="M486 720q20 0 30 -14t10 -32q0 -27 -21 -53t-56 -26q-15 0 -25.5 12.5t-10.5 31.5q0 43 21.5 62t51.5 19zM265 585q-42 0 -42 53q0 44 20.5 59t51.5 15q41 0 41 -45q0 -27 -21 -54.5t-50 -27.5zM461 487q20 0 30 -17t1 -38q-34 -76 -58.5 -162t-24.5 -135q-2 -44 21 -44
q9 0 23 7t19 7q12 0 12 -22q0 -29 -29 -53t-67 -24q-81 0 -54 153q-41 -71 -100.5 -114t-128.5 -43q-48 0 -77 30.5t-29 77.5q0 92 52.5 184t129.5 149t147 57q59 0 53 -54q-33 5 -60 -1q-89 -18 -158 -113.5t-69 -182.5q0 -78 48 -78q38 0 76 29t69.5 77t54.5 93.5t42 93.5
q11 28 16.5 40.5t17 36.5t22 35t21.5 11z" />
    <glyph glyph-name="aring" unicode="&#xe5;" horiz-adv-x="552" 
d="M314 571q-29 0 -48.5 18t-19.5 53q0 57 48.5 103t117.5 46q33 0 54 -18.5t21 -50.5q0 -58 -54 -104.5t-119 -46.5zM396 743q-40 0 -67 -26.5t-27 -59.5q0 -16 10 -26.5t26 -10.5q37 0 65.5 28.5t28.5 57.5q0 19 -11 28t-25 9zM492 432q-34 -76 -58.5 -162t-24.5 -135
q-2 -44 21 -44q9 0 23 7t19 7q12 0 12 -22q0 -29 -29 -53t-67 -24q-81 0 -54 153q-41 -71 -100.5 -114t-128.5 -43q-48 0 -77 30.5t-29 77.5q0 92 52.5 184t129.5 149t147 57q59 0 53 -54q-33 5 -60 -1q-89 -18 -158 -113.5t-69 -182.5q0 -78 48 -78q38 0 76 29t69.5 77
t54.5 93.5t42 93.5q11 28 16.5 40.5t17 36.5t22 35t21.5 11q20 0 30 -17t1 -38z" />
    <glyph glyph-name="ae" unicode="&#xe6;" horiz-adv-x="811" 
d="M731 177q21 -4 16 -30q-10 -53 -82.5 -100t-170.5 -47q-25 0 -49.5 7.5t-49.5 25t-40.5 52t-15.5 81.5v2q-41 -73 -104.5 -119.5t-129.5 -46.5q-48 0 -77 30.5t-29 77.5q0 92 52.5 184t129.5 149t147 57q59 0 53 -54q-33 5 -60 -1q-89 -18 -158 -113.5t-69 -182.5
q0 -78 48 -78q45 0 97 53.5t87 114t63 125.5l14.5 36l16.5 40.5t16 34.5t17.5 27.5t17.5 9.5q18 0 26.5 -15t1.5 -42q77 50 159 50q52 0 82.5 -27t30.5 -69q0 -95 -107.5 -159t-238.5 -55v-18q0 -49 32.5 -78.5t75.5 -29.5q57 0 104 25.5t94 82.5zM638 446
q-70 0 -129.5 -57.5t-77.5 -147.5q102 -4 178 48.5t76 108.5q0 48 -47 48z" />
    <glyph glyph-name="ccedilla" unicode="&#xe7;" horiz-adv-x="438" 
d="M303 418q-81 0 -153.5 -69.5t-72.5 -176.5q0 -53 24.5 -81t68.5 -28q51 0 106 30.5t89 90.5q21 -1 21 -29q0 -62 -58.5 -105t-139.5 -52l-22 -51q6 1 17 1q38 0 60 -20.5t22 -54.5q0 -56 -44 -86.5t-110 -30.5q-51 0 -51 18q0 19 15 30q25 -1 54 -0.5t52.5 15t23.5 40.5
q0 29 -43 29q-25 0 -52 -7q-12 -3 -15.5 8.5t0.5 20.5l36 87q-134 12 -134 156q0 97 56 179t131.5 124t144.5 42q92 0 92 -64q0 -38 -39 -54q-23 38 -79 38z" />
    <glyph glyph-name="egrave" unicode="&#xe8;" horiz-adv-x="484" 
d="M321 585q-47 0 -111.5 43.5t-64.5 86.5q0 20 18.5 33t44.5 11q44 -104 153 -150q0 -9 -11 -16.5t-29 -7.5zM404 177q21 -4 16 -30q-10 -53 -82.5 -100t-170.5 -47q-26 0 -52.5 7.5t-53 25t-43 52t-16.5 81.5q0 93 49 172.5t124.5 123t155.5 43.5q52 0 82.5 -27t30.5 -69
q0 -95 -107.5 -159t-238.5 -55v-18q0 -49 32.5 -78.5t75.5 -29.5q57 0 104 25.5t94 82.5zM311 446q-70 0 -129.5 -57.5t-77.5 -147.5q102 -4 178 48.5t76 108.5q0 48 -47 48z" />
    <glyph glyph-name="eacute" unicode="&#xe9;" horiz-adv-x="484" 
d="M243 585q-20 0 -20 19q57 31 89 65.5t64 89.5q26 2 45.5 -11t17.5 -33q-4 -43 -74 -86.5t-122 -43.5zM404 177q21 -4 16 -30q-10 -53 -82.5 -100t-170.5 -47q-26 0 -52.5 7.5t-53 25t-43 52t-16.5 81.5q0 93 49 172.5t124.5 123t155.5 43.5q52 0 82.5 -27t30.5 -69
q0 -95 -107.5 -159t-238.5 -55v-18q0 -49 32.5 -78.5t75.5 -29.5q57 0 104 25.5t94 82.5zM311 446q-70 0 -129.5 -57.5t-77.5 -147.5q102 -4 178 48.5t76 108.5q0 48 -47 48z" />
    <glyph glyph-name="ecircumflex" unicode="&#xea;" horiz-adv-x="484" 
d="M353 744q71 -106 120 -154q-11 -21 -31 -21q-50 -2 -116 97q-60 -60 -117 -81q-46 -12 -54 -3q-10 8 -8 15t18 17q43 23 87.5 60.5t70.5 69.5q6 8 16 8t14 -8zM444 409q0 -95 -107.5 -159t-238.5 -55v-18q0 -49 32.5 -78.5t75.5 -29.5q57 0 104 25.5t94 82.5
q21 -4 16 -30q-10 -53 -82.5 -100t-170.5 -47q-26 0 -52.5 7.5t-53 25t-43 52t-16.5 81.5q0 93 49 172.5t124.5 123t155.5 43.5q52 0 82.5 -27t30.5 -69zM311 446q-70 0 -129.5 -57.5t-77.5 -147.5q102 -4 178 48.5t76 108.5q0 48 -47 48z" />
    <glyph glyph-name="edieresis" unicode="&#xeb;" horiz-adv-x="484" 
d="M431 720q20 0 30 -14t10 -32q0 -27 -21 -53t-56 -26q-15 0 -25.5 12.5t-10.5 31.5q0 43 21.5 62t51.5 19zM210 585q-42 0 -42 53q0 44 20.5 59t51.5 15q41 0 41 -45q0 -27 -21 -54.5t-50 -27.5zM444 409q0 -95 -107.5 -159t-238.5 -55v-18q0 -49 32.5 -78.5t75.5 -29.5
q57 0 104 25.5t94 82.5q21 -4 16 -30q-10 -53 -82.5 -100t-170.5 -47q-26 0 -52.5 7.5t-53 25t-43 52t-16.5 81.5q0 93 49 172.5t124.5 123t155.5 43.5q52 0 82.5 -27t30.5 -69zM311 446q-70 0 -129.5 -57.5t-77.5 -147.5q102 -4 178 48.5t76 108.5q0 48 -47 48z" />
    <glyph glyph-name="igrave" unicode="&#xec;" horiz-adv-x="238" 
d="M207 585q-47 0 -111.5 43.5t-64.5 86.5q0 20 18.5 33t44.5 11q44 -104 153 -150q0 -9 -11 -16.5t-29 -7.5zM61 15q-36 0 -36 44q0 34 38 196.5t52 197.5q15 41 51 39q33 -1 24 -54q-4 -26 -28 -110t-29 -132q-3 -24 -8 -78.5t-5 -56.5q-5 -46 -59 -46z" />
    <glyph glyph-name="iacute" unicode="&#xed;" horiz-adv-x="238" 
d="M129 585q-20 0 -20 19q57 31 89 65.5t64 89.5q26 2 45.5 -11t17.5 -33q-4 -43 -74 -86.5t-122 -43.5zM61 15q-36 0 -36 44q0 34 38 196.5t52 197.5q15 41 51 39q33 -1 24 -54q-4 -26 -28 -110t-29 -132q-3 -24 -8 -78.5t-5 -56.5q-5 -46 -59 -46z" />
    <glyph glyph-name="icircumflex" unicode="&#xee;" horiz-adv-x="238" 
d="M239 744q71 -106 120 -154q-11 -21 -31 -21q-50 -2 -116 97q-60 -60 -117 -81q-46 -12 -54 -3q-10 8 -8 15t18 17q43 23 87.5 60.5t70.5 69.5q6 8 16 8t14 -8zM166 492q33 -1 24 -54q-4 -26 -28 -110t-29 -132q-3 -24 -8 -78.5t-5 -56.5q-5 -46 -59 -46q-36 0 -36 44
q0 34 38 196.5t52 197.5q15 41 51 39z" />
    <glyph glyph-name="idieresis" unicode="&#xef;" horiz-adv-x="238" 
d="M280 595q-15 0 -25.5 12.5t-10.5 31.5q0 43 21.5 62t51.5 19q20 0 30 -14t10 -32q0 -27 -21 -53t-56 -26zM96 585q-42 0 -42 53q0 44 20.5 59t51.5 15q41 0 41 -45q0 -27 -21 -54.5t-50 -27.5zM61 15q-36 0 -36 44q0 34 38 196.5t52 197.5q15 41 51 39q33 -1 24 -54
q-4 -26 -28 -110t-29 -132q-3 -24 -8 -78.5t-5 -56.5q-5 -46 -59 -46z" />
    <glyph glyph-name="eth" unicode="&#xf0;" horiz-adv-x="507" 
d="M382 691q86 27 121.5 24t34.5 -37q-55 -5 -124 -28q58 -93 47 -263q-12 -168 -96.5 -273.5t-226.5 -105.5q-64 0 -100.5 40.5t-36.5 109.5q0 125 85 223t202 98q74 0 105 -54q9 138 -38 202l-11 -5q-26 -11 -78 -39.5t-65 -33.5q-9 -1 -15.5 2t-8.5 6l-8 12q-4 6 9 18.5
t37.5 27t49 27l49.5 24.5q-42 25 -105 25q-40 0 -76 -9q-13 -3 -16.5 10t1.5 21q17 37 98 37q104 0 166 -59zM156 72q84 0 153.5 84t71.5 167q0 92 -85 92q-62 0 -113.5 -45.5t-76 -102.5t-24.5 -105q0 -43 20 -66.5t54 -23.5z" />
    <glyph glyph-name="ntilde" unicode="&#xf1;" horiz-adv-x="561" 
d="M192 589q-33 8 -33 42q0 37 27 60.5t64 23.5q35 0 77 -31t57 -31q52 0 54 64q31 -9 31 -44q0 -24 -10.5 -41.5t-26.5 -25.5t-28.5 -11t-22.5 -3q-33 0 -71 29t-60 29q-40 0 -58 -61zM476 79q16 0 14 -22q-3 -25 -25 -45.5t-45 -20.5q-50 -1 -65 56t0 160q4 35 10 69
t10.5 53.5t7.5 35t2.5 22t-5.5 6.5q-21 1 -72 -47.5t-98 -113.5q-49 -69 -73.5 -117.5t-52.5 -119.5q-43 -4 -51.5 50t8.5 171q5 36 16.5 79.5t29.5 92t45.5 80.5t57.5 32q18 0 22 -9q-65 -151 -89 -295q66 106 170 211.5t156 105.5q33 0 33 -53q0 -15 -7 -50l-17.5 -88.5
t-16.5 -97.5q-22 -147 11 -147q2 0 10 1t14 1z" />
    <glyph glyph-name="ograve" unicode="&#xf2;" horiz-adv-x="487" 
d="M336 585q-47 0 -111.5 43.5t-64.5 86.5q0 20 18.5 33t44.5 11q44 -104 153 -150q0 -9 -11 -16.5t-29 -7.5zM143 8q-64 0 -100.5 40.5t-36.5 109.5q0 86 39.5 167.5t109 133t148.5 51.5q70 0 110.5 -43.5t40.5 -119.5q0 -80 -42 -158.5t-115 -129.5t-154 -51zM161 72
q85 0 155 89t70 175q0 43 -21.5 71t-63.5 28q-62 0 -111.5 -49t-72.5 -110t-23 -114q0 -90 67 -90z" />
    <glyph glyph-name="oacute" unicode="&#xf3;" horiz-adv-x="487" 
d="M258 585q-20 0 -20 19q57 31 89 65.5t64 89.5q26 2 45.5 -11t17.5 -33q-4 -43 -74 -86.5t-122 -43.5zM143 8q-64 0 -100.5 40.5t-36.5 109.5q0 86 39.5 167.5t109 133t148.5 51.5q70 0 110.5 -43.5t40.5 -119.5q0 -80 -42 -158.5t-115 -129.5t-154 -51zM161 72
q85 0 155 89t70 175q0 43 -21.5 71t-63.5 28q-62 0 -111.5 -49t-72.5 -110t-23 -114q0 -90 67 -90z" />
    <glyph glyph-name="ocircumflex" unicode="&#xf4;" horiz-adv-x="487" 
d="M368 744q71 -106 120 -154q-10 -21 -31 -21q-50 -2 -116 97q-60 -60 -117 -81q-46 -12 -54 -3q-10 8 -8 15t18 17q43 23 87.5 60.5t70.5 69.5q6 8 16 8t14 -8zM303 510q70 0 110.5 -43.5t40.5 -119.5q0 -80 -42 -158.5t-115 -129.5t-154 -51q-64 0 -100.5 40.5
t-36.5 109.5q0 86 39.5 167.5t109 133t148.5 51.5zM161 72q85 0 155 89t70 175q0 43 -21.5 71t-63.5 28q-62 0 -111.5 -49t-72.5 -110t-23 -114q0 -90 67 -90z" />
    <glyph glyph-name="otilde" unicode="&#xf5;" horiz-adv-x="487" 
d="M184 589q-33 8 -33 42q0 37 27 60.5t64 23.5q35 0 77 -31t57 -31q52 0 54 64q31 -9 31 -44q0 -24 -10.5 -41.5t-26.5 -25.5t-28.5 -11t-22.5 -3q-33 0 -71 29t-60 29q-40 0 -58 -61zM143 8q-64 0 -100.5 40.5t-36.5 109.5q0 86 39.5 167.5t109 133t148.5 51.5
q70 0 110.5 -43.5t40.5 -119.5q0 -80 -42 -158.5t-115 -129.5t-154 -51zM161 72q85 0 155 89t70 175q0 43 -21.5 71t-63.5 28q-62 0 -111.5 -49t-72.5 -110t-23 -114q0 -90 67 -90z" />
    <glyph glyph-name="odieresis" unicode="&#xf6;" horiz-adv-x="487" 
d="M409 595q-15 0 -25.5 12.5t-10.5 31.5q0 43 21.5 62t51.5 19q20 0 30 -14t10 -32q0 -27 -21 -53t-56 -26zM225 585q-42 0 -42 53q0 44 20.5 59t51.5 15q41 0 41 -45q0 -27 -21 -54.5t-50 -27.5zM143 8q-64 0 -100.5 40.5t-36.5 109.5q0 86 39.5 167.5t109 133t148.5 51.5
q70 0 110.5 -43.5t40.5 -119.5q0 -80 -42 -158.5t-115 -129.5t-154 -51zM161 72q85 0 155 89t70 175q0 43 -21.5 71t-63.5 28q-62 0 -111.5 -49t-72.5 -110t-23 -114q0 -90 67 -90z" />
    <glyph glyph-name="divide" unicode="&#xf7;" 
d="M337 467q-28 0 -44.5 15t-16.5 38q0 27 15.5 45t46.5 18q24 0 38.5 -14.5t14.5 -38.5q0 -13 -3.5 -25.5t-16.5 -25t-34 -12.5zM136 294q-44 -9 -44 28q0 11 2.5 18.5t5.5 11.5t9.5 7t9 3.5t11.5 1.5l8 1q34 4 77 4t83.5 -1.5t53.5 -1.5q59 -7 126 0q25 1 37.5 -3.5
t15 -10t2.5 -16.5q0 -46 -67 -34q-43 7 -93 7q-151 0 -237 -15zM275 88q-28 0 -44.5 15t-16.5 38q0 27 15.5 45t46.5 18q24 0 38.5 -14.5t14.5 -38.5q0 -13 -3.5 -25.5t-16.5 -25t-34 -12.5z" />
    <glyph glyph-name="oslash" unicode="&#xf8;" horiz-adv-x="474" 
d="M527 534q-39 -34 -93 -88q25 -41 25 -99q0 -80 -42 -158.5t-115 -129.5t-154 -51q-38 0 -66 15l-62 -85q-11 -15 -30 -8q-18 6 -9 23q16 32 64 98q-34 40 -34 107q0 86 39.5 167.5t109 133t148.5 51.5q53 0 90 -26q51 56 85 81q13 3 27.5 -7t16.5 -24zM89 162
q0 -24 6 -44q124 165 256 315q-18 12 -45 12q-50 0 -92.5 -28.5t-68.5 -71.5t-41 -91.5t-15 -91.5zM394 336q0 33 -10 57q-115 -125 -261 -315q19 -11 43 -11q86 0 157 90.5t71 178.5z" />
    <glyph glyph-name="ugrave" unicode="&#xf9;" horiz-adv-x="548" 
d="M348 585q-47 0 -111.5 43.5t-64.5 86.5q0 20 18.5 33t44.5 11q44 -104 153 -150q0 -9 -11 -16.5t-29 -7.5zM497 458q-2 -10 -16.5 -51t-27 -99t-15.5 -131q-1 -78 32 -130q-7 -13 -21 -23t-28 -10q-50 0 -65 62.5t11 190.5q-125 -256 -254 -256q-81 0 -81 116
q0 83 38.5 201.5t73.5 178.5q55 -3 55 -46q0 -14 -19.5 -64t-39.5 -115.5t-20 -117.5q0 -71 32 -71q20 0 41.5 15.5t44 45t42 59t41 72.5l35 69.5t31 65t20.5 45.5q22 44 49 43q14 0 28.5 -20t12.5 -30z" />
    <glyph glyph-name="uacute" unicode="&#xfa;" horiz-adv-x="548" 
d="M270 585q-20 0 -20 19q57 31 89 65.5t64 89.5q26 2 45.5 -11t17.5 -33q-4 -43 -74 -86.5t-122 -43.5zM497 458q-2 -10 -16.5 -51t-27 -99t-15.5 -131q-1 -78 32 -130q-7 -13 -21 -23t-28 -10q-50 0 -65 62.5t11 190.5q-125 -256 -254 -256q-81 0 -81 116q0 83 38.5 201.5
t73.5 178.5q55 -3 55 -46q0 -14 -19.5 -64t-39.5 -115.5t-20 -117.5q0 -71 32 -71q20 0 41.5 15.5t44 45t42 59t41 72.5l35 69.5t31 65t20.5 45.5q22 44 49 43q14 0 28.5 -20t12.5 -30z" />
    <glyph glyph-name="ucircumflex" unicode="&#xfb;" horiz-adv-x="548" 
d="M182 582q-10 8 -8 15t18 17q43 23 87.5 60.5t70.5 69.5q6 8 16 8t14 -8q71 -106 120 -154q-10 -21 -31 -21q-50 -2 -116 97q-60 -60 -117 -81q-46 -12 -54 -3zM456 508q14 0 28.5 -20t12.5 -30t-16.5 -51t-27 -99t-15.5 -131q-1 -78 32 -130q-7 -13 -21 -23t-28 -10
q-50 0 -65 62.5t11 190.5q-125 -256 -254 -256q-81 0 -81 116q0 83 38.5 201.5t73.5 178.5q55 -3 55 -46q0 -14 -19.5 -64t-39.5 -115.5t-20 -117.5q0 -71 32 -71q20 0 41.5 15.5t44 45t42 59t41 72.5l35 69.5t31 65t20.5 45.5q22 44 49 43z" />
    <glyph glyph-name="udieresis" unicode="&#xfc;" horiz-adv-x="548" 
d="M421 595q-15 0 -25.5 12.5t-10.5 31.5q0 43 21.5 62t51.5 19q20 0 30 -14t10 -32q0 -27 -21 -53t-56 -26zM237 585q-42 0 -42 53q0 44 20.5 59t51.5 15q41 0 41 -45q0 -27 -21 -54.5t-50 -27.5zM456 508q14 0 28.5 -20t12.5 -30t-16.5 -51t-27 -99t-15.5 -131
q-1 -78 32 -130q-7 -13 -21 -23t-28 -10q-50 0 -65 62.5t11 190.5q-125 -256 -254 -256q-81 0 -81 116q0 83 38.5 201.5t73.5 178.5q55 -3 55 -46q0 -14 -19.5 -64t-39.5 -115.5t-20 -117.5q0 -71 32 -71q20 0 41.5 15.5t44 45t42 59t41 72.5l35 69.5t31 65t20.5 45.5
q22 44 49 43z" />
    <glyph glyph-name="yacute" unicode="&#xfd;" horiz-adv-x="568" 
d="M285 585q-20 0 -20 19q57 31 89 65.5t64 89.5q26 2 45.5 -11t17.5 -33q-4 -43 -74 -86.5t-122 -43.5zM467 497q16 0 27 -24t11 -47q0 -81 -48 -290q-19 -84 -40 -141t-57 -112.5t-91.5 -83.5t-130.5 -28q-65 0 -128.5 25.5t-63.5 62.5q0 14 9 24t23 10q18 0 75.5 -26
t95.5 -26q46 0 82.5 21t61 53.5t45 85t33 101t25.5 116.5q-51 -91 -127.5 -156t-135.5 -65q-43 0 -64.5 41t-21.5 109q0 111 43.5 236.5t94.5 125.5q20 0 28.5 -8.5t7.5 -23.5q-1 -13 -12 -38q-34 -77 -58 -165.5t-24 -153.5q0 -50 24 -50q71 0 159.5 124t132.5 280
q6 23 24 23z" />
    <glyph glyph-name="thorn" unicode="&#xfe;" horiz-adv-x="498" 
d="M352 490q115 0 115 -146q0 -143 -90 -242.5t-184 -99.5q-64 0 -98 40l-4 -25q-11 -64 -20.5 -125t-13.5 -83.5t-6 -31.5q-5 -17 -48 -17q-25 0 -25 31q0 22 10 82q19 114 67.5 364.5t64.5 322.5q33 152 68 175q16 10 29 10q23 0 25 -22q2 -35 -36 -172l-38 -143
q34 36 84.5 59t99.5 23zM204 61q56 0 117 80t61 189q0 95 -60 95q-44 0 -99 -35t-81 -82l-1 -2v1l-29 -171q12 -34 36 -54.5t56 -20.5z" />
    <glyph glyph-name="ydieresis" unicode="&#xff;" horiz-adv-x="568" 
d="M436 595q-15 0 -25.5 12.5t-10.5 31.5q0 43 21.5 62t51.5 19q20 0 30 -14t10 -32q0 -27 -21 -53t-56 -26zM252 585q-42 0 -42 53q0 44 20.5 59t51.5 15q41 0 41 -45q0 -27 -21 -54.5t-50 -27.5zM467 497q16 0 27 -24t11 -47q0 -81 -48 -290q-19 -84 -40 -141t-57 -112.5
t-91.5 -83.5t-130.5 -28q-65 0 -128.5 25.5t-63.5 62.5q0 14 9 24t23 10q18 0 75.5 -26t95.5 -26q46 0 82.5 21t61 53.5t45 85t33 101t25.5 116.5q-51 -91 -127.5 -156t-135.5 -65q-43 0 -64.5 41t-21.5 109q0 111 43.5 236.5t94.5 125.5q20 0 28.5 -8.5t7.5 -23.5
q-1 -13 -12 -38q-34 -77 -58 -165.5t-24 -153.5q0 -50 24 -50q71 0 159.5 124t132.5 280q6 23 24 23z" />
    <glyph glyph-name="Amacron" unicode="&#x100;" horiz-adv-x="592" 
d="M597 835q11 -13 -3 -50q-143 8 -269 -15q-12 17 -9 43q1 25 59 35t130 5q79 -5 92 -18zM503 306q26 -3 34 -12.5t8 -23.5q0 -15 -38 -15q-36 0 -54 -1q1 -88 19 -205q-9 -19 -31 -34t-39 -15q-20 0 -25 45q-11 96 -10 202q-126 -15 -236 -65q-51 -106 -89 -212
q-19 0 -31 3.5t-16.5 12t-5.5 14.5t-1 17q0 47 99 222t212.5 331.5t148.5 156.5q17 0 27 -9q-22 -165 -22 -409q26 0 50 -3zM384 590q-108 -129 -213 -328q94 32 198 43q7 189 15 285z" />
    <glyph glyph-name="amacron" unicode="&#x101;" horiz-adv-x="552" 
d="M508 675q11 -13 -3 -50q-143 8 -269 -15q-12 17 -9 43q1 25 59 35t130 5q79 -5 92 -18zM461 487q20 0 30 -17t1 -38q-34 -76 -58.5 -162t-24.5 -135q-2 -44 21 -44q9 0 23 7t19 7q12 0 12 -22q0 -29 -29 -53t-67 -24q-81 0 -54 153q-41 -71 -100.5 -114t-128.5 -43
q-48 0 -77 30.5t-29 77.5q0 92 52.5 184t129.5 149t147 57q59 0 53 -54q-33 5 -60 -1q-89 -18 -158 -113.5t-69 -182.5q0 -78 48 -78q38 0 76 29t69.5 77t54.5 93.5t42 93.5q11 28 16.5 40.5t17 36.5t22 35t21.5 11z" />
    <glyph glyph-name="Abreve" unicode="&#x102;" horiz-adv-x="592" 
d="M574 899q15 -1 13 -20q-3 -52 -39.5 -87t-100.5 -34q-51 1 -83 33.5t-28 84.5q2 12 7 18.5t15 5.5q3 0 6 -1t5.5 -3t4 -3.5t4 -5.5t4 -6t4.5 -8t5 -9q23 -42 68 -44q53 -3 82 45q1 2 4.5 7.5l5 8t4.5 7t5.5 6.5t6 3.5t7.5 1.5zM503 306q26 -3 34 -12.5t8 -23.5
q0 -15 -38 -15q-36 0 -54 -1q1 -88 19 -205q-9 -19 -31 -34t-39 -15q-20 0 -25 45q-11 96 -10 202q-126 -15 -236 -65q-51 -106 -89 -212q-19 0 -31 3.5t-16.5 12t-5.5 14.5t-1 17q0 47 99 222t212.5 331.5t148.5 156.5q17 0 27 -9q-22 -165 -22 -409q26 0 50 -3zM384 590
q-108 -129 -213 -328q94 32 198 43q7 189 15 285z" />
    <glyph glyph-name="abreve" unicode="&#x103;" horiz-adv-x="552" 
d="M340 587q-42 3 -73 35.5t-27 82.5q2 18 7 26.5t15 7.5q11 -1 17 -9t16 -29q23 -49 68 -52q50 -4 82 51l3.5 7t4 7.5l4 7t4.5 7t5 5t6 3.5t6 1q15 -1 13 -20q-3 -48 -47.5 -91.5t-103.5 -39.5zM492 432q-34 -76 -58.5 -162t-24.5 -135q-2 -44 21 -44q9 0 23 7t19 7
q12 0 12 -22q0 -29 -29 -53t-67 -24q-81 0 -54 153q-41 -71 -100.5 -114t-128.5 -43q-48 0 -77 30.5t-29 77.5q0 92 52.5 184t129.5 149t147 57q59 0 53 -54q-33 5 -60 -1q-89 -18 -158 -113.5t-69 -182.5q0 -78 48 -78q38 0 76 29t69.5 77t54.5 93.5t42 93.5
q11 28 16.5 40.5t17 36.5t22 35t21.5 11q20 0 30 -17t1 -38z" />
    <glyph glyph-name="Aogonek" unicode="&#x104;" horiz-adv-x="592" 
d="M503 306q26 -3 34 -12.5t8 -23.5q0 -15 -38 -15q-36 0 -54 -1q1 -110 17 -212q-136 -109 -136 -174q0 -31 31 -31q26 0 61 20q14 9 25.5 -6t-0.5 -27q-52 -49 -122 -49q-37 0 -59.5 16t-21.5 54q1 43 42.5 96t90.5 86q-1 3 -2 9t-2 9q-14 71 -10 202q-130 -17 -236 -65
q-51 -106 -89 -212q-19 0 -31 3.5t-16.5 12t-5.5 14.5t-1 17q0 47 99 222t212.5 331.5t148.5 156.5q17 0 27 -9q-22 -165 -22 -409q26 0 50 -3zM384 590q-108 -129 -213 -328q94 32 198 43q7 189 15 285z" />
    <glyph glyph-name="aogonek" unicode="&#x105;" horiz-adv-x="552" 
d="M492 432q-34 -76 -58.5 -162t-24.5 -135q-2 -44 21 -44q9 0 23 7t19 7q13 0 13 -21q0 -28 -36 -57q-129 -98 -129 -159q0 -31 31 -31q26 0 61 20q14 9 25.5 -6t-0.5 -27q-52 -49 -122 -49q-37 0 -59.5 16t-21.5 54t37.5 86t84.5 84q-44 29 -22 144q-41 -71 -100.5 -114
t-128.5 -43q-48 0 -77 30.5t-29 77.5q0 92 52.5 184t129.5 149t147 57q59 0 53 -54q-33 5 -60 -1q-89 -18 -158 -113.5t-69 -182.5q0 -78 48 -78q38 0 76 29t69.5 77t54.5 93.5t42 93.5q11 28 16.5 40.5t17 36.5t22 35t21.5 11q20 0 30 -17t1 -38z" />
    <glyph glyph-name="Cacute" unicode="&#x106;" horiz-adv-x="572" 
d="M540 903q26 -5 42.5 -21.5t9.5 -35.5q-12 -41 -90 -69t-129 -17q-19 5 -15 23q62 18 101 45.5t81 74.5zM452 418q-15 0 -24.5 13.5t-9.5 31.5q0 11 3.5 23.5t13 29l16.5 28.5t22.5 36l23.5 37q-19 6 -37 6q-83 0 -160.5 -62t-122.5 -151.5t-45 -171.5q0 -85 39.5 -121
t102.5 -36q55 0 107 19t84 38t39 19q18 0 18 -19q0 -45 -97 -91.5t-191 -46.5q-92 0 -146.5 57t-54.5 151q0 111 63.5 222t164.5 181t204 70q44 0 69.5 -14t25.5 -55q0 -39 -42 -116.5t-66 -77.5z" />
    <glyph glyph-name="cacute" unicode="&#x107;" horiz-adv-x="438" 
d="M254 585q-20 0 -20 19q57 31 89 65.5t64 89.5q26 2 45.5 -11t17.5 -33q-4 -43 -74 -86.5t-122 -43.5zM155 -4q-83 0 -120.5 42.5t-37.5 114.5q0 97 56 179t131.5 124t144.5 42q92 0 92 -64q0 -38 -39 -54q-23 38 -79 38q-81 0 -153.5 -69.5t-72.5 -176.5q0 -53 24.5 -81
t68.5 -28q51 0 106 30.5t89 90.5q21 -1 21 -29q0 -69 -71 -114t-160 -45z" />
    <glyph glyph-name="Ccircumflex" unicode="&#x108;" horiz-adv-x="572" 
d="M489 904q17 -30 53.5 -74t69.5 -71q-10 -21 -31 -21q-28 -1 -60.5 25.5t-58.5 61.5q-48 -45 -120 -71q-44 -12 -54 -3t-8 13.5t18 14.5q45 24 91 60t70 65q6 8 15.5 8t14.5 -8zM452 418q-15 0 -24.5 13.5t-9.5 31.5q0 11 3.5 23.5t13 29l16.5 28.5t22.5 36l23.5 37
q-19 6 -37 6q-83 0 -160.5 -62t-122.5 -151.5t-45 -171.5q0 -85 39.5 -121t102.5 -36q55 0 107 19t84 38t39 19q18 0 18 -19q0 -45 -97 -91.5t-191 -46.5q-92 0 -146.5 57t-54.5 151q0 111 63.5 222t164.5 181t204 70q44 0 69.5 -14t25.5 -55q0 -39 -42 -116.5t-66 -77.5z
" />
    <glyph glyph-name="ccircumflex" unicode="&#x109;" horiz-adv-x="438" 
d="M364 744q71 -106 120 -154q-10 -21 -31 -21q-50 -2 -116 97q-60 -60 -117 -81q-46 -12 -54 -3q-10 8 -8 15t18 17q43 23 87.5 60.5t70.5 69.5q6 8 16 8t14 -8zM329 498q92 0 92 -64q0 -38 -39 -54q-23 38 -79 38q-81 0 -153.5 -69.5t-72.5 -176.5q0 -53 24.5 -81
t68.5 -28q51 0 106 30.5t89 90.5q21 -1 21 -29q0 -69 -71 -114t-160 -45q-83 0 -120.5 42.5t-37.5 114.5q0 97 56 179t131.5 124t144.5 42z" />
    <glyph glyph-name="Cdotaccent" unicode="&#x10a;" horiz-adv-x="572" 
d="M420 752q-15 0 -24.5 12.5t-9.5 32.5q0 91 76 91q20 0 30.5 -15t10.5 -35q0 -29 -23.5 -57.5t-59.5 -28.5zM504 157q18 0 18 -19q0 -45 -97 -91.5t-191 -46.5q-92 0 -146.5 57t-54.5 151q0 111 63.5 222t164.5 181t204 70q44 0 69.5 -14t25.5 -55q0 -39 -42 -116.5
t-66 -77.5q-15 0 -24.5 13.5t-9.5 31.5q0 11 3.5 23.5t13 29l16.5 28.5t22.5 36l23.5 37q-19 6 -37 6q-83 0 -160.5 -62t-122.5 -151.5t-45 -171.5q0 -85 39.5 -121t102.5 -36q55 0 107 19t84 38t39 19z" />
    <glyph glyph-name="cdotaccent" unicode="&#x10b;" horiz-adv-x="438" 
d="M303 585q-15 0 -24.5 12.5t-9.5 32.5q0 91 76 91q20 0 30.5 -15t10.5 -35q0 -29 -23.5 -57.5t-59.5 -28.5zM155 -4q-83 0 -120.5 42.5t-37.5 114.5q0 97 56 179t131.5 124t144.5 42q92 0 92 -64q0 -38 -39 -54q-23 38 -79 38q-81 0 -153.5 -69.5t-72.5 -176.5
q0 -53 24.5 -81t68.5 -28q51 0 106 30.5t89 90.5q21 -1 21 -29q0 -69 -71 -114t-160 -45z" />
    <glyph glyph-name="Ccaron" unicode="&#x10c;" horiz-adv-x="572" 
d="M628 888q16 -16 -14 -30q-87 -40 -149 -110q-6 -7 -18.5 -7.5t-17.5 6.5q-19 29 -52.5 65t-63.5 59q7 17 30 18t55 -21t54 -50q49 43 119 67q43 16 57 3zM452 418q-15 0 -24.5 13.5t-9.5 31.5q0 11 3.5 23.5t13 29l16.5 28.5t22.5 36l23.5 37q-19 6 -37 6
q-83 0 -160.5 -62t-122.5 -151.5t-45 -171.5q0 -85 39.5 -121t102.5 -36q55 0 107 19t84 38t39 19q18 0 18 -19q0 -45 -97 -91.5t-191 -46.5q-92 0 -146.5 57t-54.5 151q0 111 63.5 222t164.5 181t204 70q44 0 69.5 -14t25.5 -55q0 -39 -42 -116.5t-66 -77.5z" />
    <glyph glyph-name="ccaron" unicode="&#x10d;" horiz-adv-x="438" 
d="M491 726q10 -9 8 -15.5t-18 -16.5q-45 -25 -89 -59t-66 -60q-5 -8 -14.5 -8t-14.5 7q-17 26 -54 72t-63 72q9 20 30 21q49 2 113 -88q53 50 115 70q42 18 53 5zM329 498q92 0 92 -64q0 -38 -39 -54q-23 38 -79 38q-81 0 -153.5 -69.5t-72.5 -176.5q0 -53 24.5 -81
t68.5 -28q51 0 106 30.5t89 90.5q21 -1 21 -29q0 -69 -71 -114t-160 -45q-83 0 -120.5 42.5t-37.5 114.5q0 97 56 179t131.5 124t144.5 42z" />
    <glyph glyph-name="Dcaron" unicode="&#x10e;" horiz-adv-x="689" 
d="M400 747q-19 29 -52.5 65t-63.5 59q7 17 30 18t55 -21t54 -50q49 43 119 67q43 16 57 3q16 -16 -14 -30q-87 -40 -149 -110q-6 -7 -18.5 -7.5t-17.5 6.5zM302 685q167 0 257.5 -76t90.5 -220q0 -195 -149 -295t-410 -100q-42 0 -59 11t-17 39q0 21 67 18q4 0 11 -0.5
t10 -0.5q43 308 137 551q-37 -3 -69 -10t-50 -13t-24 -6q-18 0 -18 11q0 39 72.5 65t150.5 26zM186 63q170 13 275 90t105 215q0 117 -71.5 179t-191.5 67q-67 -214 -117 -551z" />
    <glyph glyph-name="dcaron" unicode="&#x10f;" horiz-adv-x="590" 
d="M576 725q0 -13 -8 -40t-21 -63.5t-17 -49.5q-84 -262 -84 -389q0 -100 43 -129q-2 -15 -18 -28t-35 -13q-37 0 -58 44.5t-21 97.5q-88 -150 -229 -150q-60 0 -92.5 34.5t-32.5 98.5q0 88 54 174.5t139 141t171 54.5q31 0 56 -13q16 68 21 85q38 136 71 157q16 10 37 10
q24 0 24 -22zM679 733q23 0 36 -18t13 -47q0 -53 -36 -93t-84 -40q-22 0 -33.5 7.5t-10.5 24.5q33 1 55 18t24 36q2 30 -13 55q-4 5 -2 17q1 13 15.5 26.5t35.5 13.5zM392 351q4 16 18 80q-22 13 -52 13q-105 -1 -184 -91.5t-79 -187.5q0 -89 71 -89q24 0 52.5 13t61.5 42
t63 86t49 134z" />
    <glyph glyph-name="Dcroat" unicode="&#x110;" horiz-adv-x="665" 
d="M312 685q167 0 257.5 -76t90.5 -220q0 -195 -149 -295t-410 -100q-42 0 -59 11t-17 39q0 21 67 18q4 0 11 -0.5t10 -0.5q19 132 43 240q-73 -14 -99 -11q-43 6 -35 59q71 9 139 22q2 1 6 1t6 1q36 133 77 239q-37 -3 -69 -10t-50 -13t-24 -6q-18 0 -18 11q0 39 72.5 65
t150.5 26zM196 63q170 13 275 90t105 215q0 117 -71.5 179t-191.5 67q-37 -122 -60 -228q80 12 117 12q89 0 66 -74l-2 -1q-6 2 -18 4q-63 10 -177 -9q-24 -123 -43 -255z" />
    <glyph glyph-name="dcroat" unicode="&#x111;" horiz-adv-x="571" 
d="M558 654q83 -9 111 -27t9 -54q-51 15 -142 19l-6 -20q-84 -262 -84 -389q0 -100 43 -129q-2 -15 -18 -28t-35 -13q-37 0 -58 44.5t-21 97.5q-88 -150 -229 -150q-60 0 -92.5 34.5t-32.5 98.5q0 88 54 174.5t139 141t171 54.5q31 0 56 -13q16 68 21 85l4 16
q-92 3 -161 -11q-15 -3 -19 8t-1 28q7 39 201 39q25 63 47 77q16 10 37 10q24 0 24 -22q0 -19 -18 -71zM392 351q4 16 18 80q-22 13 -52 13q-105 -1 -184 -91.5t-79 -187.5q0 -89 71 -89q24 0 52.5 13t61.5 42t63 86t49 134z" />
    <glyph glyph-name="Emacron" unicode="&#x112;" horiz-adv-x="533" 
d="M535 825q11 -13 -3 -50q-143 8 -269 -15q-12 17 -9 43q1 25 59 35t130 5q79 -5 92 -18zM403 689q76 0 102.5 -20.5t24.5 -50.5q-2 -31 -26 -46q-30 35 -115 35q-56 0 -94 -12.5t-62 -41.5t-38 -61.5t-28 -86.5l-15 -57q18 2 68 5t75.5 5.5t65 9.5t70.5 18q16 -13 15 -34
q-1 -35 -55.5 -45.5t-138.5 -12t-116 -9.5l-16 -60q-25 -89 -11.5 -125.5t79.5 -36.5q55 0 153.5 19t103.5 19q20 0 19 -29q-1 -27 -61 -47.5t-123.5 -28.5t-106.5 -8q-102 0 -140 46q-51 68 43 363q14 43 26 73.5t32 68t47 66t61 45.5q36 20 86 29.5t75 9.5z" />
    <glyph glyph-name="emacron" unicode="&#x113;" horiz-adv-x="484" 
d="M453 675q11 -13 -3 -50q-143 8 -269 -15q-12 17 -9 43q1 25 59 35t130 5q79 -5 92 -18zM444 409q0 -95 -107.5 -159t-238.5 -55v-18q0 -49 32.5 -78.5t75.5 -29.5q57 0 104 25.5t94 82.5q21 -4 16 -30q-10 -53 -82.5 -100t-170.5 -47q-26 0 -52.5 7.5t-53 25t-43 52
t-16.5 81.5q0 93 49 172.5t124.5 123t155.5 43.5q52 0 82.5 -27t30.5 -69zM311 446q-70 0 -129.5 -57.5t-77.5 -147.5q102 -4 178 48.5t76 108.5q0 48 -47 48z" />
    <glyph glyph-name="Ebreve" unicode="&#x114;" horiz-adv-x="533" 
d="M385 748q-51 1 -83 33.5t-28 84.5q2 12 7 18.5t15 5.5q3 0 6 -1t5.5 -3t4 -3.5t4 -5.5t4 -6t4.5 -8t5 -9q23 -42 68 -44q53 -3 82 45q1 2 4.5 7.5l5 8t4.5 7t5.5 6.5t6 3.5t7.5 1.5q15 -1 13 -20q-3 -52 -39.5 -87t-100.5 -34zM403 689q76 0 102.5 -20.5t24.5 -50.5
q-2 -31 -26 -46q-30 35 -115 35q-56 0 -94 -12.5t-62 -41.5t-38 -61.5t-28 -86.5l-15 -57q18 2 68 5t75.5 5.5t65 9.5t70.5 18q16 -13 15 -34q-1 -35 -55.5 -45.5t-138.5 -12t-116 -9.5l-16 -60q-25 -89 -11.5 -125.5t79.5 -36.5q55 0 153.5 19t103.5 19q20 0 19 -29
q-1 -27 -61 -47.5t-123.5 -28.5t-106.5 -8q-102 0 -140 46q-51 68 43 363q14 43 26 73.5t32 68t47 66t61 45.5q36 20 86 29.5t75 9.5z" />
    <glyph glyph-name="ebreve" unicode="&#x115;" horiz-adv-x="484" 
d="M285 587q-42 3 -73 35.5t-27 82.5q2 18 7 26.5t15 7.5q11 -1 17 -9t16 -29q23 -49 68 -52q50 -4 82 51l3.5 7t4 7.5l4 7t4.5 7t5 5t6 3.5t6 1q15 -1 13 -20q-3 -48 -47.5 -91.5t-103.5 -39.5zM404 177q21 -4 16 -30q-10 -53 -82.5 -100t-170.5 -47q-26 0 -52.5 7.5
t-53 25t-43 52t-16.5 81.5q0 93 49 172.5t124.5 123t155.5 43.5q52 0 82.5 -27t30.5 -69q0 -95 -107.5 -159t-238.5 -55v-18q0 -49 32.5 -78.5t75.5 -29.5q57 0 104 25.5t94 82.5zM311 446q-70 0 -129.5 -57.5t-77.5 -147.5q102 -4 178 48.5t76 108.5q0 48 -47 48z" />
    <glyph glyph-name="Edotaccent" unicode="&#x116;" horiz-adv-x="533" 
d="M374 752q-15 0 -24.5 12.5t-9.5 32.5q0 91 76 91q20 0 30.5 -15t10.5 -35q0 -29 -23.5 -57.5t-59.5 -28.5zM403 689q76 0 102.5 -20.5t24.5 -50.5q-2 -31 -26 -46q-30 35 -115 35q-56 0 -94 -12.5t-62 -41.5t-38 -61.5t-28 -86.5l-15 -57q18 2 68 5t75.5 5.5t65 9.5
t70.5 18q16 -13 15 -34q-1 -35 -55.5 -45.5t-138.5 -12t-116 -9.5l-16 -60q-25 -89 -11.5 -125.5t79.5 -36.5q55 0 153.5 19t103.5 19q20 0 19 -29q-1 -27 -61 -47.5t-123.5 -28.5t-106.5 -8q-102 0 -140 46q-51 68 43 363q14 43 26 73.5t32 68t47 66t61 45.5q36 20 86 29.5
t75 9.5z" />
    <glyph glyph-name="edotaccent" unicode="&#x117;" horiz-adv-x="484" 
d="M292 585q-15 0 -24.5 12.5t-9.5 32.5q0 91 76 91q20 0 30.5 -15t10.5 -35q0 -29 -23.5 -57.5t-59.5 -28.5zM404 177q21 -4 16 -30q-10 -53 -82.5 -100t-170.5 -47q-26 0 -52.5 7.5t-53 25t-43 52t-16.5 81.5q0 93 49 172.5t124.5 123t155.5 43.5q52 0 82.5 -27t30.5 -69
q0 -95 -107.5 -159t-238.5 -55v-18q0 -49 32.5 -78.5t75.5 -29.5q57 0 104 25.5t94 82.5zM311 446q-70 0 -129.5 -57.5t-77.5 -147.5q102 -4 178 48.5t76 108.5q0 48 -47 48z" />
    <glyph glyph-name="Eogonek" unicode="&#x118;" horiz-adv-x="517" 
d="M390 689q76 0 102.5 -20.5t24.5 -50.5q-2 -31 -26 -46q-30 35 -115 35q-56 0 -94 -12.5t-62 -41.5t-38 -61.5t-28 -86.5l-15 -57q18 2 68 5t75.5 5.5t65 9.5t70.5 18q16 -13 15 -34q-1 -35 -55.5 -45.5t-138.5 -12t-116 -9.5l-16 -60q-25 -89 -11.5 -125.5t79.5 -36.5
q55 0 155 24t105 24q6 0 11 -5t5 -14t-9 -19q-41 -40 -87 -99t-46 -96q0 -31 31 -31q26 0 61 20q14 9 25.5 -6t-0.5 -27q-52 -49 -122 -49q-37 0 -59.5 16t-21.5 54q1 40 40.5 90.5t88.5 84.5q-56 -19 -120.5 -30.5t-101.5 -11.5q-79 0 -110 46q-51 68 43 363q14 43 26 73.5
t32 68t47 66t61 45.5q36 20 86 29.5t75 9.5z" />
    <glyph glyph-name="eogonek" unicode="&#x119;" horiz-adv-x="471" 
d="M405 149q16 -5 18 -22.5t-12 -34.5q-5 -6 -37 -42t-51.5 -60t-38.5 -59.5t-19 -62.5q0 -31 31 -31q25 0 61 25q14 10 25.5 -5.5t-0.5 -27.5q-57 -54 -122 -54q-37 0 -59.5 16t-21.5 54t28.5 84.5t67.5 87.5q-49 -17 -108 -17q-26 0 -52.5 7.5t-53 25t-43 52t-16.5 81.5
q0 93 49 172.5t124.5 123t155.5 43.5q52 0 82.5 -27t30.5 -69q0 -95 -107.5 -159t-238.5 -55v-18q0 -49 32.5 -78.5t75.5 -29.5q110 0 199 80zM311 446q-70 0 -129.5 -57.5t-77.5 -147.5q102 -4 178 48.5t76 108.5q0 48 -47 48z" />
    <glyph glyph-name="Ecaron" unicode="&#x11a;" horiz-adv-x="533" 
d="M582 888q16 -16 -14 -30q-87 -40 -149 -110q-6 -7 -18.5 -7.5t-17.5 6.5q-19 29 -52.5 65t-63.5 59q7 17 30 18t55 -21t54 -50q49 43 119 67q43 16 57 3zM403 689q76 0 102.5 -20.5t24.5 -50.5q-2 -31 -26 -46q-30 35 -115 35q-56 0 -94 -12.5t-62 -41.5t-38 -61.5
t-28 -86.5l-15 -57q18 2 68 5t75.5 5.5t65 9.5t70.5 18q16 -13 15 -34q-1 -35 -55.5 -45.5t-138.5 -12t-116 -9.5l-16 -60q-25 -89 -11.5 -125.5t79.5 -36.5q55 0 153.5 19t103.5 19q20 0 19 -29q-1 -27 -61 -47.5t-123.5 -28.5t-106.5 -8q-102 0 -140 46q-51 68 43 363
q14 43 26 73.5t32 68t47 66t61 45.5q36 20 86 29.5t75 9.5z" />
    <glyph glyph-name="ecaron" unicode="&#x11b;" horiz-adv-x="484" 
d="M480 726q10 -9 8 -15.5t-18 -16.5q-45 -25 -89 -59t-66 -60q-5 -8 -14.5 -8t-14.5 7q-17 26 -54 72t-63 72q9 20 30 21q49 2 113 -88q53 50 115 70q42 18 53 5zM444 409q0 -95 -107.5 -159t-238.5 -55v-18q0 -49 32.5 -78.5t75.5 -29.5q57 0 104 25.5t94 82.5
q21 -4 16 -30q-10 -53 -82.5 -100t-170.5 -47q-26 0 -52.5 7.5t-53 25t-43 52t-16.5 81.5q0 93 49 172.5t124.5 123t155.5 43.5q52 0 82.5 -27t30.5 -69zM311 446q-70 0 -129.5 -57.5t-77.5 -147.5q102 -4 178 48.5t76 108.5q0 48 -47 48z" />
    <glyph glyph-name="Gcircumflex" unicode="&#x11c;" horiz-adv-x="708" 
d="M320 751q-10 9 -8 13.5t18 14.5q45 24 91 60t70 65q6 8 15.5 8t14.5 -8q17 -30 53.5 -74t69.5 -71q-10 -21 -31 -21q-28 -1 -60.5 25.5t-58.5 61.5q-48 -45 -120 -71q-44 -12 -54 -3zM697 314q1 -10 -5 -15.5t-19 -6.5q-6 0 -65 10l-58 -271q-10 -43 -17 -58
q-6 -12 -22.5 -24t-27.5 -12q-18 0 -16 32q2 36 31 160q-92 -129 -234 -129q-217 0 -217 233q0 105 60 210.5t166 177t224 71.5q61 0 102 -21t39 -55q-1 -26 -31 -24q-12 0 -51.5 15t-73.5 16q-98 1 -176 -52.5t-117.5 -134.5t-39.5 -168q0 -39 6.5 -72.5t21 -64t42.5 -48.5
t66 -18q82 0 155 77t97 169q-6 1 -19 1q-37 0 -71 -3t-41 -3q-27 0 -27 18q0 41 108 46q39 1 82 -2t85 -16.5t43 -37.5z" />
    <glyph glyph-name="gcircumflex" unicode="&#x11d;" horiz-adv-x="516" 
d="M382 744q71 -106 120 -154q-10 -21 -31 -21q-50 -2 -116 97q-60 -60 -117 -81q-46 -12 -54 -3q-10 8 -8 15t18 17q43 23 87.5 60.5t70.5 69.5q6 8 16 8t14 -8zM442 506q22 1 30 -10t4 -37q-29 -212 -85 -433q-31 -125 -99.5 -189t-165.5 -64q-60 0 -105.5 21.5
t-48.5 55.5q0 31 26 32q15 0 33 -9.5t46 -19.5t66 -10q29 0 53.5 12t43 30.5t35 49.5t27.5 59t23 71t18.5 72.5l16.5 75.5q3 13 4 19q-33 -87 -92 -138t-133 -51q-61 0 -98 38t-37 103q0 127 90 236t204 109q59 0 62 -43q-60 8 -124.5 -34t-106.5 -112t-42 -139
q0 -41 21.5 -64.5t61.5 -23.5q48 0 92.5 48t70.5 105t41 114q2 6 6 21.5t7 24t7.5 22.5t9 22.5t10.5 17.5t13 13.5t15 4.5z" />
    <glyph glyph-name="Gbreve" unicode="&#x11e;" horiz-adv-x="708" 
d="M463 748q-51 1 -83 33.5t-28 84.5q2 12 7 18.5t15 5.5q3 0 6 -1t5.5 -3t4 -3.5t4 -5.5t4 -6t4.5 -8t5 -9q23 -42 68 -44q53 -3 82 45q1 2 4.5 7.5l5 8t4.5 7t5.5 6.5t6 3.5t7.5 1.5q15 -1 13 -20q-3 -52 -39.5 -87t-100.5 -34zM697 314q1 -10 -5 -15.5t-19 -6.5
q-6 0 -65 10l-58 -271q-10 -43 -17 -58q-6 -12 -22.5 -24t-27.5 -12q-18 0 -16 32q2 36 31 160q-92 -129 -234 -129q-217 0 -217 233q0 105 60 210.5t166 177t224 71.5q61 0 102 -21t39 -55q-1 -26 -31 -24q-12 0 -51.5 15t-73.5 16q-98 1 -176 -52.5t-117.5 -134.5
t-39.5 -168q0 -39 6.5 -72.5t21 -64t42.5 -48.5t66 -18q82 0 155 77t97 169q-6 1 -19 1q-37 0 -71 -3t-41 -3q-27 0 -27 18q0 41 108 46q39 1 82 -2t85 -16.5t43 -37.5z" />
    <glyph glyph-name="gbreve" unicode="&#x11f;" horiz-adv-x="516" 
d="M314 587q-42 3 -73 35.5t-27 82.5q2 18 7 26.5t15 7.5q11 -1 17 -9t16 -29q23 -49 68 -52q50 -4 82 51l3.5 7t4 7.5l4 7t4.5 7t5 5t6 3.5t6 1q15 -1 13 -20q-3 -48 -47.5 -91.5t-103.5 -39.5zM442 506q22 1 30 -10t4 -37q-29 -212 -85 -433q-31 -125 -99.5 -189
t-165.5 -64q-60 0 -105.5 21.5t-48.5 55.5q0 31 26 32q15 0 33 -9.5t46 -19.5t66 -10q29 0 53.5 12t43 30.5t35 49.5t27.5 59t23 71t18.5 72.5l16.5 75.5q3 13 4 19q-33 -87 -92 -138t-133 -51q-61 0 -98 38t-37 103q0 127 90 236t204 109q59 0 62 -43q-60 8 -124.5 -34
t-106.5 -112t-42 -139q0 -41 21.5 -64.5t61.5 -23.5q48 0 92.5 48t70.5 105t41 114q2 6 6 21.5t7 24t7.5 22.5t9 22.5t10.5 17.5t13 13.5t15 4.5z" />
    <glyph glyph-name="Gdotaccent" unicode="&#x120;" horiz-adv-x="708" 
d="M452 752q-15 0 -24.5 12.5t-9.5 32.5q0 91 76 91q20 0 30.5 -15t10.5 -35q0 -29 -23.5 -57.5t-59.5 -28.5zM697 314q1 -10 -5 -15.5t-19 -6.5q-6 0 -65 10l-58 -271q-10 -43 -17 -58q-6 -12 -22.5 -24t-27.5 -12q-18 0 -16 32q2 36 31 160q-92 -129 -234 -129
q-217 0 -217 233q0 105 60 210.5t166 177t224 71.5q61 0 102 -21t39 -55q-1 -26 -31 -24q-12 0 -51.5 15t-73.5 16q-98 1 -176 -52.5t-117.5 -134.5t-39.5 -168q0 -39 6.5 -72.5t21 -64t42.5 -48.5t66 -18q82 0 155 77t97 169q-6 1 -19 1q-37 0 -71 -3t-41 -3q-27 0 -27 18
q0 41 108 46q39 1 82 -2t85 -16.5t43 -37.5z" />
    <glyph glyph-name="gdotaccent" unicode="&#x121;" horiz-adv-x="516" 
d="M321 585q-15 0 -24.5 12.5t-9.5 32.5q0 91 76 91q20 0 30.5 -15t10.5 -35q0 -29 -23.5 -57.5t-59.5 -28.5zM442 506q22 1 30 -10t4 -37q-29 -212 -85 -433q-31 -125 -99.5 -189t-165.5 -64q-60 0 -105.5 21.5t-48.5 55.5q0 31 26 32q15 0 33 -9.5t46 -19.5t66 -10
q29 0 53.5 12t43 30.5t35 49.5t27.5 59t23 71t18.5 72.5l16.5 75.5q3 13 4 19q-33 -87 -92 -138t-133 -51q-61 0 -98 38t-37 103q0 127 90 236t204 109q59 0 62 -43q-60 8 -124.5 -34t-106.5 -112t-42 -139q0 -41 21.5 -64.5t61.5 -23.5q48 0 92.5 48t70.5 105t41 114
q2 6 6 21.5t7 24t7.5 22.5t9 22.5t10.5 17.5t13 13.5t15 4.5z" />
    <glyph glyph-name="Gcommaaccent" unicode="&#x122;" horiz-adv-x="708" 
d="M697 314q1 -10 -5 -15.5t-19 -6.5q-6 0 -65 10l-58 -271q-10 -43 -17 -58q-6 -12 -22.5 -24t-27.5 -12q-18 0 -16 32q2 36 31 160q-92 -129 -234 -129q-217 0 -217 233q0 105 60 210.5t166 177t224 71.5q61 0 102 -21t39 -55q-1 -26 -31 -24q-12 0 -51.5 15t-73.5 16
q-98 1 -176 -52.5t-117.5 -134.5t-39.5 -168q0 -39 6.5 -72.5t21 -64t42.5 -48.5t66 -18q82 0 155 77t97 169q-6 1 -19 1q-37 0 -71 -3t-41 -3q-27 0 -27 18q0 41 108 46q39 1 82 -2t85 -16.5t43 -37.5zM313 -42q23 0 36 -18t13 -47q0 -53 -36 -93t-84 -40q-22 0 -33.5 7.5
t-10.5 24.5q33 1 55 18t24 36q2 30 -13 55q-4 5 -2 17q1 13 15.5 26.5t35.5 13.5z" />
    <glyph glyph-name="gcommaaccent" unicode="&#x123;" horiz-adv-x="515" 
d="M338 585q-23 0 -36 18t-13 47q0 53 36 93t84 40q22 0 33.5 -7.5t10.5 -24.5q-33 -1 -55 -18t-24 -36q-2 -30 13 -55q4 -5 2 -17q-1 -13 -15.5 -26.5t-35.5 -13.5zM442 506q22 1 30 -10t4 -37q-29 -212 -85 -433q-31 -125 -99.5 -189t-165.5 -64q-60 0 -105.5 21.5
t-48.5 55.5q0 31 26 32q15 0 33 -9.5t46 -19.5t66 -10q29 0 53.5 12t43 30.5t35 49.5t27.5 59t23 71t18.5 72.5l16.5 75.5q3 13 4 19q-33 -87 -92 -138t-133 -51q-61 0 -98 38t-37 103q0 127 90 236t204 109q59 0 62 -43q-60 8 -124.5 -34t-106.5 -112t-42 -139
q0 -41 21.5 -64.5t61.5 -23.5q48 0 92.5 48t70.5 105t41 114q2 6 6 21.5t7 24t7.5 22.5t9 22.5t10.5 17.5t13 13.5t15 4.5z" />
    <glyph glyph-name="Hcircumflex" unicode="&#x124;" horiz-adv-x="638" 
d="M250 751q-10 9 -8 13.5t18 14.5q45 24 91 60t70 65q6 8 15.5 8t14.5 -8q17 -30 53.5 -74t69.5 -71q-10 -21 -31 -21q-28 -1 -60.5 25.5t-58.5 61.5q-48 -45 -120 -71q-44 -12 -54 -3zM581 432q40 -3 38 -42q0 -4 -1 -5.5t-4 -3.5t-9 -1.5t-18 0.5q-20 2 -49 0
q-43 -163 -55 -360q-10 -5 -35 -5q-43 0 -45 48q-2 127 50 311q-158 -17 -271 -51q-42 -159 -68 -349q-47 -5 -62.5 14.5t-10.5 80.5q8 100 66 304.5t125 301.5q36 6 50 -12t-3 -60q-46 -106 -80 -221q101 32 270 47q63 206 141 315q23 1 39.5 -10t18.5 -24
q-76 -149 -115 -277q20 0 28 -1z" />
    <glyph glyph-name="hcircumflex" unicode="&#x125;" horiz-adv-x="551" 
d="M84 802q-10 9 -8 13.5t18 14.5q45 24 91 60t70 65q6 7 15.5 7t14.5 -7q17 -30 53.5 -74t69.5 -71q-10 -21 -31 -21q-28 -1 -60.5 25.5t-58.5 61.5q-48 -45 -120 -71q-44 -12 -54 -3zM480 88q9 -13 9 -34q0 -22 -18.5 -37t-44.5 -15q-84 0 -84 125q0 61 16.5 148t16.5 104
q0 14 -7 14q-22 0 -73 -49t-92 -112q-95 -145 -126 -233q-25 2 -36 17.5t-11 54.5q0 246 127 579q21 55 41.5 79.5t51.5 24.5q12 0 12 -16t-7 -37q-92 -244 -134 -499q63 109 163.5 210.5t154.5 101.5q32 0 32 -43q0 -33 -24.5 -164t-24.5 -163q0 -63 36 -63q15 0 22 7z" />
    <glyph glyph-name="Hbar" unicode="&#x126;" horiz-adv-x="655" 
d="M673 582q40 -3 38 -42q0 -4 -1 -5.5t-4 -3.5t-9 -1.5t-18 0.5q-24 2 -59 0q-93 -222 -116 -510q-10 -5 -35 -5q-44 0 -44 48q0 109 46 275q-159 -11 -276 -49q-37 -153 -61 -315q-47 -5 -62 14.5t-9 80.5q5 56 32.5 173.5t65.5 230.5q-51 -11 -80 -21q-9 15 -0.5 38
t29.5 30q24 9 75 19q38 103 80 166q36 6 49.5 -12t-4.5 -60l-32 -78q135 19 281 26q37 81 75 133q23 1 39 -10t18 -24l-48 -97q6 0 16 -0.5t14 -0.5zM487 392q22 72 48 133q-132 -9 -280 -34q-23 -64 -45 -145q102 37 277 46z" />
    <glyph glyph-name="hbar" unicode="&#x127;" horiz-adv-x="555" 
d="M484 88q9 -13 9 -34q0 -22 -18.5 -37t-44.5 -15q-84 0 -84 125q0 61 16.5 148t16.5 104q0 14 -7 14q-22 0 -73 -49t-92 -112q-95 -145 -126 -233q-25 2 -36 17.5t-11 54.5q0 211 99 501q-79 -11 -118 -24q-14 -4 -19 6t-4 28q2 37 165 56q1 2 2.5 6t1.5 6
q21 55 41.5 79.5t51.5 24.5q12 0 12 -16t-7 -37l-21 -56q107 3 145 -12t22 -56q-56 10 -189 1q-59 -181 -91 -376q63 109 163.5 210.5t154.5 101.5q32 0 32 -43q0 -33 -24.5 -164t-24.5 -163q0 -63 36 -63q15 0 22 7z" />
    <glyph glyph-name="Itilde" unicode="&#x128;" horiz-adv-x="530" 
d="M253 748q-33 8 -33 42q0 37 27 60.5t64 23.5q35 0 77 -31t57 -31q52 0 54 64q31 -9 31 -44q0 -24 -10.5 -41.5t-26.5 -25.5t-28.5 -11t-22.5 -3q-33 0 -71 29t-60 29q-40 0 -58 -61zM558 685q6 -35 -15.5 -56.5t-62.5 -21.5q-16 0 -32.5 1t-35 2.5l-30.5 2.5
q-41 -76 -73 -230.5t-37 -288.5q88 4 111 0q36 -6 52 -31t0 -59q-44 20 -116 20q-48 0 -134 -12.5t-126 -12.5q-43 0 -60 25t6 56q21 -3 40.5 -4.5t41.5 0t32.5 2.5t36.5 4.5t31 4.5q8 122 43 275.5t79 251.5q-91 0 -130 -7q-42 -7 -40 35q1 23 13.5 35.5t32.5 12.5
q19 0 90.5 -5.5t104.5 -5.5q144 0 178 6z" />
    <glyph glyph-name="itilde" unicode="&#x129;" horiz-adv-x="238" 
d="M55 589q-33 8 -33 42q0 37 27 60.5t64 23.5q35 0 77 -31t57 -31q52 0 54 64q31 -9 31 -44q0 -24 -10.5 -41.5t-26.5 -25.5t-28.5 -11t-22.5 -3q-33 0 -71 29t-60 29q-40 0 -58 -61zM61 15q-36 0 -36 44q0 34 38 196.5t52 197.5q15 41 51 39q33 -1 24 -54q-4 -26 -28 -110
t-29 -132q-3 -24 -8 -78.5t-5 -56.5q-5 -46 -59 -46z" />
    <glyph glyph-name="Imacron" unicode="&#x12a;" horiz-adv-x="530" 
d="M509 775q-143 8 -269 -15q-12 17 -9 43q1 25 59 35t130 5q79 -5 92 -18q11 -13 -3 -50zM558 685q6 -35 -15.5 -56.5t-62.5 -21.5q-16 0 -32.5 1t-35 2.5l-30.5 2.5q-41 -76 -73 -230.5t-37 -288.5q88 4 111 0q36 -6 52 -31t0 -59q-44 20 -116 20q-48 0 -134 -12.5
t-126 -12.5q-43 0 -60 25t6 56q21 -3 40.5 -4.5t41.5 0t32.5 2.5t36.5 4.5t31 4.5q8 122 43 275.5t79 251.5q-91 0 -130 -7q-42 -7 -40 35q1 23 13.5 35.5t32.5 12.5q19 0 90.5 -5.5t104.5 -5.5q144 0 178 6z" />
    <glyph glyph-name="imacron" unicode="&#x12b;" horiz-adv-x="238" 
d="M67 610q-12 17 -9 43q1 25 59 35t130 5q79 -5 92 -18q11 -13 -3 -50q-143 8 -269 -15zM61 15q-36 0 -36 44q0 34 38 196.5t52 197.5q15 41 51 39q33 -1 24 -54q-4 -26 -28 -110t-29 -132q-3 -24 -8 -78.5t-5 -56.5q-5 -46 -59 -46z" />
    <glyph glyph-name="Ibreve" unicode="&#x12c;" horiz-adv-x="530" 
d="M362 748q-51 1 -83 33.5t-28 84.5q2 12 7 18.5t15 5.5q3 0 6 -1t5.5 -3t4 -3.5t4 -5.5t4 -6t4.5 -8t5 -9q23 -42 68 -44q53 -3 82 45q1 2 4.5 7.5l5 8t4.5 7t5.5 6.5t6 3.5t7.5 1.5q15 -1 13 -20q-3 -52 -39.5 -87t-100.5 -34zM558 685q6 -35 -15.5 -56.5t-62.5 -21.5
q-16 0 -32.5 1t-35 2.5l-30.5 2.5q-41 -76 -73 -230.5t-37 -288.5q88 4 111 0q36 -6 52 -31t0 -59q-44 20 -116 20q-48 0 -134 -12.5t-126 -12.5q-43 0 -60 25t6 56q21 -3 40.5 -4.5t41.5 0t32.5 2.5t36.5 4.5t31 4.5q8 122 43 275.5t79 251.5q-91 0 -130 -7q-42 -7 -40 35
q1 23 13.5 35.5t32.5 12.5q19 0 90.5 -5.5t104.5 -5.5q144 0 178 6z" />
    <glyph glyph-name="ibreve" unicode="&#x12d;" horiz-adv-x="238" 
d="M171 587q-42 3 -73 35.5t-27 82.5q2 18 7 26.5t15 7.5q11 -1 17 -9t16 -29q23 -49 68 -52q50 -4 82 51l3.5 7t4 7.5l4 7t4.5 7t5 5t6 3.5t6 1q15 -1 13 -20q-3 -48 -47.5 -91.5t-103.5 -39.5zM61 15q-36 0 -36 44q0 34 38 196.5t52 197.5q15 41 51 39q33 -1 24 -54
q-4 -26 -28 -110t-29 -132q-3 -24 -8 -78.5t-5 -56.5q-5 -46 -59 -46z" />
    <glyph glyph-name="Iogonek" unicode="&#x12e;" horiz-adv-x="530" 
d="M558 685q6 -35 -15.5 -56.5t-62.5 -21.5q-16 0 -32.5 1t-35 2.5l-30.5 2.5q-41 -75 -73 -229.5t-36 -288.5q74 6 110 -1q15 -3 28 -7.5t23 -13t9 -21t-15 -28.5q-2 -2 -36.5 -33.5t-56.5 -61.5t-22 -55q0 -31 31 -31q20 0 61 23q14 9 25.5 -6t-0.5 -27q-55 -52 -122 -52
q-37 0 -59.5 13.5t-21.5 46.5q1 43 45 94.5t98 86.5q-30 2 -51 2q-48 0 -134 -12.5t-126 -12.5q-43 0 -60 25t6 56q70 -10 182 6q7 122 42.5 275.5t79.5 252.5q-91 0 -130 -7q-42 -7 -40 35q1 23 13.5 35.5t32.5 12.5q19 0 90.5 -5.5t104.5 -5.5q144 0 178 6z" />
    <glyph glyph-name="iogonek" unicode="&#x12f;" horiz-adv-x="232" 
d="M226 737q18 0 28 -10.5t9 -26.5q0 -33 -21.5 -71.5t-53.5 -38.5q-25 0 -25 41q0 57 15.5 81.5t47.5 24.5zM178 492q33 -1 24 -54q-4 -26 -28 -110t-29 -132q-4 -28 -10.5 -89t-6.5 -65q-26 -21 -40.5 -34t-42 -40t-41.5 -52t-14 -46q0 -19 8.5 -26t17.5 -7q26 0 61 20
q14 9 25.5 -6t-0.5 -27q-52 -49 -122 -49q-35 0 -56 16t-20 56q1 43 45 96.5t94 86.5q-6 11 -6 29q0 34 38 196.5t52 197.5q15 41 51 39z" />
    <glyph glyph-name="Idotaccent" unicode="&#x130;" horiz-adv-x="530" 
d="M351 752q-15 0 -24.5 12.5t-9.5 32.5q0 91 76 91q20 0 30.5 -15t10.5 -35q0 -29 -23.5 -57.5t-59.5 -28.5zM558 685q6 -35 -15.5 -56.5t-62.5 -21.5q-16 0 -32.5 1t-35 2.5l-30.5 2.5q-41 -76 -73 -230.5t-37 -288.5q88 4 111 0q36 -6 52 -31t0 -59q-44 20 -116 20
q-48 0 -134 -12.5t-126 -12.5q-43 0 -60 25t6 56q21 -3 40.5 -4.5t41.5 0t32.5 2.5t36.5 4.5t31 4.5q8 122 43 275.5t79 251.5q-91 0 -130 -7q-42 -7 -40 35q1 23 13.5 35.5t32.5 12.5q19 0 90.5 -5.5t104.5 -5.5q144 0 178 6z" />
    <glyph glyph-name="dotlessi" unicode="&#x131;" horiz-adv-x="238" 
d="M61 15q-36 0 -36 44q0 34 38 196.5t52 197.5q15 41 51 39q33 -1 24 -54q-4 -26 -28 -110t-29 -132q-3 -24 -8 -78.5t-5 -56.5q-5 -46 -59 -46z" />
    <glyph glyph-name="IJ" unicode="&#x132;" horiz-adv-x="1062" 
d="M558 685q6 -35 -15.5 -56.5t-62.5 -21.5q-16 0 -32.5 1t-35 2.5l-30.5 2.5q-41 -76 -73 -230.5t-37 -288.5q88 4 111 0q36 -6 52 -31t0 -59q-44 20 -116 20q-48 0 -134 -12.5t-126 -12.5q-43 0 -60 25t6 56q21 -3 40.5 -4.5t41.5 0t32.5 2.5t36.5 4.5t31 4.5
q8 122 43 275.5t79 251.5q-91 0 -130 -7q-42 -7 -40 35q1 23 13.5 35.5t32.5 12.5q19 0 90.5 -5.5t104.5 -5.5q144 0 178 6zM888 688q79 0 119.5 -7t40.5 -30q0 -12 -4 -34t-10 -47l-18 -77.5l-22 -99.5l-10 -49.5l-11.5 -55t-13 -55t-16 -56t-20.5 -51.5t-26 -49.5
t-31.5 -40.5t-39 -33t-47.5 -20t-57 -8q-83 0 -129.5 46t-46.5 116q0 26 14 38t33 12q15 0 25 -14.5t17.5 -35.5t17 -42t29 -36t47.5 -16q73 -2 114 73t73 262l41 239q-72 1 -150.5 -9t-99.5 -10q-42 0 -42 37q0 38 92 46q75 7 131 7z" />
    <glyph glyph-name="ij" unicode="&#x133;" horiz-adv-x="491" 
d="M399 602q-12 -1 -19 11t-8 33q0 38 17.5 72t46.5 34q41 2 41 -33q1 -29 -28.5 -73t-49.5 -44zM176 590q-25 0 -25 41q0 57 15.5 81.5t47.5 24.5q18 0 28 -10.5t9 -26.5q0 -33 -21.5 -71.5t-53.5 -38.5zM61 15q-36 0 -36 44q0 34 38 196.5t52 197.5q15 41 51 39
q33 -1 24 -54q-4 -26 -28 -110t-29 -132q-3 -24 -8 -78.5t-5 -56.5q-5 -46 -59 -46zM139 -226q-41 0 -73.5 18.5t-33.5 51.5q0 40 30 42q12 0 37 -19t58 -19q28 0 50.5 21t39.5 62.5t27 76t23 88.5q17 68 30.5 171t13.5 162q0 63 44 63q49 0 49 -58q0 -42 -35 -224
q-35 -189 -74 -278q-70 -158 -186 -158z" />
    <glyph glyph-name="Jcircumflex" unicode="&#x134;" horiz-adv-x="532" 
d="M191 751q-10 9 -8 13.5t18 14.5q45 24 91 60t70 65q6 8 15.5 8t14.5 -8q17 -30 53.5 -74t69.5 -71q-11 -21 -31 -21q-28 -1 -60.5 25.5t-58.5 61.5q-48 -45 -120 -71q-44 -12 -54 -3zM358 688q79 0 119.5 -7t40.5 -30q0 -12 -4 -34t-10 -47l-18 -77.5l-22 -99.5
l-10 -49.5l-11.5 -55t-13 -55t-16 -56t-20.5 -51.5t-26 -49.5t-31.5 -40.5t-39 -33t-47.5 -20t-57 -8q-83 0 -129.5 46t-46.5 116q0 26 14 38t33 12q15 0 25 -14.5t17.5 -35.5t17 -42t29 -36t47.5 -16q73 -2 114 73t73 262l41 239q-72 1 -150.5 -9t-99.5 -10q-42 0 -42 37
q0 38 92 46q75 7 131 7z" />
    <glyph glyph-name="jcircumflex" unicode="&#x135;" horiz-adv-x="245" 
d="M224 744q71 -106 120 -154q-10 -21 -31 -21q-50 -2 -116 97q-60 -60 -117 -81q-46 -12 -54 -3q-10 8 -8 15t18 17q43 23 87.5 60.5t70.5 69.5q6 8 16 8t14 -8zM155 490q48 0 48 -59q0 -34 -39 -224l-10 -46t-12 -51t-16 -57.5l-19 -56t-24.5 -57.5l-28.5 -50.5t-34.5 -46
t-40.5 -34.5t-48 -24.5t-55 -7.5q-42 0 -73.5 21t-31.5 61q0 41 30 41q8 0 17.5 -7.5t17.5 -17t24 -17t36 -7.5q95 0 152 203q25 93 42.5 201t19.5 173q1 29 13 46t32 17z" />
    <glyph glyph-name="Kcommaaccent" unicode="&#x136;" horiz-adv-x="618" 
d="M608 685q16 0 26 -12.5t9 -25.5q-1 -31 -38 -73q-40 -47 -112.5 -104t-161.5 -105l27.5 -68.5t29.5 -67.5t36.5 -69.5t38.5 -54.5t45.5 -43.5t48.5 -16.5q5 -30 -13.5 -47.5t-50.5 -17.5q-37 0 -75.5 37t-70 98t-52.5 110.5t-39 101.5l-41 -18q0 -1 -0.5 -4t-0.5 -4
q-15 -73 -73 -254q-19 -61 -71 -61q-30 0 -30 34q0 36 25 100l47.5 125.5t36 117.5t31.5 148q3 24 9 123q1 31 15.5 44.5t46.5 13.5q36 0 36 -40q0 -24 -17 -90q-24 -92 -44 -196q106 43 191 119t124 140q37 60 67 60zM281 -2q23 0 36 -18t13 -47q0 -53 -36 -93t-84 -40
q-22 0 -33.5 7.5t-10.5 24.5q33 1 55 18t24 36q2 30 -13 55q-4 5 -2 17q1 13 15.5 26.5t35.5 13.5z" />
    <glyph glyph-name="kcommaaccent" unicode="&#x137;" horiz-adv-x="498" 
d="M477 509q23 0 23 -29q-1 -54 -35 -73q-114 -62 -198 -128q32 -102 64 -153t76 -51q24 0 38 13q16 -14 16 -35q0 -25 -21.5 -39t-52.5 -14q-63 0 -111 68t-68 156q-54 -57 -100 -136l-9.5 -19.5t-12 -23t-13 -18t-18 -15.5t-21.5 -5q-50 0 -32 65q60 216 97 362
q41 163 48 258q1 15 2.5 22.5t8.5 15.5t19 8q30 0 41.5 -23t7.5 -50q-25 -210 -124 -488q88 111 217 221.5t158 110.5zM191 -42q23 0 36 -18t13 -47q0 -53 -36 -93t-84 -40q-22 0 -33.5 7.5t-10.5 24.5q33 1 55 18t24 36q2 30 -13 55q-4 5 -2 17q1 13 15.5 26.5t35.5 13.5z
" />
    <glyph glyph-name="kgreenlandic" unicode="&#x138;" horiz-adv-x="547" 
d="M529 475q-1 -49 -35 -70q-145 -92 -203 -141q79 -187 165 -189q24 0 38 13q16 -14 16 -35q0 -25 -23 -39t-51 -14q-75 0 -138 92q-18 27 -67 118q-41 -43 -71 -91q-4 -7 -18 -39t-29 -52t-33 -20q-57 0 -34 65q52 142 71 209.5t35 181.5q0 1 1 7t1 7.5t1 6.5t2 7t2.5 5.5
t3.5 5t5 4t6.5 3t7.5 0.5q31 0 42.5 -23t6.5 -50q-21 -120 -53 -202q86 94 194.5 181.5t133.5 87.5t23 -29z" />
    <glyph glyph-name="Lacute" unicode="&#x139;" horiz-adv-x="500" 
d="M393 903q26 -5 42.5 -21.5t9.5 -35.5q-12 -41 -90 -69t-129 -17q-19 5 -15 23q62 18 101 45.5t81 74.5zM125 63q101 13 170 13q123 0 147 -21q0 -67 -56 -67q-18 0 -55 3.5t-63 3.5q-42 0 -103.5 -6.5t-76.5 -6.5q-47 2 -47 52q0 51 145 631q13 55 42 55q16 0 33 -22
t17 -41q0 -22 -12.5 -65.5t-35 -110.5t-34.5 -113q-59 -214 -71 -305z" />
    <glyph glyph-name="lacute" unicode="&#x13a;" horiz-adv-x="272" 
d="M223 812q-19 5 -15 23q62 18 101 45.5t81 74.5q26 -5 42.5 -21.5t9.5 -35.5q-12 -41 -90 -69t-129 -17zM128 7q-43 0 -65.5 31.5t-22.5 85.5q0 90 27 215t65 231q53 144 86 165q16 10 37 10q24 0 24 -22q0 -13 -12 -42.5t-30.5 -68t-23.5 -51.5q-35 -88 -62.5 -205
t-27.5 -195q0 -64 36 -64q7 0 23 5t24 5q13 0 13 -18q0 -30 -26.5 -56t-64.5 -26z" />
    <glyph glyph-name="Lcommaaccent" unicode="&#x13b;" horiz-adv-x="500" 
d="M295 76q123 0 147 -21q0 -67 -56 -67q-18 0 -55 3.5t-63 3.5q-42 0 -103.5 -6.5t-76.5 -6.5q-47 2 -47 52q0 51 145 631q13 55 42 55q16 0 33 -22t17 -41q0 -22 -12.5 -65.5t-35 -110.5t-34.5 -113q-59 -214 -71 -305q101 13 170 13zM236 -52q23 0 36 -18t13 -47
q0 -53 -36 -93t-84 -40q-22 0 -33.5 7.5t-10.5 24.5q33 1 55 18t24 36q2 30 -13 55q-4 5 -2 17q1 13 15.5 26.5t35.5 13.5z" />
    <glyph glyph-name="lcommaaccent" unicode="&#x13c;" horiz-adv-x="272" 
d="M128 7q-43 0 -65.5 31.5t-22.5 85.5q0 90 27 215t65 231q53 144 86 165q16 10 37 10q24 0 24 -22q0 -13 -12 -42.5t-30.5 -68t-23.5 -51.5q-35 -88 -62.5 -205t-27.5 -195q0 -64 36 -64q7 0 23 5t24 5q13 0 13 -18q0 -30 -26.5 -56t-64.5 -26zM15 -240q-22 0 -33.5 7.5
t-10.5 24.5q33 1 55 18t24 36q2 30 -13 55q-4 5 -2 17q1 13 15.5 26.5t35.5 13.5q23 0 36 -18t13 -47q0 -53 -36 -93t-84 -40z" />
    <glyph glyph-name="Lcaron" unicode="&#x13d;" horiz-adv-x="487" 
d="M125 63q101 13 170 13q123 0 147 -21q0 -67 -56 -67q-18 0 -55 3.5t-63 3.5q-42 0 -103.5 -6.5t-76.5 -6.5q-47 2 -47 52q0 51 145 631q13 55 42 55q16 0 33 -22t17 -41q0 -22 -12.5 -65.5t-35 -110.5t-34.5 -113q-59 -214 -71 -305zM359 514q-22 0 -33.5 7.5t-10.5 24.5
q33 1 55 18t24 36q2 30 -13 55q-4 5 -2 17q1 13 15.5 26.5t35.5 13.5q23 0 36 -18t13 -47q0 -53 -36 -93t-84 -40z" />
    <glyph glyph-name="lcaron" unicode="&#x13e;" horiz-adv-x="314" 
d="M345 553q-22 0 -33.5 7.5t-10.5 24.5q33 1 55 18t24 36q2 30 -13 55q-4 5 -2 17q1 13 15.5 26.5t35.5 13.5q23 0 36 -18t13 -47q0 -53 -36 -93t-84 -40zM128 7q-43 0 -65.5 31.5t-22.5 85.5q0 90 27 215t65 231q53 144 86 165q16 10 37 10q24 0 24 -22q0 -13 -12 -42.5
t-30.5 -68t-23.5 -51.5q-35 -88 -62.5 -205t-27.5 -195q0 -64 36 -64q7 0 23 5t24 5q13 0 13 -18q0 -30 -26.5 -56t-64.5 -26z" />
    <glyph glyph-name="Ldot" unicode="&#x13f;" horiz-adv-x="500" 
d="M295 76q123 0 147 -21q0 -67 -56 -67q-18 0 -55 3.5t-63 3.5q-42 0 -103.5 -6.5t-76.5 -6.5q-47 2 -47 52q0 51 145 631q13 55 42 55q16 0 33 -22t17 -41q0 -22 -12.5 -65.5t-35 -110.5t-34.5 -113q-59 -214 -71 -305q101 13 170 13zM315 325q-15 0 -24.5 12.5t-9.5 32.5
q0 91 76 91q20 0 30.5 -15t10.5 -35q0 -29 -23.5 -57.5t-59.5 -28.5z" />
    <glyph glyph-name="ldot" unicode="&#x140;" horiz-adv-x="369" 
d="M128 7q-43 0 -65.5 31.5t-22.5 85.5q0 90 27 215t65 231q53 144 86 165q16 10 37 10q24 0 24 -22q0 -13 -12 -42.5t-30.5 -68t-23.5 -51.5q-35 -88 -62.5 -205t-27.5 -195q0 -64 36 -64q7 0 23 5t24 5q13 0 13 -18q0 -30 -26.5 -56t-64.5 -26zM272 279q-15 0 -24.5 12.5
t-9.5 32.5q0 91 76 91q20 0 30.5 -15t10.5 -35q0 -29 -23.5 -57.5t-59.5 -28.5z" />
    <glyph glyph-name="Lslash" unicode="&#x141;" horiz-adv-x="500" 
d="M295 76q123 0 147 -21q0 -67 -56 -67q-18 0 -55 3.5t-63 3.5q-42 0 -103.5 -6.5t-76.5 -6.5q-47 2 -47 52q0 30 66 309l-40.5 -25.5t-42 -26t-25.5 -13.5q-23 -7 -36 17q-6 17 6.5 35.5t37.5 35t50 30t52 26.5q13 6 19 9l58 234q13 55 42 55q16 0 33 -22t17 -41
q0 -30 -52 -188q68 20 97 13.5t30 -40.5q-68 -12 -150 -49l-7 -25q-59 -214 -71 -305q101 13 170 13z" />
    <glyph glyph-name="lslash" unicode="&#x142;" horiz-adv-x="344" 
d="M244 107q13 0 13 -18q0 -30 -26.5 -56t-64.5 -26q-43 0 -65.5 31.5t-22.5 85.5q0 88 29 226q-62 -46 -76 -53q-23 -8 -37 15q-7 16 3.5 35t37 38.5t46.5 32l51 30.5q17 62 38 122q53 144 86 165q16 10 37 10q24 0 24 -22q0 -13 -12 -42.5t-30.5 -68t-23.5 -51.5
q-11 -27 -24 -65q75 31 109 28t37 -39q-80 -19 -171 -72q-41 -154 -41 -252q0 -64 36 -64q7 0 23 5t24 5z" />
    <glyph glyph-name="Nacute" unicode="&#x143;" horiz-adv-x="675" 
d="M369 760q-19 5 -15 23q62 18 101 45.5t81 74.5q26 -5 42.5 -21.5t9.5 -35.5q-12 -41 -90 -69t-129 -17zM625 710q23 0 23 -39q0 -98 -33.5 -261t-64.5 -246q-58 -158 -141 -158q-22 0 -32 9q-27 201 -51 309t-75 236q-60 -258 -129 -462q-38 -113 -88 -113q-35 0 -35 35
q0 12 9.5 34t28.5 61t32 69q60 140 92 293q31 144 51 184q19 38 41 38q46 0 104 -195.5t88 -416.5q50 87 89 284q14 68 38 313q26 26 53 26z" />
    <glyph glyph-name="nacute" unicode="&#x144;" horiz-adv-x="561" 
d="M266 585q-20 0 -20 19q57 31 89 65.5t64 89.5q26 2 45.5 -11t17.5 -33q-4 -43 -74 -86.5t-122 -43.5zM476 79q16 0 14 -22q-3 -25 -25 -45.5t-45 -20.5q-50 -1 -65 56t0 160q4 35 10 69t10.5 53.5t7.5 35t2.5 22t-5.5 6.5q-21 1 -72 -47.5t-98 -113.5
q-49 -69 -73.5 -117.5t-52.5 -119.5q-43 -4 -51.5 50t8.5 171q5 36 16.5 79.5t29.5 92t45.5 80.5t57.5 32q18 0 22 -9q-65 -151 -89 -295q66 106 170 211.5t156 105.5q33 0 33 -53q0 -15 -7 -50l-17.5 -88.5t-16.5 -97.5q-22 -147 11 -147q2 0 10 1t14 1z" />
    <glyph glyph-name="Ncommaaccent" unicode="&#x145;" horiz-adv-x="675" 
d="M625 710q23 0 23 -39q0 -98 -33.5 -261t-64.5 -246q-58 -158 -141 -158q-22 0 -32 9q-27 201 -51 309t-75 236q-60 -258 -129 -462q-38 -113 -88 -113q-35 0 -35 35q0 12 9.5 34t28.5 61t32 69q60 140 92 293q31 144 51 184q19 38 41 38q46 0 104 -195.5t88 -416.5
q50 87 89 284q14 68 38 313q26 26 53 26zM256 -12q23 0 36 -18t13 -47q0 -53 -36 -93t-84 -40q-22 0 -33.5 7.5t-10.5 24.5q33 1 55 18t24 36q2 30 -13 55q-4 5 -2 17q1 13 15.5 26.5t35.5 13.5z" />
    <glyph glyph-name="ncommaaccent" unicode="&#x146;" horiz-adv-x="561" 
d="M476 79q16 0 14 -22q-3 -25 -25 -45.5t-45 -20.5q-50 -1 -65 56t0 160q4 35 10 69t10.5 53.5t7.5 35t2.5 22t-5.5 6.5q-21 1 -72 -47.5t-98 -113.5q-49 -69 -73.5 -117.5t-52.5 -119.5q-43 -4 -51.5 50t8.5 171q5 36 16.5 79.5t29.5 92t45.5 80.5t57.5 32q18 0 22 -9
q-65 -151 -89 -295q66 106 170 211.5t156 105.5q33 0 33 -53q0 -15 -7 -50l-17.5 -88.5t-16.5 -97.5q-22 -147 11 -147q2 0 10 1t14 1zM224 -42q23 0 36 -18t13 -47q0 -53 -36 -93t-84 -40q-22 0 -33.5 7.5t-10.5 24.5q33 1 55 18t24 36q2 30 -13 55q-4 5 -2 17
q1 13 15.5 26.5t35.5 13.5z" />
    <glyph glyph-name="Ncaron" unicode="&#x147;" horiz-adv-x="675" 
d="M425 747q-19 29 -52.5 65t-63.5 59q7 17 30 18t55 -21t54 -50q49 43 119 67q43 16 57 3q16 -16 -14 -30q-87 -40 -149 -110q-6 -7 -18.5 -7.5t-17.5 6.5zM625 710q23 0 23 -39q0 -98 -33.5 -261t-64.5 -246q-58 -158 -141 -158q-22 0 -32 9q-27 201 -51 309t-75 236
q-60 -258 -129 -462q-38 -113 -88 -113q-35 0 -35 35q0 12 9.5 34t28.5 61t32 69q60 140 92 293q31 144 51 184q19 38 41 38q46 0 104 -195.5t88 -416.5q50 87 89 284q14 68 38 313q26 26 53 26z" />
    <glyph glyph-name="ncaron" unicode="&#x148;" horiz-adv-x="561" 
d="M503 726q10 -9 8 -15.5t-18 -16.5q-45 -25 -89 -59t-66 -60q-5 -8 -14.5 -8t-14.5 7q-17 26 -54 72t-63 72q9 20 30 21q49 2 113 -88q53 50 115 70q42 18 53 5zM476 79q16 0 14 -22q-3 -25 -25 -45.5t-45 -20.5q-50 -1 -65 56t0 160q4 35 10 69t10.5 53.5t7.5 35t2.5 22
t-5.5 6.5q-21 1 -72 -47.5t-98 -113.5q-49 -69 -73.5 -117.5t-52.5 -119.5q-43 -4 -51.5 50t8.5 171q5 36 16.5 79.5t29.5 92t45.5 80.5t57.5 32q18 0 22 -9q-65 -151 -89 -295q66 106 170 211.5t156 105.5q33 0 33 -53q0 -15 -7 -50l-17.5 -88.5t-16.5 -97.5
q-22 -147 11 -147q2 0 10 1t14 1z" />
    <glyph glyph-name="napostrophe" unicode="&#x149;" horiz-adv-x="561" 
d="M184 685q0 -53 -36 -93t-84 -40q-22 0 -33.5 7.5t-10.5 24.5q33 1 55 18t24 36q2 30 -13 55q-4 5 -2 17q1 13 15.5 26.5t35.5 13.5q23 0 36 -18t13 -47zM476 79q16 0 14 -22q-3 -25 -25 -45.5t-45 -20.5q-50 -1 -65 56t0 160q4 35 10 69t10.5 53.5t7.5 35t2.5 22
t-5.5 6.5q-21 1 -72 -47.5t-98 -113.5q-49 -69 -73.5 -117.5t-52.5 -119.5q-43 -4 -51.5 50t8.5 171q5 36 16.5 79.5t29.5 92t45.5 80.5t57.5 32q18 0 22 -9q-65 -151 -89 -295q66 106 170 211.5t156 105.5q33 0 33 -53q0 -15 -7 -50l-17.5 -88.5t-16.5 -97.5
q-22 -147 11 -147q2 0 10 1t14 1z" />
    <glyph glyph-name="Eng" unicode="&#x14a;" horiz-adv-x="678" 
d="M625 710q23 0 23 -39q0 -96 -23 -225.5t-49 -218.5q-54 -188 -101 -274q-84 -157 -196 -157q-42 0 -73.5 21t-31.5 61q0 41 30 41q10 0 21.5 -12.5t30 -24.5t43.5 -12q70 0 128 137q-49 188 -85.5 304t-90.5 249q-60 -258 -129 -462q-38 -113 -88 -113q-35 0 -35 35
q0 12 9.5 34t28.5 61t32 69q60 140 92 293q31 144 51 184q19 38 41 38q29 0 70 -91.5t77.5 -213t71.5 -268.5q39 104 62 245q14 68 38 313q26 26 53 26z" />
    <glyph glyph-name="eng" unicode="&#x14b;" horiz-adv-x="535" 
d="M449 513q33 0 33 -53q0 -75 -40 -268q-35 -170 -67 -247q-76 -184 -211 -184q-42 0 -73.5 21t-31.5 61q0 41 30 41q9 0 21 -12t30.5 -24.5t43.5 -12.5q22 0 40.5 9t33 29t25 36t20.5 46l14 42.5t12 40.5q31 121 51.5 238t-0.5 117t-72.5 -48.5t-97.5 -112.5
q-49 -69 -73.5 -117.5t-52.5 -119.5q-43 -4 -51.5 50t8.5 171q5 36 16.5 79.5t29.5 92t45.5 80.5t57.5 32q18 0 22 -9q-65 -151 -89 -295q66 106 170 211.5t156 105.5z" />
    <glyph glyph-name="Omacron" unicode="&#x14c;" horiz-adv-x="601" 
d="M287 790q-12 17 -9 43q1 25 59 35t130 5q79 -5 92 -18q11 -13 -3 -50q-143 8 -269 -15zM209 1q-60 0 -99 37.5t-52.5 85.5t-13.5 104q0 125 46 237t133.5 184.5t195.5 72.5q78 0 123.5 -62t45.5 -159q0 -77 -29 -164t-77.5 -162t-121 -124.5t-151.5 -49.5zM220 71
q68 0 137 64.5t113 163.5t44 194q0 64 -26 104.5t-79 40.5q-63 0 -117 -40.5t-87 -103.5t-51.5 -134t-18.5 -136q0 -153 85 -153z" />
    <glyph glyph-name="omacron" unicode="&#x14d;" horiz-adv-x="487" 
d="M196 610q-12 17 -9 43q1 25 59 35t130 5q79 -5 92 -18q11 -13 -3 -50q-143 8 -269 -15zM143 8q-64 0 -100.5 40.5t-36.5 109.5q0 86 39.5 167.5t109 133t148.5 51.5q70 0 110.5 -43.5t40.5 -119.5q0 -80 -42 -158.5t-115 -129.5t-154 -51zM161 72q85 0 155 89t70 175
q0 43 -21.5 71t-63.5 28q-62 0 -111.5 -49t-72.5 -110t-23 -114q0 -90 67 -90z" />
    <glyph glyph-name="Obreve" unicode="&#x14e;" horiz-adv-x="601" 
d="M409 778q-51 1 -83 33.5t-28 84.5q2 12 7 18.5t15 5.5q3 0 6 -1t5.5 -3t4 -3.5t4 -5.5t4 -6t4.5 -8t5 -9q23 -42 68 -44q53 -3 82 45q1 2 4.5 7.5l5 8t4.5 7t5.5 6.5t6 3.5t7.5 1.5q15 -1 13 -20q-3 -52 -39.5 -87t-100.5 -34zM209 1q-60 0 -99 37.5t-52.5 85.5
t-13.5 104q0 125 46 237t133.5 184.5t195.5 72.5q78 0 123.5 -62t45.5 -159q0 -77 -29 -164t-77.5 -162t-121 -124.5t-151.5 -49.5zM220 71q68 0 137 64.5t113 163.5t44 194q0 64 -26 104.5t-79 40.5q-63 0 -117 -40.5t-87 -103.5t-51.5 -134t-18.5 -136q0 -153 85 -153z
" />
    <glyph glyph-name="obreve" unicode="&#x14f;" horiz-adv-x="487" 
d="M300 587q-42 3 -73 35.5t-27 82.5q2 18 7 26.5t15 7.5q11 -1 17 -9t16 -29q23 -49 68 -52q50 -4 82 51l3.5 7t4 7.5l4 7t4.5 7t5 5t6 3.5t6 1q15 -1 13 -20q-3 -48 -47.5 -91.5t-103.5 -39.5zM143 8q-64 0 -100.5 40.5t-36.5 109.5q0 86 39.5 167.5t109 133t148.5 51.5
q70 0 110.5 -43.5t40.5 -119.5q0 -80 -42 -158.5t-115 -129.5t-154 -51zM161 72q85 0 155 89t70 175q0 43 -21.5 71t-63.5 28q-62 0 -111.5 -49t-72.5 -110t-23 -114q0 -90 67 -90z" />
    <glyph glyph-name="Ohungarumlaut" unicode="&#x150;" horiz-adv-x="601" 
d="M274 781q-19 3 -17 22q61 51 130 148q25 -2 38 -16.5t8 -34.5q-9 -43 -66.5 -83.5t-92.5 -35.5zM439 781q-9 1 -15 9t-5 16q43 30 71 57.5t54 71.5q25 -2 38.5 -16.5t8.5 -34.5q-10 -42 -63 -75t-89 -28zM209 1q-60 0 -99 37.5t-52.5 85.5t-13.5 104q0 125 46 237
t133.5 184.5t195.5 72.5q78 0 123.5 -62t45.5 -159q0 -77 -29 -164t-77.5 -162t-121 -124.5t-151.5 -49.5zM220 71q68 0 137 64.5t113 163.5t44 194q0 64 -26 104.5t-79 40.5q-63 0 -117 -40.5t-87 -103.5t-51.5 -134t-18.5 -136q0 -153 85 -153z" />
    <glyph glyph-name="ohungarumlaut" unicode="&#x151;" horiz-adv-x="487" 
d="M216 585q-20 0 -20 19q53 58 108 165q25 1 40 -11.5t13 -32.5q-4 -44 -55 -92t-86 -48zM362 585q-9 0 -16 7t-7 15q74 70 106 145q25 1 40 -11.5t13 -32.5q-4 -43 -52 -83t-84 -40zM143 8q-64 0 -100.5 40.5t-36.5 109.5q0 86 39.5 167.5t109 133t148.5 51.5
q70 0 110.5 -43.5t40.5 -119.5q0 -80 -42 -158.5t-115 -129.5t-154 -51zM161 72q85 0 155 89t70 175q0 43 -21.5 71t-63.5 28q-62 0 -111.5 -49t-72.5 -110t-23 -114q0 -90 67 -90z" />
    <glyph glyph-name="OE" unicode="&#x152;" horiz-adv-x="941" 
d="M811 694q76 0 102.5 -20.5t24.5 -50.5q-2 -31 -26 -46q-30 35 -115 35q-56 0 -94 -12.5t-62 -42t-38 -63t-28 -89.5l-15 -57q18 2 68 5t75.5 5.5t65 9.5t70.5 18q16 -13 15 -34q-1 -35 -55.5 -45.5t-138.5 -12t-116 -9.5l-16 -60q-25 -89 -11.5 -125.5t79.5 -36.5
q55 0 153.5 19t103.5 19q20 0 19 -29q-1 -27 -61 -47.5t-123.5 -28.5t-106.5 -8q-103 0 -140 36q-21 21 -19 79q-99 -102 -214 -102q-60 0 -99 37.5t-52.5 85.5t-13.5 104q0 120 45 227.5t130 177t190 69.5q62 0 103 -30.5t59 -84.5q35 45 80 68q36 20 86 29.5t75 9.5z
M219 71q68 0 134.5 65.5t108 165t41.5 196.5q0 120 -95 120q-63 0 -117 -38.5t-87 -98.5t-51.5 -127.5t-18.5 -129.5q0 -153 85 -153z" />
    <glyph glyph-name="oe" unicode="&#x153;" horiz-adv-x="808" 
d="M728 177q21 -4 16 -30q-10 -53 -82.5 -100t-170.5 -47q-46 0 -90 24t-62 78q-89 -94 -196 -94q-64 0 -100.5 40.5t-36.5 109.5q0 87 38 168t105.5 132.5t143.5 51.5q110 0 142 -98q98 93 220 93q52 0 82.5 -27t30.5 -69q0 -95 -107.5 -159t-238.5 -55v-18
q0 -49 32.5 -78.5t75.5 -29.5q57 0 104 25.5t94 82.5zM635 446q-70 0 -129.5 -57.5t-77.5 -147.5q102 -4 178 48.5t76 108.5q0 48 -47 48zM161 72q59 0 113 51t82 122q20 48 20 91t-21.5 71t-63.5 28q-45 0 -84 -28.5t-62.5 -71.5t-37 -89t-13.5 -84q0 -90 67 -90z" />
    <glyph glyph-name="Racute" unicode="&#x154;" horiz-adv-x="631" 
d="M331 760q-19 5 -15 23q62 18 101 45.5t81 74.5q26 -5 42.5 -21.5t9.5 -35.5q-12 -41 -90 -69t-129 -17zM591 489q-7 -180 -262 -232q38 -98 103 -167t135 -59q6 -32 -13.5 -53t-51.5 -21q-50 0 -109 54.5t-102 133.5t-50 148q122 14 196.5 58.5t77.5 121.5
q3 73 -55.5 116.5t-147.5 45.5q-53 -141 -88.5 -268.5t-82.5 -350.5q-3 -18 -17 -27t-28 -9q-17 0 -22 11t-5 33q0 98 55.5 293.5t107.5 307.5q-56 -13 -103 -44q-29 -20 -39 -20q-17 0 -17 22q0 36 42.5 66t97.5 44t104 14q126 0 202 -56.5t72 -161.5z" />
    <glyph glyph-name="racute" unicode="&#x155;" horiz-adv-x="346" 
d="M336 759q26 2 45.5 -11t17.5 -33q-4 -43 -74 -86.5t-122 -43.5q-20 0 -20 19q57 31 89 65.5t64 89.5zM337 498q53 0 53 -46q0 -21 -14 -36t-30 -15q-81 29 -141 -47q-65 -82 -104 -337q-35 -4 -52.5 16t-17.5 56q0 52 28 175t59 228q12 3 21 3q56 0 24 -128
q34 60 82 95.5t92 35.5z" />
    <glyph glyph-name="Rcommaaccent" unicode="&#x156;" horiz-adv-x="631" 
d="M591 489q-7 -180 -262 -232q38 -98 103 -167t135 -59q6 -32 -13.5 -53t-51.5 -21q-50 0 -109 54.5t-102 133.5t-50 148q122 14 196.5 58.5t77.5 121.5q3 73 -55.5 116.5t-147.5 45.5q-53 -141 -88.5 -268.5t-82.5 -350.5q-3 -18 -17 -27t-28 -9q-17 0 -22 11t-5 33
q0 98 55.5 293.5t107.5 307.5q-56 -13 -103 -44q-29 -20 -39 -20q-17 0 -17 22q0 36 42.5 66t97.5 44t104 14q126 0 202 -56.5t72 -161.5zM271 -32q23 0 36 -18t13 -47q0 -53 -36 -93t-84 -40q-22 0 -33.5 7.5t-10.5 24.5q33 1 55 18t24 36q2 30 -13 55q-4 5 -2 17
q1 13 15.5 26.5t35.5 13.5z" />
    <glyph glyph-name="rcommaaccent" unicode="&#x157;" horiz-adv-x="346" 
d="M337 498q53 0 53 -46q0 -21 -14 -36t-30 -15q-81 29 -141 -47q-65 -82 -104 -337q-35 -4 -52.5 16t-17.5 56q0 52 28 175t59 228q12 3 21 3q56 0 24 -128q34 60 82 95.5t92 35.5zM61 -42q23 0 36 -18t13 -47q0 -53 -36 -93t-84 -40q-22 0 -33.5 7.5t-10.5 24.5
q33 1 55 18t24 36q2 30 -13 55q-4 5 -2 17q1 13 15.5 26.5t35.5 13.5z" />
    <glyph glyph-name="Rcaron" unicode="&#x158;" horiz-adv-x="631" 
d="M387 747q-19 29 -52.5 65t-63.5 59q7 17 30 18t55 -21t54 -50q49 43 119 67q43 16 57 3q16 -16 -14 -30q-87 -40 -149 -110q-6 -7 -18.5 -7.5t-17.5 6.5zM317 707q126 0 202 -56.5t72 -161.5q-7 -180 -262 -232q38 -98 103 -167t135 -59q6 -32 -13.5 -53t-51.5 -21
q-50 0 -109 54.5t-102 133.5t-50 148q122 14 196.5 58.5t77.5 121.5q3 73 -55.5 116.5t-147.5 45.5q-53 -141 -88.5 -268.5t-82.5 -350.5q-3 -18 -17 -27t-28 -9q-17 0 -22 11t-5 33q0 98 55.5 293.5t107.5 307.5q-56 -13 -103 -44q-29 -20 -39 -20q-17 0 -17 22
q0 36 42.5 66t97.5 44t104 14z" />
    <glyph glyph-name="rcaron" unicode="&#x159;" horiz-adv-x="346" 
d="M440 726q10 -9 8 -15.5t-18 -16.5q-45 -25 -89 -59t-66 -60q-5 -8 -14.5 -8t-14.5 7q-17 26 -54 72t-63 72q9 20 30 21q49 2 113 -88q53 50 115 70q42 18 53 5zM337 498q53 0 53 -46q0 -21 -14 -36t-30 -15q-81 29 -141 -47q-65 -82 -104 -337q-35 -4 -52.5 16t-17.5 56
q0 52 28 175t59 228q12 3 21 3q56 0 24 -128q34 60 82 95.5t92 35.5z" />
    <glyph glyph-name="Sacute" unicode="&#x15a;" horiz-adv-x="487" 
d="M260 760q-19 5 -15 23q62 18 101 45.5t81 74.5q26 -5 42.5 -21.5t9.5 -35.5q-12 -41 -90 -69t-129 -17zM144 -5q-31 0 -58.5 6.5t-54 28.5t-31.5 57q-4 21 10 40q68 -47 142 -47q81 0 136 31.5t55 89.5q0 42 -27 73t-65.5 50.5l-77.5 41t-66 58t-27 88.5q0 85 69 136.5
t169 51.5q81 0 136 -31.5t55 -85.5q0 -33 -36 -33q-11 0 -24.5 10.5t-27.5 23.5t-44.5 24t-72.5 12q-61 2 -103.5 -24.5t-42.5 -72.5q0 -26 19 -49t48 -39.5t62.5 -38t62.5 -44t48 -59t19 -81.5q0 -94 -76 -155.5t-197 -61.5z" />
    <glyph glyph-name="sacute" unicode="&#x15b;" horiz-adv-x="431" 
d="M194 585q-20 0 -20 19q57 31 89 65.5t64 89.5q26 2 45.5 -11t17.5 -33q-4 -43 -74 -86.5t-122 -43.5zM161 14q-69 0 -110 25.5t-41 62.5q0 35 20 41q66 -57 134 -57q45 0 75.5 17.5t30.5 52.5q0 24 -24 41.5t-58 30t-68 27t-58 42.5t-24 67q0 65 52.5 101t134.5 36
q79 0 138.5 -35t55.5 -90q-1 -22 -19 -34.5t-38 -7.5q-6 48 -46.5 74.5t-96.5 26.5q-37 0 -62 -19.5t-25 -46.5q0 -26 22.5 -46t55 -34.5l65 -30.5t55 -42t22.5 -60q0 -70 -60 -106t-131 -36z" />
    <glyph glyph-name="Scircumflex" unicode="&#x15c;" horiz-adv-x="487" 
d="M175 751q-10 9 -8 13.5t18 14.5q45 24 91 60t70 65q6 8 15.5 8t14.5 -8q17 -30 53.5 -74t69.5 -71q-11 -21 -31 -21q-28 -1 -60.5 25.5t-58.5 61.5q-48 -45 -120 -71q-44 -12 -54 -3zM318 700q81 0 136 -31.5t55 -85.5q0 -33 -36 -33q-11 0 -24.5 10.5t-27.5 23.5
t-44.5 24t-72.5 12q-61 2 -103.5 -24.5t-42.5 -72.5q0 -26 19 -49t48 -39.5t62.5 -38t62.5 -44t48 -59t19 -81.5q0 -94 -76 -155.5t-197 -61.5q-31 0 -58.5 6.5t-54 28.5t-31.5 57q-4 21 10 40q68 -47 142 -47q81 0 136 31.5t55 89.5q0 42 -27 73t-65.5 50.5l-77.5 41
t-66 58t-27 88.5q0 85 69 136.5t169 51.5z" />
    <glyph glyph-name="scircumflex" unicode="&#x15d;" horiz-adv-x="431" 
d="M106 582q-10 8 -8 15t18 17q43 23 87.5 60.5t70.5 69.5q6 8 16 8t14 -8q71 -106 120 -154q-10 -21 -31 -21q-50 -2 -116 97q-60 -60 -117 -81q-46 -12 -54 -3zM225 501q79 0 138.5 -35t55.5 -90q-1 -22 -19 -34.5t-38 -7.5q-6 48 -46.5 74.5t-96.5 26.5q-37 0 -62 -19.5
t-25 -46.5q0 -26 22.5 -46t55 -34.5l65 -30.5t55 -42t22.5 -60q0 -70 -60 -106t-131 -36q-69 0 -110 25.5t-41 62.5q0 35 20 41q66 -57 134 -57q45 0 75.5 17.5t30.5 52.5q0 24 -24 41.5t-58 30t-68 27t-58 42.5t-24 67q0 65 52.5 101t134.5 36z" />
    <glyph glyph-name="Scedilla" unicode="&#x15e;" horiz-adv-x="487" 
d="M318 700q81 0 136 -31.5t55 -85.5q0 -33 -36 -33q-11 0 -24.5 10.5t-27.5 23.5t-44.5 24t-72.5 12q-61 2 -103.5 -24.5t-42.5 -72.5q0 -26 19 -49t48 -39.5t62.5 -38t62.5 -44t48 -59t19 -81.5q0 -81 -57.5 -139t-154.5 -73l-23 -53q6 1 17 1q38 0 60 -20.5t22 -54.5
q0 -56 -44 -86.5t-110 -30.5q-51 0 -51 18q0 19 15 30q25 -1 54 -0.5t52.5 15t23.5 40.5q0 29 -43 29q-25 0 -52 -7q-12 -3 -15.5 8.5t0.5 20.5l35 85h-2q-31 0 -58.5 6.5t-54 28.5t-31.5 57q-4 21 10 40q68 -47 142 -47q81 0 136 31.5t55 89.5q0 42 -27 73t-65.5 50.5
l-77.5 41t-66 58t-27 88.5q0 85 69 136.5t169 51.5z" />
    <glyph glyph-name="scedilla" unicode="&#x15f;" horiz-adv-x="431" 
d="M225 501q79 0 138.5 -35t55.5 -90q-1 -22 -19 -34.5t-38 -7.5q-6 48 -46.5 74.5t-96.5 26.5q-37 0 -62 -19.5t-25 -46.5q0 -26 22.5 -46t55 -34.5l65 -30.5t55 -42t22.5 -60q0 -64 -50.5 -99.5t-117.5 -41.5l-30 -68q6 1 17 1q38 0 60 -20.5t22 -54.5q0 -56 -44 -86.5
t-110 -30.5q-51 0 -51 18q0 19 15 30q25 -1 54 -0.5t52.5 15t23.5 40.5q0 29 -43 29q-25 0 -52 -7q-12 -3 -15.5 8.5t0.5 20.5l44 106q-54 6 -85.5 30t-31.5 56q0 35 20 41q66 -57 134 -57q45 0 75.5 17.5t30.5 52.5q0 24 -24 41.5t-58 30t-68 27t-58 42.5t-24 67
q0 65 52.5 101t134.5 36z" />
    <glyph glyph-name="Scaron" unicode="&#x160;" horiz-adv-x="487" 
d="M515 888q16 -16 -14 -30q-87 -40 -149 -110q-6 -7 -18.5 -7.5t-17.5 6.5q-19 29 -52.5 65t-63.5 59q7 17 30 18t55 -21t54 -50q49 43 119 67q43 16 57 3zM318 700q81 0 136 -31.5t55 -85.5q0 -33 -36 -33q-11 0 -24.5 10.5t-27.5 23.5t-44.5 24t-72.5 12
q-61 2 -103.5 -24.5t-42.5 -72.5q0 -26 19 -49t48 -39.5t62.5 -38t62.5 -44t48 -59t19 -81.5q0 -94 -76 -155.5t-197 -61.5q-31 0 -58.5 6.5t-54 28.5t-31.5 57q-4 21 10 40q68 -47 142 -47q81 0 136 31.5t55 89.5q0 42 -27 73t-65.5 50.5l-77.5 41t-66 58t-27 88.5
q0 85 69 136.5t169 51.5z" />
    <glyph glyph-name="scaron" unicode="&#x161;" horiz-adv-x="431" 
d="M431 726q10 -9 8 -15.5t-18 -16.5q-45 -25 -89 -59t-66 -60q-5 -8 -14.5 -8t-14.5 7q-17 26 -54 72t-63 72q9 20 30 21q49 2 113 -88q53 50 115 70q42 18 53 5zM225 501q79 0 138.5 -35t55.5 -90q-1 -22 -19 -34.5t-38 -7.5q-6 48 -46.5 74.5t-96.5 26.5q-37 0 -62 -19.5
t-25 -46.5q0 -26 22.5 -46t55 -34.5l65 -30.5t55 -42t22.5 -60q0 -70 -60 -106t-131 -36q-69 0 -110 25.5t-41 62.5q0 35 20 41q66 -57 134 -57q45 0 75.5 17.5t30.5 52.5q0 24 -24 41.5t-58 30t-68 27t-58 42.5t-24 67q0 65 52.5 101t134.5 36z" />
    <glyph glyph-name="uni0162" unicode="&#x162;" horiz-adv-x="504" 
d="M398 694q146 -3 188 -22q24 -11 24 -27q0 -15 -8.5 -21t-28.5 -6q-15 0 -64.5 5.5t-112.5 6.5l-33 -125.5t-39 -153.5t-28 -126q-25 -121 -30 -209q-1 -21 -54 -21q-38 0 -38 40q0 21 4.5 48.5t9.5 47l16.5 62.5l17.5 66q7 28 28 101.5t36 138t25 129.5
q-52 -4 -100.5 -16.5t-77.5 -22.5t-37 -10q-34 0 -34 34q0 43 47 55q112 29 289 26zM218 -42q23 0 36 -18t13 -47q0 -53 -36 -93t-84 -40q-22 0 -33.5 7.5t-10.5 24.5q33 1 55 18t24 36q2 30 -13 55q-4 5 -2 17q1 13 15.5 26.5t35.5 13.5z" />
    <glyph glyph-name="uni0163" unicode="&#x163;" horiz-adv-x="456" 
d="M461 433q-81 15 -227 3q-54 -212 -54 -296q0 -15 1 -24t6 -22.5t18 -20t33 -6.5q62 0 142 77q13 -2 21.5 -9.5t8.5 -17.5q0 -5 -7 -16q-34 -52 -92 -80t-111 -28q-106 0 -106 128q0 68 54 304q-17 -3 -47.5 -10t-49.5 -11t-30 -4q-26 0 -24 38q1 51 170 64q38 153 62 211
q5 3 14 3q20 0 32 -11t14.5 -21t2.5 -20q0 -8 -3.5 -22.5t-9.5 -35.5t-8 -29l-19 -71q136 4 180.5 -11.5t28.5 -61.5zM199 -42q23 0 36 -18t13 -47q0 -53 -36 -93t-84 -40q-22 0 -33.5 7.5t-10.5 24.5q33 1 55 18t24 36q2 30 -13 55q-4 5 -2 17q1 13 15.5 26.5t35.5 13.5z
" />
    <glyph glyph-name="Tcaron" unicode="&#x164;" horiz-adv-x="504" 
d="M346 747q-19 29 -52.5 65t-63.5 59q7 17 30 18t55 -21t54 -50q49 43 119 67q43 16 57 3q16 -16 -14 -30q-87 -40 -149 -110q-6 -7 -18.5 -7.5t-17.5 6.5zM398 694q146 -3 188 -22q24 -11 24 -27q0 -15 -8.5 -21t-28.5 -6q-15 0 -64.5 5.5t-112.5 6.5l-33 -125.5
t-39 -153.5t-28 -126q-25 -121 -30 -209q-1 -21 -54 -21q-38 0 -38 40q0 21 4.5 48.5t9.5 47l16.5 62.5l17.5 66q7 28 28 101.5t36 138t25 129.5q-52 -4 -100.5 -16.5t-77.5 -22.5t-37 -10q-34 0 -34 34q0 43 47 55q112 29 289 26z" />
    <glyph glyph-name="tcaron" unicode="&#x165;" horiz-adv-x="487" 
d="M354 600q33 6 53 26t18 39q-2 30 -20 53q-5 5 -5 17q-1 13 12 28.5t34 18.5q23 3 38.5 -13.5t19.5 -44.5q7 -53 -23.5 -98t-78.5 -52q-45 -6 -48 26zM252 506q136 4 180.5 -11.5t28.5 -61.5q-81 15 -227 3q-54 -212 -54 -296q0 -15 1 -24t6 -22.5t18 -20t33 -6.5
q62 0 142 77q13 -2 21.5 -9.5t8.5 -17.5q0 -5 -7 -16q-34 -52 -92 -80t-111 -28q-106 0 -106 128q0 68 54 304q-17 -3 -47.5 -10t-49.5 -11t-30 -4q-26 0 -24 38q1 51 170 64q38 153 62 211q5 3 14 3q20 0 32 -11t14.5 -21t2.5 -20q0 -8 -3.5 -22.5t-9.5 -35.5t-8 -29z" />
    <glyph glyph-name="Tbar" unicode="&#x166;" horiz-adv-x="543" 
d="M398 694q146 -3 188 -22q24 -11 24 -27q0 -15 -8.5 -21t-28.5 -6q-15 0 -64.5 5.5t-112.5 6.5l-61 -233q121 2 162 -13.5t25 -60.5q-78 14 -204 4q-3 -15 -10.5 -49l-11.5 -53q-25 -121 -30 -209q-1 -21 -54 -21q-38 0 -38 40q0 21 4.5 48.5t9.5 47l16.5 62.5l17.5 66
l15 57q-17 -3 -46 -10.5t-48.5 -11.5t-30.5 -4q-26 0 -24 38q0 17 15.5 29.5t45.5 19.5t52.5 10t57.5 6q38 138 52 235q-52 -4 -100.5 -16.5t-77.5 -22.5t-37 -10q-34 0 -34 34q0 43 47 55q112 29 289 26z" />
    <glyph glyph-name="tbar" unicode="&#x167;" horiz-adv-x="487" 
d="M482 433q-79 15 -225 3l-23 -112q114 6 153 -8t26 -60q-73 12 -191 -2q-11 -69 -11 -114q0 -15 1 -24t6 -22.5t18 -20t33 -6.5q58 0 132 77q13 -2 21.5 -9.5t8.5 -17.5q0 -5 -7 -16q-32 -52 -87.5 -80t-105.5 -28q-106 0 -106 128q0 39 14 118q-18 -4 -45 -11.5
l-46.5 -12.5t-30.5 -6q-27 0 -25 38q0 17 14.5 29.5t42 20t49.5 11.5t54 8q16 82 22 110l-49 -11t-51.5 -11t-31.5 -4q-26 0 -24 38q1 53 173 64q38 161 59 211q5 3 14 3q20 0 32 -11t14.5 -21t2.5 -20q0 -8 -3.5 -22.5t-9.5 -35.5t-8 -29q-8 -29 -18 -71q136 4 180 -11.5
t28 -61.5z" />
    <glyph glyph-name="Utilde" unicode="&#x168;" horiz-adv-x="620" 
d="M290 748q-33 8 -33 42q0 37 27 60.5t64 23.5q35 0 77 -31t57 -31q52 0 54 64q31 -9 31 -44q0 -24 -10.5 -41.5t-26.5 -25.5t-28.5 -11t-22.5 -3q-33 0 -71 29t-60 29q-40 0 -58 -61zM244 -15q-85 0 -130 54.5t-45 158.5q0 95 39 245.5t86 236.5q11 5 24 5q38 0 38 -51
q0 -12 -3.5 -28t-7.5 -29t-14 -43l-16 -49q-19 -52 -36 -131t-17 -139q0 -71 25 -110t73 -39q41 0 75.5 20t60.5 60.5t45.5 85.5t36.5 113t28 123t24 135q12 73 19 86q13 22 51 23q17 0 25 -8q-14 -95 -27.5 -168t-32 -151t-39.5 -135t-49.5 -109t-62 -85t-76.5 -52t-94 -19
z" />
    <glyph glyph-name="utilde" unicode="&#x169;" horiz-adv-x="548" 
d="M196 589q-33 8 -33 42q0 37 27 60.5t64 23.5q35 0 77 -31t57 -31q52 0 54 64q31 -9 31 -44q0 -24 -10.5 -41.5t-26.5 -25.5t-28.5 -11t-22.5 -3q-33 0 -71 29t-60 29q-40 0 -58 -61zM497 458q-2 -10 -16.5 -51t-27 -99t-15.5 -131q-1 -78 32 -130q-7 -13 -21 -23t-28 -10
q-50 0 -65 62.5t11 190.5q-125 -256 -254 -256q-81 0 -81 116q0 83 38.5 201.5t73.5 178.5q55 -3 55 -46q0 -14 -19.5 -64t-39.5 -115.5t-20 -117.5q0 -71 32 -71q20 0 41.5 15.5t44 45t42 59t41 72.5l35 69.5t31 65t20.5 45.5q22 44 49 43q14 0 28.5 -20t12.5 -30z" />
    <glyph glyph-name="Umacron" unicode="&#x16a;" horiz-adv-x="620" 
d="M277 760q-12 17 -9 43q1 25 59 35t130 5q79 -5 92 -18q11 -13 -3 -50q-143 8 -269 -15zM244 -15q-85 0 -130 54.5t-45 158.5q0 95 39 245.5t86 236.5q11 5 24 5q38 0 38 -51q0 -12 -3.5 -28t-7.5 -29t-14 -43l-16 -49q-19 -52 -36 -131t-17 -139q0 -71 25 -110t73 -39
q41 0 75.5 20t60.5 60.5t45.5 85.5t36.5 113t28 123t24 135q12 73 19 86q13 22 51 23q17 0 25 -8q-14 -95 -27.5 -168t-32 -151t-39.5 -135t-49.5 -109t-62 -85t-76.5 -52t-94 -19z" />
    <glyph glyph-name="umacron" unicode="&#x16b;" horiz-adv-x="548" 
d="M477 625q-143 8 -269 -15q-12 17 -9 43q1 25 59 35t130 5q79 -5 92 -18q11 -13 -3 -50zM497 458q-2 -10 -16.5 -51t-27 -99t-15.5 -131q-1 -78 32 -130q-7 -13 -21 -23t-28 -10q-50 0 -65 62.5t11 190.5q-125 -256 -254 -256q-81 0 -81 116q0 83 38.5 201.5t73.5 178.5
q55 -3 55 -46q0 -14 -19.5 -64t-39.5 -115.5t-20 -117.5q0 -71 32 -71q20 0 41.5 15.5t44 45t42 59t41 72.5l35 69.5t31 65t20.5 45.5q22 44 49 43q14 0 28.5 -20t12.5 -30z" />
    <glyph glyph-name="Ubreve" unicode="&#x16c;" horiz-adv-x="620" 
d="M399 748q-51 1 -83 33.5t-28 84.5q2 12 7 18.5t15 5.5q3 0 6 -1t5.5 -3t4 -3.5t4 -5.5t4 -6t4.5 -8t5 -9q23 -42 68 -44q53 -3 82 45q1 2 4.5 7.5l5 8t4.5 7t5.5 6.5t6 3.5t7.5 1.5q15 -1 13 -20q-3 -52 -39.5 -87t-100.5 -34zM244 -15q-85 0 -130 54.5t-45 158.5
q0 95 39 245.5t86 236.5q11 5 24 5q38 0 38 -51q0 -12 -3.5 -28t-7.5 -29t-14 -43l-16 -49q-19 -52 -36 -131t-17 -139q0 -71 25 -110t73 -39q41 0 75.5 20t60.5 60.5t45.5 85.5t36.5 113t28 123t24 135q12 73 19 86q13 22 51 23q17 0 25 -8q-14 -95 -27.5 -168t-32 -151
t-39.5 -135t-49.5 -109t-62 -85t-76.5 -52t-94 -19z" />
    <glyph glyph-name="ubreve" unicode="&#x16d;" horiz-adv-x="548" 
d="M312 587q-42 3 -73 35.5t-27 82.5q2 18 7 26.5t15 7.5q11 -1 17 -9t16 -29q23 -49 68 -52q50 -4 82 51l3.5 7t4 7.5l4 7t4.5 7t5 5t6 3.5t6 1q15 -1 13 -20q-3 -48 -47.5 -91.5t-103.5 -39.5zM497 458q-2 -10 -16.5 -51t-27 -99t-15.5 -131q-1 -78 32 -130
q-7 -13 -21 -23t-28 -10q-50 0 -65 62.5t11 190.5q-125 -256 -254 -256q-81 0 -81 116q0 83 38.5 201.5t73.5 178.5q55 -3 55 -46q0 -14 -19.5 -64t-39.5 -115.5t-20 -117.5q0 -71 32 -71q20 0 41.5 15.5t44 45t42 59t41 72.5l35 69.5t31 65t20.5 45.5q22 44 49 43
q14 0 28.5 -20t12.5 -30z" />
    <glyph glyph-name="Uring" unicode="&#x16e;" horiz-adv-x="620" 
d="M386 751q-29 0 -48.5 18t-19.5 53q0 57 48.5 103t117.5 46q33 0 54 -18.5t21 -50.5q0 -58 -54 -104.5t-119 -46.5zM410 800q37 0 65.5 28.5t28.5 57.5q0 19 -11 28t-25 9q-40 0 -67 -26.5t-27 -59.5q0 -16 10 -26.5t26 -10.5zM244 -15q-85 0 -130 54.5t-45 158.5
q0 95 39 245.5t86 236.5q11 5 24 5q38 0 38 -51q0 -12 -3.5 -28t-7.5 -29t-14 -43l-16 -49q-19 -52 -36 -131t-17 -139q0 -71 25 -110t73 -39q41 0 75.5 20t60.5 60.5t45.5 85.5t36.5 113t28 123t24 135q12 73 19 86q13 22 51 23q17 0 25 -8q-14 -95 -27.5 -168t-32 -151
t-39.5 -135t-49.5 -109t-62 -85t-76.5 -52t-94 -19z" />
    <glyph glyph-name="uring" unicode="&#x16f;" horiz-adv-x="548" 
d="M286 571q-29 0 -48.5 18t-19.5 53q0 57 48.5 103t117.5 46q33 0 54 -18.5t21 -50.5q0 -58 -54 -104.5t-119 -46.5zM368 743q-40 0 -67 -26.5t-27 -59.5q0 -16 10 -26.5t26 -10.5q37 0 65.5 28.5t28.5 57.5q0 19 -11 28t-25 9zM497 458q-2 -10 -16.5 -51t-27 -99
t-15.5 -131q-1 -78 32 -130q-7 -13 -21 -23t-28 -10q-50 0 -65 62.5t11 190.5q-125 -256 -254 -256q-81 0 -81 116q0 83 38.5 201.5t73.5 178.5q55 -3 55 -46q0 -14 -19.5 -64t-39.5 -115.5t-20 -117.5q0 -71 32 -71q20 0 41.5 15.5t44 45t42 59t41 72.5l35 69.5t31 65
t20.5 45.5q22 44 49 43q14 0 28.5 -20t12.5 -30z" />
    <glyph glyph-name="Uhungarumlaut" unicode="&#x170;" horiz-adv-x="620" 
d="M264 751q-19 3 -17 22q61 51 130 148q25 -2 38 -16.5t8 -34.5q-9 -43 -66.5 -83.5t-92.5 -35.5zM429 751q-9 1 -15 9t-5 16q43 30 71 57.5t54 71.5q25 -2 38.5 -16.5t8.5 -34.5q-10 -42 -63 -75t-89 -28zM244 -15q-85 0 -130 54.5t-45 158.5q0 95 39 245.5t86 236.5
q11 5 24 5q38 0 38 -51q0 -12 -3.5 -28t-7.5 -29t-14 -43l-16 -49q-19 -52 -36 -131t-17 -139q0 -71 25 -110t73 -39q41 0 75.5 20t60.5 60.5t45.5 85.5t36.5 113t28 123t24 135q12 73 19 86q13 22 51 23q17 0 25 -8q-14 -95 -27.5 -168t-32 -151t-39.5 -135t-49.5 -109
t-62 -85t-76.5 -52t-94 -19z" />
    <glyph glyph-name="uhungarumlaut" unicode="&#x171;" horiz-adv-x="548" 
d="M228 585q-20 0 -20 19q53 58 108 165q25 1 40 -11.5t13 -32.5q-4 -44 -55 -92t-86 -48zM457 752q25 1 40 -11.5t13 -32.5q-4 -43 -52 -83t-84 -40q-9 0 -16 7t-7 15q74 70 106 145zM456 508q14 0 28.5 -20t12.5 -30t-16.5 -51t-27 -99t-15.5 -131q-1 -78 32 -130
q-7 -13 -21 -23t-28 -10q-50 0 -65 62.5t11 190.5q-125 -256 -254 -256q-81 0 -81 116q0 83 38.5 201.5t73.5 178.5q55 -3 55 -46q0 -14 -19.5 -64t-39.5 -115.5t-20 -117.5q0 -71 32 -71q20 0 41.5 15.5t44 45t42 59t41 72.5l35 69.5t31 65t20.5 45.5q22 44 49 43z" />
    <glyph glyph-name="Uogonek" unicode="&#x172;" horiz-adv-x="621" 
d="M595 712q17 0 25 -8q-39 -261 -89 -423.5t-136 -237.5q-144 -116 -144 -175q0 -31 31 -31q26 0 61 20q14 9 25.5 -6t-0.5 -27q-52 -49 -122 -49q-37 0 -59.5 16t-21.5 54q1 33 28.5 73.5t67.5 75.5q-7 -1 -22 -1q-175 0 -175 205q0 95 39 245.5t86 236.5q11 5 24 5
q38 0 38 -51q0 -12 -3.5 -28t-7.5 -29t-14 -43l-16 -49q-19 -52 -36 -131t-17 -139q0 -71 25 -110t73 -39q41 0 75.5 20t60.5 60.5t45.5 85.5t36.5 113t28 123t24 135q12 73 19 86q13 22 51 23z" />
    <glyph glyph-name="uogonek" unicode="&#x173;" horiz-adv-x="548" 
d="M497 458q-2 -10 -16.5 -51t-27 -99t-15.5 -131q-1 -78 32 -130l-43 -35.5t-46 -42t-46.5 -55t-15.5 -46.5q0 -31 31 -31q26 0 61 20q14 9 25.5 -6t-0.5 -27q-52 -49 -122 -49q-37 0 -59.5 16t-21.5 54q1 44 48.5 98t99.5 86q-54 49 -14 238q-125 -256 -254 -256
q-81 0 -81 116q0 83 38.5 201.5t73.5 178.5q55 -3 55 -46q0 -14 -19.5 -64t-39.5 -115.5t-20 -117.5q0 -71 32 -71q20 0 41.5 15.5t44 45t42 59t41 72.5l35 69.5t31 65t20.5 45.5q22 44 49 43q14 0 28.5 -20t12.5 -30z" />
    <glyph glyph-name="Wcircumflex" unicode="&#x174;" horiz-adv-x="851" 
d="M398 751q-10 9 -8 13.5t18 14.5q45 24 91 60t70 65q6 8 15.5 8t14.5 -8q17 -30 53.5 -74t69.5 -71q-10 -21 -31 -21q-28 -1 -60.5 25.5t-58.5 61.5q-48 -45 -120 -71q-44 -12 -54 -3zM841 718q16 0 16 -35q0 -111 -53 -308q-11 -39 -22.5 -75.5t-35.5 -92.5t-50 -96
t-64 -69.5t-78 -29.5q-42 0 -70 27t-37.5 66.5t-14 83.5t0.5 77q-42 -105 -124.5 -187.5t-150.5 -82.5q-116 0 -116 162q0 106 53.5 269.5t125.5 277.5q25 34 42 34q12 0 24 -19t12 -35q0 -15 -19 -52.5l-47 -91t-42 -92.5q-61 -168 -61 -257q0 -26 1 -41t5.5 -36t16 -31
t30.5 -10q50 0 115.5 88.5t140.5 269.5l14 35l13.5 33t12 26t14 22t15.5 12.5t20 5.5q16 0 16 -18.5t-10 -58.5q-3 -12 -4.5 -19.5l-4 -20t-4.5 -24.5q-21 -96 -9 -208t55 -112q40 0 83 60t73 164q10 35 18 76t12 67t11 84t11 85q5 39 25 61q18 16 41 16z" />
    <glyph glyph-name="wcircumflex" unicode="&#x175;" horiz-adv-x="682" 
d="M267 582q-10 8 -8 15t18 17q43 23 87.5 60.5t70.5 69.5q6 8 16 8t14 -8q71 -106 120 -154q-11 -21 -31 -21q-50 -2 -116 97q-60 -60 -117 -81q-46 -12 -54 -3zM626 504q34 0 34 -38q0 -96 -44 -217q-35 -98 -94.5 -167.5t-115.5 -69.5q-30 0 -54 39.5t-24 105.5
q0 29 3 60q-39 -90 -101 -158.5t-119 -67.5q-34 1 -58 34.5t-24 110.5q0 68 22.5 154.5t62.5 153t82 66.5q31 0 31 -20q0 -9 -28 -53q-86 -132 -86 -282q0 -83 31 -83q36 0 90 83.5t101 201.5q6 14 12.5 33.5t9.5 26.5t8.5 15.5t11 11t15.5 2.5q32 0 32 -30q0 -4 -3 -25
q-24 -158 -22 -212q2 -84 42 -84q28 0 60 50t52 116q20 64 25.5 105t5.5 100q0 38 42 38z" />
    <glyph glyph-name="Ycircumflex" unicode="&#x176;" horiz-adv-x="585" 
d="M266 791q-10 9 -8 13.5t18 14.5q45 24 91 60t70 65q6 8 15.5 8t14.5 -8q17 -30 53.5 -74t69.5 -71q-10 -21 -31 -21q-28 -1 -60.5 25.5t-58.5 61.5q-48 -45 -120 -71q-44 -12 -54 -3zM563 716q19 -2 30 -14t7 -29l-62 -277q-12 -55 -21.5 -91t-25 -84t-31.5 -79t-41 -65
t-53.5 -53t-67.5 -31.5t-86 -12.5q-62 0 -114 27t-52 61q0 45 45 45q14 0 29 -10t27.5 -22.5t37.5 -23t56 -10.5q34 0 64 17.5t53.5 53t42.5 74.5t35.5 94t27.5 98.5t23 100.5q-65 -135 -125.5 -184.5t-121.5 -49.5t-97 50.5t-36 139.5q0 122 55 234q30 61 75 61
q26 0 37 -17q-39 -56 -58 -129t-19 -136q0 -136 63 -136q46 0 98.5 60.5t87.5 129t58 132.5l17 48q10 30 42 28z" />
    <glyph glyph-name="ycircumflex" unicode="&#x177;" horiz-adv-x="568" 
d="M395 744q71 -106 120 -154q-11 -21 -31 -21q-50 -2 -116 97q-60 -60 -117 -81q-46 -12 -54 -3q-10 8 -8 15t18 17q43 23 87.5 60.5t70.5 69.5q6 8 16 8t14 -8zM467 497q16 0 27 -24t11 -47q0 -81 -48 -290q-19 -84 -40 -141t-57 -112.5t-91.5 -83.5t-130.5 -28
q-65 0 -128.5 25.5t-63.5 62.5q0 14 9 24t23 10q18 0 75.5 -26t95.5 -26q46 0 82.5 21t61 53.5t45 85t33 101t25.5 116.5q-51 -91 -127.5 -156t-135.5 -65q-43 0 -64.5 41t-21.5 109q0 111 43.5 236.5t94.5 125.5q20 0 28.5 -8.5t7.5 -23.5q-1 -13 -12 -38
q-34 -77 -58 -165.5t-24 -153.5q0 -50 24 -50q71 0 159.5 124t132.5 280q6 23 24 23z" />
    <glyph glyph-name="Ydieresis" unicode="&#x178;" horiz-adv-x="585" 
d="M498 800q-15 0 -25.5 12.5t-10.5 31.5q0 43 21.5 62t51.5 19q20 0 30 -14t10 -32q0 -27 -21 -53t-56 -26zM314 790q-42 0 -42 53q0 44 20.5 59t51.5 15q41 0 41 -45q0 -27 -21 -54.5t-50 -27.5zM563 716q19 -2 30 -14t7 -29l-62 -277q-12 -55 -21.5 -91t-25 -84
t-31.5 -79t-41 -65t-53.5 -53t-67.5 -31.5t-86 -12.5q-62 0 -114 27t-52 61q0 45 45 45q14 0 29 -10t27.5 -22.5t37.5 -23t56 -10.5q34 0 64 17.5t53.5 53t42.5 74.5t35.5 94t27.5 98.5t23 100.5q-65 -135 -125.5 -184.5t-121.5 -49.5t-97 50.5t-36 139.5q0 122 55 234
q30 61 75 61q26 0 37 -17q-39 -56 -58 -129t-19 -136q0 -136 63 -136q46 0 98.5 60.5t87.5 129t58 132.5l17 48q10 30 42 28z" />
    <glyph glyph-name="Zacute" unicode="&#x179;" horiz-adv-x="607" 
d="M331 760q-19 5 -15 23q62 18 101 45.5t81 74.5q26 -5 42.5 -21.5t9.5 -35.5q-12 -41 -90 -69t-129 -17zM346 326q-157 -144 -219 -236q96 -9 163 -6q96 4 153.5 17.5t67.5 13.5q32 0 32 -31q0 -40 -78.5 -60.5t-176.5 -22.5q-107 -2 -184.5 13.5t-77.5 55.5q0 28 60 98
t150 155l168.5 154.5l141.5 122.5q-69 18 -176 20q-157 2 -216 -75q-19 3 -29.5 14.5t-10.5 25.5q0 51 76 78t175 27q253 0 253 -82q0 -17 -14 -39t-43.5 -50.5l-58.5 -54.5l-76 -66.5t-80 -71.5z" />
    <glyph glyph-name="zacute" unicode="&#x17a;" horiz-adv-x="502" 
d="M231 585q-20 0 -20 19q57 31 89 65.5t64 89.5q26 2 45.5 -11t17.5 -33q-4 -43 -74 -86.5t-122 -43.5zM394 136q28 9 43.5 6.5t15.5 -24.5q0 -12 -4 -28q-7 -30 -103.5 -45t-196.5 -17q-143 -4 -143 46q0 8 3.5 16t13.5 19.5t19.5 21t29.5 26.5l35 29l45 36l51 41
q108 88 176 160q-137 26 -269 -23q-20 4 -32 20.5t-12 36.5q0 15 19 25.5t49.5 15t54.5 6t47 1.5q75 0 125.5 -9t71.5 -22t21 -30q0 -77 -344 -336q21 -2 83 -2q72 0 201 30z" />
    <glyph glyph-name="Zdotaccent" unicode="&#x17b;" horiz-adv-x="607" 
d="M378 752q-15 0 -24.5 12.5t-9.5 32.5q0 91 76 91q20 0 30.5 -15t10.5 -35q0 -29 -23.5 -57.5t-59.5 -28.5zM346 326q-157 -144 -219 -236q96 -9 163 -6q96 4 153.5 17.5t67.5 13.5q32 0 32 -31q0 -40 -78.5 -60.5t-176.5 -22.5q-107 -2 -184.5 13.5t-77.5 55.5
q0 28 60 98t150 155l168.5 154.5l141.5 122.5q-69 18 -176 20q-157 2 -216 -75q-19 3 -29.5 14.5t-10.5 25.5q0 51 76 78t175 27q253 0 253 -82q0 -17 -14 -39t-43.5 -50.5l-58.5 -54.5l-76 -66.5t-80 -71.5z" />
    <glyph glyph-name="zdotaccent" unicode="&#x17c;" horiz-adv-x="502" 
d="M280 585q-15 0 -24.5 12.5t-9.5 32.5q0 91 76 91q20 0 30.5 -15t10.5 -35q0 -29 -23.5 -57.5t-59.5 -28.5zM394 136q28 9 43.5 6.5t15.5 -24.5q0 -12 -4 -28q-7 -30 -103.5 -45t-196.5 -17q-143 -4 -143 46q0 8 3.5 16t13.5 19.5t19.5 21t29.5 26.5l35 29l45 36l51 41
q108 88 176 160q-137 26 -269 -23q-20 4 -32 20.5t-12 36.5q0 15 19 25.5t49.5 15t54.5 6t47 1.5q75 0 125.5 -9t71.5 -22t21 -30q0 -77 -344 -336q21 -2 83 -2q72 0 201 30z" />
    <glyph glyph-name="Zcaron" unicode="&#x17d;" horiz-adv-x="607" 
d="M387 747q-19 29 -52.5 65t-63.5 59q7 17 30 18t55 -21t54 -50q49 43 119 67q43 16 57 3q16 -16 -14 -30q-87 -40 -149 -110q-6 -7 -18.5 -7.5t-17.5 6.5zM346 326q-157 -144 -219 -236q96 -9 163 -6q96 4 153.5 17.5t67.5 13.5q32 0 32 -31q0 -40 -78.5 -60.5
t-176.5 -22.5q-107 -2 -184.5 13.5t-77.5 55.5q0 28 60 98t150 155l168.5 154.5l141.5 122.5q-69 18 -176 20q-157 2 -216 -75q-19 3 -29.5 14.5t-10.5 25.5q0 51 76 78t175 27q253 0 253 -82q0 -17 -14 -39t-43.5 -50.5l-58.5 -54.5l-76 -66.5t-80 -71.5z" />
    <glyph glyph-name="zcaron" unicode="&#x17e;" horiz-adv-x="502" 
d="M468 726q10 -9 8 -15.5t-18 -16.5q-45 -25 -89 -59t-66 -60q-5 -8 -14.5 -8t-14.5 7q-17 26 -54 72t-63 72q9 20 30 21q49 2 113 -88q53 50 115 70q42 18 53 5zM454 444q0 -77 -344 -336q21 -2 83 -2q72 0 201 30q28 9 43.5 6.5t15.5 -24.5q0 -12 -4 -28
q-7 -30 -103.5 -45t-196.5 -17q-143 -4 -143 46q0 8 3.5 16t13.5 19.5t19.5 21t29.5 26.5l35 29l45 36l51 41q108 88 176 160q-137 26 -269 -23q-20 4 -32 20.5t-12 36.5q0 15 19 25.5t49.5 15t54.5 6t47 1.5q75 0 125.5 -9t71.5 -22t21 -30z" />
    <glyph glyph-name="longs" unicode="&#x17f;" horiz-adv-x="360" 
d="M409 745q43 0 77.5 -17.5t34.5 -48.5q0 -16 -10.5 -26t-24.5 -10q-6 0 -33 18q-30 21 -63 21q-61 0 -93 -61t-66 -232l-51 -258q-5 -27 -9 -43t-11.5 -37.5t-19 -32t-26.5 -10.5q-50 0 -37 62l64 297l9 39q-28 -5 -60.5 -12.5t-45.5 -7.5q-30 0 -24 39q6 36 147 52
q40 143 94.5 205.5t147.5 62.5z" />
    <glyph glyph-name="florin" unicode="&#x192;" horiz-adv-x="484" 
d="M456 700q35 0 63.5 -17.5t28.5 -48.5q0 -16 -10.5 -26t-24.5 -10q-15 0 -34 19.5t-42 19.5q-53 0 -83.5 -45t-59.5 -169q110 11 152 -2t25 -60q-53 9 -192 -7l-6 -28l-24 -128q-36 -168 -87.5 -241.5t-150.5 -73.5q-36 0 -69 17.5t-33 48.5q0 16 10.5 26t24.5 10
q16 0 43.5 -19.5t42.5 -19.5q56 0 80 47.5t48 182.5l30 146l5 23q-30 -4 -64.5 -11.5t-46.5 -7.5q-30 0 -24 39q6 37 151 50q39 152 95.5 218.5t151.5 66.5z" />
    <glyph glyph-name="uni01CD" unicode="&#x1cd;" horiz-adv-x="592" 
d="M644 898q16 -16 -14 -30q-87 -40 -149 -110q-6 -7 -18.5 -7.5t-17.5 6.5q-19 29 -52.5 65t-63.5 59q7 17 30 18t55 -21t54 -50q49 43 119 67q43 16 57 3zM503 306q26 -3 34 -12.5t8 -23.5q0 -15 -38 -15q-36 0 -54 -1q1 -88 19 -205q-9 -19 -31 -34t-39 -15q-20 0 -25 45
q-11 96 -10 202q-126 -15 -236 -65q-51 -106 -89 -212q-19 0 -31 3.5t-16.5 12t-5.5 14.5t-1 17q0 47 99 222t212.5 331.5t148.5 156.5q17 0 27 -9q-22 -165 -22 -409q26 0 50 -3zM384 590q-108 -129 -213 -328q94 32 198 43q7 189 15 285z" />
    <glyph glyph-name="uni01CE" unicode="&#x1ce;" horiz-adv-x="552" 
d="M535 726q10 -9 8 -15.5t-18 -16.5q-45 -25 -89 -59t-66 -60q-5 -8 -14.5 -8t-14.5 7q-17 26 -54 72t-63 72q9 20 30 21q49 2 113 -88q53 50 115 70q42 18 53 5zM461 487q20 0 30 -17t1 -38q-34 -76 -58.5 -162t-24.5 -135q-2 -44 21 -44q9 0 23 7t19 7q12 0 12 -22
q0 -29 -29 -53t-67 -24q-81 0 -54 153q-41 -71 -100.5 -114t-128.5 -43q-48 0 -77 30.5t-29 77.5q0 92 52.5 184t129.5 149t147 57q59 0 53 -54q-33 5 -60 -1q-89 -18 -158 -113.5t-69 -182.5q0 -78 48 -78q38 0 76 29t69.5 77t54.5 93.5t42 93.5q11 28 16.5 40.5t17 36.5
t22 35t21.5 11z" />
    <glyph glyph-name="Aringacute" unicode="&#x1fa;" horiz-adv-x="582" 
d="M608 1154q26 -5 42.5 -21.5t9.5 -35.5q-12 -41 -90 -69t-129 -17q-19 5 -15 23q62 18 101 45.5t81 74.5zM532 981q33 0 54 -18.5t21 -50.5q0 -58 -54 -104.5t-119 -46.5q-29 0 -48.5 18t-19.5 53q0 57 48.5 103t117.5 46zM458 810q37 0 65.5 28.5t28.5 57.5q0 19 -11 28
t-25 9q-40 0 -67 -26.5t-27 -59.5q0 -16 10 -26.5t26 -10.5zM503 306q26 -3 34 -12.5t8 -23.5q0 -15 -38 -15q-36 0 -54 -1q1 -88 19 -205q-9 -19 -31 -34t-39 -15q-20 0 -25 45q-11 96 -10 202q-126 -15 -236 -65q-51 -106 -89 -212q-19 0 -31 3.5t-16.5 12t-5.5 14.5
t-1 17q0 47 99 222t212.5 331.5t148.5 156.5q17 0 27 -9q-22 -165 -22 -409q26 0 50 -3zM384 590q-108 -129 -213 -328q94 32 198 43q7 189 15 285z" />
    <glyph glyph-name="aringacute" unicode="&#x1fb;" horiz-adv-x="554" 
d="M500 990q26 2 45.5 -11t17.5 -33q-4 -43 -74 -86.5t-122 -43.5q-20 0 -20 19q57 31 89 65.5t64 89.5zM314 571q-29 0 -48.5 18t-19.5 53q0 57 48.5 103t117.5 46q33 0 54 -18.5t21 -50.5q0 -58 -54 -104.5t-119 -46.5zM396 743q-40 0 -67 -26.5t-27 -59.5q0 -16 10 -26.5
t26 -10.5q37 0 65.5 28.5t28.5 57.5q0 19 -11 28t-25 9zM461 487q20 0 30 -17t1 -38q-34 -76 -58.5 -162t-24.5 -135q-2 -44 21 -44q9 0 23 7t19 7q12 0 12 -22q0 -29 -29 -53t-67 -24q-81 0 -54 153q-41 -71 -100.5 -114t-128.5 -43q-48 0 -77 30.5t-29 77.5q0 92 52.5 184
t129.5 149t147 57q59 0 53 -54q-33 5 -60 -1q-89 -18 -158 -113.5t-69 -182.5q0 -78 48 -78q38 0 76 29t69.5 77t54.5 93.5t42 93.5q11 28 16.5 40.5t17 36.5t22 35t21.5 11z" />
    <glyph glyph-name="AEacute" unicode="&#x1fc;" horiz-adv-x="892" 
d="M582 760q-19 5 -15 23q62 18 101 45.5t81 74.5q26 -5 42.5 -21.5t9.5 -35.5q-12 -41 -90 -69t-129 -17zM742 679q62 -5 96.5 -15t43 -20.5t7.5 -25.5q-2 -31 -26 -46q-22 26 -115 35q-78 8 -132 -6q-34 -46 -70 -196l-12 -46q97 15 192 17q25 0 32 -10t4 -25
q-3 -18 -41 -24q-189 -25 -205 -27l-17 -65q-25 -89 -11.5 -125.5t79.5 -36.5q55 0 144 19t93 19q20 0 19 -29q-2 -39 -98.5 -61.5t-172.5 -22.5q-102 0 -140 46q-53 49 3 237q-136 -29 -249 -84q-75 -116 -119 -217q-34 -1 -48 13.5t-11 33.5q6 31 45.5 103t95.5 150
q109 153 228 262t231 138q63 16 154 9zM225 274q94 40 212 66q9 30 18 57q44 130 88 198q-44 -9 -128 -86.5t-160 -191.5z" />
    <glyph glyph-name="aeacute" unicode="&#x1fd;" horiz-adv-x="811" 
d="M425 585q-20 0 -20 19q57 31 89 65.5t64 89.5q26 2 45.5 -11t17.5 -33q-4 -43 -74 -86.5t-122 -43.5zM731 177q21 -4 16 -30q-10 -53 -82.5 -100t-170.5 -47q-25 0 -49.5 7.5t-49.5 25t-40.5 52t-15.5 81.5v2q-41 -73 -104.5 -119.5t-129.5 -46.5q-48 0 -77 30.5
t-29 77.5q0 92 52.5 184t129.5 149t147 57q59 0 53 -54q-33 5 -60 -1q-89 -18 -158 -113.5t-69 -182.5q0 -78 48 -78q45 0 97 53.5t87 114t63 125.5l14.5 36l16.5 40.5t16 34.5t17.5 27.5t17.5 9.5q18 0 26.5 -15t1.5 -42q77 50 159 50q52 0 82.5 -27t30.5 -69
q0 -95 -107.5 -159t-238.5 -55v-18q0 -49 32.5 -78.5t75.5 -29.5q57 0 104 25.5t94 82.5zM638 446q-70 0 -129.5 -57.5t-77.5 -147.5q102 -4 178 48.5t76 108.5q0 48 -47 48z" />
    <glyph glyph-name="Oslashacute" unicode="&#x1fe;" horiz-adv-x="578" 
d="M373 760q-19 5 -15 23q62 18 101 45.5t81 74.5q26 -5 42.5 -21.5t9.5 -35.5q-12 -41 -90 -69t-129 -17zM650 727q-46 -40 -99 -99q24 -50 24 -117q0 -78 -29 -167t-77.5 -165.5t-121 -127t-151.5 -50.5q-63 0 -103 40l-78 -107q-11 -15 -34 -8q-22 5 -13 23q16 30 92 138
q-29 59 -29 141q0 125 46 237t133.5 184.5t195.5 72.5q69 0 115 -49q57 65 85 85q13 3 27.5 -7t16.5 -24zM117 224q0 -33 4 -54q193 261 348 444q-28 34 -73 34q-84 0 -149.5 -65.5t-97.5 -161t-32 -197.5zM501 503q0 33 -7 60q-139 -162 -354 -456q24 -38 67 -38
q68 0 137 66.5t113 168t44 199.5z" />
    <glyph glyph-name="oslashacute" unicode="&#x1ff;" horiz-adv-x="474" 
d="M258 585q-20 0 -20 19q57 31 89 65.5t64 89.5q26 2 45.5 -11t17.5 -33q-4 -43 -74 -86.5t-122 -43.5zM527 534q-39 -34 -93 -88q25 -41 25 -99q0 -80 -42 -158.5t-115 -129.5t-154 -51q-38 0 -66 15l-62 -85q-11 -15 -30 -8q-18 6 -9 23q16 32 64 98q-34 40 -34 107
q0 86 39.5 167.5t109 133t148.5 51.5q53 0 90 -26q51 56 85 81q13 3 27.5 -7t16.5 -24zM89 162q0 -24 6 -44q124 165 256 315q-18 12 -45 12q-50 0 -92.5 -28.5t-68.5 -71.5t-41 -91.5t-15 -91.5zM394 336q0 33 -10 57q-115 -125 -261 -315q19 -11 43 -11q86 0 157 90.5
t71 178.5z" />
    <glyph glyph-name="Scommaaccent" unicode="&#x218;" horiz-adv-x="487" 
d="M144 -5q-31 0 -58.5 6.5t-54 28.5t-31.5 57q-4 21 10 40q68 -47 142 -47q81 0 136 31.5t55 89.5q0 42 -27 73t-65.5 50.5l-77.5 41t-66 58t-27 88.5q0 85 69 136.5t169 51.5q81 0 136 -31.5t55 -85.5q0 -33 -36 -33q-11 0 -24.5 10.5t-27.5 23.5t-44.5 24t-72.5 12
q-61 2 -103.5 -24.5t-42.5 -72.5q0 -26 19 -49t48 -39.5t62.5 -38t62.5 -44t48 -59t19 -81.5q0 -94 -76 -155.5t-197 -61.5zM109 -240q-22 0 -33.5 7.5t-10.5 24.5q33 1 55 18t24 36q2 30 -13 55q-4 5 -2 17q1 13 15.5 26.5t35.5 13.5q23 0 36 -18t13 -47q0 -53 -36 -93
t-84 -40z" />
    <glyph glyph-name="scommaaccent" unicode="&#x219;" horiz-adv-x="431" 
d="M161 14q-69 0 -110 25.5t-41 62.5q0 35 20 41q66 -57 134 -57q45 0 75.5 17.5t30.5 52.5q0 24 -24 41.5t-58 30t-68 27t-58 42.5t-24 67q0 65 52.5 101t134.5 36q79 0 138.5 -35t55.5 -90q-1 -22 -19 -34.5t-38 -7.5q-6 48 -46.5 74.5t-96.5 26.5q-37 0 -62 -19.5
t-25 -46.5q0 -26 22.5 -46t55 -34.5l65 -30.5t55 -42t22.5 -60q0 -70 -60 -106t-131 -36zM81 -240q-22 0 -33.5 7.5t-10.5 24.5q33 1 55 18t24 36q2 30 -13 55q-4 5 -2 17q1 13 15.5 26.5t35.5 13.5q23 0 36 -18t13 -47q0 -53 -36 -93t-84 -40z" />
    <glyph glyph-name="uni021A" unicode="&#x21a;" horiz-adv-x="504" 
d="M398 694q146 -3 188 -22q24 -11 24 -27q0 -15 -8.5 -21t-28.5 -6q-15 0 -64.5 5.5t-112.5 6.5l-33 -125.5t-39 -153.5t-28 -126q-25 -121 -30 -209q-1 -21 -54 -21q-38 0 -38 40q0 21 4.5 48.5t9.5 47l16.5 62.5l17.5 66q7 28 28 101.5t36 138t25 129.5
q-52 -4 -100.5 -16.5t-77.5 -22.5t-37 -10q-34 0 -34 34q0 43 47 55q112 29 289 26zM218 -42q23 0 36 -18t13 -47q0 -53 -36 -93t-84 -40q-22 0 -33.5 7.5t-10.5 24.5q33 1 55 18t24 36q2 30 -13 55q-4 5 -2 17q1 13 15.5 26.5t35.5 13.5z" />
    <glyph glyph-name="uni021B" unicode="&#x21b;" horiz-adv-x="456" 
d="M461 433q-81 15 -227 3q-54 -212 -54 -296q0 -15 1 -24t6 -22.5t18 -20t33 -6.5q62 0 142 77q13 -2 21.5 -9.5t8.5 -17.5q0 -5 -7 -16q-34 -52 -92 -80t-111 -28q-106 0 -106 128q0 68 54 304q-17 -3 -47.5 -10t-49.5 -11t-30 -4q-26 0 -24 38q1 51 170 64q38 153 62 211
q5 3 14 3q20 0 32 -11t14.5 -21t2.5 -20q0 -8 -3.5 -22.5t-9.5 -35.5t-8 -29l-19 -71q136 4 180.5 -11.5t28.5 -61.5zM199 -42q23 0 36 -18t13 -47q0 -53 -36 -93t-84 -40q-22 0 -33.5 7.5t-10.5 24.5q33 1 55 18t24 36q2 30 -13 55q-4 5 -2 17q1 13 15.5 26.5t35.5 13.5z
" />
    <glyph glyph-name="uni0237" unicode="&#x237;" horiz-adv-x="245" 
d="M-124 -224q-42 0 -73.5 21t-31.5 61q0 41 30 41q8 0 17.5 -7.5t17.5 -17t24 -17t36 -7.5q95 0 152 203q25 93 42.5 201t19.5 173q1 29 13 46t32 17q48 0 48 -59q0 -34 -39 -224l-10 -46t-12 -51t-16 -57.5l-19 -56t-24.5 -57.5l-28.5 -50.5t-34.5 -46t-40.5 -34.5
t-48 -24.5t-55 -7.5z" />
    <glyph glyph-name="circumflex" unicode="&#x2c6;" 
d="M274 744q71 -106 120 -154q-10 -21 -31 -21q-50 -2 -116 97q-60 -60 -117 -81q-46 -12 -54 -3q-10 8 -8 15t18 17q43 23 87.5 60.5t70.5 69.5q6 8 16 8t14 -8z" />
    <glyph glyph-name="caron" unicode="&#x2c7;" 
d="M453 726q10 -9 8 -15.5t-18 -16.5q-45 -25 -89 -59t-66 -60q-5 -8 -14.5 -8t-14.5 7q-17 26 -54 72t-63 72q9 20 30 21q49 2 113 -88q53 50 115 70q42 18 53 5z" />
    <glyph glyph-name="breve" unicode="&#x2d8;" 
d="M273 587q-42 3 -73 35.5t-27 82.5q2 18 7 26.5t15 7.5q11 -1 17 -9t16 -29q23 -49 68 -52q50 -4 82 51l3.5 7t4 7.5l4 7t4.5 7t5 5t6 3.5t6 1q15 -1 13 -20q-3 -48 -47.5 -91.5t-103.5 -39.5z" />
    <glyph glyph-name="dotaccent" unicode="&#x2d9;" 
d="M175 585q-15 0 -24.5 12.5t-9.5 32.5q0 91 76 91q20 0 30.5 -15t10.5 -35q0 -29 -23.5 -57.5t-59.5 -28.5z" />
    <glyph glyph-name="ring" unicode="&#x2da;" 
d="M211 571q-29 0 -48.5 18t-19.5 53q0 57 48.5 103t117.5 46q33 0 54 -18.5t21 -50.5q0 -58 -54 -104.5t-119 -46.5zM235 620q37 0 65.5 28.5t28.5 57.5q0 19 -11 28t-25 9q-40 0 -67 -26.5t-27 -59.5q0 -16 10 -26.5t26 -10.5z" />
    <glyph glyph-name="ogonek" unicode="&#x2db;" 
d="M226 -225q-37 0 -59.5 16t-21.5 54q1 49 58 111t108 86h63q-143 -115 -143 -174q0 -31 31 -31q26 0 61 20q14 9 25.5 -6t-0.5 -27q-52 -49 -122 -49z" />
    <glyph glyph-name="tilde" unicode="&#x2dc;" 
d="M134 589q-33 8 -33 42q0 37 27 60.5t64 23.5q35 0 77 -31t57 -31q52 0 54 64q31 -9 31 -44q0 -24 -10.5 -41.5t-26.5 -25.5t-28.5 -11t-22.5 -3q-33 0 -71 29t-60 29q-40 0 -58 -61z" />
    <glyph glyph-name="hungarumlaut" unicode="&#x2dd;" 
d="M115 585q-20 0 -20 19q53 58 108 165q25 1 40 -11.5t13 -32.5q-4 -44 -55 -92t-86 -48zM261 585q-9 0 -16 7t-7 15q74 70 106 145q25 1 40 -11.5t13 -32.5q-4 -43 -52 -83t-84 -40z" />
    <glyph glyph-name="gravecomb" unicode="&#x300;" horiz-adv-x="0" 
d="M-87 585q-47 0 -111.5 43.5t-64.5 86.5q0 20 18.5 33t44.5 11q44 -104 153 -150q0 -9 -11 -16.5t-29 -7.5z" />
    <glyph glyph-name="acutecomb" unicode="&#x301;" horiz-adv-x="0" 
d="M-223 585q-20 0 -20 19q57 31 89 65.5t64 89.5q26 2 45.5 -11t17.5 -33q-4 -43 -74 -86.5t-122 -43.5z" />
    <glyph glyph-name="uni0302" unicode="&#x302;" horiz-adv-x="0" 
d="M-278 744q71 -106 120 -154q-10 -21 -31 -21q-50 -2 -116 97q-60 -60 -117 -81q-46 -12 -54 -3q-10 8 -8 15t18 17q43 23 87.5 60.5t70.5 69.5q6 8 16 8t14 -8z" />
    <glyph glyph-name="tildecomb" unicode="&#x303;" horiz-adv-x="0" 
d="M-310 589q-33 8 -33 42q0 37 27 60.5t64 23.5q35 0 77 -31t57 -31q52 0 54 64q31 -9 31 -44q0 -24 -10.5 -41.5t-26.5 -25.5t-28.5 -11t-22.5 -3q-33 0 -71 29t-60 29q-40 0 -58 -61z" />
    <glyph glyph-name="uni0304" unicode="&#x304;" horiz-adv-x="0" 
d="M-260 610q-12 17 -9 43q1 25 59 35t130 5q79 -5 92 -18q11 -13 -3 -50q-143 8 -269 -15z" />
    <glyph glyph-name="uni0306" unicode="&#x306;" horiz-adv-x="0" 
d="M-190 587q-42 3 -73 35.5t-27 82.5q2 18 7 26.5t15 7.5q11 -1 17 -9t16 -29q23 -49 68 -52q50 -4 82 51l3.5 7t4 7.5l4 7t4.5 7t5 5t6 3.5t6 1q15 -1 13 -20q-3 -48 -47.5 -91.5t-103.5 -39.5z" />
    <glyph glyph-name="uni0307" unicode="&#x307;" horiz-adv-x="0" 
d="M-190 585q-15 0 -24.5 12.5t-9.5 32.5q0 91 76 91q20 0 30.5 -15t10.5 -35q0 -29 -23.5 -57.5t-59.5 -28.5z" />
    <glyph glyph-name="uni0308" unicode="&#x308;" horiz-adv-x="0" 
d="M-116 595q-15 0 -25.5 12.5t-10.5 31.5q0 43 21.5 62t51.5 19q20 0 30 -14t10 -32q0 -27 -21 -53t-56 -26zM-300 585q-42 0 -42 53q0 44 20.5 59t51.5 15q41 0 41 -45q0 -27 -21 -54.5t-50 -27.5z" />
    <glyph glyph-name="uni030A" unicode="&#x30a;" horiz-adv-x="0" 
d="M-203 571q-29 0 -48.5 18t-19.5 53q0 57 48.5 103t117.5 46q33 0 54 -18.5t21 -50.5q0 -58 -54 -104.5t-119 -46.5zM-179 620q37 0 65.5 28.5t28.5 57.5q0 19 -11 28t-25 9q-40 0 -67 -26.5t-27 -59.5q0 -16 10 -26.5t26 -10.5z" />
    <glyph glyph-name="uni030B" unicode="&#x30b;" horiz-adv-x="0" 
d="M-321 585q-20 0 -20 19q53 58 108 165q25 1 40 -11.5t13 -32.5q-4 -44 -55 -92t-86 -48zM-175 585q-9 0 -16 7t-7 15q74 70 106 145q25 1 40 -11.5t13 -32.5q-4 -43 -52 -83t-84 -40z" />
    <glyph glyph-name="uni030C" unicode="&#x30c;" horiz-adv-x="0" 
d="M-99 726q10 -9 8 -15.5t-18 -16.5q-45 -25 -89 -59t-66 -60q-5 -8 -14.5 -8t-14.5 7q-17 26 -54 72t-63 72q9 20 30 21q49 2 113 -88q53 50 115 70q42 18 53 5z" />
    <glyph glyph-name="uni0326" unicode="&#x326;" horiz-adv-x="0" 
d="M-218 -240q-22 0 -33.5 7.5t-10.5 24.5q33 1 55 18t24 36q2 30 -13 55q-4 5 -2 17q1 13 15.5 26.5t35.5 13.5q23 0 36 -18t13 -47q0 -53 -36 -93t-84 -40z" />
    <glyph glyph-name="uni0327" unicode="&#x327;" horiz-adv-x="0" 
d="M-123 -52q38 0 60 -20.5t22 -54.5q0 -56 -44 -86.5t-110 -30.5q-51 0 -51 18q0 19 15 30q25 -1 54 -0.5t52.5 15t23.5 40.5q0 29 -43 29q-25 0 -52 -7q-12 -3 -15.5 8.5t0.5 20.5l53 127l56 -3l-38 -87q6 1 17 1z" />
    <glyph glyph-name="uni0328" unicode="&#x328;" horiz-adv-x="0" 
d="M-216 -225q-37 0 -59.5 16t-21.5 54q1 49 58 111t108 86h63q-143 -115 -143 -174q0 -31 31 -31q26 0 61 20q14 9 25.5 -6t-0.5 -27q-52 -49 -122 -49z" />
    <glyph glyph-name="uni0394" unicode="&#x394;" horiz-adv-x="571" 
d="M464 285q0 -115 19 -236q-3 -23 -54 -23q-92 1 -147 -0.5t-127.5 -11t-131.5 -27.5q-16 -7 -26.5 -4t-16 5t-8 11t-3 13t-0.5 12q0 44 103 210t221.5 314.5t155.5 148.5q17 0 27 -9q-12 -173 -12 -403zM55 62q166 29 329 26q-7 90 -5 187q1 64 3.5 160.5t3.5 127.5
q-88 -92 -177.5 -225t-153.5 -276z" />
    <glyph glyph-name="uni03A9" unicode="&#x3a9;" horiz-adv-x="673" 
d="M560 74q11 0 16 -7.5t4 -18.5t-5.5 -23t-10.5 -21l-79 -4q-16 0 -45 -1.5t-46.5 -1.5t-36.5 2.5t-28.5 12t-9.5 25.5q0 13 31 44l35 34q92 89 140 169t48 169q0 64 -34.5 104.5t-107.5 40.5q-61 0 -112.5 -31t-82.5 -79t-48.5 -101.5t-17.5 -102.5q0 -132 63 -231
q14 -16 10 -29q-7 -22 -74 -19l-191 -12q-7 20 -7 44q0 21 15.5 25.5t51.5 2.5q10 -1 16 -1l93 -5q-27 42 -42.5 106.5t-15.5 112.5q0 102 45 194t131.5 151t194.5 59q88 0 139 -62t51 -159q0 -103 -60 -206t-178 -191q87 7 148 10z" />
    <glyph glyph-name="uni03BC" unicode="&#x3bc;" horiz-adv-x="539" 
d="M508 458q-2 -10 -16.5 -51t-27 -99t-15.5 -131q-1 -78 32 -130q-7 -13 -21 -23t-28 -10q-50 0 -64.5 62.5t11.5 191.5q-121 -243 -255 -243q-34 0 -49 33q-6 -47 -11 -97.5l-7.5 -76t-5.5 -50t-6.5 -37t-7.5 -20.5q-16 -17 -49 -17q-7 0 -11.5 3t-6.5 10t-2.5 14t1 18.5
t3 20.5l4 23.5t3.5 23.5q23 170 54 312q49 225 102 322q55 -3 55 -46q0 -14 -17 -64t-34.5 -115.5t-17.5 -117.5q0 -30 12.5 -50.5t29.5 -20.5q20 0 41.5 15.5t44 45t42 59t41 72.5l35 69.5t31 65t20.5 45.5q22 44 49 43q14 0 28.5 -20t12.5 -30z" />
    <glyph glyph-name="pi" unicode="&#x3c0;" horiz-adv-x="540" 
d="M462 446q-31 -142 -36 -269q-1 -78 32 -130q-7 -13 -21 -23t-28 -10q-109 0 -32 349l18 82q-11 0 -33.5 -0.5t-35.5 -0.5q-37 0 -103 -4q-47 -241 -81 -332q-40 -108 -89 -108q-35 0 -35 35q0 12 9 32.5t29 59t33 67.5q4 8 14.5 31t15.5 35.5l13 34t13 41.5l25 99
q-66 -6 -87 -13q-15 -4 -19.5 6t-3.5 28q5 46 280 54q131 2 177 -13.5t27 -59.5q-34 7 -82 9z" />
    <glyph glyph-name="Wgrave" unicode="&#x1e80;" horiz-adv-x="851" 
d="M596 756q-47 -7 -117 27.5t-76 76.5q-3 20 13.5 35.5t42.5 17.5q58 -97 173 -127q1 -9 -9 -18t-27 -12zM841 718q16 0 16 -35q0 -111 -53 -308q-11 -39 -22.5 -75.5t-35.5 -92.5t-50 -96t-64 -69.5t-78 -29.5q-42 0 -70 27t-37.5 66.5t-14 83.5t0.5 77
q-42 -105 -124.5 -187.5t-150.5 -82.5q-116 0 -116 162q0 106 53.5 269.5t125.5 277.5q25 34 42 34q12 0 24 -19t12 -35q0 -15 -19 -52.5l-47 -91t-42 -92.5q-61 -168 -61 -257q0 -26 1 -41t5.5 -36t16 -31t30.5 -10q50 0 115.5 88.5t140.5 269.5l14 35l13.5 33t12 26t14 22
t15.5 12.5t20 5.5q16 0 16 -18.5t-10 -58.5q-3 -12 -4.5 -19.5l-4 -20t-4.5 -24.5q-21 -96 -9 -208t55 -112q40 0 83 60t73 164q10 35 18 76t12 67t11 84t11 85q5 39 25 61q18 16 41 16z" />
    <glyph glyph-name="wgrave" unicode="&#x1e81;" horiz-adv-x="682" 
d="M433 585q-47 0 -111.5 43.5t-64.5 86.5q0 20 18.5 33t44.5 11q44 -104 153 -150q0 -9 -11 -16.5t-29 -7.5zM626 504q34 0 34 -38q0 -96 -44 -217q-35 -98 -94.5 -167.5t-115.5 -69.5q-30 0 -54 39.5t-24 105.5q0 29 3 60q-39 -90 -101 -158.5t-119 -67.5q-34 1 -58 34.5
t-24 110.5q0 68 22.5 154.5t62.5 153t82 66.5q31 0 31 -20q0 -9 -28 -53q-86 -132 -86 -282q0 -83 31 -83q36 0 90 83.5t101 201.5q6 14 12.5 33.5t9.5 26.5t8.5 15.5t11 11t15.5 2.5q32 0 32 -30q0 -4 -3 -25q-24 -158 -22 -212q2 -84 42 -84q28 0 60 50t52 116
q20 64 25.5 105t5.5 100q0 38 42 38z" />
    <glyph glyph-name="Wacute" unicode="&#x1e82;" horiz-adv-x="851" 
d="M483 760q-19 5 -15 23q62 18 101 45.5t81 74.5q26 -5 42.5 -21.5t9.5 -35.5q-12 -41 -90 -69t-129 -17zM841 718q16 0 16 -35q0 -111 -53 -308q-11 -39 -22.5 -75.5t-35.5 -92.5t-50 -96t-64 -69.5t-78 -29.5q-42 0 -70 27t-37.5 66.5t-14 83.5t0.5 77
q-42 -105 -124.5 -187.5t-150.5 -82.5q-116 0 -116 162q0 106 53.5 269.5t125.5 277.5q25 34 42 34q12 0 24 -19t12 -35q0 -15 -19 -52.5l-47 -91t-42 -92.5q-61 -168 -61 -257q0 -26 1 -41t5.5 -36t16 -31t30.5 -10q50 0 115.5 88.5t140.5 269.5l14 35l13.5 33t12 26t14 22
t15.5 12.5t20 5.5q16 0 16 -18.5t-10 -58.5q-3 -12 -4.5 -19.5l-4 -20t-4.5 -24.5q-21 -96 -9 -208t55 -112q40 0 83 60t73 164q10 35 18 76t12 67t11 84t11 85q5 39 25 61q18 16 41 16z" />
    <glyph glyph-name="wacute" unicode="&#x1e83;" horiz-adv-x="682" 
d="M355 585q-20 0 -20 19q57 31 89 65.5t64 89.5q26 2 45.5 -11t17.5 -33q-4 -43 -74 -86.5t-122 -43.5zM626 504q34 0 34 -38q0 -96 -44 -217q-35 -98 -94.5 -167.5t-115.5 -69.5q-30 0 -54 39.5t-24 105.5q0 29 3 60q-39 -90 -101 -158.5t-119 -67.5q-34 1 -58 34.5
t-24 110.5q0 68 22.5 154.5t62.5 153t82 66.5q31 0 31 -20q0 -9 -28 -53q-86 -132 -86 -282q0 -83 31 -83q36 0 90 83.5t101 201.5q6 14 12.5 33.5t9.5 26.5t8.5 15.5t11 11t15.5 2.5q32 0 32 -30q0 -4 -3 -25q-24 -158 -22 -212q2 -84 42 -84q28 0 60 50t52 116
q20 64 25.5 105t5.5 100q0 38 42 38z" />
    <glyph glyph-name="Wdieresis" unicode="&#x1e84;" horiz-adv-x="851" 
d="M630 760q-15 0 -25.5 12.5t-10.5 31.5q0 43 21.5 62t51.5 19q20 0 30 -14t10 -32q0 -27 -21 -53t-56 -26zM446 750q-42 0 -42 53q0 44 20.5 59t51.5 15q41 0 41 -45q0 -27 -21 -54.5t-50 -27.5zM841 718q16 0 16 -35q0 -111 -53 -308q-11 -39 -22.5 -75.5t-35.5 -92.5
t-50 -96t-64 -69.5t-78 -29.5q-42 0 -70 27t-37.5 66.5t-14 83.5t0.5 77q-42 -105 -124.5 -187.5t-150.5 -82.5q-116 0 -116 162q0 106 53.5 269.5t125.5 277.5q25 34 42 34q12 0 24 -19t12 -35q0 -15 -19 -52.5l-47 -91t-42 -92.5q-61 -168 -61 -257q0 -26 1 -41t5.5 -36
t16 -31t30.5 -10q50 0 115.5 88.5t140.5 269.5l14 35l13.5 33t12 26t14 22t15.5 12.5t20 5.5q16 0 16 -18.5t-10 -58.5q-3 -12 -4.5 -19.5l-4 -20t-4.5 -24.5q-21 -96 -9 -208t55 -112q40 0 83 60t73 164q10 35 18 76t12 67t11 84t11 85q5 39 25 61q18 16 41 16z" />
    <glyph glyph-name="wdieresis" unicode="&#x1e85;" horiz-adv-x="682" 
d="M506 595q-15 0 -25.5 12.5t-10.5 31.5q0 43 21.5 62t51.5 19q20 0 30 -14t10 -32q0 -27 -21 -53t-56 -26zM322 585q-42 0 -42 53q0 44 20.5 59t51.5 15q41 0 41 -45q0 -27 -21 -54.5t-50 -27.5zM626 504q34 0 34 -38q0 -96 -44 -217q-35 -98 -94.5 -167.5t-115.5 -69.5
q-30 0 -54 39.5t-24 105.5q0 29 3 60q-39 -90 -101 -158.5t-119 -67.5q-34 1 -58 34.5t-24 110.5q0 68 22.5 154.5t62.5 153t82 66.5q31 0 31 -20q0 -9 -28 -53q-86 -132 -86 -282q0 -83 31 -83q36 0 90 83.5t101 201.5q6 14 12.5 33.5t9.5 26.5t8.5 15.5t11 11t15.5 2.5
q32 0 32 -30q0 -4 -3 -25q-24 -158 -22 -212q2 -84 42 -84q28 0 60 50t52 116q20 64 25.5 105t5.5 100q0 38 42 38z" />
    <glyph glyph-name="Ygrave" unicode="&#x1ef2;" horiz-adv-x="585" 
d="M464 796q-47 -7 -117 27.5t-76 76.5q-3 20 13.5 35.5t42.5 17.5q58 -97 173 -127q1 -9 -9 -18t-27 -12zM563 716q19 -2 30 -14t7 -29l-62 -277q-12 -55 -21.5 -91t-25 -84t-31.5 -79t-41 -65t-53.5 -53t-67.5 -31.5t-86 -12.5q-62 0 -114 27t-52 61q0 45 45 45
q14 0 29 -10t27.5 -22.5t37.5 -23t56 -10.5q34 0 64 17.5t53.5 53t42.5 74.5t35.5 94t27.5 98.5t23 100.5q-65 -135 -125.5 -184.5t-121.5 -49.5t-97 50.5t-36 139.5q0 122 55 234q30 61 75 61q26 0 37 -17q-39 -56 -58 -129t-19 -136q0 -136 63 -136q46 0 98.5 60.5
t87.5 129t58 132.5l17 48q10 30 42 28z" />
    <glyph glyph-name="ygrave" unicode="&#x1ef3;" horiz-adv-x="568" 
d="M363 585q-47 0 -111.5 43.5t-64.5 86.5q0 20 18.5 33t44.5 11q44 -104 153 -150q0 -9 -11 -16.5t-29 -7.5zM467 497q16 0 27 -24t11 -47q0 -81 -48 -290q-19 -84 -40 -141t-57 -112.5t-91.5 -83.5t-130.5 -28q-65 0 -128.5 25.5t-63.5 62.5q0 14 9 24t23 10
q18 0 75.5 -26t95.5 -26q46 0 82.5 21t61 53.5t45 85t33 101t25.5 116.5q-51 -91 -127.5 -156t-135.5 -65q-43 0 -64.5 41t-21.5 109q0 111 43.5 236.5t94.5 125.5q20 0 28.5 -8.5t7.5 -23.5q-1 -13 -12 -38q-34 -77 -58 -165.5t-24 -153.5q0 -50 24 -50q71 0 159.5 124
t132.5 280q6 23 24 23z" />
    <glyph glyph-name="endash" unicode="&#x2013;" horiz-adv-x="559" 
d="M74 210q-44 -11 -44 28q0 11 2.5 18.5t5.5 11.5t9.5 7t9 3.5t11.5 1.5l8 1q56 6 132.5 5.5t120.5 -4.5q74 -7 146 0q25 1 37.5 -3.5t15 -10t2.5 -16.5q0 -46 -67 -34q-30 5 -113 7l-102 3q-90 3 -174 -18z" />
    <glyph glyph-name="emdash" unicode="&#x2014;" horiz-adv-x="860" 
d="M84 205q-74 -2 -74 38q0 46 76 46q51 0 89 -2q138 -4 337 -7q247 -2 296 0q27 1 34.5 -7.5t7.5 -25.5q0 -23 -31.5 -31.5t-80.5 -2.5q-75 7 -191 7h-171q-54 0 -152.5 -7t-139.5 -8z" />
    <glyph glyph-name="quoteleft" unicode="&#x2018;" horiz-adv-x="190" 
d="M207 726q20 5 37 -3.5t16 -25.5q-87 -22 -92 -82q-3 -43 30 -85q5 -5 2 -17q-5 -16 -20 -29t-36 -13q-27 0 -42.5 21.5t-15.5 55.5q0 67 36 117t85 61z" />
    <glyph glyph-name="quoteright" unicode="&#x2019;" horiz-adv-x="190" 
d="M79 473q-20 -5 -37 3.5t-16 25.5q87 22 92 82q3 43 -30 85q-5 5 -2 17q5 16 20 29t36 13q27 0 42.5 -21.5t15.5 -55.5q0 -67 -36 -117t-85 -61z" />
    <glyph glyph-name="quotesinglbase" unicode="&#x201a;" horiz-adv-x="199" 
d="M44 -140q-19 -6 -36.5 1t-18.5 24q80 26 80 88q0 43 -36 83q-5 5 -3 17q4 16 18.5 30.5t34.5 15.5q27 1 44 -19t19 -54q4 -67 -26.5 -119.5t-75.5 -66.5z" />
    <glyph glyph-name="quotedblleft" unicode="&#x201c;" horiz-adv-x="302" 
d="M115 497q-23 0 -35.5 21.5t-12.5 55.5q0 60 29.5 105t73.5 59q19 7 40.5 4t20.5 -19q-77 -25 -82 -92q-4 -40 20 -75q5 -7 2 -17q-5 -16 -20 -29t-36 -13zM255 497q-23 0 -35.5 21.5t-12.5 55.5q0 63 30 107.5t71 54.5q19 4 36.5 0.5t16.5 -13.5q-67 -22 -72 -82
q-2 -40 20 -85q4 -10 2 -17q-5 -16 -20 -29t-36 -13z" />
    <glyph glyph-name="quotedblright" unicode="&#x201d;" horiz-adv-x="322" 
d="M257 507q-19 -7 -40.5 -4t-20.5 19q77 25 82 92q4 40 -20 75q-5 7 -2 17q5 16 20 29t36 13q23 0 35.5 -21.5t12.5 -55.5q0 -60 -29.5 -105t-73.5 -59zM109 489q-19 -4 -36.5 -0.5t-16.5 13.5q67 22 72 82q2 40 -20 85q-4 10 -2 17q5 16 20 29t36 13q23 0 35.5 -21.5
t12.5 -55.5q0 -63 -30 -107.5t-71 -54.5z" />
    <glyph glyph-name="quotedblbase" unicode="&#x201e;" horiz-adv-x="312" 
d="M43 -124q-19 -4 -36.5 -0.5t-16.5 13.5q57 22 62 82q2 40 -20 85q-4 10 -2 17q5 16 20 29t36 13q29 0 38.5 -19t9.5 -58q0 -63 -27 -107.5t-64 -54.5zM181 -136q-19 -7 -40.5 -4t-20.5 19q73 24 78 92q2 42 -16 75q-5 7 -2 17q5 16 20 29t36 13q20 0 32 -21.5t12 -55.5
q0 -61 -28 -105.5t-71 -58.5z" />
    <glyph glyph-name="dagger" unicode="&#x2020;" horiz-adv-x="527" 
d="M465 487q70 0 70 -42q0 -15 -10 -29q-32 6 -204 4q-32 -129 -44 -204q-22 -145 0 -258q-30 -27 -66 -27q-38 0 -40 46q-1 33 15 123q28 163 75 321q-39 1 -82 -8t-65 -9q-55 1 -55 43q0 14 5 23t17.5 12.5t18.5 4.5t24 1l17 -1q9 0 63 -2.5t73 -2.5q15 56 38 155
q29 115 65 113q26 -1 35.5 -21.5t5.5 -42.5q-3 -17 -29 -72q-39 -81 -54 -132q18 0 58.5 2.5t68.5 2.5z" />
    <glyph glyph-name="daggerdbl" unicode="&#x2021;" horiz-adv-x="549" 
d="M538 426q-32 6 -202 4q-31 -116 -41 -178q19 0 61.5 2.5t71.5 2.5q70 0 70 -42q0 -15 -10 -29q-32 6 -203 4q-15 -132 4 -232q-30 -27 -66 -27q-38 0 -40 46q-1 33 15 123q4 23 17 91q-34 0 -75 -8.5t-63 -8.5q-55 1 -55 43q0 14 5 23t17.5 12.5t18.5 4.5t23 1l18 -1
q20 0 125 -5q23 99 47 179q-40 1 -83.5 -8t-65.5 -9q-55 1 -55 43q0 14 5 23t17.5 12.5t18.5 4.5t23 1l18 -1q9 0 64.5 -2.5t73.5 -2.5l35 145q29 115 65 113q26 -1 35.5 -21.5t5.5 -42.5q-3 -17 -29 -72q-36 -73 -51 -122q17 0 57 2.5t68 2.5q70 0 70 -42q0 -15 -10 -29z
" />
    <glyph glyph-name="bullet" unicode="&#x2022;" horiz-adv-x="253" 
d="M118 159q-43 0 -69.5 26t-26.5 69q0 42 26 74t79 32q35 0 61.5 -25t26.5 -70q0 -40 -27 -73t-70 -33z" />
    <glyph glyph-name="ellipsis" unicode="&#x2026;" horiz-adv-x="659" 
d="M546 0q-26 0 -41 16t-15 41q0 27 14.5 45t42.5 18q22 0 35.5 -14.5t13.5 -37.5q0 -14 -3 -27.5t-15 -27t-32 -13.5zM312 -4q-29 0 -46.5 15.5t-17.5 39.5t15 40t45 16q23 0 37 -13t14 -35q0 -13 -3 -25.5t-14.5 -25t-29.5 -12.5zM50 -6q-22 0 -36.5 18t-14.5 35
q0 25 15.5 41.5t46.5 16.5q24 0 38.5 -13t14.5 -35q0 -13 -4 -25.5t-19.5 -25t-40.5 -12.5z" />
    <glyph glyph-name="perthousand" unicode="&#x2030;" horiz-adv-x="950" 
d="M690 638q-173 -141 -291.5 -276t-298.5 -382q-41 3 -41 52q0 24 71 117t190 216.5t228 206.5q-48 -15 -101 -15q-41 0 -99 46v-12q0 -81 -56.5 -150.5t-127.5 -69.5q-44 0 -70 36t-26 89q0 85 52 145.5t131 60.5q31 0 59 -14.5t46 -31.5t45.5 -31.5t57.5 -14.5
q99 0 181 61q15 0 32.5 -10t17.5 -23zM175 423q36 0 70.5 50.5t34.5 101.5q0 72 -52 72q-43 0 -70.5 -38t-27.5 -96q0 -90 45 -90zM522 335q37 0 63.5 -32t26.5 -79q0 -80 -61 -150t-133 -70q-46 0 -72.5 27.5t-26.5 77.5q0 80 60.5 153t142.5 73zM825 302q44 0 70.5 -28.5
t26.5 -72.5q0 -84 -54.5 -152t-138.5 -68q-42 0 -65.5 27.5t-23.5 77.5q0 81 49.5 148.5t135.5 67.5zM429 62q40 0 77.5 48t37.5 98q0 58 -42 58q-46 0 -82 -47t-36 -93q0 -64 45 -64zM750 39q41 0 72.5 47t31.5 99q0 51 -44 51q-47 0 -76 -43.5t-29 -89.5q0 -29 12 -46.5
t33 -17.5z" />
    <glyph glyph-name="guilsinglleft" unicode="&#x2039;" horiz-adv-x="420" 
d="M360 474q38 -27 17 -66.5t-80 -66.5q-13 -6 -77.5 -30t-93.5 -43q50 -19 116 -63l41 -29t25.5 -20.5t19 -22.5t4.5 -22q0 -15 -11 -25.5t-28 -10.5q-34 0 -67 40q-26 31 -53.5 52.5t-44.5 30.5t-71 34q-6 10 -6 22q0 30 23 50t68 40q20 9 53 22t50 20.5t39.5 20t40.5 29
t35 38.5z" />
    <glyph glyph-name="guilsinglright" unicode="&#x203a;" horiz-adv-x="440" 
d="M382 310q6 -10 6 -22q0 -58 -93 -94q-79 -31 -130.5 -60.5t-96.5 -78.5q-27 34 -4 75t76 67q18 9 55 23t63.5 27t42.5 29q-37 10 -63.5 24.5t-66.5 48.5q-48 40 -73 85q9 29 45 29q34 0 68 -40q45 -55 78.5 -77.5t92.5 -35.5z" />
    <glyph glyph-name="fraction" unicode="&#x2044;" horiz-adv-x="280" 
d="M-28 -48q-3 -11 -19.5 -15t-30.5 1.5t-12 18.5q32 169 165 427.5t236 343.5q13 6 46.5 -1.5t37.5 -19.5q-287 -317 -423 -755z" />
    <glyph glyph-name="Euro" unicode="&#x20ac;" horiz-adv-x="676" 
d="M566 478q-28 1 -28 40q1 17 10 34.5t17.5 28t29.5 34.5q-20 4 -48 4q-90 1 -172.5 -65t-122.5 -170q61 -2 105.5 5.5t97.5 30.5q14 -50 -46.5 -71t-173.5 -19q-10 -43 -11 -85q94 -3 189 20q51 12 51 -18q0 -29 -76 -39q-69 -11 -162 -12q7 -68 42.5 -103t106.5 -35
q137 0 204 105q35 1 35 -34q0 -44 -70.5 -86t-170.5 -42q-107 0 -162 48.5t-63 151.5q-54 7 -109 24q-2 7 -2 20q1 16 10 24t22 4q54 -16 78 -20q1 41 11 84q-82 12 -134 34q-4 7 -4 16q1 15 14 23.5t32 2.5q61 -16 108 -22q47 134 160.5 219.5t231.5 80.5q96 -5 93 -80
q-2 -36 -32 -85t-61 -48z" />
    <glyph glyph-name="uni2113" unicode="&#x2113;" horiz-adv-x="466" 
d="M453 589q-4 -96 -84.5 -207.5t-193.5 -168.5q6 -60 33 -97.5t74 -37.5q54 1 77 51q24 -3 24 -30q2 -36 -32.5 -65.5t-88.5 -29.5q-144 0 -160 178q-6 -2 -18 -7.5t-15 -6.5q-13 -9 -34.5 -4.5t-21.5 28.5q0 26 34 31q27 4 53 13q4 186 127 351q49 70 88 95.5t78 25.5
q64 0 60 -119zM175 267q69 38 137 126.5t73 164.5q7 62 -20 62q-46 0 -96 -87q-88 -153 -94 -266z" />
    <glyph glyph-name="uni2116" unicode="&#x2116;" horiz-adv-x="1022" 
d="M801 378q-97 0 -97 115q0 82 62 150t142 68q51 0 81.5 -27.5t30.5 -74.5q0 -85 -66.5 -158t-152.5 -73zM625 710q23 0 23 -39q0 -98 -33.5 -261t-64.5 -246q-58 -158 -141 -158q-22 0 -32 9q-27 201 -51 309t-75 236q-60 -258 -129 -462q-38 -113 -88 -113q-35 0 -35 35
q0 12 9.5 34t28.5 61t32 69q60 140 92 293q31 144 51 184q19 38 41 38q46 0 104 -195.5t88 -416.5q50 87 89 284q14 68 38 313q26 26 53 26zM906 657q-60 0 -97 -52t-37 -102q0 -75 45 -75q55 0 97.5 54.5t42.5 118.5q0 56 -51 56zM839 268q98 0 119 -8q32 -12 17 -53
q-111 -2 -172 -5q-64 -4 -127 -20q-13 -3 -20.5 7t-7.5 19q0 60 191 60z" />
    <glyph glyph-name="trademark" unicode="&#x2122;" horiz-adv-x="606" 
d="M398 723q0 -10 -18.5 -15.5t-60 -10.5t-52.5 -7q-17 -46 -25 -89q-24 -113 -24 -185q-12 -15 -34 -15q-28 0 -25 33q1 15 20.5 109.5t20.5 136.5q-19 -4 -54.5 -16.5t-54.5 -17.5q-22 -6 -22 19q0 38 96.5 60t176.5 22q56 0 56 -24zM601 536q2 -67 19 -120q-8 -5 -21 -5
q-20 -1 -32.5 23.5t-14.5 63.5q-2 31 1 70q-7 -10 -58 -89q-39 -63 -58 -63q-36 0 -36 58q0 55 19 123q-34 -60 -72.5 -118t-50.5 -58t-21 8.5t-9 20.5q0 10 13 28.5t38.5 49.5t37.5 48q48 65 63 93q24 42 34.5 53.5t27.5 11.5q15 0 15 -14q0 -16 -19.5 -90.5t-25.5 -135.5
q3 4 31.5 50t45.5 69q41 64 67 64q17 0 17 -21q0 -11 -6 -52.5t-5 -67.5z" />
    <glyph glyph-name="uni2126" unicode="&#x2126;" horiz-adv-x="673" 
d="M560 74q11 0 16 -7.5t4 -18.5t-5.5 -23t-10.5 -21l-79 -4q-16 0 -45 -1.5t-46.5 -1.5t-36.5 2.5t-28.5 12t-9.5 25.5q0 13 31 44l35 34q92 89 140 169t48 169q0 64 -34.5 104.5t-107.5 40.5q-61 0 -112.5 -31t-82.5 -79t-48.5 -101.5t-17.5 -102.5q0 -132 63 -231
q14 -16 10 -29q-7 -22 -74 -19l-191 -12q-7 20 -7 44q0 21 15.5 25.5t51.5 2.5q10 -1 16 -1l93 -5q-27 42 -42.5 106.5t-15.5 112.5q0 102 45 194t131.5 151t194.5 59q88 0 139 -62t51 -159q0 -103 -60 -206t-178 -191q87 7 148 10z" />
    <glyph glyph-name="estimated" unicode="&#x212e;" horiz-adv-x="832" 
d="M428 -14q-165 0 -281.5 104t-116.5 251q0 148 116.5 252t281.5 104q163 0 279.5 -104t116.5 -252v-8h-642q-7 0 -7 -6v-194q0 -10 11 -23q99 -102 243 -102q76 0 142 31t112 85h59q-57 -64 -139 -101t-175 -37zM182 352h490q7 0 7 6v196q0 12 -12 24q-98 98 -238 98
q-144 0 -243 -101q-11 -13 -11 -26v-191q0 -6 7 -6z" />
    <glyph glyph-name="partialdiff" unicode="&#x2202;" horiz-adv-x="523" 
d="M246 750q136 0 196 -96.5t49 -266.5q-12 -168 -96.5 -273.5t-226.5 -105.5q-64 0 -100.5 40.5t-36.5 109.5q0 125 85 223t202 98q74 0 105 -54q18 266 -184 266q-40 0 -76 -9q-13 -3 -16.5 10t1.5 21q17 37 98 37zM186 72q84 0 153.5 84t71.5 167q0 92 -85 92
q-62 0 -113.5 -45.5t-76 -102.5t-24.5 -105q0 -43 20 -66.5t54 -23.5z" />
    <glyph glyph-name="uni2206" unicode="&#x2206;" horiz-adv-x="571" 
d="M464 285q0 -115 19 -236q-3 -23 -54 -23q-92 1 -147 -0.5t-127.5 -11t-131.5 -27.5q-16 -7 -26.5 -4t-16 5t-8 11t-3 13t-0.5 12q0 44 103 210t221.5 314.5t155.5 148.5q17 0 27 -9q-12 -173 -12 -403zM55 62q166 29 329 26q-7 90 -5 187q1 64 3.5 160.5t3.5 127.5
q-88 -92 -177.5 -225t-153.5 -276z" />
    <glyph glyph-name="product" unicode="&#x220f;" horiz-adv-x="763" 
d="M522 699q145 -1 223.5 -11t78.5 -43q0 -15 -8.5 -21t-28.5 -6q-12 0 -38.5 2t-45.5 3q-74 -290 -104 -468q-22 -132 -30 -279q-1 -21 -54 -21q-38 0 -38 40q0 80 48 294q66 296 88 439q-88 2 -171 2q-55 0 -118 -10q-78 -310 -105 -475q-22 -132 -30 -279q-1 -21 -54 -21
q-38 0 -38 40q0 100 48 294q69 283 89 423q-100 -23 -103 -23q-34 0 -34 34q0 43 47 55q150 32 378 31z" />
    <glyph glyph-name="summation" unicode="&#x2211;" horiz-adv-x="554" 
d="M376 700q212 0 212 -71q0 -33 -28 -42q-100 40 -188 41q-100 2 -173 -21q19 -69 60.5 -124.5t109.5 -120.5q6 -6 24 -21t29.5 -28t11.5 -25q0 -11 -22.5 -31.5t-67.5 -56.5t-73 -62q-129 -120 -186 -218q75 -18 158 -18q116 0 202 44q38 -3 38 -45q0 -81 -254 -81
q-34 0 -60 1t-61.5 5.5t-58.5 12.5t-40 23.5t-17 37.5q0 66 101.5 168.5t245.5 199.5q-83 68 -160 184.5t-72 181.5q32 32 107 49t162 17z" />
    <glyph glyph-name="minus" unicode="&#x2212;" 
d="M138 300q-44 -9 -44 28q0 11 2.5 18.5t5.5 11.5t9.5 7t9 3.5t11.5 1.5l8 1q34 4 71 4t69.5 -1.5t43.5 -1.5q74 -7 146 0q25 1 37.5 -3.5t15 -10t2.5 -16.5q0 -46 -67 -34q-43 7 -113 7q-121 0 -207 -15z" />
    <glyph glyph-name="radical" unicode="&#x221a;" horiz-adv-x="611" 
d="M638 715q15 1 24 -4t10.5 -10t1.5 -10q-66 -85 -180 -314.5t-191 -401.5q-31 -5 -53 4.5t-26 32.5q-27 164 -60 244.5t-98 173.5q14 21 35 21q47 7 104 -93.5t88 -275.5q45 133 117 291.5t143 269.5q0 1 5 8.5l7 10.5t8 11t10 11.5l11 10t13 10t14 6.5t17 4z" />
    <glyph glyph-name="infinity" unicode="&#x221e;" horiz-adv-x="662" 
d="M537 507q48 0 75.5 -29.5t27.5 -81.5q0 -80 -39 -140t-106 -60q-55 0 -92.5 29.5t-70.5 89.5q-60 -67 -93 -90t-86 -23q-42 0 -71 27.5t-29 91.5q0 75 41.5 132.5t106.5 57.5q53 0 88.5 -26t66.5 -78q33 32 52.5 48.5t56 34t72.5 17.5zM156 260q72 0 155 95
q-24 45 -46.5 66.5t-59.5 21.5q-42 0 -67.5 -35t-25.5 -75q0 -73 44 -73zM501 254q37 0 57 34.5t20 78.5q0 33 -15 53t-42 20q-71 0 -141 -79q13 -27 22.5 -42t24 -32.5t33 -25t41.5 -7.5z" />
    <glyph glyph-name="integral" unicode="&#x222b;" 
d="M171 -137q-30 0 -56 14t-26 44q0 16 10.5 26t24.5 10q18 0 38 -15.5t28 -15.5q16 0 28 47t34 183l37 226q26 162 65 238.5t102 76.5q29 0 52 -13t23 -43q0 -16 -10.5 -26t-24.5 -10q-18 0 -34 14.5t-25 14.5q-16 0 -27 -44t-36 -186l-40 -226q-29 -166 -65 -240.5
t-98 -74.5z" />
    <glyph glyph-name="approxequal" unicode="&#x2248;" 
d="M421 359q-47 0 -110 29t-95 29q-31 0 -53.5 -23t-43.5 -23q-22 0 -22 34q0 31 35 54t78 23q46 0 108 -27.5t110 -27.5q22 0 39.5 8.5t26.5 18.5t17.5 18.5t14.5 8.5q25 0 25 -35q0 -40 -40.5 -63.5t-89.5 -23.5zM99 161q-13 -1 -17.5 13t-4.5 41q0 35 26 53.5t57 18.5
q58 0 125 -22.5t113 -22.5q28 0 48.5 10.5t32 21t17.5 10.5q13 0 19 -4.5t6 -19.5q0 -37 -43 -60.5t-97 -23.5q-43 0 -115.5 25.5t-89.5 25.5q-21 0 -31.5 -10t-12.5 -22t-10 -22.5t-23 -11.5z" />
    <glyph glyph-name="notequal" unicode="&#x2260;" horiz-adv-x="629" 
d="M279 32q-26 0 -33 16.5t1 50.5q30 131 35 186q2 24 -6 31t-41 7q-3 0 -58 -3t-84 -3q-22 0 -29.5 8.5t-7.5 26.5q0 25 11.5 33t42.5 8q10 0 54.5 -1.5t81.5 -0.5q26 0 35 2t17.5 14.5t14.5 42.5q20 88 27 158q4 38 23 56q13 4 28 3q28 -3 28 -29q0 -24 -14 -69t-18 -70
l-9 -51q-5 -36 -1.5 -45.5t14.5 -10.5q81 -7 154 -1q36 3 48.5 -0.5t12.5 -23.5q0 -45 -48 -42q-57 3 -145 3q-40 0 -50.5 -9t-13.5 -33q-4 -31 -9.5 -92.5t-9.5 -91.5q-5 -44 -15 -57t-36 -13z" />
    <glyph glyph-name="lessequal" unicode="&#x2264;" 
d="M411 278l42.5 -14t34.5 -19.5t24 -31.5q6 -29 -25 -50q-82 52 -178 72t-222 28q-56 76 76 141q18 9 92.5 43.5t135 66t114.5 64.5q18 -9 20 -30q3 -19 -18 -43t-70 -45l-57 -24.5t-61 -27.5l-54 -26t-61.5 -33t-56.5 -36q63 -1 146 -12.5t118 -22.5zM406 72q67 12 67 -34
q0 -11 -2.5 -16.5t-15 -10t-37.5 -3.5q-66 6 -156 0q-106 -9 -184 0q-1 0 -7 0.5t-9 1t-8.5 2t-8.5 4.5t-6.5 7.5t-5 11.5t-1.5 16q0 37 44 28q73 -14 187 -14q92 0 143 7z" />
    <glyph glyph-name="greaterequal" unicode="&#x2265;" 
d="M549 362q4 -55 -19.5 -75.5t-102.5 -38.5q-32 -8 -102 -17.5t-121 -26t-99 -52.5q-23 23 -21 45q4 43 105 68q43 12 140 27.5t153 31.5q-61 12 -134 46.5t-119 62.5q-25 14 -38.5 22.5t-30 27t-16.5 35.5q0 16 6.5 24.5t22.5 16.5q140 -116 376 -197zM432 76
q25 1 37.5 -3.5t15 -10t2.5 -16.5q0 -46 -67 -34q-51 7 -133 7q-128 0 -207 -15q-44 -9 -44 28q0 11 2.5 18.5t5.5 11.5t9.5 7t9 3.5t11.5 1.5l8 1q86 10 204 1q82 -6 146 0z" />
    <glyph glyph-name="lozenge" unicode="&#x25ca;" 
d="M474 492q34 -109 39 -152q-39 -83 -146 -209q-29 -35 -102 -110q-13 -13 -24 -13q-12 0 -23 20q-29 52 -64 154q-34 100 -41 155q10 37 51 89q80 102 196 229q17 18 24 18q9 0 23 -25q27 -45 67 -156zM256 98q88 85 181 235q-11 60 -32.5 127t-41.5 102
q-89 -95 -180 -226q8 -52 33.5 -119t48.5 -109z" />
    <glyph glyph-name="uniF8FF" unicode="&#xf8ff;" horiz-adv-x="673" 
d="M162 0v684h406v-66h-338v-550h75v-68h-143zM297 210v67h205v69h-205v203h271v-68h-202v-67h202v-204h-271z" />
    <glyph glyph-name="i.loclTRK" horiz-adv-x="238" 
d="M178 585q-15 0 -24.5 12.5t-9.5 32.5q0 91 76 91q20 0 30.5 -15t10.5 -35q0 -29 -23.5 -57.5t-59.5 -28.5zM61 15q-36 0 -36 44q0 34 38 196.5t52 197.5q15 41 51 39q33 -1 24 -54q-4 -26 -28 -110t-29 -132q-3 -24 -8 -78.5t-5 -56.5q-5 -46 -59 -46z" />
    <glyph glyph-name="notequal.ss01" 
d="M384 409l-36 -67l-47 -86h11q74 -7 146 0q25 1 37.5 -3.5t15 -10t2.5 -16.5q0 -46 -67 -34q-43 7 -113 7h-62l-90 -173q-20 -37 -37 -33q-23 6 -12 35q14 36 79 168q-39 -3 -85 -12q-44 -9 -44 28q0 11 2.5 18.5t5.5 11.5t9.5 7t9 3.5t11.5 1.5l8 1q40 5 115 3l23 48
q12 25 56 103q-88 0 -176 -15q-44 -9 -44 28q0 11 2.5 18.5t5.5 11.5t9.5 7t9 3.5t11.5 1.5l8 1q34 4 75 4t79 -1.5t50 -1.5h2q3 5 11.5 22l13.5 27q45 94 68 117t56 0q-24 -38 -92 -170q47 0 87 4q25 1 37.5 -3.5t15 -10t2.5 -16.5q0 -46 -67 -34q-46 7 -102 7z" />
    <glyph glyph-name="plus.ss01" horiz-adv-x="630" 
d="M279 32q-26 0 -33 16.5t1 50.5q30 131 35 186q2 24 -6 31t-41 7q-3 0 -58 -3t-84 -3q-22 0 -29.5 8.5t-7.5 26.5q0 25 11.5 33t42.5 8q10 0 54.5 -1.5t81.5 -0.5q26 0 35 2t17.5 14.5t14.5 42.5q20 88 27 158q4 38 23 56q13 4 28 3q28 -3 28 -29q0 -24 -14 -69t-18 -70
l-9 -51q-5 -36 -1.5 -45.5t14.5 -10.5q81 -7 154 -1q36 3 48.5 -0.5t12.5 -23.5q0 -45 -48 -42q-57 3 -145 3q-40 0 -50.5 -9t-13.5 -33q-4 -31 -9.5 -92.5t-9.5 -91.5q-5 -44 -15 -57t-36 -13z" />
    <glyph glyph-name="acutecomb.case" horiz-adv-x="0" 
d="M-201 760q-19 5 -15 23q62 18 101 45.5t81 74.5q26 -5 42.5 -21.5t9.5 -35.5q-12 -41 -90 -69t-129 -17z" />
    <glyph glyph-name="uni0306.case" horiz-adv-x="0" 
d="M-145 748q-51 1 -83 33.5t-28 84.5q2 12 7 18.5t15 5.5q3 0 6 -1t5.5 -3t4 -3.5t4 -5.5t4 -6t4.5 -8t5 -9q23 -42 68 -44q53 -3 82 45q1 2 4.5 7.5l5 8t4.5 7t5.5 6.5t6 3.5t7.5 1.5q15 -1 13 -20q-3 -52 -39.5 -87t-100.5 -34z" />
    <glyph glyph-name="uni030C.case" horiz-adv-x="0" 
d="M-46 888q16 -16 -14 -30q-87 -40 -149 -110q-6 -7 -18.5 -7.5t-17.5 6.5q-19 29 -52.5 65t-63.5 59q7 17 30 18t55 -21t54 -50q49 43 119 67q43 16 57 3z" />
    <glyph glyph-name="uni0302.case" horiz-adv-x="0" 
d="M-159 904q17 -30 53.5 -74t69.5 -71q-10 -21 -31 -21q-28 -1 -60.5 25.5t-58.5 61.5q-48 -45 -120 -71q-44 -12 -54 -3t-8 13.5t18 14.5q45 24 91 60t70 65q6 8 15.5 8t14.5 -8z" />
    <glyph glyph-name="uni0308.case" horiz-adv-x="0" 
d="M-84 760q-15 0 -25.5 12.5t-10.5 31.5q0 43 21.5 62t51.5 19q20 0 30 -14t10 -32q0 -27 -21 -53t-56 -26zM-268 750q-42 0 -42 53q0 44 20.5 59t51.5 15q41 0 41 -45q0 -27 -21 -54.5t-50 -27.5z" />
    <glyph glyph-name="uni0307.case" horiz-adv-x="0" 
d="M-121 752q-15 0 -24.5 12.5t-9.5 32.5q0 91 76 91q20 0 30.5 -15t10.5 -35q0 -29 -23.5 -57.5t-59.5 -28.5z" />
    <glyph glyph-name="gravecomb.case" horiz-adv-x="0" 
d="M2 756q-47 -7 -117 27.5t-76 76.5q-3 20 13.5 35.5t42.5 17.5q58 -97 173 -127q1 -9 -9 -18t-27 -12z" />
    <glyph glyph-name="uni030B.case" horiz-adv-x="0" 
d="M-283 751q-19 3 -17 22q61 51 130 148q25 -2 38 -16.5t8 -34.5q-9 -43 -66.5 -83.5t-92.5 -35.5zM-118 751q-9 1 -15 9t-5 16q43 30 71 57.5t54 71.5q25 -2 38.5 -16.5t8.5 -34.5q-10 -42 -63 -75t-89 -28z" />
    <glyph glyph-name="uni0304.case" horiz-adv-x="0" 
d="M-231 760q-12 17 -9 43q1 25 59 35t130 5q79 -5 92 -18q11 -13 -3 -50q-143 8 -269 -15z" />
    <glyph glyph-name="uni030A.case" horiz-adv-x="0" 
d="M-153 751q-29 0 -48.5 18t-19.5 53q0 57 48.5 103t117.5 46q33 0 54 -18.5t21 -50.5q0 -58 -54 -104.5t-119 -46.5zM-129 800q37 0 65.5 28.5t28.5 57.5q0 19 -11 28t-25 9q-40 0 -67 -26.5t-27 -59.5q0 -16 10 -26.5t26 -10.5z" />
    <glyph glyph-name="tildecomb.case" horiz-adv-x="0" 
d="M-248 748q-33 8 -33 42q0 37 27 60.5t64 23.5q35 0 77 -31t57 -31q52 0 54 64q31 -9 31 -44q0 -24 -10.5 -41.5t-26.5 -25.5t-28.5 -11t-22.5 -3q-33 0 -71 29t-60 29q-40 0 -58 -61z" />
    <glyph glyph-name="acute.case" 
d="M163 760q-19 5 -15 23q62 18 101 45.5t81 74.5q26 -5 42.5 -21.5t9.5 -35.5q-12 -41 -90 -69t-129 -17z" />
    <glyph glyph-name="breve.case" 
d="M318 748q-51 1 -83 33.5t-28 84.5q2 12 7 18.5t15 5.5q3 0 6 -1t5.5 -3t4 -3.5t4 -5.5t4 -6t4.5 -8t5 -9q23 -42 68 -44q53 -3 82 45q1 2 4.5 7.5l5 8t4.5 7t5.5 6.5t6 3.5t7.5 1.5q15 -1 13 -20q-3 -52 -39.5 -87t-100.5 -34z" />
    <glyph glyph-name="caron.case" 
d="M506 888q16 -16 -14 -30q-87 -40 -149 -110q-6 -7 -18.5 -7.5t-17.5 6.5q-19 29 -52.5 65t-63.5 59q7 17 30 18t55 -21t54 -50q49 43 119 67q43 16 57 3z" />
    <glyph glyph-name="circumflex.case" 
d="M393 904q17 -30 53.5 -74t69.5 -71q-10 -21 -31 -21q-28 -1 -60.5 25.5t-58.5 61.5q-48 -45 -120 -71q-44 -12 -54 -3t-8 13.5t18 14.5q45 24 91 60t70 65q6 8 15.5 8t14.5 -8z" />
    <glyph glyph-name="dieresis.case" 
d="M416 760q-15 0 -25.5 12.5t-10.5 31.5q0 43 21.5 62t51.5 19q20 0 30 -14t10 -32q0 -27 -21 -53t-56 -26zM232 750q-42 0 -42 53q0 44 20.5 59t51.5 15q41 0 41 -45q0 -27 -21 -54.5t-50 -27.5z" />
    <glyph glyph-name="dotaccent.case" 
d="M244 752q-15 0 -24.5 12.5t-9.5 32.5q0 91 76 91q20 0 30.5 -15t10.5 -35q0 -29 -23.5 -57.5t-59.5 -28.5z" />
    <glyph glyph-name="grave.case" 
d="M256 756q-47 -7 -117 27.5t-76 76.5q-3 20 13.5 35.5t42.5 17.5q58 -97 173 -127q1 -9 -9 -18t-27 -12z" />
    <glyph glyph-name="hungarumlaut.case" 
d="M153 751q-19 3 -17 22q61 51 130 148q25 -2 38 -16.5t8 -34.5q-9 -43 -66.5 -83.5t-92.5 -35.5zM318 751q-9 1 -15 9t-5 16q43 30 71 57.5t54 71.5q25 -2 38.5 -16.5t8.5 -34.5q-10 -42 -63 -75t-89 -28z" />
    <glyph glyph-name="macron.case" 
d="M145 760q-12 17 -9 43q1 25 59 35t130 5q79 -5 92 -18q11 -13 -3 -50q-143 8 -269 -15z" />
    <glyph glyph-name="ring.case" 
d="M261 751q-29 0 -48.5 18t-19.5 53q0 57 48.5 103t117.5 46q33 0 54 -18.5t21 -50.5q0 -58 -54 -104.5t-119 -46.5zM285 800q37 0 65.5 28.5t28.5 57.5q0 19 -11 28t-25 9q-40 0 -67 -26.5t-27 -59.5q0 -16 10 -26.5t26 -10.5z" />
    <glyph glyph-name="tilde.case" 
d="M196 748q-33 8 -33 42q0 37 27 60.5t64 23.5q35 0 77 -31t57 -31q52 0 54 64q31 -9 31 -44q0 -24 -10.5 -41.5t-26.5 -25.5t-28.5 -11t-22.5 -3q-33 0 -71 29t-60 29q-40 0 -58 -61z" />
    </font>
</defs>
</svg>
