<?xml version="1.0" standalone="no"?>
<!DOCTYPE svg PUBLIC "-//W3C//DTD SVG 1.1//EN" "http://www.w3.org/Graphics/SVG/1.1/DTD/svg11.dtd" >
<svg>
<metadata>
Created by FontForge 20090622 at Wed Mar 13 17:22:04 2019
 By deploy user
Copyright (c) 2015 by Fontsmith Ltd. All rights reserved. This font may not be altered in any way without prior permission of Fontsmith Ltd.
</metadata>
<defs>
<font id="Telefonica-ExtraLight" horiz-adv-x="0" >
  <font-face 
    font-family="Telefonica ExtraLight"
    font-weight="250"
    font-stretch="normal"
    units-per-em="1000"
    panose-1="0 0 3 0 0 0 0 0 0 0"
    ascent="750"
    descent="-250"
    x-height="490"
    cap-height="684"
    bbox="-375 -263 1107 1181"
    underline-thickness="27"
    underline-position="-74"
    unicode-range="U+000D-U+FB02"
  />
<missing-glyph horiz-adv-x="642" 
d="M86 0v660h470v-660h-470zM321 372l159 240h-320zM134 90l159 241l-159 239v-480zM510 90v480l-160 -239zM160 49h320l-159 239z" />
    <glyph glyph-name="fi" unicode="fi" horiz-adv-x="463" 
d="M110 0v463h-88v21l88 7v95q0 79 40 115q40 31 114 31q49 0 92 -9v-27q-38 8 -93 8q-69 0 -97 -29q-27 -27 -27 -98v-87h246v-490h-29v463h-217v-463h-29z" />
    <glyph glyph-name="fl" unicode="fl" horiz-adv-x="471" 
d="M110 0v463h-88v21l88 7v95q0 79 40 115q40 31 114 31q54 0 121 -10v-722h-29v697q-42 7 -93 7q-69 0 -97 -29q-27 -27 -27 -98v-87h142v-27h-142v-463h-29z" />
    <glyph glyph-name=".notdef" horiz-adv-x="642" 
d="M86 0v660h470v-660h-470zM321 372l159 240h-320zM134 90l159 241l-159 239v-480zM510 90v480l-160 -239zM160 49h320l-159 239z" />
    <glyph glyph-name=".null" 
 />
    <glyph glyph-name="nonmarkingreturn" horiz-adv-x="333" 
 />
    <glyph glyph-name="CR" unicode="&#xd;" horiz-adv-x="195" 
 />
    <glyph glyph-name="space" unicode=" " horiz-adv-x="195" 
 />
    <glyph glyph-name="exclam" unicode="!" horiz-adv-x="248" 
d="M112 155l-5 529h35l-5 -529h-25zM123 -14q-27 0 -27 26v4q0 27 27 27h2q27 0 27 -27v-4q0 -26 -27 -26h-2z" />
    <glyph glyph-name="quotedbl" unicode="&#x22;" horiz-adv-x="305" 
d="M91 523l-4 161h28l-4 -161h-20zM194 523l-4 161h28l-4 -161h-20z" />
    <glyph glyph-name="numbersign" unicode="#" horiz-adv-x="511" 
d="M76 0l45 228h-79v26h83l33 176h-116v26h121l44 228h28l-44 -228h171l44 228h28l-44 -228h78v-26h-83l-33 -176h116v-26h-121l-45 -228h-28l45 228h-170l-45 -228h-28zM153 254h171l33 176h-171z" />
    <glyph glyph-name="dollar" unicode="$" horiz-adv-x="511" 
d="M251 -130v117q-116 0 -188 27v29q94 -28 188 -27v322q-36 15 -53.5 23t-46 25.5t-42.5 35t-25 45.5t-11 63q0 79 49 122q45 40 129 45v96h26v-96q70 -1 139 -22v-27q-73 21 -139 21v-307q42 -17 65.5 -29.5t52.5 -36t42.5 -56.5t13.5 -77q0 -155 -174 -175v-118h-26z
M251 370v299q-147 -10 -147 -134q0 -66 37.5 -100.5t109.5 -64.5zM277 18q57 6 89 29q53 37 53 117q0 65 -37 101t-105 64v-311z" />
    <glyph glyph-name="percent" unicode="%" horiz-adv-x="860" 
d="M197 293q-66 0 -98.5 48t-32.5 154t32.5 154t98.5 48q65 0 97.5 -48t32.5 -154t-32.5 -154t-97.5 -48zM246 -14l337 711h30l-337 -711h-30zM197 318q54 0 78 39.5t24 137.5q0 97 -24.5 137t-77.5 40q-54 0 -78.5 -39.5t-24.5 -137.5q0 -99 25 -138t78 -39zM664 -14
q-66 0 -98.5 48t-32.5 154t32.5 154t98.5 48q65 0 97.5 -48t32.5 -154t-32.5 -154t-97.5 -48zM664 11q54 0 78 39.5t24 137.5q0 97 -24.5 137t-77.5 40q-54 0 -78.5 -39.5t-24.5 -137.5q0 -99 25 -138t78 -39z" />
    <glyph glyph-name="ampersand" unicode="&#x26;" horiz-adv-x="657" 
d="M590 -33l-104 118q-85 -101 -220 -101q-85 0 -141 51t-56 133q0 134 153 216q-54 64 -73 98.5t-19 76.5q0 63 39 98.5t98 35.5q57 0 93 -33.5t36 -91.5q0 -117 -131 -191l221 -248q42 60 49 192h29q-1 -134 -60 -215l107 -119zM248 397q65 38 92.5 79t27.5 91
q0 45 -29 72.5t-73 27.5q-49 0 -78.5 -29t-29.5 -78q0 -39 19.5 -71.5t70.5 -91.5zM268 12q123 0 200 93l-228 260q-71 -40 -106.5 -86.5t-35.5 -113.5q0 -70 47.5 -111.5t122.5 -41.5z" />
    <glyph glyph-name="quotesingle" unicode="'" horiz-adv-x="202" 
d="M91 523l-4 161h28l-4 -161h-20z" />
    <glyph glyph-name="parenleft" unicode="(" horiz-adv-x="298" 
d="M265 -225q-179 162 -179 481q0 321 179 483l13 -11q-157 -181 -157 -472q0 -289 158 -469z" />
    <glyph glyph-name="parenright" unicode=")" horiz-adv-x="298" 
d="M33 -225l-14 12q158 180 158 469q0 291 -157 472l13 11q179 -162 179 -483q0 -319 -179 -481z" />
    <glyph glyph-name="asterisk" unicode="*" horiz-adv-x="410" 
d="M104 331l-24 18l108 139l-158 56l9 26l154 -61l-4 175h31l-4 -175l155 61l9 -26l-159 -56l108 -139l-24 -18l-100 143z" />
    <glyph glyph-name="plus" unicode="+" horiz-adv-x="485" 
d="M229 191v132h-133v26h133v133h28v-133h132v-26h-132v-132h-28z" />
    <glyph glyph-name="comma" unicode="," horiz-adv-x="216" 
d="M103 -110v96q-27 3 -27 26v4q0 27 27 27h2q27 0 27 -46q0 -47 -14 -107h-15z" />
    <glyph glyph-name="hyphen" unicode="-" horiz-adv-x="311" 
d="M72 246v28h167v-28h-167z" />
    <glyph glyph-name="period" unicode="." horiz-adv-x="216" 
d="M107 -14q-27 0 -27 26v4q0 27 27 27h2q27 0 27 -27v-4q0 -26 -27 -26h-2z" />
    <glyph glyph-name="slash" unicode="/" horiz-adv-x="431" 
d="M56 -14l289 711h30l-289 -711h-30z" />
    <glyph glyph-name="zero" unicode="0" horiz-adv-x="511" 
d="M256 -14q-112 0 -162.5 90t-50.5 265t50.5 265.5t162.5 90.5q111 0 161.5 -90.5t50.5 -265.5t-50.5 -265t-161.5 -90zM256 15q102 0 141.5 82t39.5 244t-39.5 244.5t-141.5 82.5q-103 0 -142.5 -82.5t-39.5 -244.5t39.5 -244t142.5 -82z" />
    <glyph glyph-name="one" unicode="1" horiz-adv-x="511" 
d="M132 0v26h120v636h-112v22q61 6 94 6q26 0 36.5 -7t10.5 -26v-631h101v-26h-250z" />
    <glyph glyph-name="two" unicode="2" horiz-adv-x="511" 
d="M97 27h346v-27h-375q-3 6 -3 14q0 12 7.5 23.5t31.5 41.5l177 220q64 79 91 132.5t27 103.5q0 133 -176 133q-42 0 -139 -13v23q16 7 61 13t87 6q103 0 154 -48q44 -43 44 -116q0 -55 -25.5 -107.5t-97.5 -140.5z" />
    <glyph glyph-name="three" unicode="3" horiz-adv-x="511" 
d="M218 -14q-89 0 -147 17v25q62 -13 136 -13q104 0 153 50q39 40 39 116q0 70 -37 107q-49 49 -152 49h-5v24h6q88 0 130 40t42 121q0 71 -35 107q-39 40 -124 40q-80 0 -144 -18v25q63 21 150 21q91 0 138 -44q46 -44 46 -128q0 -133 -105 -173q55 -14 88.5 -56t33.5 -113
q0 -91 -49 -142q-52 -55 -164 -55z" />
    <glyph glyph-name="four" unicode="4" horiz-adv-x="511" 
d="M375 0v178h-326q-3 9 -3 17q0 10 15 55l144 434h30l-159 -479h299v183h28v-183h83v-27h-83v-178h-28z" />
    <glyph glyph-name="five" unicode="5" horiz-adv-x="511" 
d="M216 -14q-78 0 -119 16v27q46 -14 112 -14q197 0 197 172q0 83 -45 128t-160 45h-86q-3 18 -3 40l8 284h276v-28h-247l-9 -268h73q115 0 169 -50q55 -50 55 -151q0 -98 -59 -149.5t-162 -51.5z" />
    <glyph glyph-name="six" unicode="6" horiz-adv-x="511" 
d="M276 -14q-109 0 -155 81.5t-46 258.5q0 241 76 317q55 54 159 54q44 0 98 -12v-25q-44 7 -93 7q-63 0 -103.5 -18t-62.5 -60t-31 -93t-12 -134q82 37 168 37q184 0 184 -195q0 -101 -47 -159.5t-135 -58.5zM275 14q73 0 113 50.5t40 140.5t-41 127.5t-122 37.5
q-85 0 -159 -34v-17q0 -152 39 -228.5t130 -76.5z" />
    <glyph glyph-name="seven" unicode="7" horiz-adv-x="511" 
d="M441 684q1 -3 1 -8q0 -6 -13 -45l-204 -631h-35l217 655h-329v29h363z" />
    <glyph glyph-name="eight" unicode="8" horiz-adv-x="511" 
d="M256 -14q-91 0 -148 52t-57 132q0 74 47 126.5t115 76.5q-57 30 -90 67.5t-33 96.5q0 70 46.5 115t119.5 45q75 0 121.5 -43t46.5 -111q0 -66 -36 -106.5t-103 -67.5q41 -19 65 -33.5t53 -39t43 -56t14 -71.5q0 -88 -56.5 -135.5t-147.5 -47.5zM254 384q140 53 140 157
q0 59 -37.5 93.5t-98.5 34.5q-62 0 -99.5 -37t-37.5 -94q0 -54 33.5 -87t99.5 -67zM256 15q75 0 123.5 38t48.5 111q0 87 -95 145q-23 15 -90 47q-160 -53 -160 -184q0 -69 49 -113t124 -44z" />
    <glyph glyph-name="nine" unicode="9" horiz-adv-x="511" 
d="M235 697q109 0 155 -81.5t46 -258.5q0 -241 -76 -317q-55 -54 -159 -54q-44 0 -98 12v25q44 -7 93 -7q63 0 103.5 18t62.5 60t31 93t12 134q-82 -37 -168 -37q-184 0 -184 195q0 101 47 159.5t135 58.5zM236 669q-73 0 -113 -50.5t-40 -140.5t41 -127.5t122 -37.5
q85 0 159 34v17q0 152 -39 228.5t-130 76.5z" />
    <glyph glyph-name="colon" unicode=":" horiz-adv-x="216" 
d="M107 343q-27 0 -27 26v4q0 27 27 27h2q27 0 27 -27v-4q0 -26 -27 -26h-2zM107 -14q-27 0 -27 26v4q0 27 27 27h2q27 0 27 -27v-4q0 -26 -27 -26h-2z" />
    <glyph glyph-name="semicolon" unicode=";" horiz-adv-x="217" 
d="M107 343q-27 0 -27 26v4q0 27 27 27h2q27 0 27 -27v-4q0 -26 -27 -26h-2zM107 -110v96q-27 3 -27 26v4q0 27 27 27h2q27 0 27 -46q0 -47 -14 -107h-15z" />
    <glyph glyph-name="less" unicode="&#x3c;" horiz-adv-x="485" 
d="M388 169l-291 145v30l291 145v-30l-263 -130l263 -130v-30z" />
    <glyph glyph-name="equal" unicode="=" horiz-adv-x="485" 
d="M96 403v26h293v-26h-293zM96 236v26h293v-26h-293z" />
    <glyph glyph-name="greater" unicode="&#x3e;" horiz-adv-x="485" 
d="M97 169v30l263 130l-263 130v30l291 -145v-30z" />
    <glyph glyph-name="question" unicode="?" horiz-adv-x="393" 
d="M128 155q-3 15 -3 34q0 41 14.5 72.5t55.5 80.5l10 12q67 79 87.5 115.5t20.5 78.5q0 60 -42 94q-35 28 -115 28q-52 0 -108 -14l-4 21q42 20 124 20q78 0 122 -33q53 -39 53 -117q0 -47 -20 -84.5t-77 -104.5q-64 -74 -77.5 -103t-13.5 -100h-27zM143 -14q-27 0 -27 26
v4q0 27 27 27h2q27 0 27 -27v-4q0 -26 -27 -26h-2z" />
    <glyph glyph-name="at" unicode="@" horiz-adv-x="742" 
d="M386 -14q-160 0 -250 95.5t-90 260.5t88.5 260t239.5 95q145 0 231.5 -87t86.5 -236q0 -111 -57 -164q-40 -37 -105 -37q-46 0 -73 20q-48 -24 -101 -24q-54 0 -80 26t-26 70q0 40 19 64q25 32 101 32h80v36q0 59 -18 77t-73 18q-35 0 -71 -5l-1 23q36 8 85 8
q60 0 83 -26q22 -25 22 -95v-187q22 -11 56 -11q50 0 84 30q47 42 47 141q0 140 -78.5 219.5t-211.5 79.5q-144 0 -221.5 -91t-77.5 -239q0 -154 83.5 -239.5t237.5 -85.5q98 0 194 21v-25q-92 -24 -204 -24zM365 194q51 0 85 21v122h-90q-50 0 -68 -23q-14 -18 -14 -50
q0 -34 19 -52t68 -18z" />
    <glyph glyph-name="A" unicode="A" horiz-adv-x="528" 
d="M26 0l213 684h39l224 -684h-32l-62 193h-291l-59 -193h-32zM126 220h273l-140 435z" />
    <glyph glyph-name="B" unicode="B" horiz-adv-x="556" 
d="M94 0v684h179q94 0 133 -39q42 -42 42 -121q0 -136 -109 -158q79 -6 116 -49.5t37 -127.5q0 -88 -42 -138q-25 -29 -61.5 -40t-105.5 -11h-189zM125 373h125q167 0 167 144q0 72 -34 107q-31 33 -128 33h-130v-284zM125 27h132q73 0 109 9.5t58 32.5q37 39 37 121
q0 79 -40 119q-21 21 -55.5 29.5t-102.5 8.5h-138v-320z" />
    <glyph glyph-name="C" unicode="C" horiz-adv-x="516" 
d="M337 -14q-273 0 -273 346q0 186 72.5 275.5t197.5 89.5q75 0 143 -26l-7 -28q-67 24 -130 24q-244 0 -244 -336q0 -165 61 -239.5t186 -74.5q47 0 123 17l5 -28q-66 -20 -134 -20z" />
    <glyph glyph-name="D" unicode="D" horiz-adv-x="610" 
d="M94 0v684h149q81 0 133 -12t91 -47q79 -71 79 -281q0 -211 -79 -286q-61 -58 -195 -58h-178zM124 27h139q123 0 180 54q71 68 71 268q0 191 -68 253q-61 55 -200 55h-122v-630z" />
    <glyph glyph-name="E" unicode="E" horiz-adv-x="489" 
d="M94 0v684h327l-6 -27h-291v-296h243v-27h-243v-307h307v-27h-337z" />
    <glyph glyph-name="F" unicode="F" horiz-adv-x="448" 
d="M94 0v684h316l-6 -27h-280v-296h230v-27h-230v-334h-30z" />
    <glyph glyph-name="G" unicode="G" horiz-adv-x="575" 
d="M352 -14q-288 0 -288 344q0 185 78 276t216 91q75 0 139 -23l-7 -28q-78 21 -128 21q-129 0 -197.5 -83t-68.5 -251q0 -90 20 -154t56.5 -98t80.5 -49t101 -15q74 0 122 12v270h-125v27h153v-320q-56 -20 -152 -20z" />
    <glyph glyph-name="H" unicode="H" horiz-adv-x="625" 
d="M94 0v684h30v-324h377v324h30v-684h-30v333h-377v-333h-30z" />
    <glyph glyph-name="I" unicode="I" horiz-adv-x="218" 
d="M94 0v684h30v-684h-30z" />
    <glyph glyph-name="J" unicode="J" horiz-adv-x="331" 
d="M93 -14q-31 0 -49 4l-4 28q12 -3 48 -3t60 7t37 16.5t19 30.5t7.5 38t1.5 51v526h30v-526q0 -26 -0.5 -40t-3.5 -35.5t-8.5 -32.5t-16 -25.5t-26.5 -21.5t-40 -12t-55 -5z" />
    <glyph glyph-name="K" unicode="K" horiz-adv-x="537" 
d="M94 0v684h30v-409l325 409h35l-225 -284l241 -400h-34l-226 378l-116 -145v-233h-30z" />
    <glyph glyph-name="L" unicode="L" horiz-adv-x="462" 
d="M94 0v684h30v-657h294v-27h-324z" />
    <glyph glyph-name="M" unicode="M" horiz-adv-x="769" 
d="M94 0v684h30l258 -502l265 502h28v-684h-28v626l-251 -475h-30l-244 475v-626h-28z" />
    <glyph glyph-name="N" unicode="N" horiz-adv-x="651" 
d="M94 0v684h22l413 -624v624h28v-684h-23l-412 624v-624h-28z" />
    <glyph glyph-name="O" unicode="O" horiz-adv-x="619" 
d="M310 -14q-246 0 -246 355q0 356 246 356q245 0 245 -356q0 -355 -245 -355zM310 17q113 0 163 82t50 242q0 161 -50 243.5t-163 82.5t-163.5 -82.5t-50.5 -243.5q0 -160 50.5 -242t163.5 -82z" />
    <glyph glyph-name="P" unicode="P" horiz-adv-x="538" 
d="M94 0v684h190q106 0 151 -48q50 -53 50 -158q0 -103 -46 -155q-44 -51 -134 -51h-181v-272h-30zM124 299h169q48 0 75.5 10t47.5 33q37 44 37 134q0 92 -40 138q-37 43 -133 43h-156v-358z" />
    <glyph glyph-name="Q" unicode="Q" horiz-adv-x="621" 
d="M553 -91l-125 61q-20 10 -36.5 13t-57.5 3h-24q-246 0 -246 355q0 356 246 356q245 0 245 -356q0 -278 -149 -338q63 -11 161 -70q-6 -14 -14 -24zM310 17q113 0 163 82t50 242q0 161 -50 243.5t-163 82.5t-163.5 -82.5t-50.5 -243.5q0 -160 50.5 -242t163.5 -82z" />
    <glyph glyph-name="R" unicode="R" horiz-adv-x="554" 
d="M94 0v684h183q116 0 163 -55q46 -53 46 -146q0 -167 -134 -198l144 -285h-33l-139 281q-16 -2 -44 -2h-156v-279h-30zM124 306h161q77 0 115 32q54 46 54 143q0 84 -39 129q-39 47 -136 47h-155v-351z" />
    <glyph glyph-name="S" unicode="S" horiz-adv-x="510" 
d="M228 -14q-97 0 -168 27l7 29q79 -25 160 -25q91 0 137 31q53 35 53 114q0 45 -19 77.5t-49.5 51t-68 34l-74.5 31t-67.5 36t-49.5 55.5t-19 83q0 79 49 122q51 45 149 45q70 0 145 -22l-7 -28q-69 20 -132 20q-174 0 -174 -133q0 -59 36 -96t87 -56.5l102 -41t87 -65
t36 -112.5q0 -90 -58 -133.5t-162 -43.5z" />
    <glyph glyph-name="T" unicode="T" horiz-adv-x="531" 
d="M252 0v657h-222v27h476l-6 -27h-218v-657h-30z" />
    <glyph glyph-name="U" unicode="U" horiz-adv-x="622" 
d="M313 -14q-125 0 -179 63q-46 53 -46 169v466h30v-465q0 -108 42 -154q45 -49 151 -49q97 0 145 44q50 46 50 154v470h28v-477q0 -112 -56 -167q-56 -54 -165 -54z" />
    <glyph glyph-name="V" unicode="V" horiz-adv-x="541" 
d="M255 0l-224 684h32l211 -656l205 656h31l-216 -684h-39z" />
    <glyph glyph-name="W" unicode="W" horiz-adv-x="823" 
d="M223 0l-192 684h31l180 -647l153 647h37l161 -647l168 647h31l-179 -684h-39l-160 642l-152 -642h-39z" />
    <glyph glyph-name="X" unicode="X" horiz-adv-x="453" 
d="M29 0l183 340l-186 344h33l169 -318l163 318h31l-178 -342l185 -342h-33l-169 315l-166 -315h-32z" />
    <glyph glyph-name="Y" unicode="Y" horiz-adv-x="516" 
d="M238 0v280l-210 404h33l193 -376l202 376h32l-220 -404v-280h-30z" />
    <glyph glyph-name="Z" unicode="Z" horiz-adv-x="526" 
d="M97 27h375v-27h-410v24l368 633h-372v27h407v-23z" />
    <glyph glyph-name="bracketleft" unicode="[" horiz-adv-x="315" 
d="M130 -207v934h150v-28h-120v-878h120v-28h-150z" />
    <glyph glyph-name="backslash" unicode="\" horiz-adv-x="431" 
d="M345 -14l-289 711h30l289 -711h-30z" />
    <glyph glyph-name="bracketright" unicode="]" horiz-adv-x="315" 
d="M35 -207v28h120v878h-120v28h150v-934h-150z" />
    <glyph glyph-name="asciicircum" unicode="^" horiz-adv-x="485" 
d="M73 439l157 245h26l157 -245h-31l-138 218l-139 -218h-32z" />
    <glyph glyph-name="underscore" unicode="_" horiz-adv-x="430" 
d="M42 -55v27h346v-27h-346z" />
    <glyph glyph-name="grave" unicode="`" horiz-adv-x="390" 
d="M275 574l-177 132l28 33l162 -149z" />
    <glyph glyph-name="a" unicode="a" horiz-adv-x="472" 
d="M206 -14q-70 0 -114 38t-44 114q0 62 34 97q42 43 150 43h136v52q0 82 -30 114q-31 32 -107 32q-66 0 -138 -18l-3 25q74 21 144 21q89 0 127 -41q36 -39 36 -120v-343h-22l-4 33q-78 -47 -165 -47zM214 14q83 0 154 43v194h-132q-94 0 -129 -33q-29 -27 -29 -80
q0 -62 36.5 -93t99.5 -31z" />
    <glyph glyph-name="b" unicode="b" horiz-adv-x="500" 
d="M263 -14q-84 0 -159 50l-3 -36h-23v715h29v-254q76 43 149 43q188 0 188 -259t-181 -259zM258 15q156 0 156 223q0 123 -39.5 180.5t-121.5 57.5q-69 0 -146 -43v-371q71 -47 151 -47z" />
    <glyph glyph-name="c" unicode="c" horiz-adv-x="420" 
d="M282 -14q-112 0 -169 59.5t-57 198.5q0 136 54 198t159 62q64 0 110 -19l-3 -26q-53 17 -105 17q-92 0 -138.5 -52t-46.5 -180q0 -123 47 -176t152 -53q48 0 91 9l4 -26q-45 -12 -98 -12z" />
    <glyph glyph-name="d" unicode="d" horiz-adv-x="501" 
d="M248 -14q-101 0 -146.5 65t-45.5 193q0 260 194 260q77 0 144 -38v249h29v-715h-22l-4 31q-70 -45 -149 -45zM250 15q66 0 144 40v383q-71 38 -138 38q-87 0 -128.5 -55.5t-41.5 -173.5q0 -119 38 -175.5t126 -56.5z" />
    <glyph glyph-name="e" unicode="e" horiz-adv-x="483" 
d="M273 -14q-217 0 -217 258q0 74 18 130.5t61.5 93t108.5 36.5q93 0 137.5 -62t44.5 -191v-11q0 -11 -12 -11h-328q2 -106 45.5 -160t142.5 -54q68 0 125 16l4 -27q-54 -18 -130 -18zM86 256h311q0 115 -38 167.5t-115 52.5t-117 -59.5t-41 -160.5z" />
    <glyph glyph-name="f" unicode="f" horiz-adv-x="275" 
d="M110 0v464h-88v20l88 6v98q0 80 30 109q36 35 107 35q32 0 58 -6v-28q-28 6 -55 6q-61 0 -88 -27q-14 -14 -18.5 -34.5t-4.5 -62.5v-90h140v-26h-140v-464h-29z" />
    <glyph glyph-name="g" unicode="g" horiz-adv-x="486" 
d="M416 0q33 -33 33 -92q0 -65 -39 -102q-46 -45 -162 -45q-208 0 -208 135q0 40 17 74.5t45 51.5q-29 16 -29 58q0 27 14 57t37 47q-64 46 -64 144q0 86 48.5 131t128.5 45q43 0 69 -10l64 123q12 -4 24 -12l-63 -122q82 -47 82 -155q0 -87 -48.5 -130.5t-129.5 -43.5
q-49 0 -88 17q-17 -11 -31 -36.5t-14 -51.5q0 -20 10 -30q16 -16 78 -15h86q59 0 88.5 -8t51.5 -30zM89 328q0 -70 38 -108t108 -38q73 0 111 39.5t38 106.5q0 71 -37.5 109.5t-109.5 38.5t-110 -39t-38 -109zM247 -211q94 0 133 29t39 89q0 59 -34 81t-104 22h-96
q-46 0 -59 4q-56 -41 -56 -114q0 -54 41.5 -82.5t135.5 -28.5z" />
    <glyph glyph-name="h" unicode="h" horiz-adv-x="516" 
d="M401 465q40 -36 40 -119v-346h-29v327q0 83 -32 115q-34 34 -108 34t-165 -49v-427h-29v715h29v-262q84 51 173 51q79 0 121 -39z" />
    <glyph glyph-name="i" unicode="i" horiz-adv-x="186" 
d="M92 596q-23 0 -23 23v4q0 23 23 23h2q23 0 23 -23v-4q0 -23 -23 -23h-2zM78 0v490h29v-490h-29z" />
    <glyph glyph-name="j" unicode="j" horiz-adv-x="189" 
d="M95 596q-23 0 -23 23v4q0 23 23 23h2q23 0 23 -23v-4q0 -23 -23 -23h-2zM-49 -238l-5 26q70 -1 107 32q28 25 28 104v566h29v-566q0 -89 -33 -122q-40 -40 -126 -40z" />
    <glyph glyph-name="k" unicode="k" horiz-adv-x="463" 
d="M78 0v715h32v-513l269 288h40l-170 -182l188 -308h-36l-173 287l-118 -126v-161h-32z" />
    <glyph glyph-name="l" unicode="l" horiz-adv-x="185" 
d="M78 0v715h29v-715h-29z" />
    <glyph glyph-name="m" unicode="m" horiz-adv-x="821" 
d="M78 0v490h22l4 -36q76 50 162 50q87 0 135 -51q84 51 181 51q83 0 126 -39q38 -35 38 -119v-346h-30v326q0 85 -30 115q-35 35 -111 35q-74 0 -161 -44q14 -30 14 -86v-346h-29v326q0 85 -30 115q-36 35 -111 35q-67 0 -151 -47v-429h-29z" />
    <glyph glyph-name="n" unicode="n" horiz-adv-x="516" 
d="M78 0v490h22l4 -38q87 52 176 52q79 0 121 -39q40 -36 40 -119v-346h-29v327q0 83 -32 115q-34 34 -108 34t-165 -49v-427h-29z" />
    <glyph glyph-name="o" unicode="o" horiz-adv-x="509" 
d="M255 -14q-199 0 -199 259q0 129 48 194t151 65q198 0 198 -259t-198 -259zM255 15q91 0 129.5 57.5t38.5 172.5t-39 173t-129 58q-91 0 -130 -58t-39 -173t39 -172.5t130 -57.5z" />
    <glyph glyph-name="p" unicode="p" horiz-adv-x="499" 
d="M78 -225v715h22l4 -39q27 19 69 36t83 17q92 0 139.5 -59.5t47.5 -197.5q0 -126 -40.5 -193.5t-144.5 -67.5q-83 0 -151 50v-261h-29zM255 15q48 0 80 16.5t48.5 50t23 72.5t6.5 94q0 121 -38.5 174.5t-123.5 53.5q-68 0 -144 -50v-360q26 -21 66.5 -36t81.5 -15z" />
    <glyph glyph-name="q" unicode="q" horiz-adv-x="501" 
d="M394 -225v254q-72 -43 -146 -43q-101 0 -146.5 65t-45.5 193q0 260 194 260q78 0 147 -40l4 26h22v-709zM250 15q64 0 144 41v382q-71 38 -138 38q-87 0 -128.5 -55.5t-41.5 -173.5q0 -119 38 -175.5t126 -56.5z" />
    <glyph glyph-name="r" unicode="r" horiz-adv-x="291" 
d="M78 0v490h22l4 -41q67 55 152 55q11 0 15 -1v-30q-9 1 -23 1q-75 0 -141 -50v-424h-29z" />
    <glyph glyph-name="s" unicode="s" horiz-adv-x="386" 
d="M179 -14q-72 0 -122 16l3 26q53 -14 116 -14q148 0 148 103q0 44 -28.5 70.5t-69.5 39l-82 25.5t-69.5 42.5t-28.5 77.5q0 68 46.5 100t122.5 32q57 0 106 -14l-3 -27q-57 13 -104 13q-138 0 -138 -104q0 -39 28.5 -63t69.5 -36.5t82 -27t69.5 -46t28.5 -82.5
q0 -60 -43 -95.5t-132 -35.5z" />
    <glyph glyph-name="t" unicode="t" horiz-adv-x="319" 
d="M224 -14q-60 0 -90 30q-28 28 -28 98v350h-88v20l88 6v111q15 7 29 8v-119h133v-26h-133v-326q0 -77 23 -101q22 -23 67 -23q39 0 75 9l3 -24q-36 -13 -79 -13z" />
    <glyph glyph-name="u" unicode="u" horiz-adv-x="514" 
d="M235 -14q-78 0 -120 39q-40 36 -40 119v346h29v-327q0 -83 32 -115q34 -34 107 -34t164 49v427h29v-490h-22l-4 38q-87 -52 -175 -52z" />
    <glyph glyph-name="v" unicode="v" horiz-adv-x="415" 
d="M192 0l-170 490h31l156 -457l154 457h30l-167 -490h-34z" />
    <glyph glyph-name="w" unicode="w" horiz-adv-x="649" 
d="M164 0l-145 490h32l131 -452l127 452h29l147 -452l111 452h31l-124 -490h-35l-144 445l-125 -445h-35z" />
    <glyph glyph-name="x" unicode="x" horiz-adv-x="396" 
d="M26 0l154 244l-154 246h33l137 -223l141 223h33l-157 -245l155 -245h-33l-139 223l-138 -223h-32z" />
    <glyph glyph-name="y" unicode="y" horiz-adv-x="514" 
d="M272 -239q-45 0 -68 7l-7 27q30 -6 65 -6q79 0 114 29q31 25 31 110v108q-84 -50 -172 -50q-78 0 -120 39q-40 36 -40 119v346h29v-327q0 -84 32 -115q36 -34 106 -34q74 0 165 49v427h29v-564q0 -94 -35 -127q-41 -38 -129 -38z" />
    <glyph glyph-name="z" unicode="z" horiz-adv-x="408" 
d="M48 0v18l280 446h-274v26h314v-17l-280 -446h283v-27h-323z" />
    <glyph glyph-name="braceleft" unicode="{" horiz-adv-x="328" 
d="M245 -207q-47 0 -68 19.5t-21 69.5v202q0 83 -22 115.5t-80 47.5v26q59 14 80.5 48t21.5 115v202q0 49 20.5 69t68.5 20h33v-28h-30q-39 0 -51 -14t-12 -56v-191q0 -86 -18 -123t-70 -55q50 -19 69 -53.5t19 -124.5v-191q0 -42 11.5 -56t51.5 -14h30v-28h-33z" />
    <glyph glyph-name="bar" unicode="|" horiz-adv-x="208" 
d="M90 -253v996h28v-996h-28z" />
    <glyph glyph-name="braceright" unicode="}" horiz-adv-x="328" 
d="M84 -207h-33v28h30q40 0 51.5 14t11.5 56v191q0 90 19 124.5t69 53.5q-52 18 -70 55t-18 123v191q0 42 -12 56t-51 14h-30v28h33q48 0 68.5 -20t20.5 -69v-202q0 -81 21.5 -115t80.5 -48v-26q-58 -15 -80 -47.5t-22 -115.5v-202q0 -50 -21 -69.5t-68 -19.5z" />
    <glyph glyph-name="asciitilde" unicode="~" horiz-adv-x="486" 
d="M340 332q-33 0 -95 16.5t-96 16.5q-38 0 -46 -31l-22 5q2 24 19 40t47 16q37 0 99.5 -16.5t92.5 -16.5q34 0 45 31l22 -6q-3 -26 -20.5 -40.5t-45.5 -14.5z" />
    <glyph glyph-name="uni00A0" unicode="&#xa0;" horiz-adv-x="195" 
 />
    <glyph glyph-name="exclamdown" unicode="&#xa1;" horiz-adv-x="248" 
d="M125 494q27 0 27 -26v-4q0 -27 -27 -27h-2q-27 0 -27 27v4q0 26 27 26h2zM136 325l5 -529h-35l5 529h25z" />
    <glyph glyph-name="cent" unicode="&#xa2;" horiz-adv-x="511" 
d="M281 -143v130q-99 6 -149 66t-50 191q0 252 199 260v108h26v-108q58 -3 98 -19v-25q-56 17 -98 18v-465q51 0 99 10v-25q-42 -12 -99 -12v-129h-26zM281 14v464q-84 -5 -126.5 -58.5t-42.5 -175.5q0 -114 40 -168.5t129 -61.5z" />
    <glyph glyph-name="sterling" unicode="&#xa3;" horiz-adv-x="511" 
d="M85 0q-3 6 -3 15q0 12 6.5 21t29.5 31q41 40 57 75t16 80q0 55 -22 121h-81v17l74 5q-28 77 -28 144q0 92 51 140t146 48q74 0 132 -18v-23q-69 13 -122 13q-176 0 -176 -159q0 -57 27 -142h174v-25h-166q21 -63 21 -122q0 -57 -23.5 -99t-84.5 -95h359v-27h-387z" />
    <glyph glyph-name="currency" unicode="&#xa4;" horiz-adv-x="511" 
d="M75 141l-17 17l81 82q-36 41 -36 110q0 66 37 109l-82 83l17 17l81 -81q37 36 100 36q60 0 98 -37l82 82l17 -17l-81 -82q36 -41 36 -110t-36 -110l81 -82l-17 -17l-82 82q-38 -37 -98 -37q-61 0 -99 37zM256 211q58 0 91 42.5t33 96.5t-33 96.5t-91 42.5t-91.5 -42.5
t-33.5 -96.5t33.5 -96.5t91.5 -42.5z" />
    <glyph glyph-name="yen" unicode="&#xa5;" horiz-adv-x="512" 
d="M237 0v163h-142v25h142v74h-142v25h140l-187 397h32l172 -376l183 376h30l-199 -397h139v-25h-141v-74h141v-25h-141v-163h-27z" />
    <glyph glyph-name="brokenbar" unicode="&#xa6;" horiz-adv-x="207" 
d="M90 357v386h28v-386h-28zM90 -253v387h28v-387h-28z" />
    <glyph glyph-name="section" unicode="&#xa7;" horiz-adv-x="516" 
d="M238 -14q-65 0 -118 15l3 26q52 -14 112 -14q162 0 162 102q0 72 -92 93l-84 19q-73 16 -101.5 46.5t-28.5 77.5q0 79 65 116q-61 32 -61 102q0 62 46.5 95t129.5 33q57 0 107 -15l-5 -24q-50 12 -99 12q-151 0 -151 -98q0 -74 94 -97l81 -20q72 -18 99.5 -46.5
t27.5 -75.5q0 -76 -63 -114q63 -34 63 -105q0 -128 -187 -128zM336 228q61 34 61 102q0 42 -24.5 63t-86.5 36l-73 18q-26 7 -33 10q-61 -30 -61 -104q0 -45 24 -65t75 -32l88 -20q18 -4 30 -8z" />
    <glyph glyph-name="dieresis" unicode="&#xa8;" horiz-adv-x="390" 
d="M107 615q-33 0 -33 32v4q0 15 9 24t24 9h2q15 0 24 -9t9 -24v-4q0 -32 -33 -32h-2zM281 615q-33 0 -33 32v4q0 15 9 24t24 9h2q15 0 24 -9t9 -24v-4q0 -32 -33 -32h-2z" />
    <glyph glyph-name="copyright" unicode="&#xa9;" horiz-adv-x="808" 
d="M404 -14q-167 0 -255.5 92.5t-88.5 263.5t88.5 263t255.5 92t255.5 -92t88.5 -263t-88.5 -263.5t-255.5 -92.5zM404 14q151 0 233 84.5t82 243.5q0 160 -83 243.5t-232 83.5q-148 0 -231.5 -84t-83.5 -243q0 -160 82 -244t233 -84zM421 167q-136 0 -136 177
q0 87 33 132.5t97 45.5q46 0 73 -12l-3 -24q-31 11 -64 11q-56 0 -82.5 -37t-26.5 -116q0 -151 110 -151q30 0 62 7v-24q-31 -9 -63 -9z" />
    <glyph glyph-name="ordfeminine" unicode="&#xaa;" horiz-adv-x="392" 
d="M173 351q-51 0 -79.5 26t-28.5 75q0 42 21 66q27 30 97 30h92v33q0 48 -21.5 68.5t-65.5 20.5q-36 0 -83 -9l-3 24q44 12 88 12q60 0 87 -29t27 -92v-218h-23l-4 22q-52 -29 -104 -29zM178 377q54 0 97 25v121h-95q-48 0 -66.5 -18.5t-18.5 -53.5q0 -32 20 -53t63 -21z
" />
    <glyph glyph-name="guillemotleft" unicode="&#xab;" horiz-adv-x="487" 
d="M238 74l-118 140q-24 30 -24 48t24 48l118 140l19 -14l-129 -174l129 -174zM393 74l-118 140q-24 30 -24 48t24 48l118 140l19 -14l-129 -174l129 -174z" />
    <glyph glyph-name="logicalnot" unicode="&#xac;" horiz-adv-x="485" 
d="M362 237v169h-266v26h293v-195h-27z" />
    <glyph glyph-name="uni00AD" unicode="&#xad;" horiz-adv-x="311" 
d="M72 246v28h167v-28h-167z" />
    <glyph glyph-name="registered" unicode="&#xae;" horiz-adv-x="808" 
d="M404 -14q-167 0 -255.5 92.5t-88.5 263.5t88.5 263t255.5 92t255.5 -92t88.5 -263t-88.5 -263.5t-255.5 -92.5zM404 14q151 0 233 84.5t82 243.5q0 160 -83 243.5t-232 83.5q-148 0 -231.5 -84t-83.5 -243q0 -160 82 -244t233 -84zM309 175v343h91q64 0 91 -27
q27 -28 27 -75q0 -76 -64 -94l71 -147h-33l-65 143h-89v-143h-29zM338 345h69q43 0 62 16.5t19 58.5q0 70 -83 70h-67v-145z" />
    <glyph glyph-name="macron" unicode="&#xaf;" horiz-adv-x="390" 
d="M83 626v27h223v-27h-223z" />
    <glyph glyph-name="degree" unicode="&#xb0;" horiz-adv-x="419" 
d="M210 358q-62 0 -105 45.5t-43 123.5t43 124t105 46q61 0 104 -46t43 -124t-43 -123.5t-104 -45.5zM210 386q55 0 86 39t31 102q0 64 -31 103t-86 39t-86.5 -39t-31.5 -103q0 -63 31.5 -102t86.5 -39z" />
    <glyph glyph-name="plusminus" unicode="&#xb1;" horiz-adv-x="485" 
d="M229 191v132h-133v26h133v133h28v-133h132v-26h-132v-132h-28zM96 0v26h293v-26h-293z" />
    <glyph glyph-name="uni00B2" unicode="&#xb2;" horiz-adv-x="447" 
d="M102 369q-2 6 -2 12q0 13 25 44l92 113q42 51 56.5 79t14.5 51q0 69 -94 69q-44 0 -80 -10v25q35 11 86 11q59 0 89 -26q28 -25 28 -69q0 -31 -15 -59.5t-63 -86.5l-105 -127h185v-26h-217z" />
    <glyph glyph-name="uni00B3" unicode="&#xb3;" horiz-adv-x="447" 
d="M197 353q-49 0 -82 10v25q45 -9 76 -9q50 0 76.5 23.5t26.5 64.5q0 38 -24 62t-75 24h-14v26h14q94 0 94 76q0 32 -15 52q-21 28 -83 28q-38 0 -73 -8v25q38 9 78 9q72 0 101 -38q20 -26 20 -68q0 -41 -21 -63t-53 -26q35 -6 57 -31.5t22 -69.5q0 -55 -34.5 -83.5
t-90.5 -28.5z" />
    <glyph glyph-name="acute" unicode="&#xb4;" horiz-adv-x="390" 
d="M112 574l-13 16l162 149l28 -33z" />
    <glyph glyph-name="uni00B5" unicode="&#xb5;" horiz-adv-x="517" 
d="M78 -225v715h29v-327q0 -83 32 -115q34 -34 107 -34t164 49v427h29v-490h-22l-4 38q-87 -52 -175 -52q-93 0 -131 51v-262h-29z" />
    <glyph glyph-name="paragraph" unicode="&#xb6;" horiz-adv-x="537" 
d="M246 -203v565q-98 0 -149 41.5t-51 118.5q0 74 47 118t115 44h284v-27h-70v-860h-30v860h-116v-860h-30z" />
    <glyph glyph-name="periodcentered" unicode="&#xb7;" horiz-adv-x="216" 
d="M107 343q-27 0 -27 26v4q0 27 27 27h2q27 0 27 -27v-4q0 -26 -27 -26h-2z" />
    <glyph glyph-name="cedilla" unicode="&#xb8;" horiz-adv-x="390" 
d="M187 -190q-31 0 -61 8v21q36 -6 57 -6q54 0 54 32q0 17 -16.5 27t-37 13.5t-37 14t-16.5 29.5q0 26 21 49h15q-13 -20 -13 -35q0 -18 17 -27.5t38 -12t38 -16.5t17 -41q0 -25 -19 -40.5t-57 -15.5z" />
    <glyph glyph-name="uni00B9" unicode="&#xb9;" horiz-adv-x="447" 
d="M133 369v25h88v330h-83v24q48 6 88 6q16 0 20 -4.5t4 -15.5v-340h72v-25h-189z" />
    <glyph glyph-name="ordmasculine" unicode="&#xba;" horiz-adv-x="420" 
d="M210 351q-67 0 -105 45.5t-38 127.5t38 127.5t105 45.5t105 -45.5t38 -127.5t-38 -127.5t-105 -45.5zM210 379q113 0 113 145q0 146 -113 146t-113 -146q0 -145 113 -145z" />
    <glyph glyph-name="guillemotright" unicode="&#xbb;" horiz-adv-x="487" 
d="M94 74l-19 14l129 174l-129 174l19 14l118 -140q24 -30 24 -48t-24 -48zM249 74l-19 14l129 174l-129 174l19 14l118 -140q24 -30 24 -48t-24 -48z" />
    <glyph glyph-name="onequarter" unicode="&#xbc;" horiz-adv-x="836" 
d="M239 -14l337 711h30l-337 -711h-30zM115 299v25h88v330h-83v24q48 6 88 6q16 0 20 -4.5t4 -15.5v-340h72v-25h-189zM665 0v103h-187q-3 6 -3 15q0 10 6 26l88 243h29l-95 -260h162v112h26v-112h42v-24h-42v-103h-26z" />
    <glyph glyph-name="onehalf" unicode="&#xbd;" horiz-adv-x="836" 
d="M239 -14l337 711h30l-337 -711h-30zM115 299v25h88v330h-83v24q48 6 88 6q16 0 20 -4.5t4 -15.5v-340h72v-25h-189zM507 0q-2 6 -2 12q0 13 25 44l92 113q42 51 56.5 79t14.5 51q0 69 -94 69q-44 0 -80 -10v25q35 11 86 11q59 0 89 -26q28 -25 28 -69q0 -31 -15 -59.5
t-63 -86.5l-105 -127h185v-26h-217z" />
    <glyph glyph-name="threequarters" unicode="&#xbe;" horiz-adv-x="836" 
d="M249 -14l337 711h30l-337 -711h-30zM189 288q-49 0 -82 10v25q45 -9 76 -9q50 0 76.5 23.5t26.5 64.5q0 38 -24 62t-75 24h-14v26h14q94 0 94 76q0 32 -15 52q-21 28 -83 28q-38 0 -73 -8v25q38 9 78 9q72 0 101 -38q20 -26 20 -68q0 -41 -21 -63t-53 -26q35 -6 57 -31.5
t22 -69.5q0 -55 -34.5 -83.5t-90.5 -28.5zM679 0v103h-187q-3 6 -3 15q0 10 6 26l88 243h29l-95 -260h162v112h26v-112h42v-24h-42v-103h-26z" />
    <glyph glyph-name="questiondown" unicode="&#xbf;" horiz-adv-x="394" 
d="M251 483q27 0 27 -26v-4q0 -27 -27 -27h-2q-27 0 -27 27v4q0 26 27 26h2zM266 314q3 -15 3 -34q0 -41 -14.5 -72.5t-55.5 -80.5l-10 -12q-67 -79 -87.5 -115.5t-20.5 -78.5q0 -60 42 -94q35 -28 115 -28q52 0 108 14l4 -21q-42 -20 -124 -20q-78 0 -122 33
q-53 39 -53 117q0 47 20 84.5t77 104.5q64 74 77.5 103t13.5 100h27z" />
    <glyph glyph-name="Agrave" unicode="&#xc0;" horiz-adv-x="528" 
d="M340 742l-177 132l28 33l162 -149zM26 0l213 684h39l224 -684h-32l-62 193h-291l-59 -193h-32zM126 220h273l-140 435z" />
    <glyph glyph-name="Aacute" unicode="&#xc1;" horiz-adv-x="528" 
d="M197 742l-13 16l162 149l28 -33zM26 0l213 684h39l224 -684h-32l-62 193h-291l-59 -193h-32zM126 220h273l-140 435z" />
    <glyph glyph-name="Acircumflex" unicode="&#xc2;" horiz-adv-x="528" 
d="M137 729l-16 16l118 126h39l118 -126l-15 -16l-122 115zM26 0l213 684h39l224 -684h-32l-62 193h-291l-59 -193h-32zM126 220h273l-140 435z" />
    <glyph glyph-name="Atilde" unicode="&#xc3;" horiz-adv-x="528" 
d="M320 771q-24 0 -62.5 21.5t-57.5 21.5q-27 0 -44 -40l-23 6q14 68 66 68q25 0 63 -22t57 -22q26 0 44 40l22 -6q-14 -67 -65 -67zM26 0l213 684h39l224 -684h-32l-62 193h-291l-59 -193h-32zM126 220h273l-140 435z" />
    <glyph glyph-name="Adieresis" unicode="&#xc4;" horiz-adv-x="528" 
d="M171 783q-33 0 -33 32v4q0 15 9 24t24 9h2q15 0 24 -9t9 -24v-4q0 -32 -33 -32h-2zM345 783q-33 0 -33 32v4q0 15 9 24t24 9h2q15 0 24 -9t9 -24v-4q0 -32 -33 -32h-2zM26 0l213 684h39l224 -684h-32l-62 193h-291l-59 -193h-32zM126 220h273l-140 435z" />
    <glyph glyph-name="Aring" unicode="&#xc5;" horiz-adv-x="528" 
d="M256 756q-49 0 -75 28t-26 73t26.5 73t75.5 28h4q49 0 75.5 -28t26.5 -73t-27 -73t-76 -28h-4zM185 858v-3q0 -35 18.5 -54t51.5 -19h5q73 0 73 73v3q0 73 -72 73h-5q-34 0 -52.5 -19t-18.5 -54zM155 858v-1v-1v2zM363 858v-2v1v1zM278 684l224 -684h-32l-62 193h-291
l-59 -193h-32l213 684h39zM126 220h273l-140 435z" />
    <glyph glyph-name="AE" unicode="&#xc6;" horiz-adv-x="803" 
d="M10 0l384 684h341l-6 -27h-291v-296h243v-27h-243v-306h307v-28h-337v189h-259l-107 -189h-32zM164 216h244v437z" />
    <glyph glyph-name="Ccedilla" unicode="&#xc7;" horiz-adv-x="516" 
d="M337 -14h-5q-6 -14 -6 -23q0 -18 17 -27.5t38 -12t38 -16.5t17 -41q0 -25 -19 -40.5t-57 -15.5q-31 0 -61 8v21q36 -6 57 -6q54 0 54 32q0 17 -16.5 27t-37 13.5t-37 14t-16.5 29.5t12 38q-251 13 -251 345q0 186 72.5 275.5t197.5 89.5q75 0 143 -26l-7 -28
q-67 24 -130 24q-244 0 -244 -336q0 -165 61 -239.5t186 -74.5q47 0 123 17l5 -28q-66 -20 -134 -20z" />
    <glyph glyph-name="Egrave" unicode="&#xc8;" horiz-adv-x="489" 
d="M336 742l-177 132l28 33l162 -149zM94 0v684h327l-6 -27h-291v-296h243v-27h-243v-307h307v-27h-337z" />
    <glyph glyph-name="Eacute" unicode="&#xc9;" horiz-adv-x="489" 
d="M196 742l-13 16l162 149l28 -33zM94 0v684h327l-6 -27h-291v-296h243v-27h-243v-307h307v-27h-337z" />
    <glyph glyph-name="Ecircumflex" unicode="&#xca;" horiz-adv-x="489" 
d="M133 729l-16 16l118 126h39l118 -126l-15 -16l-122 115zM94 0v684h327l-6 -27h-291v-296h243v-27h-243v-307h307v-27h-337z" />
    <glyph glyph-name="Edieresis" unicode="&#xcb;" horiz-adv-x="489" 
d="M167 783q-33 0 -33 32v4q0 15 9 24t24 9h2q15 0 24 -9t9 -24v-4q0 -32 -33 -32h-2zM341 783q-33 0 -33 32v4q0 15 9 24t24 9h2q15 0 24 -9t9 -24v-4q0 -32 -33 -32h-2zM94 0v684h327l-6 -27h-291v-296h243v-27h-243v-307h307v-27h-337z" />
    <glyph glyph-name="Igrave" unicode="&#xcc;" horiz-adv-x="218" 
d="M190 742l-177 132l28 33l162 -149zM94 0v684h30v-684h-30z" />
    <glyph glyph-name="Iacute" unicode="&#xcd;" horiz-adv-x="218" 
d="M47 742l-13 16l162 149l28 -33zM94 0v684h30v-684h-30z" />
    <glyph glyph-name="Icircumflex" unicode="&#xce;" horiz-adv-x="218" 
d="M-13 729l-16 16l118 126h39l118 -126l-15 -16l-122 115zM94 0v684h30v-684h-30z" />
    <glyph glyph-name="Idieresis" unicode="&#xcf;" horiz-adv-x="218" 
d="M21 783q-33 0 -33 32v4q0 15 9 24t24 9h2q15 0 24 -9t9 -24v-4q0 -32 -33 -32h-2zM195 783q-33 0 -33 32v4q0 15 9 24t24 9h2q15 0 24 -9t9 -24v-4q0 -32 -33 -32h-2zM94 0v684h30v-684h-30z" />
    <glyph glyph-name="Eth" unicode="&#xd0;" horiz-adv-x="595" 
d="M452 625q79 -71 79 -281q0 -211 -79 -286q-61 -58 -195 -58h-178v333h-83v14l83 13v324h149q81 0 133 -12t91 -47zM428 81q71 68 71 268q0 191 -68 253q-61 55 -200 55h-122v-297h165v-27h-165v-306h139q123 0 180 54z" />
    <glyph glyph-name="Ntilde" unicode="&#xd1;" horiz-adv-x="651" 
d="M387 771q-24 0 -62.5 21.5t-57.5 21.5q-27 0 -44 -40l-23 6q14 68 66 68q25 0 63 -22t57 -22q26 0 44 40l22 -6q-14 -67 -65 -67zM94 0v684h22l413 -624v624h28v-684h-23l-412 624v-624h-28z" />
    <glyph glyph-name="Ograve" unicode="&#xd2;" horiz-adv-x="619" 
d="M391 742l-177 132l28 33l162 -149zM310 -14q-246 0 -246 355q0 356 246 356q245 0 245 -356q0 -355 -245 -355zM310 17q113 0 163 82t50 242q0 161 -50 243.5t-163 82.5t-163.5 -82.5t-50.5 -243.5q0 -160 50.5 -242t163.5 -82z" />
    <glyph glyph-name="Oacute" unicode="&#xd3;" horiz-adv-x="619" 
d="M248 742l-13 16l162 149l28 -33zM310 -14q-246 0 -246 355q0 356 246 356q245 0 245 -356q0 -355 -245 -355zM310 17q113 0 163 82t50 242q0 161 -50 243.5t-163 82.5t-163.5 -82.5t-50.5 -243.5q0 -160 50.5 -242t163.5 -82z" />
    <glyph glyph-name="Ocircumflex" unicode="&#xd4;" horiz-adv-x="619" 
d="M188 729l-16 16l118 126h39l118 -126l-15 -16l-122 115zM310 -14q-246 0 -246 355q0 356 246 356q245 0 245 -356q0 -355 -245 -355zM310 17q113 0 163 82t50 242q0 161 -50 243.5t-163 82.5t-163.5 -82.5t-50.5 -243.5q0 -160 50.5 -242t163.5 -82z" />
    <glyph glyph-name="Otilde" unicode="&#xd5;" horiz-adv-x="619" 
d="M371 771q-24 0 -62.5 21.5t-57.5 21.5q-27 0 -44 -40l-23 6q14 68 66 68q25 0 63 -22t57 -22q26 0 44 40l22 -6q-14 -67 -65 -67zM310 -14q-246 0 -246 355q0 356 246 356q245 0 245 -356q0 -355 -245 -355zM310 17q113 0 163 82t50 242q0 161 -50 243.5t-163 82.5
t-163.5 -82.5t-50.5 -243.5q0 -160 50.5 -242t163.5 -82z" />
    <glyph glyph-name="Odieresis" unicode="&#xd6;" horiz-adv-x="619" 
d="M222 783q-33 0 -33 32v4q0 15 9 24t24 9h2q15 0 24 -9t9 -24v-4q0 -32 -33 -32h-2zM396 783q-33 0 -33 32v4q0 15 9 24t24 9h2q15 0 24 -9t9 -24v-4q0 -32 -33 -32h-2zM310 -14q-246 0 -246 355q0 356 246 356q245 0 245 -356q0 -355 -245 -355zM310 17q113 0 163 82
t50 242q0 161 -50 243.5t-163 82.5t-163.5 -82.5t-50.5 -243.5q0 -160 50.5 -242t163.5 -82z" />
    <glyph glyph-name="multiply" unicode="&#xd7;" horiz-adv-x="485" 
d="M149 225l-18 18l94 94l-94 94l18 18l94 -94l94 94l18 -18l-94 -94l94 -94l-18 -18l-94 94z" />
    <glyph glyph-name="Oslash" unicode="&#xd8;" horiz-adv-x="619" 
d="M130 -74l40 102q-106 80 -106 313q0 356 246 356q64 0 113 -25l34 85h30l-40 -101q108 -79 108 -315q0 -355 -245 -355q-67 0 -116 26l-34 -86h-30zM182 58l230 585q-42 24 -102 24q-113 0 -163.5 -82.5t-50.5 -243.5q0 -211 86 -283zM310 17q113 0 163 82t50 242
q0 214 -87 286l-231 -585q43 -25 105 -25z" />
    <glyph glyph-name="Ugrave" unicode="&#xd9;" horiz-adv-x="622" 
d="M392 742l-177 132l28 33l162 -149zM313 -14q-125 0 -179 63q-46 53 -46 169v466h30v-465q0 -108 42 -154q45 -49 151 -49q97 0 145 44q50 46 50 154v470h28v-477q0 -112 -56 -167q-56 -54 -165 -54z" />
    <glyph glyph-name="Uacute" unicode="&#xda;" horiz-adv-x="622" 
d="M249 742l-13 16l162 149l28 -33zM313 -14q-125 0 -179 63q-46 53 -46 169v466h30v-465q0 -108 42 -154q45 -49 151 -49q97 0 145 44q50 46 50 154v470h28v-477q0 -112 -56 -167q-56 -54 -165 -54z" />
    <glyph glyph-name="Ucircumflex" unicode="&#xdb;" horiz-adv-x="622" 
d="M189 729l-16 16l118 126h39l118 -126l-15 -16l-122 115zM313 -14q-125 0 -179 63q-46 53 -46 169v466h30v-465q0 -108 42 -154q45 -49 151 -49q97 0 145 44q50 46 50 154v470h28v-477q0 -112 -56 -167q-56 -54 -165 -54z" />
    <glyph glyph-name="Udieresis" unicode="&#xdc;" horiz-adv-x="622" 
d="M223 783q-33 0 -33 32v4q0 15 9 24t24 9h2q15 0 24 -9t9 -24v-4q0 -32 -33 -32h-2zM397 783q-33 0 -33 32v4q0 15 9 24t24 9h2q15 0 24 -9t9 -24v-4q0 -32 -33 -32h-2zM313 -14q-125 0 -179 63q-46 53 -46 169v466h30v-465q0 -108 42 -154q45 -49 151 -49q97 0 145 44
q50 46 50 154v470h28v-477q0 -112 -56 -167q-56 -54 -165 -54z" />
    <glyph glyph-name="Yacute" unicode="&#xdd;" horiz-adv-x="516" 
d="M192 742l-13 16l162 149l28 -33zM238 0v280l-210 404h33l193 -376l202 376h32l-220 -404v-280h-30z" />
    <glyph glyph-name="Thorn" unicode="&#xde;" horiz-adv-x="536" 
d="M94 0v684h30v-114h160q106 0 151 -48q50 -53 50 -158q0 -103 -46 -155q-44 -51 -134 -51h-181v-158h-30zM124 185h169q48 0 75.5 10t47.5 33q37 44 37 134q0 92 -40 138q-37 43 -133 43h-156v-358z" />
    <glyph glyph-name="germandbls" unicode="&#xdf;" horiz-adv-x="565" 
d="M358 -14q-69 0 -123 14l3 27q52 -13 119 -13q146 0 146 104q0 41 -24.5 70t-59.5 46.5l-69.5 33.5t-59 41t-24.5 59q0 30 16.5 54t40 41.5l47.5 35t40.5 42.5t16.5 56q0 46 -34 76.5t-93 30.5q-76 0 -121 -47q-40 -41 -40 -150v-507h-29v463h-88v21l88 6v14q0 121 48 171
q54 57 142 57q72 0 114 -37.5t42 -96.5q0 -35 -16.5 -63.5t-40 -47t-47.5 -35t-40.5 -37t-16.5 -44.5q0 -28 24.5 -49.5t59.5 -37.5t70 -34.5t59.5 -52t24.5 -78.5q0 -133 -175 -133z" />
    <glyph glyph-name="agrave" unicode="&#xe0;" horiz-adv-x="472" 
d="M318 574l-177 132l28 33l162 -149zM206 -14q-70 0 -114 38t-44 114q0 62 34 97q42 43 150 43h136v52q0 82 -30 114q-31 32 -107 32q-66 0 -138 -18l-3 25q74 21 144 21q89 0 127 -41q36 -39 36 -120v-343h-22l-4 33q-78 -47 -165 -47zM214 14q83 0 154 43v194h-132
q-94 0 -129 -33q-29 -27 -29 -80q0 -62 36.5 -93t99.5 -31z" />
    <glyph glyph-name="aacute" unicode="&#xe1;" horiz-adv-x="472" 
d="M154 574l-13 16l162 149l28 -33zM206 -14q-70 0 -114 38t-44 114q0 62 34 97q42 43 150 43h136v52q0 82 -30 114q-31 32 -107 32q-66 0 -138 -18l-3 25q74 21 144 21q89 0 127 -41q36 -39 36 -120v-343h-22l-4 33q-78 -47 -165 -47zM214 14q83 0 154 43v194h-132
q-94 0 -129 -33q-29 -27 -29 -80q0 -62 36.5 -93t99.5 -31z" />
    <glyph glyph-name="acircumflex" unicode="&#xe2;" horiz-adv-x="472" 
d="M114 583l-16 16l118 126h39l118 -126l-15 -16l-122 115zM206 -14q-70 0 -114 38t-44 114q0 62 34 97q42 43 150 43h136v52q0 82 -30 114q-31 32 -107 32q-66 0 -138 -18l-3 25q74 21 144 21q89 0 127 -41q36 -39 36 -120v-343h-22l-4 33q-78 -47 -165 -47zM214 14
q83 0 154 43v194h-132q-94 0 -129 -33q-29 -27 -29 -80q0 -62 36.5 -93t99.5 -31z" />
    <glyph glyph-name="atilde" unicode="&#xe3;" horiz-adv-x="472" 
d="M297 609q-24 0 -62.5 21.5t-57.5 21.5q-27 0 -44 -40l-23 6q14 68 66 68q25 0 63 -22t57 -22q26 0 44 40l22 -6q-14 -67 -65 -67zM206 -14q-70 0 -114 38t-44 114q0 62 34 97q42 43 150 43h136v52q0 82 -30 114q-31 32 -107 32q-66 0 -138 -18l-3 25q74 21 144 21
q89 0 127 -41q36 -39 36 -120v-343h-22l-4 33q-78 -47 -165 -47zM214 14q83 0 154 43v194h-132q-94 0 -129 -33q-29 -27 -29 -80q0 -62 36.5 -93t99.5 -31z" />
    <glyph glyph-name="adieresis" unicode="&#xe4;" horiz-adv-x="472" 
d="M148 615q-33 0 -33 32v4q0 15 9 24t24 9h2q15 0 24 -9t9 -24v-4q0 -32 -33 -32h-2zM322 615q-33 0 -33 32v4q0 15 9 24t24 9h2q15 0 24 -9t9 -24v-4q0 -32 -33 -32h-2zM206 -14q-70 0 -114 38t-44 114q0 62 34 97q42 43 150 43h136v52q0 82 -30 114q-31 32 -107 32
q-66 0 -138 -18l-3 25q74 21 144 21q89 0 127 -41q36 -39 36 -120v-343h-22l-4 33q-78 -47 -165 -47zM214 14q83 0 154 43v194h-132q-94 0 -129 -33q-29 -27 -29 -80q0 -62 36.5 -93t99.5 -31z" />
    <glyph glyph-name="aring" unicode="&#xe5;" horiz-adv-x="472" 
d="M233 588q-49 0 -75 28t-26 73t26.5 73t75.5 28h4q49 0 75.5 -28t26.5 -73t-27 -73t-76 -28h-4zM162 690v-3q0 -35 18.5 -54t51.5 -19h5q73 0 73 73v3q0 73 -72 73h-5q-34 0 -52.5 -19t-18.5 -54zM132 690v-1v-1v2zM340 690v-2v1v1zM361 463q36 -39 36 -120v-343h-22
l-4 33q-78 -47 -165 -47q-70 0 -114 38t-44 114q0 62 34 97q42 43 150 43h136v52q0 82 -30 114q-31 32 -107 32q-66 0 -138 -18l-3 25q74 21 144 21q89 0 127 -41zM368 57v194h-132q-94 0 -129 -33q-29 -27 -29 -80q0 -62 36.5 -93t99.5 -31q83 0 154 43z" />
    <glyph glyph-name="ae" unicode="&#xe6;" horiz-adv-x="787" 
d="M207 -14q-72 0 -115.5 38.5t-43.5 113.5q0 62 34 97q42 43 150 43h134v53q0 81 -31 114q-30 31 -107 31q-62 0 -135 -19l-5 26q74 21 144 21q89 0 127 -41q24 -25 31 -70q49 111 166 111q178 0 178 -253v-11q0 -11 -12 -11h-328q2 -108 46 -161t143 -53q67 0 124 16
l4 -27q-54 -18 -130 -18q-116 0 -170 73q-37 -31 -93 -52t-111 -21zM394 256h311q0 220 -149 220q-80 0 -120 -58t-42 -162zM216 15q105 0 181 65q-31 52 -31 171h-130q-94 0 -129 -33q-29 -27 -29 -80q0 -62 36.5 -92.5t101.5 -30.5z" />
    <glyph glyph-name="ccedilla" unicode="&#xe7;" horiz-adv-x="420" 
d="M238 -37q0 -18 17 -27.5t38 -12t38 -16.5t17 -41q0 -25 -19 -40.5t-57 -15.5q-31 0 -61 8v21q36 -6 57 -6q54 0 54 32q0 17 -16.5 27t-37 13.5t-37 14t-16.5 29.5q0 21 14 40q-86 12 -129.5 72.5t-43.5 182.5q0 136 54 198t159 62q64 0 110 -19l-3 -26q-53 17 -105 17
q-92 0 -138.5 -52t-46.5 -180q0 -123 47 -176t152 -53q48 0 91 9l4 -26q-45 -12 -98 -12q-13 0 -37 2q-7 -14 -7 -25z" />
    <glyph glyph-name="egrave" unicode="&#xe8;" horiz-adv-x="483" 
d="M328 574l-177 132l28 33l162 -149zM273 -14q-217 0 -217 258q0 74 18 130.5t61.5 93t108.5 36.5q93 0 137.5 -62t44.5 -191v-11q0 -11 -12 -11h-328q2 -106 45.5 -160t142.5 -54q68 0 125 16l4 -27q-54 -18 -130 -18zM86 256h311q0 115 -38 167.5t-115 52.5t-117 -59.5
t-41 -160.5z" />
    <glyph glyph-name="eacute" unicode="&#xe9;" horiz-adv-x="483" 
d="M164 574l-13 16l162 149l28 -33zM273 -14q-217 0 -217 258q0 74 18 130.5t61.5 93t108.5 36.5q93 0 137.5 -62t44.5 -191v-11q0 -11 -12 -11h-328q2 -106 45.5 -160t142.5 -54q68 0 125 16l4 -27q-54 -18 -130 -18zM86 256h311q0 115 -38 167.5t-115 52.5t-117 -59.5
t-41 -160.5z" />
    <glyph glyph-name="ecircumflex" unicode="&#xea;" horiz-adv-x="483" 
d="M124 583l-16 16l118 126h39l118 -126l-15 -16l-122 115zM273 -14q-217 0 -217 258q0 74 18 130.5t61.5 93t108.5 36.5q93 0 137.5 -62t44.5 -191v-11q0 -11 -12 -11h-328q2 -106 45.5 -160t142.5 -54q68 0 125 16l4 -27q-54 -18 -130 -18zM86 256h311q0 115 -38 167.5
t-115 52.5t-117 -59.5t-41 -160.5z" />
    <glyph glyph-name="edieresis" unicode="&#xeb;" horiz-adv-x="483" 
d="M158 615q-33 0 -33 32v4q0 15 9 24t24 9h2q15 0 24 -9t9 -24v-4q0 -32 -33 -32h-2zM332 615q-33 0 -33 32v4q0 15 9 24t24 9h2q15 0 24 -9t9 -24v-4q0 -32 -33 -32h-2zM273 -14q-217 0 -217 258q0 74 18 130.5t61.5 93t108.5 36.5q93 0 137.5 -62t44.5 -191v-11
q0 -11 -12 -11h-328q2 -106 45.5 -160t142.5 -54q68 0 125 16l4 -27q-54 -18 -130 -18zM86 256h311q0 115 -38 167.5t-115 52.5t-117 -59.5t-41 -160.5z" />
    <glyph glyph-name="igrave" unicode="&#xec;" horiz-adv-x="185" 
d="M175 574l-177 132l28 33l162 -149zM78 0v490h29v-490h-29z" />
    <glyph glyph-name="iacute" unicode="&#xed;" horiz-adv-x="185" 
d="M11 574l-13 16l162 149l28 -33zM78 0v490h29v-490h-29z" />
    <glyph glyph-name="icircumflex" unicode="&#xee;" horiz-adv-x="185" 
d="M-29 583l-16 16l118 126h39l118 -126l-15 -16l-122 115zM78 0v490h29v-490h-29z" />
    <glyph glyph-name="idieresis" unicode="&#xef;" horiz-adv-x="185" 
d="M5 615q-33 0 -33 32v4q0 15 9 24t24 9h2q15 0 24 -9t9 -24v-4q0 -32 -33 -32h-2zM179 615q-33 0 -33 32v4q0 15 9 24t24 9h2q15 0 24 -9t9 -24v-4q0 -32 -33 -32h-2zM78 0v490h29v-490h-29z" />
    <glyph glyph-name="eth" unicode="&#xf0;" horiz-adv-x="526" 
d="M259 -14q-93 0 -147 61t-54 180q0 116 53.5 177.5t152.5 61.5q72 0 153 -34q-30 108 -117 217l-78 -57l-13 18l76 55q-46 51 -100 89l17 20q65 -48 106 -92l82 59l13 -18l-80 -57q143 -169 143 -395q0 -143 -54 -214t-153 -71zM260 14q176 0 176 252q0 72 -13 137
q-86 35 -152 35q-91 0 -137 -54.5t-46 -156.5q0 -97 42.5 -155t129.5 -58z" />
    <glyph glyph-name="ntilde" unicode="&#xf1;" horiz-adv-x="516" 
d="M319 609q-24 0 -62.5 21.5t-57.5 21.5q-27 0 -44 -40l-23 6q14 68 66 68q25 0 63 -22t57 -22q26 0 44 40l22 -6q-14 -67 -65 -67zM78 0v490h22l4 -38q87 52 176 52q79 0 121 -39q40 -36 40 -119v-346h-29v327q0 83 -32 115q-34 34 -108 34t-165 -49v-427h-29z" />
    <glyph glyph-name="ograve" unicode="&#xf2;" horiz-adv-x="509" 
d="M337 574l-177 132l28 33l162 -149zM255 -14q-199 0 -199 259q0 129 48 194t151 65q198 0 198 -259t-198 -259zM255 15q91 0 129.5 57.5t38.5 172.5t-39 173t-129 58q-91 0 -130 -58t-39 -173t39 -172.5t130 -57.5z" />
    <glyph glyph-name="oacute" unicode="&#xf3;" horiz-adv-x="509" 
d="M173 574l-13 16l162 149l28 -33zM255 -14q-199 0 -199 259q0 129 48 194t151 65q198 0 198 -259t-198 -259zM255 15q91 0 129.5 57.5t38.5 172.5t-39 173t-129 58q-91 0 -130 -58t-39 -173t39 -172.5t130 -57.5z" />
    <glyph glyph-name="ocircumflex" unicode="&#xf4;" horiz-adv-x="509" 
d="M133 583l-16 16l118 126h39l118 -126l-15 -16l-122 115zM255 -14q-199 0 -199 259q0 129 48 194t151 65q198 0 198 -259t-198 -259zM255 15q91 0 129.5 57.5t38.5 172.5t-39 173t-129 58q-91 0 -130 -58t-39 -173t39 -172.5t130 -57.5z" />
    <glyph glyph-name="otilde" unicode="&#xf5;" horiz-adv-x="509" 
d="M316 609q-24 0 -62.5 21.5t-57.5 21.5q-27 0 -44 -40l-23 6q14 68 66 68q25 0 63 -22t57 -22q26 0 44 40l22 -6q-14 -67 -65 -67zM255 -14q-199 0 -199 259q0 129 48 194t151 65q198 0 198 -259t-198 -259zM255 15q91 0 129.5 57.5t38.5 172.5t-39 173t-129 58
q-91 0 -130 -58t-39 -173t39 -172.5t130 -57.5z" />
    <glyph glyph-name="odieresis" unicode="&#xf6;" horiz-adv-x="509" 
d="M167 615q-33 0 -33 32v4q0 15 9 24t24 9h2q15 0 24 -9t9 -24v-4q0 -32 -33 -32h-2zM341 615q-33 0 -33 32v4q0 15 9 24t24 9h2q15 0 24 -9t9 -24v-4q0 -32 -33 -32h-2zM255 -14q-199 0 -199 259q0 129 48 194t151 65q198 0 198 -259t-198 -259zM255 15q91 0 129.5 57.5
t38.5 172.5t-39 173t-129 58q-91 0 -130 -58t-39 -173t39 -172.5t130 -57.5z" />
    <glyph glyph-name="divide" unicode="&#xf7;" horiz-adv-x="485" 
d="M237 447q-27 0 -27 26v4q0 27 27 27h2q27 0 27 -27v-4q0 -26 -27 -26h-2zM96 323v26h293v-26h-293zM237 157q-27 0 -27 26v4q0 27 27 27h2q27 0 27 -27v-4q0 -26 -27 -26h-2z" />
    <glyph glyph-name="oslash" unicode="&#xf8;" horiz-adv-x="509" 
d="M100 -92l44 106q-88 56 -88 231q0 129 48 194t151 65q49 0 85 -15l39 93h29l-44 -106q89 -55 89 -231q0 -259 -198 -259q-52 0 -87 16l-39 -94h-29zM155 42l175 421q-34 13 -75 13q-91 0 -130 -58t-39 -173q0 -155 69 -203zM255 15q91 0 129.5 57.5t38.5 172.5
q0 156 -70 204l-174 -420q33 -14 76 -14z" />
    <glyph glyph-name="ugrave" unicode="&#xf9;" horiz-adv-x="514" 
d="M339 574l-177 132l28 33l162 -149zM235 -14q-78 0 -120 39q-40 36 -40 119v346h29v-327q0 -83 32 -115q34 -34 107 -34t164 49v427h29v-490h-22l-4 38q-87 -52 -175 -52z" />
    <glyph glyph-name="uacute" unicode="&#xfa;" horiz-adv-x="514" 
d="M175 574l-13 16l162 149l28 -33zM235 -14q-78 0 -120 39q-40 36 -40 119v346h29v-327q0 -83 32 -115q34 -34 107 -34t164 49v427h29v-490h-22l-4 38q-87 -52 -175 -52z" />
    <glyph glyph-name="ucircumflex" unicode="&#xfb;" horiz-adv-x="514" 
d="M135 583l-16 16l118 126h39l118 -126l-15 -16l-122 115zM235 -14q-78 0 -120 39q-40 36 -40 119v346h29v-327q0 -83 32 -115q34 -34 107 -34t164 49v427h29v-490h-22l-4 38q-87 -52 -175 -52z" />
    <glyph glyph-name="udieresis" unicode="&#xfc;" horiz-adv-x="514" 
d="M169 615q-33 0 -33 32v4q0 15 9 24t24 9h2q15 0 24 -9t9 -24v-4q0 -32 -33 -32h-2zM343 615q-33 0 -33 32v4q0 15 9 24t24 9h2q15 0 24 -9t9 -24v-4q0 -32 -33 -32h-2zM235 -14q-78 0 -120 39q-40 36 -40 119v346h29v-327q0 -83 32 -115q34 -34 107 -34t164 49v427h29
v-490h-22l-4 38q-87 -52 -175 -52z" />
    <glyph glyph-name="yacute" unicode="&#xfd;" horiz-adv-x="514" 
d="M175 574l-13 16l162 149l28 -33zM272 -239q-45 0 -68 7l-7 27q30 -6 65 -6q79 0 114 29q31 25 31 110v108q-84 -50 -172 -50q-78 0 -120 39q-40 36 -40 119v346h29v-327q0 -84 32 -115q36 -34 106 -34q74 0 165 49v427h29v-564q0 -94 -35 -127q-41 -38 -129 -38z" />
    <glyph glyph-name="thorn" unicode="&#xfe;" horiz-adv-x="499" 
d="M256 504q92 0 139.5 -59.5t47.5 -197.5q0 -126 -40.5 -193.5t-144.5 -67.5q-83 0 -151 50v-261h-29v940h29v-262q78 51 149 51zM255 15q48 0 80 16.5t48.5 50t23 72.5t6.5 94q0 121 -38.5 174.5t-123.5 53.5q-68 0 -144 -50v-360q26 -21 66.5 -36t81.5 -15z" />
    <glyph glyph-name="ydieresis" unicode="&#xff;" horiz-adv-x="514" 
d="M169 615q-33 0 -33 32v4q0 15 9 24t24 9h2q15 0 24 -9t9 -24v-4q0 -32 -33 -32h-2zM343 615q-33 0 -33 32v4q0 15 9 24t24 9h2q15 0 24 -9t9 -24v-4q0 -32 -33 -32h-2zM272 -239q-45 0 -68 7l-7 27q30 -6 65 -6q79 0 114 29q31 25 31 110v108q-84 -50 -172 -50
q-78 0 -120 39q-40 36 -40 119v346h29v-327q0 -84 32 -115q36 -34 106 -34q74 0 165 49v427h29v-564q0 -94 -35 -127q-41 -38 -129 -38z" />
    <glyph glyph-name="Amacron" unicode="&#x100;" horiz-adv-x="528" 
d="M147 815v27h223v-27h-223zM26 0l213 684h39l224 -684h-32l-62 193h-291l-59 -193h-32zM126 220h273l-140 435z" />
    <glyph glyph-name="amacron" unicode="&#x101;" horiz-adv-x="472" 
d="M124 626v27h223v-27h-223zM206 -14q-70 0 -114 38t-44 114q0 62 34 97q42 43 150 43h136v52q0 82 -30 114q-31 32 -107 32q-66 0 -138 -18l-3 25q74 21 144 21q89 0 127 -41q36 -39 36 -120v-343h-22l-4 33q-78 -47 -165 -47zM214 14q83 0 154 43v194h-132
q-94 0 -129 -33q-29 -27 -29 -80q0 -62 36.5 -93t99.5 -31z" />
    <glyph glyph-name="Abreve" unicode="&#x102;" horiz-adv-x="528" 
d="M259 748q-53 0 -81.5 31.5t-31.5 83.5h24q4 -35 25.5 -59.5t63.5 -24.5q77 0 89 84h23q-3 -52 -31 -83.5t-81 -31.5zM26 0l213 684h39l224 -684h-32l-62 193h-291l-59 -193h-32zM126 220h273l-140 435z" />
    <glyph glyph-name="abreve" unicode="&#x103;" horiz-adv-x="472" 
d="M236 582q-53 0 -81.5 31.5t-31.5 83.5h24q11 -84 89 -84q77 0 89 84h23q-3 -52 -31 -83.5t-81 -31.5zM206 -14q-70 0 -114 38t-44 114q0 62 34 97q42 43 150 43h136v52q0 82 -30 114q-31 32 -107 32q-66 0 -138 -18l-3 25q74 21 144 21q89 0 127 -41q36 -39 36 -120v-343
h-22l-4 33q-78 -47 -165 -47zM214 14q83 0 154 43v194h-132q-94 0 -129 -33q-29 -27 -29 -80q0 -62 36.5 -93t99.5 -31z" />
    <glyph glyph-name="Aogonek" unicode="&#x104;" horiz-adv-x="528" 
d="M444 -198q-41 0 -64 21.5t-23 60.5q0 48 32.5 86t75.5 45l-57 178h-291l-59 -193h-32l213 684h39l224 -684h-5q-37 0 -63 -20q-20 -15 -34 -40.5t-14 -51.5q0 -61 68 -61q28 0 56 5v-20q-37 -10 -66 -10zM126 220h273l-140 434z" />
    <glyph glyph-name="aogonek" unicode="&#x105;" horiz-adv-x="472" 
d="M361 -198q-36 0 -59 22t-23 60q0 83 95 125l-3 24q-78 -47 -165 -47q-70 0 -114 38t-44 114q0 62 34 97q42 43 150 43h136v52q0 82 -30 114q-31 32 -107 32q-66 0 -138 -18l-3 25q74 21 144 21q89 0 127 -41q36 -39 36 -120v-343q-89 -37 -89 -112q0 -61 63 -61
q17 0 26 1v-22q-16 -4 -36 -4zM214 14q83 0 154 43v194h-132q-94 0 -129 -33q-29 -27 -29 -80q0 -62 36.5 -93t99.5 -31z" />
    <glyph glyph-name="Cacute" unicode="&#x106;" horiz-adv-x="516" 
d="M266 742l-13 16l162 149l28 -33zM337 -14q-273 0 -273 346q0 186 72.5 275.5t197.5 89.5q75 0 143 -26l-7 -28q-67 24 -130 24q-244 0 -244 -336q0 -165 61 -239.5t186 -74.5q47 0 123 17l5 -28q-66 -20 -134 -20z" />
    <glyph glyph-name="cacute" unicode="&#x107;" horiz-adv-x="420" 
d="M188 574l-13 16l162 149l28 -33zM282 -14q-112 0 -169 59.5t-57 198.5q0 136 54 198t159 62q64 0 110 -19l-3 -26q-53 17 -105 17q-92 0 -138.5 -52t-46.5 -180q0 -123 47 -176t152 -53q48 0 91 9l4 -26q-45 -12 -98 -12z" />
    <glyph glyph-name="Ccircumflex" unicode="&#x108;" horiz-adv-x="516" 
d="M206 729l-16 16l118 126h39l118 -126l-15 -16l-122 115zM337 -14q-273 0 -273 346q0 186 72.5 275.5t197.5 89.5q75 0 143 -26l-7 -28q-67 24 -130 24q-244 0 -244 -336q0 -165 61 -239.5t186 -74.5q47 0 123 17l5 -28q-66 -20 -134 -20z" />
    <glyph glyph-name="ccircumflex" unicode="&#x109;" horiz-adv-x="420" 
d="M148 583l-16 16l118 126h39l118 -126l-15 -16l-122 115zM282 -14q-112 0 -169 59.5t-57 198.5q0 136 54 198t159 62q64 0 110 -19l-3 -26q-53 17 -105 17q-92 0 -138.5 -52t-46.5 -180q0 -123 47 -176t152 -53q48 0 91 9l4 -26q-45 -12 -98 -12z" />
    <glyph glyph-name="Cdotaccent" unicode="&#x10a;" horiz-adv-x="516" 
d="M325 790q-28 0 -28 28v8q0 28 28 28h6q28 0 28 -28v-8q0 -28 -28 -28h-6zM337 -14q-273 0 -273 346q0 186 72.5 275.5t197.5 89.5q75 0 143 -26l-7 -28q-67 24 -130 24q-244 0 -244 -336q0 -165 61 -239.5t186 -74.5q47 0 123 17l5 -28q-66 -20 -134 -20z" />
    <glyph glyph-name="cdotaccent" unicode="&#x10b;" horiz-adv-x="420" 
d="M267 622q-28 0 -28 28v8q0 28 28 28h6q28 0 28 -28v-8q0 -28 -28 -28h-6zM282 -14q-112 0 -169 59.5t-57 198.5q0 136 54 198t159 62q64 0 110 -19l-3 -26q-53 17 -105 17q-92 0 -138.5 -52t-46.5 -180q0 -123 47 -176t152 -53q48 0 91 9l4 -26q-45 -12 -98 -12z" />
    <glyph glyph-name="Ccaron" unicode="&#x10c;" horiz-adv-x="516" 
d="M308 729l-118 126l16 16l122 -115l122 115l15 -16l-118 -126h-39zM337 -14q-273 0 -273 346q0 186 72.5 275.5t197.5 89.5q75 0 143 -26l-7 -28q-67 24 -130 24q-244 0 -244 -336q0 -165 61 -239.5t186 -74.5q47 0 123 17l5 -28q-66 -20 -134 -20z" />
    <glyph glyph-name="ccaron" unicode="&#x10d;" horiz-adv-x="420" 
d="M250 582l-118 126l16 16l122 -115l122 115l15 -16l-118 -126h-39zM282 -14q-112 0 -169 59.5t-57 198.5q0 136 54 198t159 62q64 0 110 -19l-3 -26q-53 17 -105 17q-92 0 -138.5 -52t-46.5 -180q0 -123 47 -176t152 -53q48 0 91 9l4 -26q-45 -12 -98 -12z" />
    <glyph glyph-name="Dcaron" unicode="&#x10e;" horiz-adv-x="610" 
d="M285 729l-118 126l16 16l122 -115l122 115l15 -16l-118 -126h-39zM94 0v684h149q81 0 133 -12t91 -47q79 -71 79 -281q0 -211 -79 -286q-61 -58 -195 -58h-178zM124 27h139q123 0 180 54q71 68 71 268q0 191 -68 253q-61 55 -200 55h-122v-630z" />
    <glyph glyph-name="dcaron" unicode="&#x10f;" horiz-adv-x="497" 
d="M248 -14q-101 0 -146.5 65t-45.5 193q0 260 194 260q77 0 144 -38v249h29v-715h-22l-4 31q-70 -45 -149 -45zM499 568v81q-20 4 -20 25v2q0 21 22 21h2q25 0 25 -34q0 -58 -14 -95h-15zM250 15q66 0 144 40v383q-71 38 -138 38q-87 0 -128.5 -55.5t-41.5 -173.5
q0 -119 38 -175.5t126 -56.5z" />
    <glyph glyph-name="Dcroat" unicode="&#x110;" horiz-adv-x="594" 
d="M451 625q79 -71 79 -281q0 -211 -79 -286q-61 -58 -195 -58h-178v333h-82v14l82 13v324h149q81 0 133 -12t91 -47zM427 81q71 68 71 268q0 191 -68 253q-61 55 -200 55h-122v-297h166v-27h-166v-306h139q123 0 180 54z" />
    <glyph glyph-name="dcroat" unicode="&#x111;" horiz-adv-x="506" 
d="M502 617v-19h-79v-598h-22l-4 31q-70 -45 -149 -45q-101 0 -146.5 65t-45.5 193q0 260 194 260q77 0 144 -38v132h-133v26h133v91h29v-92zM394 55v383q-71 38 -138 38q-87 0 -128.5 -55.5t-41.5 -173.5q0 -119 38 -175.5t126 -56.5q66 0 144 40z" />
    <glyph glyph-name="Emacron" unicode="&#x112;" horiz-adv-x="489" 
d="M143 815v27h223v-27h-223zM94 0v684h327l-6 -27h-291v-296h243v-27h-243v-307h307v-27h-337z" />
    <glyph glyph-name="emacron" unicode="&#x113;" horiz-adv-x="483" 
d="M134 626v27h223v-27h-223zM273 -14q-217 0 -217 258q0 74 18 130.5t61.5 93t108.5 36.5q93 0 137.5 -62t44.5 -191v-11q0 -11 -12 -11h-328q2 -106 45.5 -160t142.5 -54q68 0 125 16l4 -27q-54 -18 -130 -18zM86 256h311q0 115 -38 167.5t-115 52.5t-117 -59.5
t-41 -160.5z" />
    <glyph glyph-name="Ebreve" unicode="&#x114;" horiz-adv-x="489" 
d="M257 748q-53 0 -81.5 31.5t-31.5 83.5h24q4 -35 25.5 -59.5t63.5 -24.5q77 0 89 84h23q-3 -52 -31 -83.5t-81 -31.5zM94 0v684h327l-6 -27h-291v-296h243v-27h-243v-307h307v-27h-337z" />
    <glyph glyph-name="ebreve" unicode="&#x115;" horiz-adv-x="483" 
d="M246 582q-53 0 -81.5 31.5t-31.5 83.5h24q11 -84 89 -84q77 0 89 84h23q-3 -52 -31 -83.5t-81 -31.5zM273 -14q-217 0 -217 258q0 74 18 130.5t61.5 93t108.5 36.5q93 0 137.5 -62t44.5 -191v-11q0 -11 -12 -11h-328q2 -106 45.5 -160t142.5 -54q68 0 125 16l4 -27
q-54 -18 -130 -18zM86 256h311q0 115 -38 167.5t-115 52.5t-117 -59.5t-41 -160.5z" />
    <glyph glyph-name="Edotaccent" unicode="&#x116;" horiz-adv-x="489" 
d="M252 790q-28 0 -28 28v8q0 28 28 28h6q28 0 28 -28v-8q0 -28 -28 -28h-6zM94 0v684h327l-6 -27h-291v-296h243v-27h-243v-307h307v-27h-337z" />
    <glyph glyph-name="edotaccent" unicode="&#x117;" horiz-adv-x="483" 
d="M243 622q-28 0 -28 28v8q0 28 28 28h6q28 0 28 -28v-8q0 -28 -28 -28h-6zM273 -14q-217 0 -217 258q0 74 18 130.5t61.5 93t108.5 36.5q93 0 137.5 -62t44.5 -191v-11q0 -11 -12 -11h-328q2 -106 45.5 -160t142.5 -54q68 0 125 16l4 -27q-54 -18 -130 -18zM86 256h311
q0 115 -38 167.5t-115 52.5t-117 -59.5t-41 -160.5z" />
    <glyph glyph-name="Eogonek" unicode="&#x118;" horiz-adv-x="488" 
d="M375 -198q-41 0 -64 21.5t-23 60.5q0 37 19.5 68t48.5 48h-262v684h327l-6 -27h-291v-296h243v-27h-243v-307h307v-27h-18q-30 0 -58 -28q-38 -38 -38 -84q0 -61 68 -61q29 0 56 5v-20q-37 -10 -66 -10z" />
    <glyph glyph-name="eogonek" unicode="&#x119;" horiz-adv-x="483" 
d="M351 -198q-41 0 -64 21.5t-23 60.5q0 32 15 60.5t39 44.5q-12 -3 -45 -3q-217 0 -217 258q0 74 18 130.5t61.5 93t108.5 36.5q93 0 137.5 -62t44.5 -191v-11q0 -11 -12 -11h-328q2 -106 45.5 -160t142.5 -54q68 0 125 16l4 -27q-54 -15 -78 -38q-32 -32 -32 -78
q0 -61 68 -61q29 0 56 5v-20q-37 -10 -66 -10zM86 256h311q0 115 -38 167.5t-115 52.5t-117 -59.5t-41 -160.5z" />
    <glyph glyph-name="Ecaron" unicode="&#x11a;" horiz-adv-x="489" 
d="M240 729l-118 126l16 16l122 -115l122 115l15 -16l-118 -126h-39zM94 0v684h327l-6 -27h-291v-296h243v-27h-243v-307h307v-27h-337z" />
    <glyph glyph-name="ecaron" unicode="&#x11b;" horiz-adv-x="483" 
d="M226 582l-118 126l16 16l122 -115l122 115l15 -16l-118 -126h-39zM273 -14q-217 0 -217 258q0 74 18 130.5t61.5 93t108.5 36.5q93 0 137.5 -62t44.5 -191v-11q0 -11 -12 -11h-328q2 -106 45.5 -160t142.5 -54q68 0 125 16l4 -27q-54 -18 -130 -18zM86 256h311
q0 115 -38 167.5t-115 52.5t-117 -59.5t-41 -160.5z" />
    <glyph glyph-name="Gcircumflex" unicode="&#x11c;" horiz-adv-x="575" 
d="M216 729l-16 16l118 126h39l118 -126l-15 -16l-122 115zM352 -14q-288 0 -288 344q0 185 78 276t216 91q75 0 139 -23l-7 -28q-78 21 -128 21q-129 0 -197.5 -83t-68.5 -251q0 -90 20 -154t56.5 -98t80.5 -49t101 -15q74 0 122 12v270h-125v27h153v-320q-56 -20 -152 -20
z" />
    <glyph glyph-name="gcircumflex" unicode="&#x11d;" horiz-adv-x="486" 
d="M121 583l-16 16l118 126h39l118 -126l-15 -16l-122 115zM248 -239q-208 0 -208 135q0 40 17 74.5t45 51.5q-29 17 -29 58q0 27 13.5 56.5t36.5 47.5q-63 45 -63 144q0 86 48.5 131t128.5 45q61 0 97 -23l64 76q12 -4 21 -16l-64 -74q58 -48 58 -139q0 -87 -48.5 -130.5
t-129.5 -43.5q-49 0 -88 17q-17 -11 -31 -36.5t-14 -51.5q0 -20 10 -30q16 -16 78 -15h86q59 0 88.5 -8t51.5 -30q33 -33 33 -92q0 -65 -39 -102q-46 -45 -162 -45zM235 182q73 0 111 39.5t38 106.5q0 71 -37.5 109.5t-109.5 38.5t-110 -39t-38 -109t38 -108t108 -38z
M247 -211q94 0 133 29t39 89q0 59 -34 81t-104 22h-96q-46 0 -59 4q-56 -41 -56 -114q0 -54 41.5 -82.5t135.5 -28.5z" />
    <glyph glyph-name="Gbreve" unicode="&#x11e;" horiz-adv-x="575" 
d="M338 748q-53 0 -81.5 31.5t-31.5 83.5h24q11 -84 89 -84q77 0 89 84h23q-3 -52 -31 -83.5t-81 -31.5zM352 -14q-288 0 -288 344q0 185 78 276t216 91q75 0 139 -23l-7 -28q-78 21 -128 21q-129 0 -197.5 -83t-68.5 -251q0 -90 20 -154t56.5 -98t80.5 -49t101 -15
q74 0 122 12v270h-125v27h153v-320q-56 -20 -152 -20z" />
    <glyph glyph-name="gbreve" unicode="&#x11f;" horiz-adv-x="486" 
d="M243 582q-53 0 -81.5 31.5t-31.5 83.5h24q4 -35 25.5 -59.5t63.5 -24.5q77 0 89 84h23q-3 -52 -31 -83.5t-81 -31.5zM248 -239q-208 0 -208 135q0 40 17 74.5t45 51.5q-29 17 -29 58q0 27 13.5 56.5t36.5 47.5q-63 45 -63 144q0 86 48.5 131t128.5 45q61 0 97 -23l64 76
q12 -4 21 -16l-64 -74q58 -48 58 -139q0 -87 -48.5 -130.5t-129.5 -43.5q-49 0 -88 17q-17 -11 -31 -36.5t-14 -51.5q0 -20 10 -30q16 -16 78 -15h86q59 0 88.5 -8t51.5 -30q33 -33 33 -92q0 -65 -39 -102q-46 -45 -162 -45zM235 182q73 0 111 39.5t38 106.5
q0 71 -37.5 109.5t-109.5 38.5t-110 -39t-38 -109t38 -108t108 -38zM247 -211q94 0 133 29t39 89q0 59 -34 81t-104 22h-96q-46 0 -59 4q-56 -41 -56 -114q0 -54 41.5 -82.5t135.5 -28.5z" />
    <glyph glyph-name="Gdotaccent" unicode="&#x120;" horiz-adv-x="575" 
d="M335 790q-28 0 -28 28v8q0 28 28 28h6q28 0 28 -28v-8q0 -28 -28 -28h-6zM352 -14q-288 0 -288 344q0 185 78 276t216 91q75 0 139 -23l-7 -28q-78 21 -128 21q-129 0 -197.5 -83t-68.5 -251q0 -90 20 -154t56.5 -98t80.5 -49t101 -15q74 0 122 12v270h-125v27h153v-320
q-56 -20 -152 -20z" />
    <glyph glyph-name="gdotaccent" unicode="&#x121;" horiz-adv-x="486" 
d="M230 622q-28 0 -28 28v8q0 28 28 28h6q28 0 28 -28v-8q0 -28 -28 -28h-6zM416 0q33 -33 33 -92q0 -65 -39 -102q-46 -45 -162 -45q-208 0 -208 135q0 40 17 74.5t45 51.5q-29 16 -29 58q0 27 14 57t37 47q-64 46 -64 144q0 86 48.5 131t128.5 45q43 0 69 -10l64 123
q12 -4 24 -12l-63 -122q82 -47 82 -155q0 -87 -48.5 -130.5t-129.5 -43.5q-49 0 -88 17q-17 -11 -31 -36.5t-14 -51.5q0 -20 10 -30q16 -16 78 -15h86q59 0 88.5 -8t51.5 -30zM89 328q0 -70 38 -108t108 -38q73 0 111 39.5t38 106.5q0 71 -37.5 109.5t-109.5 38.5t-110 -39
t-38 -109zM247 -211q94 0 133 29t39 89q0 59 -34 81t-104 22h-96q-46 0 -59 4q-56 -41 -56 -114q0 -54 41.5 -82.5t135.5 -28.5z" />
    <glyph glyph-name="Gcommaaccent" unicode="&#x122;" horiz-adv-x="575" 
d="M352 -14q-288 0 -288 344q0 185 78 276t216 91q75 0 139 -23l-7 -28q-78 21 -128 21q-129 0 -197.5 -83t-68.5 -251q0 -90 20 -154t56.5 -98t80.5 -49t101 -15q74 0 122 12v270h-125v27h153v-320q-56 -20 -152 -20zM333 -199v81q-20 4 -20 25v2q0 21 22 21h2q25 0 25 -34
q0 -58 -14 -95h-15z" />
    <glyph glyph-name="gcommaaccent" unicode="&#x123;" horiz-adv-x="486" 
d="M241 730v-81q20 -4 20 -25v-2q0 -21 -22 -21h-2q-25 0 -25 34q0 58 14 95h15zM248 -239q-208 0 -208 135q0 40 17 74.5t45 51.5q-29 17 -29 58q0 27 13.5 56.5t36.5 47.5q-63 45 -63 144q0 86 48.5 131t128.5 45q61 0 97 -23l64 76q12 -4 21 -16l-64 -74q58 -48 58 -139
q0 -87 -48.5 -130.5t-129.5 -43.5q-49 0 -88 17q-17 -11 -31 -36.5t-14 -51.5q0 -20 10 -30q16 -16 78 -15h86q59 0 88.5 -8t51.5 -30q33 -33 33 -92q0 -65 -39 -102q-46 -45 -162 -45zM235 182q73 0 111 39.5t38 106.5q0 71 -37.5 109.5t-109.5 38.5t-110 -39t-38 -109
t38 -108t108 -38zM247 -211q94 0 133 29t39 89q0 59 -34 81t-104 22h-96q-46 0 -59 4q-56 -41 -56 -114q0 -54 41.5 -82.5t135.5 -28.5z" />
    <glyph glyph-name="Hcircumflex" unicode="&#x124;" horiz-adv-x="625" 
d="M191 729l-16 16l118 126h39l118 -126l-15 -16l-122 115zM94 0v684h30v-324h377v324h30v-684h-30v333h-377v-333h-30z" />
    <glyph glyph-name="hcircumflex" unicode="&#x125;" horiz-adv-x="516" 
d="M214 689l-122 115l-122 -115l-16 16l118 126h39l118 -126zM401 465q40 -36 40 -119v-346h-29v327q0 83 -32 115q-34 34 -108 34t-165 -49v-427h-29v715h29v-262q84 51 173 51q79 0 121 -39z" />
    <glyph glyph-name="Hbar" unicode="&#x126;" horiz-adv-x="664" 
d="M622 547v-26h-71v-521h-30v333h-377v-333h-30v521h-71v26h71v137h30v-137h377v137h30v-137h71zM521 360v161h-377v-161h377z" />
    <glyph glyph-name="hbar" unicode="&#x127;" horiz-adv-x="518" 
d="M402 465q40 -36 40 -119v-346h-29v327q0 83 -32 115q-34 34 -108 34t-165 -49v-427h-29v598h-79v19l79 6v92h29v-91h133v-26h-133v-145q84 51 173 51q79 0 121 -39z" />
    <glyph glyph-name="Itilde" unicode="&#x128;" horiz-adv-x="218" 
d="M170 771q-24 0 -62.5 21.5t-57.5 21.5q-27 0 -44 -40l-23 6q14 68 66 68q25 0 63 -22t57 -22q26 0 44 40l22 -6q-14 -67 -65 -67zM94 0v684h30v-684h-30z" />
    <glyph glyph-name="itilde" unicode="&#x129;" horiz-adv-x="185" 
d="M154 609q-24 0 -62.5 21.5t-57.5 21.5q-27 0 -44 -40l-23 6q14 68 66 68q25 0 63 -22t57 -22q26 0 44 40l22 -6q-14 -67 -65 -67zM78 0v490h29v-490h-29z" />
    <glyph glyph-name="Imacron" unicode="&#x12a;" horiz-adv-x="218" 
d="M-3 815v27h223v-27h-223zM94 0v684h30v-684h-30z" />
    <glyph glyph-name="imacron" unicode="&#x12b;" horiz-adv-x="185" 
d="M-19 626v27h223v-27h-223zM78 0v490h29v-490h-29z" />
    <glyph glyph-name="Ibreve" unicode="&#x12c;" horiz-adv-x="218" 
d="M109 748q-53 0 -81.5 31.5t-31.5 83.5h24q4 -35 25.5 -59.5t63.5 -24.5q77 0 89 84h23q-3 -52 -31 -83.5t-81 -31.5zM94 0v684h30v-684h-30z" />
    <glyph glyph-name="ibreve" unicode="&#x12d;" horiz-adv-x="185" 
d="M93 582q-53 0 -81.5 31.5t-31.5 83.5h24q4 -35 25.5 -59.5t63.5 -24.5q77 0 89 84h23q-3 -52 -31 -83.5t-81 -31.5zM78 0v490h29v-490h-29z" />
    <glyph glyph-name="Iogonek" unicode="&#x12e;" horiz-adv-x="218" 
d="M85 -198q-41 0 -64 21.5t-23 60.5q0 47 30 83t66 45v672h30v-684h-1q-30 0 -58 -28q-38 -38 -38 -84q0 -61 68 -61q29 0 56 5v-20q-37 -10 -66 -10z" />
    <glyph glyph-name="iogonek" unicode="&#x12f;" horiz-adv-x="186" 
d="M92 596q-23 0 -23 23v4q0 23 23 23h2q23 0 23 -23v-4q0 -23 -23 -23h-2zM71 -198q-36 0 -59 22t-23 60q0 83 89 123v483h29v-490q-89 -37 -89 -112q0 -61 63 -61q17 0 26 1v-22q-16 -4 -36 -4z" />
    <glyph glyph-name="Idotaccent" unicode="&#x130;" horiz-adv-x="218" 
d="M106 790q-28 0 -28 28v8q0 28 28 28h6q28 0 28 -28v-8q0 -28 -28 -28h-6zM94 0v684h30v-684h-30z" />
    <glyph glyph-name="dotlessi" unicode="&#x131;" horiz-adv-x="185" 
d="M78 0v490h29v-490h-29z" />
    <glyph glyph-name="IJ" unicode="&#x132;" horiz-adv-x="549" 
d="M94 0v684h30v-684h-30zM311 -14q-31 0 -49 4l-4 28q12 -3 48 -3t60 7t37 16.5t19 30.5t7.5 38t1.5 51v526h30v-526q0 -26 -0.5 -40t-3.5 -35.5t-8.5 -32.5t-16 -25.5t-26.5 -21.5t-40 -12t-55 -5z" />
    <glyph glyph-name="ij" unicode="&#x133;" horiz-adv-x="375" 
d="M92 596q-23 0 -23 23v4q0 23 23 23h2q23 0 23 -23v-4q0 -23 -23 -23h-2zM281 596q-23 0 -23 23v4q0 23 23 23h2q23 0 23 -23v-4q0 -23 -23 -23h-2zM78 0v490h29v-490h-29zM137 -238l-5 26q70 -1 107 32q28 25 28 104v566h29v-566q0 -89 -33 -122q-40 -40 -126 -40z" />
    <glyph glyph-name="Jcircumflex" unicode="&#x134;" horiz-adv-x="331" 
d="M106 729l-16 16l118 126h39l118 -126l-15 -16l-122 115zM93 -14q-31 0 -49 4l-4 28q12 -3 48 -3t60 7t37 16.5t19 30.5t7.5 38t1.5 51v526h30v-526q0 -26 -0.5 -40t-3.5 -35.5t-8.5 -32.5t-16 -25.5t-26.5 -21.5t-40 -12t-55 -5z" />
    <glyph glyph-name="jcircumflex" unicode="&#x135;" horiz-adv-x="189" 
d="M-27 583l-16 16l118 126h39l118 -126l-15 -16l-122 115zM-49 -238l-5 26q70 -1 107 32q28 25 28 104v566h29v-566q0 -89 -33 -122q-40 -40 -126 -40z" />
    <glyph glyph-name="Kcommaaccent" unicode="&#x136;" horiz-adv-x="537" 
d="M94 0v684h30v-409l325 409h35l-225 -284l241 -400h-34l-226 378l-116 -145v-233h-30zM264 -199v81q-20 4 -20 25v2q0 21 22 21h2q25 0 25 -34q0 -58 -14 -95h-15z" />
    <glyph glyph-name="kcommaaccent" unicode="&#x137;" horiz-adv-x="463" 
d="M78 0v715h32v-513l269 288h40l-170 -182l188 -308h-36l-173 287l-118 -126v-161h-32zM227 -199v81q-20 4 -20 25v2q0 21 22 21h2q25 0 25 -34q0 -58 -14 -95h-15z" />
    <glyph glyph-name="kgreenlandic" unicode="&#x138;" horiz-adv-x="463" 
d="M78 0v490h32v-288l269 288h40l-170 -182l188 -308h-36l-173 287l-118 -126v-161h-32z" />
    <glyph glyph-name="Lacute" unicode="&#x139;" horiz-adv-x="462" 
d="M47 742l-13 16l162 149l28 -33zM94 0v684h30v-657h294v-27h-324z" />
    <glyph glyph-name="lacute" unicode="&#x13a;" horiz-adv-x="185" 
d="M30 773l-13 16l162 149l28 -33zM78 0v715h29v-715h-29z" />
    <glyph glyph-name="Lcommaaccent" unicode="&#x13b;" horiz-adv-x="462" 
d="M94 0v684h30v-657h294v-27h-324zM265 -199v81q-20 4 -20 25v2q0 21 22 21h2q25 0 25 -34q0 -58 -14 -95h-15z" />
    <glyph glyph-name="lcommaaccent" unicode="&#x13c;" horiz-adv-x="185" 
d="M78 0v715h29v-715h-29zM88 -199v81q-20 4 -20 25v2q0 21 22 21h2q25 0 25 -34q0 -58 -14 -95h-15z" />
    <glyph glyph-name="Lcaron" unicode="&#x13d;" horiz-adv-x="462" 
d="M222 568v81q-20 4 -20 25v2q0 21 22 21h2q25 0 25 -34q0 -58 -14 -95h-15zM94 0v684h30v-657h294v-27h-324z" />
    <glyph glyph-name="lcaron" unicode="&#x13e;" horiz-adv-x="181" 
d="M78 0v715h29v-715h-29zM183 568v81q-20 4 -20 25v2q0 21 22 21h2q25 0 25 -34q0 -58 -14 -95h-15z" />
    <glyph glyph-name="Ldot" unicode="&#x13f;" horiz-adv-x="462" 
d="M94 0v684h30v-657h294v-27h-324zM316 343q-27 0 -27 26v4q0 27 27 27h2q27 0 27 -27v-4q0 -26 -27 -26h-2z" />
    <glyph glyph-name="ldot" unicode="&#x140;" horiz-adv-x="185" 
d="M78 0v715h29v-715h-29zM228 308q-28 0 -28 28v8q0 28 28 28h6q28 0 28 -28v-8q0 -28 -28 -28h-6z" />
    <glyph glyph-name="Lslash" unicode="&#x141;" horiz-adv-x="462" 
d="M92 0v272l-82 -53l-14 23l96 61v381h30v-365l108 69l14 -23l-122 -77v-261h294v-27h-324z" />
    <glyph glyph-name="lslash" unicode="&#x142;" horiz-adv-x="278" 
d="M119 0v341l-82 -52l-14 22l96 60v344h29v-328l113 73l14 -22l-127 -81v-357h-29z" />
    <glyph glyph-name="Nacute" unicode="&#x143;" horiz-adv-x="651" 
d="M264 742l-13 16l162 149l28 -33zM94 0v684h22l413 -624v624h28v-684h-23l-412 624v-624h-28z" />
    <glyph glyph-name="nacute" unicode="&#x144;" horiz-adv-x="516" 
d="M176 574l-13 16l162 149l28 -33zM78 0v490h22l4 -38q87 52 176 52q79 0 121 -39q40 -36 40 -119v-346h-29v327q0 83 -32 115q-34 34 -108 34t-165 -49v-427h-29z" />
    <glyph glyph-name="Ncommaaccent" unicode="&#x145;" horiz-adv-x="651" 
d="M94 0v684h22l413 -624v624h28v-684h-23l-412 624v-624h-28zM311 -199v81q-20 4 -20 25v2q0 21 22 21h2q25 0 25 -34q0 -58 -14 -95h-15z" />
    <glyph glyph-name="ncommaaccent" unicode="&#x146;" horiz-adv-x="516" 
d="M78 0v490h22l4 -38q87 52 176 52q79 0 121 -39q40 -36 40 -119v-346h-29v327q0 83 -32 115q-34 34 -108 34t-165 -49v-427h-29zM253 -199v81q-20 4 -20 25v2q0 21 22 21h2q25 0 25 -34q0 -58 -14 -95h-15z" />
    <glyph glyph-name="Ncaron" unicode="&#x147;" horiz-adv-x="651" 
d="M306 729l-118 126l16 16l122 -115l122 115l15 -16l-118 -126h-39zM94 0v684h22l413 -624v624h28v-684h-23l-412 624v-624h-28z" />
    <glyph glyph-name="ncaron" unicode="&#x148;" horiz-adv-x="516" 
d="M238 582l-118 126l16 16l122 -115l122 115l15 -16l-118 -126h-39zM78 0v490h22l4 -38q87 52 176 52q79 0 121 -39q40 -36 40 -119v-346h-29v327q0 83 -32 115q-34 34 -108 34t-165 -49v-427h-29z" />
    <glyph glyph-name="napostrophe" unicode="&#x149;" horiz-adv-x="516" 
d="M-4 544v96q-27 3 -27 26v4q0 27 27 27h2q27 0 27 -46q0 -47 -14 -107h-15zM78 0v490h22l4 -38q87 52 176 52q79 0 121 -39q40 -36 40 -119v-346h-29v327q0 83 -32 115q-34 34 -108 34t-165 -49v-427h-29z" />
    <glyph glyph-name="Eng" unicode="&#x14a;" horiz-adv-x="651" 
d="M407 -239q-31 0 -49 4v26q12 -3 46 -3q71 0 100 26q16 14 20.5 42t4.5 93v59l-407 616v-624h-28v684h22l413 -624v624h28v-727q0 -84 -5.5 -112.5t-26.5 -49.5q-36 -34 -118 -34z" />
    <glyph glyph-name="eng" unicode="&#x14b;" horiz-adv-x="516" 
d="M282 -238l-5 26q70 -1 107 32q28 25 28 104v403q0 83 -32 115q-34 34 -108 34t-165 -49v-427h-29v490h22l4 -38q87 52 176 52q79 0 121 -39q40 -36 40 -119v-422q0 -89 -33 -122q-40 -40 -126 -40z" />
    <glyph glyph-name="Omacron" unicode="&#x14c;" horiz-adv-x="619" 
d="M198 815v27h223v-27h-223zM310 -14q-246 0 -246 355q0 356 246 356q245 0 245 -356q0 -355 -245 -355zM310 17q113 0 163 82t50 242q0 161 -50 243.5t-163 82.5t-163.5 -82.5t-50.5 -243.5q0 -160 50.5 -242t163.5 -82z" />
    <glyph glyph-name="omacron" unicode="&#x14d;" horiz-adv-x="509" 
d="M143 626v27h223v-27h-223zM255 -14q-199 0 -199 259q0 129 48 194t151 65q198 0 198 -259t-198 -259zM255 15q91 0 129.5 57.5t38.5 172.5t-39 173t-129 58q-91 0 -130 -58t-39 -173t39 -172.5t130 -57.5z" />
    <glyph glyph-name="Obreve" unicode="&#x14e;" horiz-adv-x="619" 
d="M310 748q-53 0 -81.5 31.5t-31.5 83.5h24q11 -84 89 -84q77 0 89 84h23q-3 -52 -31 -83.5t-81 -31.5zM310 -14q-246 0 -246 355q0 356 246 356q245 0 245 -356q0 -355 -245 -355zM310 17q113 0 163 82t50 242q0 161 -50 243.5t-163 82.5t-163.5 -82.5t-50.5 -243.5
q0 -160 50.5 -242t163.5 -82z" />
    <glyph glyph-name="obreve" unicode="&#x14f;" horiz-adv-x="509" 
d="M255 582q-53 0 -81.5 31.5t-31.5 83.5h24q4 -35 25.5 -59.5t63.5 -24.5q77 0 89 84h23q-3 -52 -31 -83.5t-81 -31.5zM255 -14q-199 0 -199 259q0 129 48 194t151 65q198 0 198 -259t-198 -259zM255 15q91 0 129.5 57.5t38.5 172.5t-39 173t-129 58q-91 0 -130 -58
t-39 -173t39 -172.5t130 -57.5z" />
    <glyph glyph-name="Ohungarumlaut" unicode="&#x150;" horiz-adv-x="619" 
d="M181 756l-18 17l140 180l37 -33zM361 756l-18 17l140 180l37 -33zM310 -14q-246 0 -246 355q0 356 246 356q245 0 245 -356q0 -355 -245 -355zM310 17q113 0 163 82t50 242q0 161 -50 243.5t-163 82.5t-163.5 -82.5t-50.5 -243.5q0 -160 50.5 -242t163.5 -82z" />
    <glyph glyph-name="ohungarumlaut" unicode="&#x151;" horiz-adv-x="509" 
d="M124 587l-18 17l140 180l37 -33zM304 587l-18 17l140 180l37 -33zM255 -14q-199 0 -199 259q0 129 48 194t151 65q198 0 198 -259t-198 -259zM255 15q91 0 129.5 57.5t38.5 172.5t-39 173t-129 58q-91 0 -130 -58t-39 -173t39 -172.5t130 -57.5z" />
    <glyph glyph-name="OE" unicode="&#x152;" horiz-adv-x="839" 
d="M386 0q-99 0 -153.5 16t-94.5 65q-33 42 -53.5 110.5t-20.5 150.5q0 179 76 267q39 46 92 60.5t146 14.5h393l-6 -27h-291v-296h243v-27h-243v-306h307v-28h-395zM373 28h71v629h-77q-77 0 -121.5 -14.5t-76.5 -50.5q-73 -79 -73 -250q0 -167 68 -244q33 -39 82 -54.5
t127 -15.5z" />
    <glyph glyph-name="oe" unicode="&#x153;" horiz-adv-x="850" 
d="M255 -14q-199 0 -199 259q0 129 48 194t151 65q145 0 184 -139q13 55 56.5 97t115.5 42q93 0 137.5 -62t44.5 -191v-12q0 -11 -12 -11h-328q2 -106 45.5 -159.5t142.5 -53.5q68 0 125 16l4 -27q-54 -18 -130 -18q-85 0 -135 37t-66 100q-38 -137 -184 -137zM255 15
q91 0 129.5 57.5t38.5 172.5t-39 173t-129 58q-91 0 -130 -58t-39 -173t39 -172.5t130 -57.5zM453 256h311q0 115 -38 167.5t-115 52.5t-117 -59.5t-41 -160.5z" />
    <glyph glyph-name="Racute" unicode="&#x154;" horiz-adv-x="554" 
d="M215 742l-13 16l162 149l28 -33zM94 0v684h183q116 0 163 -55q46 -53 46 -146q0 -167 -134 -198l144 -285h-33l-139 281q-16 -2 -44 -2h-156v-279h-30zM124 306h161q77 0 115 32q54 46 54 143q0 84 -39 129q-39 47 -136 47h-155v-351z" />
    <glyph glyph-name="racute" unicode="&#x155;" horiz-adv-x="291" 
d="M104 574l-13 16l162 149l28 -33zM78 0v490h22l4 -41q67 55 152 55q11 0 15 -1v-30q-9 1 -23 1q-75 0 -141 -50v-424h-29z" />
    <glyph glyph-name="Rcommaaccent" unicode="&#x156;" horiz-adv-x="554" 
d="M94 0v684h183q116 0 163 -55q46 -53 46 -146q0 -167 -134 -198l144 -285h-33l-139 281q-16 -2 -44 -2h-156v-279h-30zM124 306h161q77 0 115 32q54 46 54 143q0 84 -39 129q-39 47 -136 47h-155v-351zM272 -199v81q-20 4 -20 25v2q0 21 22 21h2q25 0 25 -34
q0 -58 -14 -95h-15z" />
    <glyph glyph-name="rcommaaccent" unicode="&#x157;" horiz-adv-x="291" 
d="M78 0v490h22l4 -41q67 55 152 55q11 0 15 -1v-30q-9 1 -23 1q-75 0 -141 -50v-424h-29zM88 -199v81q-20 4 -20 25v2q0 21 22 21h2q25 0 25 -34q0 -58 -14 -95h-15z" />
    <glyph glyph-name="Rcaron" unicode="&#x158;" horiz-adv-x="554" 
d="M257 729l-118 126l16 16l122 -115l122 115l15 -16l-118 -126h-39zM94 0v684h183q116 0 163 -55q46 -53 46 -146q0 -167 -134 -198l144 -285h-33l-139 281q-16 -2 -44 -2h-156v-279h-30zM124 306h161q77 0 115 32q54 46 54 143q0 84 -39 129q-39 47 -136 47h-155v-351z
" />
    <glyph glyph-name="rcaron" unicode="&#x159;" horiz-adv-x="291" 
d="M166 582l-118 126l16 16l122 -115l122 115l15 -16l-118 -126h-39zM78 0v490h22l4 -41q67 55 152 55q11 0 15 -1v-30q-9 1 -23 1q-75 0 -141 -50v-424h-29z" />
    <glyph glyph-name="Sacute" unicode="&#x15a;" horiz-adv-x="510" 
d="M193 742l-13 16l162 149l28 -33zM228 -14q-97 0 -168 27l7 29q79 -25 160 -25q91 0 137 31q53 35 53 114q0 45 -19 77.5t-49.5 51t-68 34l-74.5 31t-67.5 36t-49.5 55.5t-19 83q0 79 49 122q51 45 149 45q70 0 145 -22l-7 -28q-69 20 -132 20q-174 0 -174 -133
q0 -59 36 -96t87 -56.5l102 -41t87 -65t36 -112.5q0 -90 -58 -133.5t-162 -43.5z" />
    <glyph glyph-name="sacute" unicode="&#x15b;" horiz-adv-x="386" 
d="M121 574l-13 16l162 149l28 -33zM179 -14q-72 0 -122 16l3 26q53 -14 116 -14q148 0 148 103q0 44 -28.5 70.5t-69.5 39l-82 25.5t-69.5 42.5t-28.5 77.5q0 68 46.5 100t122.5 32q57 0 106 -14l-3 -27q-57 13 -104 13q-138 0 -138 -104q0 -39 28.5 -63t69.5 -36.5t82 -27
t69.5 -46t28.5 -82.5q0 -60 -43 -95.5t-132 -35.5z" />
    <glyph glyph-name="Scircumflex" unicode="&#x15c;" horiz-adv-x="510" 
d="M133 729l-16 16l118 126h39l118 -126l-15 -16l-122 115zM228 -14q-97 0 -168 27l7 29q79 -25 160 -25q91 0 137 31q53 35 53 114q0 45 -19 77.5t-49.5 51t-68 34l-74.5 31t-67.5 36t-49.5 55.5t-19 83q0 79 49 122q51 45 149 45q70 0 145 -22l-7 -28q-69 20 -132 20
q-174 0 -174 -133q0 -59 36 -96t87 -56.5l102 -41t87 -65t36 -112.5q0 -90 -58 -133.5t-162 -43.5z" />
    <glyph glyph-name="scircumflex" unicode="&#x15d;" horiz-adv-x="386" 
d="M81 583l-16 16l118 126h39l118 -126l-15 -16l-122 115zM179 -14q-72 0 -122 16l3 26q53 -14 116 -14q148 0 148 103q0 44 -28.5 70.5t-69.5 39l-82 25.5t-69.5 42.5t-28.5 77.5q0 68 46.5 100t122.5 32q57 0 106 -14l-3 -27q-57 13 -104 13q-138 0 -138 -104
q0 -39 28.5 -63t69.5 -36.5t82 -27t69.5 -46t28.5 -82.5q0 -60 -43 -95.5t-132 -35.5z" />
    <glyph glyph-name="Scedilla" unicode="&#x15e;" horiz-adv-x="510" 
d="M448 163q0 -172 -209 -177q-6 -14 -6 -23q0 -18 17 -27.5t38 -12t38 -16.5t17 -41q0 -25 -19 -40.5t-57 -15.5q-31 0 -61 8v21q36 -6 57 -6q54 0 54 32q0 17 -16.5 27t-37 13.5t-37 14t-16.5 29.5q0 18 12 37q-97 1 -162 27l7 29q79 -25 160 -25q91 0 137 31
q53 35 53 114q0 45 -19 77.5t-49.5 51t-68 34l-74.5 31t-67.5 36t-49.5 55.5t-19 83q0 79 49 122q51 45 149 45q70 0 145 -22l-7 -28q-69 20 -132 20q-174 0 -174 -133q0 -59 36 -96t87 -56.5l102 -41t87 -65t36 -112.5z" />
    <glyph glyph-name="scedilla" unicode="&#x15f;" horiz-adv-x="386" 
d="M354 117q0 -59 -41 -94.5t-126 -36.5q-6 -14 -6 -23q0 -18 17 -27.5t38 -12t38 -16.5t17 -41q0 -25 -19 -40.5t-57 -15.5q-31 0 -61 8v21q36 -6 57 -6q54 0 54 32q0 17 -16.5 27t-37 13.5t-37 14t-16.5 29.5q0 20 12 37q-65 2 -113 16l3 26q53 -14 116 -14q148 0 148 103
q0 44 -28.5 70.5t-69.5 39l-82 25.5t-69.5 42.5t-28.5 77.5q0 68 46.5 100t122.5 32q57 0 106 -14l-3 -27q-57 13 -104 13q-138 0 -138 -104q0 -39 28.5 -63t69.5 -36.5t82 -27t69.5 -46t28.5 -82.5z" />
    <glyph glyph-name="Scaron" unicode="&#x160;" horiz-adv-x="510" 
d="M235 729l-118 126l16 16l122 -115l122 115l15 -16l-118 -126h-39zM228 -14q-97 0 -168 27l7 29q79 -25 160 -25q91 0 137 31q53 35 53 114q0 45 -19 77.5t-49.5 51t-68 34l-74.5 31t-67.5 36t-49.5 55.5t-19 83q0 79 49 122q51 45 149 45q70 0 145 -22l-7 -28
q-69 20 -132 20q-174 0 -174 -133q0 -59 36 -96t87 -56.5l102 -41t87 -65t36 -112.5q0 -90 -58 -133.5t-162 -43.5z" />
    <glyph glyph-name="scaron" unicode="&#x161;" horiz-adv-x="386" 
d="M183 582l-118 126l16 16l122 -115l122 115l15 -16l-118 -126h-39zM179 -14q-72 0 -122 16l3 26q53 -14 116 -14q148 0 148 103q0 44 -28.5 70.5t-69.5 39l-82 25.5t-69.5 42.5t-28.5 77.5q0 68 46.5 100t122.5 32q57 0 106 -14l-3 -27q-57 13 -104 13q-138 0 -138 -104
q0 -39 28.5 -63t69.5 -36.5t82 -27t69.5 -46t28.5 -82.5q0 -60 -43 -95.5t-132 -35.5z" />
    <glyph glyph-name="uni0162" unicode="&#x162;" horiz-adv-x="531" 
d="M252 0v657h-222v27h476l-6 -27h-218v-657h-30zM261 -199v81q-20 4 -20 25v2q0 21 22 21h2q25 0 25 -34q0 -58 -14 -95h-15z" />
    <glyph glyph-name="uni0163" unicode="&#x163;" horiz-adv-x="319" 
d="M224 -14q-60 0 -90 30q-28 28 -28 98v350h-88v20l88 6v111q15 7 29 8v-119h133v-26h-133v-326q0 -77 23 -101q22 -23 67 -23q39 0 75 9l3 -24q-36 -13 -79 -13zM206 -199v81q-20 4 -20 25v2q0 21 22 21h2q25 0 25 -34q0 -58 -14 -95h-15z" />
    <glyph glyph-name="Tcaron" unicode="&#x164;" horiz-adv-x="531" 
d="M247 729l-118 126l16 16l122 -115l122 115l15 -16l-118 -126h-39zM252 0v657h-222v27h476l-6 -27h-218v-657h-30z" />
    <glyph glyph-name="tcaron" unicode="&#x165;" horiz-adv-x="319" 
d="M213 567v81q-20 4 -20 25v2q0 21 22 21h2q25 0 25 -34q0 -58 -14 -95h-15zM224 -14q-60 0 -90 30q-28 28 -28 98v350h-88v20l88 6v111q15 7 29 8v-119h133v-26h-133v-326q0 -77 23 -101q22 -23 67 -23q39 0 75 9l3 -24q-36 -13 -79 -13z" />
    <glyph glyph-name="Tbar" unicode="&#x166;" horiz-adv-x="531" 
d="M252 0v332h-138v26h138v299h-222v27h476l-6 -27h-218v-299h138v-26h-138v-332h-30z" />
    <glyph glyph-name="tbar" unicode="&#x167;" horiz-adv-x="319" 
d="M300 23l3 -24q-36 -13 -79 -13q-60 0 -90 30q-28 28 -28 98v129h-76v20l76 6v195h-88v20l88 6v111q15 7 29 8v-119h133v-26h-133v-195h125v-26h-125v-105q0 -77 23 -101q22 -23 67 -23q39 0 75 9z" />
    <glyph glyph-name="Utilde" unicode="&#x168;" horiz-adv-x="622" 
d="M372 771q-24 0 -62.5 21.5t-57.5 21.5q-27 0 -44 -40l-23 6q14 68 66 68q25 0 63 -22t57 -22q26 0 44 40l22 -6q-14 -67 -65 -67zM313 -14q-125 0 -179 63q-46 53 -46 169v466h30v-465q0 -108 42 -154q45 -49 151 -49q97 0 145 44q50 46 50 154v470h28v-477
q0 -112 -56 -167q-56 -54 -165 -54z" />
    <glyph glyph-name="utilde" unicode="&#x169;" horiz-adv-x="514" 
d="M318 609q-24 0 -62.5 21.5t-57.5 21.5q-27 0 -44 -40l-23 6q14 68 66 68q25 0 63 -22t57 -22q26 0 44 40l22 -6q-14 -67 -65 -67zM235 -14q-78 0 -120 39q-40 36 -40 119v346h29v-327q0 -83 32 -115q34 -34 107 -34t164 49v427h29v-490h-22l-4 38q-87 -52 -175 -52z" />
    <glyph glyph-name="Umacron" unicode="&#x16a;" horiz-adv-x="622" 
d="M199 815v27h223v-27h-223zM313 -14q-125 0 -179 63q-46 53 -46 169v466h30v-465q0 -108 42 -154q45 -49 151 -49q97 0 145 44q50 46 50 154v470h28v-477q0 -112 -56 -167q-56 -54 -165 -54z" />
    <glyph glyph-name="umacron" unicode="&#x16b;" horiz-adv-x="514" 
d="M145 626v27h223v-27h-223zM235 -14q-78 0 -120 39q-40 36 -40 119v346h29v-327q0 -83 32 -115q34 -34 107 -34t164 49v427h29v-490h-22l-4 38q-87 -52 -175 -52z" />
    <glyph glyph-name="Ubreve" unicode="&#x16c;" horiz-adv-x="622" 
d="M311 748q-53 0 -81.5 31.5t-31.5 83.5h24q4 -35 25.5 -59.5t63.5 -24.5q77 0 89 84h23q-3 -52 -31 -83.5t-81 -31.5zM313 -14q-125 0 -179 63q-46 53 -46 169v466h30v-465q0 -108 42 -154q45 -49 151 -49q97 0 145 44q50 46 50 154v470h28v-477q0 -112 -56 -167
q-56 -54 -165 -54z" />
    <glyph glyph-name="ubreve" unicode="&#x16d;" horiz-adv-x="514" 
d="M257 582q-53 0 -81.5 31.5t-31.5 83.5h24q4 -35 25.5 -59.5t63.5 -24.5q77 0 89 84h23q-3 -52 -31 -83.5t-81 -31.5zM235 -14q-78 0 -120 39q-40 36 -40 119v346h29v-327q0 -83 32 -115q34 -34 107 -34t164 49v427h29v-490h-22l-4 38q-87 -52 -175 -52z" />
    <glyph glyph-name="Uring" unicode="&#x16e;" horiz-adv-x="622" 
d="M308 756q-49 0 -75 28t-26 73t26.5 73t75.5 28h4q49 0 75.5 -28t26.5 -73t-27 -73t-76 -28h-4zM237 858v-3q0 -35 18.5 -54t51.5 -19h5q73 0 73 73v3q0 73 -72 73h-5q-34 0 -52.5 -19t-18.5 -54zM207 858v-1v-1v2zM415 858v-2v1v1zM506 684h28v-477q0 -112 -56 -167
q-56 -54 -165 -54q-125 0 -179 63q-46 53 -46 169v466h30v-465q0 -108 42 -154q45 -49 151 -49q97 0 145 44q50 46 50 154v470z" />
    <glyph glyph-name="uring" unicode="&#x16f;" horiz-adv-x="514" 
d="M254 588q-49 0 -75 28t-26 73t26.5 73t75.5 28h4q49 0 75.5 -28t26.5 -73t-27 -73t-76 -28h-4zM183 690v-3q0 -35 18.5 -54t51.5 -19h5q73 0 73 73v3q0 73 -72 73h-5q-34 0 -52.5 -19t-18.5 -54zM153 690v-1v-1v2zM361 690v-2v1v1zM407 490h29v-490h-22l-4 38
q-87 -52 -175 -52q-78 0 -120 39q-40 36 -40 119v346h29v-327q0 -83 32 -115q34 -34 107 -34t164 49v427z" />
    <glyph glyph-name="Uhungarumlaut" unicode="&#x170;" horiz-adv-x="622" 
d="M182 756l-18 17l140 180l37 -33zM362 756l-18 17l140 180l37 -33zM313 -14q-125 0 -179 63q-46 53 -46 169v466h30v-465q0 -108 42 -154q45 -49 151 -49q97 0 145 44q50 46 50 154v470h28v-477q0 -112 -56 -167q-56 -54 -165 -54z" />
    <glyph glyph-name="uhungarumlaut" unicode="&#x171;" horiz-adv-x="514" 
d="M126 587l-18 17l140 180l37 -33zM306 587l-18 17l140 180l37 -33zM235 -14q-78 0 -120 39q-40 36 -40 119v346h29v-327q0 -83 32 -115q34 -34 107 -34t164 49v427h29v-490h-22l-4 38q-87 -52 -175 -52z" />
    <glyph glyph-name="Uogonek" unicode="&#x172;" horiz-adv-x="622" 
d="M342 -198q-41 0 -64 21.5t-23 60.5q0 58 48 102q-116 3 -169 63q-46 53 -46 169v466h30v-465q0 -108 42 -154q45 -49 151 -49q97 0 145 44q50 46 50 154v470h28v-477q0 -112 -56 -167q-50 -48 -140 -53q-54 -45 -54 -99q0 -61 68 -61q29 0 56 5v-20q-37 -10 -66 -10z" />
    <glyph glyph-name="uogonek" unicode="&#x173;" horiz-adv-x="514" 
d="M400 -198q-36 0 -59 22t-23 60q0 83 95 125l-3 29q-87 -52 -175 -52q-78 0 -120 39q-40 36 -40 119v346h29v-327q0 -83 32 -115q34 -34 107 -34t164 49v427h29v-490q-89 -37 -89 -112q0 -61 63 -61q17 0 26 1v-22q-16 -4 -36 -4z" />
    <glyph glyph-name="Wcircumflex" unicode="&#x174;" horiz-adv-x="823" 
d="M292 729l-16 16l118 126h39l118 -126l-15 -16l-122 115zM223 0l-192 684h31l180 -647l153 647h37l161 -647l168 647h31l-179 -684h-39l-160 642l-152 -642h-39z" />
    <glyph glyph-name="wcircumflex" unicode="&#x175;" horiz-adv-x="649" 
d="M203 583l-16 16l118 126h39l118 -126l-15 -16l-122 115zM164 0l-145 490h32l131 -452l127 452h29l147 -452l111 452h31l-124 -490h-35l-144 445l-125 -445h-35z" />
    <glyph glyph-name="Ycircumflex" unicode="&#x176;" horiz-adv-x="516" 
d="M132 729l-16 16l118 126h39l118 -126l-15 -16l-122 115zM238 0v280l-210 404h33l193 -376l202 376h32l-220 -404v-280h-30z" />
    <glyph glyph-name="ycircumflex" unicode="&#x177;" horiz-adv-x="514" 
d="M135 583l-16 16l118 126h39l118 -126l-15 -16l-122 115zM272 -239q-45 0 -68 7l-7 27q30 -6 65 -6q79 0 114 29q31 25 31 110v108q-84 -50 -172 -50q-78 0 -120 39q-40 36 -40 119v346h29v-327q0 -84 32 -115q36 -34 106 -34q74 0 165 49v427h29v-564q0 -94 -35 -127
q-41 -38 -129 -38z" />
    <glyph glyph-name="Ydieresis" unicode="&#x178;" horiz-adv-x="516" 
d="M166 783q-33 0 -33 32v4q0 15 9 24t24 9h2q15 0 24 -9t9 -24v-4q0 -32 -33 -32h-2zM340 783q-33 0 -33 32v4q0 15 9 24t24 9h2q15 0 24 -9t9 -24v-4q0 -32 -33 -32h-2zM238 0v280l-210 404h33l193 -376l202 376h32l-220 -404v-280h-30z" />
    <glyph glyph-name="Zacute" unicode="&#x179;" horiz-adv-x="526" 
d="M368 874l-177 -132l-13 16l162 149zM97 27h375v-27h-410v24l368 633h-372v27h407v-23z" />
    <glyph glyph-name="zacute" unicode="&#x17a;" horiz-adv-x="408" 
d="M122 574l-13 16l162 149l28 -33zM48 0v18l280 446h-274v26h314v-17l-280 -446h283v-27h-323z" />
    <glyph glyph-name="Zdotaccent" unicode="&#x17b;" horiz-adv-x="526" 
d="M250 790q-28 0 -28 28v8q0 28 28 28h6q28 0 28 -28v-8q0 -28 -28 -28h-6zM97 27h375v-27h-410v24l368 633h-372v27h407v-23z" />
    <glyph glyph-name="zdotaccent" unicode="&#x17c;" horiz-adv-x="408" 
d="M201 622q-28 0 -28 28v8q0 28 28 28h6q28 0 28 -28v-8q0 -28 -28 -28h-6zM48 0v18l280 446h-274v26h314v-17l-280 -446h283v-27h-323z" />
    <glyph glyph-name="Zcaron" unicode="&#x17d;" horiz-adv-x="526" 
d="M272 729h-39l-118 126l16 16l122 -115l122 115l15 -16zM97 27h375v-27h-410v24l368 633h-372v27h407v-23z" />
    <glyph glyph-name="zcaron" unicode="&#x17e;" horiz-adv-x="408" 
d="M184 582l-118 126l16 16l122 -115l122 115l15 -16l-118 -126h-39zM48 0v18l280 446h-274v26h314v-17l-280 -446h283v-27h-323z" />
    <glyph glyph-name="longs" unicode="&#x17f;" horiz-adv-x="251" 
d="M110 0v463h-88v21l88 6v98q0 80 30 109q36 35 107 35q32 0 58 -6v-28q-28 6 -55 6q-61 0 -88 -27q-14 -14 -18.5 -34.5t-4.5 -62.5v-580h-29z" />
    <glyph glyph-name="florin" unicode="&#x192;" horiz-adv-x="511" 
d="M89 -263q-34 0 -56 6v26q28 -5 52 -5q61 0 90 30q27 28 31 95l29 425h-120v17l122 7l17 236q6 76 35 109q35 40 110 40q26 0 56 -5v-28q-27 5 -56 5q-61 -1 -88 -30q-24 -26 -28 -84l-17 -242h135v-25h-138l-30 -427q-5 -75 -35 -109q-35 -41 -109 -41z" />
    <glyph glyph-name="uni01CD" unicode="&#x1cd;" horiz-adv-x="528" 
d="M239 729l-118 126l16 16l122 -115l122 115l15 -16l-118 -126h-39zM26 0l213 684h39l224 -684h-32l-62 193h-291l-59 -193h-32zM126 220h273l-140 435z" />
    <glyph glyph-name="uni01CE" unicode="&#x1ce;" horiz-adv-x="472" 
d="M222 582l-118 126l16 16l122 -115l122 115l15 -16l-118 -126h-39zM206 -14q-70 0 -114 38t-44 114q0 62 34 97q42 43 150 43h136v52q0 82 -30 114q-31 32 -107 32q-66 0 -138 -18l-3 25q74 21 144 21q89 0 127 -41q36 -39 36 -120v-343h-22l-4 33q-78 -47 -165 -47z
M214 14q83 0 154 43v194h-132q-94 0 -129 -33q-29 -27 -29 -80q0 -62 36.5 -93t99.5 -31z" />
    <glyph glyph-name="Aringacute" unicode="&#x1fa;" horiz-adv-x="528" 
d="M374 1148l-177 -132l-13 16l162 149zM256 756q-49 0 -75 28t-26 73t26.5 73t75.5 28h4q49 0 75.5 -28t26.5 -73t-27 -73t-76 -28h-4zM185 858v-3q0 -35 18.5 -54t51.5 -19h5q73 0 73 73v3q0 73 -72 73h-5q-34 0 -52.5 -19t-18.5 -54zM155 858v-1v-1v2zM363 858v-2v1v1z
M278 684l224 -684h-32l-62 193h-291l-59 -193h-32l213 684h39zM126 220h273l-140 435z" />
    <glyph glyph-name="aringacute" unicode="&#x1fb;" horiz-adv-x="472" 
d="M331 1006l-177 -132l-13 16l162 149zM233 588q-49 0 -75 28t-26 73t26.5 73t75.5 28h4q49 0 75.5 -28t26.5 -73t-27 -73t-76 -28h-4zM162 690v-3q0 -35 18.5 -54t51.5 -19h5q73 0 73 73v3q0 73 -72 73h-5q-34 0 -52.5 -19t-18.5 -54zM132 690v-1v-1v2zM340 690v-2v1v1z
M361 463q36 -39 36 -120v-343h-22l-4 33q-78 -47 -165 -47q-70 0 -114 38t-44 114q0 62 34 97q42 43 150 43h136v52q0 82 -30 114q-31 32 -107 32q-66 0 -138 -18l-3 25q74 21 144 21q89 0 127 -41zM368 57v194h-132q-94 0 -129 -33q-29 -27 -29 -80q0 -62 36.5 -93
t99.5 -31q83 0 154 43z" />
    <glyph glyph-name="AEacute" unicode="&#x1fc;" horiz-adv-x="803" 
d="M490 742l-13 16l162 149l28 -33zM10 0l384 684h341l-6 -27h-291v-296h243v-27h-243v-306h307v-28h-337v189h-259l-107 -189h-32zM164 216h244v437z" />
    <glyph glyph-name="aeacute" unicode="&#x1fd;" horiz-adv-x="787" 
d="M352 574l-13 16l162 149l28 -33zM207 -14q-72 0 -115.5 38.5t-43.5 113.5q0 62 34 97q42 43 150 43h134v53q0 81 -31 114q-30 31 -107 31q-62 0 -135 -19l-5 26q74 21 144 21q89 0 127 -41q24 -25 31 -70q49 111 166 111q178 0 178 -253v-11q0 -11 -12 -11h-328
q2 -108 46 -161t143 -53q67 0 124 16l4 -27q-54 -18 -130 -18q-116 0 -170 73q-37 -31 -93 -52t-111 -21zM394 256h311q0 220 -149 220q-80 0 -120 -58t-42 -162zM216 15q105 0 181 65q-31 52 -31 171h-130q-94 0 -129 -33q-29 -27 -29 -80q0 -62 36.5 -92.5t101.5 -30.5z
" />
    <glyph glyph-name="Oslashacute" unicode="&#x1fe;" horiz-adv-x="619" 
d="M249 742l-13 16l162 149l28 -33zM130 -74l40 102q-106 80 -106 313q0 356 246 356q64 0 113 -25l34 85h30l-40 -101q108 -79 108 -315q0 -355 -245 -355q-67 0 -116 26l-34 -86h-30zM182 58l230 585q-42 24 -102 24q-113 0 -163.5 -82.5t-50.5 -243.5q0 -211 86 -283z
M310 17q113 0 163 82t50 242q0 214 -87 286l-231 -585q43 -25 105 -25z" />
    <glyph glyph-name="oslashacute" unicode="&#x1ff;" horiz-adv-x="509" 
d="M203 574l-13 16l162 149l28 -33zM100 -92l44 106q-88 56 -88 231q0 129 48 194t151 65q49 0 85 -15l39 93h29l-44 -106q89 -55 89 -231q0 -259 -198 -259q-52 0 -87 16l-39 -94h-29zM155 42l175 421q-34 13 -75 13q-91 0 -130 -58t-39 -173q0 -155 69 -203zM255 15
q91 0 129.5 57.5t38.5 172.5q0 156 -70 204l-174 -420q33 -14 76 -14z" />
    <glyph glyph-name="Scommaaccent" unicode="&#x218;" horiz-adv-x="510" 
d="M228 -14q-97 0 -168 27l7 29q79 -25 160 -25q91 0 137 31q53 35 53 114q0 45 -19 77.5t-49.5 51t-68 34l-74.5 31t-67.5 36t-49.5 55.5t-19 83q0 79 49 122q51 45 149 45q70 0 145 -22l-7 -28q-69 20 -132 20q-174 0 -174 -133q0 -59 36 -96t87 -56.5l102 -41t87 -65
t36 -112.5q0 -90 -58 -133.5t-162 -43.5zM240 -199v81q-20 4 -20 25v2q0 21 22 21h2q25 0 25 -34q0 -58 -14 -95h-15z" />
    <glyph glyph-name="scommaaccent" unicode="&#x219;" horiz-adv-x="386" 
d="M179 -14q-72 0 -122 16l3 26q53 -14 116 -14q148 0 148 103q0 44 -28.5 70.5t-69.5 39l-82 25.5t-69.5 42.5t-28.5 77.5q0 68 46.5 100t122.5 32q57 0 106 -14l-3 -27q-57 13 -104 13q-138 0 -138 -104q0 -39 28.5 -63t69.5 -36.5t82 -27t69.5 -46t28.5 -82.5
q0 -60 -43 -95.5t-132 -35.5zM188 -199v81q-20 4 -20 25v2q0 21 22 21h2q25 0 25 -34q0 -58 -14 -95h-15z" />
    <glyph glyph-name="uni021A" unicode="&#x21a;" horiz-adv-x="531" 
d="M252 0v657h-222v27h476l-6 -27h-218v-657h-30zM261 -199v81q-20 4 -20 25v2q0 21 22 21h2q25 0 25 -34q0 -58 -14 -95h-15z" />
    <glyph glyph-name="uni021B" unicode="&#x21b;" horiz-adv-x="319" 
d="M224 -14q-60 0 -90 30q-28 28 -28 98v350h-88v20l88 6v111q15 7 29 8v-119h133v-26h-133v-326q0 -77 23 -101q22 -23 67 -23q39 0 75 9l3 -24q-36 -13 -79 -13zM206 -199v81q-20 4 -20 25v2q0 21 22 21h2q25 0 25 -34q0 -58 -14 -95h-15z" />
    <glyph glyph-name="uni0237" unicode="&#x237;" horiz-adv-x="189" 
d="M-49 -238l-5 26q70 -1 107 32q28 25 28 104v566h29v-566q0 -89 -33 -122q-40 -40 -126 -40z" />
    <glyph glyph-name="circumflex" unicode="&#x2c6;" horiz-adv-x="390" 
d="M73 583l-16 16l118 126h39l118 -126l-15 -16l-122 115z" />
    <glyph glyph-name="caron" unicode="&#x2c7;" horiz-adv-x="390" 
d="M175 582l-118 126l16 16l122 -115l122 115l15 -16l-118 -126h-39z" />
    <glyph glyph-name="breve" unicode="&#x2d8;" horiz-adv-x="390" 
d="M196 582q-53 0 -81.5 31.5t-31.5 83.5h24q11 -84 89 -84q77 0 89 84h23q-3 -52 -31 -83.5t-81 -31.5z" />
    <glyph glyph-name="dotaccent" unicode="&#x2d9;" horiz-adv-x="390" 
d="M192 622q-28 0 -28 28v8q0 28 28 28h6q28 0 28 -28v-8q0 -28 -28 -28h-6z" />
    <glyph glyph-name="ring" unicode="&#x2da;" horiz-adv-x="390" 
d="M197 790q49 0 75.5 -28t26.5 -73t-27 -73t-76 -28h-4q-49 0 -75 28t-26 73t26.5 73t75.5 28h4zM269 687v3q0 73 -72 73h-5q-34 0 -52.5 -19t-18.5 -54v-3q0 -35 18.5 -54t51.5 -19h5q73 0 73 73zM91 688v2v-1v-1zM299 690v-2v1v1z" />
    <glyph glyph-name="ogonek" unicode="&#x2db;" horiz-adv-x="390" 
d="M205 -198q-41 0 -64 21.5t-23 60.5q0 44 27.5 79.5t67.5 53.5l33 -2q-49 -23 -74 -58t-25 -69q0 -61 68 -61q29 0 56 5v-20q-37 -10 -66 -10z" />
    <glyph glyph-name="tilde" unicode="&#x2dc;" horiz-adv-x="390" 
d="M256 609q-24 0 -62.5 21.5t-57.5 21.5q-27 0 -44 -40l-23 6q14 68 66 68q25 0 63 -22t57 -22q26 0 44 40l22 -6q-14 -67 -65 -67z" />
    <glyph glyph-name="hungarumlaut" unicode="&#x2dd;" horiz-adv-x="390" 
d="M33 587l-18 17l140 180l37 -33zM213 587l-18 17l140 180l37 -33z" />
    <glyph glyph-name="gravecomb" unicode="&#x300;" 
d="M-115 574l-177 132l28 33l162 -149z" />
    <glyph glyph-name="acutecomb" unicode="&#x301;" 
d="M-278 574l-13 16l162 149l28 -33z" />
    <glyph glyph-name="uni0302" unicode="&#x302;" 
d="M-317 583l-16 16l118 126h39l118 -126l-15 -16l-122 115z" />
    <glyph glyph-name="tildecomb" unicode="&#x303;" 
d="M-134 609q-24 0 -62.5 21.5t-57.5 21.5q-27 0 -44 -40l-23 6q14 68 66 68q25 0 63 -22t57 -22q26 0 44 40l22 -6q-14 -67 -65 -67z" />
    <glyph glyph-name="uni0304" unicode="&#x304;" 
d="M-307 626v27h223v-27h-223z" />
    <glyph glyph-name="uni0306" unicode="&#x306;" 
d="M-194 582q-53 0 -81.5 31.5t-31.5 83.5h24q11 -84 89 -84q77 0 89 84h23q-3 -52 -31 -83.5t-81 -31.5z" />
    <glyph glyph-name="uni0307" unicode="&#x307;" 
d="M-198 622q-28 0 -28 28v8q0 28 28 28h6q28 0 28 -28v-8q0 -28 -28 -28h-6z" />
    <glyph glyph-name="uni0308" unicode="&#x308;" 
d="M-283 615q-33 0 -33 32v4q0 15 9 24t24 9h2q15 0 24 -9t9 -24v-4q0 -32 -33 -32h-2zM-109 615q-33 0 -33 32v4q0 15 9 24t24 9h2q15 0 24 -9t9 -24v-4q0 -32 -33 -32h-2z" />
    <glyph glyph-name="uni030A" unicode="&#x30a;" 
d="M-193 790q49 0 75.5 -28t26.5 -73t-27 -73t-76 -28h-4q-49 0 -75 28t-26 73t26.5 73t75.5 28h4zM-121 687v3q0 73 -72 73h-5q-34 0 -52.5 -19t-18.5 -54v-3q0 -35 18.5 -54t51.5 -19h5q73 0 73 73zM-299 688v2v-1v-1zM-91 690v-2v1v1z" />
    <glyph glyph-name="uni030B" unicode="&#x30b;" 
d="M-357 587l-18 17l140 180l37 -33zM-177 587l-18 17l140 180l37 -33z" />
    <glyph glyph-name="uni030C" unicode="&#x30c;" 
d="M-215 582l-118 126l16 16l122 -115l122 115l15 -16l-118 -126h-39z" />
    <glyph glyph-name="uni0326" unicode="&#x326;" 
d="M-203 -199v81q-20 4 -20 25v2q0 21 22 21h2q25 0 25 -34q0 -58 -14 -95h-15z" />
    <glyph glyph-name="uni0327" unicode="&#x327;" 
d="M-202 -190q-31 0 -61 8v21q36 -6 57 -6q54 0 54 32q0 17 -16.5 27t-37 13.5t-37 14t-16.5 29.5q0 26 21 49h15q-13 -20 -13 -35q0 -18 17 -27.5t38 -12t38 -16.5t17 -41q0 -25 -19 -40.5t-57 -15.5z" />
    <glyph glyph-name="uni0328" unicode="&#x328;" 
d="M-184 -198q-41 0 -64 21.5t-23 60.5q0 44 27.5 79.5t67.5 53.5l33 -2q-49 -23 -74 -58t-25 -69q0 -61 68 -61q28 0 56 5v-20q-37 -10 -66 -10z" />
    <glyph glyph-name="uni0394" unicode="&#x394;" horiz-adv-x="590" 
d="M41 0v6q0 12 6 29l225 649h42l227 -641q8 -23 8 -33v-10h-508zM77 27h435l-220 628z" />
    <glyph glyph-name="uni03A9" unicode="&#x3a9;" horiz-adv-x="635" 
d="M88 0v27h159q-79 54 -129 143.5t-50 211.5q0 144 66.5 229.5t183.5 85.5q116 0 182.5 -85.5t66.5 -228.5q0 -122 -50.5 -212t-129.5 -144h160v-27h-188v12q0 14 3.5 19.5t14.5 14.5q158 128 158 338q0 128 -54 205.5t-163 77.5q-110 0 -164 -77.5t-54 -206.5
q0 -111 40 -191.5t119 -145.5q11 -9 14 -14.5t3 -19.5v-12h-188z" />
    <glyph glyph-name="uni03BC" unicode="&#x3bc;" horiz-adv-x="517" 
d="M78 -225v715h29v-327q0 -83 32 -115q34 -34 107 -34t164 49v427h29v-490h-22l-4 38q-87 -52 -175 -52q-93 0 -131 51v-262h-29z" />
    <glyph glyph-name="pi" unicode="&#x3c0;" horiz-adv-x="597" 
d="M124 0v455h-90v27h529v-27h-88v-455h-29v455h-293v-455h-29z" />
    <glyph glyph-name="Wgrave" unicode="&#x1e80;" horiz-adv-x="823" 
d="M495 742l-177 132l28 33l162 -149zM223 0l-192 684h31l180 -647l153 647h37l161 -647l168 647h31l-179 -684h-39l-160 642l-152 -642h-39z" />
    <glyph glyph-name="wgrave" unicode="&#x1e81;" horiz-adv-x="649" 
d="M407 574l-177 132l28 33l162 -149zM164 0l-145 490h32l131 -452l127 452h29l147 -452l111 452h31l-124 -490h-35l-144 445l-125 -445h-35z" />
    <glyph glyph-name="Wacute" unicode="&#x1e82;" horiz-adv-x="823" 
d="M352 742l-13 16l162 149l28 -33zM223 0l-192 684h31l180 -647l153 647h37l161 -647l168 647h31l-179 -684h-39l-160 642l-152 -642h-39z" />
    <glyph glyph-name="wacute" unicode="&#x1e83;" horiz-adv-x="649" 
d="M243 574l-13 16l162 149l28 -33zM164 0l-145 490h32l131 -452l127 452h29l147 -452l111 452h31l-124 -490h-35l-144 445l-125 -445h-35z" />
    <glyph glyph-name="Wdieresis" unicode="&#x1e84;" horiz-adv-x="823" 
d="M326 783q-33 0 -33 32v4q0 15 9 24t24 9h2q15 0 24 -9t9 -24v-4q0 -32 -33 -32h-2zM500 783q-33 0 -33 32v4q0 15 9 24t24 9h2q15 0 24 -9t9 -24v-4q0 -32 -33 -32h-2zM223 0l-192 684h31l180 -647l153 647h37l161 -647l168 647h31l-179 -684h-39l-160 642l-152 -642h-39
z" />
    <glyph glyph-name="wdieresis" unicode="&#x1e85;" horiz-adv-x="649" 
d="M237 615q-33 0 -33 32v4q0 15 9 24t24 9h2q15 0 24 -9t9 -24v-4q0 -32 -33 -32h-2zM411 615q-33 0 -33 32v4q0 15 9 24t24 9h2q15 0 24 -9t9 -24v-4q0 -32 -33 -32h-2zM164 0l-145 490h32l131 -452l127 452h29l147 -452l111 452h31l-124 -490h-35l-144 445l-125 -445h-35
z" />
    <glyph glyph-name="Ygrave" unicode="&#x1ef2;" horiz-adv-x="516" 
d="M335 742l-177 132l28 33l162 -149zM238 0v280l-210 404h33l193 -376l202 376h32l-220 -404v-280h-30z" />
    <glyph glyph-name="ygrave" unicode="&#x1ef3;" horiz-adv-x="514" 
d="M339 574l-177 132l28 33l162 -149zM272 -239q-45 0 -68 7l-7 27q30 -6 65 -6q79 0 114 29q31 25 31 110v108q-84 -50 -172 -50q-78 0 -120 39q-40 36 -40 119v346h29v-327q0 -84 32 -115q36 -34 106 -34q74 0 165 49v427h29v-564q0 -94 -35 -127q-41 -38 -129 -38z" />
    <glyph glyph-name="endash" unicode="&#x2013;" horiz-adv-x="500" 
d="M0 246v28h500v-28h-500z" />
    <glyph glyph-name="emdash" unicode="&#x2014;" horiz-adv-x="1000" 
d="M0 246v28h1000v-28h-1000z" />
    <glyph glyph-name="quoteleft" unicode="&#x2018;" horiz-adv-x="207" 
d="M110 697v-96q27 -3 27 -26v-4q0 -27 -27 -27h-2q-27 0 -27 46q0 47 14 107h15z" />
    <glyph glyph-name="quoteright" unicode="&#x2019;" horiz-adv-x="207" 
d="M97 544v96q-27 3 -27 26v4q0 27 27 27h2q27 0 27 -46q0 -47 -14 -107h-15z" />
    <glyph glyph-name="quotesinglbase" unicode="&#x201a;" horiz-adv-x="207" 
d="M97 -110v96q-27 3 -27 26v4q0 27 27 27h2q27 0 27 -46q0 -47 -14 -107h-15z" />
    <glyph glyph-name="quotedblleft" unicode="&#x201c;" horiz-adv-x="296" 
d="M110 697v-96q27 -3 27 -26v-4q0 -27 -27 -27h-2q-27 0 -27 46q0 47 14 107h15zM199 697v-96q27 -3 27 -26v-4q0 -27 -27 -27h-2q-27 0 -27 46q0 47 14 107h15z" />
    <glyph glyph-name="quotedblright" unicode="&#x201d;" horiz-adv-x="296" 
d="M97 544v96q-27 3 -27 26v4q0 27 27 27h2q27 0 27 -46q0 -47 -14 -107h-15zM186 544v96q-27 3 -27 26v4q0 27 27 27h2q27 0 27 -46q0 -47 -14 -107h-15z" />
    <glyph glyph-name="quotedblbase" unicode="&#x201e;" horiz-adv-x="295" 
d="M97 -110v96q-27 3 -27 26v4q0 27 27 27h2q27 0 27 -46q0 -47 -14 -107h-15zM185 -110v96q-27 3 -27 26v4q0 27 27 27h2q27 0 27 -46q0 -47 -14 -107h-15z" />
    <glyph glyph-name="dagger" unicode="&#x2020;" horiz-adv-x="466" 
d="M219 -237l4 638l-197 -5v28l197 -5l-4 265h29l-5 -265l197 5v-28l-197 5l5 -638h-29z" />
    <glyph glyph-name="daggerdbl" unicode="&#x2021;" horiz-adv-x="466" 
d="M219 -237l4 266l-197 -5v28l197 -5v354l-197 -5v28l197 -5l-4 265h29l-5 -265l197 5v-28l-197 5v-354l197 5v-28l-197 5l5 -266h-29z" />
    <glyph glyph-name="bullet" unicode="&#x2022;" horiz-adv-x="354" 
d="M167 231q-96 0 -96 108v8q0 108 96 108h20q96 0 96 -108v-8q0 -108 -96 -108h-20z" />
    <glyph glyph-name="ellipsis" unicode="&#x2026;" horiz-adv-x="650" 
d="M107 -14q-27 0 -27 26v4q0 27 27 27h2q27 0 27 -27v-4q0 -26 -27 -26h-2zM324 -14q-27 0 -27 26v4q0 27 27 27h2q27 0 27 -27v-4q0 -26 -27 -26h-2zM541 -14q-27 0 -27 26v4q0 27 27 27h2q27 0 27 -27v-4q0 -26 -27 -26h-2z" />
    <glyph glyph-name="perthousand" unicode="&#x2030;" horiz-adv-x="1171" 
d="M197 293q-66 0 -98.5 48t-32.5 154t32.5 154t98.5 48q65 0 97.5 -48t32.5 -154t-32.5 -154t-97.5 -48zM246 -14l337 711h30l-337 -711h-30zM197 318q54 0 78 39.5t24 137.5q0 97 -24.5 137t-77.5 40q-54 0 -78.5 -39.5t-24.5 -137.5q0 -99 25 -138t78 -39zM664 -14
q-66 0 -98.5 48t-32.5 154t32.5 154t98.5 48q65 0 97.5 -48t32.5 -154t-32.5 -154t-97.5 -48zM977 -14q-66 0 -98.5 48t-32.5 154t32.5 154t98.5 48q65 0 97.5 -48t32.5 -154t-32.5 -154t-97.5 -48zM664 11q54 0 78 39.5t24 137.5q0 97 -24.5 137t-77.5 40
q-54 0 -78.5 -39.5t-24.5 -137.5q0 -99 25 -138t78 -39zM977 11q54 0 78 39.5t24 137.5q0 97 -24.5 137t-77.5 40q-54 0 -78.5 -39.5t-24.5 -137.5q0 -99 25 -138t78 -39z" />
    <glyph glyph-name="guilsinglleft" unicode="&#x2039;" horiz-adv-x="327" 
d="M232 74l-118 140q-24 30 -24 48t24 48l118 140l19 -14l-129 -174l129 -174z" />
    <glyph glyph-name="guilsinglright" unicode="&#x203a;" horiz-adv-x="327" 
d="M95 74l-19 14l129 174l-129 174l19 14l118 -140q24 -30 24 -48t-24 -48z" />
    <glyph glyph-name="fraction" unicode="&#x2044;" horiz-adv-x="337" 
d="M-15 -14l337 711h30l-337 -711h-30z" />
    <glyph glyph-name="Euro" unicode="&#x20ac;" horiz-adv-x="511" 
d="M352 -14q-119 0 -184 66.5t-77 207.5h-71v17l68 7q-1 16 -1 89h-67v17l69 7q10 160 83 235q63 65 177 65q61 0 130 -23v-26q-64 22 -132 22q-92 0 -147 -52q-73 -69 -81 -220h237v-25h-239q0 -75 1 -88h238v-25h-236q11 -128 67.5 -187.5t163.5 -59.5q55 0 136 14v-24
q-66 -17 -135 -17z" />
    <glyph glyph-name="uni2113" unicode="&#x2113;" horiz-adv-x="185" 
d="M78 0v715h29v-715h-29z" />
    <glyph glyph-name="uni2116" unicode="&#x2116;" horiz-adv-x="968" 
d="M94 0v684h22l413 -624v624h28v-684h-23l-412 624v-624h-28zM786 243q-64 0 -107.5 47t-43.5 129t43.5 129t107.5 47t107.5 -47t43.5 -129t-43.5 -129t-107.5 -47zM786 269q56 0 89.5 40t33.5 110t-33.5 110t-89.5 40t-89.5 -40t-33.5 -110t33.5 -110t89.5 -40z" />
    <glyph glyph-name="trademark" unicode="&#x2122;" horiz-adv-x="626" 
d="M121 370v290h-101v24h229v-24h-101v-290h-27zM304 370v314h26l112 -230l118 230h26v-314h-25v265l-106 -207h-26l-101 207v-265h-24z" />
    <glyph glyph-name="uni2126" unicode="&#x2126;" horiz-adv-x="635" 
d="M88 0v27h159q-79 54 -129 143.5t-50 211.5q0 144 66.5 229.5t183.5 85.5q116 0 182.5 -85.5t66.5 -228.5q0 -122 -50.5 -212t-129.5 -144h160v-27h-188v12q0 14 3.5 19.5t14.5 14.5q158 128 158 338q0 128 -54 205.5t-163 77.5q-110 0 -164 -77.5t-54 -206.5
q0 -111 40 -191.5t119 -145.5q11 -9 14 -14.5t3 -19.5v-12h-188z" />
    <glyph glyph-name="estimated" unicode="&#x212e;" horiz-adv-x="854" 
d="M428 -14q-165 0 -281.5 104t-116.5 251q0 148 116.5 252t281.5 104q163 0 279.5 -104t116.5 -252v-8h-642q-7 0 -7 -6v-194q0 -10 11 -23q99 -102 243 -102q76 0 142 31t112 85h59q-57 -64 -139 -101t-175 -37zM182 352h490q7 0 7 6v196q0 12 -12 24q-98 98 -238 98
q-144 0 -243 -101q-11 -13 -11 -26v-191q0 -6 7 -6z" />
    <glyph glyph-name="partialdiff" unicode="&#x2202;" horiz-adv-x="511" 
d="M243 -14q-90 0 -137.5 57.5t-47.5 160.5q0 195 185 195q82 0 168 -34q-6 202 -70 262q-45 42 -136 42q-54 0 -93 -6v24q42 10 101 10q101 0 152 -51q77 -77 77 -321q0 -165 -44.5 -252t-154.5 -87zM243 14q169 0 169 292v32q-84 33 -164 33q-76 0 -118 -36.5t-42 -129.5
q0 -91 40.5 -141t114.5 -50z" />
    <glyph glyph-name="uni2206" unicode="&#x2206;" horiz-adv-x="590" 
d="M41 0v6q0 12 6 29l225 649h42l227 -641q8 -23 8 -33v-10h-508zM77 27h435l-220 628z" />
    <glyph glyph-name="product" unicode="&#x220f;" horiz-adv-x="708" 
d="M152 -225v882h-100v27h604v-27h-100v-882h-30v882h-344v-882h-30z" />
    <glyph glyph-name="summation" unicode="&#x2211;" horiz-adv-x="582" 
d="M66 -225v24l315 439l-305 423v23h442v-27h-403l302 -419l-313 -436h414v-27h-452z" />
    <glyph glyph-name="minus" unicode="&#x2212;" horiz-adv-x="485" 
d="M96 323v26h293v-26h-293z" />
    <glyph glyph-name="radical" unicode="&#x221a;" horiz-adv-x="622" 
d="M308 0l-173 464h-63v26h83l168 -448l238 689h29l-252 -731h-30z" />
    <glyph glyph-name="infinity" unicode="&#x221e;" horiz-adv-x="690" 
d="M499 180q-49 0 -79.5 29.5t-61.5 86.5q-69 -114 -161 -114q-72 0 -104.5 46t-32.5 114q0 65 32 109.5t99 44.5q52 0 84.5 -28.5t60.5 -80.5q64 107 157 107q72 0 104.5 -46t32.5 -114q0 -65 -32 -109.5t-99 -44.5zM196 208q46 0 80 27.5t68 85.5q-16 33 -28 54t-31 46
t-42.5 37t-51.5 12q-47 0 -75 -33.5t-28 -93.5q0 -64 28 -99.5t80 -35.5zM499 206q47 0 75 33.5t28 93.5q0 63 -28.5 99t-79.5 36q-45 0 -78.5 -26t-65.5 -79q2 -5 12.5 -26.5t14.5 -28.5l14.5 -25t16.5 -25.5t17.5 -20t21.5 -17.5t23.5 -9.5t28.5 -4.5z" />
    <glyph glyph-name="integral" unicode="&#x222b;" horiz-adv-x="502" 
d="M137 -239q-31 0 -59 5v27q30 -5 57 -5q56 0 80 24q15 15 18.5 35.5t3.5 66.5v689q0 45 6 69t23 40q33 31 100 31q31 0 59 -5v-27q-30 5 -57 5q-56 0 -80 -24q-15 -15 -18.5 -35.5t-3.5 -66.5v-689q0 -45 -6 -69t-23 -40q-33 -31 -100 -31z" />
    <glyph glyph-name="approxequal" unicode="&#x2248;" horiz-adv-x="485" 
d="M334 385q-33 0 -95 18.5t-85 18.5q-25 0 -32 -31l-25 4q7 57 54 57q31 0 92.5 -18.5t87.5 -18.5t32 31l25 -4q-7 -57 -54 -57zM334 207q-33 0 -95 18.5t-85 18.5q-25 0 -32 -31l-25 4q7 57 54 57q31 0 92.5 -18.5t87.5 -18.5t32 31l25 -4q-7 -57 -54 -57z" />
    <glyph glyph-name="notequal" unicode="&#x2260;" horiz-adv-x="864" 
d="M774 356v-28h-327v-328h-30v328h-327v28h327v328h30v-328h327z" />
    <glyph glyph-name="lessequal" unicode="&#x2264;" horiz-adv-x="485" 
d="M388 169l-291 145v30l291 145v-30l-263 -130l263 -130v-30zM96 0v26h293v-26h-293z" />
    <glyph glyph-name="greaterequal" unicode="&#x2265;" horiz-adv-x="485" 
d="M97 169v30l263 130l-263 130v30l291 -145v-30zM96 0v26h293v-26h-293z" />
    <glyph glyph-name="lozenge" unicode="&#x25ca;" horiz-adv-x="537" 
d="M253 0l-187 290q-22 35 -22 52q0 15 22 52l187 290h32l186 -290q22 -35 22 -52q0 -15 -22 -52l-186 -290h-32zM269 30l198 312l-198 312l-199 -312z" />
    <glyph glyph-name="uniF8FF" unicode="&#xf8ff;" horiz-adv-x="606" 
d="M100 0v684h406v-66h-338v-550h75v-68h-143zM235 210v67h205v69h-205v203h271v-68h-202v-67h202v-204h-271z" />
    <glyph glyph-name="i.loclTRK" horiz-adv-x="185" 
d="M90 622q-28 0 -28 28v8q0 28 28 28h6q28 0 28 -28v-8q0 -28 -28 -28h-6zM78 0v490h29v-490h-29z" />
    <glyph glyph-name="notequal.ss01" horiz-adv-x="485" 
d="M143 84l52 152h-99v26h109l48 141h-157v26h166l53 154h28l-53 -154h99v-26h-108l-48 -141h156v-26h-166l-52 -152h-28z" />
    <glyph glyph-name="plus.ss01" horiz-adv-x="864" 
d="M774 356v-28h-327v-328h-30v328h-327v28h327v328h30v-328h327z" />
    <glyph glyph-name="uni0308.case" 
d="M-283 783q-33 0 -33 32v4q0 15 9 24t24 9h2q15 0 24 -9t9 -24v-4q0 -32 -33 -32h-2zM-109 783q-33 0 -33 32v4q0 15 9 24t24 9h2q15 0 24 -9t9 -24v-4q0 -32 -33 -32h-2z" />
    <glyph glyph-name="uni0307.case" 
d="M-198 790q-28 0 -28 28v8q0 28 28 28h6q28 0 28 -28v-8q0 -28 -28 -28h-6z" />
    <glyph glyph-name="gravecomb.case" 
d="M-115 742l-177 132l28 33l162 -149z" />
    <glyph glyph-name="acutecomb.case" 
d="M-275 742l-13 16l162 149l28 -33z" />
    <glyph glyph-name="uni030B.case" 
d="M-357 756l-18 17l140 180l37 -33zM-177 756l-18 17l140 180l37 -33z" />
    <glyph glyph-name="uni0302.case" 
d="M-316 729l-16 16l118 126h39l118 -126l-15 -16l-122 115z" />
    <glyph glyph-name="uni030C.case" 
d="M-215 729l-118 126l16 16l122 -115l122 115l15 -16l-118 -126h-39z" />
    <glyph glyph-name="uni0306.case" 
d="M-194 748q-53 0 -81.5 31.5t-31.5 83.5h24q11 -84 89 -84q77 0 89 84h23q-3 -52 -31 -83.5t-81 -31.5z" />
    <glyph glyph-name="uni030A.case" 
d="M-193 958q49 0 75.5 -28t26.5 -73t-27 -73t-76 -28h-4q-49 0 -75 28t-26 73t26.5 73t75.5 28h4zM-121 855v3q0 73 -72 73h-5q-34 0 -52.5 -19t-18.5 -54v-3q0 -35 18.5 -54t51.5 -19h5q73 0 73 73zM-299 856v2v-1v-1zM-91 858v-2v1v1z" />
    <glyph glyph-name="tildecomb.case" 
d="M-134 771q-24 0 -62.5 21.5t-57.5 21.5q-27 0 -44 -40l-23 6q14 68 66 68q25 0 63 -22t57 -22q26 0 44 40l22 -6q-14 -67 -65 -67z" />
    <glyph glyph-name="uni0304.case" 
d="M-307 815v27h223v-27h-223z" />
    <glyph glyph-name="acute.case" horiz-adv-x="390" 
d="M115 742l-13 16l162 149l28 -33z" />
    <glyph glyph-name="breve.case" horiz-adv-x="390" 
d="M196 748q-53 0 -81.5 31.5t-31.5 83.5h24q11 -84 89 -84q77 0 89 84h23q-3 -52 -31 -83.5t-81 -31.5z" />
    <glyph glyph-name="caron.case" horiz-adv-x="390" 
d="M175 729l-118 126l16 16l122 -115l122 115l15 -16l-118 -126h-39z" />
    <glyph glyph-name="circumflex.case" horiz-adv-x="390" 
d="M74 729l-16 16l118 126h39l118 -126l-15 -16l-122 115z" />
    <glyph glyph-name="dieresis.case" horiz-adv-x="390" 
d="M107 783q-33 0 -33 32v4q0 15 9 24t24 9h2q15 0 24 -9t9 -24v-4q0 -32 -33 -32h-2zM281 783q-33 0 -33 32v4q0 15 9 24t24 9h2q15 0 24 -9t9 -24v-4q0 -32 -33 -32h-2z" />
    <glyph glyph-name="dotaccent.case" horiz-adv-x="390" 
d="M192 790q-28 0 -28 28v8q0 28 28 28h6q28 0 28 -28v-8q0 -28 -28 -28h-6z" />
    <glyph glyph-name="grave.case" horiz-adv-x="390" 
d="M275 742l-177 132l28 33l162 -149z" />
    <glyph glyph-name="hungarumlaut.case" horiz-adv-x="390" 
d="M33 756l-18 17l140 180l37 -33zM213 756l-18 17l140 180l37 -33z" />
    <glyph glyph-name="macron.case" horiz-adv-x="390" 
d="M83 815v27h223v-27h-223z" />
    <glyph glyph-name="ring.case" horiz-adv-x="390" 
d="M197 958q49 0 75.5 -28t26.5 -73t-27 -73t-76 -28h-4q-49 0 -75 28t-26 73t26.5 73t75.5 28h4zM269 855v3q0 73 -72 73h-5q-34 0 -52.5 -19t-18.5 -54v-3q0 -35 18.5 -54t51.5 -19h5q73 0 73 73zM91 856v2v-1v-1zM299 858v-2v1v1z" />
    <glyph glyph-name="tilde.case" horiz-adv-x="390" 
d="M256 771q-24 0 -62.5 21.5t-57.5 21.5q-27 0 -44 -40l-23 6q14 68 66 68q25 0 63 -22t57 -22q26 0 44 40l22 -6q-14 -67 -65 -67z" />
    </font>
</defs>
</svg>
