<?xml version="1.0" encoding="utf-8"?>
<!-- Generator: Adobe Illustrator 23.0.3, SVG Export Plug-In . SVG Version: 6.00 Build 0)  -->
<svg version="1.1" id="Capa_1" xmlns="http://www.w3.org/2000/svg" xmlns:xlink="http://www.w3.org/1999/xlink" x="0px" y="0px"
	 viewBox="0 0 54.15 25" style="enable-background:new 0 0 54.15 25;" xml:space="preserve">
<style type="text/css">
	.st0{clip-path:url(#SVGID_2_);fill:#3AD5F1;}
	.st1{clip-path:url(#SVGID_4_);fill:#FF7C9A;}
	.st2{clip-path:url(#SVGID_6_);fill:#5AD73C;}
	.st3{clip-path:url(#SVGID_8_);fill:#94E37A;}
</style>
<g>
	<g>
		<g>
			<defs>
				<path id="SVGID_1_" d="M6.75,17.7c-3.2-3.9-4.6-4-5.9-2.9s-1.4,2.4,1.8,6.3s4.6,4,5.9,2.9C9.75,23,9.95,21.6,6.75,17.7"/>
			</defs>
			<clipPath id="SVGID_2_">
				<use xlink:href="#SVGID_1_"  style="overflow:visible;"/>
			</clipPath>
			<rect x="-5.05" y="9.3" class="st0" width="19.4" height="20.4"/>
		</g>
	</g>
	<g>
		<g>
			<defs>
				<path id="SVGID_3_" d="M47.35,18.7c-1.4,3.1-1.5,4.9,0.8,5.9c2.3,1.1,3.6-0.1,5-3.2s1.5-4.9-0.8-5.9
					C50.15,14.4,48.85,15.6,47.35,18.7"/>
			</defs>
			<clipPath id="SVGID_4_">
				<use xlink:href="#SVGID_3_"  style="overflow:visible;"/>
			</clipPath>
			<rect x="41.35" y="10.1" class="st1" width="17.9" height="19.9"/>
		</g>
	</g>
	<g>
		<g>
			<defs>
				<path id="SVGID_5_" d="M27.45,10c-3.6,0-5.2,2-5.2,5.3s1.7,5.2,5.3,5.2s5.2-2,5.2-5.3C32.75,11.8,31.05,9.9,27.45,10"/>
			</defs>
			<clipPath id="SVGID_6_">
				<use xlink:href="#SVGID_5_"  style="overflow:visible;"/>
			</clipPath>
			<rect x="17.25" y="5" class="st2" width="20.5" height="20.5"/>
		</g>
	</g>
	<g>
		<g>
			<defs>
				<path id="SVGID_7_" d="M36.35,0c-1.9,0-2.8,1.1-2.8,2.8c0,1.8,0.9,2.8,2.8,2.8c1.9,0,2.8-1.1,2.8-2.8C39.15,1,38.25,0,36.35,0"
					/>
			</defs>
			<clipPath id="SVGID_8_">
				<use xlink:href="#SVGID_7_"  style="overflow:visible;"/>
			</clipPath>
			<rect x="28.65" y="-5" class="st3" width="15.6" height="15.6"/>
		</g>
	</g>
</g>
<g>
</g>
<g>
</g>
<g>
</g>
<g>
</g>
<g>
</g>
<g>
</g>
<g>
</g>
<g>
</g>
<g>
</g>
<g>
</g>
<g>
</g>
<g>
</g>
<g>
</g>
<g>
</g>
<g>
</g>
</svg>
