<?xml version="1.0" encoding="utf-8"?>
<!-- Generator: Adobe Illustrator 22.0.1, SVG Export Plug-In . SVG Version: 6.00 Build 0)  -->
<svg version="1.1" id="Capa_1" xmlns="http://www.w3.org/2000/svg" xmlns:xlink="http://www.w3.org/1999/xlink" x="0px" y="0px"
	 viewBox="0 0 65 165" style="enable-background:new 0 0 65 165;" xml:space="preserve">
<style type="text/css">
	.st0{clip-path:url(#SVGID_2_);fill:#E7EFF5;}
	.st1{clip-path:url(#SVGID_4_);fill:#FFFFFF;}
	.st2{clip-path:url(#SVGID_6_);fill:#00B3E5;}
	.st3{clip-path:url(#SVGID_8_);fill:#496D73;}
	.st4{clip-path:url(#SVGID_10_);fill:#3E6063;}
	.st5{clip-path:url(#SVGID_12_);fill:#FFFFFF;}
	.st6{clip-path:url(#SVGID_14_);fill:#6A999D;}
	.st7{clip-path:url(#SVGID_16_);fill:#3AD5F1;}
	.st8{clip-path:url(#SVGID_18_);fill:#FF7C9A;}
	.st9{clip-path:url(#SVGID_20_);fill:#5AD73C;}
	.st10{clip-path:url(#SVGID_22_);fill:#94E37A;}
	.st11{clip-path:url(#SVGID_24_);fill:#00C600;}
</style>
<g>
	<defs>
		<path id="SVGID_1_" d="M60.8,160c0,2.8-12.8,5-28.5,5c-15.7,0-28.5-2.2-28.5-5s12.8-5,28.5-5C48.1,155,60.8,157.2,60.8,160"/>
	</defs>
	<clipPath id="SVGID_2_">
		<use xlink:href="#SVGID_1_"  style="overflow:visible;"/>
	</clipPath>
	<rect x="-1.2" y="150" class="st0" width="67" height="20"/>
</g>
<g>
	<defs>
		<path id="SVGID_3_" d="M7.5,126.7c0,0-6-8.5-5.7-10.5C2,114.2,3,52,3,52l7.7-8.1l39.7-1.3l9.5,5.9l3.2,47.2c0,0-5,29.6-7.1,31
			C53.9,128.1,7.5,126.7,7.5,126.7"/>
	</defs>
	<clipPath id="SVGID_4_">
		<use xlink:href="#SVGID_3_"  style="overflow:visible;"/>
	</clipPath>
	<rect x="-3.3" y="37.6" class="st1" width="71.4" height="94.7"/>
</g>
<g>
	<defs>
		<path id="SVGID_5_" d="M3,51.9c0,0,0,0.9-0.1,3.4h56.8v-6.8l-9.4-5.9l-39.7,1.2L3,51.9z"/>
	</defs>
	<clipPath id="SVGID_6_">
		<use xlink:href="#SVGID_5_"  style="overflow:visible;"/>
	</clipPath>
	<rect x="-2" y="37.6" class="st2" width="66.8" height="22.7"/>
</g>
<g>
	<defs>
		<path id="SVGID_7_" d="M32.2,39.4C0,39.4,0,41.5,0,94.2c0,52.6,0,54.6,32.2,54.6c32.2,0,32.2-2.1,32.2-54.6
			C64.4,41.5,64.4,39.4,32.2,39.4 M55.3,125.2H9.5c-2.5,0-4.6-1.6-4.7-4.1c-0.3-7-0.3-15.8-0.3-27c0-25,0-38.7,3.4-44.7
			c3.1-5.4,9.7-5.4,24.3-5.4c14.5,0,21.2,0,24.3,5.4c3.4,6,3.4,19.8,3.4,44.8c0,11.4,0,20.2-0.3,27.2
			C59.5,123.7,57.6,125.2,55.3,125.2"/>
	</defs>
	<clipPath id="SVGID_8_">
		<use xlink:href="#SVGID_7_"  style="overflow:visible;"/>
	</clipPath>
	<rect x="-5" y="34.4" class="st3" width="74.4" height="119.4"/>
</g>
<g>
	<defs>
		<path id="SVGID_9_" d="M9.5,125.2c-2.5,0-4.6-1.6-4.7-4.1c-0.3-7-0.3-15.8-0.3-27c0-25,0-38.7,3.4-44.7c3.1-5.4,9.7-5.4,24.3-5.4
			c13.3,0,20,0,23.4,4.2l2.2-4.4c-4.6-4-12.4-4.4-25.5-4.4C0,39.4,0,41.5,0,94.2c0,32.4,0,45.6,7.5,51l9.9-20H9.5z"/>
	</defs>
	<clipPath id="SVGID_10_">
		<use xlink:href="#SVGID_9_"  style="overflow:visible;"/>
	</clipPath>
	<rect x="-5" y="34.4" class="st4" width="67.7" height="115.8"/>
</g>
<g>
	<defs>
		<path id="SVGID_11_" d="M25.8,137.5c0-4.5,2.4-6.7,6.6-6.7c4.2,0,6.6,2.1,6.6,6.7s-2.4,6.7-6.6,6.7
			C28.3,144.2,25.8,142.1,25.8,137.5"/>
	</defs>
	<clipPath id="SVGID_12_">
		<use xlink:href="#SVGID_11_"  style="overflow:visible;"/>
	</clipPath>
	<rect x="20.8" y="125.9" class="st5" width="23.1" height="23.3"/>
</g>
<g>
	<defs>
		<path id="SVGID_13_" d="M28.8,137.5c0-2.5,1.3-3.6,3.6-3.6c2.3,0,3.6,1.1,3.6,3.6c0,2.5-1.3,3.6-3.6,3.6
			C30.2,141.1,28.8,140,28.8,137.5"/>
	</defs>
	<clipPath id="SVGID_14_">
		<use xlink:href="#SVGID_13_"  style="overflow:visible;"/>
	</clipPath>
	<rect x="23.8" y="128.9" class="st6" width="17.1" height="17.2"/>
</g>
<g>
	<defs>
		<path id="SVGID_15_" d="M11.6,19.7c-3.2-3.9-4.6-4-5.9-2.9s-1.4,2.4,1.8,6.3c3.2,3.9,4.6,4,5.9,2.9C14.6,25,14.8,23.6,11.6,19.7"
			/>
	</defs>
	<clipPath id="SVGID_16_">
		<use xlink:href="#SVGID_15_"  style="overflow:visible;"/>
	</clipPath>
	<rect x="-0.2" y="11.3" class="st7" width="19.4" height="20.4"/>
</g>
<g>
	<defs>
		<path id="SVGID_17_" d="M52.2,20.7c-1.4,3.1-1.5,4.9,0.8,5.9c2.3,1.1,3.6-0.1,5-3.2c1.4-3.1,1.5-4.9-0.8-5.9
			C55,16.4,53.7,17.6,52.2,20.7"/>
	</defs>
	<clipPath id="SVGID_18_">
		<use xlink:href="#SVGID_17_"  style="overflow:visible;"/>
	</clipPath>
	<rect x="46.2" y="12.1" class="st8" width="17.9" height="19.9"/>
</g>
<g>
	<defs>
		<path id="SVGID_19_" d="M33.3,9c-3.6,0-5.2,2-5.2,5.3c0,3.3,1.7,5.2,5.3,5.2c3.6,0,5.2-2,5.2-5.3C38.6,10.8,36.9,8.9,33.3,9"/>
	</defs>
	<clipPath id="SVGID_20_">
		<use xlink:href="#SVGID_19_"  style="overflow:visible;"/>
	</clipPath>
	<rect x="23.1" y="4" class="st9" width="20.5" height="20.5"/>
</g>
<g>
	<defs>
		<path id="SVGID_21_" d="M40.2,0c-1.9,0-2.8,1.1-2.8,2.8c0,1.8,0.9,2.8,2.8,2.8c1.9,0,2.8-1.1,2.8-2.8C43,1,42.1,0,40.2,0"/>
	</defs>
	<clipPath id="SVGID_22_">
		<use xlink:href="#SVGID_21_"  style="overflow:visible;"/>
	</clipPath>
	<rect x="32.5" y="-5" class="st10" width="15.6" height="15.6"/>
</g>
<g>
	<defs>
		<path id="SVGID_23_" d="M18.8,80.1c-2,0-5.7,1-7.4,7.9c-0.7,3-1,6.1-0.4,9.8c0.6,3.4,1.6,6.4,2.3,8c0.2,0.6,0.6,1.1,0.9,1.5
			c0.8,1,2.2,1,2.8,0.7c0.6-0.3,1.3-1.1,1.1-2.7c-0.1-0.8-0.5-2-0.7-2.7c-0.6-2-1.5-4.5-1.5-6.3c-0.1-2.4,0.8-2.7,1.4-2.8
			c1-0.2,1.9,0.9,2.7,2.3c1,1.7,2.7,4.7,4,7c1.2,2.1,3.5,4.3,7.2,4.1c3.7-0.2,6.5-1.6,7.9-6.1c1.1-3.4,1.8-5.9,3-8.5
			c1.3-3,3.1-4.6,4.6-4.1c1.4,0.5,1.7,1.8,1.8,3.8c0,1.8-0.2,3.7-0.4,5.2c-0.1,0.5-0.2,1.6-0.1,2.2c0.1,1.1,0.6,2.3,1.9,2.5
			c1.4,0.2,2.5-0.9,2.9-2.2c0.2-0.5,0.3-1.3,0.4-1.9c0.4-2.9,0.5-4.8,0.3-7.8c-0.2-3.4-0.9-6.6-2.1-9.3c-1.1-2.6-2.9-4.3-5.2-4.4
			c-2.6-0.2-5.5,1.5-7,4.8c-1.4,3-2.6,6.2-3.3,7.8c-0.7,1.6-1.7,2.6-3.3,2.8c-1.9,0.2-3.6-1.2-4.8-3.2c-1.1-1.7-3.2-5.1-4.3-6.2
			C22.5,81.3,21.3,80,18.8,80.1"/>
	</defs>
	<clipPath id="SVGID_24_">
		<use xlink:href="#SVGID_23_"  style="overflow:visible;"/>
	</clipPath>
	<rect x="5.7" y="71.4" class="st11" width="53" height="41.8"/>
</g>
</svg>
