<svg version="1.1" id="Capa_1" xmlns="http://www.w3.org/2000/svg" xmlns:xlink="http://www.w3.org/1999/xlink" x="0px" y="0px"
	 viewBox="0 0 74.4 119.4" style="enable-background:new 0 0 74.4 119.4;" xml:space="preserve">
<style type="text/css">
	.st0{clip-path:url(#SVGID_2_);fill:#00B3E5;}
	.st1{clip-path:url(#SVGID_4_);fill:#496D73;}
	.st2{clip-path:url(#SVGID_6_);fill:#3E6063;}
	.st3{clip-path:url(#SVGID_8_);fill:#FFFFFF;}
	.st4{clip-path:url(#SVGID_10_);fill:#6A999D;}
</style>
<g>
	<g>
		<defs>
			<path id="SVGID_1_" d="M8,17.5c0,0,0,0.9-0.1,3.4h56.8v-6.8l-9.4-5.9L15.6,9.4L8,17.5z"/>
		</defs>
		<clipPath id="SVGID_2_">
			<use xlink:href="#SVGID_1_"  style="overflow:visible;"/>
		</clipPath>
		<rect x="3" y="3.2" class="st0" width="66.8" height="22.7"/>
	</g>
</g>
<g>
	<g>
		<defs>
			<path id="SVGID_3_" d="M37.2,5C5,5,5,7.1,5,59.8c0,52.6,0,54.6,32.2,54.6s32.2-2.1,32.2-54.6C69.4,7.1,69.4,5,37.2,5 M60.3,90.8
				H14.5c-2.5,0-4.6-1.6-4.7-4.1c-0.3-7-0.3-15.8-0.3-27c0-25,0-38.7,3.4-44.7c3.1-5.4,9.7-5.4,24.3-5.4c14.5,0,21.2,0,24.3,5.4
				c3.4,6,3.4,19.8,3.4,44.8c0,11.4,0,20.2-0.3,27.2C64.5,89.3,62.6,90.8,60.3,90.8"/>
		</defs>
		<clipPath id="SVGID_4_">
			<use xlink:href="#SVGID_3_"  style="overflow:visible;"/>
		</clipPath>
		<rect class="st1" width="74.4" height="119.4"/>
	</g>
</g>
<g>
	<g>
		<defs>
			<path id="SVGID_5_" d="M14.5,90.8c-2.5,0-4.6-1.6-4.7-4.1c-0.3-7-0.3-15.8-0.3-27c0-25,0-38.7,3.4-44.7c3.1-5.4,9.7-5.4,24.3-5.4
				c13.3,0,20,0,23.4,4.2l2.2-4.4C58.2,5.4,50.4,5,37.3,5C5,5,5,7.1,5,59.8c0,32.4,0,45.6,7.5,51l9.9-20H14.5z"/>
		</defs>
		<clipPath id="SVGID_6_">
			<use xlink:href="#SVGID_5_"  style="overflow:visible;"/>
		</clipPath>
		<rect class="st2" width="67.7" height="115.8"/>
	</g>
</g>
<g>
	<g>
		<defs>
			<path id="SVGID_7_" d="M30.8,103.1c0-4.5,2.4-6.7,6.6-6.7s6.6,2.1,6.6,6.7s-2.4,6.7-6.6,6.7C33.3,109.8,30.8,107.7,30.8,103.1"/>
		</defs>
		<clipPath id="SVGID_8_">
			<use xlink:href="#SVGID_7_"  style="overflow:visible;"/>
		</clipPath>
		<rect x="25.8" y="91.5" class="st3" width="23.1" height="23.3"/>
	</g>
</g>
<g>
	<g>
		<defs>
			<path id="SVGID_9_" d="M33.8,103.1c0-2.5,1.3-3.6,3.6-3.6s3.6,1.1,3.6,3.6s-1.3,3.6-3.6,3.6C35.2,106.7,33.8,105.6,33.8,103.1"/>
		</defs>
		<clipPath id="SVGID_10_">
			<use xlink:href="#SVGID_9_"  style="overflow:visible;"/>
		</clipPath>
		<rect x="28.8" y="94.5" class="st4" width="17.1" height="17.2"/>
	</g>
</g>
</svg>
