<?xml version="1.0" encoding="utf-8"?>
<!-- Generator: Adobe Illustrator 23.0.0, SVG Export Plug-In . SVG Version: 6.00 Build 0)  -->
<svg version="1.1" id="Capa_1" xmlns="http://www.w3.org/2000/svg" xmlns:xlink="http://www.w3.org/1999/xlink" x="0px" y="0px"
	 viewBox="0 0 63 42" style="enable-background:new 0 0 63 42;" xml:space="preserve">
<style type="text/css">
	.st0{fill:#757575;}
</style>
<g>
	<path class="st0" d="M7.2,33.3c0-0.9,0.2-1.7,0.7-2.2c0.4-0.4,0.9-0.5,1.6-0.5c0.5,0,0.9,0.1,1.3,0.2l-0.1,0.5
		c-0.3-0.1-0.7-0.2-1-0.2c-0.5,0-0.9,0.2-1.2,0.4C8.1,31.9,8,32.5,8,33.3s0.2,1.3,0.5,1.7c0.2,0.2,0.7,0.4,1.3,0.4
		c0.2,0,0.6,0,0.9-0.1l0.1,0.5C10.4,35.9,9.9,36,9.5,36C8,35.9,7.2,35.1,7.2,33.3z"/>
	<path class="st0" d="M11.5,35.6c-0.2-0.2-0.3-0.5-0.3-0.8s0.2-0.6,0.3-0.8c0.3-0.2,0.7-0.4,1.3-0.4h0.8v-0.2c0-0.3-0.1-0.5-0.2-0.6
		c-0.2-0.2-0.4-0.2-0.8-0.2c-0.3,0-0.6,0-1,0.1v-0.5c0.3-0.1,0.8-0.2,1.2-0.2c0.5,0,0.9,0.2,1.2,0.3c0.2,0.2,0.3,0.5,0.3,1v2.5h-0.5
		v-0.2C13.4,35.9,13,36,12.5,36C12.1,35.9,11.7,35.9,11.5,35.6z M13.6,35.2v-1.1h-0.7c-0.4,0-0.6,0.1-0.9,0.2
		c-0.2,0.1-0.2,0.2-0.2,0.5c0,0.5,0.3,0.7,0.8,0.7C12.9,35.5,13.3,35.4,13.6,35.2z"/>
	<path class="st0" d="M15.3,32.1h0.5v0.3c0.4-0.2,0.8-0.4,1.2-0.4c0.5,0,0.8,0.2,1,0.4c0.5-0.3,0.9-0.4,1.3-0.4
		c0.4,0,0.7,0.1,0.9,0.3c0.2,0.2,0.3,0.5,0.3,1v2.6H20v-2.5c0-0.3-0.1-0.5-0.2-0.6s-0.3-0.2-0.6-0.2c-0.3,0-0.7,0.1-1,0.2
		c0,0.2,0.1,0.3,0.1,0.5v2.6h-0.6v-2.5c0-0.3-0.1-0.5-0.2-0.6s-0.3-0.2-0.6-0.2c-0.3,0-0.7,0.1-1,0.2v3.1h-0.6L15.3,32.1L15.3,32.1z
		"/>
	<path class="st0" d="M22.2,35.6v0.2h-0.5v-5.5h0.6v1.9c0.3-0.2,0.7-0.3,1.1-0.3c0.9,0,1.5,0.6,1.5,2c0,1.3-0.5,2-1.5,2
		C23,35.9,22.5,35.9,22.2,35.6z M24.2,34c0-1-0.3-1.4-0.9-1.4c-0.3,0-0.6,0.1-0.9,0.2v2.4c0.2,0.2,0.6,0.2,0.9,0.2
		C24,35.5,24.2,35.1,24.2,34z"/>
	<path class="st0" d="M25.7,31L25.7,31c0-0.3,0.2-0.4,0.4-0.4l0,0c0.2,0,0.4,0.1,0.4,0.4l0,0c0,0.3-0.2,0.4-0.4,0.4l0,0
		C25.8,31.4,25.7,31.3,25.7,31z M25.8,32.1h0.6v3.8h-0.6V32.1z"/>
	<path class="st0" d="M27.3,34c0-1.3,0.5-2,1.7-2s1.7,0.7,1.7,2c0,1.3-0.5,2-1.7,2S27.3,35.2,27.3,34z M30.1,34c0-0.9-0.3-1.5-1-1.5
		C28.3,32.5,28,33,28,34c0,0.9,0.3,1.5,1,1.5C29.7,35.5,30.1,34.9,30.1,34z"/>
	<path class="st0" d="M33,34c0-1.3,0.5-2,1.6-2c0.3,0,0.7,0.1,1,0.2v-1.9h0.6v5.5h-0.5l-0.1-0.2c-0.3,0.2-0.8,0.3-1.1,0.3
		C33.5,35.9,33,35.3,33,34z M35.5,35.2v-2.5c-0.3-0.1-0.6-0.2-0.9-0.2c-0.8,0-1,0.6-1,1.5c0,1,0.3,1.4,1,1.4
		C34.9,35.5,35.2,35.4,35.5,35.2z"/>
	<path class="st0" d="M37.5,35.6c-0.3-0.3-0.5-0.9-0.5-1.5c0-1.3,0.6-2,1.6-2c1,0,1.6,0.7,1.6,2v0.2c0,0.1,0,0.1-0.1,0.1h-2.4
		c0,0.4,0.1,0.8,0.3,0.9c0.2,0.2,0.5,0.3,0.9,0.3c0.2,0,0.6,0,0.9-0.1l0.1,0.5c-0.3,0.1-0.8,0.2-1.1,0.2
		C38.2,35.9,37.8,35.9,37.5,35.6z M39.6,33.7c0-0.7-0.3-1.3-0.9-1.3c-0.6,0-0.9,0.5-0.9,1.3H39.6z"/>
	<path class="st0" d="M42.8,30.6h1.5c0.8,0,1.3,0.2,1.6,0.5c0.2,0.2,0.4,0.6,0.4,1.2c0,0.5-0.2,1-0.4,1.3c-0.3,0.3-0.7,0.4-1.3,0.4
		h-0.9v2h-0.7L42.8,30.6L42.8,30.6z M44.2,33.4c0.5,0,0.8-0.1,1-0.2c0.2-0.2,0.3-0.5,0.3-0.9c0-0.4-0.1-0.6-0.2-0.8
		c-0.2-0.2-0.5-0.3-1-0.3h-0.8v2.2C43.5,33.4,44.2,33.4,44.2,33.4z"/>
	<path class="st0" d="M47,30.4h0.6v5.5H47V30.4z"/>
	<path class="st0" d="M48.8,35.6c-0.2-0.2-0.3-0.5-0.3-0.8s0.2-0.6,0.3-0.8c0.3-0.2,0.7-0.4,1.3-0.4h0.8v-0.2c0-0.3-0.1-0.5-0.2-0.6
		c-0.2-0.2-0.4-0.2-0.8-0.2c-0.3,0-0.6,0-1,0.1v-0.5c0.3-0.1,0.8-0.2,1.2-0.2c0.5,0,0.9,0.2,1.2,0.3c0.2,0.2,0.3,0.5,0.3,1v2.5H51
		v-0.2c-0.3,0.2-0.7,0.4-1.2,0.4C49.3,35.9,49,35.9,48.8,35.6z M50.8,35.2v-1.1h-0.7c-0.4,0-0.6,0.1-0.9,0.2
		c-0.2,0.1-0.2,0.2-0.2,0.5c0,0.5,0.3,0.7,0.8,0.7C50.2,35.5,50.6,35.4,50.8,35.2z"/>
	<path class="st0" d="M52.6,32.1H53v0.3c0.4-0.2,0.9-0.4,1.3-0.4c0.4,0,0.7,0.1,0.9,0.3c0.2,0.2,0.3,0.5,0.3,1v2.6H55v-2.5
		c0-0.3-0.1-0.5-0.2-0.6s-0.3-0.2-0.6-0.2c-0.3,0-0.7,0.1-1,0.2v3.1h-0.6C52.6,35.9,52.6,32.1,52.6,32.1z"/>
</g>
<g>
	<g>
		<path class="st0" d="M25.7,12.9c0.1-0.1,0.3-0.1,0.4,0l0.1,0.2v-9c0-0.6,0.5-1,1-1H36c0.6,0,1,0.5,1,1v2.1l0.6,0.2V4.2
			c0-0.9-0.7-1.6-1.6-1.6h-8.8c-0.9,0-1.6,0.7-1.6,1.6v9L25.7,12.9z"/>
		<path class="st0" d="M36.3,11.3c-0.1-0.3-0.4-0.4-0.6-0.5v3.8l0.1,0.3c0,0.1,0,0.2-0.1,0.3v3.3H28c0,0.1,0,0.2,0,0.3l0.1,0.3h8.2
			V11.3z"/>
		<path class="st0" d="M37.3,13.2c-0.1,0.1-0.2,0.1-0.3,0.1v8.1c0,0.6-0.5,1-1,1h-8.8c-0.6,0-1-0.5-1-1v-1.5l-0.6-0.2v1.7
			c0,0.9,0.7,1.6,1.6,1.6H36c0.9,0,1.6-0.7,1.6-1.6v-8.7L37.3,13.2z"/>
		<path class="st0" d="M26.8,3.9V15c0.2,0.2,0.4,0.3,0.6,0.3V12l-0.3-0.7c0-0.1,0-0.3,0.2-0.3h0.1V4.5h8.2v1.3L36.3,6V3.9H26.8z"/>
	</g>
	<g>
		<path class="st0" d="M31.7,21.9c-0.6,0-1.1-0.5-1.1-1.1s0.5-1.1,1.1-1.1c0.6,0,1.1,0.5,1.1,1.1C32.9,21.3,32.3,21.9,31.7,21.9z
			 M31.7,20.2c-0.3,0-0.5,0.2-0.5,0.5s0.2,0.5,0.5,0.5s0.5-0.2,0.5-0.5C32.2,20.4,32,20.2,31.7,20.2z"/>
	</g>
	<path class="st0" d="M35,12.5l-7.9,2.7l-0.9-2.6c0-0.1-0.1-0.2-0.3-0.2s-0.3,0-0.3,0.1l-3.9,5.9c-0.1,0.1-0.1,0.2,0,0.3
		c0,0.1,0.1,0.2,0.2,0.2l6.7,2.3c0.1,0,0.1,0,0.2,0c0,0,0.1,0,0.1-0.1C29,21,29,20.9,29,20.8l-0.9-2.6l7.9-2.7
		c0.2-0.1,0.3-0.3,0.2-0.4l-0.8-2.3C35.4,12.5,35.2,12.4,35,12.5z M35.5,14.9l-7.9,2.7c-0.2,0.1-0.3,0.3-0.2,0.4l0.8,2.3l-5.6-1.9
		l3.3-5l0.8,2.3c0.1,0.2,0.3,0.3,0.4,0.2l7.9-2.7L35.5,14.9L35.5,14.9z"/>
	<path class="st0" d="M28,13.6l7.9-2.7l0.9,2.6c0,0.1,0.1,0.2,0.3,0.2s0.3,0,0.3-0.1l3.9-5.9c0.1-0.1,0.1-0.2,0-0.3
		c0-0.1-0.1-0.2-0.2-0.2l-6.7-2.3c-0.1,0-0.1,0-0.2,0c0,0-0.1,0-0.1,0.1C34,5.1,33.9,5.2,34,5.4L34.9,8L27,10.7
		c-0.2,0.1-0.3,0.3-0.2,0.4l0.8,2.3C27.6,13.6,27.8,13.7,28,13.6z M27.5,11.2l7.9-2.7c0.2-0.1,0.3-0.3,0.2-0.4l-0.8-2.3l5.6,1.9
		l-3.3,5l-0.8-2.3c-0.1-0.2-0.3-0.3-0.4-0.2L28,12.9L27.5,11.2L27.5,11.2z"/>
</g>
</svg>
