<?xml version="1.0" encoding="utf-8"?>
<!-- Generator: Adobe Illustrator 22.0.1, SVG Export Plug-In . SVG Version: 6.00 Build 0)  -->
<svg version="1.1" id="Capa_1" xmlns="http://www.w3.org/2000/svg" xmlns:xlink="http://www.w3.org/1999/xlink" x="0px" y="0px"
	 viewBox="0 0 137.4 101.6" style="enable-background:new 0 0 137.4 101.6;" xml:space="preserve">
<style type="text/css">
	.st0{fill:#00AAE2;}
</style>
<path class="st0" d="M137.4,49.9c0,9.1-0.6,16.3-2.1,23.4c-0.6,2.9-2,5.5-4.5,7.3c-4,3-9.2,1.3-10.7-3.4c-1.2-3.6-0.6-7.3-0.1-11
	c0.7-6.6,1.2-13.2,0.8-19.8c0-0.8-0.2-1.7-0.4-2.5c-1.5-5.9-7.3-7.7-12-3.8c-2.9,2.4-5.1,5.5-6.8,8.9c-3.9,7.8-6.4,16.2-9,24.5
	c-1.1,3.6-2.2,7.3-3.9,10.7c-4.7,9.4-15.4,15-25.8,13.7c-8.6-1.1-15.1-5.3-19.8-12.6c-4.7-7.5-9-15.4-13.4-23.1
	c-1.2-2-2.4-4-4.1-5.7c-3.3-3.2-7.7-2-8.8,2.4c-1,4.3-0.1,8.6,0.9,12.8c1.5,6.3,3.9,12.2,5.3,18.5c0.4,1.6,0.6,3.3,0.5,5
	c-0.2,2.4-0.9,4.5-3.3,5.6c-2.5,1.1-5,1.1-7.3-0.5c-2.1-1.5-3.5-3.6-4.4-6c-3.1-7.8-5.6-15.7-7.1-23.9C-0.9,58-0.4,45.7,3.2,33.6
	c1.6-5.3,3.9-10.3,7.6-14.7c6.5-7.8,19.7-10.5,28.4-1.8c5.4,5.4,9.5,11.9,13.5,18.3c2.2,3.5,4.3,7.1,7.4,9.9c6.9,6.4,16,4.8,20-3.7
	c3.4-7.4,6.3-14.9,9.4-22.4c1.5-3.7,3.3-7.3,5.8-10.4c4.2-5.1,9.5-8.4,16.2-8.9c7.4-0.6,12.7,3,16.4,9.1c3.6,5.9,5.7,12.4,7.1,19.1
	C136.7,36,137.3,43.8,137.4,49.9z"/>
</svg>
